<?xml version="1.0" encoding="UTF-8"?>
<svg clip-rule="evenodd" fill-rule="evenodd" stroke-linecap="round" stroke-linejoin="round" stroke-miterlimit="1.5" version="1.1" viewBox="0 0 2980 1620" xml:space="preserve" xmlns="http://www.w3.org/2000/svg" xmlns:xlink="http://www.w3.org/1999/xlink">
    <use transform="matrix(-.81174 .44226 .44227 .81172 2202.5 -806.3)" stroke-width="1.0818" xlink:href="#path11"/><path id="path11" d="m2316.3 377.43c-8.3266 9.1595-22.918 12.989-29.335 22.098-4.2636 6.0515-3.9834 10.96-6.1144 17.605-0.4382 1.3573-1.5066 4.5822-3.3611 4.567-8.7015-0.0724-9.2857-17.04-10.601-22.471-0.4202-1.7229-3.6437-6.776-5.8805-3.6011-6.7257 9.546 7.7191 19.388 10.1 27.945 0.836 2.9884-2.1282 7.3088-3.6139 9.7456-4.5379 7.4365-12.609 19.367-20.792 23.199-7.3968 3.4614-12.418-9.2675-19.981-0.016-0.7876 0.95959-2.8726 2.7988-3.0687 4.0954-0.5666 3.7459 11.311 1.1539 12.202 1.1118 11.506-0.58209 6.3212 10.568 2.478 16.022-16.912 24.004-41.014 11.814-64.057 21.756-9.1466 3.9424-16.073 11.25-24.092 16.896-1.1583 0.81806-9.7653 8.3052-10.025 7.7796-1.7637 2.7749-4.7214 4.597-7.1713 6.7052-16.327 14.1-18.769-0.25414-20.73-14.486-0.3177-2.2645-0.041-12.704-4.1275-11.294-18.108 6.2533 2.358 20.888 0.398 32.189-1.1347 6.5661-10.38 9.9364-14.79 13.581-3.1737 2.6265-7.0795 7.0727-11.598 6.9581-12.457-0.31927-11.828-19.134-14.901-26.991-1.2665-3.2598-5.5153-8.7244-9.1922-4.9538-12.585 12.919 26.474 28.306 7.1685 45.943-8.9797 8.1971-4.1847-18.261-14.467-11.428-10.426 6.9232 14.027 17.201 3.5325 21.19-13.314 5.0481-10.027-28.874-27.417-12.859-1.8073 1.6601-3.556 3.7122-4.1112 6.1748-2.5454 11.216 28.122 2.5237 23.593 12.765-1.8067 4.0918-5.0193 6.3322-9.1976 7.5334-12.286 3.5324-12.014-2.5099-21.687-8.2969-3.924-2.3502-11.428-3.0697-14.311 1.3957-1.932 2.9911 3.3516 7.5188 5.4513 8.8945 4.3059 2.8265 26.47 0.11637 23.865 8.3403-2.5981 8.2133-15.607 15.612-21.348 21.125-17.695 17.003-38.568 30.292-58.09 44.684-7.5303 5.5515-11.812 14.571-21.811 16.781-14.882 3.2811-22.362-27.354-24.883-36.232-1.518-5.358-5.6725-11.466-12.035-9.9699-7.343 1.7217-6.6621 10.236-2.9659 15.535 5.4105 7.7418 11.776 15.655 18.951 21.809 3.2421 2.7864 8.4395 6.1692 7.9785 11.01-0.5048 5.3439-15.34-7e-3 -17.708 4.622-2.8335 5.5605 2.3631 12.554-1.4105 18.464-7.1364 11.17-17.668 14.352-27.581 22.346-5.3837 4.3376-7.213 9.8643-13.946 12.734-3.954 1.6861-8.1442 2.2254-11.978 4.2834-2.7448 1.4859-2.79 2.6816-3.3954 2.3188-3.696 1.9875-6.1325 9.1907-11.76 7.856-8.0969-1.9262 2.6429-24.682-6.0101-22.425-10.784 2.8046-6.1327 17.122-11.18 23.506-5.8998 7.4575-14.245 5.6117-21.537 10.486-6.5454 4.38-13.434 12.121-20.792 14.781-6.2758 2.2663-29.964 9.4587-35.02 9.6991-12.792 0.6086-23.583-2.291-36.579 0.75665-12.052 2.8279-22.168 13.429-34.908 14.88-4.9536 0.55933-12.164 1.4257-16.685-1.1858-8.3246-4.8049-8.0428-16.021-20.238-8.782-3.097 1.8275-2.4727 5.5914-0.065 7.7182 2.8479 2.5087 12.212 4.0282 13.327 6.9026 2.5826 6.698-5.795 21.067-12.602 22.752-15.191 3.7649-21.265-13.795-27.771-22.619-1.7959-2.4291-7.055-13.938-11.202-8.5618-17.071 22.114 44.667 26.583 28.966 47.216-6.8189 8.9543-13.285-17.722-25.417-13.197-17.165 6.4078 27.86 12.717 13.453 25.437-7.9163 6.9933-20.453-21.409-29.031-23.738-11.828-3.2156-5.5 9.5487 0.01 13.907 3.3808 2.6688 14.073 5.3237 15.241 9.2552 1.1477 3.8696-9.3195 6.7221-11.791 7.4123-13.393 3.7244-28.236 7.3446-42.278 4.251-11.396-2.5048-24.621-7.4704-32.759-16.217-5.8159-6.2498-13.549-23.073-23.937-23.003-1.3559 1e-3 -2.7051 0.58113-3.8661 1.222-9.997 5.5114 21.276 21.678 24.839 24.698 1.9606 1.6524 6.8422 5.6417 6.3119 8.6798-0.8031 4.6474-19.152-3.6015-22.262-3.6798-2.1897-0.0601-15.259 4.7213-14.51 3.1605-29.374-1.1657-5.8248-48.552-15.413-50.827-18.163-4.3154 1.5757 47.025-3.1307 53.004-5.6952 7.235-22.225 0.79395-30.179 1.3682-23.75 1.7129-36.171 25.724-60.513 22.507-4.4702-0.5907-9.0808-7.171-12.345-10.029-3.7696-3.2936-19.561-12.706-18.834-0.73854 0.3958 6.3849 26.396 10.857 22.1 17.906-3.8646 6.3565-34.565 4.6631-37.643-2.3045-1.6452-3.7179 6.3742-7.9045 7.6189-10.814 1.2656-2.9505-2.9438-10.292-6.1578-6.8733-3.7287 3.9573-2.2063 17.489-6.1688 18.802-12.903 4.2849 7.0022-36.549-18.486-24.471-9.2136 4.3655 20.24 20.127 5.8884 25.392-9.1096 3.3467-6.8112-36.867-18.897-24.25-13.553 14.134 18.053 25.369 14.403 39.873-3.4666 13.779-25.263-4.1043-27.552 6.7024-1.9612 9.244 21.756 1.6256 19.224 8.1719-2.3186 5.995-27.478 3.3506-32.555 4.8197-4.2644 1.2442-17.323 17.64-21.481 13.076-5.3041-5.8335 4.7739-17.784-2.7422-22.673-3.1328-2.0478-13.439 0.92641-12.952 5.7336 0.305 3.1084 3.651 6.4942 4.6255 9.5801 5.8019 18.364-2.4362 24.095-15.301 35.453-4.0803 3.6011-7.5568 10.308-12.826 12.018-18.729 6.0719-1.0061-35.051-16.754-23.436-13.51 9.9551 3.3278 22.49 3.4621 33.68 0.2162 18.029-38.701 29.74-28.868 44.328-2.2172 7.7133 23.655-9.0058 29.227-10.854 5.2091-1.7297 24.152 6.7577 24.829 5.431 5.0677-9.9377-23.428-10.514-18.359-24.819 6.6294-18.68 25.888-20.023 37.845-32.954 8.1847-8.8449 12.095-22.277 21.416-29.907 4.8241-3.9507 11.705-6.5558 17.654-8.176 11.484-3.1409 26.177 10.727 34.576 5.5484 4.4622-2.7469-9.6389-7.9628-6.1223-14.493 4.8056-8.9139 27.316-23.067 37.117-19.182 1.6861 0.66176-10.887 48.186 9.6998 49 1.6667 0.0647 1.394-5.0163 1.397-5.8624 0.02-12.834-15.658-26.989-3.0955-37.5 5.1792-4.3303 13.577-4.3922 19.908-4.4514 29.866-0.31318 23.888 28.922 38.954 23.252 10.817-4.0729-16.332-18.139-14.984-24.498 1.0128-4.7866 42.496-25.548 48.474-23.76 14.555 4.3797-14.646 44.954-7.6462 60.138 1.3946 3.0272 3.6164 11.583 8.9506 9.3878 10.808-4.4455 5.9778-71.274 8.2083-73.083 1.3144-1.0509 74.358-9.054 81.165-8.8496 13.088 0.397 26.87 3.5545 39.345 7.5371 12.812 4.0925 21.912 30.53 35.593 21.828 7.8862-5.009-21.316-21.207-17.45-27.18 3.3105-5.1287 22 7.2419 29.353 3.7414 6.6775-3.187 6.6604-17.045 14.821-22.145 10.152-6.3427 22.147-14.09 33.391-18.124 3.9709-1.4272 16.875-0.84868 19.419-3.1696 0.5738-0.52036 0.6667-1.3876 0.5439-2.0958-2.7795-16.036-37.645 5.4027-25.296-15.088 5.7964-9.6188 17.117-0.26392 24.467-1.8372 14.91-3.1737 28.829-14.659 44.051-18.569 14.389-3.7006 28.748 4.3514 42.204 2.0189-1.2942 0.41139 0.6905 0.63791 1.1365 0.72895 3.2145 0.63066 8.9891 2.3795 12.164 1.3802 3.0768-0.97291-1.3741-7.7119 2.075-7.3463 10.455 1.1246 22.492 16.771 33.72 12.047-0.6979 0.0742 0.9406-4.0165 0.9825-4.0986 2.0256-4.4477 0.9075-6.3116-3.853-7.9837-3.0189-1.0667-22.087-1.9704-22.74-5.7387-1.1143-6.4288 18.716-9.7631 22.8-11.079 10.777-3.4393 58.963-25.026 65.974-32.227 13.722-14.079 30.068-26.724 40.653-43.626 1.0392-1.6672 10.537-14.051 13.313-11.689 1.3392 1.1428-6.8792 16.7 7.8505 16.747 13.448 0.0447-6.8755-13.118 3.4801-21.039 6.2777-4.7919 14.34-6.1426 20.354-11.375 21.478-18.706 41.746-42.394 67.388-55.902 8.8542-4.6586 9.6306 14.39 17.263 7.268 8.4845-7.9242-8.6013-11.042-3.6094-19.96 11.372-20.294 67.89-70.439 89.218-78.513 10.218-3.8569 4.7856 23.077 11.927 28.554 7.6466 5.8577 11.136-8.4398 7.635-13.473-2.5141-3.6047-9.2558-6.8321-10.087-11.626-1.3299-7.6728 20.27-6.5158 23.313-8.1188 18.231-9.5948 24.316-28.823 52.975-22.557 4.1117 0.89604 4.1117 0.89604 0.7722 0.62375 9.5791 21.647-6.192 20.827-6.9372 41.673-0.3572 9.8639 16.61 14.564 9.4562 23.96-8.1513 10.71-34.616-11.387-36.678 9.3598-3.0886 30.961 19.122 7.4696 29.425 3.1304 0.4277-0.177 0.7566-0.38367 1.2168-0.2109 1.54 0.57483 3.7484 19.899 3.9409 27.161 0.5123 18.982-23.323 30.343-31.386 45.555-7.2008 13.603-2.5658 30.038-8.6057 43.702-3.2118 7.2628-3.9344 22.951-13.664 25.04-8.5119 1.8308 1.0285-19.212-3.3011-21.473-1.6768-0.87848-4.443 0.10605-6.1237 0.50025-21.441 4.9977-0.076 18.607-2.1026 29.742-0.133 0.74325-0.3402 1.2749-0.8624 1.8237-13.833 14.463-52.817-24.609-60.529-6.6711-10.496 24.379 27.094 13.748 32.665 16.589 3.4886 1.7803-4.8098 10.832 1.4164 12.596 8.0461 2.2811 12.198-11 19.443-11.395 5.0585-0.27821 3.7218 34.962 1.1895 39.076-8.6961 14.096-35.652-25.246-46.794-6.751-13.156 21.819 32.929 12.231 36.982 19.75 2.6791 4.9884-3.9125 36.082-5.4768 42.112-1.2313 4.7674-2.1066 9.7004-2.2087 14.615-4e-4 0.21333-0.4028 6.0398-1.0739 5.8372-0.4238-0.12483 1.1875-2.8078 0.9315-3.0974-1.5439 1.5611 2.2754-3.7624 3.3149-5.6972 1.8932-3.539 3.7223-7.0698 5.3592-10.738 4.382-9.7927 5.9223-19.307 8.751-29.481 0.086-0.31326 0.8036-3.512 1.6483-3.3871 1.0766 0.16786 4.3613 8.5418 5.5553 9.7107 3.2564 3.1926 12.558 0.14559 9.9882-4.915-2.113-4.1503-17.48-4.4225-16.212-11.133 1.6875-8.9346 32.5-1.6302 24.844-17.466-3.5151-7.2753-14.13 9.3516-18.364 3.2673-2.2191-3.1976 8.9111-13.395 9.8959-17.372 2.6445-10.644-3.8777-23.019-0.3948-33.574 3.5095-10.672 16.508-18.565 23.054-27.313 3.8348-5.1261 0.086-14.503 7.3883-16.947 5.4743-1.8187 41.564-5.4553 39.173-12.289-4.5213-12.918-27.975 12.518-33.296 4.4806-5.1242-7.7633 5.6227-34.795 14.631-37.217 1.1449-0.30134 3.8283 9.7837 5.6087 10.99 4.3339 2.9339 14.111 3.9235 16.776-1.9631 3.4102-7.5216-24.847-18.215-4.5092-37.94 17.777-17.232 57.612 9.0004 58.937-5.483 2.011-21.907-41.696-1.4616-49.93-11.567-9.3113-11.415-1.0315-18.2-2.5039-30.796-2.31-19.802-11.551-36.205-6.3883-56.713 4.0723-16.166 13.59 18.885 23.943 6.0915 7.1409-8.823-15.928-11.549-13.875-19.023 2.6894-9.7911 14.762-22.322 22.11-29.301 0.1521-0.14795 0.9307-1.106 1.2042-0.98502 1.9235 0.84506 1.5658 23.495 11.275 11.897 6.0363-7.2099-16.001-18.495 7.0229-40.369 1.816-1.7177 3.8655 1.9582 4.5742 3.0793 5.0251 7.8927 36.789 28.351 44.288 17.707 9.7523-13.831-50.758-6.2041-40.637-37.869 1.6126-5.0496 19.419-25.944 24.967-25.232 5.671 0.71928-0.2619 23.419 12.355 11.71 5.9532-5.5307-7.8609-10.17-6.5059-16.166 2.1109-9.298 42.252-34.185 49.62-32.956 14.783 2.4601-9.159 42.722 10.833 38.218 11.558-2.602-10.461-32.241 0.5724-41.916 3.4498-3.0298 24.31-4.1482 28.918-3.8902 0.5183 0.0224 1.3887 0.13342 1.8156 0.54578 3.1863 3.058-7.1958 20 5.916 17.727 15.055-2.6095-3.1834-17.34-1.2586-22.154 0.093-0.22179 27.962-6.7641 31.975-6.6553l1.6853-1.5548c-0.1002 3.955 0.9018 7.3074-0.4438 11.254-3.283 9.604-21.875 27.53-29.704 34.704-2.5498 2.3406-16.545 15.597-15.795 18.413 2.8854 10.873 16.575-3.0693 19.372-6.2479 3.6171-4.1156 6.524-8.8751 10.275-12.864 3.5556-3.7683 9.5915-6.1239 12.279-10.583 5.6944-9.4515 8.4692-20.801 16.909-28.175 12.405-10.83 31.665-10.548 47.09-10.323 5.5229 0.0809 12.99-1.625 18 1.4818 5.4898 3.3976-1.9615 16.689 8.7656 17.925 8.5407 0.97946 21.054-4.0422 29.095-6.6518 4.6052-1.4904 8.695-4.6591 10.726-1.7936-4.7281 15.728 6.6229 50.836 12.48 65.852 5.3829 13.789 14.083 27.61 11.329 43.183-0.9021 5.048-4.8839 8.516-7.3532 12.779-6.185 10.668-13.793 21.761-15.913 33.922-0.992 5.6622-2.9823 11.825-2.592 17.584 0.1352 1.9126 0.089 3.8568-0.1611 5.7613-0.067 0.47919-0.4822 2.506-0.3918 2.4342-1.5709 6.5856-11.424 11.473-10.21 18.474 1.0262 5.9203 15.762 10.802 11.454 16.44-7.6768 10.048-33.397-11.047-34.871 11.151-0.2644 4.0863 5.2415 10.437 9.6757 8.4989 5.3225-2.3162 18.829-19.631 22.221-6.433 3.8857 15.133-10.943 14.028-14.781 24.532-2.3864 6.5211 0.2853 12.222-0.9512 18.74-1.0504 5.5413-6.7991 8.2587-7.5951 14.027-1.3151 9.5716 2.0386 16.725-2.4641 26.092-3.9541 8.2145-22.015 1.7395-20.293 16.368 0.4554 3.868 6.2364 14.557 11.401 10.576 5.2809-4.0673 6.8141-22.796 10.523-20.446 3.6024 2.275 0.3495 9.5169-0.7522 12.28-3.9705 9.9009-2.3403 19.252-2.6047 29.652-0.086 3.1761-0.1046 9.8107-3.5628 11.551-2.2531 1.1388-6.5962-26.13-18.126-11.383-16.817 21.527 14.734 24.785 19.321 39.322 7.1917 22.821-13.825 43.107-9.2825 65.59 1.5984 7.9264 10.762 25.663 4.7461 32.94-2.1099 2.5581-4.5023-3.0964-4.9457-4.3056-1.1585-3.1223-3.9501-24.084-10.239-17.308-4.6021 4.9616 7.6632 19.713 8.1522 25.718 0.1928 2.3535-0.037 10.471-0.7933 9.4531-0.057 19.906-28.081-4.392-29.643 7.1592-1.5601 11.504 14.984 6.8007 19.533 5.6325 0.4745-0.12247 1.8882-0.54615 2.2308 0.0277 1.3955 2.3311-1.9443 8.6397-3.4365 10.391-5.857 6.8954-9.4889 15.296-8.7322 24.68 0.7428 9.0877 18.26 34.333 8.2758 39.975-8.4582 4.7845-26.584-11.292-27.19-19.645-0.2898-4.0464 6.5922-4.7042 5.2082-8.2102-1.8175-4.6037-12.904-14.443-17.529-8.1563-2.6268 3.5689 1.0389 10.796 2.5139 14.179 4.4516 10.25 10.39 18.017 20.447 22.887 4.023 1.9496 17.196 5.2134 17.723 6.309 0.7572 1.5626-3.6303 8.41-4.2793 10.277-2.8116 8.0614 2.8871 16.117 0.6322 23.99-6.2278 21.753-40.862-8.5216-45.458 12.233-1.2852 5.8056 5.0283 12.606 10.864 10.658 9.3018-3.1013 5.5262-11.447 17.448-10.279 1.427 0.1389 3.4893 0.1116 4.124 1.6693 4.6655 11.322-4.7337 28.269-7.5084 39.187-0.7332 2.8928-0.9625 11.768-4.1624 13.056-5.0447 2.0305-4.7684-10.459-11.139-8.9533-6.6487 1.5723-5.7567 9.6324-1.4797 13.317 1.5276 1.3131 11.182 1.9696 11.233 3.184 0.2486 6.345-17.939 2.3743-20.365 4.5148-6.303 5.5632 4.5938 12.581 0.8186 16.702-2.8773 3.1493-6.8883 8.1217-10.627 10.134-5.1161 2.7517-17.502 2.0329-19.843 9.0362-1.2724 3.8289 1.7362 10.664 6.5081 9.7036 1.1929-0.2404 8.1327-12.76 9.3938-8.8834 1.4651 4.5133-15.254 31.465-20.035 34.206-10.269 5.8832-15.208-28.6-24.508-16.69-12.652 16.204 20.463 18.772 20.41 25.641-0.025 3.3115-6.9941 7.7276-9.2803 9.539-2.6329 2.0772-5.3973 3.7732-8.5143 5-14.246 5.6016-11.558-27.827-23.284-19.183-12.962 9.5562 15.805 20.548 17.698 24.349 2.2488 4.5027-4.133 20.619-1.6427 27.054 1.2525 3.2332 4.8814 5.2829 4.9641 8.9976 0.3489 15.557-29.55-5.6873-32.469-9.3603-1.3663-1.7311-5.2241-13.843-8.5607-11.833-4.3359 2.6127 1.4096 12.017 3.1396 14.444 5.2792 7.4166 29.978 10.367 27.864 21.055-0.2553 1.2789-12.296 4.9306-15.931 8.2376-7.1653 6.5236-6.1013 16.601-10.295 24.728-3.9366 7.6138-26.152 12.457-19.547 25.583 3.2814 6.5208 10.14-3.011 11.647-5.6506 6.5628-11.564 12.761-23.237 19.201-34.862 0.9414-1.6915 4.9396-10.246 7.9032-6.9611 4.3635 4.8311-1.6636 13.658-1.3746 19.319 0.372 7.4338 7.6823 8.8154 8.7465 13.876 2.4548 11.68-18.498 26.452-25.3 33.67-2.3694 2.518-17.178 20.036-20.995 19.55-0.8989-0.1136-1.0124-1.3079-1.0406-2.0101-0.2386-6.6648 15.102-20.682 6.6864-25.313-1.9325-1.0586-4.942 0.1411-6.7485 0.9967-16.923 8.0204 2.3956 30.062-9.3387 33.267-12.467 3.4049-8.9223-18.505-11.763-23.614-0.3412-0.6199-0.7527-1.105-1.5088-0.7186-8.6999 4.4691-7.1677 19.514-0.2648 24.373 1.0761 0.7581 9.1192 3.1837 9.0401 3.9681-0.3965 4.1878-11.038 12.022-13.785 14.899-2.1451 2.2471-9.2073 12.603-13.266 11.58-5.3102-1.3355 10.409-30.17-2.8419-30.695-6.3098-0.2494-8.4234 13.403-8.5148 17.732-0.1265 5.4214 2.8693 10.294 2.8058 15.54-0.1072 9.4716-14.373 37.46-22.274 41.793-20.232 11.105-17.021-26.592-25.903-23.066-7.8758 3.1263-9.7919 18.566-3.4533 23.946 3.3692 2.8719 25.247 3.6338 22.282 7.8403-5.8321 8.2801-16.346-3.8138-21.415 2.5017-3.3688 4.1988 5.3416 6.3732 5.4164 9.6104 0.1086 5.0514-12.338 17.583-16.468 20.091-9.1135 5.5369-26.762-15.717-30.241 9.1045-2.6615 18.963 27.014-6.2958 23.16 4.9206-1.8022 5.2508-30.081 18.499-36.498 25.235-2.2473 2.3593-10.188 9.6945-7.1392 13.689 7.767 10.167 26.684-7.9297 31.692-13.737 19.429-22.537 40.297-44.328 62-64.647 5.3119-4.9677 9.12-11.488 14.801-16.055 22.994-18.486 2.7152 14.154 13.682 30.372 0.6425 0.9548 1.7452 0.5177 2.3906-0.1834 6.1668-6.6732 6.9413-18.5 7.6502-27.037 0.4919-5.9037-0.4852-11.486 0.6032-17.456 3.7843-20.634 19.646-32.832 32.367-48.097 5.4818-6.5778 12.557-10.921 19.138-16.288 1.746-1.4203 1.4543 1.5372 0.427 1.9238 5.7133 2.5283 6.9909 12.975 11.39 17.256 3.8279 3.738 14.33 4.11 13.449-3.6181-0.9682-8.5538-13.483-9.6357-17.95-14.9-1.9033-2.2394 14.836-27.507 18.985-29.901 9.4217-5.4313 22.612 36.674 29.473 21.163 4.4612-10.092-25.261-22.98-22.358-32.078 3.8871-12.162 15.125-4.5232 24.002-6.463 4.6321-1.0115 8.1879-3.8623 12.647-5.1711 2.955-0.8666 13.697-5.5317 12.458-10.149-0.8465-3.1567-10.941 1.3587-12.233 2.0522-5.7323 3.0821-25.679 20.907-32.26 8.0292-4.004-7.8294-2.2323-44.877 6.9494-48.94 5.0734-2.243 13.512 27.771 19.811 17.76 7.8945-12.57-15.878-14.117-14.837-25.054 0.2584-2.7721 0.7741-8.7006 2.7583-10.635 1.2398-1.211 21.474-1.8339 12.227-8.3485-4.975-3.5027-13.619 10.896-17.512 2.0879-5.1954-11.735 19.662-39.972 24.874-40.875 3.623-0.628 1.4879 17.11 10.306 19.204 5.9215 1.4091 0.2618-10.523-0.3276-11.657-0.8704-1.6758-6.3002-9.0438-5.4808-10.899 0.6915-1.5686 31.383 2.2335 27.024-5.4296-7.8978-13.89-29.875 9.7042-31.947-2.249-0.7463-4.3058 13.665-17.588 16.737-20.642 4.093-4.0681 7.428-18.606 11.647-19.894 4.0155-1.2236 5.8942 20.569 12.354 15.802 7.1904-5.2999-13.015-15.244-11.98-20.336 1.7514-8.6736 18.412-8.5488 23.298-17.106 4.6217-8.0862 3.6867-32.96 15.478-35.726 6.1206-1.435 3.1209 15.092 3.7919 18.37 1.6123 7.8988 9.7573 16.038 7.3986 23.906-3.0574 10.15-26.919 2.8019-18.491 17.966 8.711 15.668 17.67-7.8665 20.286-6.4278 4.7042 2.5882 3.7034 16.726 5.7874 21.68 3.23 7.681 11.384 7.3994 15.247 13.338 2.9716 4.5711 0.7289 10.195 4.9563 14.511 4.4809 4.591 14.572 7.3407 13.294 15.774-2.0432 13.519-29.164-1.7343-33.849-1.5133-6.5215 0.3092-7.842 7.4219-2.9028 11.744 7.4112 6.4962 29.42-7.5238 40.183 2.1756 12.391 11.162-10.718 27.955 3.7388 30.905 14.399 2.9402-0.6291-15.609 5.8345-17.871 1.5521-0.5421 29.245 10.621 32.814 13.136 4.2614 3.0016 10.083 11.71 12.697 16.216 0.9069 1.5628 1.9834 4.2663 0.9097 6.0041-8.3846 13.519-26.407-20.203-29.189-7.0611-3.5373 16.663 25.244 13.005 32.227 17.571 2.3637 1.5497 3.8724 4.5879 5.0832 7.0409 6.7566 13.727 13.642 22.099 23.074 33.512 3.7652 4.5636-3.173 30.15-3.3179 37.139-0.038 1.9398 0.9202 13.079 3.5548 13.062 13.164-0.085-5.2157-34.947 5.9179-36.168 4.7911-0.5256 30.458 36.882 30.05 43.272-0.4525 7.1025-12.173 13.085-6.5028 19.951 5.4529 6.584 7.6873-7.8833 14.507-4.2074 11.09 5.9772 20.041 27.071 27.152 37.072 2.3656 3.3415 9.5035 11.067 8.8075 12.07 0.7995 0.7275 1.2242 0.9654 1.2185-0.5245-0.061-9.6306-8.6276-12.866-12.95-20.159-5.02-8.4566-8.6955-21.298-12.452-27.161-3.4624-5.4064-16.982-14.176-13.868-22.538 3.1966-8.5921 11.367 1.1508 17.307-1.54 4.3016-1.9474 2.9925-10.039-1.4544-10.981-7.0203-1.489-16.136 13.21-20.842 1.3277-2.5589-6.4534 23.603-15.78 13.014-25.61-3.2323-2.9995-11.518 14.006-17.376 12.531-11.178-2.8128-35.726-33.062-31.812-43.67 2.4164-6.5638 15.068 5.6169 20.736-1.5636 1.9023-2.4071 4.9923-10.967 0.5054-12.463-7.8623-2.6234-14.569 5.0338-21.437 4.8577-8.8031-0.2269-23.489-25.112-26.163-32.337-7.276-19.638 0.4381-19.11 15.3-34.003 2.4392-2.4393 4.4993-12.084 0.9627-14.573-11.561-8.1507-16.232 18.7-25.979 21.067-15.446 3.7502-2.4671-14.665-4.2775-15.505-2.8471-1.3172-7.5286 5.6691-10.136 6.7065-6.9551 2.7722-21.267 1.3611-27.118-3.4226-21.564-17.622 20.899-29.33 8.0212-41.246-8.498-7.8557-11.939 23.123-18.213 18.706-6.3287-4.4596-10.928-21.174-5.8078-27.679 2.8965-3.6858 20.038-3.0018 13.178-17.326-1.0705-2.2369-3.1872-2.8473-5.4761-3.0483-14.199-1.2482-12.1 22.786-20.74 14.003-4.292-4.3647-12.984-37.998-9.8078-41.583 4.0508-4.5808 25.705 9.0305 21.862-8.2321-2.0502-9.1847-17.557-3.0306-22.71-5.4559-4.1229-1.9322-4.6618-4.3398-5.1322-4.4098-1.028-0.1567-1.8391-8.344-2.0077-9.3164-1.7495-10.094-4.4339-20.454-4.1306-30.737 0.038-1.346-0.3585-10.864 1.888-10.907 8.1852-0.1542 10.034 24.864 21.994 17.405 5.4105-3.3734 4.779-11.279 1.1245-15.636-7.5012-8.9581-21.676-8.8227-18.801-24.02 2.286-12.065 22.443 10.392 26.316-1.587 5.3398-16.516-21.759-3.3658-24.97-13.744-4.6411-15.012 15.826-19.799 16.544-31.576 0.5613-9.2267-5.1793-17.578-7.0265-26.346-2.5161-11.98 1.5591-38.652 9.7799-48.475 1.8215-2.1723 26.591 18.675 30.432-1.9574 4.2009-22.601-30.128 1.609-30.22-13.005-0.044-6.1381 5.1869-34.071 9.7831-37.61 0.4037-0.31502 22.012 8.5511 20.665-0.83687-1.9273-13.493-24.91 7.5388-24.066-12.469 0.2726-6.4138 1.0473-21.639 6.8838-24.983 2.7477-1.5771 27.154 2.4942 21.379-8.9677-5.4401-10.773-16.601 10.741-21.757 8.4608-2.5626-1.1327-2.5031-8.5057-2.9042-10.819-1.8387-10.608-6.5706-23.878-4.9572-34.535 0.9866-6.503 7.6754-5.3615 10.753-9.2434 3.3226-4.1955-4.3959-15.54-0.6826-18.129 3.38-2.3536 11.408 14.662 17.786 15.847 7.3357 1.366 5.5738-9.6083 0.3354-11.609-4.0963-1.5628-9.8002-2.6879-12.315-6.6759-8.6077-13.669 3.9712-30.833 4.9793-44.551 0.8509-11.549-7.4508-14.927-9.168-24.833-0.8546-4.9305 4.3811-13.414 6.208-17.659 6.4251-15.003 10.074-13.755 11.153-30.301 0.166-2.4418 1.5602-15.011 2.9159-17.172 0.9972-1.5852 0.9972-1.5852 0.371-0.0176 2.1012 12.122 9.0733 23.316 10.259 35.391 0.7642 7.8082-3.966 15.269 0.3485 22.677 9.2984 15.981 28.68 23.387 41.356 36.351 4.3208 4.4233 2.7209 14.241 5.2592 19.712 2.5352 5.453 9.2439 8.4896 11.337 14.038 4.1871 11.153-24.359 7.262-20.236 16.321 1.6354 3.6074 7.1958 3.635 10.245 2.1244 11.511-5.6803 14.372-9.8425 26.546 0.39313 7.0401 5.9198 15.627 12.183 21.37 19.36 1.9231 2.4071 8.0903 10.845 7.4984 10.83-14.74-0.37902-26.289 1.3636-32.579 15.848-1.7199 3.9448-1.6911 9.2916 1.0747 12.784 9.8465 12.452 18.097-9.1797 26.394-16.459 2.6787-2.3527 6.0501-8.4787 10.194-4.4261 7.0813 6.9134 16.979 43.563 22.91 54.852 6.5999 12.553 18.635 27.651 29.559 36.551 6.0546 4.929 15.704 5.8303 20.618 12.489 3.1567 4.2902-0.2601 10.802 1.868 16.119 3.0835 7.699 22.99 29.461 21.575 34.897-2.8488 10.922-33.981 4.3075-29.55 20.804 0.798 2.9856 2.9101 4.7566 5.6363 5.9152 12.256 5.2 11.156-16.687 20.513-12.184 10.316 4.9647 8.9741 28.139 13.485 37.113 1.95 3.8577 6.2782 9.1327 4.3903 13.728-1.5184 3.7042-9.6195-1.9158-11.663-2.8073-6.939-3.0164-20.044-19.534-27.925-8.3465-3.2654 4.6336 3.8224 8.2387 7.1473 9.6143 5.4322 2.2553 30.848 9.1287 33.378 12.556 6.5075 8.8367-20.704 27.592-7.6198 38.058 10.045 8.0402 10.478-17.956 14.085-20.132 4.878-2.9388 10.618 4.1706 14.192 6.3852 3.6262 2.2503 13.819 2.7227 15.79 6.5964 4.9669 9.7697-30.988 30.263-25.984 37.605 6.2723 9.2067 22.744 7.8613 27.48-1.7243 2.9106-5.8712-4.579-27.389 1.317-28.716 6.166-1.3896 7.3575 24.587 8.9926 30.566 1.5676 5.7525 4.7413 10.464 9.6305 13.904 1.6835 1.1869 3.1834 2.5552 5.0436 3.4665 0.6842 0.3322 1.9762-0.524 2.2751 0.1752 0.031 0.073-3.8675-15.244-4.7673-20.435-2.4309-14.024-2.4752-29.119-6.6389-42.78-4.4459-14.588-20.749-6.6058-30.415-14.94-2.9143-2.514-9.9896-9.7699-7.5342-14.329 2.654-4.9233 19.301 18.703 25.197 0.26885 7.2674-22.771-34.743 4.3376-29.163-15.276 1.7783-6.2521 32.794 3.7931 29.53-12.073-1.7237-8.3799-21.748 8.7268-29.564 6.3721-6.778-2.0332-19.703-28.579-16.712-33.603 0.2399-0.39698 13.568 5.4833 16.16 5.7598 3.6879 0.39426 7.8821-5.302 4.461-8.2042-5.3419-4.54-17.269 5.5391-20.967-4.0342-1.9696-5.1039 2.2385-9.263 2.2618-14.363 0.072-12.699-5.3155-13.399 1.2761-23.881 1.8545-2.9524 7.9087-10.167 2.7625-13.201-8.6684-5.1157-5.7881 25.154-13.279 18.411-5.1878-4.6761-11.512-20.552-10.002-27.217 1.6504-7.2597 12.996-16.919 4.8545-24.442-4.9226-4.55-2.5229 24.727-10.311 20.751-6.2895-3.2085-7.4461-12.687-13.294-17.016-27.359-20.242-42.837-26.279-51.331-61.904-1.3711-5.752-4.8917-13.706-4.4654-19.557 0.06-0.73519 1.0981 0.12955 1.5673 0.0847 5.0699-0.48221 14.126-9.4819 10.296-14.684-3.7405-5.0682-12.367 11.426-17.787 9.5629-10.324-3.5511 12.936-9.9238 3.3615-18.001-4.129-3.4782-5.998 8.2938-8.6477 9.4649-2.6752 1.1857-9.1871-6.7589-8.7943-9.2952 0.2971-2.0091 33.486-17.252 38.561-22.021 1.9139-1.8011 10.408-7.8882 7.5393-11.057-8.6965-9.5946-22.984 25.179-38.186 18.034-7.7381-3.6336 16.813-10.005 16.747-19.612-0.013-1.7468 0.2696-4.2182-1.3392-5.3516-12.272-8.6382-12.344 11.829-17.88 14.154-10.992 4.627-2.0742-19.899-13.288-14.934-7.3844 3.2628 8.8974 17.444-1.7456 23.546-1.6846 0.9654-3.5435 2.3277-5.5268 1.7315 0.01-0.0613-10.76-10.273-11.955-12.423-4.4286-7.9587-12.97-12.614-17.218-20.23-3.912-7.0288-3.9766-14.902-6.6845-22.214-0.8943-2.4077-5.6177-4.8906-5.5832-7.2816 0.079-5.6441 20.513-15.368 25.053-17.128 2.3592-0.90463 9.1339-2.8832 7.8531-6.7111-1.5926-4.7091-12.502 0.44613-14.748 1.9015-10.238 6.6569-18.016 23.297-30.681 10.182-8.1969-8.4934-22.016-29.134-17.961-41.837 1.5636-4.9008 17.662 6.8715 13.457-6.2141-3.9366-12.243-10.742 7.2025-15.955 2.1669-8.8625-8.5557-6.179-31.655-7.1988-42.449-0.4218-4.5379-2.4013-11.21-0.7953-15.65 1.6372-4.53 16.336 10.234 17.973-1.8527 1.4298-10.583-20.152 1.1547-18.686-9.4905 0.3488-2.5203 3.3947-4.5354 4.4279-6.8843 4.1885-9.4524 3.3568-24.179 17.009-24.142 8.3285 0.0248 36.63 20.092 41.339 0.26094 4.3554-18.31-21.209-3.0018-30.312-5.3336-6.1386-1.5829-18.014-8.7934-11.561-16.3 4.5849-5.3309 19.349-4.2236 26.092-7.3565 14.226-6.6372 20.126-27.797 36.58-30.322 9.4839-1.4568 18.806-3.4186 27.918-6.532 2.9494-1.0069 11.439-3.7224 11.072-4.22l0.048 0.38452c23.105 21.763 34.019 50.249 53.39 74.268 7.1388 8.8638 21.771 11.369 26.94 20.742 8.4612 15.359 6.6557 34.837 14.985 49.92 7.5349 13.631 24.355 17.805 32.099 32.213 8.8868 16.52 9.3162 36.265 16.613 53.323 4.7028 10.998 12.014 24.794 20.061 33.719 3.5104 3.9025 8.6563 5.5854 11.929 9.7909 7.6384 9.8033-0.7508 27.559-2.1854 38.384-1.4074 10.658 3.9707 17.944 5.3455 27.872 1.3642 9.7591-5.7102 21.609-4.3695 31.179 1.8399 13.097 7.3885 17.913 12.385 29.797 0.9481 2.2319 4.1297 9.3097 4.5702 11.689 1.9853 10.59-2.3618 20.801-2.6793 28.843-0.012 0.30975 1.5308 11.53 8.2621 23.762 3.5866 6.5006 0.02 13.874 0.07 21.068 0.1081 17.621 8.812 30.982 17.577 45.451 6.4614 10.675 14.213 21.345 17.857 33.412 3.6991 12.275 3.3554 26.157 10.585 37.269 11.747 18.074 36.036 18.07 49.829 33.217 6.9219 7.6126 10.728 17.594 17.397 25.472 20.284 23.999 40.318 48.547 64.644 68.073 5.3547 4.2908 5.3028 15.107 3.1665 20.912-10.434 28.46-5.4457 44.018 0.7058 71.899 1.4828 6.7203 0.3342 12.774-1.309 19.32-0.5564 2.1859-2.5376 8.1308-2.5109 8.1234-0.1967-6.585 8.31-17.403 8.5822-26.57 0.4858-16.084-9.2112-33.555-5.526-49.364 4.0252-17.301 21.276-31.472 13.826-50.277-4.9578-12.523-25.553-13.117-33.941-23.52-21.502-26.655-40.824-55.728-64.212-80.798-9.2585-9.9227-23.591-6.0038-31.864-13.536-11.214-10.196-8.864-27.721-15.57-40.186-7.6332-14.198-22.927-23.167-28.674-38.03-8.6811-22.456-1.8181-40.599-3.5597-62.14-0.6783-8.2842-11.408-5.8642-13.641-12.976-2.8975-9.2164 6.2671-18.829 5.15-27.971-1.7953-14.621-13.696-26.997-15.676-42.143-1.7849-13.643 7.7549-22.278 8.3994-34.694 0.4161-8.0137-6.4042-12.774-7.7054-20.281-3.73-21.519-1.0408-40.323-10.619-61.265-4.9868-10.909-16.695-15.378-22.001-25.701-11.04-21.497-11.246-48.37-22.631-69.536-6.8075-12.672-22.066-18.145-28.32-31.343-8.4929-17.917-8.2643-41.096-21.527-56.474-8.8004-10.194-21.654-15.822-29.976-26.062-6.3519-7.8311-7.1153-17.632-11.972-26.171-8.6771-15.257-20.492-27.893-30.523-42.007-0.7538-1.0572 0.1256 1.3718 0.048-0.31696-0.5025-9.9674 2.317-13.72 5.7189-19.94 8.6801-15.861 10.898-31.07 14.331-48.388 1.0182-5.1336 3.0478-10.368 2.3316-15.687-0.3165-2.3114 0.7553-6.65 0.2172-5.7617 4.0346-2.5699 17.291-11.349 19.3-13.839 5.9788-7.4338 13.319-29.675 14.814-39.503 1.6357-10.852-1.1266-24.469 3.8035-34.498 4.7105-9.5709 14.975-14.511 21.948-22.089 8.947-9.7347 15.742-20.77 24.033-30.999 7.479-9.2464 20.621-10.533 30.985-15.117 12.812-5.6721 24.118-15.451 34.363-24.821 3.318-3.035 7.0552-5.2166 11.236-6.727 2.234-0.81746 6.2183-1.5735 6.2076-1.581 2.3427-0.40606 1.6997-4.0077 5.0246-3.8732 2.8824 0.11768 4.796 7.3806 4.4592 9.6463-0.5479 3.5836-18.146 14.023-6.0113 16.905 10.984 2.6135 12.176-17.926 12.236-24.054 0.02-2.2015-2.0387-8.7938 1.5707-9.1763 17.075-1.7999 7.1387 26.616 21.261 23.859 8.1293-1.5774 2.4054-13.324-0.9994-16.99-0.4257-0.45934-5.15-4.027-4.2835-4.7477 2.5031-2.0706 13.182 1.4283 16.348 1.3472 12.015-0.31495 23.388-12.266 34.268-1.1323 2.2951 2.352-15.503 18.849-3.9249 19.704 17.298 1.2666 5.8356-23.552 23.406-21.94 10.906 0.99974 22.049 6.8593 32.817 9.2391 3.6493 0.80782 9.8908 0.85768 12.32 4.1498 4.6274 6.2781-10.676 32.164 6.077 31.897 9.4403-0.14919-2.3405-22.126-2.2333-28.214 0.097-5.4976 4.1384-10.875 10.047-7.9893 7.4469 3.6476 5.6855 13.381 5.8852 20.08 0.4003 13.511-0.087 31.806-8.2544 43.398-1.9123 2.7165-5.5241 3.6138-7.236 6.4451-1.9931 3.2917-1.8565 10.619 3.2424 10.914 7.5208 0.4267 10.738-10.803 10.988-16.673 0.5903-13.926 3.2559-27.454 3.2295-41.479-0.01-4.3291-2.3478-11.284 2.5064-14.015 7.2739-4.0948 16.019 20.69 15.809 25.983-0.2459 6.2436-12.037 12.393-10.215 18.943 0.8976 3.2302 5.7632 2.8264 7.7083 1.1518 4.1131-3.5469 6.2022-11.335 6.8487-16.461 0.6891-5.4507 1.5152-11.056 0.4259-16.526-0.6195-3.11-2.7001-6.7712-0.5058-9.733 5.9212-8.0037 19.3 3.7443 25.802 5.5166 7.8435 2.1478 15.467-2.9708 23.328-3.155 6.2266-0.14397 10.476 3.3283 16.292 4.434 7.1398 1.3532 15.61 0.87639 22.799-0.36966 2.1374-0.3705 17.437-2.4612 17.742-3.1781-1.3555-1.8414-12.263-0.98897-14.711-1.8834-10.044-3.665-18.407-9.8288-29.071-12.208-7.1749-1.609-19.962-0.33732-26.172-4.4891-6.958-4.6583 22.593-15.972 6.1296-19.881-12.579-2.9918-11.026 30.232-27.863 18.373-12.982-9.1511 8.066-21.919 12.512-27.356 1.4346-1.7545 6.4383-9.9732 2.7701-11.274-6.0724-2.1555-9.6335 4.6628-12.21 8.6541-5.5285 8.5529-10.11 20.224-21.739 21.819-13.113 1.7959-29.553-1.7707-42.015-5.8397-4.2509-1.3863-8.3124-1.945-12.685-2.6087-2.0928-0.31066-4.1514-0.72079-6.1785-1.3328-0.1885-0.0515-0.8199-0.0356-0.6135-0.25843-28.164-3.6014-3.2797-31.877-23.46-42.633-3.9433-2.0943-8.3518-4.1361-12.955-3.6936-6.654 0.62959-11.122 8.1849-6.5736 13.644 6.9463 8.336 18.622 9.2865 25.828 17.063 2.3413 2.5216 6.0169 7.9921 3.0234 11.41-2.0573 2.3488-7.222 0.74675-9.5818-0.14428-8.6523-3.2797-16.415-7.574-25.856-8.4535-10.251-0.95428-20.114 3.4303-30.452 2.6128-2.2553-0.17962-8.0555 0.9941-9.7863-0.77291-1.4514-1.4881 2.45-4.8486 3.3985-5.6303 5.9354-4.9103 13.281-9.7658 17.748-16.105 1.6683-2.3655 3.1144-8.5647-1.5203-8.7715-12.396-0.54511-18.964 27.764-26.985 35.776-7.2316 7.2207-18.406 1.0858-27.226 2.0536-6.0575 0.66648-10.234 5.4402-15.676 6.9072-2.6816 0.71733-5.2919-0.2051-8.1414 0.78452-13.42 4.7018-26.29 13.77-38.753 20.27-6.7072 3.5008-14.569 4.8168-20.593 9.5647-6.7228 5.2993-8.4799 12.375-14.111 18.468-10.41 11.279-22.055 20.827-32.356 32.19-4.7206 5.1954-9.9822 10.616-13.841 16.466-6.3432 9.6481-9.8596 21.575-20.627 27.444-11.032 6.0181-31.018 20.163-44.215 17.84-10.62-1.8629-16.626-14.767-24.363-20.927-2.1154-1.6816-7.4509-1.5986-10.038-1.6834-0.8653-0.0277-4.5925-0.0551-4.3718-0.13076 2.8605-0.92606 4.9116-3.7695 7.7268-4.9028 7.9213-3.1875 20.216-1.3248 25.288-10.107 4.3868-7.6068-3.0964-16.084 4.4251-22.279 6.8916-5.6746 32.292-12.865 25.597-25.911-1.9196-3.7358-5.6953-3.7735-9.3134-4.9515-0.5253-0.17083-4.3017-2.6402-4.3994-2.2865-1.2879 4.6566 1.8542 9.7798 1.8903 14.413 0.075 7.6657-11.71 18.023-19.062 13.162-8.3672-5.5364-0.3827-18.612-2.618-25.95-1.9953-6.5473-13.335-15.31-12.951-22.269 0.2449-4.5225 15.188-0.0605 8.951-11.924-1.4464-2.7329-6.4859-6.7697-9.8769-5.1812-2.379 1.1138-4.9069 4.4982-7.7286 2.303-11.481-8.9342-15.646-25.3-24.167-36.309-2.6157-3.3813-10.411-1.1416-11.304-5.3734-2.4622-11.723 13.557-12.545 19.8-17.05 2.8094-2.0302 6.2855-8.2539 4.2115-11.748-10.015-16.877-14.359 8.7274-19.104 12.487-4.516 3.57-16.453-0.32823-20.544-3.2106-2.0227-1.4171 4.0288-5.5712 5.1686-5.7407 3.0923-0.45183 16.326 8.8801 11.364-5.1779-2.6915-7.5958-12.476 1.7883-18.001 0.39842-10.406-2.6203-19.215-12.27-25.862-20.237-5.3472-6.4059 2.9168-11.177 1.9508-17.398-0.3162-2.0403-6.239-11.929-8.9671-7.8642-2.1623 3.2275 2.5243 17.801-2.9271 18.942-3.7734 0.78501-12.173-8.6085-12.068-12.05 0.2191-7.0995 12.065-7.4505 8.9622-13.694-1.5965-3.2213-6.7238-3.5017-7.742-6.7858-0.8511-2.7519 0.8789-12.143-4.8677-11.895-4.4758 0.18656-5.3823 9.6873-12.043 5.8474-5.3925-3.1058-1.1184-13.845-4.9521-18.371-2.1543-2.5541-8.0417 1.1975-11.279-0.64507-3.1949-1.8125-7.9396-19.041-12.669-16.435-5.3427 2.9557-2.0012 8.6897 0.2447 12.743 4.3414 7.8335 23.502 10.564 23.109 20.546-0.083 2.2216-4.104 0.28112-4.8782-0.19262-1.8543-1.147-8.8754-13.108-11.461-8.1147-5.731 11.076 13.442 9.726 15.781 15.017 3.0905 6.9841-17.214 5.696-11.764 16.256 2.8754 5.581 9.3843-8.8845 12.275-8.9366 1.6043-0.02554 9.4475 12.093 8.8058 14.542-1.8154 6.9553-19.646 3.6953-20.446 13.757-0.301 3.8214 5.3873 8.148 9.0424 7.3273 5.2027-1.173 7.3283-8.6591 11.842-10.947 2.8616-1.4594 7.488 0.08633 7.7674 3.6949 0.5014 6.2918-19.354 10.454-23.778 15.579-2.1173 2.4621-2.1553 10.391 1.3642 12.025 8.9186 4.1314 18.531-11.424 22.109-16.412 2.8559-3.9743 6.8278-6.6363 10.83-1.9988 6.8555 7.9309-13.254 22.116-16.909 27.688-2.3073 3.5238-3.0031 10.949 2.1404 12.564 11.051 3.4812 13.674-10.629 15.818-17.361 0.7826-2.4458 2.926-7.8867 6.3495-7.5074 4.0345 0.45111 6.466 6.2774 7.6284 9.3682 3.4241 9.1243 7.2092 18.551 4.4317 28.32-1.0177 3.5715-6.1468 7.9212-6.4457 10.891-0.3735 3.6189 5.0481 8.4032 8.4612 8.3447 3.854-0.0507 5.208-6.4303 5.679-9.2711 1.5182-9.1017-1.5547-18.736-4.1453-27.369-0.4058-1.37-3.7794-11.12-0.6999-11.215 1.8147-0.05266 5.786 7.4803 7.211 9.0103 6.629 7.1097 14.982 12.564 22.065 19.165 2.3306 2.1681 6.7302 5.4273 7.5542 8.6702 1.7162 6.7173-7.222 11.97-3.9367 20.024 4.9989 12.274 17.476 15.621 24.975 25.32 4.3376 5.5988-0.2814 9.6543 1.5796 15.103 3.4779 10.191 20.138 28.282 11.114 39.62-4.8091 6.0338-15.185 3.1558-20.032 8.7565-2.3159 2.6648 2.797 7.5026-0.6007 10.402-2.096 1.7756-7.1731 0.11162-9.4067-0.41782-10.066-2.3331-19.311-8.8304-22.41-19.264-1.7285-5.8172-0.18-11.183-2.9826-16.992-4.6669-9.6571-13.973-17.911-20.173-26.704-4.6638-6.6179-7.0525-14.247-9.5592-21.856-1.6969-5.1493-6.354-13.994-5.3458-19.51 0.9705-5.2469 8.7618-8.8608 5.4194-15.193-5.1385-9.7343-8.2267 5.8499-12.411 3.5075-4.0402-2.2646-6.5106-18.298-10.602-19.347-4.6195-1.1821-6.5001 7.1781-6.0758 10.219 1.365 9.8178 7.1088 18.026 9.8644 27.341 0.9031 3.0516 0.3826 7.6031-0.1392 9.611-0.5677 2.1748-3.3107 5.3439-5.6693 3.2835-1.9428-1.7116-5.6267-13.522-9.6354-7.1872-2.3517 3.6999-0.5015 7.9528 2.8519 10.14 5.3998 3.5254 12.089 3.8063 17.885 6.3277 1.6196 0.71067 4.7863 1.4431 5.5377 3.2957 1.0391 2.5416-1.1739 4.721-2.7815 6.3464-3.8968 3.9584-11.489 8.3982-7.5824 14.801 3.9017 6.3759 7.1194-7.9214 10.092-6.9589 4.0446 1.3192 5.9069 5.8038 8.6243 8.7466 5.6455 6.1297 11.213 10.786 14.126 18.848 0.6416 1.7594 1.0985 3.5321 1.1713 5.4088 0.472 12.058-11.218 10.877-18.622 16.621-3.8336 2.9747-9.9824 10.344-5.7811 15.265 2.3906 2.7844 6.7357 0.65633 8.8412-1.2799 3.9219-3.5979 7.4282-14.288 13.01-15.649 2.0557-0.49662 4.0691 1.3524 5.5926 2.4258 5.1033 3.5955 7.1287 9.3987 11.187 13.924 0.9416 1.062 5.2573 6.3186 5.7373 5.5807-26.971 11.942-54.814 26.626-72.146 51.227-2.5671 3.6437-4.7911 10.455-4.0151 14.931 0.5367 3.0963 2.8425 9.8704 0.1745 12.447-9.978 9.6141-27.683 1.1975-37.276 1.3263-8.3715 0.10423-11.707 8.1087-19.132 9.8446-5.0693 1.1873-11.095 0.20217-16.196-0.30717-10.08-1.0119-26.168-0.15014-35.292-5.8452-6.4622-4.0427 0.4615-8.507 2.3804-11.898 2.7395-4.8614 1.9629-11.554-2.9229-14.542-2.8033-1.712-14.349-3.0872-14.337 2.5973 0 8.2298 8.8511 16.854 5.0028 25.733-2.0166 4.6613-7.8726 7.1915-12.653 7.4028-0.8815 0.0406-8.2369-2.0329-5.657-3.0132-0.5902-3.4051-6.7209-14.277-9.4974-16.05-3.6711-2.3473-12.1 3.8464-12.57 7.6128-0.918 7.2767 20.027-0.31005 15.113 11.485-0.8594 2.057-4.4163 2.3648-6.1848 2.5217-2.5515 0.22712-20.932 1.4583-22.073 1.1323-12.237-3.416 1.027-15.227 3.0448-21.123 1.3724-4.0072-4.087-4.099-6.4114-3.2098-11.078 4.2397-0.01 22.299-6.7536 29.08-3.9588 3.9784-16.705 3.7747-22.178 5.004-17.802 3.9742-20.761 11.24-40.83 8.8261-3.3722-0.40692-7.1839 0.31925-10.46-0.66553-12.167-3.6619-9.3102-10.545-7.2716-19.774 0.7935-3.5701 2.0669-11.872-2.8083-13.234-17.892-4.9611-1.4086 22.523-9.2079 26.522-8.4533 4.3272-29.442-7.1679-38.391-9.4234-3.51-0.87872-10.178-0.71432-11.999-4.5796-6.2509-13.292 18.141-13.835 24.082-15.716 6.0629-1.9301 7.2076-7.4129 2.0348-11.679-6.0045-4.9638-18.413-0.30644-23.167 4.6983-4.5325 4.77-5.1684 13.943-12.405 15.955-17.882 4.9701-28.489-17.481-40.77-27.305-2.1488-1.7132-14.263-8.6298-15.123-9.0045-8.9037-3.9375-17.071-6.3754-25.279-12.023-12.75-8.7517-23.512-20.607-36.622-28.735-9.1697-5.6872-22.488-3.042-30.079-10.63-8.2148-8.219 0.014-37.096-11.9-39.352-6.3453-1.2103-19.284 5.0822-16.795 13.022 2.4627 7.8412 24.071 19.079 8.0389 24.093-8.9964 2.8127-17.532-1.3757-26.16-3.6682-17.707-4.7032-36.408-7.1016-53.153-14.731-6.5919-3.0101-19.274-9.0519-17.735-18.41 0.5644-3.3807 5.8197-1.121 7.6116-0.7114 5.2574 1.1931 14.123 3.5098 17.193-2.1476 3.044-5.5876-0.7415-10.16-6.5564-10.414-11.828-0.52182-17.098 7.4437-30.964 1.6914-5.785-2.4018-12.107-5.8515-17.542-8.9873-1.8689-1.0696-3.4076-2.6081-4.7863-4.249-0.6687-0.78198-1.9702-3.5961-1.6608-2.6209-2.3918-2.251 3.5886-6.1684 5.2873-6.3506 2.1574-0.23366 22.718 7.1176 20.137-1.1895-5.9788-19.222-24.622 3.3699-34.307-3.4533-9.8763-6.9583-1.0246-35.373-18.777-34.298-3.7482 0.22882-8.0984 1.5721-10.693 4.463-7.5287 8.3665 14.622 15.077 19.575 18.128 1.1941 0.73768 8.1963 6.7632 3.8995 8.8454-14.499 7.0026-27.146-9.1372-39.459-12.025-8.2666-1.9342-18.788 2.9291-27.35 2.8513-24.836-0.24058-39.083-7.3206-58.729-21.162-3.6331-2.5596-12.554-2.5473-14.666-6.1561-0.4397-0.7562-0.02-1.8952 0.4455-2.5558 4.7065-6.6801 20.233 3.6293 21.953-3.9829 2.4512-10.788-13.378-13.778-20.222-11.282-3.8528 1.4067-8.4672 10.83-9.9629 10.781-8.0618-0.26745-12.15-20.509-17.026-26.623-17.367-21.738-40.472-42.425-61.713-60.554-11.704-9.9993-30.326-20.258-46.217-19.665-7.7128 0.28935-21.158 14.507-27.279 7.7399-10.23-11.321 18.5-29.245-0.8374-38.286-14.92-6.9726-4.2042 33.913-9.1791 40.556-3.8407 5.1458-20.403 4.5092-25.893 4.1327-14.186-0.955-14.892-26.881-20.398-36.851-3.0538-5.5314-19.248-13.003-19.686-7.1099-0.5665 7.7396 18.921 27.52 23.273 33.631 1.928 2.7055 7.756 10.59 3.8386 13.944-6.7365 5.76-21.341-10.667-25.685-14.469-0.8258-0.71733-10.3-9.7281-8.0256-9.1778-2.9805-4.0289 0.1248-9.9639-2.2979-13.257-1.4062-1.9074-8.0251-0.43283-7.7441-0.32253-4.6369-1.0669 0.1583 14.834 0.5979 15.806 4.7816 10.535 16.84 18.106 26.198 24.285 7.8467 5.1776 29.172 5.9894 33.042 9.752 8.1295 7.8878 30.67 45.602 36.681 46.449 8.8591 1.2516 3.6707-8.2309 1.4448-12.007-3.6673-6.2107-28.519-27.961-27.204-32.351 0.085-0.2672 0.1412-0.42665 0.3643-0.59626 6.4115-4.7216 18.829-2.4218 26.17-3.0769 34.322-3.0404 38.118-9.9555 68.597 16.739 3.6386 3.1853 12.418 7.8645 13.9 12.743 1.9425 6.3507-21.69 7.931-6.4851 21.186 6.7315 5.8666 9.0868-14.108 16.467-11.889 4.3507 1.3036 7.1178 9.8215 9.405 13.25 8.2785 12.417 28.472 28.605 27.432 44.461-0.7988 12.335-33.361 24.124-42.67 28.59-3.3334 1.5973-14.552 8.8544-9.4203 13.857 4.6808 4.5573 15.677 0.1166 20.677-1.7975 14.069-5.3848 22.794-14.51 29.416-27.677 3.88-7.7247 7.012-20.305 18.206-18.373 24.926 4.3216 3.905 24.202 7.1314 26.196 4.0767 2.5295 8.0119-10.489 13.494-9.5126 4.1409 0.74131 11.668 15.084 18.598 18.372 16.357 7.7618 37.463 0.29665 52.7 13.574 10.788 9.4099 0.5618 43.226 19.704 44.285 2.1249 0.11804 1.9712-2.3338 2.3033-3.9253 2.9463-13.867-19.132-27.118-14.637-41.169 5.1036-15.99 40.963 1.2239 49.821 5.3845-0.1223-0.86734 8.945 8.6537 13.329 11.551 10.773 7.1116 22.557 13.15 32.648 21.184 16.341 13.012 34.963 23.589 54.847 30.225 8.7564 2.9249 17.546 3.9922 26.108 7.7364 4.8148 2.0929 10.902 5.1063 14.202 9.3605 1.6271 2.103 1.6342 7.1617 5.0343 7.676 0.8537 0.12325 1.2391-0.72919 1.5896-1.3511 4.8041-8.4367-1.6444-15.045 9.2777-15.058 21.723-0.0241 38.895 23.019 55.025 33.842 10.331 6.9357 23.216 9.6687 33.613 16.556 17.699 11.729 7.3272 41.679 21.504 43.552 17.506 2.3061-12.182-34.29-1.2405-36.187 7.918-1.3724 24.837 19.021 34.179 24.192 17.069 9.4434 36.926 15.757 55.744 20.885 11.574 3.1566 30.536 9.0546 41.608 13.954" fill="#fff" fill-opacity=".29" opacity=".11" stroke="#fff" stroke-width="2.4974px"/>
    
</svg>
