<?xml version="1.0" encoding="UTF-8" standalone="no"?>
<svg
   xmlns:dc="http://purl.org/dc/elements/1.1/"
   xmlns:cc="http://creativecommons.org/ns#"
   xmlns:rdf="http://www.w3.org/1999/02/22-rdf-syntax-ns#"
   xmlns:svg="http://www.w3.org/2000/svg"
   xmlns="http://www.w3.org/2000/svg"
   xmlns:sodipodi="http://sodipodi.sourceforge.net/DTD/sodipodi-0.dtd"
   xmlns:inkscape="http://www.inkscape.org/namespaces/inkscape"
   width="24"
   height="24"
   viewBox="0 0 24 24"
   version="1.1"
   id="svg4"
   sodipodi:docname="bounding-box.svg"
   inkscape:version="0.92.5 (2060ec1f9f, 2020-04-08)">
  <metadata
     id="metadata10">
    <rdf:RDF>
      <cc:Work
         rdf:about="">
        <dc:format>image/svg+xml</dc:format>
        <dc:type
           rdf:resource="http://purl.org/dc/dcmitype/StillImage" />
      </cc:Work>
    </rdf:RDF>
  </metadata>
  <defs
     id="defs8" />
  <sodipodi:namedview
     pagecolor="#ffffff"
     bordercolor="#666666"
     borderopacity="1"
     objecttolerance="10"
     gridtolerance="10"
     guidetolerance="10"
     inkscape:pageopacity="0"
     inkscape:pageshadow="2"
     inkscape:window-width="1920"
     inkscape:window-height="1029"
     id="namedview6"
     showgrid="false"
     inkscape:zoom="9.8333333"
     inkscape:cx="12.20339"
     inkscape:cy="12"
     inkscape:window-x="0"
     inkscape:window-y="27"
     inkscape:window-maximized="1"
     inkscape:current-layer="svg4" />
  <path
     d="M12 0l-11 6v12.131l11 5.869 11-5.869v-12.066l-11-6.065zm7.91 6.646l-7.905 4.218-7.872-4.294 7.862-4.289 7.915 4.365zm-16.91 1.584l8 4.363v8.607l-8-4.268v-8.702zm10 12.97v-8.6l8-4.269v8.6l-8 4.269zm6.678-5.315c.007.332-.256.605-.588.612-.332.007-.604-.256-.611-.588-.006-.331.256-.605.588-.612.331-.007.605.256.611.588zm-2.71-1.677c-.332.006-.595.28-.588.611.006.332.279.595.611.588s.594-.28.588-.612c-.007-.331-.279-.594-.611-.587zm-2.132-1.095c-.332.007-.595.281-.588.612.006.332.279.594.611.588.332-.007.594-.28.588-.612-.007-.331-.279-.594-.611-.588zm-9.902 2.183c.332.007.594.281.588.612-.007.332-.279.595-.611.588-.332-.006-.595-.28-.588-.612.005-.331.279-.594.611-.588zm1.487-.5c-.006.332.256.605.588.612s.605-.257.611-.588c.007-.332-.256-.605-.588-.611-.332-.008-.604.255-.611.587zm2.132-1.094c-.006.332.256.605.588.612.332.006.605-.256.611-.588.007-.332-.256-.605-.588-.612-.332-.007-.604.256-.611.588zm3.447-5.749c-.331 0-.6.269-.6.6s.269.6.6.6.6-.269.6-.6-.269-.6-.6-.6zm0-2.225c-.331 0-.6.269-.6.6s.269.6.6.6.6-.269.6-.6-.269-.6-.6-.6zm0-2.031c-.331 0-.6.269-.6.6s.269.6.6.6.6-.269.6-.6-.269-.6-.6-.6z"
     id="path2"
     style="fill:#f1f1f1;fill-opacity:1" />
</svg>
