<svg width="367" height="287" viewBox="0 0 367 287" fill="none" xmlns="http://www.w3.org/2000/svg">
<path d="M250 246L264 254.5L239.5 255.5L250 246ZM250 246L259.5 237.5M250 246L233.5 238.5M259.5 237.5L233.5 238.5M259.5 237.5L246 226M259.5 237.5L258.5 206.5M259.5 237.5L270.5 205.5M233.5 238.5L246 226M246 226L258.5 206.5M246 226L236.5 214.5M246 226L196.5 230.5M258.5 206.5L273 180M258.5 206.5L236.5 214.5M236.5 214.5L224 197M270.5 205.5L273 180M270.5 205.5L289 165M270.5 205.5L282.5 161.5M273 180L243 201M273 180L242 181M273 180L282.5 161.5M243 201L242 181M243 201L224 197M242 181L224 197M242 181L221 145M242 181L235 154M242 181L246 138.5M224 197L212 168M224 197L196.5 230.5M212 168L196 203M212 168L189 196L191 166M212 168L221 145M196 203L196.5 230.5M196 203L178 219M196 203L173 200M196.5 230.5L178 219M178 219L162.5 229.5L165 216M178 219L173 200M165 216L173 200M165 216L154 189M173 200L169 167M173 200L191 166M154 189L153.5 226.5M154 189L137.5 231.5M154 189L104.5 225.5L117 185M154 189L117 185M154 189L169 167M117 185L92.5 212.5M117 185L88 190M117 185L163 156M88 190L96 175M88 190L69 168M88 190L77 160M88 190L78.5 206.5M88 190L67.5 186.5L56 170M96 175L77 160M96 175L112 159.5M96 175L124 161M96 175L163 156M77 160L101 164M77 160L96 157M77 160L46 156M96 157L107 138M96 157L112 159.5M96 157L79 150M69 168L56 170M69 168L46 156M56 170L38.5 178.5L30 153M30 153L46 156M30 153L49 144M30 153L12.5 160M30 153L2.5 138.5L27 141M46 156L79 150M49 144L27 141M49 144L30 135M49 144L79 150M27 141L3.5 113.5M30 135L43 126M30 135L49 128M30 135L3.5 113.5M43 126L24 118M43 126L40 110L23.5 91.5M49 128L46 99M49 128L60 115M49 128L75 121M49 128L69 139M3.5 113.5L24 118M24 118L23.5 91.5M23.5 91.5L46 99M23.5 91.5L49 88M23.5 91.5L52 79M46 99L49 88M46 99L60 115M46 99L66 91M49 88L66 91M52 79L31.5 69.5M52 79L46.5 58.5L62 70M52 79L66 91M62 70L66 91M62 70L87 83M66 91L80 103M87 83L63.5 52.5L88 58M87 83L109 82M87 83L80 103M87 83V107M88 58L72.5 37.5L95 49L98.5 30.5L120 53M88 58L105 65M88 58L120 53M88 58L109 82M120 53L105 65M120 53L131 68L105 65M120 53L154.5 16.5L146 41.5M120 53L120.5 13.5M120 53L144 60M105 65L131.5 86.5M131.5 86.5L144 60M131.5 86.5L157 79M131.5 86.5L159 89M131.5 86.5L105 97M144 60L157 79M144 60L146 41.5M157 79L163 59M157 79L199 73.5M159 89L121 108M159 89L199 73.5M159 89L189 100M121 108L105 97M121 108L153 100M121 108L140 121M121 108L105 115M105 97L109 82M105 97L87 107M153 100L140 121M153 100L176 116M140 121L150 145M140 121L166 129M140 121L120 123L105 115M105 115L89.5 134M105 115L107 138M105 115L87 107M89.5 134L75 121M89.5 134L79 150M89.5 134L69 139M75 121L87 107M75 121L80 103M80 103L60 115M69 139L79 150M107 138L112 159.5M107 138L124 161M107 138L132 151.5L163 156M107 138L150 145M124 161L163 156M150 145L166 129M150 145L163 156M150 145L169 142M166 129L176 116M166 129L186 133M163 156L194 143M163 156L191 166M169 167L191 166M191 166L194 143M191 166L221 145M221 145L231 126M235 154L231 126M235 154L246 138.5M231 126L186 133M231 126L263 131M231 126L194 143M231 126L228.5 106.5M186 133L204 119L189 100M186 133L176 116M186 133L169 142M189 100L228.5 106.5M189 100L199 73.5M189 100L176 116M228.5 106.5L219 79M228.5 106.5L255.5 90.5M228.5 106.5L263 131M219 79L237.5 82.5M219 79L199 73.5M219 79L222 60M237.5 82.5L222 60M237.5 82.5L255.5 90.5M222 60L246.5 77.5M222 60L239 43M246.5 77.5L236.5 57.5M246.5 77.5L269.5 88.5M246.5 77.5L279.5 79.5M246.5 77.5L255.5 90.5M236.5 57.5L252.5 62.5M236.5 57.5L239 43M252.5 62.5L279.5 79.5M252.5 62.5L263.5 28.5L276.5 52.5M279.5 79.5L276.5 52.5M279.5 79.5L295.5 61.5M279.5 79.5L277.5 98.5M276.5 52.5L314 46.5L295.5 61.5M276.5 52.5L283.5 31.5M295.5 61.5L326.5 59.5L334 80M295.5 61.5L311 71L334 80M295.5 61.5L304 85M334 80L304 85M334 80L344.5 68.5M334 80L361.5 90.5M277.5 98.5L269.5 88.5M277.5 98.5L256.5 103.5M277.5 98.5L264.5 116.5M277.5 98.5L304 85M269.5 88.5L256.5 103.5M255.5 90.5L238.5 106.5L263 131M255.5 90.5L256.5 103.5M264.5 116.5L256.5 104L263 131M264.5 116.5L292 97M263 131L285.5 119.5M263 131L290.5 138.5M263 131L267 144M285.5 119.5L292 97M285.5 119.5L300.5 114.5M292 97L300.5 114.5M304 85L344.5 88.5M304 85V106M361.5 90.5L344.5 88.5M361.5 90.5L345.5 105.5M344.5 88.5L324 96M324 96L345.5 105.5M324 96L304 106M345.5 105.5L364.5 112.5M364.5 112.5L327 114M364.5 112.5L338.5 130.5L318 134M364.5 112.5L348.5 132.5M327 114L304 106M327 114L318 134M327 114L308.5 116.5M327 114L300.5 114.5M308.5 116.5L290.5 138.5M308.5 116.5L306.5 142.5L307.5 168.5M308.5 116.5L318 134M290.5 138.5L289 165M290.5 138.5L307.5 168.5M290.5 138.5L282.5 161.5M290.5 138.5L267 144M318 134L307.5 168.5M318 134L330.5 156.5M348.5 132.5H360.5L345 170.5M348.5 132.5L330.5 156.5M345 170.5L364.5 150.5M345 170.5L362.5 174.5M345 170.5L330.5 156.5M362.5 174.5L336 184L330.5 156.5M362.5 174.5L342 193M330.5 156.5L318.5 182.5M318.5 182.5L307.5 168.5M318.5 182.5V212.5M318.5 182.5L342 193M307.5 168.5L312 188M312 188L289 165M312 188L301.5 220.5M312 188L318.5 212.5M312 188H287L280.5 215.5L312 188ZM342 193L318.5 212.5M342 193L345.5 203.5M282.5 161.5L258 172M267 144L258 172M258 172L246 138.5M194 143L169 142M199 73.5L205 46M199 73.5L187 62M239 43L244.5 10.5M239 43L205 46M239 43L230 23M244.5 10.5L204 25M244.5 10.5L230 23M204 25L210.5 7.5L187 20.5M204 25L221.5 4.5M204 25L189 39M204 25L230 23M204 25L218.5 28M187 20.5L180.5 2.5L164 25.5M187 20.5L189 39M187 20.5L174 46M164 25.5L174 46M164 25.5L146 41.5M174 46L163 59M174 46H205M163 59L146 41.5M163 59L187 62M163 59L205 46M187 62L205 46M205 46L218.5 28M205 46L189 39M189 39L218.5 28" stroke="#EBEBEB" stroke-opacity="0.84" stroke-width="0.75"/>
<path d="M238.5 106.5L256.5 103.5" stroke="#FBFBFB"/>
<path d="M277.5 98L292 97L304 106L300.5 114.5L308.5 116.5" stroke="#FBFBFB"/>
<path d="M67.5 186L68.5 167.5L76.5 160.5L78.5 150L107 138M107 138L140 121L176 116L204 119M107 138L89 134L87 107L80 103M107 138L120 123L121 107.5L131.5 87M204 119L231 126L246 138M204 119L228.5 106.5L237.5 82L246.5 78L252.5 62.5M246 138L267 144L282.5 161.5M246 138L263 131L264.5 116.5L285.5 119.5L290.5 138.5L306.5 142.5L318 134M252.5 62.5L276 52.5L295 61.5M252.5 62.5L239.5 43M239.5 43L263 28M239.5 43L219 28L230 23M131.5 87V68L144.5 60L162.5 59.5M131.5 87L108.5 81.5L105 64.5M186 133L194 143L221 145L235 154M191 166L212 168L242 181L258 172L273 180M224 196.5L196 203L188.5 196L173 199.5L154 189.5M218.5 79.5L189 100H153L159.5 89.5L157.5 79L187.5 61.5M199 73.5L221.5 60M221.5 60L237 57.5M221.5 60L204.5 46" stroke="white" stroke-width="1.2"/>
<path d="M63.5 52.5L62 69.5L51.5 78.5L48.5 88M154.5 16.5L164 25.5L186.5 20.5L203.5 24.5M348.5 132.5L345.5 170.5L336 184M336 184L341.5 193M336 184L318.5 182L312.5 188M153.5 226L164.5 215.5L177.5 219" stroke="#FBFBFB"/>
<path d="M92.5 212.5L88.5 189.5" stroke="#FBFBFB"/>
<path d="M29.5 152.5L27 141L29.5 134.5L24.5 118L40.5 110L46 98.5" stroke="#FBFBFB"/>
<path d="M96 157L100 164L96 175L117 185L169 166.5L163.5 156L169 142L166.5 129" stroke="#FBFBFB"/>
<path d="M111.5 159.5L124 160.5L132 151.5L149.5 145" stroke="#FBFBFB"/>
<path d="M55.5 169.5L46.5 156.5L49.5 144M49.5 144L48.5 127.5L43 126M49.5 144L69 139L75.5 120.5L60 114.5L66.5 91L87.5 83.5M87.5 83.5L104.5 96.5V115M87.5 83.5L88.5 58L94.5 48.5L120 53L146 41.5L174 46L189 38.5" stroke="#FBFBFB"/>
<path d="M239.5 255.5L282.5 284.5L263.5 254.5L259.5 237.5L280.5 215.5L301.5 220.5L318.5 212.5L345.5 203.5L362.5 174.5L364.5 150.5L360.5 132.5L364.5 112.5L361.5 90.5L344.5 68.5L326.5 59.5L313.5 46.5L283.5 31.5L263.5 28.5L244.5 10.5L221.5 4.5L210.5 7.5L180.5 2.5L154.5 16.5L120.5 13.5L98.5 30.5L72.5 37.5L63.5 52.5L46.5 58.5L31.5 69.5L23.5 91.5L3.5 113.5L2.5 138.5L12.5 159.5L38.5 178.5L67.5 186.5L78.5 206.5L92.5 212.5L104.5 225.5L137.5 231.5L153.5 226.5L162.5 229.5L196.5 230.5L233.5 238.5L239.5 255.5Z" stroke="white" stroke-width="2" stroke-linejoin="round"/>
<path d="M280.5 215.5L270.5 205.5M270.5 205.5L287 188L289 165L307.5 168.5L330.5 156.5L338.5 130.5L327 114M270.5 205.5L258.5 206.5L243 201L236.5 214.5L196.5 230.5M327 114L324 96L304 85M327 114L345.5 105.5L345 89L334.5 80.5M304 85L279 79.5L269.5 89L255.5 90M304 85L311 71L326.5 60" stroke="#FBFBFB"/>
<circle cx="282.5" cy="284.5" r="2.5" fill="white"/>
<circle cx="239.5" cy="255.5" r="2.5" fill="white"/>
<circle cx="250" cy="246" r="2" fill="white"/>
<circle cx="246" cy="226" r="2" fill="white"/>
<circle cx="270.5" cy="205.5" r="2.5" fill="white"/>
<circle cx="258.5" cy="206.5" r="2.5" fill="white"/>
<circle cx="236.5" cy="214.5" r="2.5" fill="white"/>
<circle cx="233.5" cy="238.5" r="2.5" fill="white"/>
<circle cx="162.5" cy="229.5" r="2.5" fill="white"/>
<circle cx="104.5" cy="225.5" r="2.5" fill="white"/>
<circle cx="12.5" cy="159.5" r="2.5" fill="white"/>
<circle cx="3.5" cy="113.5" r="2.5" fill="white"/>
<circle cx="23.5" cy="91.5" r="2.5" fill="white"/>
<circle cx="31.5" cy="69.5" r="2.5" fill="white"/>
<circle cx="46.5" cy="58.5" r="2.5" fill="white"/>
<circle cx="63.5" cy="52.5" r="2.5" fill="white"/>
<circle cx="72.5" cy="37.5" r="2.5" fill="white"/>
<circle cx="98.5" cy="30.5" r="2.5" fill="white"/>
<circle cx="120.5" cy="13.5" r="2.5" fill="white"/>
<circle cx="154.5" cy="16.5" r="2.5" fill="white"/>
<circle cx="180.5" cy="2.5" r="2.5" fill="white"/>
<circle cx="210.5" cy="7.5" r="2.5" fill="white"/>
<circle cx="221.5" cy="4.5" r="2.5" fill="white"/>
<circle cx="244.5" cy="10.5" r="2.5" fill="white"/>
<circle cx="263.5" cy="28.5" r="2.5" fill="white"/>
<circle cx="283.5" cy="31.5" r="2.5" fill="white"/>
<circle cx="313.5" cy="46.5" r="2.5" fill="white"/>
<circle cx="326.5" cy="59.5" r="2.5" fill="white"/>
<circle cx="344.5" cy="68.5" r="2.5" fill="white"/>
<circle cx="361.5" cy="90.5" r="2.5" fill="white"/>
<circle cx="348.5" cy="132.5" r="1.5" fill="white"/>
<circle cx="345.5" cy="170.5" r="2.5" fill="white"/>
<circle cx="364.5" cy="112.5" r="2.5" fill="white"/>
<circle cx="360.5" cy="132.5" r="2.5" fill="white"/>
<circle cx="364.5" cy="150.5" r="2.5" fill="white"/>
<circle cx="362.5" cy="174.5" r="2.5" fill="white"/>
<circle cx="345.5" cy="203.5" r="2.5" fill="white"/>
<circle cx="318.5" cy="212.5" r="2.5" fill="white"/>
<circle cx="301.5" cy="220.5" r="2.5" fill="white"/>
<circle cx="280.5" cy="215.5" r="2.5" fill="white"/>
<circle cx="259.5" cy="237.5" r="2.5" fill="white"/>
<circle cx="263.5" cy="254.5" r="2.5" fill="white"/>
<circle cx="2.5" cy="138.5" r="2.5" fill="white"/>
<circle cx="38.5" cy="178.5" r="2.5" fill="white"/>
<circle cx="67.5" cy="186.5" r="2.5" fill="white"/>
<circle cx="78.5" cy="206.5" r="2.5" fill="white"/>
<circle cx="92.5" cy="212.5" r="2.5" fill="white"/>
<circle cx="162.5" cy="229.5" r="2.5" fill="white"/>
<circle cx="153.5" cy="226.5" r="2.5" fill="white"/>
<circle cx="165" cy="216" r="2" fill="white"/>
<circle cx="178" cy="219" r="2" fill="white"/>
<circle cx="154" cy="189" r="2" fill="white"/>
<circle cx="173" cy="200" r="2" fill="white"/>
<circle cx="189" cy="196" r="2" fill="white"/>
<circle cx="196" cy="203" r="2" fill="white"/>
<circle cx="224" cy="197" r="2" fill="white"/>
<circle cx="191" cy="166" r="2" fill="white"/>
<circle cx="212" cy="168" r="2" fill="white"/>
<circle cx="242" cy="181" r="2" fill="white"/>
<circle cx="258" cy="172" r="2" fill="white"/>
<circle cx="273" cy="180" r="2" fill="white"/>
<circle cx="287" cy="188" r="2" fill="white"/>
<circle cx="307.5" cy="168.5" r="2.5" fill="white"/>
<circle cx="330.5" cy="156.5" r="2.5" fill="white"/>
<circle cx="338.5" cy="130.5" r="2.5" fill="white"/>
<circle cx="327" cy="114" r="3" fill="white"/>
<circle cx="345.5" cy="105.5" r="1.5" fill="white"/>
<circle cx="334" cy="80" r="2" fill="white"/>
<circle cx="344.5" cy="88.5" r="1.5" fill="white"/>
<circle cx="137.5" cy="231.5" r="2.5" fill="white"/>
<circle cx="196.5" cy="230.5" r="2.5" fill="white"/>
<circle cx="289" cy="165" r="3" fill="white"/>
<circle cx="336" cy="184" r="3" fill="white"/>
<circle cx="219" cy="79" r="2" fill="white"/>
<circle cx="222" cy="60" r="3" fill="white"/>
<circle cx="159" cy="89" r="2" fill="white"/>
<circle cx="157" cy="79" r="2" fill="white"/>
<circle cx="153" cy="100" r="2" fill="white"/>
<circle cx="311" cy="71" r="2" fill="white"/>
<circle cx="304" cy="85" r="3" fill="white"/>
<circle cx="304" cy="106" r="3" fill="white"/>
<circle cx="292" cy="97" r="3" fill="white"/>
<circle cx="277.5" cy="98.5" r="1.5" fill="white"/>
<circle cx="255.5" cy="90.5" r="1.5" fill="white"/>
<circle cx="269.5" cy="88.5" r="1.5" fill="white"/>
<circle cx="263" cy="131" r="3" fill="white"/>
<circle cx="282.5" cy="161.5" r="2.5" fill="white"/>
<circle cx="267" cy="144" r="2" fill="white"/>
<circle cx="246" cy="138" r="2" fill="white"/>
<circle cx="231" cy="126" r="2" fill="white"/>
<circle cx="204" cy="119" r="2" fill="white"/>
<circle cx="176" cy="116" r="2" fill="white"/>
<circle cx="186" cy="133" r="2" fill="white"/>
<circle cx="194" cy="143" r="2" fill="white"/>
<circle cx="221" cy="145" r="2" fill="white"/>
<circle cx="235" cy="154" r="2" fill="white"/>
<circle cx="69" cy="168" r="2" fill="white"/>
<circle cx="77" cy="160" r="2" fill="white"/>
<circle cx="77" cy="160" r="2" fill="white"/>
<circle cx="30" cy="135" r="2" fill="white"/>
<circle cx="24" cy="118" r="2" fill="white"/>
<circle cx="40" cy="110" r="2" fill="white"/>
<circle cx="46" cy="99" r="2" fill="white"/>
<circle cx="49" cy="88" r="2" fill="white"/>
<circle cx="52" cy="79" r="2" fill="white"/>
<circle cx="62" cy="70" r="2" fill="white"/>
<circle cx="88" cy="58" r="2" fill="white"/>
<circle cx="95" cy="49" r="2" fill="white"/>
<circle cx="105" cy="65" r="2" fill="white"/>
<circle cx="109" cy="82" r="2" fill="white"/>
<circle cx="131.5" cy="86.5" r="2.5" fill="white"/>
<circle cx="131" cy="68" r="2" fill="white"/>
<circle cx="30" cy="153" r="2" fill="white"/>
<circle cx="46" cy="156" r="2" fill="white"/>
<circle cx="56" cy="170" r="2" fill="white"/>
<circle cx="79" cy="150" r="2" fill="white"/>
<circle cx="107" cy="138" r="2" fill="white"/>
<circle cx="89" cy="134" r="2" fill="white"/>
<circle cx="87" cy="107" r="2" fill="white"/>
<circle cx="80" cy="103" r="2" fill="white"/>
<circle cx="105" cy="115" r="2" fill="white"/>
<circle cx="120" cy="123" r="2" fill="white"/>
<circle cx="121" cy="108" r="2" fill="white"/>
<circle cx="105" cy="97" r="2" fill="white"/>
<circle cx="87" cy="83" r="3" fill="white"/>
<circle cx="66" cy="91" r="2" fill="white"/>
<circle cx="60" cy="115" r="2" fill="white"/>
<circle cx="75" cy="121" r="2" fill="white"/>
<circle cx="69" cy="139" r="2" fill="white"/>
<circle cx="43" cy="126" r="2" fill="white"/>
<circle cx="49" cy="128" r="2" fill="white"/>
<circle cx="49" cy="144" r="3" fill="white"/>
<circle cx="166" cy="129" r="2" fill="white"/>
<circle cx="189" cy="100" r="2" fill="white"/>
<circle cx="140" cy="121" r="2" fill="white"/>
<circle cx="150" cy="145" r="2" fill="white"/>
<circle cx="132" cy="151" r="2" fill="white"/>
<circle cx="124" cy="161" r="2" fill="white"/>
<circle cx="169" cy="142" r="2" fill="white"/>
<circle cx="163" cy="156" r="2" fill="white"/>
<circle cx="169" cy="167" r="2" fill="white"/>
<circle cx="117" cy="185" r="2" fill="white"/>
<circle cx="112" cy="159" r="2" fill="white"/>
<circle cx="96" cy="175" r="2" fill="white"/>
<circle cx="101" cy="164" r="2" fill="white"/>
<circle cx="96" cy="157" r="2" fill="white"/>
<circle cx="88" cy="190" r="2" fill="white"/>
<circle cx="264.5" cy="116.5" r="1.5" fill="white"/>
<circle cx="285.5" cy="119.5" r="1.5" fill="white"/>
<circle cx="306.5" cy="142.5" r="2.5" fill="white"/>
<circle cx="290.5" cy="138.5" r="1.5" fill="white"/>
<circle cx="318" cy="134" r="2" fill="white"/>
<circle cx="228.5" cy="106.5" r="2.5" fill="white"/>
<circle cx="237.5" cy="82.5" r="1.5" fill="white"/>
<circle cx="246.5" cy="77.5" r="1.5" fill="white"/>
<circle cx="252.5" cy="62.5" r="2.5" fill="white"/>
<circle cx="276.5" cy="52.5" r="1.5" fill="white"/>
<circle cx="295.5" cy="61.5" r="1.5" fill="white"/>
<circle cx="279.5" cy="79.5" r="1.5" fill="white"/>
<circle cx="238.5" cy="106.5" r="1.5" fill="white"/>
<circle cx="256.5" cy="103.5" r="1.5" fill="white"/>
<circle cx="308.5" cy="116.5" r="1.5" fill="white"/>
<circle cx="300.5" cy="114.5" r="1.5" fill="white"/>
<circle cx="324" cy="96" r="2" fill="white"/>
<circle cx="243" cy="201" r="3" fill="white"/>
<circle cx="342" cy="193" r="2" fill="white"/>
<circle cx="318.5" cy="182.5" r="2.5" fill="white"/>
<circle cx="312" cy="188" r="2" fill="white"/>
<circle cx="120" cy="53" r="2" fill="white"/>
<circle cx="144" cy="60" r="2" fill="white"/>
<circle cx="146" cy="41" r="2" fill="white"/>
<circle cx="163" cy="59" r="2" fill="white"/>
<circle cx="174" cy="46" r="2" fill="white"/>
<circle cx="187" cy="62" r="2" fill="white"/>
<circle cx="205" cy="46" r="2" fill="white"/>
<circle cx="236.5" cy="57.5" r="1.5" fill="white"/>
<circle cx="198.5" cy="73.5" r="1.5" fill="white"/>
<circle cx="189" cy="39" r="2" fill="white"/>
<circle cx="187" cy="20" r="2" fill="white"/>
<circle cx="204" cy="25" r="2" fill="white"/>
<circle cx="219" cy="28" r="2" fill="white"/>
<circle cx="230" cy="23" r="2" fill="white"/>
<circle cx="239" cy="43" r="3" fill="white"/>
</svg>
