<?xml version="1.0" standalone="no"?>
<!DOCTYPE svg PUBLIC "-//W3C//DTD SVG 20010904//EN"
 "http://www.w3.org/TR/2001/REC-SVG-20010904/DTD/svg10.dtd">
<svg version="1.0" xmlns="http://www.w3.org/2000/svg"
 width="4000.000000pt" height="3500.000000pt" viewBox="0 0 4000.000000 3500.000000"
 preserveAspectRatio="xMidYMid meet">
<g transform="translate(0.000000,3500.000000) scale(0.100000,-0.100000)"
fill="#ffffff" stroke="none">
<path d="M19161 32519 c-99 -49 -145 -121 -159 -250 l-7 -62 -985 -514 c-542
-283 -1013 -528 -1047 -545 l-61 -31 -54 23 c-39 17 -72 24 -123 24 -90 0
-149 -26 -226 -99 l-56 -54 -54 5 c-30 3 -652 57 -1384 119 l-1330 112 -20 29
c-47 67 -113 123 -166 138 -185 55 -346 -57 -367 -254 l-7 -69 -886 -684
c-487 -376 -894 -689 -904 -694 -13 -8 -30 -5 -64 10 -32 15 -67 21 -118 21
-62 0 -80 -4 -139 -34 -77 -40 -124 -98 -150 -185 -8 -29 -20 -55 -27 -58 -7
-2 -468 -109 -1026 -237 -982 -226 -1014 -233 -1040 -217 -76 49 -127 67 -187
67 -120 0 -221 -61 -264 -161 -19 -45 -21 -64 -17 -133 3 -45 9 -96 12 -113 7
-29 -22 -85 -295 -570 -166 -296 -309 -544 -318 -550 -9 -7 -35 -13 -58 -13
-28 0 -63 -11 -106 -33 -72 -37 -118 -95 -143 -182 -11 -35 -23 -55 -38 -62
-12 -5 -272 -87 -578 -182 l-557 -174 -47 37 c-115 88 -268 85 -379 -6 -52
-43 -96 -136 -96 -205 0 -40 -5 -58 -22 -77 -19 -20 -897 -642 -1044 -740
l-42 -27 -58 17 c-143 41 -302 -38 -348 -173 -31 -90 -15 -198 39 -269 14 -18
25 -38 25 -45 0 -28 -534 -1675 -548 -1691 -8 -10 -27 -18 -42 -18 -39 0 -125
-46 -161 -88 -50 -57 -69 -107 -69 -189 0 -39 5 -84 10 -99 8 -20 7 -32 -4
-48 -8 -11 -372 -421 -811 -911 l-796 -890 -87 -5 c-104 -6 -165 -32 -217 -92
-47 -56 -69 -125 -63 -202 7 -77 26 -116 95 -188 l54 -58 -6 -82 c-3 -46 -26
-467 -51 -936 -24 -470 -49 -862 -54 -873 -6 -10 -20 -24 -33 -30 -54 -29 -98
-74 -126 -131 -27 -52 -31 -72 -31 -137 0 -90 22 -146 78 -205 44 -46 124 -86
173 -86 19 0 42 -6 51 -12 18 -15 788 -1624 788 -1647 0 -9 -9 -40 -20 -69
-39 -103 -19 -207 56 -291 67 -74 121 -93 253 -89 l106 3 1040 -698 c572 -384
1048 -707 1058 -719 12 -14 17 -38 17 -82 0 -78 34 -150 96 -205 112 -98 279
-95 396 8 20 17 45 31 57 31 39 0 2336 -560 2347 -573 6 -6 18 -38 27 -69 33
-109 131 -187 255 -204 28 -3 56 -12 61 -18 20 -25 801 -1487 801 -1500 0 -8
-11 -38 -25 -68 -32 -68 -35 -181 -6 -245 67 -146 250 -204 397 -124 32 17 65
31 73 31 27 0 915 -381 929 -398 6 -9 12 -28 12 -42 0 -15 14 -54 31 -88 53
-107 157 -160 287 -147 l67 6 415 -443 c290 -309 414 -448 413 -463 -1 -11 -5
-48 -8 -81 -19 -164 101 -294 273 -294 84 0 124 14 180 64 22 20 50 36 63 36
28 0 2637 -517 2663 -528 11 -5 36 -39 55 -77 77 -146 222 -199 371 -134 60
27 106 72 140 140 27 52 33 58 87 77 256 94 1032 362 1048 362 12 0 34 -14 51
-31 103 -109 279 -113 398 -9 l37 33 92 -37 c237 -97 281 -120 291 -151 40
-136 76 -186 165 -232 113 -59 246 -42 340 43 28 25 53 54 56 64 4 11 15 25
26 30 13 7 419 0 1326 -25 720 -20 1341 -38 1381 -41 51 -4 78 -11 88 -22 8
-10 31 -36 51 -60 55 -65 116 -92 205 -92 55 0 85 6 123 24 67 31 131 104 151
172 8 29 21 58 29 64 12 10 328 -61 1572 -355 1066 -251 1562 -372 1571 -383
6 -9 12 -27 12 -41 0 -45 45 -125 95 -169 53 -47 122 -72 196 -72 36 0 51 -5
57 -18 5 -9 91 -284 191 -611 l182 -595 -31 -42 c-49 -69 -70 -123 -70 -186
-1 -214 213 -351 411 -262 32 15 64 24 71 21 7 -3 866 -601 1908 -1329 1788
-1248 1896 -1326 1921 -1371 57 -106 141 -162 259 -170 56 -4 71 -1 110 21
110 62 160 142 160 258 0 172 -127 290 -304 282 l-70 -3 -813 1260 c-447 693
-813 1264 -813 1269 0 5 10 30 22 55 72 148 1 321 -158 386 -32 13 -62 30 -67
37 -13 23 -256 1159 -251 1173 3 8 14 17 24 20 25 8 75 66 101 117 33 64 36
135 9 218 l-22 70 38 42 c243 271 1545 1697 1558 1707 14 12 25 13 62 3 62
-17 168 -15 211 3 20 9 56 31 79 50 23 19 51 35 61 35 26 0 1595 -349 1613
-359 8 -4 26 -30 38 -57 52 -108 139 -164 257 -164 87 0 154 29 208 90 46 50
67 96 67 144 0 18 8 43 17 54 19 21 1117 532 1143 532 8 0 37 -11 64 -25 68
-34 169 -35 241 -1 63 29 119 90 142 156 12 34 27 56 43 65 23 11 2140 685
2154 685 3 0 25 -14 48 -30 82 -59 193 -73 284 -35 50 21 115 85 140 140 31
66 33 170 3 234 -11 25 -18 50 -15 57 13 35 1450 2441 1464 2451 9 7 33 13 54
13 104 0 219 83 257 185 45 120 21 227 -73 320 l-60 60 78 909 c43 501 80 915
82 920 3 6 33 29 67 51 51 33 67 51 94 103 26 51 33 76 33 122 0 113 -87 231
-193 261 -23 7 -47 17 -54 23 -12 11 -313 1199 -313 1237 0 11 16 39 34 61 45
52 66 115 66 197 0 73 -29 150 -70 186 -12 11 -26 27 -31 37 -6 12 34 219 131
675 77 362 142 664 145 671 2 7 25 21 49 32 62 26 125 86 152 145 18 39 24 67
24 125 -1 117 -45 195 -146 252 -43 24 -54 36 -59 61 -13 78 -205 1646 -205
1679 0 31 8 45 43 81 53 53 77 117 77 206 0 153 -118 271 -271 271 -30 0 -54
6 -67 18 -11 9 -324 406 -696 881 l-676 864 6 93 c7 91 6 95 -25 158 -52 105
-135 156 -255 156 -44 0 -76 -7 -114 -25 -30 -14 -59 -25 -65 -25 -19 0 -1251
541 -1269 557 -10 9 -24 39 -33 69 -35 122 -123 187 -261 192 l-82 4 -319 356
c-175 196 -377 422 -449 503 l-132 147 5 84 c5 72 2 91 -16 133 -34 76 -66
111 -132 144 -84 42 -183 44 -268 6 l-57 -26 -1309 635 c-847 411 -1312 642
-1317 653 -3 10 -14 40 -24 67 -9 28 -36 70 -58 94 -108 118 -282 124 -408 13
-20 -17 -44 -31 -55 -31 -10 0 -326 45 -702 100 -375 55 -684 100 -687 100 -2
0 -18 22 -35 50 -65 106 -154 153 -282 150 -39 -1 -77 -2 -84 -1 -11 1 -1378
1271 -1445 1342 -24 25 -28 37 -28 92 0 204 -212 330 -396 237 -32 -16 -70
-30 -84 -29 -14 0 -434 113 -933 252 l-908 252 -24 59 c-33 81 -72 126 -140
161 -50 26 -70 30 -135 30 -136 0 -230 -67 -274 -197 l-21 -63 -240 -82 c-132
-45 -253 -82 -269 -82 -17 -1 -44 10 -64 25 -125 96 -298 82 -408 -33 -28 -29
-58 -53 -67 -53 -17 0 -2356 386 -2395 395 -15 4 -30 22 -46 59 -55 123 -148
186 -277 186 -65 0 -85 -4 -138 -31z m1612 -639 c667 -110 1218 -202 1225
-205 6 -2 12 -10 12 -18 0 -14 -1857 -1047 -1882 -1047 -9 0 -32 13 -52 29
-20 16 -59 35 -87 41 -46 11 -53 17 -69 54 -42 98 -470 1233 -470 1247 0 18
83 99 101 99 6 0 556 -90 1222 -200z m-1413 79 c12 -6 450 -1134 484 -1246 6
-18 -2 -27 -47 -56 -53 -34 -97 -97 -97 -139 0 -9 -6 -20 -13 -26 -6 -6 -416
-90 -909 -188 -890 -177 -897 -178 -918 -159 -13 11 -20 28 -18 40 3 11 300
419 662 907 l658 888 91 -7 c51 -3 99 -9 107 -14z m-320 -7 c0 -4 -287 -394
-638 -867 -620 -837 -638 -860 -672 -863 -19 -1 -65 -10 -103 -19 l-67 -17
-38 36 c-20 19 -148 135 -284 257 -137 122 -248 228 -248 235 0 7 7 33 15 56
8 23 15 61 15 84 0 23 6 50 13 59 12 17 1972 1045 1995 1046 6 1 12 -2 12 -7z
m5460 -282 c497 -137 905 -252 908 -255 3 -3 1 -10 -5 -16 -13 -13 -3555
-1187 -3593 -1191 -16 -2 -25 3 -28 14 -2 11 240 298 679 805 375 433 692 799
705 812 l23 24 66 -21 c36 -12 83 -22 103 -22 58 0 131 26 186 65 27 19 50 35
52 35 1 0 408 -112 904 -250z m-1403 216 c-9 -24 -1319 -1531 -1334 -1534 -17
-4 -19 -9 235 613 l208 510 90 0 c76 1 96 5 139 27 70 36 128 103 155 177 13
33 23 61 24 61 1 0 107 36 236 80 129 44 238 80 243 80 5 0 7 -6 4 -14z m-994
-334 c15 -15 27 -36 27 -47 0 -15 -336 -850 -447 -1112 l-35 -83 -65 0 c-73 0
-115 -15 -165 -59 -20 -17 -40 -31 -44 -31 -30 -1 -1192 276 -1204 287 -11 10
-11 16 -2 25 19 19 1875 1046 1893 1047 8 1 27 -12 42 -27z m3346 -246 c15
-18 52 16 -543 -495 -263 -226 -484 -411 -491 -411 -7 0 -29 7 -48 15 -110 46
-239 -12 -278 -123 -6 -17 -17 -33 -25 -36 -31 -12 -2062 -106 -2085 -97 l-24
9 30 12 c47 19 3429 1138 3441 1139 6 1 17 -5 23 -13z m121 -115 c31 -18 46
-35 48 -52 4 -36 -405 -2548 -418 -2564 -17 -20 -80 -29 -95 -13 -21 22 -685
1462 -685 1484 0 12 7 27 16 35 46 38 72 167 44 220 -6 11 -7 25 -3 33 15 26
1018 884 1033 884 8 0 35 -12 60 -27z m992 -688 l713 -666 -3 -96 c-2 -53 -5
-103 -8 -111 -5 -16 -1804 -1133 -1833 -1138 -28 -5 -136 61 -139 85 -4 25
394 2492 409 2541 8 23 18 34 37 38 15 3 32 7 37 9 6 2 24 4 42 4 29 1 101
-64 745 -666z m-11482 397 c723 -61 1325 -115 1337 -120 12 -5 29 -23 38 -40
14 -28 15 -34 2 -53 -12 -17 -2876 -3047 -2998 -3172 -27 -28 -30 -28 -46 -13
-15 16 -16 126 -4 1675 7 912 14 1665 17 1674 3 9 32 26 65 39 45 16 76 37
116 77 l55 55 52 -6 c28 -3 643 -55 1366 -116z m-1746 -29 c19 -20 19 -28 8
-1523 -7 -827 -12 -1571 -12 -1655 0 -113 -3 -155 -13 -165 -8 -7 -42 -19 -76
-27 l-63 -14 -111 110 c-62 61 -465 453 -897 872 -432 419 -789 768 -794 775
-6 8 0 32 18 69 16 31 31 85 36 122 5 37 10 68 12 70 2 2 408 317 903 700 856
661 902 695 934 691 19 -3 44 -14 55 -25z m3224 -271 c4 -38 -593 -1942 -614
-1957 -10 -7 -32 -13 -49 -13 -81 0 -167 -81 -184 -174 -5 -26 -15 -54 -22
-61 -15 -14 -2101 -905 -2118 -905 -6 0 -11 4 -11 9 0 6 665 712 1477 1571
1133 1196 1482 1560 1498 1558 13 -2 21 -12 23 -28z m609 -236 c147 -132 280
-252 295 -265 22 -21 27 -34 32 -101 l6 -76 -715 -659 c-393 -362 -723 -658
-732 -658 -13 0 -17 7 -15 25 3 32 580 1887 597 1920 12 23 19 25 86 26 44 0
88 7 109 17 19 9 42 15 52 14 9 -1 137 -110 285 -243z m3588 -139 c318 -74
584 -140 591 -146 8 -6 14 -19 14 -28 0 -9 9 -36 20 -59 l20 -44 -522 -530
c-287 -291 -529 -533 -539 -538 -22 -12 -111 22 -121 46 -8 20 -169 1254 -171
1316 -1 31 5 42 43 77 25 22 55 40 66 41 12 0 281 -61 599 -135z m-977 86 c23
-21 42 -44 42 -50 0 -13 -1045 -2068 -1062 -2089 -8 -9 -31 -12 -72 -10 l-61
3 -413 824 -413 824 40 41 c22 23 49 62 60 87 10 26 25 50 33 55 18 11 1725
352 1768 352 27 1 45 -7 78 -37z m181 -65 c7 -8 50 -313 98 -677 l85 -663 -23
-18 c-70 -51 -84 -66 -105 -112 -13 -28 -24 -63 -24 -77 0 -14 -6 -33 -12 -42
-7 -9 -262 -138 -567 -287 -430 -209 -557 -268 -567 -259 -8 6 -14 15 -14 20
0 19 1064 2096 1082 2112 25 21 32 21 47 3z m3991 -90 c-14 -14 -614 -286
-630 -286 -4 0 -29 12 -56 27 -89 50 -210 28 -266 -47 -14 -20 -30 -30 -48
-30 -31 0 -986 227 -1009 240 -12 6 -7 10 19 14 44 8 1757 93 1900 95 90 1
102 -1 90 -13z m223 -103 c29 -15 77 -29 110 -32 l59 -6 339 -730 c186 -401
342 -741 345 -754 6 -21 -7 -40 -27 -41 -4 0 -370 261 -815 580 -564 405 -812
588 -819 606 -21 56 -6 65 385 240 201 90 366 164 368 164 1 0 26 -12 55 -27z
m-1788 -184 c303 -72 553 -133 558 -136 4 -2 7 -13 7 -23 0 -13 -15 -24 -52
-38 -134 -50 -2479 -872 -2488 -872 -5 0 -10 6 -10 13 0 6 240 255 533 551
447 453 536 538 553 532 37 -15 129 -18 173 -6 29 8 61 28 95 61 28 27 58 49
66 49 8 0 263 -59 565 -131z m-4781 -44 c27 -14 58 -25 68 -25 11 0 28 -5 39
-10 19 -11 839 -1635 839 -1663 0 -7 -15 -28 -34 -46 l-34 -33 -1159 198
c-1044 179 -1160 201 -1181 222 -53 52 -75 28 688 732 388 357 710 650 715
650 6 0 32 -11 59 -25z m5384 -237 c2 -10 -225 -305 -566 -735 l-569 -718 -80
4 c-85 3 -136 -12 -194 -60 l-26 -21 -564 284 -564 283 -3 35 c-2 19 3 43 10
53 16 21 2490 896 2528 894 14 -1 26 -9 28 -19z m5504 -113 c359 -52 670 -99
690 -105 29 -8 39 -18 48 -44 17 -51 68 -114 116 -142 28 -16 44 -33 44 -45 0
-18 -479 -1538 -500 -1587 -9 -20 -16 -23 -57 -20 l-47 3 -517 960 c-285 528
-518 967 -518 975 -1 13 73 100 84 100 2 0 298 -43 657 -95z m-4870 -164 c183
-131 549 -394 813 -584 l480 -345 -2 -43 c-1 -23 -9 -49 -16 -57 -11 -10 -370
-48 -1443 -153 -786 -76 -1446 -139 -1466 -139 -34 0 -40 4 -58 41 -20 37 -20
43 -6 64 25 37 1119 1419 1130 1427 5 3 39 4 75 1 47 -4 76 -1 101 10 19 8 40
16 47 16 7 1 162 -106 345 -238z m3740 172 c10 -9 18 -25 18 -36 0 -17 -689
-2384 -791 -2719 -33 -109 -25 -103 -140 -113 l-67 -5 -473 707 c-261 389
-476 713 -477 721 -2 7 3 21 11 30 8 9 25 37 38 62 21 39 24 59 24 144 0 93 1
100 24 115 103 69 1789 1109 1800 1110 8 1 23 -6 33 -16z m834 -1013 c283
-525 514 -961 514 -969 0 -7 -13 -29 -30 -47 -16 -19 -34 -53 -40 -76 -6 -24
-14 -54 -18 -67 -6 -20 -131 -77 -920 -417 -502 -217 -919 -394 -928 -394 -21
0 -134 101 -133 120 0 8 183 641 407 1405 l408 1390 94 6 c52 3 103 5 114 5
14 -1 137 -221 532 -956z m-17223 747 c19 -12 43 -27 52 -33 17 -10 9 -51
-123 -640 -103 -456 -147 -632 -159 -641 -9 -7 -26 -13 -38 -13 -12 0 -42 -13
-68 -30 -26 -16 -53 -30 -59 -30 -20 0 -1737 842 -1741 854 -6 16 11 72 25 84
7 5 454 112 993 236 539 124 994 230 1010 235 38 12 66 7 108 -22z m20033
-622 c709 -343 1293 -631 1299 -639 6 -10 6 -19 0 -25 -6 -5 -730 -127 -1610
-271 -880 -144 -1608 -263 -1618 -266 -18 -6 -68 40 -104 94 -15 21 0 71 237
820 139 438 259 804 266 812 8 8 42 20 76 27 38 8 79 24 103 42 22 16 45 30
51 30 7 1 592 -280 1300 -624z m-18793 -276 c499 -485 907 -888 907 -895 0 -9
-12 -14 -33 -14 -40 0 -2104 317 -2118 325 -5 4 -18 24 -29 45 -11 21 -38 53
-60 71 -24 19 -40 41 -40 53 0 48 278 1249 291 1257 8 5 30 9 49 9 19 1 49 7
65 15 17 7 37 14 46 14 9 1 424 -396 922 -880z m-2542 -135 c470 -229 860
-423 867 -432 6 -9 12 -34 12 -56 0 -23 7 -62 17 -87 l16 -47 -168 -263 c-223
-350 -206 -329 -263 -329 -26 0 -52 4 -58 8 -16 10 -1294 1591 -1301 1608 -3
8 1 14 10 14 8 0 398 -187 868 -416z m-938 343 c49 -49 1272 -1568 1275 -1583
6 -25 -28 -54 -62 -54 -50 0 -1980 331 -1993 342 -7 6 -13 23 -13 39 0 16 -9
57 -21 92 -20 61 -20 66 -4 96 60 117 589 1047 598 1053 7 4 35 8 62 9 28 0
66 7 85 14 47 18 48 18 73 -8z m12227 -257 c308 -154 560 -284 560 -289 0 -5
-6 -11 -14 -14 -23 -9 -2515 12 -2532 21 -12 7 -13 10 -2 19 7 6 250 126 540
267 l526 256 64 -30 c37 -18 79 -30 103 -30 43 0 132 37 154 63 7 10 20 17 27
17 8 0 266 -126 574 -280z m-3675 -150 c611 -104 1126 -194 1146 -200 30 -8
39 -18 53 -53 9 -23 16 -48 16 -54 0 -7 -201 -225 -446 -485 l-445 -473 -78
-5 c-49 -4 -87 -12 -104 -23 -14 -9 -32 -14 -39 -11 -12 5 -1193 1304 -1277
1405 -28 32 -33 44 -24 57 13 22 50 41 71 36 10 -2 517 -89 1127 -194z m-1510
140 c4 -6 23 -19 44 -30 21 -10 41 -27 45 -36 7 -17 -99 -1305 -111 -1363 -7
-28 -15 -36 -57 -52 -27 -10 -68 -37 -91 -59 -22 -22 -48 -40 -57 -40 -14 0
-1814 535 -1955 581 -48 16 -63 25 -63 40 0 10 8 24 18 29 34 22 2187 939
2204 939 9 1 20 -4 23 -9z m904 -784 c364 -400 661 -732 661 -736 0 -4 -6 -12
-12 -18 -12 -9 -1145 -72 -1295 -72 -58 0 -64 2 -77 28 -16 30 -56 69 -98 95
-23 14 -28 25 -28 55 0 81 111 1339 120 1360 8 18 17 23 40 20 24 -3 133 -117
689 -732z m8252 667 c11 -25 18 -52 17 -59 -3 -12 -1251 -1235 -1289 -1262
-15 -12 -27 -10 -83 12 -86 35 -156 34 -243 0 -44 -18 -71 -23 -82 -18 -10 5
-307 238 -659 518 -666 528 -669 531 -626 567 11 9 450 55 1417 150 771 75
1430 137 1465 138 l63 1 20 -47z m132 -148 c20 -14 37 -32 37 -40 0 -22 -158
-899 -166 -919 -3 -9 -18 -19 -33 -23 -73 -17 -124 -58 -160 -130 -13 -26 -30
-45 -44 -48 -89 -20 -949 -154 -960 -149 -18 6 -36 44 -30 62 7 19 1294 1272
1307 1272 6 0 28 -11 49 -25z m729 -740 c262 -391 477 -718 477 -727 1 -21
-38 -88 -50 -88 -5 0 -242 74 -527 165 -319 102 -522 172 -529 182 -7 9 -13
30 -13 45 0 44 -35 103 -85 145 -36 29 -45 44 -45 68 1 41 155 894 164 902 7
8 91 21 116 19 8 0 230 -321 492 -711z m-4571 640 c81 -3 157 -9 170 -13 21
-8 20 -10 -22 -25 -43 -16 -3568 -1079 -3622 -1092 -29 -8 -67 15 -67 41 0 7
197 221 437 476 370 391 441 463 463 461 14 -1 53 -5 86 -9 104 -11 173 26
219 116 13 27 30 50 37 53 15 6 2086 -1 2299 -8z m11088 -90 c-13 -13 -345
-285 -738 -604 l-714 -581 -57 0 c-41 0 -70 -7 -106 -25 -27 -14 -55 -25 -62
-25 -18 0 -1534 709 -1551 726 -13 11 -12 14 3 20 10 4 736 125 1615 269 1116
183 1602 259 1615 252 18 -9 17 -10 -5 -32z m-10781 3 c-2 -7 -317 -282 -698
-610 -643 -553 -697 -598 -725 -593 -137 24 -191 11 -250 -58 -34 -39 -38 -41
-85 -39 -86 4 -1934 162 -1963 168 -16 3 -25 10 -20 14 9 9 3705 1126 3736
1129 5 1 7 -5 5 -11z m110 -70 c7 -7 12 -21 12 -32 0 -38 -440 -2190 -453
-2216 -8 -15 -27 -29 -54 -36 -22 -7 -50 -17 -61 -23 -11 -6 -27 -8 -36 -5 -8
3 -201 203 -430 444 l-415 439 10 33 c13 48 11 98 -7 152 -16 47 -16 48 7 71
93 90 1384 1185 1398 1185 9 0 22 -5 29 -12z m10791 -22 c72 -49 111 -59 203
-54 l79 5 83 -91 c46 -50 246 -273 445 -495 316 -353 361 -408 361 -436 0 -67
91 -60 -1290 -104 -690 -23 -1270 -41 -1287 -41 -43 0 -103 51 -88 75 10 17
1425 1174 1436 1175 4 0 30 -15 58 -34z m-9908 -494 c619 -492 654 -520 651
-548 -2 -16 -5 -67 -6 -114 -3 -80 -5 -86 -32 -106 -60 -45 -1763 -1054 -1779
-1054 -28 0 -75 40 -75 63 0 13 101 520 225 1127 171 841 229 1108 242 1118 9
6 26 12 37 12 12 0 28 5 36 10 8 5 22 10 31 10 9 0 310 -233 670 -518z
m-10616 233 c1068 -165 1005 -155 1005 -165 0 -12 35 -6 -1307 -220 -889 -141
-1253 -195 -1266 -188 -11 6 -16 16 -13 25 10 26 358 567 370 575 6 4 33 8 59
8 63 0 109 21 158 70 22 22 43 40 47 40 4 0 431 -65 947 -145z m1200 -250 c0
-14 -159 -149 -555 -472 -305 -249 -563 -453 -573 -453 -10 0 -32 7 -49 16
-22 12 -51 15 -103 12 -71 -3 -86 -9 -170 -72 -16 -12 -1273 492 -1286 515
-24 45 -51 40 1352 264 734 117 1345 212 1359 212 18 -2 25 -8 25 -22z m1425
-304 c913 -273 996 -300 1010 -323 11 -20 12 -32 3 -50 -8 -17 -158 -113 -487
-312 l-477 -288 -58 26 c-63 28 -96 32 -151 16 -30 -9 -37 -7 -56 13 -20 20
-793 1094 -824 1144 -17 27 0 73 27 73 10 -1 466 -135 1013 -299z m14194 250
c17 -11 50 -24 73 -30 36 -10 43 -16 48 -44 19 -112 231 -2215 224 -2228 -12
-23 -79 -61 -98 -56 -19 5 -2160 1362 -2180 1382 -12 12 -12 21 -3 53 7 22 12
56 12 76 0 25 7 43 23 58 21 20 1827 806 1856 807 7 1 28 -8 45 -18z m1072
-341 c474 -222 774 -367 783 -380 10 -15 11 -29 5 -50 -8 -24 -1293 -1519
-1328 -1544 -20 -14 -85 3 -96 25 -10 17 -240 2170 -240 2241 0 29 49 68 86
68 11 0 367 -162 790 -360z m-20862 171 c675 -115 991 -173 997 -182 5 -8 9
-33 9 -57 0 -76 55 -152 133 -181 27 -10 27 -11 27 -103 0 -201 -61 -1854 -69
-1873 -8 -20 -94 -51 -111 -40 -10 6 -2041 2479 -2052 2498 -8 15 49 107 66
107 6 0 456 -76 1000 -169z m4278 128 c35 -18 54 -21 120 -17 63 4 81 2 92
-11 28 -32 819 -1137 828 -1158 16 -33 -24 -93 -61 -93 -38 0 -2095 278 -2116
286 -19 8 -35 44 -35 79 0 19 97 103 508 436 651 531 612 499 618 499 3 0 23
-10 46 -21z m-5699 -89 c25 -16 47 -36 50 -44 6 -16 -88 -1113 -97 -1137 -11
-25 -102 -64 -125 -53 -37 18 -1100 759 -1105 771 -3 6 5 38 18 70 l22 58 580
182 c318 100 587 182 596 183 9 0 37 -13 61 -30z m1314 -1270 c562 -685 1023
-1250 1023 -1257 0 -7 -9 -17 -20 -23 -17 -9 -176 71 -1047 526 -566 295
-1034 541 -1040 546 -8 6 -13 34 -13 70 0 78 -17 113 -80 171 l-52 48 6 52 c3
29 24 270 46 537 22 267 43 501 47 520 9 38 42 62 83 58 20 -2 235 -258 1047
-1248z m15943 919 c34 -47 87 -72 162 -78 l68 -6 380 -785 c209 -431 380 -793
380 -803 0 -12 -6 -17 -18 -15 -21 4 -2009 1428 -2016 1444 -8 19 25 115 41
121 31 12 949 159 966 155 9 -2 26 -17 37 -33z m897 -134 c315 -101 523 -172
531 -182 6 -9 12 -29 12 -45 0 -49 40 -136 86 -187 l45 -50 -182 -448 c-260
-644 -237 -592 -267 -600 -14 -3 -32 -1 -41 4 -14 9 -781 1575 -781 1595 0 11
61 78 71 78 4 0 241 -74 526 -165z m-14662 -132 c325 -130 596 -241 603 -246
6 -5 12 -26 12 -46 0 -94 49 -168 137 -207 28 -13 55 -29 59 -36 4 -7 61 -276
125 -598 112 -559 124 -640 86 -589 -7 9 -379 449 -827 978 -448 529 -817 969
-819 978 -2 12 2 14 15 9 11 -4 285 -113 609 -243z m-699 189 c15 -10 1659
-1956 1672 -1977 15 -28 -29 -138 -59 -147 -33 -11 -1537 -138 -1553 -132 -8
3 -22 24 -32 47 -25 55 -78 114 -125 137 -20 11 -39 25 -41 32 -2 7 10 429 28
938 18 509 33 956 33 993 1 60 4 71 27 92 29 27 34 29 50 17z m8497 -76 c615
-52 982 -87 990 -95 8 -8 8 -15 -3 -25 -16 -14 -2579 -1533 -2605 -1542 -22
-9 -65 23 -65 47 0 18 366 1426 391 1506 9 27 16 32 52 38 23 4 53 13 67 20
35 18 87 75 99 108 9 24 16 27 53 27 24 0 483 -38 1021 -84z m-1452 42 c6 -13
29 -42 51 -64 l40 -41 -202 -769 c-111 -423 -207 -774 -213 -780 -17 -16 -75
-34 -90 -28 -13 5 -987 1481 -1001 1518 -7 17 -2 33 18 69 15 25 35 48 44 51
9 3 157 12 327 21 171 9 418 22 550 29 132 7 290 14 352 15 107 1 113 0 124
-21z m16233 -64 c23 -22 20 -30 -16 -57 -60 -45 -1133 -730 -1150 -735 -10 -2
-36 3 -58 12 -73 29 -179 11 -219 -37 -7 -10 -19 -17 -25 -17 -6 0 -263 152
-571 338 -531 321 -560 340 -563 369 -5 48 18 63 96 64 37 0 573 18 1192 38
1371 47 1294 45 1314 25z m-26838 -392 l559 -388 3 -74 c2 -41 1 -84 -2 -96
-3 -11 -83 -83 -178 -160 -590 -475 -534 -434 -570 -423 -18 5 -45 9 -60 9
-18 0 -33 8 -42 23 -16 25 -386 1390 -386 1424 0 22 67 70 101 72 9 1 268
-174 575 -387z m-827 333 c30 -8 58 -18 62 -22 10 -11 389 -1419 389 -1446 0
-21 -57 -77 -79 -77 -24 0 -1547 661 -1558 676 -12 16 -11 129 1 141 3 3 243
174 533 379 587 415 529 384 652 349z m9711 -57 c0 -22 -1035 -2187 -1047
-2192 -32 -13 -37 42 -59 624 -13 322 -23 620 -24 663 0 83 -2 78 69 134 41
33 70 94 71 148 0 22 4 46 8 53 12 19 944 581 965 582 9 0 17 -5 17 -12z m593
-568 c197 -300 423 -645 503 -767 l146 -223 -21 -43 c-12 -24 -21 -55 -21 -68
0 -14 -6 -33 -13 -43 -9 -12 -331 -116 -1028 -332 -557 -172 -1024 -314 -1036
-314 -16 0 -31 12 -47 39 -14 22 -30 42 -36 46 -5 3 -10 16 -10 27 0 30 1028
2189 1053 2211 16 14 34 17 86 15 l65 -3 359 -545z m7064 515 c21 -13 47 -30
57 -38 18 -13 15 -35 -109 -708 -70 -381 -129 -697 -132 -701 -2 -5 -16 -8
-31 -8 -54 0 -106 -23 -152 -66 -26 -24 -52 -44 -58 -44 -23 0 -1437 421
-1449 432 -20 16 -15 58 10 79 36 32 1790 1077 1809 1078 9 1 34 -10 55 -24z
m720 -203 c175 -125 628 -450 1006 -722 l689 -494 -7 -45 c-4 -25 -12 -55 -19
-66 -12 -18 -499 -245 -525 -245 -5 0 -34 12 -66 26 -46 21 -67 25 -106 21
-37 -5 -53 -2 -67 11 -22 19 -1229 1703 -1238 1727 -3 8 -1 15 4 15 6 0 154
-103 329 -228z m9728 188 c34 -18 72 -30 95 -30 21 0 47 -8 59 -17 12 -11 152
-322 347 -772 l325 -754 -51 -48 c-28 -27 -58 -49 -68 -48 -9 0 -453 186 -987
413 l-970 413 -3 49 c-1 27 1 54 6 61 8 12 1172 763 1183 763 4 0 33 -13 64
-30z m965 -249 c435 -190 616 -274 621 -287 3 -11 12 -41 18 -69 7 -27 23 -67
37 -87 13 -21 24 -42 24 -48 0 -6 -145 -197 -321 -426 l-322 -416 -46 7 c-25
4 -53 11 -61 15 -14 7 -658 1480 -667 1526 -6 26 51 67 82 59 11 -3 297 -126
635 -274z m-11098 227 c21 -17 1240 -1718 1245 -1739 2 -8 -9 -30 -26 -48 -25
-26 -36 -32 -58 -27 -16 3 -341 44 -723 92 -382 47 -700 91 -707 96 -7 5 -19
32 -28 59 -12 36 -30 61 -68 94 -39 34 -51 51 -49 70 3 46 242 1340 251 1360
7 17 38 29 142 54 3 0 12 -5 21 -11z m7054 -19 c3 -6 30 -22 59 -34 29 -13 55
-32 59 -42 142 -363 706 -1843 706 -1850 0 -5 -17 -28 -37 -49 -21 -22 -46
-50 -56 -63 -13 -16 -25 -21 -40 -17 -12 3 -458 102 -992 220 -533 118 -977
217 -986 221 -9 3 -26 30 -37 58 -19 49 -19 54 -3 78 40 64 1288 1489 1303
1489 9 0 20 -5 24 -11z m-10642 -59 c34 1 72 7 86 15 14 8 33 14 42 15 9 0
169 -161 364 -367 191 -203 379 -400 417 -440 l70 -71 -14 -62 c-7 -34 -19
-66 -27 -72 -13 -11 -3564 -487 -3637 -488 -34 0 -37 2 -25 14 13 13 1226 734
2283 1357 l269 158 55 -29 c45 -24 68 -30 117 -30z m11487 -275 c299 -180 552
-334 562 -343 11 -10 17 -30 17 -61 0 -28 10 -67 25 -99 l25 -54 -220 -491
c-121 -271 -228 -498 -237 -504 -9 -7 -38 -13 -65 -13 -42 0 -49 3 -61 28 -20
39 -697 1807 -697 1820 0 16 63 51 86 48 12 -1 266 -150 565 -331z m-3671
-514 c591 -376 1083 -691 1093 -700 17 -16 17 -19 3 -34 -12 -12 -29 -14 -68
-11 -29 3 -647 38 -1373 79 -726 42 -1329 77 -1341 80 -14 3 -27 20 -38 49 -9
24 -26 52 -36 61 -11 10 -20 27 -20 39 0 20 395 1010 412 1032 5 6 35 15 68
18 40 5 82 19 123 41 34 19 71 33 82 31 11 -2 504 -310 1095 -685z m-14700
474 c553 -74 1020 -138 1039 -142 29 -7 39 -17 65 -68 20 -39 47 -71 76 -94
25 -18 48 -39 53 -46 11 -20 58 -1295 47 -1314 -8 -16 -133 -71 -160 -71 -23
0 -2210 1831 -2210 1850 0 23 16 30 55 24 17 -2 482 -65 1035 -139z m-45 -875
c602 -501 1097 -915 1100 -920 11 -17 -15 -50 -38 -49 -12 0 -411 93 -886 207
l-865 207 -23 59 c-28 74 -63 112 -130 142 -29 13 -53 25 -53 27 0 1 -54 272
-120 602 -66 330 -117 607 -114 617 3 10 12 18 20 18 9 0 508 -410 1109 -910z
m22450 484 c32 -10 68 -13 100 -9 28 3 55 2 62 -3 15 -10 1343 -1705 1343
-1714 0 -5 -8 -8 -19 -8 -19 0 -2095 701 -2129 719 -13 7 -21 24 -24 55 -3 24
-15 65 -28 90 l-22 46 30 37 c16 21 145 189 287 373 283 367 334 430 343 430
4 0 30 -7 57 -16z m-30058 -350 c436 -187 765 -334 776 -346 20 -24 22 -67 5
-91 -17 -21 -2298 -1118 -2318 -1115 -8 2 -16 13 -18 26 -3 20 516 1660 539
1704 5 9 33 24 63 32 39 12 70 30 108 66 29 27 61 49 70 50 9 0 358 -147 775
-326z m3251 -215 c559 -292 1023 -536 1030 -543 10 -10 10 -27 1 -87 -6 -41
-13 -79 -14 -85 -3 -9 -1415 -528 -1542 -567 -28 -9 -36 -7 -56 11 -27 26
-104 61 -133 62 -12 0 -26 6 -32 13 -12 13 -372 1615 -372 1652 0 22 60 73 88
74 7 1 470 -238 1030 -530z m-1207 444 c6 -6 93 -379 194 -829 197 -881 193
-859 133 -859 -19 0 -179 128 -595 472 l-569 473 2 111 c2 61 4 112 6 113 2 2
154 124 338 272 184 149 343 275 354 281 20 11 116 -13 137 -34z m25939 -413
c519 -221 951 -406 958 -412 7 -7 9 -15 4 -20 -7 -7 -2427 -378 -2469 -378 -6
0 -25 24 -41 53 -16 28 -46 67 -65 86 -34 32 -35 34 -22 70 35 98 418 938 432
949 9 6 33 12 54 12 25 0 52 10 85 34 46 31 51 32 84 21 19 -7 460 -194 980
-415z m-12650 145 c0 -2 -14 -12 -30 -20 -43 -22 -3300 -1317 -3327 -1323 -16
-3 -35 6 -61 29 -21 19 -52 41 -68 50 -29 15 -33 27 -108 318 l-79 302 45 43
c28 26 51 60 60 87 10 31 22 46 39 52 28 9 3436 464 3492 466 20 0 37 -1 37
-4z m1304 -217 c395 -117 725 -219 733 -226 9 -10 13 -31 11 -65 l-3 -50
-1274 -869 c-701 -477 -1280 -868 -1289 -868 -10 0 -13 7 -10 23 5 20 828
2083 859 2150 12 27 19 30 91 42 20 3 58 21 85 40 26 18 55 34 63 35 8 0 339
-95 734 -212z m-1069 181 c20 -17 26 -28 23 -48 -4 -21 -819 -2068 -858 -2153
-11 -23 -20 -27 -71 -33 -57 -7 -149 -52 -149 -74 0 -5 -9 -12 -19 -16 -12 -3
-481 159 -1232 426 -668 237 -1229 437 -1247 445 -28 11 -33 18 -30 40 3 26
56 48 1433 596 1789 711 2108 838 2116 838 4 0 19 -10 34 -21z m6491 -398
c853 -49 1369 -83 1383 -90 11 -7 21 -20 21 -31 0 -12 -121 -135 -326 -330
-273 -261 -329 -311 -347 -306 -91 27 -158 15 -239 -40 l-37 -26 -898 427
c-494 235 -909 434 -922 442 -19 12 -21 17 -10 24 8 5 14 9 14 9 0 0 613 -36
1361 -79z m-576 -416 c1041 -496 998 -474 977 -487 -9 -5 -224 -25 -476 -46
l-460 -36 -44 45 c-54 56 -121 85 -174 74 -21 -4 -47 -7 -58 -8 -15 -2 -93 95
-337 421 -175 232 -318 427 -318 432 0 6 9 10 19 10 11 0 403 -182 871 -405z
m-1178 368 c38 -25 50 -28 132 -28 l91 0 317 -420 c174 -231 317 -426 317
-432 1 -7 -6 -13 -15 -13 -34 0 -1405 613 -1415 632 -21 39 11 60 262 175 134
61 250 111 257 112 7 1 31 -11 54 -26z m-19453 -34 c15 -28 8 -57 -115 -467
l-25 -82 -45 -11 c-84 -21 -147 -86 -168 -172 -4 -15 -17 -32 -29 -37 -21 -10
-1853 -290 -1892 -290 -17 0 -17 2 -5 15 28 27 2214 1074 2240 1072 15 -1 30
-12 39 -28z m796 -425 c678 -562 665 -552 659 -569 -4 -8 -16 -15 -28 -15 -55
0 -1321 230 -1331 242 -6 7 -17 32 -24 55 -6 23 -27 60 -46 83 -19 23 -35 45
-35 49 0 8 72 255 120 412 l30 97 67 25 c38 13 75 25 83 26 9 0 236 -182 505
-405z m16923 316 c392 -49 721 -94 731 -100 10 -5 22 -25 25 -44 4 -19 18 -50
31 -70 14 -20 25 -45 25 -54 0 -9 -154 -446 -342 -971 -253 -704 -348 -957
-363 -967 -15 -10 -34 -11 -65 -6 l-44 7 -408 1065 c-224 586 -411 1075 -414
1088 -5 16 2 32 27 61 19 21 42 48 51 59 10 12 21 22 25 22 5 0 329 -41 721
-90z m-7179 51 c11 -15 45 -41 76 -57 30 -16 57 -35 60 -43 3 -8 37 -136 76
-285 39 -149 72 -279 75 -288 3 -10 -10 -32 -33 -56 -21 -22 -47 -53 -59 -68
l-21 -28 -1132 96 c-653 55 -1137 100 -1143 106 -8 8 -3 15 16 23 50 23 2011
627 2038 628 19 1 33 -8 47 -28z m13461 -237 c536 -119 985 -223 998 -230 30
-20 30 -68 -1 -88 -12 -9 -506 -252 -1096 -541 -1021 -500 -1074 -525 -1095
-510 -11 8 -38 26 -58 40 -25 17 -38 33 -38 48 -1 60 112 1365 119 1383 5 12
25 25 48 32 22 6 57 27 79 46 21 20 46 35 54 36 8 0 453 -97 990 -216z m-7258
137 c32 -4 63 -12 69 -18 11 -11 817 -2109 826 -2149 4 -16 -4 -27 -30 -43
-43 -27 -93 -82 -115 -127 -11 -25 -22 -34 -40 -34 -26 0 -3353 557 -3384 566
-25 7 -34 52 -16 70 8 8 588 406 1289 885 1219 832 1276 869 1309 863 19 -3
61 -9 92 -13z m11392 -18 c47 -91 170 -137 263 -98 19 8 41 15 48 15 20 0 700
-524 703 -542 6 -29 -35 -59 -71 -53 -18 3 -761 77 -1652 165 -891 88 -1635
162 -1652 165 -46 8 -41 22 10 31 186 32 2261 342 2294 343 37 1 44 -3 57 -26z
m-5389 -3 c7 -21 -101 -1350 -113 -1390 -9 -29 -67 -53 -93 -39 -22 11 -503
576 -507 595 -2 8 4 34 13 57 12 29 16 63 13 114 l-3 71 320 306 c321 306 355
333 370 286z m-17101 -59 c9 -16 37 -47 63 -69 l47 -41 -124 -508 c-68 -279
-127 -523 -132 -540 -11 -39 -32 -52 -91 -54 -43 -2 -52 4 -710 499 -366 276
-668 506 -672 512 -12 20 7 81 29 91 22 10 1408 136 1518 138 54 1 58 -1 72
-28z m24019 -328 c511 -173 945 -321 965 -330 32 -14 35 -16 17 -23 -29 -11
-1040 27 -1064 39 -11 6 -22 24 -26 40 -10 48 -59 107 -109 130 -37 18 -60 22
-124 20 l-79 -3 -109 83 c-60 46 -189 144 -286 219 -98 74 -178 139 -178 144
0 6 14 7 33 2 17 -3 450 -148 960 -321z m-22749 93 c473 -113 866 -211 873
-219 19 -19 21 -87 3 -98 -31 -19 -2115 -729 -2139 -729 -28 0 -81 45 -81 69
0 30 252 1056 265 1076 7 11 32 26 57 32 25 7 64 28 88 48 25 21 49 33 59 31
9 -3 403 -98 875 -210z m12656 -156 c377 -166 691 -309 698 -318 18 -24 15
-96 -5 -114 -10 -8 -516 -322 -1125 -697 -1194 -735 -1124 -697 -1163 -637
-14 20 -12 30 14 107 59 171 662 1842 672 1860 5 10 22 21 37 25 48 10 100 36
124 61 14 15 31 23 43 20 11 -2 328 -140 705 -307z m-16069 84 c18 -19 49 -44
67 -55 17 -12 32 -27 32 -35 0 -16 -494 -1333 -516 -1376 -11 -22 -22 -28 -47
-28 -17 -1 -50 -8 -72 -16 -22 -8 -47 -18 -55 -20 -16 -5 -1022 832 -1044 868
-8 13 -6 32 9 75 l20 58 710 257 c748 272 847 307 856 308 3 0 21 -16 40 -36z
m1110 -506 l654 -493 -4 -70 c-2 -38 -7 -76 -11 -84 -4 -8 -324 -187 -710
-399 -505 -276 -708 -382 -724 -378 -12 3 -37 20 -57 38 -36 33 -37 34 -33
103 2 39 16 426 29 860 14 435 28 799 30 811 3 13 23 28 59 43 29 12 62 31 71
42 10 10 24 19 30 19 7 0 307 -222 666 -492z m22678 302 c889 -88 1633 -162
1654 -166 20 -3 37 -10 37 -14 0 -5 -24 -17 -52 -28 -134 -50 -1454 -482
-1473 -482 -12 0 -32 12 -46 26 -33 37 -116 74 -164 74 -24 0 -66 -12 -103
-30 l-64 -30 -729 392 c-405 217 -729 397 -729 405 0 7 11 13 26 13 15 0 754
-72 1643 -160z m-23584 80 c11 -18 -47 -1682 -59 -1709 -10 -22 -90 -61 -125
-61 -23 0 -251 131 -261 151 -6 10 -10 32 -10 49 0 43 -24 96 -65 141 l-35 39
29 77 c59 161 473 1259 486 1291 14 32 29 40 40 22z m21345 -31 c0 -14 -699
-729 -713 -729 -6 0 -31 10 -56 22 -63 31 -171 36 -242 13 -71 -24 -159 -110
-184 -180 -10 -27 -24 -57 -32 -65 -10 -11 -106 -22 -415 -47 -222 -17 -411
-29 -422 -26 -12 3 -15 8 -8 15 17 17 2035 1006 2055 1007 9 1 17 -4 17 -10z
m1224 -416 c396 -214 729 -396 739 -406 13 -13 17 -30 15 -59 l-3 -41 -757
-375 -758 -375 -53 50 c-29 28 -67 58 -85 67 -17 9 -34 26 -36 39 -10 50 -16
1358 -6 1376 6 12 26 22 49 26 22 4 68 24 103 45 35 22 65 39 67 40 2 0 328
-174 725 -387z m-1098 331 c29 -14 59 -33 66 -41 10 -13 14 -158 16 -693 4
-621 2 -678 -13 -693 -9 -10 -25 -17 -36 -17 -10 0 -42 -9 -71 -20 -29 -11
-59 -20 -67 -20 -17 0 -618 436 -624 453 -2 7 0 28 6 47 14 52 3 161 -22 212
-11 24 -21 52 -21 62 0 16 693 736 708 736 3 0 29 -12 58 -26z m-15591 -74
c588 -50 1085 -93 1103 -96 41 -6 44 -37 5 -58 -75 -38 -3411 -1550 -3430
-1554 -17 -3 -23 0 -23 13 0 25 809 1506 837 1533 16 15 37 22 62 22 96 0 199
69 246 164 15 30 29 57 32 60 12 12 115 5 1168 -84z m-9908 -32 c16 -24 43
-52 60 -63 18 -11 34 -26 37 -33 8 -18 -111 -621 -125 -638 -6 -8 -17 -14 -24
-14 -6 0 -39 -14 -72 -30 l-61 -30 -833 235 c-973 275 -999 283 -999 295 0 5
6 12 13 17 12 8 1895 300 1949 302 21 1 33 -8 55 -41z m1076 -78 c348 -61 642
-115 655 -120 39 -17 25 -37 -45 -64 -145 -54 -1538 -536 -1551 -536 -8 0 -27
8 -44 18 -28 16 -30 20 -25 67 7 66 108 580 116 594 4 6 32 17 62 25 45 12 62
23 104 70 33 36 58 56 73 56 13 0 308 -50 655 -110z m7134 59 c26 -28 49 -54
51 -59 4 -10 -813 -1509 -833 -1529 -17 -17 -112 -53 -145 -55 -18 -1 -201
117 -620 398 -327 220 -612 413 -633 429 -35 27 -38 33 -35 75 2 26 9 49 18
54 17 11 2119 736 2137 737 6 1 33 -22 60 -50z m13771 -75 c7 -14 9 -31 5 -39
-5 -7 -228 -262 -497 -566 -325 -369 -496 -555 -511 -557 -12 -2 -28 4 -35 13
-12 15 -100 899 -92 937 2 9 23 28 47 43 27 15 55 43 71 70 14 25 36 48 47 50
30 8 816 72 893 74 56 1 62 -1 72 -25z m8599 1 c227 -8 421 -18 430 -24 11 -5
23 -32 31 -65 l13 -56 -33 -39 c-146 -169 -1075 -1171 -1085 -1171 -23 0 -72
29 -82 49 -6 10 -28 261 -50 557 -22 297 -43 557 -45 579 -4 36 -1 43 38 80
23 22 55 57 70 78 l28 38 137 -6 c75 -3 322 -12 548 -20z m-1078 -46 c24 -28
59 -58 78 -65 18 -8 38 -25 43 -37 11 -27 94 -1132 86 -1152 -3 -8 -22 -23
-44 -34 -21 -11 -44 -27 -51 -35 -8 -9 -24 -16 -36 -16 -19 0 -1681 702 -1767
746 -22 12 -28 22 -28 48 0 18 7 40 16 47 18 15 1607 547 1639 548 12 1 37
-19 64 -50z m-16912 -418 c631 -225 1162 -414 1178 -421 l30 -12 -25 -10 c-31
-13 -2928 -40 -2951 -27 -20 10 -43 64 -36 81 3 7 99 161 214 343 136 215 217
334 233 342 14 6 47 19 74 29 27 9 66 32 85 50 20 19 39 34 43 34 4 0 524
-184 1155 -409z m9583 365 c30 0 69 4 85 8 31 8 34 4 283 -288 139 -162 252
-302 252 -311 0 -9 -6 -28 -14 -43 -8 -15 -17 -45 -21 -66 -5 -24 -15 -41 -29
-47 -25 -11 -1592 -419 -1608 -419 -19 0 -48 32 -48 52 0 16 235 287 834 961
146 165 150 169 180 161 17 -4 56 -8 86 -8z m-11080 -7 c0 -16 -408 -661 -428
-676 -9 -7 -36 -13 -61 -13 -96 -1 -178 -66 -206 -165 -15 -50 -19 -55 -53
-64 -112 -30 -2458 -541 -2480 -541 -27 1 -27 1 8 21 69 41 3175 1447 3198
1448 12 1 22 -4 22 -10z m9639 -84 c16 -8 32 -22 35 -32 8 -21 86 -836 86
-901 0 -38 -4 -45 -32 -60 -47 -24 -94 -76 -108 -116 -6 -19 -19 -37 -28 -40
-37 -11 -1335 -157 -1349 -152 -8 3 -13 12 -11 19 2 7 303 301 671 655 438
421 674 642 688 642 11 0 33 -7 48 -15z m10434 -62 c38 -24 58 -45 62 -62 3
-14 50 -388 105 -831 54 -443 102 -822 105 -842 4 -33 0 -42 -42 -92 -30 -35
-56 -56 -70 -56 -18 0 -1306 500 -1319 512 -2 3 -5 50 -7 105 l-2 101 550 601
c303 330 553 601 556 601 3 0 31 -17 62 -37z m-29339 -9 c18 -22 26 -43 24
-57 -21 -102 -525 -1866 -537 -1879 -9 -9 -32 -20 -52 -23 -33 -6 -40 -3 -67
27 -16 18 -252 300 -524 626 l-495 592 3 97 c2 53 7 100 11 104 14 13 1557
548 1583 548 17 1 34 -10 54 -35z m-2934 -273 l875 -247 5 -80 c3 -43 11 -89
18 -101 6 -12 12 -31 12 -42 0 -22 -363 -787 -386 -812 -8 -9 -40 -22 -71 -29
l-56 -14 -31 36 c-17 19 -319 358 -671 752 -352 394 -641 723 -643 732 -2 8 4
26 12 40 12 18 23 23 39 19 12 -3 416 -117 897 -254z m21538 250 c-1 -5 -264
-260 -582 -566 -529 -509 -581 -556 -605 -550 -14 3 -56 9 -92 12 -54 4 -73 1
-106 -16 -49 -24 -87 -68 -103 -116 -7 -22 -19 -37 -33 -40 -51 -11 -483 -32
-499 -23 -21 10 -24 51 -5 66 24 21 2011 1242 2020 1242 5 0 7 -4 5 -9z
m-17786 -432 c487 -410 513 -433 511 -463 -2 -17 -5 -60 -7 -95 -2 -35 -10
-69 -17 -76 -10 -8 -1419 -809 -1642 -932 -12 -7 -37 18 -37 37 0 24 529 1903
538 1912 8 7 110 45 129 47 6 0 243 -193 525 -430z m-4107 -415 c352 -394 653
-732 669 -751 28 -34 28 -34 15 -94 -7 -33 -20 -66 -29 -74 -8 -8 -297 -152
-640 -320 l-625 -306 -52 25 c-37 18 -54 33 -59 51 -9 36 -52 2107 -44 2123 9
19 80 60 105 61 15 1 196 -195 660 -715z m-855 656 c13 -8 18 -153 37 -1057
13 -576 20 -1058 18 -1070 -3 -14 -21 -31 -44 -43 -21 -10 -55 -38 -74 -61
l-36 -42 -782 141 c-465 84 -787 146 -794 154 -7 7 -16 47 -19 89 l-7 77 776
868 c427 478 796 888 820 912 44 42 75 51 105 32z m29738 -255 c17 -14 47 -32
66 -40 20 -9 41 -26 46 -38 13 -30 260 -1292 260 -1328 0 -22 -9 -35 -40 -55
-22 -15 -57 -49 -76 -76 -29 -39 -40 -47 -58 -42 -28 8 -1716 693 -1739 706
-15 8 -17 20 -15 76 l3 67 755 377 c415 207 758 377 762 377 3 1 20 -10 36
-24z m1227 -349 c473 -202 870 -374 883 -382 17 -11 22 -24 22 -57 0 -24 -6
-50 -12 -59 -11 -14 -1273 -665 -1318 -680 -9 -3 -37 14 -65 39 -49 43 -135
83 -178 83 -12 0 -28 4 -36 9 -10 6 -57 224 -142 658 -71 356 -128 659 -129
673 0 36 58 93 90 87 14 -2 412 -169 885 -371z m-22995 254 c81 -52 80 -50 80
-152 0 -51 -7 -316 -15 -588 -8 -272 -15 -537 -15 -587 0 -100 -4 -108 -66
-145 -16 -10 -36 -22 -44 -28 -12 -9 -160 58 -700 315 -377 179 -691 334 -697
343 -7 8 -13 33 -13 54 0 34 5 41 37 61 59 35 1377 756 1383 756 3 0 25 -12
50 -29z m940 -390 c338 -227 620 -419 626 -426 12 -15 3 -99 -12 -114 -14 -14
-1257 -580 -1274 -580 -8 0 -36 20 -62 44 l-48 44 6 123 c2 68 11 375 20 683
8 307 18 565 22 572 11 20 86 74 97 70 6 -2 287 -189 625 -416z m17559 410
c22 -11 45 -64 38 -84 -5 -12 -2263 -1531 -2294 -1543 -7 -3 -13 -1 -13 3 0 5
222 320 493 699 l493 690 70 -3 c108 -5 180 33 225 120 10 20 24 40 31 44 7 5
215 25 463 45 247 20 456 37 463 38 7 0 21 -3 31 -9z m-1367 -137 c10 -9 18
-25 18 -36 0 -19 -977 -1399 -1009 -1425 -8 -7 -22 -9 -31 -5 -8 3 -46 8 -84
9 -41 2 -74 8 -82 16 -21 23 -524 827 -524 838 0 6 11 31 25 54 14 23 28 64
31 90 4 25 12 50 18 54 14 9 1574 419 1600 421 11 0 28 -6 38 -16z m1522 -34
c22 -12 36 -29 36 -40 0 -33 -512 -1673 -528 -1691 -8 -10 -26 -18 -39 -18
-32 0 -93 -26 -121 -53 -18 -16 -34 -21 -65 -20 -45 2 -1627 209 -1665 218
-30 7 -39 32 -18 53 31 32 2331 1570 2348 1571 9 1 33 -8 52 -20z m678 -185
c156 -113 291 -213 301 -223 16 -16 16 -20 2 -60 -38 -108 -8 -224 80 -311 30
-30 55 -59 55 -65 -1 -27 -179 -420 -191 -423 -11 -2 -101 180 -307 613 -161
338 -292 624 -292 635 0 20 24 39 52 40 9 0 144 -93 300 -206z m-440 134 c17
-13 638 -1315 638 -1337 0 -7 -19 -20 -42 -31 -66 -28 -1129 -390 -1153 -392
-27 -3 -85 38 -85 60 0 9 115 391 256 847 179 577 263 835 277 848 22 20 86
23 109 5z m-23903 -626 c281 -336 511 -615 511 -620 0 -4 -11 -29 -25 -56 -31
-61 -33 -133 -4 -195 11 -25 18 -50 15 -57 -6 -16 -801 -969 -815 -979 -16
-10 -48 3 -56 23 -8 19 -235 2363 -235 2425 0 31 5 40 33 57 17 11 39 19 48
18 9 -2 246 -279 528 -616z m13290 599 c8 -5 12 -17 9 -28 -3 -10 -235 -301
-517 -646 l-512 -627 -67 0 c-68 0 -136 -23 -174 -57 -9 -8 -24 -13 -32 -10
-19 8 -1786 1284 -1811 1309 -20 19 -20 19 -1 34 16 12 88 14 415 15 218 1
709 5 1091 8 1105 11 1584 11 1599 2z m2141 -286 c1395 -234 1697 -288 1708
-302 7 -10 12 -34 10 -53 l-3 -35 -975 -463 -975 -463 -50 26 c-39 19 -65 25
-117 25 -37 0 -79 -5 -94 -10 -20 -8 -32 -7 -45 2 -20 15 -1181 1444 -1197
1474 -9 16 -7 28 8 52 11 18 23 32 27 32 5 0 771 -128 1703 -285z m-5651 219
c12 -15 21 -35 21 -46 0 -11 -243 -382 -540 -826 l-540 -806 -63 -21 c-63 -20
-127 -59 -127 -76 0 -5 -9 -9 -21 -9 -16 0 -1336 934 -1501 1063 -33 25 -38
34 -38 70 0 23 4 48 9 56 6 10 472 117 1378 317 752 166 1376 302 1385 303 9
1 26 -11 37 -25z m3636 -55 c39 -17 63 -20 130 -18 l83 4 592 -729 c325 -401
596 -736 602 -745 7 -12 4 -26 -12 -54 -20 -34 -25 -37 -68 -37 -75 0 -2271
188 -2283 196 -6 3 -19 25 -28 48 -10 22 -33 56 -50 75 -18 19 -31 41 -29 49
4 21 990 1230 1004 1231 6 1 33 -8 59 -20z m-2382 -650 c496 -359 905 -657
909 -663 13 -18 9 -43 -9 -65 -17 -19 -136 -35 -1475 -206 -801 -102 -1468
-185 -1482 -185 -17 0 -34 11 -52 35 -15 20 -47 47 -71 61 -23 14 -43 30 -43
36 0 7 1035 1562 1057 1588 3 3 39 5 81 5 59 1 86 6 117 23 22 11 46 21 53 22
8 0 420 -293 915 -651z m-11792 589 c-3 -81 -249 -1937 -259 -1954 -13 -24
-19 9 -92 491 -33 220 -63 410 -65 422 -3 14 1 28 12 38 101 86 113 99 129
147 21 65 14 120 -25 175 -17 24 -31 49 -31 56 0 13 285 613 311 654 18 29 23
22 20 -29z m199 -1185 c55 -578 100 -1067 100 -1087 0 -32 -4 -36 -56 -60 -31
-14 -66 -26 -77 -26 -26 0 -188 49 -203 61 -6 5 -16 27 -23 49 -14 46 -61 104
-102 126 -19 10 -29 22 -29 38 0 26 247 1925 256 1971 10 48 18 52 26 15 4
-19 53 -508 108 -1087z m3148 977 c22 -19 31 -36 28 -48 -3 -9 -82 -305 -176
-657 -94 -352 -174 -643 -176 -647 -3 -4 -22 -8 -43 -8 -23 0 -62 -12 -97 -30
-32 -16 -66 -30 -74 -30 -13 0 -994 372 -1113 422 -49 21 -70 56 -51 85 11 17
1633 941 1654 942 9 1 30 -13 48 -29z m405 -51 c62 -34 118 -69 125 -77 6 -9
12 -41 12 -71 0 -38 6 -66 20 -89 11 -18 20 -40 20 -50 0 -17 -791 -1014 -810
-1020 -5 -2 -10 2 -10 8 0 6 77 298 171 648 112 420 176 641 186 650 9 6 26
12 38 12 11 0 41 11 65 24 25 13 51 24 58 25 8 0 64 -27 125 -60z m17110 -14
c31 -39 93 -75 130 -75 13 0 31 -6 40 -12 11 -9 92 -327 272 -1078 l257 -1064
-29 -23 c-55 -46 -71 -43 -133 25 -30 33 -482 500 -1005 1037 -522 537 -954
983 -958 991 -9 16 17 72 37 80 20 8 1254 152 1311 153 46 1 52 -2 78 -34z
m-1806 -151 c72 -102 116 -128 207 -121 33 3 72 8 86 12 24 6 77 -46 640 -627
338 -348 772 -794 964 -991 191 -197 346 -360 343 -363 -3 -3 -27 9 -54 27
-133 92 -2720 1923 -2731 1934 -20 19 -5 102 21 116 11 6 108 17 216 24 298
19 287 19 308 -11z m2353 -388 c127 -203 234 -375 237 -383 3 -7 -2 -22 -10
-31 -53 -59 -71 -166 -38 -237 17 -38 81 -105 101 -105 29 0 28 -47 -6 -436
-38 -441 -41 -471 -55 -457 -10 10 -489 1990 -489 2024 0 20 2 21 14 9 8 -8
118 -181 246 -384z m5479 0 c442 -180 812 -331 822 -337 23 -12 25 -35 3 -43
-17 -6 -2127 51 -2201 60 -36 4 -43 9 -43 27 1 12 45 126 99 252 108 251 100
240 205 270 48 14 71 29 124 80 l65 64 61 -23 c34 -13 423 -171 865 -350z
m3828 110 c356 -140 661 -260 676 -267 40 -18 33 -52 -13 -61 -57 -12 -2963
-170 -2983 -162 -55 21 -21 41 665 390 l677 345 40 -20 c60 -31 180 -29 241 4
25 13 46 24 47 25 1 0 293 -114 650 -254z m-25742 -138 c369 -175 676 -326
683 -335 6 -9 12 -36 12 -60 0 -24 9 -62 21 -84 11 -22 19 -46 17 -54 -5 -20
-1211 -1613 -1227 -1619 -19 -9 -60 20 -66 47 -3 12 -50 526 -105 1142 -54
616 -102 1141 -105 1167 -5 44 -3 50 30 87 25 27 42 38 53 34 9 -4 319 -150
687 -325z m-905 220 c9 -22 210 -2245 210 -2321 0 -30 -5 -40 -26 -49 -30 -14
24 -67 -564 552 -233 245 -446 468 -473 497 l-50 52 13 56 c11 45 11 64 1 103
-7 26 -13 56 -14 67 -1 13 152 212 417 543 380 475 421 522 447 522 21 0 32
-6 39 -22z m3319 -20 c34 -36 41 -50 41 -83 0 -22 -20 -269 -44 -550 l-44
-509 -45 -43 c-25 -24 -49 -43 -54 -42 -4 0 -264 139 -578 307 -489 264 -571
311 -579 335 -7 18 -7 33 -1 43 8 12 1234 581 1257 583 3 1 25 -18 47 -41z
m10624 -2 c48 -37 117 -66 158 -66 69 0 61 37 153 -695 74 -593 82 -673 70
-692 -8 -13 -20 -23 -27 -23 -7 0 -28 -11 -47 -25 -19 -14 -45 -25 -58 -25
-39 0 -2185 540 -2210 557 -18 11 -22 22 -20 50 l3 35 955 454 c525 249 963
453 973 454 10 0 33 -11 50 -24z m1915 -1010 c1030 -729 1452 -1033 1452
-1046 0 -32 -12 -50 -33 -50 -22 0 -2580 437 -2609 446 -10 3 -32 32 -50 66
-36 68 -71 98 -142 125 -27 10 -53 25 -58 33 -13 23 -177 1353 -168 1369 13
25 114 90 135 87 11 -1 674 -465 1473 -1030z m-11463 450 c421 -301 765 -554
765 -562 0 -7 -8 -15 -17 -18 -21 -7 -1520 -146 -1569 -146 -26 0 -37 6 -48
28 -8 15 -39 50 -70 78 -55 50 -56 53 -51 95 3 24 23 257 45 518 22 260 44
480 48 488 11 18 103 73 119 70 7 -1 357 -249 778 -551z m-9034 231 c35 -19
66 -40 71 -48 4 -8 42 -239 83 -514 42 -275 78 -514 81 -532 5 -28 1 -37 -32
-68 -22 -19 -44 -35 -51 -35 -9 0 -960 352 -1406 520 -65 25 -86 50 -65 82 8
12 273 147 633 324 341 167 621 304 622 304 1 0 30 -15 64 -33z m31979 -146
c0 -8 -1891 -1403 -1936 -1429 -20 -11 -27 -8 -68 27 -79 69 -182 91 -302 67
l-41 -8 -369 483 c-203 265 -377 494 -386 509 -17 25 -16 27 12 70 16 24 32
56 35 71 12 54 18 55 340 73 556 30 1918 107 2225 125 353 21 490 25 490 12z
m55 -104 c0 -12 -970 -1307 -1167 -1558 l-37 -47 -65 5 c-73 6 -140 -12 -171
-47 -10 -11 -30 -20 -44 -20 -46 0 -452 73 -466 84 -13 11 -27 157 -16 174 14
21 1945 1432 1955 1429 6 -2 11 -11 11 -20z m-5273 -7 c26 -5 67 -7 90 -4 50
7 1041 -24 1108 -35 l45 -6 -70 -13 c-87 -15 -875 -112 -915 -112 -20 0 -33 7
-41 23 -23 45 -83 97 -131 113 -61 20 -131 7 -200 -38 l-49 -30 -107 37 c-131
46 -169 65 -154 74 16 10 367 2 424 -9z m-588 -89 c138 -50 269 -98 291 -107
39 -17 40 -17 15 -25 -41 -14 -1559 -139 -1582 -130 -20 7 -21 8 -2 16 87 38
967 334 993 334 19 1 146 -39 285 -88z m5791 -646 c-75 -352 -138 -648 -141
-658 -3 -9 -31 -30 -63 -46 -91 -46 -143 -116 -165 -223 -4 -18 -14 -29 -29
-33 -38 -8 -601 -43 -614 -38 -13 5 -53 68 -53 84 0 11 1125 1505 1169 1552
17 18 27 24 29 15 1 -7 -59 -301 -133 -653z m-34493 520 c414 -74 760 -139
768 -143 8 -5 20 -27 26 -49 27 -93 73 -139 160 -162 26 -7 44 -19 51 -33 22
-50 383 -1176 383 -1197 0 -17 -5 -22 -19 -19 -22 3 -2167 1705 -2175 1726 -4
8 4 12 24 12 16 0 368 -61 782 -135z m5333 -109 c553 -212 535 -204 535 -227
0 -10 -4 -20 -8 -23 -15 -9 -2216 -596 -2234 -596 -10 0 -18 7 -18 15 0 15
792 974 815 988 8 4 25 3 40 -3 64 -24 160 -1 226 55 l30 24 77 -28 c42 -16
284 -108 537 -205z m25506 224 c10 -6 28 -27 39 -48 11 -20 30 -49 41 -63 l21
-27 -324 -728 -324 -729 -89 -6 c-62 -5 -94 -3 -102 5 -9 8 -653 1273 -653
1282 0 1 13 18 30 39 16 20 32 52 36 71 3 18 12 39 20 45 8 6 295 46 642 89
345 43 631 78 635 79 5 0 17 -4 28 -9z m-21099 -305 c304 -163 559 -304 566
-313 6 -9 12 -44 12 -78 l0 -62 -505 -588 -506 -589 -40 1 c-22 0 -47 8 -56
17 -13 13 -32 182 -100 909 l-83 893 26 20 c15 11 43 37 63 57 21 22 43 36 53
34 10 -2 266 -137 570 -301z m-9642 -915 c541 -613 990 -1123 999 -1133 14
-17 14 -22 -4 -55 -11 -21 -29 -38 -40 -40 -38 -5 -1916 158 -1935 168 -11 6
-20 21 -20 33 0 45 -47 123 -106 175 l-58 52 49 948 c49 946 50 947 73 970 20
21 25 22 42 10 10 -7 460 -515 1000 -1128z m8823 1121 c13 -5 27 -17 31 -26 7
-19 166 -1717 166 -1776 0 -34 -5 -42 -39 -64 -22 -13 -54 -42 -72 -65 -19
-24 -41 -40 -54 -40 -18 0 -1194 202 -1251 215 -15 3 -27 22 -43 65 -12 33
-19 65 -15 72 15 23 1197 1584 1217 1606 23 25 26 26 60 13z m8542 -126 c622
-53 1140 -100 1153 -105 12 -5 22 -16 22 -23 0 -17 -1383 -1111 -1410 -1115
-10 -2 -29 2 -42 9 -13 7 -61 16 -108 19 l-85 5 -393 555 c-216 305 -398 565
-404 577 -10 20 -5 29 35 72 26 28 47 55 47 60 0 13 29 41 43 41 7 0 521 -43
1142 -95z m-1647 55 c2 -20 -64 -125 -274 -435 -152 -226 -287 -425 -301 -442
-23 -31 -28 -33 -86 -33 -68 0 -122 -20 -174 -64 l-32 -27 -1033 306 c-567
169 -1042 311 -1055 316 -31 12 -29 27 5 36 52 13 2867 371 2907 370 35 -2 40
-5 43 -27z m10146 -85 c441 -58 811 -110 824 -115 13 -6 22 -15 20 -21 -5 -15
-1723 -929 -1745 -929 -10 0 -28 16 -41 35 -12 20 -47 51 -76 70 -29 19 -56
40 -59 48 -6 17 67 874 77 897 4 9 23 24 42 35 20 11 48 34 61 52 20 26 32 33
61 33 20 0 396 -47 836 -105z m5199 59 c65 -1 122 -6 127 -10 16 -19 723 -947
745 -980 l24 -36 -24 -49 c-14 -27 -28 -72 -33 -101 -6 -42 -12 -55 -32 -65
-14 -7 -369 -74 -790 -149 l-764 -136 -29 33 c-18 22 -26 41 -23 54 6 23 594
1352 627 1416 16 32 24 39 37 33 9 -5 70 -9 135 -10z m-2043 -45 c19 -37 20
-43 6 -62 -8 -12 -351 -422 -763 -912 -746 -888 -748 -890 -788 -893 -22 -2
-48 3 -57 10 -13 10 -64 213 -198 785 -99 424 -180 777 -180 783 0 7 16 30 34
51 19 21 40 56 46 78 6 22 15 43 22 47 12 8 1690 151 1790 153 l68 1 20 -41z
m-28755 -788 c528 -420 963 -769 967 -775 4 -6 8 -35 8 -64 0 -52 14 -92 52
-143 l20 -26 -49 -119 c-48 -115 -50 -119 -88 -132 -22 -7 -56 -14 -77 -15
-36 -2 -38 0 -947 1030 -501 568 -911 1037 -911 1043 0 17 -4 20 1025 -799z
m15576 749 c24 -11 64 -20 89 -20 25 -1 53 -4 62 -8 24 -10 837 -1163 838
-1188 0 -18 -33 -64 -46 -64 -7 0 -1476 279 -1499 285 -13 3 -33 32 -57 81
l-37 76 126 187 c69 102 200 295 290 429 90 133 170 242 178 242 7 0 32 -9 56
-20z m13307 -95 c4 -54 -225 -1955 -238 -1970 -7 -8 -22 -15 -34 -15 -45 0
-141 -56 -188 -110 l-45 -53 -493 107 c-272 59 -497 109 -502 112 -13 8 -69
136 -66 150 2 9 1208 1450 1461 1747 44 51 64 67 80 65 16 -2 23 -11 25 -33z
m130 17 c13 -8 662 -1287 662 -1304 0 -5 -9 -26 -20 -48 -13 -26 -20 -59 -20
-98 0 -32 -6 -65 -12 -74 -17 -21 -737 -530 -758 -535 -8 -2 -40 9 -70 25 -49
25 -55 32 -58 63 -4 61 223 1946 237 1963 15 18 21 19 39 8z m-27463 -280
c369 -137 682 -255 696 -262 25 -11 27 -18 31 -84 3 -39 2 -76 -1 -83 -6 -12
-866 -629 -907 -651 -18 -9 -27 -7 -55 14 -31 23 -63 35 -131 49 -20 4 -30 15
-42 47 -36 99 -376 1157 -376 1171 0 8 13 27 30 40 24 21 35 24 57 17 16 -4
330 -120 698 -258z m18259 -48 c583 -146 1065 -268 1069 -271 5 -3 4 -10 -1
-15 -11 -11 -3932 -599 -3944 -592 -4 3 -8 11 -8 18 0 13 1341 1080 1382 1100
13 7 24 4 41 -12 90 -85 258 -82 341 7 17 17 36 31 44 31 8 0 492 -120 1076
-266z m6704 191 c16 -13 50 -33 75 -44 24 -11 48 -25 52 -31 9 -15 365 -1537
365 -1562 0 -25 -48 -88 -67 -88 -19 0 -2182 639 -2205 651 -15 8 -18 23 -18
77 0 37 4 73 9 81 8 12 1735 938 1753 940 3 1 20 -10 36 -24z m-14608 -59
c-29 -27 -2775 -1397 -2778 -1387 -3 9 839 1001 906 1067 9 10 23 13 36 9 51
-15 85 -16 125 -5 56 15 127 80 143 131 6 22 18 45 26 51 14 12 1363 144 1497
147 50 1 57 -1 45 -13z m-6338 -33 c21 -20 38 -44 38 -53 0 -13 -429 -1291
-476 -1417 -14 -38 -20 -43 -70 -58 -29 -8 -69 -29 -88 -45 -18 -17 -39 -30
-45 -30 -22 0 -1642 963 -1652 982 -27 50 -50 43 1127 359 610 163 1113 298
1119 298 5 1 26 -16 47 -36z m728 -500 c245 -256 483 -506 528 -555 l84 -88
-16 -47 c-9 -26 -16 -62 -16 -80 0 -25 -6 -36 -22 -43 -28 -12 -1509 -370
-1530 -370 -8 0 -23 18 -33 40 -10 22 -24 45 -32 51 -7 6 -13 22 -13 34 0 21
480 1451 496 1476 6 11 80 47 99 48 6 1 210 -209 455 -466z m7200 161 c678
-201 1041 -313 1051 -325 21 -24 33 -137 17 -157 -7 -8 -328 -303 -712 -655
l-699 -640 -76 -8 c-42 -4 -85 -10 -97 -14 -17 -5 -23 1 -37 32 -38 86 -687
1907 -687 1927 0 17 11 25 51 40 33 11 66 33 93 61 22 24 46 44 51 45 6 0 476
-138 1045 -306z m-1444 245 c10 -12 40 -32 65 -44 l45 -23 368 -1023 c336
-936 366 -1025 355 -1051 -6 -16 -19 -28 -29 -28 -17 0 -3682 644 -3727 655
-32 8 -48 41 -31 66 15 23 2882 1468 2914 1469 11 0 29 -9 40 -21z m10746
-599 c704 -121 1287 -225 1294 -231 17 -14 18 -43 2 -56 -10 -8 -1085 -406
-1156 -429 -8 -2 -28 8 -45 22 -73 62 -192 83 -274 49 -19 -8 -41 -15 -47 -15
-19 0 -1101 848 -1104 865 -2 10 5 15 23 15 14 0 602 -99 1307 -220z m-1953
195 c-27 -15 -3122 -1384 -3190 -1411 -35 -14 -38 -14 -88 17 -37 23 -68 34
-113 38 l-62 6 -239 325 c-131 179 -241 331 -244 339 -3 7 2 37 11 67 12 40
23 55 39 59 64 16 3810 573 3857 574 53 0 54 0 29 -14z m-18069 -51 c77 -24
81 -27 78 -52 -3 -26 -29 -37 -648 -278 -708 -276 -690 -270 -690 -256 0 12
797 582 814 582 6 0 29 -9 51 -20 27 -14 59 -20 103 -20 66 0 104 14 136 49
25 28 57 27 156 -5z m18228 -30 c13 -20 22 -41 20 -48 -2 -7 -182 -335 -401
-729 l-398 -716 -37 -6 c-68 -11 -120 -36 -161 -76 -23 -21 -46 -39 -53 -39
-50 0 -2240 192 -2263 198 l-30 8 30 16 c33 17 3190 1413 3227 1427 31 11 39
7 66 -35z m937 -458 l540 -423 -4 -75 c-2 -59 1 -85 17 -120 11 -25 25 -49 31
-52 6 -4 11 -16 11 -27 0 -17 -790 -1147 -843 -1206 -11 -13 -30 -23 -42 -23
-55 0 -46 -50 -210 1150 -84 618 -151 1130 -148 1138 7 17 73 61 93 61 8 0
258 -190 555 -423z m-753 358 c9 -3 19 -12 22 -20 3 -9 75 -517 158 -1130 116
-843 150 -1119 142 -1132 -6 -9 -22 -21 -36 -26 -23 -8 -84 27 -549 315 l-524
324 -6 60 c-6 64 -34 128 -68 159 -12 11 -21 25 -21 32 0 10 650 1190 767
1392 24 42 26 44 61 37 21 -3 44 -8 54 -11z m-18266 -55 c16 -17 48 -40 72
-50 23 -10 43 -20 43 -21 5 -11 35 -1066 31 -1076 -2 -7 -28 -24 -58 -38 -33
-15 -71 -45 -98 -76 -40 -46 -48 -50 -68 -41 -794 355 -1462 661 -1466 671 -2
7 0 30 7 51 l11 38 732 286 c403 158 740 286 749 287 8 0 28 -14 45 -31z
m1154 -462 c858 -508 854 -505 798 -540 -13 -8 -338 -91 -722 -183 l-699 -168
-16 24 c-54 82 -80 107 -151 142 -41 21 -78 46 -82 55 -9 25 -40 1057 -31
1080 7 20 63 72 78 72 6 0 377 -217 825 -482z m11694 287 c451 -86 734 -144
743 -152 8 -8 13 -26 11 -39 -3 -21 -84 -70 -598 -360 -327 -184 -616 -345
-642 -359 l-47 -24 -31 26 c-17 14 -52 34 -78 43 l-47 17 -92 419 c-51 231
-92 426 -93 432 0 7 15 30 33 50 18 21 41 51 51 66 13 21 23 27 39 24 12 -3
350 -67 751 -143z m-1072 4 c39 -14 63 -29 68 -42 4 -12 47 -205 96 -429 59
-273 85 -412 79 -421 -43 -56 -75 -114 -75 -135 0 -15 -4 -32 -9 -40 -6 -9
-243 -52 -767 -137 -418 -68 -771 -124 -786 -124 -31 0 -71 43 -66 73 3 22
1365 1275 1387 1276 8 1 41 -9 73 -21z m16977 -70 c16 -24 48 -61 70 -83 23
-21 41 -47 41 -57 0 -23 -556 -2028 -565 -2036 -7 -8 -154 -20 -170 -15 -9 3
-1054 1682 -1079 1735 -7 14 -3 26 21 51 38 39 63 88 63 121 0 37 23 53 97 66
38 6 374 67 748 134 374 68 694 124 712 125 27 1 37 -6 62 -41z m799 -37 c140
-25 217 -42 223 -52 5 -8 9 -33 9 -56 0 -23 10 -62 21 -87 l22 -44 -59 -83
c-331 -470 -1308 -1835 -1315 -1837 -5 -2 -9 4 -9 13 0 41 554 2011 568 2023
9 6 30 12 47 12 50 0 150 56 191 106 27 32 43 44 63 44 14 -1 122 -18 239 -39z
m-6663 -372 c600 -176 1094 -325 1100 -330 6 -7 6 -13 -3 -18 -12 -7 -1846
-391 -1869 -391 -7 0 -34 22 -60 48 -48 48 -118 82 -170 82 -12 0 -29 10 -37
23 -15 24 -226 735 -226 763 0 23 141 154 160 149 8 -2 506 -149 1105 -326z
m7980 242 c17 -29 50 -70 73 -91 l42 -39 -14 -38 c-34 -94 -1169 -3060 -1179
-3078 -10 -19 -10 -19 -17 0 -7 18 243 3002 255 3052 3 13 28 37 59 57 43 27
59 46 80 91 15 31 34 59 42 62 21 8 489 41 563 39 l65 -1 31 -54z m-9582 9
c50 -43 114 -70 173 -70 27 0 58 -6 68 -13 12 -9 53 -132 127 -383 59 -203
108 -378 109 -390 0 -22 -78 -84 -108 -84 -29 0 -1586 492 -1602 507 -9 8 -11
16 -5 22 13 12 1164 439 1187 440 10 1 33 -12 51 -29z m-7617 -71 c14 -23 90
-49 145 -49 l56 0 242 -330 c132 -182 241 -340 241 -350 0 -11 -10 -30 -21
-41 -21 -21 -28 -22 -143 -16 -67 4 -485 25 -931 47 -445 22 -819 44 -830 49
-18 8 -16 11 20 32 161 97 1183 668 1197 668 9 1 20 -4 24 -10z m16090 -1743
c-100 -1166 -137 -1571 -147 -1581 -8 -7 -42 -25 -76 -40 l-63 -28 -107 104
c-517 496 -873 845 -873 855 0 6 9 31 20 55 28 64 27 176 -4 250 -17 43 -20
62 -13 75 16 29 1315 1853 1356 1904 l36 45 3 -35 c1 -19 -58 -741 -132 -1604z
m1468 1007 l156 -626 -40 -59 c-45 -67 -54 -104 -48 -188 3 -44 12 -72 37
-111 17 -28 31 -58 29 -66 -5 -25 -1512 -1594 -1528 -1591 -8 2 -16 10 -18 19
-2 13 1203 3181 1229 3232 6 9 14 17 18 17 5 0 79 -282 165 -627z m-27221 529
c9 -8 17 -25 17 -36 -1 -12 -171 -271 -379 -576 -363 -534 -379 -555 -407
-552 -150 14 -161 14 -197 -2 -21 -8 -44 -13 -52 -10 -13 6 -621 673 -639 703
-14 22 33 110 63 118 188 51 1559 378 1566 375 6 -3 18 -12 28 -20z m991 -92
c346 -60 634 -114 639 -119 6 -6 -5 -17 -29 -29 -22 -11 -538 -243 -1148 -517
-966 -433 -1110 -495 -1123 -482 -13 12 -5 28 59 123 41 60 217 319 392 577
l317 467 55 0 c64 0 113 18 160 60 19 16 38 30 42 30 4 0 290 -49 636 -110z
m21786 70 c0 -9 -822 -2766 -856 -2872 -16 -49 -36 -62 -49 -30 -9 22 -95
1930 -88 1948 3 8 31 25 63 40 70 31 132 92 161 158 18 42 21 63 18 150 l-4
100 365 258 c201 142 371 258 377 258 7 0 13 -4 13 -10z m178 -17 c16 -15
1039 -1661 1080 -1740 10 -19 6 -28 -33 -74 -60 -71 -78 -128 -74 -237 l4 -86
-885 -437 c-487 -241 -895 -438 -906 -439 -12 0 -28 7 -35 17 -8 9 -38 31 -66
50 -29 18 -53 37 -53 40 0 7 775 2604 836 2800 19 61 40 114 47 116 26 11 66
6 85 -10z m-27807 -324 c404 -182 740 -337 748 -344 13 -12 13 -15 -1 -20 -21
-8 -1628 213 -1657 228 -13 7 -29 29 -37 51 -7 22 -22 52 -33 67 -28 38 -27
51 19 164 48 117 64 145 88 145 9 0 35 9 57 19 22 11 50 20 61 20 12 1 352
-148 755 -330z m8853 -229 c1984 -350 1816 -319 1816 -329 0 -12 -20 -20 -629
-247 l-575 -215 -25 21 c-48 39 -104 60 -161 60 -58 0 -125 -24 -149 -53 -7
-10 -20 -17 -28 -17 -19 0 -2013 1048 -2038 1072 -19 18 -19 18 4 18 14 0 817
-140 1785 -310z m12801 54 c476 -149 785 -251 793 -261 6 -9 12 -38 12 -63 0
-60 41 -141 91 -182 21 -17 39 -37 39 -45 0 -7 -155 -518 -345 -1136 -221
-718 -351 -1127 -362 -1134 -21 -16 -28 -16 -45 1 -14 14 -1068 2952 -1068
2977 0 19 71 89 90 89 8 0 366 -110 795 -246z m-15067 174 c3 -15 -740 -1366
-813 -1479 -20 -31 -30 -37 -73 -42 -57 -7 -117 -34 -146 -66 -11 -12 -23 -21
-28 -21 -10 0 -1234 468 -1263 483 -11 5 -23 15 -27 21 -12 17 -9 60 5 79 16
22 2295 1047 2322 1044 11 -1 21 -10 23 -19z m1433 -532 l1034 -544 6 -69 c3
-37 11 -81 18 -96 7 -19 8 -34 1 -47 -5 -10 -123 -146 -261 -302 l-252 -283
-67 3 c-53 3 -78 -1 -119 -19 -51 -22 -53 -22 -70 -3 -15 15 -1124 1532 -1318
1802 -51 72 -58 102 -24 102 10 0 483 -245 1052 -544z m-10341 449 c498 -41
916 -78 929 -83 16 -4 29 -20 37 -45 21 -62 52 -96 115 -127 39 -20 60 -37 64
-53 3 -12 32 -176 66 -365 57 -323 60 -344 45 -367 -9 -14 -25 -25 -35 -25
-28 0 -2231 1098 -2238 1116 -9 24 17 35 67 29 25 -3 452 -39 950 -80z m22894
50 c3 -8 -80 -841 -184 -1851 -105 -1009 -190 -1843 -190 -1852 0 -20 -17 -49
-24 -41 -9 8 -566 2167 -566 2192 0 14 11 32 30 45 68 50 90 162 50 251 -11
24 -20 47 -20 52 0 9 818 1169 847 1202 20 21 49 22 57 2z m648 -1485 c290
-811 528 -1483 528 -1494 0 -10 -14 -34 -31 -54 -36 -41 -59 -90 -59 -127 0
-15 -5 -35 -10 -46 -7 -12 -265 -147 -670 -349 -605 -302 -662 -329 -685 -318
-14 6 -28 21 -31 32 -5 21 381 3785 392 3819 20 62 39 11 566 -1463z m3663
1453 c10 -16 29 -40 42 -54 l24 -27 -333 -873 -333 -874 -65 -6 c-36 -3 -75
-9 -87 -13 -15 -5 -28 0 -46 16 -18 17 -952 1080 -1114 1269 -10 13 -12 35 -7
97 4 44 10 86 15 93 7 11 1809 396 1865 398 13 1 29 -10 39 -26z m-18129 -15
c11 -11 384 -1634 384 -1671 0 -6 -17 -27 -37 -47 -21 -19 -47 -48 -58 -64
l-20 -29 -540 88 c-297 47 -547 91 -555 95 -9 5 -22 27 -29 50 -6 22 -25 56
-42 75 l-30 34 20 39 c37 72 793 1427 804 1441 14 16 83 9 103 -11z m131 0
c49 -55 1373 -1880 1373 -1893 0 -10 -10 -15 -29 -15 -42 0 -733 59 -758 65
-13 3 -31 21 -42 43 -33 64 -111 122 -164 122 -14 0 -30 7 -37 15 -13 16 -380
1621 -380 1663 0 12 4 22 8 22 5 0 18 -10 29 -22z m18886 -102 c262 -57 484
-109 492 -116 7 -6 19 -35 25 -65 22 -105 101 -190 206 -221 29 -8 55 -22 59
-32 11 -30 94 -1956 84 -1974 -13 -24 -48 -33 -64 -17 -11 11 -1308 2329
-1362 2433 -14 27 -13 30 18 62 18 19 40 34 49 34 8 0 230 -47 493 -104z
m-22883 70 c24 -30 97 -49 163 -43 34 3 67 3 73 -1 5 -4 153 -166 328 -360
316 -350 318 -353 306 -382 -6 -15 -20 -36 -29 -44 -16 -15 -112 4 -1157 224
-626 133 -1147 243 -1157 246 -10 3 -16 11 -14 17 4 13 1389 354 1443 356 17
0 37 -6 44 -13z m-5151 -551 c602 -300 1103 -553 1113 -562 19 -17 24 -68 9
-91 -12 -20 -1192 -593 -1204 -585 -6 3 -24 22 -41 41 -40 46 -118 82 -177 82
-25 0 -53 6 -62 13 -22 16 -777 1594 -777 1624 0 17 6 23 22 23 11 0 514 -245
1117 -545z m27393 468 c26 -31 1378 -2460 1378 -2476 0 -14 -23 -55 -63 -111
-12 -18 -34 -15 -637 95 -616 113 -625 114 -631 139 -31 112 -43 141 -77 185
-26 35 -57 60 -106 85 -37 19 -71 42 -76 50 -7 13 134 1970 146 2028 5 27 44
30 66 5z m-10927 -48 c501 -25 920 -48 933 -50 30 -7 28 -21 -6 -39 -72 -37
-2546 -1136 -2558 -1136 -7 0 -18 9 -24 19 -8 16 31 115 206 525 199 467 218
507 242 512 112 23 172 72 198 160 l15 54 42 0 c23 0 452 -20 952 -45z
m-14305 -85 c443 -61 815 -113 827 -115 15 -3 26 -19 37 -52 21 -60 21 -60
-12 -77 -59 -31 -1477 -576 -1498 -576 -12 0 -27 7 -35 16 -16 19 -83 54 -103
54 -9 0 -22 10 -30 23 -13 21 -128 645 -128 697 0 14 9 30 21 39 12 8 36 34
52 58 17 23 38 43 47 43 9 0 379 -49 822 -110z m12925 1 l26 -39 -214 -503
c-173 -407 -219 -506 -238 -515 -20 -10 -77 -30 -139 -50 -13 -4 -1065 718
-1108 760 -12 11 -8 21 20 58 18 25 38 53 43 62 8 13 159 41 765 140 415 68
770 124 787 125 27 1 37 -5 58 -38z m3915 -121 c586 -49 1085 -93 1110 -97 33
-6 45 -13 45 -25 0 -19 -2553 -1908 -2578 -1908 -26 0 -77 34 -83 55 -5 20
152 1886 161 1916 3 9 25 24 49 33 27 11 63 37 94 72 50 54 52 55 94 50 24 -4
522 -46 1108 -96z m8170 -841 c-38 -503 -72 -922 -75 -932 -4 -9 -19 -20 -34
-23 -57 -12 -112 -37 -155 -70 -25 -19 -51 -34 -58 -34 -7 0 -36 16 -65 36
l-52 35 6 89 c5 82 4 93 -20 143 -15 29 -43 68 -62 86 -19 17 -35 36 -35 42 0
12 549 1454 581 1529 16 36 22 42 29 29 6 -10 -17 -360 -60 -930z m-9695 871
c11 -12 36 -30 57 -42 20 -12 39 -27 42 -34 5 -13 -150 -1869 -159 -1912 -4
-15 -22 -30 -58 -46 -28 -13 -63 -35 -76 -50 -14 -14 -30 -26 -36 -26 -21 0
-2340 881 -2351 893 -22 23 -25 76 -6 94 19 18 2528 1140 2553 1142 9 1 24 -8
34 -19z m-12676 -370 c625 -132 1142 -243 1150 -245 9 -4 11 -9 5 -15 -5 -5
-611 -121 -1346 -257 l-1336 -247 -46 48 c-25 26 -46 55 -46 65 0 35 150 673
161 687 6 8 23 14 38 14 37 0 130 46 170 83 18 18 44 49 57 70 13 20 32 37 41
37 9 0 527 -108 1152 -240z m-1654 109 c30 -23 55 -44 55 -48 0 -8 -138 -617
-151 -664 -9 -32 -17 -41 -57 -58 -26 -11 -66 -38 -88 -60 l-41 -41 -659 134
-659 133 -3 26 c-3 24 3 29 60 53 166 69 1455 565 1471 566 10 0 42 -19 72
-41z m10060 8 c33 -10 72 -22 86 -27 26 -7 1148 -784 1161 -804 4 -6 3 -15 -2
-20 -9 -9 -2588 357 -2635 374 -18 7 -18 8 5 20 60 33 1297 489 1310 483 8 -3
42 -15 75 -26z m7023 -14 c3 -23 -601 -1873 -624 -1910 -12 -19 -19 -21 -74
-16 -81 8 -135 -14 -193 -77 -26 -28 -52 -50 -59 -50 -92 2 -1612 141 -1627
149 -30 16 -26 36 12 66 17 14 592 439 1277 945 794 586 1252 918 1265 917 12
-1 21 -11 23 -24z m819 -328 c274 -169 504 -315 511 -323 6 -9 12 -31 12 -49
0 -89 88 -193 163 -193 13 0 30 -6 39 -12 11 -9 107 -361 292 -1077 152 -585
276 -1068 276 -1074 0 -7 -6 -5 -14 3 -16 16 -1799 2998 -1810 3026 -5 13 -2
15 14 11 11 -3 244 -143 517 -312z m4634 -327 c305 -347 560 -640 568 -651 12
-17 12 -26 -3 -66 -9 -25 -16 -71 -16 -101 0 -30 -4 -60 -8 -66 -8 -13 -1896
-864 -1916 -864 -7 0 -27 15 -45 34 l-34 35 347 1128 c217 705 353 1133 363
1141 9 6 35 12 57 12 23 1 55 7 71 15 17 7 37 14 46 14 9 1 249 -265 570 -631z
m-5249 605 c28 -32 1878 -3133 1878 -3148 0 -17 -38 -45 -62 -45 -13 0 -2231
971 -2491 1091 -19 9 -30 24 -38 53 -6 23 -19 56 -30 74 -10 18 -19 40 -19 49
0 15 598 1831 627 1906 15 36 16 37 68 37 37 0 56 -5 67 -17z m-14413 -447
c22 -29 56 -64 75 -76 20 -12 36 -30 36 -39 0 -35 -90 -444 -101 -457 -6 -7
-25 -16 -42 -19 -50 -11 -127 -56 -153 -91 -13 -17 -30 -48 -37 -69 -8 -22
-20 -43 -28 -47 -14 -9 -2326 333 -2379 351 -23 8 -23 9 -6 16 15 7 2545 480
2583 484 7 0 30 -23 52 -53z m1084 -247 c348 -133 638 -246 645 -252 11 -8 11
-12 0 -22 -11 -11 -1398 -275 -1441 -275 -9 0 -25 20 -37 48 -12 26 -40 66
-63 90 l-42 43 43 212 c63 307 54 283 112 302 27 9 68 34 92 55 24 22 47 39
51 40 5 0 293 -109 640 -241z m5822 41 c1212 -175 1233 -178 1240 -190 3 -5
-7 -11 -22 -14 -16 -3 -738 -98 -1606 -211 -1625 -212 -1607 -210 -1607 -168
0 8 118 147 262 309 l261 294 71 0 c87 0 142 23 182 75 50 65 63 76 87 70 12
-3 522 -77 1132 -165z m21615 82 c0 -52 -150 -1770 -156 -1786 -3 -8 -30 -29
-60 -46 -40 -22 -64 -46 -90 -86 -19 -30 -41 -57 -47 -59 -22 -9 -1098 201
-1107 215 -5 8 -11 30 -14 49 -4 20 -18 62 -33 93 l-26 57 74 79 c233 249
1445 1512 1451 1512 5 0 8 -13 8 -28z m-31713 -317 c7 -2 15 -17 18 -32 16
-75 28 -106 57 -139 44 -50 83 -67 168 -73 l75 -6 309 -463 310 -463 -14 -47
c-7 -26 -16 -74 -19 -107 l-6 -60 -615 -312 c-338 -171 -621 -312 -629 -312
-7 -1 -32 15 -54 35 -56 51 -119 76 -204 82 l-73 5 -19 51 c-101 271 -701
1966 -701 1980 0 10 24 42 54 71 l54 53 638 -129 c352 -71 644 -131 651 -134z
m-1634 196 c37 -29 71 -45 119 -55 15 -4 32 -14 37 -24 25 -47 722 -2015 719
-2030 -3 -9 -9 -16 -16 -15 -6 2 -482 318 -1057 704 l-1045 700 0 78 c0 54 4
82 14 90 14 12 1177 581 1187 581 3 0 22 -13 42 -29z m13016 -251 c-18 -11
-5736 -1644 -5789 -1654 l-35 -6 24 17 c34 26 2130 1103 2146 1103 7 0 18 -7
26 -16 46 -55 176 -72 257 -33 47 23 95 86 107 141 4 16 16 33 28 39 12 5 713
99 1557 208 844 110 1549 202 1565 204 62 8 131 7 114 -3z m-9655 -205 c644
-96 1182 -179 1196 -183 25 -7 59 -61 60 -94 0 -11 -85 -89 -216 -200 -119
-101 -223 -187 -231 -191 -8 -5 -30 -2 -54 7 -80 32 -182 17 -255 -39 -18 -14
-38 -25 -45 -25 -15 0 -1658 868 -1679 887 -12 11 -9 13 20 13 18 0 560 -79
1204 -175z m11439 -256 c612 -231 1132 -429 1157 -440 34 -15 41 -22 30 -28
-19 -10 -1714 -46 -1729 -36 -6 3 -26 30 -45 59 -35 54 -97 96 -143 96 -11 0
-30 8 -41 18 -22 19 -392 693 -392 714 0 18 20 38 37 38 8 0 514 -189 1126
-421z m-1658 392 c-26 -24 -4084 -2573 -4107 -2579 -9 -2 -41 8 -70 22 -66 33
-117 33 -186 1 -30 -14 -62 -25 -72 -25 -27 0 -1723 776 -1735 794 -7 11 -7
21 0 32 8 12 954 286 3085 895 1691 483 3082 878 3090 879 11 0 10 -5 -5 -19z
m180 -21 c13 -22 86 -50 128 -50 29 0 52 -6 64 -17 11 -10 105 -173 208 -362
l187 -345 -21 -40 c-11 -23 -27 -57 -34 -76 l-14 -35 -1054 -334 -1054 -333
-1115 -410 c-1135 -417 -1208 -443 -1217 -434 -7 6 -195 -113 2012 1275 1023
643 1870 1170 1882 1170 12 1 25 -4 28 -9z m-10385 -468 c836 -442 845 -448
843 -476 -1 -16 -8 -35 -15 -43 -16 -15 -772 -126 -800 -117 -10 3 -18 10 -18
15 0 18 -75 92 -107 106 -18 7 -56 13 -86 13 -43 0 -58 5 -74 23 -23 25 -601
891 -610 913 -3 8 1 14 8 14 8 0 394 -201 859 -448z m3664 421 c31 -60 96
-103 156 -103 16 0 36 -3 45 -6 20 -8 215 -297 215 -319 0 -35 -20 -55 -56
-55 -38 0 -1743 217 -1782 227 -14 3 -20 9 -14 15 8 8 1351 265 1399 267 15 1
27 -8 37 -26z m939 -63 c274 -44 502 -80 507 -80 18 0 40 -32 40 -60 0 -26 -5
-31 -47 -43 -27 -8 -185 -58 -353 -111 -168 -53 -312 -96 -319 -96 -7 0 -29
13 -47 30 -33 28 -73 44 -145 55 -34 5 -42 15 -131 153 -52 81 -98 152 -102
159 -8 15 18 69 36 76 7 3 24 4 38 1 14 -2 249 -40 523 -84z m22438 -57 c15
-9 31 -23 33 -29 6 -15 -986 -1963 -1004 -1974 -7 -5 -26 -3 -42 2 -24 9 -91
7 -213 -4 -27 -3 -51 23 -363 392 -183 217 -338 405 -344 418 -9 18 -9 27 0
40 38 52 61 121 65 190 2 40 8 77 14 83 12 12 1804 898 1816 899 5 0 22 -8 38
-17z m864 -467 c267 -258 485 -472 485 -475 0 -3 -11 -33 -25 -66 -39 -95 -29
-209 24 -283 11 -17 21 -38 21 -47 0 -17 -497 -785 -530 -819 -17 -18 -20 -18
-64 -1 -25 10 -50 23 -56 29 -10 14 -410 2035 -410 2078 0 28 34 61 57 56 7
-2 231 -214 498 -472z m-640 403 c9 -13 405 -2026 405 -2055 0 -17 -12 -26
-59 -43 -67 -24 -129 -79 -161 -141 -19 -38 -23 -40 -67 -40 -59 0 -1102 89
-1125 96 -9 3 -23 25 -32 50 -8 25 -32 68 -51 96 l-36 50 503 985 c276 542
508 992 516 999 16 16 98 19 107 3z m-21264 -89 c191 -16 354 -32 363 -36 9
-4 15 -11 13 -17 -3 -10 -2362 -1227 -2378 -1227 -5 0 -9 6 -9 13 0 11 1092
1071 1212 1176 35 30 36 31 71 16 45 -19 137 -19 181 -1 18 7 50 34 72 59 48
57 21 56 475 17z m-2913 -169 c507 -65 928 -124 936 -130 8 -7 17 -27 20 -45
4 -19 18 -50 31 -70 14 -20 25 -45 25 -56 0 -27 -259 -692 -278 -712 -8 -10
-27 -18 -42 -18 -15 0 -49 -11 -76 -25 -27 -14 -52 -25 -56 -25 -10 0 -1475
1114 -1508 1147 -24 24 -25 24 -6 39 11 7 22 14 25 14 3 0 421 -54 929 -119z
m2012 100 c0 -11 -1071 -1041 -1082 -1041 -4 0 -8 6 -8 14 0 23 210 560 226
577 8 9 32 19 53 23 21 3 53 16 72 28 40 27 89 117 89 165 0 23 7 37 23 47 12
7 148 53 302 101 154 47 285 88 290 90 20 7 35 5 35 -4z m-2288 -647 c408
-311 752 -575 763 -585 17 -16 20 -33 20 -97 0 -78 8 -98 68 -185 10 -15 -24
-88 -242 -520 -140 -276 -263 -514 -273 -529 -20 -29 -16 -28 -134 -19 -6 1
-16 12 -22 25 -56 123 -962 2451 -958 2462 3 8 12 14 20 14 8 0 349 -255 758
-566z m-916 526 c27 0 46 -6 56 -17 11 -13 924 -2326 962 -2436 4 -13 2 -17
-8 -15 -18 4 -1616 1804 -1616 1821 0 6 9 37 21 67 17 45 20 68 15 130 l-6 75
131 110 c73 61 178 149 235 197 99 83 105 86 136 77 18 -5 51 -9 74 -9z
m20267 -58 c15 -15 27 -32 27 -36 0 -12 -721 -1339 -738 -1358 -11 -13 -30
-18 -67 -18 -39 0 -67 -8 -108 -30 l-56 -30 -506 276 c-431 235 -506 280 -512
302 -15 61 -36 50 962 499 517 232 947 422 956 423 8 0 27 -13 42 -28z m462
-50 c39 -30 49 -44 47 -63 -15 -140 -14 -165 9 -224 15 -40 40 -78 76 -116 29
-31 53 -61 53 -68 0 -13 -1327 -3017 -1366 -3091 -17 -34 -23 -40 -24 -23 0
45 902 3538 918 3551 9 6 32 12 53 12 22 0 59 12 90 29 30 16 63 30 74 30 11
1 43 -16 70 -37z m-409 -149 c-2 -10 -205 -801 -451 -1757 -245 -957 -450
-1746 -454 -1754 -6 -11 -9 -9 -13 9 -6 34 97 1873 106 1888 4 6 36 24 71 40
83 38 115 83 115 161 0 54 -12 86 -54 144 l-18 26 307 567 c356 657 376 693
388 693 5 0 6 -8 3 -17z m-9092 -218 l36 -65 -819 -1453 c-786 -1394 -820
-1452 -847 -1452 -23 0 -30 5 -36 30 -4 17 -67 652 -140 1412 l-132 1383 41
34 c23 20 49 57 62 85 15 35 29 52 44 56 26 6 1184 31 1519 34 l236 1 36 -65z
m10803 -65 c333 -61 612 -114 620 -119 8 -4 25 -34 38 -66 43 -104 120 -164
242 -190 36 -8 67 -16 70 -19 10 -10 304 -1362 301 -1386 -8 -68 -10 -67 -998
890 -523 507 -954 928 -957 936 -9 23 25 64 53 64 13 0 298 -50 631 -110z
m-9582 21 l800 -69 20 -26 c31 -38 65 -96 65 -109 0 -11 -1960 -2289 -2035
-2366 -31 -31 -36 -34 -59 -23 -19 8 -26 19 -26 39 1 61 209 2459 215 2474 3
9 26 24 49 33 25 10 63 38 90 66 26 28 55 50 64 50 9 0 377 -31 817 -69z
m-3381 -46 c3 -9 -228 -366 -600 -927 -333 -502 -613 -921 -622 -930 -12 -14
-32 -18 -97 -18 -72 0 -86 -3 -126 -28 -28 -18 -53 -46 -69 -75 -14 -26 -30
-49 -35 -51 -13 -5 -3206 391 -3213 399 -3 3 -1 10 5 16 6 6 586 222 1289 481
l1279 471 1065 338 c586 186 1077 338 1091 339 15 0 29 -7 33 -15z m13184
-921 c850 -824 967 -941 970 -969 2 -18 -3 -39 -11 -46 -19 -20 -1971 -76
-1993 -58 -8 6 -14 24 -14 38 0 51 -32 122 -76 169 -54 57 -52 -44 -18 952 18
533 29 770 37 783 10 15 102 62 130 66 4 0 443 -420 975 -935z m-23307 914 c8
-7 27 -32 42 -55 15 -23 47 -54 72 -68 27 -16 48 -37 51 -51 8 -33 -36 -1196
-47 -1215 -4 -9 -29 -22 -54 -29 -44 -12 -48 -12 -69 11 -22 23 -806 1079
-841 1133 -16 24 -16 28 5 73 49 109 -3 91 430 154 212 31 388 57 391 58 3 1
12 -5 20 -11z m12399 -60 c0 -48 -197 -2386 -205 -2435 -4 -24 -13 -34 -38
-42 -67 -24 -105 -58 -137 -126 -17 -36 -32 -65 -34 -65 -2 0 -266 -56 -586
-125 -539 -116 -585 -124 -606 -110 -40 26 -45 48 -23 90 29 54 1568 2784
1591 2823 26 43 38 40 38 -10z m9636 -883 c-14 -402 -28 -738 -32 -748 -3 -9
-18 -20 -33 -23 -126 -26 -210 -123 -211 -240 0 -64 23 -130 56 -166 15 -14
25 -30 23 -35 -5 -13 -1218 -1157 -1231 -1162 -7 -2 -9 4 -6 15 9 32 1430
3238 1442 3253 19 24 18 -128 -8 -894z m-11772 869 c9 -8 16 -24 16 -35 0 -10
59 -624 130 -1363 72 -740 130 -1363 130 -1385 0 -32 -5 -43 -29 -60 -16 -12
-34 -21 -39 -21 -11 0 -1437 784 -1459 802 -8 6 -13 33 -13 62 0 29 -9 70 -20
95 -11 24 -20 49 -20 57 0 7 277 430 615 939 585 882 615 925 644 925 16 0 37
-7 45 -16z m5711 -580 c682 -301 1244 -550 1249 -554 9 -9 28 -91 30 -131 1
-21 -81 -101 -514 -499 -283 -261 -597 -550 -697 -642 l-183 -168 -47 23 c-27
13 -61 27 -76 31 -21 5 -33 18 -47 49 -78 179 -980 2404 -980 2418 0 11 6 19
13 19 6 0 570 -246 1252 -546z m-14756 -417 c469 -529 807 -918 809 -931 2
-13 -3 -28 -10 -33 -10 -8 -217 39 -777 176 l-765 188 -26 65 c-37 90 -63 124
-126 160 -30 16 -58 38 -62 47 -9 17 32 1174 42 1217 4 16 19 30 39 39 28 12
34 11 51 -3 10 -9 381 -426 825 -925z m13419 891 c16 -20 972 -2368 972 -2388
0 -12 -16 -26 -46 -40 -54 -27 -102 -88 -110 -142 -4 -20 -12 -42 -18 -47 -6
-5 -524 -127 -1150 -270 l-1140 -261 -23 22 c-13 12 -23 30 -23 41 0 17 1404
3003 1436 3054 8 12 29 27 47 32 44 13 43 13 55 -1z m-15792 -90 c43 -31 51
-33 133 -34 48 0 92 -4 98 -7 11 -7 811 -1083 847 -1139 9 -14 13 -29 8 -32
-14 -8 -2365 564 -2382 580 -10 10 -12 19 -5 30 11 17 1220 633 1242 634 7 0
33 -15 59 -32z m15561 -25 c-7 -27 -1368 -2906 -1379 -2920 -6 -7 -32 -13 -59
-13 -26 0 -60 -5 -74 -10 -15 -6 -32 -7 -40 -3 -22 13 -415 375 -424 390 -4 9
-6 45 -3 82 3 47 0 77 -12 105 -9 21 -16 47 -16 58 0 19 1986 2328 2003 2328
5 0 7 -8 4 -17z m14240 -113 c290 -55 535 -102 544 -105 41 -13 35 -84 -7
-104 -51 -23 -2015 -781 -2024 -781 -5 0 -14 9 -20 21 -13 23 -21 9 353 579
l193 295 81 -4 c112 -4 170 16 237 83 28 28 59 66 68 84 9 17 24 32 33 32 8 0
253 -45 542 -100z m-4112 -316 c187 -223 341 -412 343 -419 2 -8 -8 -30 -22
-48 -58 -75 -73 -202 -37 -298 11 -28 17 -56 14 -62 -3 -7 -52 -54 -110 -105
-98 -87 -108 -93 -137 -87 -17 4 -55 11 -84 14 -30 4 -57 12 -61 19 -14 23
-304 1360 -298 1376 4 9 17 16 29 16 18 0 99 -91 363 -406z m-5483 181 c65
-31 136 -32 197 -5 24 11 50 20 57 20 14 0 883 -469 958 -517 32 -21 36 -27
23 -34 -20 -12 -2487 -80 -2506 -69 -11 6 -9 11 10 23 17 11 1189 601 1206
606 0 1 25 -10 55 -24z m10198 -158 c0 -10 -1313 -1207 -1657 -1511 l-43 -38
-40 16 c-22 9 -54 16 -71 16 -17 0 -39 4 -49 10 -18 10 -270 467 -270 491 0 7
10 33 21 57 12 24 25 73 28 108 4 35 12 69 18 75 15 15 2014 788 2041 789 12
0 22 -6 22 -13z m-25242 -509 c537 -244 868 -400 874 -411 12 -24 3 -63 -17
-71 -31 -11 -2379 -367 -2407 -364 -24 2 -35 13 -61 62 l-32 59 265 524 c146
289 274 531 285 539 11 8 42 14 70 14 30 1 64 9 85 20 19 11 44 19 55 20 11 0
409 -176 883 -392z m25102 247 c0 -12 -46 -90 -664 -1130 -350 -588 -644
-1076 -653 -1082 -23 -17 -58 -16 -76 2 -17 16 -187 518 -187 551 0 11 16 35
35 54 46 45 58 85 54 187 l-4 84 740 670 c407 368 743 669 748 669 4 0 7 -2 7
-5z m-8766 -201 c9 -3 16 -11 16 -18 0 -13 -2492 -1826 -2510 -1826 -7 0 -25
11 -41 24 -15 13 -52 32 -81 41 -29 10 -59 23 -67 30 -11 10 -25 175 -62 697
-27 376 -48 708 -49 738 0 51 2 57 35 83 36 28 67 80 79 129 4 17 15 30 29 33
21 5 2271 71 2519 74 64 0 123 -2 132 -5z m56 -118 c0 -8 -1179 -2238 -1190
-2251 -7 -9 -43 -14 -109 -17 -93 -3 -101 -5 -159 -41 l-61 -38 -467 200
c-257 110 -471 204 -476 209 -4 4 -16 37 -24 71 -16 60 -15 64 2 81 36 35
2459 1790 2472 1790 6 0 12 -2 12 -4z m26 -1116 c-34 -621 -57 -963 -65 -978
-6 -12 -19 -22 -29 -22 -60 0 -164 -83 -217 -171 l-20 -34 -325 -42 c-421 -54
-403 -54 -451 0 -21 23 -38 49 -39 58 0 17 1157 2216 1182 2246 11 14 13 8 15
-43 2 -32 -21 -489 -51 -1014z m-3012 962 c57 -11 65 -22 66 -82 1 -25 23
-346 49 -715 26 -368 45 -676 41 -683 -4 -7 -33 -28 -66 -46 -55 -30 -82 -60
-130 -141 -10 -17 -53 -9 -715 139 -387 87 -712 160 -721 162 -19 6 -42 64
-32 85 3 8 321 304 707 657 620 569 704 643 726 638 14 -3 48 -9 75 -14z
m8641 -82 c259 -22 480 -42 492 -45 16 -4 31 -24 51 -68 39 -85 72 -121 147
-158 62 -30 68 -31 167 -28 l103 4 122 -225 c67 -124 121 -229 119 -235 -1 -5
-10 -11 -20 -13 -19 -4 -1722 771 -1746 794 -12 12 -7 14 40 14 30 0 267 -18
525 -40z m240 -431 c495 -226 904 -415 909 -420 16 -15 26 -142 13 -161 -13
-20 -1924 -1578 -1934 -1578 -18 0 -133 67 -138 80 -7 16 14 2302 20 2335 3
13 29 32 70 54 37 19 79 49 93 67 15 19 36 34 47 34 11 0 425 -185 920 -411z
m-1257 282 c23 -4 45 -11 49 -14 13 -14 -11 -2209 -25 -2246 -5 -14 -11 -20
-14 -15 -5 7 -429 1608 -469 1767 l-12 48 43 36 c54 47 79 102 80 174 l0 56
118 106 c129 118 114 113 230 88z m-18093 -232 c1228 -153 1624 -205 1638
-217 9 -8 17 -25 17 -37 0 -12 -8 -29 -17 -37 -26 -23 -4496 -3210 -4509
-3215 -18 -7 -74 46 -74 70 1 12 239 796 529 1741 370 1203 534 1724 547 1733
10 7 29 13 43 13 43 0 111 40 142 84 37 53 48 66 57 66 4 0 736 -90 1627 -201z
m-5727 -34 c394 -97 734 -180 754 -186 31 -8 39 -16 53 -54 10 -24 26 -52 36
-61 11 -9 19 -25 19 -35 0 -16 -686 -1128 -715 -1158 -12 -12 -23 -12 -74 -1
-33 7 -67 20 -75 29 -17 19 -797 1468 -804 1493 -7 29 49 148 70 148 10 0 341
-79 736 -175z m3669 149 c3 -8 -1894 -2101 -2047 -2258 l-28 -29 -62 14 c-33
7 -66 16 -71 20 -6 3 -89 395 -185 870 l-174 863 39 40 c22 23 46 58 54 78 10
24 24 39 39 43 40 10 2402 373 2417 371 8 0 16 -6 18 -12z m93 -65 c0 -11
-236 -789 -525 -1729 -289 -940 -525 -1711 -525 -1714 0 -2 -7 -12 -16 -20
-10 -11 -34 -16 -74 -16 l-59 0 -234 248 c-128 136 -320 339 -425 451 l-192
205 0 86 c0 77 -4 94 -31 148 l-31 62 54 59 c284 317 2045 2241 2051 2241 4 0
7 -9 7 -21z m19306 -173 c18 -15 18 -16 -11 -45 -34 -33 -2727 -2274 -2762
-2298 -20 -14 -26 -13 -58 7 -19 12 -35 26 -35 31 0 10 613 2060 625 2092 4
10 33 31 64 46 31 16 74 49 96 73 l41 45 199 6 c110 4 443 14 740 23 575 16
1014 30 1056 32 14 1 34 -5 45 -12z m74 -108 c0 -25 -853 -2644 -865 -2657 -8
-8 -39 -18 -70 -22 -53 -7 -108 -34 -166 -80 l-26 -20 -810 180 c-446 100
-818 183 -826 187 -8 3 -23 26 -32 51 -17 44 -17 45 4 66 51 52 2767 2306
2779 2306 6 1 12 -4 12 -11z m134 -25 c15 -52 496 -1883 496 -1890 0 -5 -23
-25 -51 -43 -58 -37 -106 -106 -116 -164 -3 -21 -15 -49 -27 -61 -16 -18 -750
-365 -1113 -527 -39 -17 -45 -18 -73 -3 -18 9 -30 23 -30 35 0 17 802 2507
846 2628 12 33 21 42 39 42 14 0 26 -7 29 -17z m-15818 -98 c4 -10 -1131
-2941 -1424 -3673 -24 -63 -25 -64 -56 -57 -17 3 -68 9 -112 12 -94 6 -143
-10 -208 -68 l-39 -33 -1343 268 c-740 148 -1351 274 -1360 281 -9 6 -14 21
-12 33 2 17 563 422 2266 1637 1245 888 2268 1615 2273 1615 5 0 12 -7 15 -15z
m991 -396 c400 -221 734 -408 741 -417 6 -9 12 -28 12 -42 0 -15 14 -54 31
-88 17 -34 28 -70 25 -79 -19 -59 -546 -1199 -557 -1206 -9 -5 -31 -5 -55 2
-37 10 -44 17 -67 69 -80 181 -887 2133 -887 2146 0 9 6 16 14 16 8 0 342
-181 743 -401z m12283 384 c0 -10 -136 -472 -301 -1026 -206 -688 -307 -1010
-318 -1016 -9 -5 -43 -11 -76 -14 l-60 -6 -269 269 -270 269 3 83 c2 66 -2 96
-19 141 -12 32 -20 62 -18 67 4 13 1311 1249 1321 1249 4 1 7 -7 7 -16z
m-13154 -38 c9 -36 -98 -3168 -108 -3182 -5 -7 -31 -19 -58 -28 -57 -19 -128
-78 -155 -129 -12 -22 -32 -41 -55 -50 -19 -7 -275 -98 -568 -201 -433 -152
-535 -185 -547 -175 -8 7 -15 17 -15 22 0 9 1457 3744 1467 3761 9 16 33 6 39
-18z m-6611 -24 c11 -19 346 -1694 343 -1719 -2 -16 -13 -32 -28 -40 -24 -13
-53 -2 -502 188 l-478 203 -16 59 c-9 32 -30 77 -46 100 -17 22 -28 48 -25 57
9 35 719 1161 732 1161 8 0 16 -4 20 -9z m7112 -1077 c444 -1067 444 -1067
435 -1080 -4 -5 -23 -21 -43 -36 -21 -15 -47 -48 -59 -73 -22 -46 -23 -66 -8
-194 3 -22 -52 -71 -412 -368 -228 -188 -419 -341 -425 -339 -5 1 -11 38 -13
82 -3 116 95 2936 103 2957 5 12 11 15 17 9 5 -5 187 -437 405 -958z m18034
796 c24 -11 56 -20 71 -20 15 0 34 -7 42 -16 14 -14 186 -522 186 -550 0 -7
-18 -27 -40 -44 -44 -35 -86 -99 -101 -154 -5 -20 -18 -40 -27 -45 -23 -12
-1897 -606 -1942 -616 l-35 -7 35 35 c40 41 1752 1437 1761 1437 4 0 26 -9 50
-20z m-15271 -285 c51 -52 104 -69 198 -61 l77 6 210 -193 c115 -105 209 -197
207 -202 -1 -6 -16 -11 -34 -13 -41 -3 -1733 244 -1755 257 -14 7 -13 10 8 16
36 12 1011 223 1035 224 11 0 35 -14 54 -34z m4561 -140 c382 -86 702 -158
711 -161 10 -3 20 -17 23 -32 6 -29 25 -89 45 -137 12 -29 4 -46 -222 -474
-129 -244 -241 -447 -249 -451 -8 -4 -45 -9 -83 -11 l-69 -4 -443 680 c-289
443 -444 689 -444 706 0 28 7 39 25 39 7 0 324 -70 706 -155z m-1101 70 l24
-25 -24 -33 c-41 -54 -2321 -2850 -2354 -2884 -34 -37 -41 -40 -50 -17 -4 9
-26 485 -51 1058 -24 573 -46 1078 -49 1124 -4 70 -2 85 12 98 9 8 35 29 56
47 23 18 49 54 62 84 l23 51 98 23 c1289 298 2166 497 2194 498 26 1 42 -6 59
-24z m707 -635 c216 -333 414 -638 440 -678 l46 -73 -32 -39 c-38 -48 -70
-116 -71 -150 0 -37 -10 -47 -70 -73 -216 -95 -3263 -1328 -3276 -1325 -21 4
-163 -174 1205 1503 628 770 1152 1406 1164 1412 12 7 47 13 77 13 30 0 62 5
70 10 8 6 24 9 34 8 13 -2 145 -196 413 -608z m-4429 295 c509 -75 931 -140
938 -146 6 -5 17 -30 24 -55 12 -41 11 -47 -6 -64 -10 -10 -356 -304 -768
-655 -649 -551 -753 -636 -775 -632 -55 11 -104 26 -111 34 -6 6 -400 1501
-400 1518 0 2 18 16 39 31 22 14 51 43 65 65 17 24 34 39 47 39 11 0 437 -61
947 -135z m-1190 -4 c14 -8 415 -1527 407 -1540 -2 -4 -21 -20 -42 -34 l-38
-26 -395 105 c-217 57 -418 111 -445 119 -48 14 -51 17 -78 77 -15 35 -27 66
-27 70 0 4 118 265 261 580 144 315 270 592 280 616 19 43 45 54 77 33z m7696
-326 c252 -107 470 -202 487 -210 32 -17 39 -49 12 -60 -117 -46 -1611 -545
-1626 -543 -51 7 -36 43 200 490 125 238 236 441 246 450 9 10 32 18 50 18 17
0 55 11 82 24 28 14 60 25 71 25 12 1 227 -87 478 -194z m-5421 5 c25 -11 48
-28 52 -37 13 -30 104 -2206 94 -2225 -8 -14 -22 -18 -64 -18 -30 0 -72 -7
-94 -16 -49 -19 42 -66 -866 444 l-690 387 -8 65 c-5 36 -9 77 -10 91 -2 22
91 105 738 655 685 583 794 674 800 674 1 0 23 -9 48 -20z m7311 -265 c46 -43
57 -59 54 -77 -7 -32 -866 -2485 -879 -2510 -8 -15 -14 -17 -22 -9 -18 18
-200 2360 -185 2378 6 8 33 23 59 35 44 18 98 68 140 129 14 21 38 25 345 65
438 56 415 56 488 -11z m568 -332 l267 -267 -6 -81 c-5 -69 -3 -88 16 -129 11
-26 17 -54 13 -61 -14 -26 -1584 -1745 -1593 -1745 -5 0 -9 6 -9 13 0 20 869
2498 881 2513 6 7 34 15 62 17 29 2 63 4 77 5 20 2 75 -48 292 -265z m-1881
225 c16 -18 29 -41 29 -52 0 -10 -198 -344 -441 -742 l-441 -724 -71 0 -72 0
-368 374 c-202 206 -367 382 -367 391 0 9 9 33 20 55 13 25 20 59 20 94 0 35
5 60 15 69 8 8 67 33 132 55 65 22 366 124 668 227 532 181 837 284 843 285 2
0 16 -15 33 -32z m189 -118 c9 -17 190 -2255 190 -2347 0 -39 -2 -41 -47 -61
-27 -12 -60 -29 -76 -39 -21 -14 -31 -15 -45 -6 -47 29 -938 716 -945 728 -4
7 -3 25 3 40 19 49 12 109 -20 171 -16 32 -30 65 -30 72 0 16 866 1442 886
1458 19 15 73 5 84 -16z m-8610 -800 c228 -61 419 -115 424 -120 7 -7 4 -17
-9 -29 -44 -41 -1028 -781 -1040 -781 -21 0 -126 51 -131 64 -3 9 128 703 161
853 3 13 21 31 43 42 20 11 50 33 66 50 17 17 39 31 50 31 12 0 208 -50 436
-110z m6304 80 c50 -26 70 -30 135 -30 54 0 89 6 120 20 24 11 51 20 61 20 20
0 720 -705 720 -725 0 -7 -8 -19 -17 -26 -9 -8 -29 -42 -45 -76 -20 -45 -34
-64 -51 -67 -46 -10 -3967 -327 -3999 -324 l-33 4 40 19 c105 49 2973 1214
2990 1214 11 1 47 -13 79 -29z m-6979 -70 c7 -12 -151 -828 -168 -859 -8 -16
-30 -29 -68 -41 -31 -9 -73 -29 -92 -44 -22 -17 -43 -25 -54 -22 -10 3 -106
43 -213 89 l-194 84 -38 63 c-21 35 -37 66 -36 70 2 5 183 157 403 338 395
327 438 357 460 322z m1180 -279 c25 -23 62 -45 85 -51 69 -18 152 3 194 49
11 12 26 21 34 21 17 0 1464 -808 1474 -823 9 -15 -9 -46 -35 -58 -15 -7 -456
2 -1401 28 l-1379 39 -23 27 c-13 15 -21 33 -18 40 7 17 996 766 1013 766 8 1
33 -17 56 -38z m6770 -635 c12 -18 14 -30 7 -43 -9 -16 -144 -149 -774 -762
l-78 -75 -47 23 c-114 56 -239 35 -334 -56 -31 -29 -63 -53 -73 -53 -29 0
-2731 641 -2740 650 -5 5 6 11 25 15 50 8 3863 322 3936 324 56 1 64 -2 78
-23z m827 -442 c249 -191 464 -357 477 -369 23 -22 23 -26 11 -70 -7 -25 -21
-50 -30 -55 -10 -5 -465 -35 -1010 -66 -965 -55 -993 -56 -1009 -38 -10 11
-26 39 -36 63 l-19 44 114 110 c63 61 256 248 428 415 l313 306 47 -14 c77
-22 132 -23 177 -1 22 11 50 20 62 20 15 1 180 -119 475 -345z m472 -589 c9
-9 21 -34 27 -56 11 -36 10 -42 -7 -58 -10 -10 -149 -139 -307 -286 -278 -258
-289 -267 -320 -260 -18 4 -62 9 -98 12 -69 5 -127 -14 -158 -51 -8 -9 -21
-16 -31 -16 -21 0 -1119 525 -1139 545 -20 19 -6 63 22 70 21 5 1837 111 1944
114 34 1 57 -4 67 -14z m228 -214 c20 -7 39 -20 42 -29 13 -43 246 -1133 246
-1150 0 -21 -51 -62 -78 -62 -18 0 -881 536 -914 569 -19 17 -51 124 -46 151
3 15 547 528 597 562 23 16 26 16 70 -6 25 -13 63 -29 83 -35z m-1732 -300
c309 -148 565 -272 568 -276 3 -3 9 -35 13 -70 4 -46 14 -77 33 -106 15 -22
26 -46 24 -54 -2 -7 -153 -135 -337 -285 l-333 -273 -47 16 c-25 10 -69 17
-97 17 -35 0 -58 6 -72 18 -14 12 -71 184 -201 612 -100 327 -181 600 -181
605 0 13 48 65 60 65 5 0 261 -121 570 -269z m1441 -727 c233 -146 430 -272
438 -279 21 -20 -2 -93 -32 -105 -27 -11 -1679 -153 -1725 -148 -30 3 -35 9
-58 63 -14 33 -27 65 -30 71 -3 7 152 140 345 298 l349 286 52 0 c63 0 111 19
162 65 31 29 42 33 57 25 11 -5 210 -129 442 -276z m447 -526 c31 -69 91 -130
150 -155 26 -11 62 -14 126 -12 l90 4 124 -190 c233 -360 372 -585 916 -1478
300 -493 546 -904 546 -915 0 -30 -23 -44 -46 -28 -212 143 -3703 2584 -3712
2595 -15 18 -8 59 13 80 10 10 222 32 832 86 450 40 844 73 875 74 l58 1 28
-62z"/>
</g>
</svg>
