<svg xmlns="http://www.w3.org/2000/svg" viewBox="0 0 512.001 512.001" style="max-width:100%" height="100%"><path d="M305.553 410.719h-38.799c-5.522 0-9.999 4.476-9.999 9.999 0 5.523 4.477 9.999 9.999 9.999h38.799c5.988 0 10.86 4.871 10.86 10.859 0 5.988-4.871 10.859-10.86 10.859H201.109c-15.7 0-30.464-6.922-40.504-18.992l-24.977-30.022c-13.402-16.11-32.907-25.545-53.777-26.142v-59.067h36.816c18.156 0 35.347 6.944 48.408 19.552l53.908 52.035c3.811 3.679 3.989 9.839.396 13.731-3.662 3.966-9.878 4.225-13.857.578l-42.323-38.796c-4.069-3.731-10.395-3.457-14.126.614-3.732 4.071-3.457 10.396.614 14.127l42.323 38.796c5.708 5.232 12.931 7.816 20.136 7.816 8.044 0 16.065-3.221 21.928-9.572 10.906-11.815 10.367-30.513-1.202-41.681l-53.908-52.035c-16.809-16.226-38.933-25.162-62.297-25.162H79.909c-3.762-8.904-12.585-15.169-22.843-15.169H9.999c-5.522 0-9.999 4.476-9.999 9.999v73.117c0 5.522 4.477 9.999 9.999 9.999s9.999-4.476 9.999-9.999v-63.119h37.069a4.792 4.792 0 0 1 4.787 4.787v80.143a4.792 4.792 0 0 1-4.787 4.787H46.682c-5.522 0-9.999 4.476-9.999 9.999 0 5.522 4.477 9.999 9.999 9.999h10.384c10.396 0 19.311-6.436 22.986-15.531 15.588.089 30.227 6.992 40.203 18.984l24.977 30.022c13.852 16.651 34.218 26.2 55.877 26.2h104.444c17.014 0 30.857-13.842 30.857-30.857s-13.843-30.857-30.857-30.857zM502.001 131.934c-5.522 0-9.999 4.476-9.999 9.999v67.025h-37.069a4.792 4.792 0 0 1-4.787-4.787v-80.143a4.792 4.792 0 0 1 4.787-4.787h9.651c5.522 0 9.999-4.476 9.999-9.999 0-5.522-4.477-9.999-9.999-9.999h-9.651c-10.396 0-19.311 6.436-22.986 15.531-15.588-.089-30.227-6.992-40.203-18.984l-24.977-30.021c-13.851-16.651-34.218-26.201-55.878-26.201H206.447c-17.014 0-30.857 13.842-30.857 30.856 0 17.014 13.843 30.856 30.857 30.856h42.708c5.522 0 9.999-4.476 9.999-9.999s-4.477-9.999-9.999-9.999h-42.708c-5.988 0-10.86-4.871-10.86-10.859 0-5.987 4.871-10.859 10.86-10.859H310.89c15.701 0 30.465 6.922 40.505 18.992l24.977 30.021c13.401 16.11 32.907 25.545 53.777 26.143v59.067h-36.816c-18.156 0-35.347-6.944-48.408-19.552L291.017 122.2c-3.811-3.679-3.989-9.838-.396-13.731 3.662-3.967 9.878-4.225 13.857-.578l42.324 38.796a9.999 9.999 0 1 0 13.512-14.741L317.99 93.151c-12.08-11.073-30.948-10.284-42.064 1.756-10.906 11.816-10.367 30.514 1.202 41.681l53.908 52.035c16.809 16.226 38.933 25.162 62.297 25.162h38.758c3.762 8.904 12.585 15.169 22.843 15.169h47.068c5.522 0 9.999-4.476 9.999-9.999v-77.024c-.001-5.521-4.478-9.997-10-9.997zM322.838 379.643c-2.274-5.032-8.184-7.277-13.212-5.004-5.064 2.205-7.38 8.097-5.175 13.159a10 10 0 0 0 9.172 6.009 9.965 9.965 0 0 0 3.987-.834l.215-.095c5.033-2.273 7.286-8.202 5.013-13.235zM347.693 362.809c-3.269-4.44-9.552-5.364-13.997-2.11-4.455 3.262-5.423 9.519-2.161 13.974a9.984 9.984 0 0 0 8.075 4.093c2.05 0 4.119-.628 5.899-1.931l.125-.092c4.429-3.28 5.327-9.496 2.059-13.934z" style="" fill="currentColor"></path><path d="M294.884 390.868c-1.139-5.385-6.426-8.833-11.816-7.719-5.384 1.069-8.904 6.284-7.872 11.684.916 4.79 5.107 8.123 9.81 8.123a10.062 10.062 0 0 0 2.183-.24c5.4-1.145 8.838-6.447 7.695-11.848zM368.581 341.061c-4.1-3.698-10.421-3.373-14.121.728l-.212.24c-3.608 4.181-3.142 10.495 1.039 14.102a9.957 9.957 0 0 0 6.526 2.428 9.977 9.977 0 0 0 7.512-3.394c3.682-4.101 3.351-10.411-.744-14.104zm-5.584 8.431l-1.112-1.006 1.204 1.086-.092-.08zM394.031 286.873c-5.284-1.603-10.874 1.412-12.477 6.697-1.624 5.278 1.338 10.873 6.616 12.497a9.969 9.969 0 0 0 2.943.445c4.274 0 8.231-2.762 9.553-7.061l.042-.137c1.602-5.285-1.393-10.839-6.677-12.441zM406.838 235.267a10.216 10.216 0 0 0-.073-.381c-1.129-5.404-6.425-8.861-11.827-7.734-5.383 1.122-8.844 6.386-7.76 11.768.917 4.771 5.098 8.11 9.806 8.11.585 0 1.179-.051 1.774-.158 5.436-.973 9.053-6.169 8.08-11.605zM397.668 256.962c-5.483-.484-10.353 3.581-10.838 9.081-.009.097-.023.294-.029.391-.324 5.513 3.881 10.245 9.394 10.569.2.012.398.018.596.018 5.206 0 9.581-4.026 9.964-9.269.456-5.48-3.602-10.306-9.087-10.79zM384.243 315.325c-4.8-2.721-10.906-1.035-13.628 3.77l-.139.25c-2.633 4.854-.856 10.967 3.997 13.6a10.02 10.02 0 0 0 4.789 1.221 9.918 9.918 0 0 0 8.743-5.2l-8.692-4.942 8.699 4.93c2.723-4.805 1.036-10.906-3.769-13.629zM202.895 124.9c-2.469-4.94-8.478-6.943-13.414-4.472l-.089.044c-4.94 2.47-6.897 8.453-4.427 13.392 1.749 3.499 5.293 5.513 8.967 5.513 1.514 0 3.05-.342 4.491-1.062 4.94-2.469 6.941-8.475 4.472-13.415zM231.822 116.563a9.996 9.996 0 0 0-12.308-7.302c-5.348 1.378-8.587 6.835-7.21 12.182a9.99 9.99 0 0 0 9.659 7.511c.824 0 1.662-.103 2.498-.318 5.366-1.301 8.662-6.706 7.361-12.073zM176.456 139.319c-3.458-4.297-9.754-4.972-14.056-1.522l6.199 7.845-6.229-7.822c-4.32 3.44-5.033 9.73-1.594 14.05a9.984 9.984 0 0 0 7.83 3.771 9.963 9.963 0 0 0 6.222-2.177l.132-.106c4.29-3.465 4.954-9.742 1.496-14.039zM123.143 210.461c-5.328-1.452-10.824 1.687-12.277 7.015-.025.091-.073.28-.096.372-1.3 5.365 1.996 10.76 7.36 12.063.792.192 1.584.284 2.364.284 4.486 0 8.562-3.044 9.698-7.581 1.371-5.288-1.762-10.711-7.049-12.153zM116.773 239.84c-5.527-.307-10.241 3.892-10.561 9.404-.008.129-.013.257-.017.385-.162 5.517 4.179 10.114 9.697 10.279.102.003.202.005.303.005 5.36 0 9.789-4.253 9.987-9.637.25-5.459-3.938-10.118-9.409-10.436zM135.727 183.136c-4.891-2.566-10.934-.681-13.499 4.209l-.163.322c-2.437 4.953-.393 10.935 4.559 13.374a9.932 9.932 0 0 0 4.404 1.029c3.672 0 7.207-2.032 8.959-5.532 2.49-4.873.598-10.853-4.26-13.402zM153.785 159.079c-4.249-3.527-10.553-2.942-14.08 1.306l-.206.254c-3.428 4.327-2.695 10.605 1.63 14.035a9.943 9.943 0 0 0 6.202 2.163 9.997 9.997 0 0 0 7.816-3.746c3.464-4.247 2.864-10.503-1.362-14.012zM128.073 278.028c-.973-5.436-6.172-9.053-11.605-8.079-5.436.974-9.053 6.169-8.08 11.605l.018.098c.866 4.833 5.063 8.19 9.804 8.19.591 0 1.19-.052 1.792-.16 5.436-.973 9.045-6.218 8.071-11.654zM290.332 202.125c-13.015 0-25.074 5.367-33.667 14.424-8.594-9.057-20.652-14.424-33.667-14.424-25.603 0-46.432 20.829-46.432 46.432 0 13.815 6.093 26.817 16.715 35.673.064.054.13.107.196.16l56.981 45.112a9.977 9.977 0 0 0 6.206 2.159 9.98 9.98 0 0 0 6.23-2.178l59.395-47.31a9.9 9.9 0 0 0 .831-.741c8.799-8.775 13.644-20.45 13.644-32.875 0-25.603-20.829-46.432-46.432-46.432zm19.028 64.783l-52.713 41.988-50.65-40.099a26.383 26.383 0 0 1-9.433-20.238c-.001-14.577 11.858-26.436 26.434-26.436a26.37 26.37 0 0 1 24.43 16.327 10 10 0 0 0 18.474 0 26.37 26.37 0 0 1 24.43-16.327c14.576 0 26.435 11.859 26.435 26.435 0 6.902-2.627 13.398-7.407 18.35z" style="" fill="currentColor"></path><circle cx="9.999" cy="402.76" r="9.964" style="" fill="currentColor"></circle><circle cx="502" cy="109.24" r="9.964" style="" fill="currentColor"></circle></svg>
