<svg xmlns="http://www.w3.org/2000/svg" width="18" height="18" viewBox="0 0 633.566 633.566">
  <path id="cut-solid" d="M278.06,256,444.48,89.57a11.993,11.993,0,0,0,0-16.97,84,84,0,0,0-118.79,0L210.18,188.12l-24.86-24.86a96,96,0,1,0-75.96,59.81L142.29,256l-32.93,32.93a95.895,95.895,0,1,0,75.96,59.81l24.86-24.86L325.69,439.4a84,84,0,0,0,118.79,0,11.993,11.993,0,0,0,0-16.97ZM96,160a32,32,0,1,1,32-32A32.042,32.042,0,0,1,96,160Zm0,256a32,32,0,1,1,32-32A32.042,32.042,0,0,1,96,416Z" transform="translate(656.193 339.411) rotate(135)" fill="#f1f1f1"/>
</svg>
