<svg xmlns="http://www.w3.org/2000/svg" width="19" height="19" viewBox="0 0 699.176 699.238">
  <g id="Union_2" data-name="Union 2" transform="translate(-48.798 -4.764)">
    <path d="M 100.725471496582 686.50244140625 L 100.7087707519531 686.50244140625 L 100.6920700073242 686.50244140625 L 100.6654663085938 686.50244140625 C 91.48126983642578 686.5029296875 82.84546661376953 682.9205322265625 76.34967041015625 676.4151611328125 C 69.85376739501953 669.9095458984375 66.28396606445312 661.2677612304688 66.29807281494141 652.0816650390625 L 66.59056854248047 498.2418518066406 C 66.62017059326172 479.2586669921875 82.11966705322266 463.8097534179688 101.1415710449219 463.8097534179688 C 110.2140655517578 463.8097534179688 118.7938690185547 467.3927612304688 125.3003692626953 473.8987426757812 L 278.9003601074219 627.4996337890625 C 288.748779296875 637.3470458984375 291.6726684570312 652.0335693359375 286.3487548828125 664.9146728515625 C 281.0108642578125 677.8296508789062 268.5293579101562 686.1881713867188 254.5505676269531 686.2090454101562 L 100.725471496582 686.50244140625 Z M 409.798583984375 619.8700561523438 C 409.7969665527344 619.8700561523438 409.7969665527344 619.8700561523438 409.7969665527344 619.8700561523438 C 401.913818359375 619.870361328125 394.5044250488281 616.8016357421875 388.9333801269531 611.228759765625 C 383.3642578125 605.6580810546875 380.2972717285156 598.2503662109375 380.2972717285156 590.370361328125 L 380.2906188964844 372.5099182128906 L 162.4287719726562 372.5032653808594 C 154.5410766601562 372.5032653808594 147.1273651123047 369.4304504394531 141.5538635253906 363.8508605957031 C 135.9838714599609 358.2748413085938 132.9210662841797 350.8644409179688 132.9296722412109 342.9845581054688 C 132.9296722412109 287.0379638671875 178.4613647460938 241.5065460205078 234.4274749755859 241.5065460205078 L 380.2900695800781 241.5121765136719 L 380.2900695800781 234.6741943359375 C 371.3390502929688 229.6284484863281 363.1199951171875 223.3818969726562 355.7591552734375 216.0203552246094 C 334.3220825195312 194.5837554931641 322.5156555175781 166.0814514160156 322.5156555175781 135.7646484375 C 322.5156555175781 105.44775390625 334.3220825195312 76.94544982910156 355.7599792480469 55.50805282592773 C 377.1970825195312 34.07045364379883 405.6993713378906 22.26405143737793 436.0162658691406 22.26405143737793 C 466.3330688476562 22.26405143737793 494.8353576660156 34.07045364379883 516.2727661132812 55.50835037231445 C 537.7103881835938 76.94544982910156 549.5167846679688 105.44775390625 549.5167846679688 135.7646484375 C 549.5167846679688 166.0814514160156 537.7103881835938 194.5837554931641 516.2724609375 216.0211486816406 C 514.666748046875 217.6268920898438 513.004150390625 219.1917419433594 511.2939758300781 220.7076263427734 L 511.2939758300781 241.5065460205078 L 532.0913696289062 241.5065460205078 C 533.6074829101562 239.7959747314453 535.172607421875 238.1330108642578 536.7788696289062 236.5267486572266 C 558.216552734375 215.0895538330078 586.718994140625 203.2835540771484 617.0354614257812 203.2835540771484 C 647.35205078125 203.2835540771484 675.8544921875 215.0895538330078 697.2922973632812 236.52685546875 C 741.5452880859375 280.7808532714844 741.5452880859375 352.786865234375 697.2925415039062 397.0405578613281 C 675.8544921875 418.4781494140625 647.35205078125 430.2841491699219 617.0354614257812 430.2841491699219 C 586.718994140625 430.2841491699219 558.216552734375 418.4781494140625 536.7788696289062 397.0408630371094 C 529.4168090820312 389.6781311035156 523.1708374023438 381.4595336914062 518.1261596679688 372.5104370117188 L 511.2875366210938 372.5104370117188 L 511.2939758300781 518.3721313476562 C 511.2939758300781 574.338623046875 465.7625732421875 619.8700561523438 409.7969665527344 619.8700561523438 L 409.798583984375 619.8700561523438 Z M 617.0355834960938 302.3011474609375 C 613.1509399414062 302.3011474609375 609.5094604492188 303.8032531738281 606.7817993164062 306.5308532714844 C 601.1289672851562 312.1839599609375 601.1289672851562 321.3837585449219 606.7825927734375 327.0377502441406 C 609.5093994140625 329.7643432617188 613.1509399414062 331.2664489746094 617.0355834960938 331.2664489746094 C 620.920166015625 331.2664489746094 624.561767578125 329.7643432617188 627.2894897460938 327.036865234375 C 632.9421997070312 321.3837585449219 632.9421997070312 312.1839599609375 627.28857421875 306.5299377441406 C 624.5616455078125 303.8032531738281 620.920166015625 302.3011474609375 617.0355834960938 302.3011474609375 Z M 436.0162658691406 121.2823486328125 C 432.1317749023438 121.2823486328125 428.4905700683594 122.7843551635742 425.7632751464844 125.5116500854492 C 420.1097717285156 131.1651458740234 420.1097717285156 140.3640594482422 425.7632751464844 146.0175476074219 C 428.490478515625 148.7448577880859 432.1317749023438 150.2467498779297 436.0162658691406 150.2467498779297 C 439.9006652832031 150.2467498779297 443.5419616699219 148.7448577880859 446.2691650390625 146.0175476074219 C 451.9226684570312 140.3640594482422 451.9226684570312 131.1651458740234 446.2691650390625 125.5116500854492 C 443.5419616699219 122.7842483520508 439.9007568359375 121.2823486328125 436.0162658691406 121.2823486328125 Z" stroke="none"/>
    <path d="M 100.6920700073242 669.0025024414062 L 254.5245208740234 668.7090454101562 C 269.5914001464844 668.6865234375 277.1522827148438 650.4993896484375 266.5259704589844 639.8739624023438 L 112.926628112793 486.2736206054688 C 102.3002853393555 475.6482543945312 84.11406707763672 483.2091674804688 84.09062194824219 498.2751770019531 L 83.79807281494141 652.1085205078125 C 83.78372192382812 661.4352416992188 91.37947845458984 669.0137939453125 100.6920700073242 669.0025024414062 M 409.7969665527344 602.3700561523438 C 456.1830749511719 602.3700561523438 493.7939453125 564.759033203125 493.7939453125 518.3729248046875 L 493.7868347167969 355.0103759765625 L 528.9443969726562 355.0103759765625 C 533.6180419921875 365.7789306640625 540.35009765625 375.8624877929688 549.153076171875 384.666259765625 C 586.644287109375 422.15673828125 647.4267578125 422.15673828125 684.9180908203125 384.666259765625 C 722.4085083007812 347.175048828125 722.4085083007812 286.3926086425781 684.9180908203125 248.9012756347656 C 647.4267578125 211.4109497070312 586.644287109375 211.4109497070312 549.153076171875 248.9012756347656 C 545.9498291015625 252.1043853759766 543.0221557617188 255.4848327636719 540.3636474609375 259.0065002441406 L 493.7939453125 259.0065002441406 L 493.7939453125 212.4360504150391 C 497.3148498535156 209.7773895263672 500.6880798339844 206.85693359375 503.8982849121094 203.6466064453125 C 541.3896484375 166.1561584472656 541.3896484375 105.3729400634766 503.8982849121094 67.88249969482422 C 466.4078674316406 30.39127349853516 405.6246032714844 30.39127349853516 368.1341857910156 67.88249969482422 C 330.6429443359375 105.3729400634766 330.6429443359375 166.1561584472656 368.1341857910156 203.6466064453125 C 376.9370727539062 212.4503784179688 387.0207214355469 219.1815032958984 397.7900695800781 223.8561706542969 L 397.7900695800781 259.0128173828125 L 234.4275207519531 259.0065002441406 C 188.0406188964844 259.0065002441406 150.4296264648438 296.6174926757812 150.4296264648438 343.0035095214844 C 150.4224090576172 349.6292724609375 155.7971801757812 355.003173828125 162.4292907714844 355.003173828125 L 397.7900695800781 355.0103759765625 L 397.7973022460938 590.3703002929688 C 397.7973022460938 596.999267578125 403.1635131835938 602.3707275390625 409.7837219238281 602.3700561523438 C 409.7877502441406 602.3700561523438 409.79296875 602.3700561523438 409.7969665527344 602.3700561523438 M 617.0355224609375 284.8011779785156 C 625.23095703125 284.8011779785156 633.42626953125 287.9194946289062 639.6632690429688 294.1560668945312 C 652.1364135742188 306.6300659179688 652.1364135742188 326.9376220703125 639.6632690429688 339.41162109375 C 627.1892700195312 351.8847045898438 606.8817138671875 351.8847045898438 594.40771484375 339.41162109375 C 581.9346313476562 326.9376220703125 581.9346313476562 306.6300659179688 594.40771484375 294.1560668945312 C 600.6447143554688 287.9194946289062 608.840087890625 284.8011779785156 617.0355224609375 284.8011779785156 M 436.0162963867188 103.7823867797852 C 444.2116394042969 103.7823867797852 452.4070739746094 106.9007186889648 458.6436157226562 113.1372756958008 C 471.1167297363281 125.6102752685547 471.1167297363281 145.9188232421875 458.6436157226562 158.3919372558594 C 446.1705932617188 170.8650360107422 425.8620300292969 170.8650817871094 413.3889465332031 158.3919372558594 C 400.9158325195312 145.9188232421875 400.9158325195312 125.6102752685547 413.3889465332031 113.1372756958008 C 419.6255187988281 106.9007186889648 427.8208618164062 103.7823867797852 436.0162963867188 103.7823867797852 M 100.7254028320312 704.0025024414062 L 100.6655120849609 704.0025024414062 C 86.80240631103516 704.003173828125 73.76829528808594 698.5970458984375 63.96595764160156 688.7801513671875 C 54.16351318359375 678.9630737304688 48.77673721313477 665.92041015625 48.79806900024414 652.0546264648438 L 49.09073638916016 498.2086181640625 C 49.13529205322266 469.5968322753906 72.48518371582031 446.3097229003906 101.1416244506836 446.3097229003906 C 114.88818359375 446.3097229003906 127.8622894287109 451.7128295898438 137.6741790771484 461.5237121582031 L 291.2747497558594 615.125244140625 C 306.1416320800781 629.990966796875 310.5568542480469 652.15869140625 302.521728515625 671.5993041992188 C 294.4727478027344 691.0736083984375 275.6532897949219 703.677490234375 254.5769653320312 703.7090454101562 L 100.7254028320312 704.0025024414062 Z M 409.8005065917969 637.3700561523438 C 409.7982177734375 637.3699951171875 409.7969665527344 637.3699951171875 409.7969665527344 637.3700561523438 C 397.2388000488281 637.3700561523438 385.4334411621094 632.4804077148438 376.5570678710938 623.6012573242188 C 367.6839599609375 614.7254028320312 362.7973022460938 602.9237060546875 362.7973022460938 590.3703002929688 L 362.7911376953125 390.0093078613281 L 162.4281768798828 390.003173828125 C 149.8629608154297 390.003173828125 138.0521850585938 385.1076049804688 129.1726226806641 376.2183837890625 C 120.2966232299805 367.3327331542969 115.4159545898438 355.5232849121094 115.4296264648438 342.9653930664062 C 115.4296264648438 277.3882751464844 168.8118438720703 224.0065002441406 234.4275207519531 224.0065002441406 L 339.1941833496094 224.0105590820312 C 317.1092834472656 199.8321533203125 305.0157470703125 168.7269134521484 305.0157470703125 135.7646026611328 C 305.0157470703125 100.7732772827148 318.6425170898438 67.87627410888672 343.3857421875 43.13349533081055 C 368.1279602050781 18.39071846008301 401.0250549316406 4.764051914215088 436.0162963867188 4.764051914215088 C 471.0075073242188 4.764051914215088 503.9045104980469 18.39071846008301 528.6472778320312 43.13394165039062 C 553.3900756835938 67.87615966796875 567.016845703125 100.7731628417969 567.016845703125 135.7646026611328 C 567.016845703125 161.1965484619141 559.8193969726562 185.5207977294922 546.3865356445312 206.4134368896484 C 567.2792358398438 192.9810638427734 591.60400390625 185.7834930419922 617.0355224609375 185.7834930419922 C 652.0263061523438 185.7834930419922 684.9232788085938 199.4097137451172 709.6663818359375 224.1521606445312 C 760.7428588867188 275.2298278808594 760.7428588867188 358.3379516601562 709.6670532226562 409.4147338867188 C 684.9234008789062 434.1578369140625 652.0264282226562 447.7841491699219 617.0355224609375 447.7841491699219 C 584.0736083984375 447.7841491699219 552.9693603515625 435.69189453125 528.7893676757812 413.6062927246094 L 528.7939453125 518.3713989257812 C 528.7939453125 583.9881591796875 475.4121704101562 637.3700561523438 409.7969665527344 637.3700561523438 L 409.8005065917969 637.3700561523438 Z" stroke="none" fill="#f1f1f1"/>
  </g>
</svg>
