<?xml version="1.0" encoding="UTF-8" standalone="no"?>
<svg
   xmlns:dc="http://purl.org/dc/elements/1.1/"
   xmlns:cc="http://creativecommons.org/ns#"
   xmlns:rdf="http://www.w3.org/1999/02/22-rdf-syntax-ns#"
   xmlns:svg="http://www.w3.org/2000/svg"
   xmlns="http://www.w3.org/2000/svg"
   xmlns:sodipodi="http://sodipodi.sourceforge.net/DTD/sodipodi-0.dtd"
   xmlns:inkscape="http://www.inkscape.org/namespaces/inkscape"
   version="1.1"
   id="Your_Icon"
   x="0px"
   y="0px"
   width="100px"
   height="100px"
   viewBox="0 0 100 100"
   enable-background="new 0 0 100 100"
   xml:space="preserve"
   inkscape:version="0.91 r13725"
   sodipodi:docname="eye.svg"><metadata
     id="metadata4267"><rdf:RDF><cc:Work
         rdf:about=""><dc:format>image/svg+xml</dc:format><dc:type
           rdf:resource="http://purl.org/dc/dcmitype/StillImage" /></cc:Work></rdf:RDF></metadata><defs
     id="defs4265" /><sodipodi:namedview
     pagecolor="#ffffff"
     bordercolor="#666666"
     borderopacity="1"
     objecttolerance="10"
     gridtolerance="10"
     guidetolerance="10"
     inkscape:pageopacity="0"
     inkscape:pageshadow="2"
     inkscape:window-width="693"
     inkscape:window-height="480"
     id="namedview4263"
     showgrid="false"
     inkscape:zoom="2.36"
     inkscape:cx="50"
     inkscape:cy="50"
     inkscape:window-x="0"
     inkscape:window-y="0"
     inkscape:window-maximized="0"
     inkscape:current-layer="Your_Icon" /><g
     id="g4253"><g
       id="g4255"><g
         id="g4257" /></g><g
       id="g4259" /></g><path
     d="M96.684,48.698c-0.694-0.81-14.369-16.507-33.309-22.21c-4.142-1.351-8.501-2.043-13.009-2.043c-0.007,0-0.014,0-0.021,0  c-0.116-0.001-0.229-0.01-0.346-0.01c-25.571,0-45.834,23.272-46.684,24.263c-0.643,0.749-0.643,1.855,0,2.605  C4.165,52.293,24.428,75.564,50,75.564c25.571,0,45.834-23.271,46.684-24.262C97.327,50.553,97.327,49.447,96.684,48.698z   M64.817,31.273c3.088,3.562,4.783,8.103,4.783,12.835c0,10.808-8.793,19.601-19.601,19.601s-19.602-8.793-19.602-19.601  c0-4.719,1.687-9.25,4.759-12.805c1.487-0.617,7.426-2.859,15.209-2.859c0,0,0.001,0,0.001,0c4.511,0.044,8.872,0.901,12.98,2.261  C63.841,30.886,64.332,31.071,64.817,31.273z M50,71.564C29.625,71.564,12.183,54.85,7.552,50  c2.877-3.013,10.7-10.603,21.097-15.922c-1.462,3.111-2.25,6.524-2.25,10.03c0,13.015,10.587,23.601,23.602,23.601  s23.601-10.586,23.601-23.601c0-3.507-0.789-6.919-2.251-10.031c10.398,5.319,18.223,12.911,21.099,15.923  C87.824,54.853,70.407,71.564,50,71.564z M50,34.291c5.423,0,9.819,4.396,9.819,9.818c0,5.423-4.396,9.819-9.819,9.819  c-5.422,0-9.819-4.396-9.819-9.819C40.181,38.687,44.577,34.291,50,34.291z"
     id="path4261"
     style="opacity:0.71;fill:#108ee9;fill-opacity:1" /></svg>