<svg xmlns="http://www.w3.org/2000/svg" width="21" height="20" viewBox="0 0 769.298 735.482">
  <g id="Union_2" data-name="Union 2" transform="translate(30 30)">
    <path d="M 645.2982788085938 690.482421875 C 601.737060546875 690.482421875 566.29736328125 655.043212890625 566.29736328125 611.4825439453125 C 566.29736328125 589.5991821289062 584.3179321289062 550.309326171875 619.8585815429688 494.7041015625 C 625.5570678710938 485.9228820800781 635.0459594726562 480.732666015625 645.2978515625 480.732666015625 C 655.5496215820312 480.732666015625 665.0385131835938 485.9228820800781 670.6804809570312 494.6164245605469 C 706.277587890625 550.309326171875 724.2981567382812 589.5991821289062 724.2981567382812 611.4825439453125 C 724.2981567382812 655.043212890625 688.8589477539062 690.482421875 645.2982788085938 690.482421875 Z M 349.2977294921875 688.0076293945312 C 319.6418151855469 688.0076293945312 291.7609558105469 676.458984375 270.7910461425781 655.489013671875 L 153.31982421875 537.9871826171875 C 110.0396041870117 494.6997680664062 110.0396041870117 424.2651062011719 153.3203887939453 380.9772033691406 L 234.7487640380859 298.7254638671875 L 194.151611328125 258.8087768554688 C 175.7466125488281 240.3899841308594 175.7469482421875 210.5744323730469 194.0581665039062 192.2514343261719 C 202.9416046142578 183.3705444335938 214.7448272705078 178.4822082519531 227.2981567382812 178.4822082519531 C 239.8516082763672 178.4822082519531 251.6548309326172 183.3705444335938 260.5332641601562 192.2465515136719 L 301.2993774414062 233.0111389160156 L 343.7929382324219 190.5341033935547 C 360.2112731933594 174.1036529541016 382.0562744140625 165.0517730712891 405.2978210449219 165.0517730712891 C 428.5393981933594 165.0517730712891 450.3841552734375 174.103759765625 466.8080444335938 190.5402069091797 L 618.2061767578125 341.9769897460938 C 634.6700439453125 358.3830871582031 643.748046875 380.2335510253906 643.7479248046875 403.4832153320312 C 643.7477416992188 426.732421875 634.6696166992188 448.5822143554688 618.1859130859375 465.0075378417969 L 427.8070373535156 655.4862060546875 C 406.8343811035156 676.458984375 378.9534912109375 688.0076293945312 349.2977294921875 688.0076293945312 Z M 230.7938537597656 436.4823303222656 L 513.7946166992188 436.4823303222656 L 546.8792114257812 403.4756469726562 L 405.3013610839844 261.9087219238281 L 367.7913208007812 299.4837951660156 L 406.5148315429688 338.2865295410156 C 415.3827209472656 347.1544189453125 420.2724914550781 358.9475402832031 420.2724914550781 371.4825439453125 C 420.2724914550781 384.0177612304688 415.3825988769531 395.8107604980469 406.5036010742188 404.6890869140625 C 397.6260375976562 413.5673217773438 385.8331604003906 418.4572143554688 373.2978210449219 418.4572143554688 C 360.7628173828125 418.4572143554688 348.9697265625 413.5674438476562 340.091064453125 404.6886596679688 L 301.3071899414062 365.9840393066406 L 230.7938537597656 436.4823303222656 Z M 118.6318283081055 252.6578826904297 C 105.8383865356445 252.6585388183594 93.76982879638672 247.6358795166016 84.64938354492188 238.5153198242188 C 75.52138519287109 229.3874359130859 70.49983215332031 217.2556610107422 70.50994110107422 204.3548736572266 L 70.48102569580078 167.1554718017578 L 33.28438568115234 167.1188812255859 C 20.32516288757324 167.1197662353516 8.236051559448242 162.1019897460938 -0.8757258653640747 152.9902038574219 C -10.03039264678955 143.8356628417969 -15.04650402069092 131.6811065673828 -14.99983692169189 118.7656555175781 C -14.99994850158691 92.18954467773438 6.665274143218994 70.52432250976562 33.29549789428711 70.52432250976562 L 70.55155944824219 70.52495574951172 L 70.52527618408203 33.30609893798828 C 70.52527618408203 6.665321826934814 92.19016265869141 -15.0000114440918 118.8198318481445 -15.0000114440918 C 145.4500579833984 -15.0000114440918 167.1152801513672 6.665321826934814 167.1152801513672 33.2955436706543 L 167.0755157470703 70.58010101318359 L 204.3261566162109 70.58010101318359 C 230.9563903808594 70.58010101318359 252.6216125488281 92.24498748779297 252.6216125488281 118.8746566772461 C 252.6216125488281 145.5048828125 230.9563903808594 167.1702117919922 204.3261566162109 167.1702117919922 L 167.0597534179688 167.1702117919922 L 167.0603790283203 204.3627624511719 C 167.0603790283203 230.9927673339844 145.3951568603516 252.6576538085938 118.7649383544922 252.6576538085938 L 118.6310501098633 237.6578826904297 L 118.6318283081055 252.6578826904297 Z" stroke="none"/>
    <path d="M 645.2982788085938 675.4823608398438 C 680.5980224609375 675.4823608398438 709.2981567382812 646.7822875976562 709.2981567382812 611.4824829101562 C 709.2981567382812 586.2825317382812 676.6974487304688 531.8820190429688 658.0980224609375 502.7822570800781 C 651.9978637695312 493.3828735351562 638.5977172851562 493.3827514648438 632.49755859375 502.7822570800781 C 613.8981323242188 531.8820190429688 581.2974243164062 586.2825317382812 581.2974243164062 611.4824829101562 C 581.2974243164062 646.7822875976562 609.99755859375 675.4823608398438 645.2982788085938 675.4823608398438 M 349.2976684570312 673.0076904296875 C 373.8726196289062 673.0076904296875 398.4475708007812 663.6326293945312 417.1976928710938 644.8823852539062 L 607.59814453125 454.3821411132812 C 635.7977905273438 426.2822570800781 635.7977905273438 380.6829833984375 607.59814453125 352.582275390625 L 456.1974487304688 201.1428527832031 C 428.0975341796875 173.021484375 382.4981384277344 173.0214233398438 354.3975524902344 201.1428527832031 L 301.2975769042969 254.2221527099609 L 249.9282684326172 202.8546295166016 C 237.4281616210938 190.358154296875 217.1682891845703 190.3581237792969 204.6681518554688 202.8546295166016 C 192.1779174804688 215.3528594970703 192.1779174804688 235.6128540039062 204.6681518554688 248.1128540039062 L 255.997802734375 298.582275390625 L 163.9277954101562 391.5828552246094 C 126.4347381591797 429.082275390625 126.4347381591797 489.8826293945312 163.9277954101562 527.3820190429688 L 281.3975524902344 644.8823852539062 C 300.1477966308594 663.6326293945312 324.7227478027344 673.0076904296875 349.2976684570312 673.0076904296875 M 301.2975769042969 344.7828674316406 L 350.6975708007812 394.0821533203125 C 363.1976928710938 406.582275390625 383.3982849121094 406.582275390625 395.8974304199219 394.0821533203125 C 408.3975524902344 381.5829772949219 408.3975524902344 361.3823852539062 395.8974304199219 348.8822631835938 L 346.59814453125 299.4821472167969 L 399.59814453125 246.3921508789062 C 402.7976684570312 243.2727355957031 407.7981567382812 243.2727355957031 410.9976806640625 246.3921508789062 L 562.3974609375 397.7828674316406 C 565.4979248046875 400.9823913574219 565.4979248046875 405.9828491210938 562.3974609375 409.1822814941406 L 519.99755859375 451.4822692871094 L 200.8179168701172 451.4822692871094 C 202.1975555419922 446.082275390625 204.9875640869141 441.0828552246094 209.1780395507812 436.8825073242188 L 301.2975769042969 344.7828674316406 M 118.630973815918 237.6579132080078 C 118.6750946044922 237.6579132080078 118.7207412719727 237.6578063964844 118.7648544311523 237.6575622558594 C 137.1600341796875 237.6575622558594 152.0603790283203 222.7581481933594 152.0603790283203 204.3629760742188 L 152.0595550537109 152.1701507568359 L 204.3261566162109 152.1701507568359 C 222.7212066650391 152.1701507568359 237.6215667724609 137.2698059082031 237.6215667724609 118.8747406005859 C 237.6215667724609 100.4795608520508 222.7212066650391 85.58015441894531 204.3261566162109 85.58015441894531 L 152.0595550537109 85.58015441894531 L 152.1153259277344 33.29556274414062 C 152.1153259277344 14.90038776397705 137.2148590087891 3.446691334829666e-05 118.8197937011719 3.446691334829666e-05 C 100.4247360229492 3.446691334829666e-05 85.52520751953125 14.90038776397705 85.52520751953125 33.29556274414062 L 85.56214904785156 85.52520751953125 L 33.29556274414062 85.52426910400391 C 14.9003849029541 85.52426910400391 3.231273149140179e-05 100.4247436523438 3.231273149140179e-05 118.8198013305664 C -0.03326180577278137 128.0574493408203 3.705326318740845 136.358154296875 9.730855941772461 142.3835601806641 C 15.75720977783203 148.4100494384766 24.064697265625 152.158447265625 33.29909133911133 152.1188507080078 L 85.46944427490234 152.1701507568359 L 85.50991821289062 204.3666229248047 C 85.50273895263672 213.5565032958984 89.22238159179688 221.8752136230469 95.25603485107422 227.9088592529297 C 101.2605056762695 233.913330078125 109.5222702026367 237.6582641601562 118.630973815918 237.6579132080078 M 645.2982788085938 705.4823608398438 C 593.4660034179688 705.4823608398438 551.2974243164062 663.3142700195312 551.2974243164062 611.4824829101562 C 551.2974243164062 602.4256591796875 551.2951049804688 580.0774536132812 590.2278442382812 514.1989135742188 L 438.4163818359375 666.0900268554688 C 414.60791015625 689.8987426757812 382.9602661132812 703.0076904296875 349.2976684570312 703.0076904296875 C 315.6352233886719 703.0076904296875 283.9874572753906 689.8987426757812 260.1843872070312 666.0955810546875 L 142.7117919921875 548.592529296875 C 93.585205078125 499.4574584960938 93.585205078125 419.5074462890625 142.7127380371094 370.3714599609375 L 213.4996643066406 298.8686828613281 L 183.6349792480469 269.5045166015625 C 176.2140350341797 262.0782775878906 171.0557098388672 253.2611083984375 168.1544036865234 243.9058532714844 C 156.5446319580078 258.3775024414062 138.7184906005859 267.6575622558594 118.7648544311523 267.6575622558594 L 118.630973815918 237.6579132080078 L 118.6321487426758 267.6579284667969 C 101.831916809082 267.6586303710938 85.99650573730469 261.0758056640625 74.04285430908203 249.1220397949219 C 62.0785026550293 237.1576843261719 55.49673843383789 221.2549743652344 55.50991439819336 204.3432159423828 L 55.49268341064453 182.1407012939453 L 33.26956176757812 182.1188507080078 C 16.31767845153809 182.1193237304688 0.4619146585464478 175.5412139892578 -11.48255634307861 163.5965118408203 C -23.48443794250488 151.5948638916016 -30.060791015625 135.6542663574219 -29.99973297119141 118.7116851806641 C -29.99996757507324 83.91850280761719 -1.605732440948486 55.52426910400391 33.29556274414062 55.52426910400391 L 55.54091644287109 55.5246696472168 L 55.52520751953125 33.31674194335938 C 55.52520751953125 -1.605730295181274 83.91909027099609 -29.99996566772461 118.8197937011719 -29.99996566772461 C 153.7210845947266 -29.99996566772461 182.1153259277344 -1.605730295181274 182.1153259277344 33.29556274414062 L 182.0915679931641 55.58015060424805 L 204.3261566162109 55.58015060424805 C 239.2273254394531 55.58015060424805 267.6215515136719 83.97403717041016 267.6215515136719 118.8747406005859 C 267.6215515136719 137.7760009765625 259.2958068847656 154.7669982910156 246.1166687011719 166.3748626708984 C 255.4553375244141 169.3360748291016 264.0110778808594 174.5130462646484 271.1384887695312 181.6383819580078 L 301.3013610839844 211.8002777099609 L 333.1885070800781 179.9255676269531 C 352.4343872070312 160.6654510498047 378.0475769042969 150.0518035888672 405.2977905273438 150.0518035888672 C 432.5482788085938 150.0518035888672 458.1613159179688 160.6655578613281 477.4188537597656 179.9378051757812 L 628.8140258789062 331.3717956542969 C 648.1032104492188 350.5930786132812 658.748046875 376.2169799804688 658.7479248046875 403.4832153320312 C 658.7477416992188 426.6435546875 651.066650390625 448.6191711425781 636.9072875976562 466.5162353515625 C 639.6448364257812 465.9989318847656 642.4518432617188 465.7326354980469 645.2977905273438 465.7326354980469 C 660.6510620117188 465.7326354980469 674.8436889648438 473.4775695800781 683.2628784179688 486.4503784179688 C 739.2981567382812 574.1192016601562 739.2981567382812 601.263671875 739.2981567382812 611.4824829101562 C 739.2981567382812 663.3142700195312 697.1300048828125 705.4823608398438 645.2982788085938 705.4823608398438 Z M 409.9176025390625 421.4822692871094 L 507.5918884277344 421.4822692871094 L 525.6543579101562 403.4623718261719 L 405.3103942871094 283.1298522949219 L 388.984130859375 299.4850463867188 L 417.1322631835938 327.6907348632812 C 428.822509765625 339.3809814453125 435.2724914550781 354.9408569335938 435.2724914550781 371.4826354980469 C 435.2724914550781 388.0247497558594 428.822265625 403.5846252441406 417.1098022460938 415.296142578125 C 414.8492126464844 417.5569458007812 412.4445495605469 419.6221313476562 409.9176025390625 421.4822692871094 Z M 267.0126342773438 421.4822692871094 L 336.6781005859375 421.4822692871094 C 334.15087890625 419.6220092773438 331.7454223632812 417.5563659667969 329.484375 415.2953186035156 L 301.3169555664062 387.1853637695312 L 267.0126342773438 421.4822692871094 Z M 182.0600280761719 182.1701507568359 L 182.0600433349609 183.0820770263672 C 182.3476257324219 182.7754211425781 182.6376647949219 182.4722747802734 182.9326477050781 182.1701507568359 L 182.0600280761719 182.1701507568359 Z" stroke="none" fill="#f1f1f1"/>
  </g>
</svg>
