<?xml version="1.0" encoding="UTF-8" standalone="no"?>
<svg
   viewBox="64 64 200 200"
   version="1.1"
   id="svg4"
   sodipodi:docname="folder_thumbnail.svg"
   width="200"
   height="200"
   inkscape:version="1.1.2 (0a00cf5339, 2022-02-04)"
   xmlns:inkscape="http://www.inkscape.org/namespaces/inkscape"
   xmlns:sodipodi="http://sodipodi.sourceforge.net/DTD/sodipodi-0.dtd"
   xmlns="http://www.w3.org/2000/svg"
   xmlns:svg="http://www.w3.org/2000/svg">
  <defs
     id="defs8" />
  <sodipodi:namedview
     id="namedview6"
     pagecolor="#ffffff"
     bordercolor="#666666"
     borderopacity="1.0"
     inkscape:pageshadow="2"
     inkscape:pageopacity="0.0"
     inkscape:pagecheckerboard="0"
     showgrid="false"
     inkscape:snap-global="false"
     inkscape:zoom="1.4142136"
     inkscape:cx="112.07642"
     inkscape:cy="172.1805"
     inkscape:window-width="1920"
     inkscape:window-height="1064"
     inkscape:window-x="0"
     inkscape:window-y="30"
     inkscape:window-maximized="1"
     inkscape:current-layer="svg4" />
  <rect
     style="opacity:1;fill:#ededed;fill-opacity:0.99860501;stroke-width:0.854746"
     id="rect847"
     width="200"
     height="200"
     x="64"
     y="64" />
  <path
     style="fill:#f3f3f3;fill-opacity:0.99860501;stroke:none;stroke-width:0.88856px;stroke-linecap:butt;stroke-linejoin:miter;stroke-opacity:1"
     d="m 124.1609,129.82088 -2.01716,65.08561 79.30793,2.39456 13.42876,-36.89429 -12.21163,-3.19912 -2.59523,-12.3232 -37.34918,-2.71495 -14.38891,-9.13769 z"
     id="path1149"
     sodipodi:nodetypes="ccccccccc" />
  <path
     d="m 216.56719,154.28709 h -12.21048 v -12.84362 c 0,-2.00116 -1.61675,-3.61792 -3.61791,-3.61792 h -35.61391 l -13.26193,-12.68534 a 0.92143901,0.92143901 0 0 0 -0.62184,-0.24872 h -28.73985 c -2.00116,0 -3.61792,1.61675 -3.61792,3.61792 v 66.93152 c 0,2.00116 1.61676,3.61792 3.61792,3.61792 h 78.91589 c 1.46978,0 2.80389,-0.89317 3.35788,-2.2612 l 15.15004,-37.53592 c 0.16959,-0.42963 0.26004,-0.89317 0.26004,-1.35672 0,-2.00116 -1.61676,-3.61792 -3.61793,-3.61792 z M 127.02368,133.0318 h 21.3118 l 13.52198,12.93407 h 34.35894 v 8.32122 h -57.6606 c -1.46979,0 -2.80389,0.89317 -3.35789,2.2612 l -8.17423,20.26035 z m 71.82701,57.88673 h -69.22663 l 11.67909,-28.94336 h 69.23795 z"
     id="path2"
     style="stroke-width:0.11306" />
</svg>
