<?xml version="1.0" encoding="UTF-8" standalone="no"?>
<svg
   xmlns:dc="http://purl.org/dc/elements/1.1/"
   xmlns:cc="http://creativecommons.org/ns#"
   xmlns:rdf="http://www.w3.org/1999/02/22-rdf-syntax-ns#"
   xmlns:svg="http://www.w3.org/2000/svg"
   xmlns="http://www.w3.org/2000/svg"
   xmlns:sodipodi="http://sodipodi.sourceforge.net/DTD/sodipodi-0.dtd"
   xmlns:inkscape="http://www.inkscape.org/namespaces/inkscape"
   width="312.84384"
   height="278.98285"
   viewBox="0 0 312.84384 278.98285"
   version="1.1"
   xml:space="preserve"
   style="clip-rule:evenodd;fill-rule:evenodd;stroke-linecap:round;stroke-linejoin:round;stroke-miterlimit:1.5"
   id="svg18"
   sodipodi:docname="icon-mouse-left-drag.svg"
   inkscape:version="1.0.2 (1.0.2+r75+1)"><metadata
   id="metadata24"><rdf:RDF><cc:Work
       rdf:about=""><dc:format>image/svg+xml</dc:format><dc:type
         rdf:resource="http://purl.org/dc/dcmitype/StillImage" /><dc:title></dc:title></cc:Work></rdf:RDF></metadata><defs
   id="defs22" /><sodipodi:namedview
   pagecolor="#ffffff"
   bordercolor="#666666"
   borderopacity="1"
   objecttolerance="10"
   gridtolerance="10"
   guidetolerance="10"
   inkscape:pageopacity="0"
   inkscape:pageshadow="2"
   inkscape:window-width="1920"
   inkscape:window-height="1082"
   id="namedview20"
   showgrid="false"
   fit-margin-top="0"
   fit-margin-left="0"
   fit-margin-right="0"
   fit-margin-bottom="0"
   inkscape:zoom="0.2952509"
   inkscape:cx="-257.45843"
   inkscape:cy="-238.80678"
   inkscape:window-x="0"
   inkscape:window-y="30"
   inkscape:window-maximized="1"
   inkscape:current-layer="svg18" />
    <g
   transform="matrix(1,0,0,1.359,-404.45007,-197.73314)"
   id="g4">
        <path
   d="m 491.012,151.364 c -49.554,2.8 -84.022,24.969 -78.977,90.572 l 78.977,0.566"
   style="fill:#aaaaaa"
   id="path2" />
    </g>
    <g
   transform="translate(-193.51507,-143.39314)"
   id="g8">
        <path
   d="m 359.054,230.341 c 0,-43.589 -35.388,-78.977 -78.977,-78.977 -43.588,0 -78.977,35.388 -78.977,78.977 v 106.058 c 0,43.589 35.389,78.977 78.977,78.977 43.589,0 78.977,-35.388 78.977,-78.977 z"
   style="fill:none;stroke:#4d4d4d;stroke-width:14px"
   id="path6" />
    </g>
    <g
   transform="matrix(1.36449,0,0,1.14328,-554.63107,-144.77214)"
   id="g12">
        <path
   d="m 412.035,241.936 c 0,0 83.714,0.968 115.761,0.589"
   style="fill:none;stroke:#4d4d4d;stroke-width:11.12px"
   id="path10" />
    </g>
    <g
   transform="matrix(1,0,0,1.359,-404.45007,-197.73314)"
   id="g16">
        <path
   d="M 491.012,242.502 V 151.364"
   style="fill:none;stroke:#4d4d4d;stroke-width:11.73px"
   id="path14" />
    </g>
<path
   style="fill:#aaaaaa;fill-opacity:1;stroke:#4d4d4d;stroke-width:14;stroke-linecap:butt;stroke-linejoin:round;stroke-miterlimit:1.5;stroke-dasharray:none;stroke-opacity:1"
   d="M 215.84013,86.608311 V 196.15643 l 90.00435,-51.96404 z"
   id="path26" /></svg>
