<?xml version="1.0" encoding="UTF-8" standalone="no"?>
<!DOCTYPE svg PUBLIC "-//W3C//DTD SVG 1.1//EN" "http://www.w3.org/Graphics/SVG/1.1/DTD/svg11.dtd">
<svg width="100%" height="100%" viewBox="0 0 14 14" version="1.1" xmlns="http://www.w3.org/2000/svg" xmlns:xlink="http://www.w3.org/1999/xlink" xml:space="preserve" xmlns:serif="http://www.serif.com/" style="fill-rule:evenodd;clip-rule:evenodd;stroke-linejoin:round;stroke-miterlimit:2;">
    <g>
        <path d="M4.278,2.016C4.607,2.902 4.773,3.853 4.833,4.796C3.72,4.545 2.631,4.177 1.576,3.742C1.264,2.425 0.736,1.136 0,0C1.345,0.822 2.774,1.544 4.278,2.016ZM1.842,5.24C2.837,5.505 3.842,5.741 4.858,5.907C4.84,6.894 4.724,7.884 4.526,8.851C3.598,8.885 2.651,8.95 1.765,9.229C1.974,7.916 2.002,6.56 1.842,5.24ZM1.462,10.653C2.308,10.174 3.311,9.993 4.279,9.893C4.053,10.72 3.764,11.537 3.38,12.304C2.145,12.559 0.862,13.08 0,14C0.666,12.981 1.146,11.828 1.462,10.653ZM4.919,12.077C5.144,11.329 5.331,10.569 5.488,9.803C6.582,9.745 7.682,9.731 8.77,9.6C8.824,10.352 8.942,11.112 9.199,11.822C7.774,11.928 6.341,11.934 4.919,12.077ZM10.719,11.653C10.316,10.967 10.062,10.186 9.925,9.403C10.852,9.187 11.803,8.766 12.451,8.069C12.769,8.907 13.339,9.661 14,10.267C13.142,11.087 11.892,11.466 10.719,11.653ZM12.21,7.192C11.579,7.843 10.691,8.258 9.811,8.475C9.746,7.614 9.785,6.743 9.88,5.884C10.757,5.671 11.614,5.294 12.342,4.762C12.139,5.548 12.07,6.393 12.21,7.192ZM12.646,3.83C11.835,4.318 10.936,4.683 10.014,4.896C10.15,4.032 10.333,3.175 10.538,2.324C11.715,2.09 12.865,1.727 14,1.337C13.466,2.117 12.99,2.949 12.646,3.83ZM9.259,2.523C9.165,3.375 9.056,4.225 8.963,5.077C7.982,5.19 6.979,5.154 6.001,5.013C5.993,4.13 5.916,3.239 5.711,2.381C6.873,2.606 8.082,2.65 9.259,2.523ZM8.862,6.067C8.783,6.933 8.727,7.802 8.734,8.672C7.72,8.801 6.693,8.809 5.671,8.825C5.825,7.91 5.934,6.986 5.979,6.059C6.935,6.16 7.909,6.184 8.862,6.067Z" style="fill:rgb(140,140,140);"/>
    </g>
</svg>
