<?xml version="1.0" encoding="UTF-8" standalone="no"?>
<!DOCTYPE svg PUBLIC "-//W3C//DTD SVG 1.1//EN" "http://www.w3.org/Graphics/SVG/1.1/DTD/svg11.dtd">
<svg width="100%" height="100%" viewBox="0 0 24 22" version="1.1" xmlns="http://www.w3.org/2000/svg" xmlns:xlink="http://www.w3.org/1999/xlink" xml:space="preserve" xmlns:serif="http://www.serif.com/" style="fill-rule:evenodd;clip-rule:evenodd;stroke-linecap:round;stroke-linejoin:round;stroke-miterlimit:1.5;">
    <g transform="matrix(1,0,0,1,-40.1423,-34.2081)">
        <g transform="matrix(1,0,0,1.12262,-1285.76,-285.715)">
            <g transform="matrix(1,0,0,1,0,3.56308)">
                <path d="M1337.8,281.771L1343.55,284.053L1337.8,286.334L1332.05,284.053L1337.8,281.771Z" style="fill:none;stroke:rgb(86,96,255);stroke-width:0.75px;"/>
            </g>
            <g transform="matrix(1,0,0,1,-5.74901,11.7763)">
                <path d="M1337.8,281.771L1343.55,284.053L1337.8,286.334L1332.05,284.053L1337.8,281.771Z" style="fill:none;stroke:rgb(86,96,255);stroke-width:0.75px;"/>
            </g>
            <g transform="matrix(1,0,0,1,5.76467,11.7763)">
                <path d="M1337.8,281.771L1343.55,284.053L1337.8,286.334L1332.05,284.053L1337.8,281.771Z" style="fill:none;stroke:rgb(86,96,255);stroke-width:0.75px;"/>
            </g>
            <g transform="matrix(1,0,0,1,0,3.56308)">
                <path d="M1332.05,290.005L1337.8,292.286L1337.8,286.334L1332.05,284.053L1332.05,290.005" style="fill:none;stroke:rgb(86,96,255);stroke-width:0.75px;"/>
            </g>
            <g transform="matrix(1,0,0,1,-5.74901,11.7763)">
                <path d="M1332.05,290.005L1337.8,292.286L1337.8,286.334L1332.05,284.053L1332.05,290.005" style="fill:none;stroke:rgb(86,96,255);stroke-width:0.75px;"/>
            </g>
            <g transform="matrix(1,0,0,1,5.76467,11.7763)">
                <path d="M1332.05,290.005L1337.8,292.286L1337.8,286.334L1332.05,284.053L1332.05,290.005" style="fill:none;stroke:rgb(86,96,255);stroke-width:0.75px;"/>
            </g>
            <g transform="matrix(1,0,0,1,0,3.56308)">
                <path d="M1332.05,290.005L1337.8,292.286L1337.8,286.334L1332.05,284.053L1332.05,290.005" style="fill:none;stroke:rgb(86,96,255);stroke-width:0.75px;"/>
                <g transform="matrix(1,0,0,1,-5.74901,8.21322)">
                    <path d="M1332.05,290.005L1337.8,292.286L1337.8,286.334L1332.05,284.053L1332.05,290.005" style="fill:none;stroke:rgb(86,96,255);stroke-width:0.75px;"/>
                </g>
                <g transform="matrix(1,0,0,1,5.76467,8.21322)">
                    <path d="M1332.05,290.005L1337.8,292.286L1337.8,286.334L1332.05,284.053L1332.05,290.005" style="fill:none;stroke:rgb(86,96,255);stroke-width:0.75px;"/>
                </g>
            </g>
            <g transform="matrix(-1,0,0,1,2675.6,3.56308)">
                <path d="M1332.05,290.005L1337.8,292.286L1337.8,286.334L1332.05,284.053L1332.05,290.005" style="fill:none;stroke:rgb(86,96,255);stroke-width:0.75px;"/>
            </g>
            <g transform="matrix(-1,0,0,1,2669.85,11.7763)">
                <path d="M1332.05,290.005L1337.8,292.286L1337.8,286.334L1332.05,284.053L1332.05,290.005" style="fill:none;stroke:rgb(86,96,255);stroke-width:0.75px;"/>
            </g>
            <g transform="matrix(-1,0,0,1,2681.37,11.7763)">
                <path d="M1332.05,290.005L1337.8,292.286L1337.8,286.334L1332.05,284.053L1332.05,290.005" style="fill:none;stroke:rgb(86,96,255);stroke-width:0.75px;"/>
            </g>
        </g>
    </g>
</svg>
