<?xml version="1.0" encoding="UTF-8" standalone="no"?>
<!DOCTYPE svg PUBLIC "-//W3C//DTD SVG 1.1//EN" "http://www.w3.org/Graphics/SVG/1.1/DTD/svg11.dtd">
<svg width="100%" height="100%" viewBox="0 0 18 29" version="1.1" xmlns="http://www.w3.org/2000/svg" xmlns:xlink="http://www.w3.org/1999/xlink" xml:space="preserve" xmlns:serif="http://www.serif.com/" style="fill-rule:evenodd;clip-rule:evenodd;stroke-linecap:round;stroke-linejoin:round;stroke-miterlimit:1.5;">
    <g transform="matrix(1,0,0,1,-149.68,-17.4455)">
        <g transform="matrix(1,0,0,0.922722,-1350.52,-586.199)">
            <path d="M1500.7,662.189C1500.7,658.079 1504.31,654.742 1508.74,654.742C1513.17,654.742 1516.77,658.079 1516.77,662.189L1516.77,676.121L1516.71,676.121C1516.75,676.436 1516.77,676.757 1516.77,677.082C1516.77,681.192 1513.17,684.529 1508.74,684.529C1504.31,684.529 1500.7,681.192 1500.7,677.082C1500.7,676.757 1500.73,676.436 1500.77,676.121L1500.7,676.121L1500.7,662.189Z" style="fill:none;stroke:rgb(86,96,255);stroke-width:1.04px;"/>
        </g>
        <g transform="matrix(1,0,0,1,-1218.54,-683.257)">
            <ellipse cx="1376.59" cy="710.843" rx="1.61" ry="2.744" style="fill:none;stroke:rgb(86,96,255);stroke-width:1px;"/>
        </g>
        <g transform="matrix(1,0,0,1,-1223.55,-681.124)">
            <path d="M1379.88,704.551L1381.76,702.665L1383.65,704.551" style="fill:none;stroke:rgb(86,96,255);stroke-width:1px;"/>
        </g>
        <g transform="matrix(-1,1.22465e-16,-1.22465e-16,-1,1539.98,736.499)">
            <path d="M1379.88,704.551L1381.76,702.665L1383.65,704.551" style="fill:none;stroke:rgb(86,96,255);stroke-width:1px;"/>
        </g>
    </g>
</svg>
