<?xml version="1.0" encoding="UTF-8" standalone="no"?>
<!DOCTYPE svg PUBLIC "-//W3C//DTD SVG 1.1//EN" "http://www.w3.org/Graphics/SVG/1.1/DTD/svg11.dtd">
<svg width="100%" height="100%" viewBox="0 0 21 19" version="1.1" xmlns="http://www.w3.org/2000/svg" xmlns:xlink="http://www.w3.org/1999/xlink" xml:space="preserve" xmlns:serif="http://www.serif.com/" style="fill-rule:evenodd;clip-rule:evenodd;stroke-linecap:round;stroke-linejoin:round;stroke-miterlimit:1.5;">
    <g transform="matrix(1,0,0,1,-25.3623,-6.79094)">
        <g transform="matrix(0.804684,0,0,0.804684,-1104.96,-620.908)">
            <g transform="matrix(1.14759,0,0,1.78738,-225.684,-847.746)">
                <path d="M1422.74,917.11L1433.19,917.11" style="fill:none;stroke:rgb(86,96,255);stroke-width:0.66px;"/>
            </g>
            <g transform="matrix(1.78187,0.0959177,-0.0431998,1.75919,-1082.9,-962.473)">
                <path d="M1426.4,919.248L1431.35,913.83" style="fill:none;stroke:rgb(86,96,255);stroke-width:0.55px;"/>
            </g>
            <g transform="matrix(1.32169,0,0,1.32169,-472.348,-413.641)">
                <rect x="1429.25" y="910.011" width="3.579" height="3.579" style="fill:rgb(86,96,255);"/>
            </g>
            <g transform="matrix(1.32169,0,0,1.32169,-484.347,-413.641)">
                <rect x="1429.25" y="910.011" width="3.579" height="3.579" style="fill:rgb(86,96,255);"/>
            </g>
            <g transform="matrix(1.32169,0,0,1.32169,-463.293,-422.696)">
                <rect x="1429.25" y="910.011" width="3.579" height="3.579" style="fill:rgb(86,96,255);"/>
            </g>
            <g transform="matrix(1.78187,-0.0959177,-0.0431998,-1.75919,-1082.9,2545.42)">
                <path d="M1426.4,919.248L1431.35,913.83" style="fill:none;stroke:rgb(86,96,255);stroke-width:0.55px;"/>
            </g>
            <g transform="matrix(1.32169,0,0,-1.32169,-463.293,2005.64)">
                <rect x="1429.25" y="910.011" width="3.579" height="3.579" style="fill:rgb(86,96,255);"/>
            </g>
        </g>
    </g>
</svg>
