<?xml version="1.0" encoding="UTF-8" standalone="no"?>
<!DOCTYPE svg PUBLIC "-//W3C//DTD SVG 1.1//EN" "http://www.w3.org/Graphics/SVG/1.1/DTD/svg11.dtd">
<svg width="100%" height="100%" viewBox="0 0 200 200" version="1.1" xmlns="http://www.w3.org/2000/svg" xmlns:xlink="http://www.w3.org/1999/xlink" xml:space="preserve" xmlns:serif="http://www.serif.com/" style="fill-rule:evenodd;clip-rule:evenodd;stroke-linecap:round;stroke-linejoin:round;stroke-miterlimit:1.5;">
    <g transform="matrix(1,0,0,1,-779.187,-721.203)">
        <g transform="matrix(0.00537236,-1.07054,1.12731,0.00565728,587.418,2409.23)">
            <path d="M1465.74,220.724C1459.88,219.614 1459.19,211.962 1453.43,218.39C1442.61,230.485 1442.63,236.791 1448.91,245.049C1450.6,247.263 1453.87,244.894 1455.34,243.247C1457.35,240.991 1458.23,237.947 1460.39,235.807C1463.28,232.935 1468,232.828 1470.77,229.926C1475.38,225.089 1471.3,220.699 1465.75,220.553" style="fill:none;stroke:rgb(86,96,255);stroke-width:1.82px;"/>
        </g>
        <g transform="matrix(1.13411,0,0,1.13411,-812.019,596.463)">
            <path d="M1495.54,177.72C1495.89,176.906 1490.84,187.541 1489.74,189.769C1485.86,197.597 1481.14,204.809 1476.7,212.311C1474.63,215.811 1475.08,216.153 1474.49,219.899C1474.28,221.273 1473.8,224.012 1473.8,224.012C1473.8,224.012 1475.24,221.332 1476.09,220.075C1477.87,217.443 1479.57,214.816 1481.02,211.956C1485.4,203.282 1490.16,194.868 1494.87,186.363C1496.74,182.974 1499.25,179.435 1500.11,175.595C1500.37,174.412 1497.13,174.771 1496.47,175.502" style="fill:none;stroke:rgb(86,96,255);stroke-width:1.76px;"/>
        </g>
        <g transform="matrix(1.13411,0,0,1.13411,-812.019,596.463)">
            <path d="M1495.83,176.784C1495.84,176.414 1496.05,175.678 1496.52,175.637C1497.01,175.594 1495.7,176.681 1496.04,177.045C1497.69,178.831 1499.05,178.766 1497.67,180.809C1497.42,181.187 1497.13,181.855 1496.72,182.091C1495.77,182.646 1490.63,179.172 1495.15,177.178" style="fill:none;stroke:rgb(86,96,255);stroke-width:1.76px;"/>
        </g>
        <g transform="matrix(1.13411,0,0,1.13411,-812.019,596.463)">
            <path d="M1475.46,220.061C1475.66,219.983 1475.27,220.07 1475.16,220.289" style="fill:white;stroke:rgb(86,96,255);stroke-width:1.76px;"/>
        </g>
        <g transform="matrix(0.662316,0,0,0.662316,435.975,652.082)">
            <path d="M714.628,182.592C719.175,188.039 715.467,205.718 709.148,205.579C695.088,205.269 693.315,173.61 714.628,182.592" style="fill:none;stroke:rgb(86,96,255);stroke-width:3.02px;"/>
        </g>
        <g transform="matrix(-1.05441,-0.613395,-0.553653,0.951716,1856.3,549.505)">
            <path d="M571.443,617.351C568.52,608.034 592.13,597.847 587.039,615.03C586.57,616.613 580.7,607.084 575.462,610.055" style="fill:none;stroke:rgb(86,96,255);stroke-width:1.72px;"/>
        </g>
        <g transform="matrix(-0.662316,0,0,0.662316,1285.39,365.015)">
            <path d="M574.871,640.97C570.964,640.17 566.961,636.581 561.892,639.42C558.758,641.175 556.908,647.863 556.627,649.354C555.423,655.761 555.413,657.515 554.65,663.486C553.343,673.729 553.315,700.262 552.587,710.56C552.4,713.19 550.84,720.279 553.021,722.46C553.767,723.206 555.633,722.526 556.449,722.363C559.964,721.66 563.517,721.534 567.093,721.615C570.074,721.683 573.057,722.016 575.976,722.629C576.61,722.762 579.035,723.647 579.693,723.208C580.362,722.762 580.387,720.302 580.466,719.66C580.997,715.328 579.996,710.83 580.321,706.481C581.446,691.434 579.875,671.153 577.085,656.76" style="fill:none;stroke:rgb(86,96,255);stroke-width:3.02px;"/>
        </g>
        <g transform="matrix(-0.662316,0,0,0.487924,1285.39,499.45)">
            <path d="M556.389,705.752C556.376,705.747 556.543,708.357 556.557,708.503C556.711,710.093 556.904,711.674 557.113,713.258C557.748,718.079 558.251,722.921 558.681,727.765C559.913,741.611 560.179,755.52 561.578,769.354" style="fill:none;stroke:rgb(86,96,255);stroke-width:3.44px;"/>
        </g>
        <g transform="matrix(-0.662316,0,0,0.487924,1285.39,499.45)">
            <path d="M576.029,703.988C575.931,703.995 576.012,709.763 576.012,709.927C576.012,713.792 575.807,717.632 575.554,721.489C574.479,737.869 572.052,754.434 572.875,770.875" style="fill:none;stroke:rgb(86,96,255);stroke-width:3.44px;"/>
        </g>
        <g transform="matrix(-0.662316,0,0,0.662316,1285.39,365.015)">
            <path d="M561.789,773.684C560.071,771.862 563.558,768.182 565.199,767.713C569.211,766.566 570.758,772.688 570.292,775.485C570.218,775.926 570.114,775.895 570.292,775.485C570.715,774.51 571.321,773.61 571.981,772.782C573.582,770.775 576.649,766.806 579.681,768.123C581.359,768.852 584.666,776.386 582.071,776.426C573.037,776.567 568.885,776.149 562.875,776.032" style="fill:none;stroke:rgb(86,96,255);stroke-width:3.02px;"/>
        </g>
        <g transform="matrix(-0.662316,0,0,0.662316,1285.39,365.015)">
            <path d="M574.054,640.813C575.136,640.813 576.365,641.779 577.128,642.456C579.563,644.618 587.176,654.541 589.451,656.817" style="fill:none;stroke:rgb(86,96,255);stroke-width:3.02px;"/>
        </g>
        <g transform="matrix(-0.662316,0,0,0.662316,1285.39,365.015)">
            <path d="M589.451,656.817C589.332,656.467 590.349,657.842 590.555,658.065C591.271,658.839 592.042,659.834 593.133,660.076C595.36,660.571 599.301,658.896 601.603,658.56" style="fill:none;stroke:rgb(86,96,255);stroke-width:3.02px;"/>
        </g>
        <g transform="matrix(-0.662316,0,0,0.662316,1285.39,365.015)">
            <path d="M577.704,660.167C579.498,661.692 587.068,669.673 589.663,670.401C592.566,671.217 600.803,664.056 603.253,662.832" style="fill:none;stroke:rgb(86,96,255);stroke-width:3.02px;"/>
        </g>
        <g transform="matrix(0.662316,0,0,0.662316,435.975,652.082)">
            <path d="M716.207,223.331C716.207,223.331 718.116,254.393 716.207,258.731C714.297,263.069 725.979,260.432 725.979,260.432C725.979,260.432 729.665,247.639 728.731,243.031" style="fill:none;stroke:rgb(86,96,255);stroke-width:3.02px;"/>
        </g>
        <g transform="matrix(0.662316,0,0,0.662316,435.975,652.082)">
            <path d="M719.151,261.226C719.151,261.226 714.613,262.523 715.996,265.185C717.378,267.846 718.33,272.237 720.187,268.584C722.044,264.931 722.439,261.226 722.439,261.226" style="fill:none;stroke:rgb(86,96,255);stroke-width:3.02px;"/>
        </g>
    </g>
</svg>
