<?xml version="1.0" encoding="UTF-8" standalone="no"?>
<!DOCTYPE svg PUBLIC "-//W3C//DTD SVG 1.1//EN" "http://www.w3.org/Graphics/SVG/1.1/DTD/svg11.dtd">
<svg width="100%" height="100%" viewBox="0 0 91 91" version="1.1" xmlns="http://www.w3.org/2000/svg" xmlns:xlink="http://www.w3.org/1999/xlink" xml:space="preserve" xmlns:serif="http://www.serif.com/" style="fill-rule:evenodd;clip-rule:evenodd;stroke-linejoin:round;stroke-miterlimit:2;">
    <g transform="matrix(1.36228,0,0,1.36228,-205.587,-158.077)">
        <path d="M154.554,164.608C152.226,160.055 150.913,154.899 150.913,149.438C150.913,131.004 165.879,116.038 184.313,116.038C193.752,116.038 202.283,119.963 208.36,126.268L208.223,126.137C203.444,136.905 193.516,141.504 192.071,141.086C191.018,140.783 192.187,136.977 193.186,134.37C194.284,131.505 194.289,129.083 193.763,127.638C193.336,126.467 191.352,124.61 188.545,124.864C186.334,125.063 185.758,126.947 185.185,128.903C184.27,132.028 188.159,139.499 186.333,142.683C184.877,145.221 175.327,150.366 174.042,148.516C170.762,143.794 172.51,137.691 168.343,138.751C164.918,139.622 163.136,147.447 168.344,149.741C169.329,150.175 172.297,151.134 171.854,152.476C171.489,153.582 161.16,155.996 154.544,164.568L154.554,164.608ZM215.466,137.379C216.917,141.12 217.713,145.187 217.713,149.438C217.713,167.872 202.747,182.838 184.313,182.838C176.172,182.838 168.707,179.919 162.909,175.071C164.262,171.824 166.133,169.148 168.552,166.592C172.18,162.76 177.556,159.825 180.718,159.537C181.746,159.443 181.682,162.333 181.934,163.215C182.957,166.794 185.694,172.855 190.222,171.24C191.344,170.84 192.429,170.251 193.386,169.541C194.041,169.055 194.592,168.481 195.034,167.795C199.613,160.681 186.658,160.822 185.876,156.213C185.383,153.312 193.323,151.055 201.458,146.905C208.422,143.353 212.276,140.779 215.466,137.379Z" style="fill:rgb(86,96,255);"/>
    </g>
</svg>
