<?xml version="1.0" encoding="UTF-8" standalone="no"?>
<!DOCTYPE svg PUBLIC "-//W3C//DTD SVG 1.1//EN" "http://www.w3.org/Graphics/SVG/1.1/DTD/svg11.dtd">
<svg width="100%" height="100%" viewBox="0 0 172 279" version="1.1" xmlns="http://www.w3.org/2000/svg" xmlns:xlink="http://www.w3.org/1999/xlink" xml:space="preserve" xmlns:serif="http://www.serif.com/" style="fill-rule:evenodd;clip-rule:evenodd;stroke-linecap:round;stroke-linejoin:round;stroke-miterlimit:1.5;">
    <g transform="matrix(1,0,0,1,-194.1,-144.364)">
        <path d="M359.054,230.341C359.054,186.752 323.666,151.364 280.077,151.364C236.489,151.364 201.1,186.752 201.1,230.341L201.1,336.399C201.1,379.988 236.489,415.376 280.077,415.376C323.666,415.376 359.054,379.988 359.054,336.399L359.054,230.341Z" style="fill:none;stroke:rgb(77,77,77);stroke-width:14px;"/>
    </g>
    <g transform="matrix(0.256014,0,0,0.243219,14.2734,35.1815)">
        <path d="M359.054,234.496C359.054,188.614 323.666,151.364 280.077,151.364C236.489,151.364 201.1,188.614 201.1,234.496L201.1,332.245C201.1,378.126 236.489,415.376 280.077,415.376C323.666,415.376 359.054,378.126 359.054,332.245L359.054,234.496Z" style="fill:none;stroke:rgb(77,77,77);stroke-width:56.07px;"/>
    </g>
    <g transform="matrix(1,0,0,0.660982,-194.1,-27.2088)">
        <path d="M259.858,120.696L280.077,87.801L300.296,119.523" style="fill:none;stroke:rgb(77,77,77);stroke-width:16.52px;"/>
    </g>
    <g transform="matrix(-1,-1.22465e-16,8.09469e-17,-0.660982,366.054,235.414)">
        <path d="M259.858,120.696L280.077,87.801L300.296,119.523" style="fill:none;stroke:rgb(77,77,77);stroke-width:16.52px;"/>
    </g>
</svg>
