<?xml version="1.0" encoding="UTF-8" standalone="no"?>
<!DOCTYPE svg PUBLIC "-//W3C//DTD SVG 1.1//EN" "http://www.w3.org/Graphics/SVG/1.1/DTD/svg11.dtd">
<svg width="100%" height="100%" viewBox="0 0 200 200" version="1.1" xmlns="http://www.w3.org/2000/svg" xmlns:xlink="http://www.w3.org/1999/xlink" xml:space="preserve" xmlns:serif="http://www.serif.com/" style="fill-rule:evenodd;clip-rule:evenodd;stroke-linecap:round;stroke-linejoin:round;stroke-miterlimit:1.5;">
    <g transform="matrix(1,0,0,1,-1537.58,-466.091)">
        <g transform="matrix(2.63266,0,0,2.63266,1291.39,-1001.98)">
            <path d="M130.992,574.538C130.779,574.153 131.045,575.416 131.066,575.855C131.113,576.85 130.968,578.12 131.286,579.074" style="fill:none;stroke:rgb(86,96,255);stroke-width:0.76px;"/>
        </g>
        <g transform="matrix(2.63266,0,0,2.63266,1291.39,-1001.98)">
            <path d="M130.371,574.066C129.876,573.894 131.413,574.178 131.931,574.262C132.793,574.402 134.585,574.861 134.907,575.825C135.657,578.076 132.075,578.493 130.815,579.123" style="fill:none;stroke:rgb(86,96,255);stroke-width:0.76px;"/>
        </g>
        <g transform="matrix(2.63266,0,0,2.63266,1291.39,-1004.61)">
            <path d="M136.052,580.775C135.64,581.219 136.343,579.175 136.37,579.074C136.736,577.701 136.948,575.867 137.883,574.932C138.283,574.532 138.407,575.939 138.602,576.47C139.056,577.701 139.329,578.953 139.644,580.215" style="fill:none;stroke:rgb(86,96,255);stroke-width:0.76px;"/>
        </g>
        <g transform="matrix(2.63266,0,0,2.63266,1321.65,-1004.61)">
            <path d="M136.052,580.775C135.64,581.219 136.343,579.175 136.37,579.074C136.736,577.701 136.948,575.867 137.883,574.932C138.283,574.532 138.407,575.939 138.602,576.47C139.056,577.701 139.329,578.953 139.644,580.215" style="fill:none;stroke:rgb(86,96,255);stroke-width:0.76px;"/>
        </g>
        <g transform="matrix(2.63266,0,0,2.63266,1291.39,-1004.61)">
            <path d="M136.378,578.85C135.805,578.811 137.363,578.348 137.437,578.33C138.329,578.107 139.339,577.834 140.264,577.834" style="fill:none;stroke:rgb(86,96,255);stroke-width:0.76px;"/>
        </g>
        <g transform="matrix(2.63266,0,0,2.63266,1321.65,-1004.61)">
            <path d="M136.378,578.85C135.805,578.811 137.363,578.348 137.437,578.33C138.329,578.107 139.339,577.834 140.264,577.834" style="fill:none;stroke:rgb(86,96,255);stroke-width:0.76px;"/>
        </g>
        <g transform="matrix(2.63266,0,0,2.63266,1291.39,-1007.24)">
            <path d="M143.809,576.339C143.904,576.275 143.91,577.857 143.91,578.032C143.91,578.935 143.768,580.088 144.059,580.959" style="fill:none;stroke:rgb(86,96,255);stroke-width:0.76px;"/>
        </g>
        <g transform="matrix(2.63266,0,0,2.63266,1291.39,-1007.24)">
            <path d="M140.665,577.492C140.569,577.395 142.408,576.95 142.546,576.916C144.073,576.534 145.619,576.356 147.159,576.048" style="fill:none;stroke:rgb(86,96,255);stroke-width:0.76px;"/>
        </g>
        <g transform="matrix(2.21452,0,0,2.21452,1349.49,-953.167)">
            <path d="M112.471,696.593C112.183,695.531 135.78,695.619 142.356,694.848" style="fill:none;stroke:rgb(86,96,255);stroke-width:0.9px;"/>
        </g>
        <g transform="matrix(2.21452,0,0,2.21452,1349.49,-953.167)">
            <path d="M112.634,696.8C112.611,696.799 112.768,697.715 112.788,698.417C112.836,700.096 112.786,701.781 112.774,703.46C112.754,706.202 112.808,708.946 113.006,711.682C113.036,712.093 112.767,714.311 113.299,714.705C114.878,715.873 119.199,714.918 120.952,714.838C127.72,714.528 136.748,714.584 142.754,713.971C143.567,713.888 142.756,709.45 142.751,708.995C142.692,703.811 141.885,700.025 142.356,694.848" style="fill:none;stroke:rgb(86,96,255);stroke-width:0.9px;"/>
        </g>
        <g transform="matrix(2.21452,0,0,2.21452,1349.49,-953.167)">
            <path d="M141.854,694.848C143.389,693.205 145.61,687.293 145.901,685.992" style="fill:none;stroke:rgb(86,96,255);stroke-width:0.9px;"/>
        </g>
        <g transform="matrix(2.21452,0,0,2.21452,1349.49,-953.167)">
            <path d="M147.254,692.874C147.432,694.718 147.592,706.427 147.592,706.427C147.592,706.427 144.757,710.992 143,713.971" style="fill:none;stroke:rgb(86,96,255);stroke-width:0.9px;"/>
        </g>
        <g transform="matrix(2.21452,0,0,2.21452,1349.49,-953.167)">
            <path d="M120.96,687.945C121.043,687.443 118.044,690.151 117.697,690.473C115.4,692.602 114.262,694.298 111.724,696.137" style="fill:none;stroke:rgb(86,96,255);stroke-width:0.9px;"/>
        </g>
        <g transform="matrix(2.21452,0,0,2.21452,1349.49,-953.167)">
            <path d="M120.367,687.832C120.407,687.74 121.626,687.879 121.727,687.88C123.378,687.889 125.031,687.757 126.674,687.609C132.97,687.045 139.262,686.204 145.579,685.992" style="fill:none;stroke:rgb(86,96,255);stroke-width:0.9px;"/>
        </g>
        <g transform="matrix(2.21452,0,0,2.21452,1349.49,-953.167)">
            <path d="M119.689,687.098C119.956,687.33 119.102,686.704 118.805,686.514C118.28,686.178 117.807,685.799 117.335,685.394C115.861,684.131 114.158,682.9 112.88,681.431" style="fill:none;stroke:rgb(86,96,255);stroke-width:0.9px;"/>
        </g>
        <g transform="matrix(2.21452,0,0,2.21452,1351.97,-956.114)">
            <path d="M102.043,691.193C104.25,693.688 108.264,694.663 110.605,697.051" style="fill:none;stroke:rgb(86,96,255);stroke-width:0.9px;"/>
        </g>
        <g transform="matrix(2.21452,0,0,2.21452,1349.49,-953.167)">
            <path d="M103.161,690.169C104.121,688.671 104.727,688.883 106.049,687.705C108.308,685.694 110.338,683.451 112.61,681.456" style="fill:none;stroke:rgb(86,96,255);stroke-width:0.9px;"/>
        </g>
        <g transform="matrix(2.21452,0,0,2.21452,1349.49,-953.167)">
            <path d="M146.15,685.812C147.479,685.415 154.892,682.373 157.025,681.047" style="fill:none;stroke:rgb(86,96,255);stroke-width:0.9px;"/>
        </g>
        <g transform="matrix(2.21452,0,0,2.21452,1351.26,-950.565)">
            <path d="M156.224,679.872C153.712,682.833 153.21,684.596 151.863,687.196C151.548,687.806 150.858,690.238 150.214,690.587C149.708,690.862 144.56,692.124 142.936,692.823C142.826,692.871 141.01,693.592 141.053,693.673" style="fill:none;stroke:rgb(86,96,255);stroke-width:0.9px;"/>
        </g>
        <g transform="matrix(2.21452,0,0,2.21452,1349.49,-953.167)">
            <path d="M119.755,687.934C119.43,687.935 119.906,689.51 119.957,690.038C120.114,691.664 120.293,693.228 120.223,694.864" style="fill:none;stroke:rgb(86,96,255);stroke-width:0.9px;"/>
        </g>
        <g transform="matrix(2.63266,0,0,2.63266,1306.02,-1252.33)">
            <path d="M121.26,666.933C121.26,666.933 122.007,675.819 121.737,676.971C121.466,678.122 141.866,678.26 146.202,677.056C150.539,675.852 146.335,668.293 146.866,666.76C147.396,665.226 121.26,666.933 121.26,666.933Z" style="fill:none;stroke:rgb(86,96,255);stroke-width:0.76px;"/>
        </g>
        <g transform="matrix(2.21452,0,0,2.21452,1349.49,-953.167)">
            <g transform="matrix(0.451565,-0,-0,0.451565,84.9368,640.888)">
                <path d="M107.855,109.297L102.92,111.51L98.979,107.807" style="fill:none;stroke:rgb(86,96,255);stroke-width:2px;stroke-linejoin:miter;stroke-miterlimit:10;"/>
                <path d="M114.609,76.329C114.609,76.329 106.082,93.404 102.92,111.51" style="fill:none;stroke:rgb(86,96,255);stroke-width:2px;"/>
            </g>
        </g>
    </g>
</svg>
