<?xml version="1.0" encoding="UTF-8" standalone="no"?>
<!DOCTYPE svg PUBLIC "-//W3C//DTD SVG 1.1//EN" "http://www.w3.org/Graphics/SVG/1.1/DTD/svg11.dtd">
<svg width="100%" height="100%" viewBox="0 0 200 200" version="1.1" xmlns="http://www.w3.org/2000/svg" xmlns:xlink="http://www.w3.org/1999/xlink" xml:space="preserve" xmlns:serif="http://www.serif.com/" style="fill-rule:evenodd;clip-rule:evenodd;stroke-linecap:round;stroke-linejoin:round;stroke-miterlimit:1.5;">
    <g transform="matrix(0.75715,0,0,0.75715,-482.04,-202.86)">
        <g transform="matrix(1.81736,0,0,1.59144,-552.398,-43.6391)">
            <path d="M725.308,264.033C724.64,264.034 720.614,263.949 720.635,264.619C720.679,266.009 720.488,268.36 720.488,269.681C720.488,271.555 720.403,273.11 720.488,273.568C720.711,274.76 723.774,274.151 725.865,273.629" style="fill:none;stroke:rgb(86,96,255);stroke-width:1.55px;"/>
        </g>
        <g transform="matrix(1.81736,0,0,1.59144,-552.398,-43.6391)">
            <path d="M720.488,269.715C721.688,269.579 722.952,269.731 724.371,269.521" style="fill:none;stroke:rgb(86,96,255);stroke-width:1.55px;"/>
        </g>
        <g transform="matrix(2.43773,0,0,2.43773,429.651,-1023.26)">
            <path d="M113.82,574.776C113.215,574.948 116.262,573.108 116.802,572.7C118.739,571.234 120.746,569.87 122.704,568.434C128.997,563.819 135.22,559.14 141.826,554.992" style="fill:none;stroke:rgb(86,96,255);stroke-width:1.08px;"/>
        </g>
        <g transform="matrix(2.43773,0,0,2.43773,429.651,-1023.26)">
            <path d="M113.741,574.787C113.91,577.104 113.903,583.274 113.999,585.597C114.304,592.995 114.19,600.423 113.801,607.819C113.749,608.803 112.524,612.444 113.992,612.557C117.609,612.835 121.275,613.023 124.862,612.655C133.857,611.732 163.504,613.516 163.748,612.687C164.544,609.98 163.714,594.551 164.082,589.466C164.222,587.539 164.345,585.609 164.529,583.687C164.54,583.567 164.794,581.143 164.916,579.134" style="fill:none;stroke:rgb(86,96,255);stroke-width:1.08px;"/>
        </g>
        <g transform="matrix(2.43773,0,0,2.43773,429.651,-1023.26)">
            <path d="M141.826,554.992C142.951,553.508 147.659,560.259 149.661,562.659C154.297,568.215 164.916,578.058 164.916,579.134" style="fill:none;stroke:rgb(86,96,255);stroke-width:1.08px;"/>
        </g>
        <g transform="matrix(2.43773,0,0,2.43773,429.651,-1023.26)">
            <path d="M113.741,574.787C113.566,573.722 138.434,593.317 140.978,593.024C143.078,592.781 160.485,581.55 164.916,579.134" style="fill:none;stroke:rgb(86,96,255);stroke-width:1.08px;"/>
        </g>
        <g transform="matrix(2.43773,0,0,2.43773,429.651,-1023.26)">
            <path d="M124.312,582.011C124.208,582.375 124.075,570.861 124.664,570.567C129.809,567.994 138.645,568.707 144.183,568.98C146.087,569.073 152.825,569.113 154.413,569.75C154.943,569.962 154.56,574.625 154.525,575.825C154.398,580.199 155.035,581.214 154.488,585.408" style="fill:none;stroke:rgb(86,96,255);stroke-width:1.08px;"/>
        </g>
        <g transform="matrix(3.30388,0,0,3.30388,307.355,-1519.94)">
            <path d="M130.992,574.538C130.779,574.153 131.045,575.416 131.066,575.855C131.113,576.85 130.968,578.12 131.286,579.074" style="fill:none;stroke:rgb(86,96,255);stroke-width:0.8px;"/>
        </g>
        <g transform="matrix(3.30388,0,0,3.30388,307.355,-1519.94)">
            <path d="M130.371,574.066C129.876,573.894 131.413,574.178 131.931,574.262C132.793,574.402 134.585,574.861 134.907,575.825C135.657,578.076 132.075,578.493 130.815,579.123" style="fill:none;stroke:rgb(86,96,255);stroke-width:0.8px;"/>
        </g>
        <g transform="matrix(2.21904,0,0,1.59144,462.553,-568.77)">
            <path d="M138.644,604.229C138.644,604.229 138.243,594.058 138.644,594.002C139.045,593.945 140.912,597.391 140.912,597.391C140.912,597.391 142.394,594.485 142.809,594.002C143.224,593.518 144.148,603.215 143.855,604.596" style="fill:none;stroke:rgb(86,96,255);stroke-width:1.37px;"/>
        </g>
        <g transform="matrix(3.30388,0,0,3.30388,325.681,-1600.31)">
            <path d="M140.908,598.336C139.989,598.494 139.396,604.489 141.864,603.447C144.331,602.406 143.677,597.858 140.908,598.336Z" style="fill:none;stroke:rgb(86,96,255);stroke-width:0.8px;"/>
        </g>
    </g>
</svg>
