<?xml version="1.0" encoding="UTF-8" standalone="no"?>
<!DOCTYPE svg PUBLIC "-//W3C//DTD SVG 1.1//EN" "http://www.w3.org/Graphics/SVG/1.1/DTD/svg11.dtd">
<svg width="100%" height="100%" viewBox="0 0 14 14" version="1.1" xmlns="http://www.w3.org/2000/svg" xmlns:xlink="http://www.w3.org/1999/xlink" xml:space="preserve" xmlns:serif="http://www.serif.com/" style="fill-rule:evenodd;clip-rule:evenodd;stroke-linejoin:round;stroke-miterlimit:2;">
    <g id="Layer2">
        <path d="M2.033,3.905C1.32,1.459 0,0 0,0C1.628,0.619 3.236,1.18 4.811,1.638C5.04,2.706 5.216,3.693 5.333,4.642C4.368,4.518 3.287,4.294 2.033,3.905ZM6.759,4.763C6.661,3.895 6.515,3 6.325,2.048C7.41,2.318 8.474,2.53 9.515,2.667C9.371,3.362 9.26,4.048 9.181,4.723C8.426,4.763 7.638,4.799 6.759,4.763ZM10.599,4.658C10.677,4.05 10.783,3.432 10.916,2.806C11.732,2.859 12.531,2.86 13.31,2.799C12.975,3.457 12.723,4.096 12.554,4.716C11.877,4.648 11.237,4.64 10.599,4.658ZM12.31,6.099C12.26,6.763 12.311,7.405 12.463,8.024C11.805,7.906 11.134,7.822 10.451,7.772C10.429,7.211 10.435,6.64 10.468,6.061C11.07,6.04 11.673,6.04 12.31,6.099ZM13.078,9.579C13.327,10.028 13.635,10.464 14,10.886C14,10.886 12.806,11.308 11.219,11.451C11.161,11.456 11.104,11.461 11.048,11.466C10.828,10.725 10.669,9.965 10.569,9.186C11.426,9.258 12.263,9.39 13.078,9.579ZM9.151,9.12C9.245,9.949 9.399,10.758 9.615,11.547C8.544,11.585 7.641,11.582 6.445,11.749C6.617,10.872 6.739,10.041 6.814,9.234C7.608,9.15 8.387,9.113 9.151,9.12ZM5.384,9.43C5.295,10.259 5.155,11.115 4.958,12.028C2.417,12.65 0,14 0,14C0,14 1.263,12.604 1.986,10.254C3.143,9.892 4.277,9.618 5.384,9.43ZM2.347,8.686C2.429,8.156 2.477,7.593 2.477,7C2.477,6.463 2.438,5.949 2.369,5.463C3.53,5.784 4.547,5.97 5.464,6.071C5.503,6.715 5.511,7.352 5.488,7.995C4.462,8.155 3.414,8.384 2.347,8.686ZM9.063,6.131C9.036,6.667 9.031,7.197 9.049,7.719C8.344,7.716 7.627,7.749 6.898,7.818C6.912,7.268 6.905,6.721 6.876,6.17C7.659,6.194 8.375,6.166 9.063,6.131Z" style="fill:rgb(140,140,140);"/>
    </g>
</svg>
