<?xml version="1.0" encoding="UTF-8" standalone="no"?>
<!DOCTYPE svg PUBLIC "-//W3C//DTD SVG 1.1//EN" "http://www.w3.org/Graphics/SVG/1.1/DTD/svg11.dtd">
<svg width="100%" height="100%" viewBox="0 0 172 279" version="1.1" xmlns="http://www.w3.org/2000/svg" xmlns:xlink="http://www.w3.org/1999/xlink" xml:space="preserve" xmlns:serif="http://www.serif.com/" style="fill-rule:evenodd;clip-rule:evenodd;stroke-linecap:round;stroke-linejoin:round;stroke-miterlimit:1.5;">
    <g transform="matrix(-1,0,0,1.359,576.989,-198.704)">
        <path d="M491.012,151.364C441.458,154.164 406.99,176.333 412.035,241.936L491.012,242.502" style="fill:rgb(170,170,170);"/>
    </g>
    <g transform="matrix(-1,0,0,1,366.054,-144.364)">
        <path d="M359.054,230.341C359.054,186.752 323.666,151.364 280.077,151.364C236.489,151.364 201.1,186.752 201.1,230.341L201.1,336.399C201.1,379.988 236.489,415.376 280.077,415.376C323.666,415.376 359.054,379.988 359.054,336.399L359.054,230.341Z" style="fill:none;stroke:rgb(77,77,77);stroke-width:14px;"/>
    </g>
    <g transform="matrix(-1.36449,0,0,1.14328,727.17,-145.743)">
        <path d="M412.035,241.936C412.035,241.936 495.749,242.904 527.796,242.525" style="fill:none;stroke:rgb(77,77,77);stroke-width:11.12px;"/>
    </g>
    <g transform="matrix(-1,0,0,1.359,576.989,-198.704)">
        <path d="M491.012,242.502L491.012,151.364" style="fill:none;stroke:rgb(77,77,77);stroke-width:11.73px;"/>
    </g>
</svg>
