<?xml version="1.0" encoding="UTF-8" standalone="no"?>
<!DOCTYPE svg PUBLIC "-//W3C//DTD SVG 1.1//EN" "http://www.w3.org/Graphics/SVG/1.1/DTD/svg11.dtd">
<svg width="100%" height="100%" viewBox="0 0 21 32" version="1.1" xmlns="http://www.w3.org/2000/svg" xmlns:xlink="http://www.w3.org/1999/xlink" xml:space="preserve" xmlns:serif="http://www.serif.com/" style="fill-rule:evenodd;clip-rule:evenodd;stroke-linecap:round;stroke-linejoin:round;stroke-miterlimit:1.5;">
    <g transform="matrix(1,0,0,1,-40.4923,-134.49)">
        <g transform="matrix(1,0,0,1,-10.9487,-8.98259)">
            <path d="M69.516,168.438C66.981,172.339 63.217,174.375 60.279,174.375C55.677,174.375 51.941,170.638 51.941,166.036L51.941,154.781C51.941,151.177 54.633,148.231 56.982,146.292" style="fill:rgb(238,239,255);stroke:rgb(86,96,255);stroke-width:1px;"/>
        </g>
        <g transform="matrix(1,0,0,1,-8.47804,-11.4532)">
            <path d="M51.941,154.781C51.941,150.179 55.677,146.443 60.279,146.443C64.882,146.443 68.618,150.179 68.618,154.781L68.618,166.036C68.618,170.638 64.882,174.375 60.279,174.375C55.677,174.375 51.941,170.638 51.941,166.036L51.941,154.781Z" style="fill:white;stroke:rgb(86,96,255);stroke-width:1px;"/>
        </g>
        <g transform="matrix(1,0,0,1,-1329.96,-563.534)">
            <path d="M1379.88,704.551L1381.76,702.665L1383.65,704.551" style="fill:none;stroke:rgb(86,96,255);stroke-width:1px;"/>
        </g>
        <g transform="matrix(-1,-1.22465e-16,1.22465e-16,-1,1433.56,851.62)">
            <path d="M1379.88,704.551L1381.76,702.665L1383.65,704.551" style="fill:none;stroke:rgb(86,96,255);stroke-width:1px;"/>
        </g>
        <g transform="matrix(1,0,0,1.37175,-11.4145,-65.1687)">
            <circle cx="63.216" cy="152.559" r="1.421" style="fill:white;stroke:rgb(86,96,255);stroke-width:0.83px;"/>
        </g>
    </g>
</svg>
