<?xml version="1.0" encoding="UTF-8" standalone="no"?>
<!DOCTYPE svg PUBLIC "-//W3C//DTD SVG 1.1//EN" "http://www.w3.org/Graphics/SVG/1.1/DTD/svg11.dtd">
<svg width="100%" height="100%" viewBox="0 0 18 29" version="1.1" xmlns="http://www.w3.org/2000/svg" xmlns:xlink="http://www.w3.org/1999/xlink" xml:space="preserve" xmlns:serif="http://www.serif.com/" style="fill-rule:evenodd;clip-rule:evenodd;stroke-linecap:round;stroke-linejoin:round;stroke-miterlimit:1.5;">
    <g transform="matrix(1,0,0,1,-22.6897,-138.746)">
        <g transform="matrix(1,0,0,0.922722,-1477.51,-464.899)">
            <path d="M1508.74,654.742C1513.17,654.742 1516.77,658.079 1516.77,662.189L1516.77,676.121L1516.71,676.121C1516.75,676.436 1516.77,676.757 1516.77,677.082C1516.77,681.192 1513.17,684.529 1508.74,684.529C1504.31,684.529 1500.7,681.192 1500.7,677.082C1500.7,676.757 1500.73,676.436 1500.77,676.121L1500.7,676.121L1500.7,666.875" style="fill:none;stroke:rgb(86,96,255);stroke-width:1.04px;"/>
        </g>
        <g transform="matrix(1,0,0,0.922722,-1477.51,-464.899)">
            <path d="M1508.74,654.742L1508.74,666.875L1500.7,666.875L1500.7,662.189C1500.7,658.079 1504.31,654.742 1508.74,654.742" style="fill:none;stroke:rgb(86,96,255);stroke-width:1.04px;"/>
        </g>
        <g transform="matrix(-1,0,0,0.922722,1539.97,-464.899)">
            <path d="M1508.74,654.742L1508.74,666.875L1500.7,666.875L1500.7,662.189C1500.7,658.079 1504.31,654.742 1508.74,654.742" style="fill:rgb(44,50,142);stroke:rgb(86,96,255);stroke-width:1.04px;"/>
        </g>
        <g transform="matrix(1,0,0,1,-1373.08,-601.552)">
            <path d="M1404.3,751.994L1412.34,751.994" style="fill:none;stroke:rgb(86,96,255);stroke-width:1px;"/>
        </g>
    </g>
</svg>
