<?xml version="1.0" encoding="UTF-8" standalone="no"?>
<svg
   width="100%"
   height="100%"
   viewBox="0 0 200 200"
   version="1.1"
   xml:space="preserve"
   style="fill-rule:evenodd;clip-rule:evenodd;stroke-linecap:round;stroke-linejoin:round;stroke-miterlimit:1.5;"
   id="svg120"
   xmlns="http://www.w3.org/2000/svg"
   xmlns:svg="http://www.w3.org/2000/svg"><defs
   id="defs124" />
    <rect
   x="0.0014183277"
   y="0.0018496827"
   width="200.00037"
   height="199.99962"
   style="fill:#f2f2f2;stroke-width:1.52198"
   id="rect2" />
    <g
   transform="matrix(-0.21350765,0.24414967,-0.24414967,-0.21350765,453.55213,145.94608)"
   id="g11"
   style="opacity:0.09">
                                <path
   d="m 831.641,1196.39 c 1.779,-1.21 5.071,-16.27 5.323,-17.09 1.354,-4.41 -19.749,-37.23 -23.616,-39.37 -21.785,-12.08 -51.997,29.95 -49.502,49.38 3.127,24.34 26.879,11.95 41.307,9.9 7.759,-1.11 19.552,1.91 26.488,-2.82 z"
   style="fill:#7e7e7e;stroke:#000000;stroke-width:3.08px"
   id="path9" />
                            </g><g
   transform="matrix(-0.21350765,0.24414967,-0.24414967,-0.21350765,453.55213,145.94608)"
   id="g15"
   style="opacity:0.09">
                                
                            </g><g
   transform="matrix(-0.21350765,0.24414967,-0.24414967,-0.21350765,453.55213,145.94608)"
   id="g19"
   style="opacity:0.09">
                                <path
   d="m 953.297,1090.6 c 0,0 -2.15,-2.39 -2.318,-2.62 -11.148,-15.36 -27.01,-49.84 -51.424,-43.97 -45.921,11.04 -15.148,80.49 22.881,75.25 14.381,-1.98 23.533,-18.38 30.861,-28.66 z"
   style="fill:#7e7e7e;stroke:#000000;stroke-width:3.08px"
   id="path17" />
                            </g><g
   transform="matrix(-0.21350765,0.24414967,-0.24414967,-0.21350765,453.55213,145.94608)"
   id="g23"
   style="opacity:0.09">
                                <path
   d="m 858.398,1085.09 c 0,0 -1.872,-4.58 -2.031,-5.36 -2.945,-14.4 -4.948,-32.81 -20.744,-38.69 -19.762,-7.36 -52.725,21.53 -52.845,40.69 -0.273,43.62 42.995,45.05 71.999,26.84 7.967,-5.01 11.829,-18.15 3.621,-23.48 z"
   style="fill:#7e7e7e;stroke:#000000;stroke-width:3.08px"
   id="path21" />
                            </g><g
   transform="matrix(-0.21350765,0.24414967,-0.24414967,-0.21350765,453.55213,145.94608)"
   id="g27"
   style="opacity:0.09">
                                <path
   d="m 907.318,630.655 c -2.129,-5.628 -33.75,-53.534 -65.234,-58.032 -16.704,-2.386 -44.337,48.452 -46.302,57.62 -2.371,11.068 3.66,92.326 10.495,98.674 0.528,0.49 0.772,0.576 1.441,0.72 3.812,0.817 21.612,-15.013 32.205,-17.801 11.235,-2.956 22.893,-2.211 34.16,-5.967 30.683,-10.228 40.361,-46.707 33.235,-75.214 z"
   style="fill:#7e7e7e;stroke:#000000;stroke-width:3.08px"
   id="path25" />
                            </g><g
   transform="matrix(-0.21350765,0.24414967,-0.24414967,-0.21350765,453.55213,145.94608)"
   id="g31"
   style="opacity:0.09">
                                <path
   d="m 936.733,821.968 c -1.385,-0.464 2.682,-1.234 3.818,-2.153 2.444,-1.979 4.457,-4.589 5.615,-7.522 3.43,-8.69 3.575,-18.983 3.708,-28.181 0.293,-20.243 -3.137,-80.231 -37.504,-72.996 -24.772,5.215 -66.739,50.474 -45.768,76.915 6.617,8.344 22.207,12.471 31.465,17.587 6.268,3.464 32.392,20.779 39.623,17.163 z"
   style="fill:#7e7e7e;stroke:#000000;stroke-width:3.08px"
   id="path29" />
                            </g><g
   transform="matrix(-0.21350765,0.24414967,-0.24414967,-0.21350765,453.55213,145.94608)"
   id="g35"
   style="opacity:0.09">
                                
                            </g><g
   transform="matrix(-0.21350765,0.24414967,-0.24414967,-0.21350765,453.55213,145.94608)"
   id="g39"
   style="opacity:0.09">
                                <path
   d="m 878.785,875.223 c 0,0 -3.2,-2.227 -3.284,-2.86 -1.647,-12.353 -12.501,-51.203 -30.3,-50.429 -38.777,1.686 -31.757,120.479 -7.628,132.959 27.793,14.376 54.361,-66.52 41.212,-79.67 z"
   style="fill:#7e7e7e;stroke:#000000;stroke-width:3.08px"
   id="path37" />
                            </g><g
   transform="matrix(-0.21350765,0.24414967,-0.24414967,-0.21350765,453.55213,145.94608)"
   id="g43"
   style="opacity:0.09">
                                <path
   d="m 926.354,863.358 c 0,0 -2.185,-20.778 -12.183,-29.665 -25.472,-22.641 -5.563,59.242 12.183,29.665 z"
   style="fill:#7e7e7e;stroke:#000000;stroke-width:3.08px"
   id="path41" />
                            </g><g
   transform="matrix(-0.21350765,0.24414967,-0.24414967,-0.21350765,453.55213,145.94608)"
   id="g47"
   style="opacity:0.09">
                                <path
   d="m 1003.61,874.365 c -38.877,-27.054 -139.15,29.315 -99.928,57.75 18.018,13.064 90.323,-5.378 102.338,-20.129 5.19,-6.368 3.34,-16.175 2.44,-23.625 -0.45,-3.762 -4.85,-13.996 -4.85,-13.996 z"
   style="fill:#7e7e7e;stroke:#000000;stroke-width:3.08px"
   id="path45" />
                            </g><g
   transform="matrix(-0.21350765,0.24414967,-0.24414967,-0.21350765,453.55213,145.94608)"
   id="g51"
   style="opacity:0.09">
                                <path
   d="m 1049.13,867.888 c 3.42,-8.348 -24.46,6.829 -27.05,9.543 -15.09,15.852 3.91,53.543 22.57,53.543 33.89,0 74.11,-58.169 8.95,-63.181 z"
   style="fill:#7e7e7e;stroke:#000000;stroke-width:3.08px"
   id="path49" />
                            </g><g
   transform="matrix(-0.21350765,0.24414967,-0.24414967,-0.21350765,453.55213,145.94608)"
   id="g55"
   style="opacity:0.09">
                                <path
   d="m 1039.48,982.92 c -0.19,-0.01 -0.39,-4.896 -0.42,-5.288 -0.46,-6.258 -0.96,-12.944 -3.05,-18.893 -3.08,-8.718 -10.73,-11.174 -16.99,-16.98 -9.73,-9.039 -6.73,-19.641 -20.954,-12.774 -6.009,2.9 -12.013,4.727 -16.369,10.173 -7.122,8.902 -0.271,58.82 8.108,66.932 4.015,3.88 12.055,2.52 17.055,2.37 23.86,-0.7 28.21,-0.27 33.35,-23.408 z"
   style="fill:#7e7e7e;stroke:#000000;stroke-width:3.08px"
   id="path53" />
                            </g><g
   transform="matrix(-0.21350765,0.24414967,-0.24414967,-0.21350765,453.55213,145.94608)"
   id="g59"
   style="opacity:0.09">
                                
                            </g><g
   transform="matrix(-0.21350765,0.24414967,-0.24414967,-0.21350765,453.55213,145.94608)"
   id="g63"
   style="opacity:0.09">
                                <path
   d="m 951.51,1057.63 c 0,0 15.496,15.01 18.767,16.11 10.469,3.53 14.202,-7.41 16.321,-15.02 6.785,-24.38 -13.543,-57.78 -21.272,-80.182 -1.987,-5.758 -7.223,-25.216 -15.401,-25.824 -33.206,-2.47 -24.423,64.326 -16.617,80.646 4.394,9.19 14.11,15.13 18.202,24.27 z"
   style="fill:#7e7e7e;stroke:#000000;stroke-width:3.08px"
   id="path61" />
                            </g><g
   transform="matrix(-0.21350765,0.24414967,-0.24414967,-0.21350765,453.55213,145.94608)"
   id="g67"
   style="opacity:0.09">
                                <path
   d="m 901.016,1017.91 c -0.192,-0.03 0.839,-4.36 0.903,-4.63 1.216,-5.17 1.525,-10.75 1.049,-16.034 -1.044,-11.593 -7.788,-26.496 -18.827,-32.005 -9.381,-4.681 -18.385,10.346 -24.158,15.331 -17.801,15.375 -23.883,29.368 -8.75,49.968 2.699,3.67 6.639,10.02 11.614,10.72 7.029,1 14.992,-4.89 20.98,-7.5 9.418,-4.1 14.783,-5.53 16.831,-15.74 z"
   style="fill:#7e7e7e;stroke:#000000;stroke-width:3.08px"
   id="path65" />
                            </g><path
   d="m 211.58594,93.052376 c -2.87673,-2.368669 -8.47911,-3.176335 -10.49692,-6.154675 -2.5929,-3.822299 -5.80069,-7.017077 -8.61422,-10.655867 -2.54452,-3.284036 -1.92871,-7.855778 -2.6566,-11.746922 -0.90176,-4.811036 -3.32061,-9.438851 -5.68564,-13.673205 -0.76601,-1.371413 -1.2083,-2.816954 -1.38677,-4.359563 -0.0989,-0.825098 -0.0367,-2.240406 -0.0401,-2.237385 0.0497,-0.829094 -1.22648,-0.899118 -0.91427,-2.018863 0.27102,-0.970635 2.8939,-1.039216 3.63727,-0.743113 1.17458,0.473522 3.3137,7.293756 5.26608,3.398748 1.76897,-3.525439 -5.11945,-5.576568 -7.198,-6.088134 -0.7469,-0.183437 -3.15343,-0.01159 -2.9942,-1.269505 0.75647,-5.9501 9.62193,-0.294182 9.81648,-5.316879 0.11516,-2.890515 -4.33761,-1.885695 -5.8568,-1.021784 -0.19029,0.107924 -1.78198,1.428355 -1.9576,1.075972 -0.50344,-1.017044 1.54208,-4.367559 1.76824,-5.450536 0.85587,-4.110682 -2.29618,-8.935303 2.36134,-11.742285 0.98364,-0.591878 5.16653,6.782023 6.38522,2.913677 1.81701,-5.780119 -7.54044,-3.871737 -5.58409,-9.7167154 1.21396,-3.6280375 4.09936,-6.9472518 5.77152,-10.4178607 l -7.53166,-0.896716 c -0.27336,0.6866875 -0.57779,1.3537748 -0.94834,1.994002 -0.0326,0.059967 -0.0778,0.27591951 -0.13703,0.18787325 -3.48171,9.28761895 -11.10155,-1.43959865 -16.3761,4.56000725 -1.02814,1.1729513 -2.07569,2.5082515 -2.29416,4.1089912 -0.31921,2.3129294 1.89166,4.4375494 4.11247,3.3286504 3.39108,-1.6937845 4.64998,-5.5874557 7.87166,-7.4142679 1.04505,-0.594003 3.19965,-1.405324 4.12201,-0.1135544 0.63375,0.8877863 -0.32489,2.5154468 -0.81698,3.2464332 -1.80856,2.6790626 -3.89083,4.9743861 -4.94652,8.1139551 -1.146,3.408934 -0.44565,7.113952 -1.55217,10.563631 -0.24182,0.752434 -0.30758,2.818674 -1.0471,3.265539 -0.6223,0.37423 -1.45226,-1.221611 -1.64204,-1.60677 -1.19389,-2.411664 -2.2561,-5.298555 -4.05356,-7.325515 -0.67062,-0.7568 -2.66254,-1.745325 -3.10429,-0.186023 -1.17877,4.170993 9.44931,10.55175 9.18674,14.502869 -0.41235,6.235178 7.04732,35.727299 7.81258,38.295173 3.12306,10.475165 11.12626,23.738985 23.28112,35.048861 8.57462,7.9799 -14.42864,9.1428 -14.68508,34.7346 -0.0357,3.60995 -4.55011,5.85822 -8.34617,6.07581 -2.11649,0.1215 -3.81684,-0.83504 -6.01653,-0.34764 -3.65758,0.81285 -7.21001,3.31549 -10.69658,4.7191 -2.62396,1.05539 -5.40956,1.25612 -8.19767,1.49863 -1.88684,0.16429 -5.26754,1.03888 -7.06203,0.25408 -1.70625,-0.75049 -2.31061,-3.68928 -4.73164,-3.06034 -3.72164,0.96704 1.32975,3.26607 0.19791,4.50118 -1.0938,1.19224 -19.04762,0.0583 -19.73547,1.36517 -0.77197,1.47276 1.95659,2.60057 2.99092,2.88508 6.70658,1.8564 19.00305,-0.28351 22.39113,-0.47394 1.10995,-0.0625 2.61585,0.47926 3.25672,0.8176 0.69395,0.36731 1.55167,1.55394 0.66208,2.1908 -0.73766,0.52341 -5.04858,0.82947 -3.21596,2.70019 1.06955,1.09612 2.66389,0.80787 3.67633,-0.15704 1.63146,-1.55347 2.26307,-3.80543 3.58492,-5.5742 0.37144,-0.49375 0.87429,-1.51177 1.56442,-1.61877 0.94746,-0.14963 1.51112,0.7775 1.93497,1.45436 1.03359,1.64223 1.93476,4.57946 4.42499,3.76439 2.48059,-0.81566 -2.12283,-3.05559 -1.55732,-3.98923 0.7727,-1.26953 2.4468,-1.54332 3.66519,-2.23143 2.53665,-1.42828 4.56601,-2.94824 7.54081,-3.29244 0.64964,-0.0772 1.28901,-0.0905 1.93294,0.0352 4.13787,0.8059 2.79915,4.68608 4.15908,7.66369 0.7042,1.54187 2.71723,4.22321 4.72715,3.18908 1.13831,-0.58971 0.76298,-2.23764 0.27336,-3.10873 -0.90903,-1.62186 -4.26289,-3.67081 -4.27808,-5.67773 -0.004,-0.73879 0.78593,-1.27518 1.27301,-1.70718 1.63153,-1.44705 3.76703,-1.67061 5.6308,-2.68771 0.43657,-0.23507 2.56976,-1.28117 2.35733,-1.50353 1.89899,10.12768 4.66041,20.77146 11.63584,28.63618 z"
   style="opacity:0.09;fill:#7e7e7e;stroke:#000000;stroke-width:1.0012px"
   id="path73" /><path
   d="m 98.777561,-5.257343 c -0.02663,0.193423 0.0862,1.4340029 0.226473,3.2450535 0.316153,4.101651 0.735352,11.2210832 -0.371948,15.4855165 -0.25224,0.974258 -0.583,1.796305 -1.021622,2.383768 -0.397065,0.533454 -0.88329,0.865917 -1.488492,0.910272 -0.506218,0.03731 -1.086884,-0.12305 -1.754054,-0.496171 -1.08338,-0.604601 -2.370449,-1.759135 -3.906125,-3.586591 -1.506343,-1.793012 -2.121243,-4.4949334 -1.965045,-6.7910142 0.116181,-1.7006355 0.78534,-3.1250244 1.541249,-4.5159303 0.789968,-1.45279153 1.670767,-2.8696333 2.174556,-4.4998368 z"
   style="opacity:0.09;fill:#7e7e7e;stroke:#000000;stroke-width:1.00025px"
   id="path77" /><path
   d="m 82.516274,-5.6512183 c -0.431811,1.3728046 0.125515,2.8976262 0.810396,4.4326704 0.62772,1.40465632 1.357466,2.8230521 1.311717,4.1360787 -0.07057,1.9644629 -0.949436,3.5440671 -1.849849,5.109535 -0.948132,1.6536452 -1.920753,3.2924902 -2.119531,5.2976002 -0.09887,0.993396 0.293724,2.624832 0.866982,4.538193 0.832535,2.778844 2.030967,6.176677 2.491586,9.041679 0.479243,2.974329 0.209181,5.377678 -2.418028,5.647675 -2.535249,0.259824 -4.496674,-0.249115 -5.987112,-1.338216 -2.258912,-1.650493 -3.433239,-4.606926 -3.924463,-8.13123 -1.258851,-9.003221 1.966551,-21.6977028 3.869777,-26.6189567 z"
   style="opacity:0.09;fill:#7e7e7e;stroke:#000000;stroke-width:1.00025px"
   id="path81" /><path
   d="m 69.924426,-7.8239062 c -0.578481,2.0709604 -1.656156,4.1823623 -2.608267,6.3128133 -0.980096,2.18597671 -1.828743,4.39233 -1.933429,6.5902676 -0.113759,2.3752229 0.405284,4.6180124 0.91645,6.8683013 0.495495,2.189552 0.981975,4.384801 0.821705,6.726343 -0.07077,1.005918 -0.640951,1.96411 -1.155326,2.914793 -0.571959,1.055186 -1.073217,2.098493 -0.949805,3.148216 0.360436,3.041833 1.643574,5.783187 2.883054,8.519331 1.203876,2.66782 2.367037,5.331092 2.507748,8.28471 0.101625,2.133168 -1.36538,5.888225 -3.42236,8.55788 -1.332292,1.732404 -2.905739,3.019278 -4.486199,3.021419 -0.270386,-7.01e-4 -0.535968,-0.173467 -0.809734,-0.447021 C 61.18639,52.17037 60.690806,51.338155 60.205811,50.315083 58.253673,46.187588 56.562925,39.044131 56.036397,37.300546 53.783269,29.853987 50.018233,19.439773 52.13848,11.719806 c 0.391749,-1.428221 1.226,-2.6113008 2.174532,-3.7253138 0.982689,-1.1557786 2.088961,-2.2357542 2.993537,-3.4153374 4.754196,-6.210584 7.911763,-13.9098934 8.383195,-21.7358968 z"
   style="opacity:0.09;fill:#7e7e7e;stroke:#000000;stroke-width:1.00025px"
   id="path85" /><path
   d="m 54.796032,-7.3391991 c -2.328435,5.6617022 -4.982226,11.2237282 -6.571037,17.0058972 -0.797912,2.9134829 -0.682374,7.0889179 -0.259516,11.7866479 0.625302,6.966495 1.912628,15.096485 1.757491,21.917847 -0.166496,7.406267 -2.001758,13.273524 -8.448293,14.21864 -1.404936,0.204063 -2.945505,-0.09399 -4.472078,-0.62542 C 34.456457,56.14607 32.145785,54.772997 30.398543,53.732637 24.356664,50.135778 21.208038,47.268882 19.614432,44.375556 18.029276,41.499595 17.991265,38.604702 18.122975,34.964291 18.239502,31.774969 18.490485,28.023872 18.01,23.238937 17.81065,21.230591 15.249211,16.178751 14.310097,12.508579 14.078905,11.607691 13.948521,10.794474 13.988241,10.138669 14.010081,9.7540124 14.091441,9.4276152 14.26184,9.1862342 18.258812,3.5499899 24.226456,0.38969245 30.275472,-2.5899224 36.41426,-5.6111251 42.637838,-8.4462363 47.053966,-13.391184 Z"
   style="opacity:0.09;fill:#7e7e7e;stroke:#000000;stroke-width:1.00025px"
   id="path89" /><path
   d="M 2.8109059,21.076442 C -1.151407,20.583021 -2.6424222,17.680371 -3.5773832,14.348156 l -0.380614,-21.0489488 24.9197442,2.3669894 c -0.6288,1.540165 -1.904707,2.8786992 -3.272685,4.15936083 C 16.270888,1.1505506 14.749538,2.4120741 13.6791,3.7443956 11.765177,6.1293986 10.097222,8.8357939 9.4291641,11.85896 9.2675063,12.589292 9.3237225,13.628494 9.4410821,14.780432 9.6085615,16.422924 9.8932057,18.306737 9.740251,19.793463 9.6479064,20.68938 9.4065318,21.437287 8.8196289,21.84598 8.431428,22.113981 7.9020695,22.226462 7.1914024,22.155815 6.245745,22.064623 5.564182,21.844398 4.9269403,21.626441 4.249835,21.393308 3.6222718,21.166713 2.815651,21.075966 Z"
   style="opacity:0.09;fill:#7e7e7e;stroke:#000000;stroke-width:1.00025px"
   id="path93" />
    <text
   x="86.037636"
   y="120.04736"
   style="font-size:55.0504px;font-family:Inter-Regular_SemiBold, Inter;fill:#4c4c4c;stroke-width:4.58753"
   id="text116">?</text>
</svg>
