<?xml version="1.0" encoding="UTF-8" standalone="no"?>
<!-- Created with Inkscape (http://www.inkscape.org/) -->

<svg
   xmlns:dc="http://purl.org/dc/elements/1.1/"
   xmlns:cc="http://creativecommons.org/ns#"
   xmlns:rdf="http://www.w3.org/1999/02/22-rdf-syntax-ns#"
   xmlns:svg="http://www.w3.org/2000/svg"
   xmlns="http://www.w3.org/2000/svg"
   xmlns:sodipodi="http://sodipodi.sourceforge.net/DTD/sodipodi-0.dtd"
   xmlns:inkscape="http://www.inkscape.org/namespaces/inkscape"
   id="svg3020"
   version="1.1"
   inkscape:version="0.48.4 r9939"
   width="1052.3625"
   height="744.095"
   xml:space="preserve"
   sodipodi:docname="Logo_EN_4c_AI.ai.pdf"><metadata
     id="metadata3026"><rdf:RDF><cc:Work
         rdf:about=""><dc:format>image/svg+xml</dc:format><dc:type
           rdf:resource="http://purl.org/dc/dcmitype/StillImage" /><dc:title></dc:title></cc:Work></rdf:RDF></metadata><defs
     id="defs3024"><clipPath
       clipPathUnits="userSpaceOnUse"
       id="clipPath3034"><path
         d="m 0,595.276 841.89,0 L 841.89,0 0,0 0,595.276 z"
         id="path3036" /></clipPath></defs><sodipodi:namedview
     pagecolor="#ffffff"
     bordercolor="#666666"
     borderopacity="1"
     objecttolerance="10"
     gridtolerance="10"
     guidetolerance="10"
     inkscape:pageopacity="0"
     inkscape:pageshadow="2"
     inkscape:window-width="1918"
     inkscape:window-height="1057"
     id="namedview3022"
     showgrid="false"
     inkscape:zoom="1.2068352"
     inkscape:cx="526.18127"
     inkscape:cy="405.19203"
     inkscape:window-x="1366"
     inkscape:window-y="21"
     inkscape:window-maximized="0"
     inkscape:current-layer="g3028" /><g
     id="g3028"
     inkscape:groupmode="layer"
     inkscape:label="Logo_EN_4c_AI.ai"
     transform="matrix(1.25,0,0,-1.25,0,744.095)"><g
       id="g3030"><g
         id="g3032"
         clip-path="url(#clipPath3034)"><g
           id="g3038"
           transform="translate(482.0518,317.2637)"><path
             d="m 0,0 c -9.639,0 -12.699,-5.619 -12.699,-12.197 l 0,-45.366 -23.871,0 0,72.914 23.871,0 0,-6.443 c 6.121,6.443 16.219,8.362 23.564,8.362 0.475,0 0.935,-0.011 1.393,-0.023 -7.754,5.823 -17.39,9.276 -27.834,9.276 -25.621,0 -46.391,-20.768 -46.391,-46.39 0,-25.62 20.77,-46.391 46.391,-46.391 10.167,0 19.562,3.279 27.207,8.826 l 0,45.508 C 11.631,-4.797 9.182,0 0,0"
             style="fill:#005796;fill-opacity:1;fill-rule:nonzero;stroke:none"
             id="path3040" /></g><g
           id="g3042"
           transform="translate(43.3745,306.7725)"><path
             d="m 0,0 1.824,0 0,-1.439 0.047,0 c 0.721,0.935 1.873,1.728 3.217,1.728 1.248,0 2.713,-0.505 3.336,-1.992 0.816,1.127 2.256,1.992 3.48,1.992 1.873,0 3.744,-0.816 3.744,-4.178 l 0,-7.585 -1.967,0 0,7.682 c 0,1.416 -0.624,2.257 -2.017,2.257 -1.224,0 -2.855,-0.673 -2.855,-2.401 l 0,-7.538 -1.969,0 0,7.682 c 0,1.416 -0.624,2.257 -2.016,2.257 -1.224,0 -2.856,-0.673 -2.856,-2.401 l 0,-7.538 -1.968,0 L 0,0 z"
             style="fill:#9b9a9e;fill-opacity:1;fill-rule:nonzero;stroke:none"
             id="path3044" /></g><g
           id="g3046"
           transform="translate(73.5669,300.8916)"><path
             d="m 0,0 c -3.216,-0.455 -5.448,-0.815 -5.448,-2.592 0,-1.392 1.271,-1.752 2.208,-1.752 1.848,0 3.24,1.128 3.24,3.025 L 0,0 z M 0,2.305 C 0,3.938 -0.72,4.633 -2.688,4.633 -4.2,4.633 -4.969,3.841 -5.04,2.281 L -7.009,2.4 c 0.264,2.593 1.801,3.77 4.344,3.77 1.945,0 4.633,-0.529 4.633,-3.553 l 0,-5.328 c 0,-1.129 0.431,-1.297 0.84,-1.297 0.216,0 0.408,0.049 0.6,0.12 l 0,-1.633 C 3.024,-5.616 2.592,-5.688 2.185,-5.688 c -1.177,0 -1.729,0.504 -1.993,1.584 -1.08,-1.2 -2.472,-1.776 -4.081,-1.776 -2.04,0 -3.673,1.392 -3.673,3.169 0,3.168 2.833,3.744 7.562,4.008 l 0,1.008 z"
             style="fill:#9b9a9e;fill-opacity:1;fill-rule:nonzero;stroke:none"
             id="path3048" /></g><g
           id="g3050"
           transform="translate(85.9023,301.1084)"><path
             d="m 0,0 -3.336,5.664 2.232,0 2.233,-3.912 2.375,3.912 2.232,0 L 2.232,0 l 3.504,-5.81 -2.232,0 -2.375,4.034 -2.45,-4.034 -2.183,0 L 0,0 z"
             style="fill:#9b9a9e;fill-opacity:1;fill-rule:nonzero;stroke:none"
             id="path3052" /></g><g
           id="g3054"
           transform="translate(115.0156,305.3809)"><path
             d="m 0,0 c -2.545,0 -3.578,-2.064 -3.578,-4.345 0,-2.28 1.297,-4.343 3.578,-4.343 2.543,0 3.576,2.063 3.576,4.343 C 3.576,-2.064 2.543,0 0,0 m -5.473,1.392 1.967,0 0,-1.368 0.049,0 -0.023,0 c 0.623,0.864 2.039,1.657 3.671,1.657 4.057,0 5.497,-2.953 5.497,-6.026 0,-3.072 -1.536,-6.024 -5.473,-6.024 -1.535,0 -2.832,0.576 -3.672,1.727 l -0.049,0 0,-6.817 -1.967,0 0,16.851 z"
             style="fill:#9b9a9e;fill-opacity:1;fill-rule:nonzero;stroke:none"
             id="path3056" /></g><path
           d="m 127.783,312.39 1.967,0 0,-17.091 -1.967,0 0,17.091 z"
           style="fill:#9b9a9e;fill-opacity:1;fill-rule:nonzero;stroke:none"
           id="path3058" /><g
           id="g3060"
           transform="translate(144.2461,300.8916)"><path
             d="m 0,0 c -3.215,-0.455 -5.447,-0.815 -5.447,-2.592 0,-1.392 1.271,-1.752 2.207,-1.752 1.849,0 3.24,1.128 3.24,3.025 L 0,0 z m 0,2.305 c 0,1.633 -0.719,2.328 -2.688,2.328 -1.511,0 -2.281,-0.792 -2.351,-2.352 L -7.008,2.4 c 0.264,2.593 1.801,3.77 4.344,3.77 1.945,0 4.633,-0.529 4.633,-3.553 l 0,-5.328 c 0,-1.129 0.431,-1.297 0.84,-1.297 0.216,0 0.408,0.049 0.599,0.12 l 0,-1.633 C 3.025,-5.616 2.592,-5.688 2.186,-5.688 c -1.178,0 -1.729,0.504 -1.993,1.584 -1.08,-1.2 -2.472,-1.776 -4.082,-1.776 -2.039,0 -3.672,1.392 -3.672,3.169 0,3.168 2.832,3.744 7.561,4.008 l 0,1.008 z"
             style="fill:#9b9a9e;fill-opacity:1;fill-rule:nonzero;stroke:none"
             id="path3062" /></g><g
           id="g3064"
           transform="translate(154.3262,306.7725)"><path
             d="m 0,0 1.969,0 0,-1.535 0.047,0 c 0.744,1.151 1.873,1.824 3.361,1.824 2.303,0 4.055,-1.009 4.055,-4.201 l 0,-7.562 -1.967,0 0,7.37 c 0,1.968 -1.033,2.569 -2.424,2.569 -1.824,0 -3.072,-1.177 -3.072,-3.026 l 0,-6.913 -1.969,0 L 0,0 z"
             style="fill:#9b9a9e;fill-opacity:1;fill-rule:nonzero;stroke:none"
             id="path3066" /></g><g
           id="g3068"
           transform="translate(179.623,302.9805)"><path
             d="m 0,0 c -0.289,1.56 -1.465,2.544 -3.049,2.544 -2.785,0 -3.576,-2.424 -3.576,-4.512 0,-2.232 0.936,-4.465 3.527,-4.465 1.946,0 3.217,1.153 3.289,3.096 l 2.112,-0.168 c -0.336,-2.783 -2.448,-4.464 -5.328,-4.464 -3.696,0 -5.713,2.401 -5.713,5.906 0,3.551 1.992,6.144 5.689,6.144 2.401,0 4.608,-1.249 5.16,-3.865 L 0,0 z"
             style="fill:#9b9a9e;fill-opacity:1;fill-rule:nonzero;stroke:none"
             id="path3070" /></g><g
           id="g3072"
           transform="translate(188.8379,312.3896)"><path
             d="m 0,0 1.969,0 0,-10.537 4.511,4.872 2.377,0 -4.177,-4.536 5.162,-6.89 -2.473,0 -4.033,5.474 -1.367,-1.465 0,-4.009 -1.969,0 L 0,0 z"
             style="fill:#9b9a9e;fill-opacity:1;fill-rule:nonzero;stroke:none"
             id="path3074" /></g><path
           d="m 216.605,306.772 1.969,0 0,-11.474 -1.969,0 0,11.474 z m 0,5.618 1.969,0 0,-2.256 -1.969,0 0,2.256 z"
           style="fill:#9b9a9e;fill-opacity:1;fill-rule:nonzero;stroke:none"
           id="path3076" /><g
           id="g3078"
           transform="translate(226.3496,306.7725)"><path
             d="m 0,0 1.969,0 0,-1.535 0.047,0 c 0.744,1.151 1.873,1.824 3.361,1.824 2.303,0 4.055,-1.009 4.055,-4.201 l 0,-7.562 -1.967,0 0,7.37 c 0,1.968 -1.033,2.569 -2.424,2.569 -1.824,0 -3.072,-1.177 -3.072,-3.026 l 0,-6.913 -1.969,0 L 0,0 z"
             style="fill:#9b9a9e;fill-opacity:1;fill-rule:nonzero;stroke:none"
             id="path3080" /></g><g
           id="g3082"
           transform="translate(244.9492,299.332)"><path
             d="m 0,0 c 0,-2.136 1.68,-2.784 3.264,-2.784 0.912,0 2.568,0.288 2.568,1.969 0,2.855 -7.488,0.719 -7.488,5.208 0,2.328 2.281,3.336 4.32,3.336 1.561,0 4.92,-0.792 4.92,-3.745 L 5.617,3.72 c 0,1.68 -1.369,2.472 -2.857,2.472 -1.055,0 -2.447,-0.311 -2.447,-1.704 0,-2.592 7.632,-0.743 7.632,-5.28 0,-2.424 -2.472,-3.528 -4.968,-3.528 -2.52,0 -4.825,1.152 -5.088,4.056 L 0,0 z"
             style="fill:#9b9a9e;fill-opacity:1;fill-rule:nonzero;stroke:none"
             id="path3084" /></g><g
           id="g3086"
           transform="translate(258.6055,306.7725)"><path
             d="m 0,0 1.895,0 0,3.576 1.968,0 L 3.863,0 6,0 l 0,-1.68 -2.137,0 0,-7.297 c 0,-0.551 0,-1.103 0.793,-1.103 0.432,0 0.817,0.096 1.223,0.24 l 0,-1.681 c -0.647,-0.144 -1.295,-0.24 -1.943,-0.24 -2.041,0 -2.041,0.96 -2.041,2.257 l 0,7.824 L 0,-1.68 0,0 z"
             style="fill:#9b9a9e;fill-opacity:1;fill-rule:nonzero;stroke:none"
             id="path3088" /></g><path
           d="m 271.373,306.772 1.969,0 0,-11.474 -1.969,0 0,11.474 z m 0,5.618 1.969,0 0,-2.256 -1.969,0 0,2.256 z"
           style="fill:#9b9a9e;fill-opacity:1;fill-rule:nonzero;stroke:none"
           id="path3090" /><g
           id="g3092"
           transform="translate(279.7734,306.7725)"><path
             d="m 0,0 1.895,0 0,3.576 1.968,0 L 3.863,0 6,0 l 0,-1.68 -2.137,0 0,-7.297 c 0,-0.551 0,-1.103 0.793,-1.103 0.432,0 0.817,0.096 1.223,0.24 l 0,-1.681 c -0.647,-0.144 -1.295,-0.24 -1.943,-0.24 -2.041,0 -2.041,0.96 -2.041,2.257 l 0,7.824 L 0,-1.68 0,0 z"
             style="fill:#9b9a9e;fill-opacity:1;fill-rule:nonzero;stroke:none"
             id="path3094" /></g><g
           id="g3096"
           transform="translate(302.021,295.2988)"><path
             d="m 0,0 -1.969,0 0,1.537 -0.047,0 c -0.744,-1.152 -1.873,-1.824 -3.361,-1.824 -2.302,0 -4.054,1.009 -4.054,4.2 l 0,7.561 1.967,0 0,-7.561 c 0,-1.632 1.007,-2.376 2.423,-2.376 1.824,0 3.072,1.177 3.072,3.025 l 0,6.912 1.969,0 L 0,0 z"
             style="fill:#9b9a9e;fill-opacity:1;fill-rule:nonzero;stroke:none"
             id="path3098" /></g><g
           id="g3100"
           transform="translate(308.4995,306.7725)"><path
             d="m 0,0 1.896,0 0,3.576 1.969,0 0,-3.576 2.137,0 0,-1.68 -2.137,0 0,-7.297 c 0,-0.551 0,-1.103 0.791,-1.103 0.434,0 0.817,0.096 1.225,0.24 l 0,-1.681 c -0.649,-0.144 -1.295,-0.24 -1.943,-0.24 -2.042,0 -2.042,0.96 -2.042,2.257 l 0,7.824 L 0,-1.68 0,0 z"
             style="fill:#9b9a9e;fill-opacity:1;fill-rule:nonzero;stroke:none"
             id="path3102" /></g><g
           id="g3104"
           transform="translate(329.3335,302.1406)"><path
             d="M 0,0 C -0.24,1.872 -1.297,3.384 -3.457,3.384 -5.377,3.384 -6.48,1.752 -6.602,0 L 0,0 z m -6.602,-1.536 c 0,-2.28 1.202,-4.057 3.457,-4.057 1.729,0 2.786,0.864 3.217,2.569 l 1.944,-0.241 c -0.745,-2.568 -2.688,-3.864 -5.233,-3.864 -3.504,-0.072 -5.496,2.664 -5.496,5.929 0,3.721 1.752,6.121 5.473,6.121 3.599,0 5.351,-2.617 5.351,-6.001 l 0,-0.456 -8.713,0 z"
             style="fill:#9b9a9e;fill-opacity:1;fill-rule:nonzero;stroke:none"
             id="path3106" /></g><g
           id="g3108"
           transform="translate(354.9644,296.5479)"><path
             d="M 0,0 C 2.832,0 3.504,2.592 3.504,4.488 3.504,6.385 2.832,8.977 0,8.977 -2.832,8.977 -3.504,6.385 -3.504,4.488 -3.504,2.592 -2.832,0 0,0 m 0,10.514 c 3.504,0 5.617,-2.545 5.617,-6.026 0,-3.48 -2.113,-6.024 -5.617,-6.024 -3.504,0 -5.617,2.544 -5.617,6.024 0,3.481 2.113,6.026 5.617,6.026"
             style="fill:#9b9a9e;fill-opacity:1;fill-rule:nonzero;stroke:none"
             id="path3110" /></g><g
           id="g3112"
           transform="translate(368.2593,305.0928)"><path
             d="m 0,0 -1.895,0 0,1.68 1.895,0 0,2.041 c 0,2.519 0.984,3.576 3.193,3.576 0.432,0 0.864,-0.072 1.248,-0.145 l 0,-1.488 C 4.129,5.713 3.842,5.76 3.361,5.76 2.736,5.76 1.969,5.568 1.969,4.152 l 0,-2.472 2.136,0 0,-1.68 -2.136,0 0,-9.794 L 0,-9.794 0,0 z"
             style="fill:#9b9a9e;fill-opacity:1;fill-rule:nonzero;stroke:none"
             id="path3114" /></g><g
           id="g3116"
           transform="translate(180.8633,278.7803)"><path
             d="m 0,0 2.928,0 0,-1.2 0.047,0 c 0.865,1.055 2.136,1.488 3.312,1.488 2.881,0 4.178,-1.464 4.178,-4.128 l 0,-8.305 -2.93,0 0,7.416 c 0,1.104 -0.504,2.185 -2.015,2.185 -1.416,0 -2.592,-0.96 -2.592,-3.192 l 0,-6.409 -2.928,0 L 0,0 z"
             style="fill:#6f6e72;fill-opacity:1;fill-rule:nonzero;stroke:none"
             id="path3118" /></g><g
           id="g3120"
           transform="translate(207.2148,274.2686)"><path
             d="M 0,0 C 0,0.647 -0.793,2.399 -2.76,2.399 -4.465,2.399 -5.592,1.295 -5.904,0 L 0,0 z m -5.904,-2.257 c 0.047,-1.8 1.56,-2.975 3.144,-2.975 2.303,0 3.215,1.319 3.504,1.727 l 2.473,-1.44 C 2.305,-6.338 0.553,-7.922 -2.76,-7.922 c -3.937,0 -6.217,2.736 -6.217,6.361 0,3.624 2.28,6.361 6.217,6.361 4.057,0 5.832,-2.712 5.832,-7.057 l -8.976,0 z"
             style="fill:#6f6e72;fill-opacity:1;fill-rule:nonzero;stroke:none"
             id="path3122" /></g><g
           id="g3124"
           transform="translate(228.0469,266.6357)"><path
             d="m 0,0 -2.928,0 0,1.199 -0.049,0 c -0.646,-0.84 -1.822,-1.488 -3.478,-1.488 -2.065,0 -4.441,0.865 -4.441,4.393 l 0,8.041 2.927,0 0,-7.202 c 0,-1.679 0.672,-2.399 2.16,-2.399 2.209,0 2.881,1.608 2.881,3.072 l 0,6.529 2.928,0 L 0,0 z"
             style="fill:#6f6e72;fill-opacity:1;fill-rule:nonzero;stroke:none"
             id="path3126" /></g><g
           id="g3128"
           transform="translate(235.7266,278.7803)"><path
             d="m 0,0 2.928,0 0,-1.68 0.047,0 c 0.697,1.392 2.041,1.968 3.746,1.968 l 0,-2.976 c -1.992,0 -3.793,-0.937 -3.793,-3.577 l 0,-5.88 -2.928,0 L 0,0 z"
             style="fill:#6f6e72;fill-opacity:1;fill-rule:nonzero;stroke:none"
             id="path3130" /></g><g
           id="g3132"
           transform="translate(251.2773,272.708)"><path
             d="m 0,0 c 0,-1.896 1.057,-3.672 3.145,-3.672 2.087,0 3.144,1.776 3.144,3.672 0,1.896 -1.057,3.672 -3.144,3.672 C 1.057,3.672 0,1.896 0,0 m 9.361,0 c 0,-3.625 -2.279,-6.361 -6.216,-6.361 -3.936,0 -6.217,2.736 -6.217,6.361 0,3.624 2.281,6.36 6.217,6.36 3.937,0 6.216,-2.736 6.216,-6.36"
             style="fill:#6f6e72;fill-opacity:1;fill-rule:nonzero;stroke:none"
             id="path3134" /></g><g
           id="g3136"
           transform="translate(270.3828,272.708)"><path
             d="M 0,0 C 0.023,-1.752 0.672,-3.672 2.879,-3.672 5.088,-3.672 5.736,-1.752 5.76,0 5.736,1.752 5.088,3.672 2.879,3.672 0.672,3.672 0.023,1.752 0,0 m -2.832,11.017 2.928,0 0,-5.977 c 0.888,0.816 2.015,1.32 3.455,1.32 3.121,0 5.281,-2.856 5.281,-6.36 0,-3.504 -2.16,-6.361 -5.281,-6.361 -1.752,0 -2.688,0.6 -3.408,1.465 l -0.047,0 0,-1.176 -2.928,0 0,17.089 z"
             style="fill:#6f6e72;fill-opacity:1;fill-rule:nonzero;stroke:none"
             id="path3138" /></g><path
           d="m 286.125,278.78 2.928,0 0,-12.145 -2.928,0 0,12.145 z m 0,4.945 2.928,0 0,-2.976 -2.928,0 0,2.976 z"
           style="fill:#6f6e72;fill-opacity:1;fill-rule:nonzero;stroke:none"
           id="path3140" /><g
           id="g3142"
           transform="translate(299.0371,272.708)"><path
             d="m 0,0 c 0,-1.896 1.057,-3.672 3.145,-3.672 2.087,0 3.144,1.776 3.144,3.672 0,1.896 -1.057,3.672 -3.144,3.672 C 1.057,3.672 0,1.896 0,0 m 9.361,0 c 0,-3.625 -2.279,-6.361 -6.216,-6.361 -3.936,0 -6.217,2.736 -6.217,6.361 0,3.624 2.281,6.36 6.217,6.36 3.937,0 6.216,-2.736 6.216,-6.36"
             style="fill:#6f6e72;fill-opacity:1;fill-rule:nonzero;stroke:none"
             id="path3144" /></g><path
           d="m 315.309,283.725 2.928,0 0,-17.089 -2.928,0 0,17.089 z"
           style="fill:#6f6e72;fill-opacity:1;fill-rule:nonzero;stroke:none"
           id="path3146" /><g
           id="g3148"
           transform="translate(328.2207,272.708)"><path
             d="m 0,0 c 0,-1.896 1.057,-3.672 3.145,-3.672 2.087,0 3.144,1.776 3.144,3.672 0,1.896 -1.057,3.672 -3.144,3.672 C 1.057,3.672 0,1.896 0,0 m 9.361,0 c 0,-3.625 -2.279,-6.361 -6.216,-6.361 -3.936,0 -6.217,2.736 -6.217,6.361 0,3.624 2.281,6.36 6.217,6.36 3.937,0 6.216,-2.736 6.216,-6.36"
             style="fill:#6f6e72;fill-opacity:1;fill-rule:nonzero;stroke:none"
             id="path3150" /></g><g
           id="g3152"
           transform="translate(349.6777,276.3799)"><path
             d="m 0,0 c -2.209,0 -2.857,-1.92 -2.881,-3.216 0.024,-1.296 0.672,-3.216 2.881,-3.216 2.207,0 2.855,1.92 2.879,3.216 C 2.855,-1.92 2.207,0 0,0 m 5.711,-9.48 c 0,-3.458 -2.615,-4.297 -6.313,-4.297 -3.839,0 -4.943,2.256 -4.943,3.768 l 3.072,0 c 0.215,-0.84 1.032,-1.512 2.496,-1.512 1.897,0 2.76,0.96 2.76,2.449 l 0,1.296 c -0.935,-1.009 -2.4,-1.345 -3.457,-1.345 -3.023,0 -5.279,2.257 -5.279,5.905 0,3.648 2.256,5.904 5.279,5.904 1.754,0 2.69,-0.6 3.408,-1.463 l 0.049,0 0,1.175 2.928,0 0,-11.88 z"
             style="fill:#6f6e72;fill-opacity:1;fill-rule:nonzero;stroke:none"
             id="path3154" /></g><g
           id="g3156"
           transform="translate(368.7578,265.5557)"><path
             d="m 0,0 c -0.672,-2.232 -1.682,-2.953 -3.793,-2.953 -0.721,0 -1.225,0.072 -1.752,0.168 l 0,2.617 c 0.287,-0.049 0.623,-0.097 1.152,-0.097 0.936,0 1.272,0.265 1.631,1.033 l -4.367,12.457 3.145,0 2.615,-8.832 0.049,0 2.279,8.832 3.025,0 L 0,0 z"
             style="fill:#6f6e72;fill-opacity:1;fill-rule:nonzero;stroke:none"
             id="path3158" /></g></g></g></g></svg>