<?xml version="1.0" encoding="UTF-8" standalone="no"?>
<svg
   width="2900"
   height="400"
   viewBox="0 0 2900 400"
   version="1.1"
   xml:space="preserve"
   style="clip-rule:evenodd;fill-rule:evenodd;stroke-linejoin:round;stroke-miterlimit:2"
   id="svg1033"
   sodipodi:docname="logo-screenshot.svg"
   inkscape:version="1.1.1 (c3084ef, 2021-09-22)"
   xmlns:inkscape="http://www.inkscape.org/namespaces/inkscape"
   xmlns:sodipodi="http://sodipodi.sourceforge.net/DTD/sodipodi-0.dtd"
   xmlns="http://www.w3.org/2000/svg"
   xmlns:svg="http://www.w3.org/2000/svg"><defs
   id="defs1037">
        
    
            
            
            
            
            
            
            
            
            
            
            
            
        </defs><sodipodi:namedview
   id="namedview1035"
   pagecolor="#ffffff"
   bordercolor="#666666"
   borderopacity="1.0"
   inkscape:pageshadow="2"
   inkscape:pageopacity="0"
   inkscape:pagecheckerboard="0"
   showgrid="false"
   inkscape:zoom="0.18645173"
   inkscape:cx="1464.1859"
   inkscape:cy="142.12793"
   inkscape:window-width="1440"
   inkscape:window-height="847"
   inkscape:window-x="605"
   inkscape:window-y="1465"
   inkscape:window-maximized="1"
   inkscape:current-layer="svg1033" />
    <g
   inkscape:groupmode="layer"
   id="layer1"
   inkscape:label="background"><rect
     style="opacity:0.9;fill:#000000;fill-opacity:0.219917;stroke:none;stroke-width:35.0316;stroke-opacity:0.0248963;paint-order:stroke markers fill"
     id="rect946"
     width="2900"
     height="400"
     x="0"
     y="0" /></g><g
   id="g13275"
   transform="translate(8.8332663)"><text
     xml:space="preserve"
     style="font-size:341.333px;line-height:1.25;font-family:Nunito;-inkscape-font-specification:Nunito;clip-rule:evenodd;fill:#ffffff;fill-rule:evenodd;stroke:none;stroke-width:0;stroke-linejoin:round;stroke-miterlimit:2;stroke-dasharray:none;stroke-opacity:1"
     x="455.3024"
     y="320.31989"
     id="text5291"><tspan
       sodipodi:role="line"
       id="tspan5289"
       x="455.3024"
       y="320.31989"
       style="font-size:341.333px;stroke:none;stroke-width:0;stroke-miterlimit:2;stroke-dasharray:none;stroke-opacity:1">WEBKNOSSOS</tspan></text><g
     id="g8494"
     transform="translate(0,1.05128e-5)"><g
       transform="matrix(5.84142,0,0,5.8414244,-866.77943,-672.93079)"
       id="g1024"
       style="opacity:0.9;fill:#ffffff">
                <path
   d="m 215.466,137.379 c 1.451,3.741 2.247,7.808 2.247,12.059 0,18.434 -14.966,33.4 -33.4,33.4 -8.141,0 -15.606,-2.919 -21.404,-7.767 1.353,-3.247 3.224,-5.923 5.643,-8.479 3.628,-3.832 9.004,-6.767 12.166,-7.055 1.028,-0.094 0.964,2.796 1.216,3.678 1.023,3.579 3.76,9.64 8.288,8.025 1.122,-0.4 2.207,-0.989 3.164,-1.699 0.655,-0.486 1.206,-1.06 1.648,-1.746 4.579,-7.114 -8.376,-6.973 -9.158,-11.582 -0.493,-2.901 7.447,-5.158 15.582,-9.308 6.964,-3.552 10.818,-6.126 14.008,-9.526 z"
   style="fill:#ffffff"
   id="path1022" />
            </g><g
       transform="matrix(5.84142,0,0,5.8414244,-866.77943,-672.93079)"
       id="g1028"
       style="opacity:0.9;fill:#ffffff">
                <path
   d="m 208.223,126.137 c -4.049,11.063 -14.707,15.367 -16.152,14.949 -1.053,-0.303 0.116,-4.109 1.115,-6.716 1.098,-2.865 1.103,-5.287 0.577,-6.732 -0.427,-1.171 -2.411,-3.028 -5.218,-2.774 -2.211,0.199 -2.787,2.083 -3.36,4.039 -0.915,3.125 2.974,10.596 1.148,13.78 -1.456,2.538 -11.006,7.683 -12.291,5.833 -3.28,-4.722 -1.532,-10.825 -5.699,-9.765 -3.425,0.871 -5.207,8.696 0.001,10.99 0.985,0.434 3.953,1.393 3.51,2.735 -0.365,1.106 -10.694,3.52 -17.31,12.092 l 0.01,0.04 c -2.328,-4.553 -3.641,-9.709 -3.641,-15.17 0,-18.434 14.966,-33.4 33.4,-33.4 2.938,0 5.788,0.381 8.504,1.095 5.944,1.562 11.243,4.724 15.408,8.996 0,0.002 -0.001,0.005 -0.002,0.008 z"
   style="fill:#ffffff"
   id="path1026" />
            </g></g></g>
</svg>
