<?xml version="1.0" encoding="UTF-8" standalone="no"?>
<!-- Created with Inkscape (http://www.inkscape.org/) -->
<svg
   xmlns:svg="http://www.w3.org/2000/svg"
   xmlns="http://www.w3.org/2000/svg"
   version="1.0"
   width="602.36218"
   height="488.62204"
   id="svg1920">
  <defs
     id="defs1922" />
  <g
     id="layer1">
    <g
       transform="matrix(3.543307e-5,0,0,3.543307e-5,-3.580221e-4,6.911696e-3)"
       style="fill:#007d7a;fill-rule:evenodd"
       id="Layer_x0020_1">
  
  <g
   style="fill:#007d7a"
   id="_84203480">
   <path
   d="M 3075840,6074460 C 3075840,3086720 5507050,655580 8495510,655580 C 11483240,655580 13914190,3086720 13914190,6074460 C 13914190,9062920 11483240,11493400 8495510,11493400 C 5507050,11493400 3075840,9062920 3075840,6074460 z M 2920320,6074460 C 2920320,9148540 5421430,11648920 8495510,11648920 C 11569520,11648920 14070630,9148540 14070630,6074460 C 14070630,3000450 11569520,499990 8495510,499990 C 5421430,499990 2920320,3000450 2920320,6074460 z "
   style="fill:#007d7a"
   id="_49116176" />

   <path
   d="M 12158100,6981150 C 12005860,7122410 11790960,7124510 11616960,7239330 C 11537460,7318830 11557310,7410040 11589870,7510590 C 11654380,7637570 11629850,7624750 11540280,7654670 C 11330250,7724570 11332350,7954470 11079370,7916330 C 11065100,7920340 11006120,7890550 11041430,7933360 C 11068590,7965250 11079370,7946250 11133100,7952360 C 11222930,7957030 11256860,7919610 11319990,7876800 C 11409750,7800790 11398830,7772250 11510360,7719180 C 11536800,7712400 11602030,7693470 11638730,7706360 C 11663250,7728780 11663980,7729440 11667990,7749820 C 11653720,7811570 11564090,7862600 11529300,7883640 C 11576980,7918430 11665360,7976890 11650360,8025750 C 11629850,8058300 11631230,8063890 11595920,8080730 C 11545680,8105250 11445790,8101110 11351290,8031140 C 11337020,8035880 11321370,8004050 11281390,8042130 C 11373060,8136620 11501480,8115380 11520620,8134520 C 11540280,8153460 11451900,8267620 11448550,8292140 C 11386600,8456020 11462160,8606870 11429410,8777390 C 11409090,8909960 11368850,8973150 11252850,9057520 C 11038670,9205610 10888470,9248420 10649240,9287220 C 10019910,9329970 9622920,9113880 9170360,8775350 C 8716950,8436880 8543610,8257550 8402350,8067180 C 8400250,7989060 8457330,7929870 8408470,7845700 C 8367570,7859970 8371710,7913560 8347180,7944140 C 8311870,7993730 8228350,8029760 8168510,8023710 C 7982340,7960520 7972090,7741670 7855170,7616530 C 7605800,7370520 7535700,7015740 7669000,6718770 C 7715820,6627040 7800190,6538660 7894620,6505970 C 8010880,6487690 8148130,6487690 8224210,6600470 C 8313970,6686220 8369670,6825440 8392090,6948410 C 8428790,7007590 8383940,7075590 8445160,7124510 C 8551830,7134770 8643490,7161210 8746150,7095970 C 8822360,7106230 8832490,7190470 8890230,7227160 L 8992150,7288390 C 9100920,7333100 9240990,7333100 9332660,7253600 C 9504750,7077690 9467330,6896260 9526520,6701740 C 9690920,6556410 9799680,6348350 9797580,6145080 C 9787520,6020210 9742610,5890920 9668490,5766500 C 9680660,5692590 9722220,5637420 9745890,5571460 C 9766940,5559290 9793570,5559290 9815990,5555280 C 9998740,5516480 10164720,5350700 10236000,5175980 L 10252380,5159610 C 10461690,5145400 10721970,5071220 10842240,4852570 C 10867430,4758080 10973430,4828040 11039320,4805550 C 11150200,4799500 11260800,4737560 11344520,4666210 C 11368850,4658060 11387330,4684620 11402250,4696850 C 11451180,4860530 11540940,5018350 11592630,5184860 C 11655760,5309280 11678900,5428100 11655760,5555280 C 11682260,5749670 11793790,5932480 11871190,6128910 C 11948780,6336180 12069720,6544770 12158100,6758230 C 12174270,6843850 12210970,6911910 12158100,6981150 z M 12200910,6623620 C 12053340,6283110 11887560,5990940 11766630,5648400 C 11680350,5525360 11729930,5394890 11718950,5262980 C 11663980,5058400 11577630,4900710 11496090,4701520 C 11472940,4644440 11536800,4628270 11559220,4587360 C 11595920,4486820 11570200,4374100 11524630,4277500 C 11506350,4222330 11572110,4183730 11559220,4126650 C 11557310,4038270 11479720,3978430 11417970,3931610 C 11325380,3798310 11282570,3728410 11167750,3608000 L 11167750,3584850 C 11225490,3533890 11272510,3445640 11271130,3370150 C 11247980,3284530 11229700,3204370 11147370,3144460 C 11016180,3071070 10883080,3185890 10779050,3245070 C 10749850,3265390 10735580,3285970 10694680,3282490 C 10668240,3272890 10641080,3262830 10612540,3252570 C 10585910,3283150 10552700,3315900 10512650,3347720 L 10639700,3399410 C 10643840,3402900 10645750,3405460 10645750,3410330 C 10645750,3412230 10644370,3416440 10644370,3419730 C 10635690,3427230 10349500,3678100 10349500,3678100 C 10348780,3678630 9834270,4186360 9834270,4186360 C 9834270,4187020 9687430,4336690 9687430,4336690 C 9686250,4337340 9229480,4864020 9229480,4864020 C 8990250,5141390 8636720,5595990 8424780,5929000 C 8313970,6081230 8203820,6250560 8101170,6410950 C 8090390,6428570 8069350,6427130 8035940,6423180 C 8013520,6420350 7989840,6418450 7969320,6425220 C 7969320,6425220 7969980,6425220 7969980,6425220 L 7965310,6426470 C 7966690,6425940 7968070,6425940 7969320,6425220 C 7853060,6438110 7768160,6476910 7677880,6558320 C 7560960,6697010 7501770,6864230 7501770,7045010 C 7501770,7169430 7529650,7300550 7586670,7431740 C 7562860,7502430 7507890,7564380 7458300,7619350 L 7430420,7649930 L 7395110,7685250 C 7372690,7706360 7346050,7731410 7327770,7755210 L 7325730,7757320 L 7324290,7760610 C 7322380,7768100 7321000,7782370 7344150,7793290 L 7349540,7796640 L 7355650,7795390 C 7463700,7769480 7531690,7687880 7597650,7609100 C 7597650,7609100 7639080,7561550 7645130,7554060 C 7655390,7552670 7663610,7558070 7677150,7570430 C 7684650,7576540 7693330,7581940 7702930,7586610 C 7702930,7589430 7702930,7592200 7702930,7592200 C 7702930,7592200 7701550,7627510 7701550,7635660 C 7445420,7888510 7236630,8031140 6963460,8191600 L 6917890,8218030 L 6970960,8223620 C 7077090,8234410 7178360,8174500 7276150,8116760 L 7393730,8052190 C 7501770,7996550 7602320,7911660 7700300,7830050 C 7700300,7830050 7787830,7756600 7797360,7748440 C 7806960,7750550 7817020,7761990 7824520,7771590 C 7824520,7771590 7830770,7777640 7834780,7781850 C 7836160,7784480 7916390,7943490 7921120,7953020 C 7902840,8027860 7895340,8103220 7895340,8178710 C 7895340,8342450 7930660,8506320 7965310,8666050 C 7999900,8823680 8035220,8986040 8035220,9145770 C 8035220,9156690 8035220,9166820 8034560,9177080 C 8034560,9226660 7980960,9291890 7935390,9312940 C 7833400,9329970 7708980,9331410 7578510,9332790 C 7417600,9333980 7251100,9335360 7123190,9370010 C 7082490,9374880 7034810,9388430 6988710,9401320 C 6943800,9413480 6896850,9427230 6853310,9432680 L 6849300,9433340 L 6843910,9437350 L 6828260,9448330 C 6813990,9457010 6795580,9468650 6791570,9489700 C 6791570,9491800 6790840,9493710 6790840,9495810 C 6790840,9507320 6796230,9521720 6805830,9530400 C 6814710,9540000 6825500,9544020 6837140,9543490 C 6875740,9543490 6919270,9527110 6961360,9512190 C 6990620,9501210 7021200,9490420 7049080,9485550 C 7316330,9440110 7608430,9448990 7806960,9465170 C 7904750,9463790 8065140,9460500 8122940,9321160 C 8143980,9264730 8151480,9212390 8151480,9162080 C 8151480,9106450 8142730,9053380 8133920,8998410 L 8116170,8863010 C 8104660,8780870 8086900,8698610 8070000,8618380 C 8040080,8477780 8009500,8332320 8009500,8184820 C 8009500,8154900 8010880,8124920 8013520,8095000 C 8016280,8090980 8019560,8086840 8023770,8086320 C 8031930,8084930 8046920,8097100 8059090,8106700 C 8072630,8116760 8086900,8127740 8102550,8131760 C 8120310,8144580 8139970,8148790 8158250,8150890 C 8184160,8154180 8197770,8157670 8205930,8177330 C 8216710,8306410 8261630,8440370 8305090,8570180 C 8335020,8659080 8365660,8750950 8385320,8841240 C 8420630,8998410 8455950,9158070 8455950,9315760 C 8455950,9409540 8443780,9502590 8410510,9593800 C 8342510,9718670 8192380,9718670 8048300,9719400 L 8004770,9719400 L 7649860,9697630 C 7346050,9675860 7031520,9653440 6709230,9705130 C 6711340,9705130 6637230,9713280 6637230,9713280 C 6597240,9719400 6559830,9724260 6519580,9714660 C 6504650,9702500 6492490,9681980 6492490,9659560 C 6492490,9652720 6493870,9645940 6496630,9639170 C 6554440,9512190 6582970,9397300 6582970,9295380 C 6582970,9213050 6563840,9139660 6526420,9074420 C 6442910,8914690 6351170,8804020 6238260,8726420 C 6099570,8588460 5981470,8465420 5876060,8345940 C 5814970,8338440 5777550,8326080 5772680,8324830 L 5759140,8319960 L 5698040,8396180 C 5777550,8471540 5851660,8547750 5941290,8629360 C 6078530,8703280 6189400,8836570 6287840,8927060 C 6406870,9065550 6435410,9213050 6410160,9377510 C 6394700,9572030 6216500,9656200 6095630,9784630 C 6046050,9877020 6015400,9987830 6082740,10073450 C 6126210,10188460 6310330,10167950 6332760,10262380 C 6383720,10470510 6744610,10590720 6815370,10595450 C 6885340,10600320 6958070,10678440 6958070,10678440 C 7101430,10783130 7289700,10757220 7388860,10742290 C 7487500,10727300 7664260,10807530 7775660,10791150 C 7940780,10725190 8076840,10755840 8248740,10741570 C 8789680,10749720 9404200,10737560 9957310,10807530 C 10059960,10795360 10182280,10874860 10278810,10825940 C 10303870,10784380 10284930,10749720 10278810,10715130 C 10014390,10299140 9975070,9832310 10125200,9379620 L 10224360,9385010 C 10584000,9424460 10910240,9377510 11274550,9166820 C 11456570,9066200 11552450,8831840 11544230,8661190 C 11538180,8551040 11500040,8420570 11518520,8303780 C 11525290,8251440 11559220,8171940 11604790,8147410 C 11623070,8136620 11690410,8090980 11711460,8032520 C 11746110,7938090 11672130,7893180 11650360,7880290 C 11708830,7856480 11764520,7738310 11711460,7645790 C 11677520,7609750 11637340,7465670 11633330,7418920 C 11620440,7350860 11618410,7281610 11682260,7238140 C 11825610,7162590 11960950,7144170 12110420,7078410 C 12213070,7035410 12266140,6928740 12262000,6832870 L 12200910,6623620 z M 6343740,10001440 C 6325260,10034850 6327370,10056550 6319150,10095870 C 6308890,10114350 6257920,10089820 6241750,10079700 C 6178420,10045630 6182560,10063390 6164150,10004200 C 6154090,9964680 6154750,9918580 6220700,9883990 C 6261410,9860850 6343740,9833030 6370180,9883990 C 6378330,9918580 6337620,9962770 6343740,10001440 z M 6692930,10444600 C 6608690,10446640 6550230,10400410 6511630,10301900 C 6472100,10175440 6458560,10064770 6485720,9934230 C 6494530,9918580 6512810,9907670 6525170,9913190 L 6642090,9873010 C 6681420,9857360 6714170,9851970 6751390,9860850 L 6774530,9884520 C 6773090,9952520 6756250,10002820 6754870,10065950 C 6748030,10224500 6734490,10271980 6779930,10422830 C 6763030,10463010 6729090,10443870 6692930,10444600 z M 11507530,4551390 C 11496090,4563560 11481820,4577830 11462820,4573090 C 11419350,4542510 11435530,4503850 11438290,4467150 C 11447170,4458280 11448550,4453610 11462820,4453610 C 11483200,4449400 11494650,4465050 11502140,4476030 C 11515030,4499710 11517140,4526860 11507530,4551390 z M 8183500,6469940 C 8470220,5955500 8818220,5508990 9191410,5050180 L 9714070,4456170 C 10086400,4058650 10498380,3650810 10955150,3335560 C 11012890,3302810 11037940,3234950 11097130,3282490 L 11150850,3332070 C 11186890,3372910 11155590,3489170 11118830,3521720 C 11088910,3546250 11060370,3569400 11031890,3593010 C 11120930,3681390 11250020,3849340 11355300,3958040 C 11401600,4005590 11387330,4055300 11470310,4093240 C 11511740,4113100 11523910,4158480 11498850,4197280 C 11425400,4291770 11303090,4277500 11206550,4302030 C 10847630,4381530 10558090,4484050 10161230,4676470 C 9843880,4845080 9590370,5031240 9360010,5320060 C 9272290,5428830 9173650,5511090 9100200,5641560 C 8890950,5910060 8725100,6162180 8558600,6438830 C 8499410,6525830 8480480,6569300 8396760,6647420 C 8356780,6686220 8320750,6605990 8295490,6578180 C 8292930,6575420 8290820,6571210 8288720,6568580 C 8280570,6570020 8271890,6567920 8263010,6562530 C 8240520,6533260 8170620,6520900 8183500,6469940 z M 11343130,4483330 C 11337740,4582690 11205170,4664830 11094300,4695410 C 11047540,4702900 11004010,4700270 10961920,4700270 C 10950940,4692840 10938780,4683240 10940160,4672330 C 10947650,4625500 10955150,4597620 10958440,4555540 L 10985600,4535020 C 11083510,4515360 11203070,4494310 11301710,4468540 C 11315980,4471170 11334260,4469780 11343130,4483330 z M 10313470,4742430 L 10331220,4719280 C 10411910,4681140 10486090,4651220 10575130,4626160 L 10681790,4598350 C 10710330,4572440 10759910,4551390 10789170,4588090 C 10790550,4726050 10687380,4892550 10534420,4955750 C 10486090,4976790 10422230,4983570 10365150,4998030 C 10350880,4985670 10304590,5011580 10290320,4976790 C 10299200,4907550 10325630,4804170 10313470,4742430 z M 9219950,7193950 C 9191410,7210130 8943290,7115630 8972490,7141540 C 8913370,7078410 9009910,7057170 8791060,6975040 L 8737990,6980430 C 8731220,6986550 8712210,6996810 8692550,6969650 C 8690510,6936240 8733980,6940980 8747530,6900200 C 8825650,6724170 8782180,6587580 8774690,6405430 L 8832490,6255950 C 8942570,6124040 8941910,6105100 9016680,6033090 C 9090860,5928340 9106510,5920120 9206330,5834570 C 9222710,5820300 9252500,5809510 9272290,5825690 C 9319110,5862380 9321870,5886910 9335490,5933730 C 9358630,6107730 9253150,6227410 9126170,6321910 C 9036340,6399310 8950070,6520440 8969730,6639270 L 8977230,6646700 C 9018790,6612770 9070470,6592450 9088030,6549440 C 9156750,6396020 9341540,6325920 9444910,6192760 C 9490480,6112600 9462470,5974630 9444910,5882240 C 9444910,5884810 9580770,5817470 9544080,5841340 C 9608650,5868500 9600430,5914730 9631730,5973910 C 9693020,6127530 9687430,6266740 9593660,6400030 L 9335490,6722260 C 9331470,6885930 9376190,7097350 9219950,7193950 z M 9560450,5634790 C 9498500,5663330 9434650,5669440 9366060,5637420 C 9348310,5614270 9291950,5594610 9314380,5560020 C 9364030,5479070 9448200,5412450 9499890,5332950 L 9524410,5320060 C 9628970,5193740 9794950,5086940 9951920,4991720 L 10046420,4950360 C 10067460,4929970 10115660,4887160 10134070,4931350 C 10138090,5096480 10068120,5273240 9910490,5390030 C 9815340,5460790 9773910,5447240 9688810,5452630 L 9644620,5531480 C 9634560,5570800 9599910,5610980 9560450,5634790 z M 8691170,6577450 L 8687030,6694380 C 8676240,6801040 8627320,6924080 8526770,6983190 C 8466930,6968990 8488630,6896920 8473700,6847860 C 8512500,6741920 8586420,6653540 8648360,6559040 C 8657240,6552930 8665260,6548920 8674140,6552930 L 8691170,6577450 z M 7264640,10639640 C 7223080,10682450 7199410,10662790 7157120,10666930 C 7036190,10633530 6965570,10581840 6931630,10445250 C 6886720,10254950 6888630,10045630 6931630,9850590 L 6950570,9835590 C 7035470,9826190 7163370,9809160 7198680,9828100 C 7233340,9847300 7161270,10189710 7161270,10189710 C 7158510,10257710 7191910,10431710 7223080,10521470 C 7229330,10535080 7299230,10604330 7264640,10639640 z M 8139970,10428220 C 8127080,10550730 7973470,10658050 7897970,10679820 C 7822610,10701590 7598370,10690600 7533800,10668180 C 7468560,10645690 7310740,10337930 7329220,10178200 C 7329220,10045630 7365190,9836320 7418130,9819290 C 7471190,9803040 7611200,9811260 7611200,9811260 C 7669660,9807050 7714570,9821320 7766060,9827440 C 7802100,9841710 7777040,9887280 7789210,9913720 C 7806240,9981780 7810250,10055890 7852530,10123750 C 7911520,10238050 8019560,10305910 8127080,10346090 C 8150760,10368510 8137210,10398500 8139970,10428220 z M 7967350,9911150 C 7967350,9886560 7968800,9876500 7987010,9868340 L 8088280,9868340 C 8178770,9871630 8294310,9900830 8378550,9813890 C 8426680,9815930 8430890,9873010 8443780,9917930 C 8455220,9979670 8452660,10019200 8452660,10074830 C 8432270,10119020 8409850,10186360 8364280,10214900 C 8291550,10248830 8218090,10242060 8148130,10214900 C 8042710,10152430 7965970,10052410 7967350,9911150 z M 10041680,9427230 C 9906350,9896880 9841770,10138680 10053190,10622020 C 10055230,10640300 10075610,10700860 10053190,10708360 C 9819350,10661340 9757530,10641020 9537960,10625370 C 9335490,10590060 8998270,10646410 8773500,10644510 C 8597400,10650560 8418530,10656670 8234470,10679100 C 8179300,10650560 8222300,10588610 8226250,10547910 C 8246630,10484780 8248740,10452030 8254790,10377920 C 8283330,10347470 8318640,10363650 8353300,10349380 C 8471600,10331160 8572150,10226410 8600680,10115730 C 8638100,9999530 8597400,9870250 8543610,9759580 C 8533540,9726890 8488630,9701840 8506910,9669090 C 8652370,9396650 8549720,9120000 8500860,8854330 C 8449830,8665330 8371710,8456540 8340410,8257550 C 8347180,8237170 8320750,8189490 8365660,8186200 L 8381970,8189490 C 8537560,8378420 8983470,8777390 9150500,8907200 C 9317200,9037010 9748660,9288600 10029320,9355740 C 10055950,9378170 10051810,9396650 10041680,9427230 z "
   style="fill:#007d7a"
   id="_48873840" />

   <path
   d="M 11225500,5347880 C 11254040,5385290 11273180,5418040 11250030,5452630 C 11196960,5456640 11188810,5389500 11144090,5367010 C 11069980,5330320 11004020,5368920 10930630,5387400 C 10744470,5467630 10588750,5627290 10407970,5710810 C 10385480,5710810 10365160,5708770 10350890,5692590 C 10381470,5661950 10431060,5655830 10469850,5630640 C 10656090,5508330 10836860,5316050 11069980,5280740 C 11131730,5276530 11186900,5299020 11225500,5347880 z "
   style="fill:#007d7a"
   id="_48164760" />

   <path
   d="M 11211300,5664050 C 11197030,5618480 11199130,5545020 11144160,5534770 C 11131800,5563440 11144160,5594610 11131800,5621240 C 11114960,5641560 11086230,5665960 11053670,5657800 C 10828050,5672200 10660100,5870540 10467890,5973190 C 10401930,6009950 10328470,6030990 10258570,6049270 C 10252460,6059530 10254360,6073800 10264620,6079850 C 10477950,6102340 10688640,6122660 10900060,6145080 L 11135280,6118650 C 11142060,6088070 11104640,6061570 11110750,6026260 C 11137910,5930440 11146070,5825690 11119630,5735400 C 11137910,5686470 11207350,5723040 11211300,5664050 z M 11046900,6027500 C 11017700,6070450 10972070,6033090 10932080,6038490 C 10839690,6027500 10683970,6049270 10581980,6036380 C 10566330,6027500 10555540,6011990 10564290,5997720 C 10579940,5971810 10622750,5970430 10649320,5950760 C 10760710,5881520 10877630,5814900 11004810,5784980 C 11027960,5781500 11046900,5800630 11050910,5816940 C 11065840,5875930 11056500,5970430 11046900,6027500 z "
   style="fill:#007d7a"
   id="_82784152" />

   <path
   d="M 11331000,6720150 C 11337770,6709170 11346650,6697010 11356710,6696280 C 11369600,6701220 11377100,6707260 11379200,6732320 C 11377100,6771840 11367690,6813200 11356710,6857460 C 11344550,6907040 11331660,6958670 11331660,7008970 C 11331660,7030740 11334290,7053160 11340400,7074930 C 11369600,7111620 11415900,7120500 11470340,7101360 C 11471590,7100640 11564120,7047770 11564120,7047770 C 11644340,7000090 11719640,6954720 11861160,6918680 C 11863720,6917960 11864440,6919210 11865100,6919870 C 11867930,6921970 11868590,6927360 11868590,6934140 C 11868590,6945840 11865100,6962680 11859050,6975760 C 11853660,6978330 11723850,7036130 11723850,7036130 C 11621920,7080980 11515780,7127270 11416550,7184350 C 11387360,7189750 11360200,7174090 11334290,7158440 L 11327510,7155160 C 11290100,7103470 11277930,7053890 11277930,7003580 C 11277930,6958670 11287470,6913820 11297590,6867720 C 11306470,6824910 11316730,6780720 11318640,6733700 C 11322120,6730410 11331000,6720150 11331000,6720150 z "
   style="fill:#007d7a"
   id="_81751608" />

   <path
   d="M 8137910,6678070 C 8212020,6829580 8133960,6972930 8137910,7130560 C 8150140,7175480 8238520,7181590 8212020,7235320 C 8191700,7249590 8162440,7253600 8140010,7237420 C 8099310,7210790 8084840,7190470 8074780,7142920 C 8063800,7004300 8174670,6841740 8076880,6710550 C 8048340,6682080 8006720,6653540 7966010,6651430 C 7877630,6667810 7832780,6762240 7802140,6831680 C 7755320,7015740 7742430,7210790 7904790,7358350 C 7999290,7413330 8113580,7473170 8120350,7592200 C 8133960,7612520 8162440,7632180 8185580,7620740 C 8214120,7618630 8218130,7536370 8258840,7575820 L 8271200,7603700 C 8260940,7636910 8250880,7694120 8197810,7696030 C 8171310,7702150 8142120,7687880 8120350,7671700 C 8062610,7612520 8107330,7522100 8010920,7483430 C 7851190,7433850 7746440,7265960 7730130,7108140 C 7720000,6956630 7726780,6790780 7857310,6657680 C 7908930,6618880 7976140,6593630 8042090,6614740 C 8078790,6620990 8121600,6646700 8137910,6678070 z "
   style="fill:#007d7a"
   id="_111035472" />

   <path
   d="M 6134990,7785860 C 5843550,7921060 5754440,8269000 5750430,8283270 L 5742930,8314570 L 5772720,8324830 C 5784360,8328180 6054900,8417220 6385870,8254730 C 6718870,8091710 6787400,7761330 6790220,7747060 L 6797000,7712400 L 6761680,7707010 C 6748070,7704250 6421900,7653290 6134990,7785860 z M 6164190,7848990 C 6376990,7749820 6620370,7761330 6712100,7770210 C 6686190,7854380 6597280,8073950 6355220,8192980 C 6112700,8311810 5903910,8283270 5827890,8267090 C 5856430,8182720 5950210,7948350 6164190,7848990 z "
   style="fill:#007d7a"
   id="_111045264" />

   <path
   d="M 6425850,7131280 C 6133740,7263200 6025700,7607120 6021490,7622120 L 6011430,7654670 L 6043980,7664930 C 6055420,7668210 6325300,7749100 6656930,7590810 C 6991320,7430360 7062670,7111620 7065430,7098080 L 7072930,7063420 L 7037610,7057170 C 7024720,7054540 6713480,7001470 6425850,7131280 z M 6454390,7193950 C 6666530,7098080 6898270,7110240 6987310,7119780 C 6959490,7202630 6869000,7412610 6627210,7528150 C 6386520,7643160 6179180,7621390 6100340,7607120 C 6133740,7520850 6240410,7290290 6454390,7193950 z "
   style="fill:#007d7a"
   id="_111057648" />

   <path
   d="M 6805870,6500580 C 6512850,6629140 6385870,6970170 6381130,6984440 L 6368110,7019230 L 6404150,7029360 C 6415790,7032840 6684940,7104850 7016570,6949790 C 7352870,6793610 7426320,6486310 7429800,6472770 L 7437300,6438110 L 7402650,6431340 C 7390280,6429230 7094690,6373530 6805870,6500580 z M 6833030,6563910 C 7045110,6470660 7264680,6483680 7350960,6493810 C 7322420,6573970 7229370,6775130 6988030,6887380 C 6749520,6998910 6544220,6983190 6461890,6970170 C 6501410,6883170 6620370,6657680 6833030,6563910 z "
   style="fill:#007d7a"
   id="_82872168" />

   <path
   d="M 7182350,5877380 C 6889390,6003110 6743930,6340130 6738540,6354400 L 6722160,6391810 L 6761680,6401420 C 6773130,6404180 7041620,6468750 7374630,6317700 C 7712510,6164940 7787870,5868500 7791350,5855610 L 7800230,5820950 L 7764920,5813520 C 7753210,5810690 7473270,5753610 7182350,5877380 z M 7209510,5941230 C 7420200,5851600 7628860,5865140 7711850,5875270 C 7681930,5953530 7587430,6145810 7346090,6254570 C 7110340,6361890 6906420,6352490 6821530,6341570 C 6866970,6252470 6997430,6031650 7209510,5941230 z "
   style="fill:#007d7a"
   id="_111066936" />

   <path
   d="M 7704350,5254100 C 7410670,5376420 7246930,5710150 7240150,5724420 L 7221150,5763870 L 7263960,5773470 C 7274740,5775380 7542520,5831740 7876970,5685090 C 8215370,5535420 8294350,5250090 8297640,5237730 L 8306520,5203860 L 8271930,5194980 C 8260940,5193010 7996650,5133170 7704350,5254100 z M 7730790,5317960 C 7940820,5230960 8137250,5245230 8217480,5256210 C 8186310,5332950 8090430,5515100 7849090,5621770 C 7613870,5725080 7412770,5721130 7325770,5712250 C 7378120,5621770 7519370,5405680 7730790,5317960 z "
   style="fill:#007d7a"
   id="_111358368" />

   <path
   d="M 8280080,4652660 C 7985670,4771620 7802790,5102590 7795360,5116860 L 7773070,5158220 L 7819170,5167100 C 7830810,5169210 8097920,5217410 8432310,5073330 C 8772820,4927870 8854230,4654040 8857710,4642540 L 8867320,4607750 L 8832530,4599590 C 8822400,4596960 8572910,4534290 8280080,4652660 z M 8305860,4716520 C 8513720,4633000 8699360,4647930 8776830,4659440 C 8744280,4733550 8645640,4907550 8405020,5010200 C 8172560,5110020 7973510,5110750 7883750,5104630 C 7942210,5012760 8095100,4802270 8305860,4716520 z "
   style="fill:#007d7a"
   id="_111528120" />

   <path
   d="M 8894410,4084560 C 8599540,4199380 8398250,4527520 8390030,4541790 L 8363590,4585320 L 8413900,4593480 C 8425540,4594860 8691930,4635570 9027050,4495690 C 9368730,4353520 9452450,4090610 9455730,4079700 L 9466720,4045760 L 9432780,4036160 C 9423180,4033600 9188680,3968830 8894410,4084560 L 8894410,4084560 z M 8919460,4148420 C 9125490,4068190 9300870,4083180 9375510,4094620 C 9340920,4166700 9241030,4331820 9000410,4431840 C 8771440,4527520 8573630,4533770 8481240,4529630 C 8547130,4436510 8710220,4230550 8919460,4148420 L 8919460,4148420 z "
   style="fill:#007d7a"
   id="_114230976" />

   <path
   d="M 9533330,3559800 C 9237540,3671850 9018170,3996840 9009290,4010450 L 8977920,4057210 L 9033820,4064050 C 9044600,4065430 9310270,4097450 9646770,3961390 C 9989380,3822900 10076380,3571310 10079660,3560520 L 10090650,3527770 L 10057240,3516990 C 10048490,3514230 9829650,3446890 9533330,3559800 z M 9557660,3623650 C 9762310,3546250 9926710,3561900 9998250,3574070 C 9962220,3644040 9859570,3801140 9620990,3897540 C 9393260,3989410 9198220,4000190 9103720,3998750 C 9176450,3904320 9349070,3703160 9557660,3623650 z "
   style="fill:#007d7a"
   id="_48808752" />

   <path
   d="M 10182300,3089480 C 9885980,3198970 9648850,3521000 9638590,3534550 L 9602560,3582950 L 9663120,3589060 C 9673910,3590440 9939050,3614120 10276070,3481680 C 10620720,3346340 10709620,3106380 10713110,3096320 L 10724620,3063570 L 10692070,3052790 C 10683910,3049310 10479990,2980060 10182300,3089480 z M 10206100,3154060 C 10408640,3079950 10562980,3094880 10630840,3107770 C 10593430,3175100 10489530,3323850 10251010,3417630 C 10026050,3506010 9833640,3521000 9736510,3521720 C 9816010,3426500 9998760,3230800 10206100,3154060 z "
   style="fill:#007d7a"
   id="_48137184" />

   <path
   d="M 5668820,7126620 C 5659940,7137400 5457470,7400440 5436430,7717140 C 5415320,8040020 5678950,8286030 5690590,8296350 L 5713740,8318050 L 5737410,8296350 C 5746290,8288860 5954880,8092430 5970530,7722660 C 5987620,7350200 5728730,7130560 5717750,7121220 L 5690590,7098730 L 5668820,7126620 z M 5504220,7753110 C 5504220,7743050 5504950,7732790 5505670,7722010 C 5520600,7484680 5649030,7276020 5700710,7200730 C 5760560,7262480 5902660,7435100 5902660,7689980 C 5902660,7699520 5902660,7709640 5902010,7719900 C 5889640,7991820 5764700,8161680 5713010,8220790 C 5654550,8158320 5504220,7976170 5504220,7753110 z "
   style="fill:#007d7a"
   id="_82940240" />

   <path
   d="M 6079950,6417070 C 6073180,6424560 5908060,6606720 5837960,6867720 C 5828550,6903690 5821060,6940980 5816190,6980430 C 5778310,7293120 6003930,7549390 6014060,7560170 L 6035760,7585420 L 6061740,7563660 C 6071140,7556160 6283870,7371240 6327410,7011730 C 6370870,6648800 6139140,6424560 6128880,6415690 L 6103820,6391160 L 6079950,6417070 z M 5880960,7051060 C 5880960,7030740 5882150,7010350 5884910,6989310 C 5888920,6953270 5895760,6918680 5904570,6885930 C 5954880,6698390 6059630,6552270 6106450,6493080 C 6156170,6551550 6263550,6705160 6263550,6924080 C 6263550,6949130 6262170,6976420 6258690,7003580 C 6227520,7265240 6097050,7427600 6042600,7486060 C 5993670,7421480 5880960,7251690 5880960,7051060 z "
   style="fill:#007d7a"
   id="_82893400" />

   <path
   d="M 6541390,5751710 C 6533890,5758480 6360610,5919460 6272960,6179210 C 6262170,6212420 6252570,6247800 6245070,6288510 C 6190820,6591070 6379090,6856740 6386520,6868380 L 6407630,6897440 L 6436110,6875150 C 6444980,6867720 6663180,6693720 6733140,6345060 C 6803770,5992190 6598670,5763220 6589790,5753610 L 6566640,5728560 L 6541390,5751710 z M 6304980,6400030 C 6304980,6367480 6307740,6333350 6313790,6300150 C 6319910,6263450 6328060,6231430 6338190,6201510 C 6400790,6016720 6511670,5883420 6561910,5829830 C 6601230,5884810 6678700,6018100 6678700,6200980 C 6678700,6242410 6674680,6285880 6665080,6331970 C 6614840,6582850 6480360,6737190 6421900,6794990 C 6383040,6729690 6304980,6576070 6304980,6400030 z "
   style="fill:#007d7a"
   id="_82889776" />

   <path
   d="M 7048400,5129690 C 7040370,5135800 6859600,5276530 6753460,5534240 C 6741300,5563960 6730380,5598820 6720980,5638800 C 6649430,5931100 6798380,6207030 6805150,6218540 L 6823430,6252470 L 6855460,6229520 C 6864990,6223210 7087200,6059530 7184450,5722510 C 7282240,5379900 7104230,5145400 7096800,5135800 L 7075750,5108640 L 7048400,5129690 z M 6771220,5802010 C 6771220,5754340 6775950,5704030 6787400,5655170 C 6796270,5618480 6806530,5587110 6817320,5560020 C 6892150,5379240 7008420,5258310 7062140,5209250 C 7091400,5259500 7143550,5370370 7143550,5519250 C 7143550,5575670 7136780,5637420 7117840,5703370 C 7048400,5943270 6909910,6090110 6847300,6146530 C 6820140,6084720 6771220,5952870 6771220,5802010 z "
   style="fill:#007d7a"
   id="_82869456" />

   <path
   d="M 7597690,4550670 C 7589540,4555540 7401260,4675740 7276850,4931350 C 7262580,4959890 7249690,4991720 7237390,5032620 C 7149670,5314670 7260470,5599470 7265870,5611640 L 7281580,5650440 L 7316890,5627290 C 7326430,5620520 7552780,5468280 7676540,5142050 C 7802140,4809570 7651280,4571050 7644510,4560930 L 7626230,4532390 L 7597690,4550670 z M 7273360,5262980 C 7273360,5195640 7281580,5123640 7303280,5053010 C 7314990,5016250 7325770,4987050 7338600,4961800 C 7425600,4783130 7548110,4674360 7603810,4630900 C 7624850,4674360 7657400,4760710 7657400,4876900 C 7657400,4947530 7645170,5028480 7611960,5116860 C 7525680,5345970 7382130,5485180 7315650,5541740 C 7298610,5485180 7273360,5382530 7273360,5262980 z "
   style="fill:#007d7a"
   id="_82898896" />

   <path
   d="M 8185580,4013740 C 8177430,4017950 7982380,4117110 7837650,4370620 C 7822650,4398440 7808380,4429080 7793460,4467880 C 7688700,4739600 7762090,5033350 7765570,5045510 L 7777080,5090360 L 7816600,5065830 C 7825940,5060440 8057020,4918330 8207350,4603010 C 8360310,4281510 8236610,4038990 8231020,4028730 L 8215370,3998750 L 8185580,4013740 L 8185580,4013740 z M 7807000,4792670 C 7807000,4701520 7818510,4594200 7857310,4492210 C 7871580,4456900 7883750,4429080 7898010,4404550 C 7997840,4229830 8125080,4132770 8184200,4094620 C 8197090,4130660 8214850,4193330 8214850,4279610 C 8214850,4361020 8198470,4461560 8144750,4573820 C 8040850,4792670 7893280,4923860 7822650,4977450 C 7815160,4935360 7807000,4870130 7807000,4792670 z "
   style="fill:#007d7a"
   id="_117735336" />

   <path
   d="M 8809510,3518370 C 8800630,3521720 8599540,3600500 8434940,3851380 C 8418040,3877880 8401670,3908460 8384640,3944490 C 8264430,4206150 8299740,4508580 8301120,4520750 L 8307240,4571050 L 8352090,4546660 C 8362210,4541270 8596710,4410800 8773540,4106330 C 8954320,3794890 8857710,3548160 8853570,3538030 L 8840680,3506010 L 8809510,3518370 z M 8364320,4401920 C 8364320,4294530 8377860,4123890 8447310,3973030 C 8462760,3939630 8477750,3912470 8492680,3889320 C 8605590,3717430 8738030,3632530 8799250,3599120 C 8806030,3627140 8812870,3667840 8812870,3722160 C 8812870,3812580 8792480,3935620 8714360,4071480 C 8592570,4280260 8440990,4403300 8365700,4455510 C 8364980,4440520 8364320,4422960 8364320,4401920 z "
   style="fill:#007d7a"
   id="_47326760" />

   <path
   d="M 9466720,3064300 C 9457840,3066340 9250560,3125520 9065650,3373630 C 9046710,3398690 9027570,3427950 9009950,3461160 C 8872710,3712760 8870600,4024000 8870600,4037610 L 8871330,4092590 L 8920190,4068190 C 8931170,4062800 9170400,3942390 9373600,3648900 C 9580150,3349100 9511560,3098360 9508800,3088100 L 9499200,3054890 L 9466720,3064300 z M 9070510,3494570 C 9086690,3463920 9103720,3438210 9120820,3414340 C 9247140,3245730 9385110,3171620 9448960,3144460 C 9450340,3160830 9452450,3179840 9452450,3205020 C 9452450,3297420 9429960,3445640 9316520,3610110 C 9178560,3808630 9022840,3924110 8942610,3975140 C 8950110,3873870 8976020,3666460 9070510,3494570 z "
   style="fill:#007d7a"
   id="_81988928" />

   <path
   d="M 10151000,2650340 C 10142260,2651720 9930180,2691240 9723500,2934490 C 9519050,3177210 9470650,3576830 9468750,3593730 L 9461970,3653570 L 9516950,3629040 C 9527210,3624380 9771170,3514890 10000150,3231460 C 10233990,2943370 10192560,2688480 10191180,2678220 L 10185070,2644290 L 10151000,2650340 z M 9776570,2979400 C 9916640,2814280 10059270,2750950 10125230,2729190 C 10125950,2730570 10125950,2731290 10125950,2733330 C 10125950,2813560 10104910,2992950 9946560,3188650 C 9792940,3378300 9631760,3485690 9548250,3534550 C 9570740,3411580 9633210,3148670 9776570,2979400 z "
   style="fill:#007d7a"
   id="_82907120" />

   <path
   d="M 3595940,6074460 C 3595940,7744430 4499080,9350350 5953500,10267310 L 6014060,10304660 L 6057530,10248170 C 6069690,10232460 6074560,10217000 6074560,10203260 C 6074560,10167220 6043980,10139410 6026880,10123230 L 5942710,10042340 C 5642250,9701840 5562030,9378890 5562030,9130780 C 5562030,8856230 5660670,8672830 5668820,8659080 L 5695320,8610220 L 5658560,8568800 C 5043510,7883120 4719380,7021140 4719380,6074460 C 4719380,3991970 6413030,2298390 8495510,2298390 C 9074520,2298390 9629740,2425380 10146280,2676970 L 10200070,2703410 L 10958480,1837480 L 10874960,1790660 C 10151010,1387680 9328030,1174950 8495510,1174950 C 5793240,1174950 3595940,3372910 3595940,6074460 L 3595940,6074460 z M 3750800,6074460 C 3750800,3458530 5879520,1330470 8495510,1330470 C 9268850,1330470 10033570,1522230 10712470,1881670 C 10612580,1995310 10220390,2443850 10159170,2512380 C 9637230,2267750 9078010,2142670 8495510,2142670 C 6327410,2142670 4562940,3906420 4562940,6074460 C 4562940,7041650 4890620,7924480 5509810,8632650 C 5473780,8714910 5410450,8895030 5410450,9133540 C 5410450,9330690 5456020,9567160 5595430,9818760 C 4447460,8904570 3750800,7513880 3750800,6074460 z "
   style="fill:#007d7a"
   id="_82162616" />

   <path
   d="M 10214300,2537630 C 9675990,2275250 9098290,2142670 8495470,2142670 C 6327370,2142670 4562900,3906420 4562900,6074460 C 4562900,7059280 4901490,7958410 5542320,8672830 L 5609660,8747470 L 5908740,8296350 L 5893090,8277870 C 5865930,8274590 5844160,8270380 5827850,8267090 C 5831800,8254730 5837920,8238550 5844690,8220790 C 5821740,8192980 5797930,8164440 5775440,8135900 C 5751640,8174500 5728690,8202380 5712970,8220790 C 5654510,8158320 5504180,7976170 5504180,7753110 C 5504180,7746340 5504910,7738840 5504910,7732070 C 5225630,7240050 5083520,6684840 5083520,6074460 C 5083520,4193330 6614080,2662700 8495470,2662700 C 8956840,2662700 9402100,2752990 9821390,2930480 C 9866300,2883520 9910490,2846760 9951920,2818290 C 9493110,2612920 9003860,2506980 8495470,2506980 C 6527800,2506980 4927270,4107510 4927270,6074460 C 4927270,6927360 5193670,7677090 5714880,8306410 C 5685160,8351990 5642210,8416560 5594010,8489950 C 5023150,7817160 4719340,6985820 4719340,6074460 C 4719340,3991970 6412990,2298390 8495470,2298390 C 9048710,2298390 9579390,2415970 10076340,2645670 C 10055230,2690520 10035430,2734780 10014390,2778970 C 10060620,2752990 10098760,2737340 10125200,2729190 C 10125920,2730570 10125920,2731290 10125920,2733330 C 10125920,2791790 10114410,2902660 10047070,3034380 L 10064630,3043260 L 10282820,2570180 L 10214300,2537630 L 10214300,2537630 z "
   style="fill:#007d7a"
   id="_49059128" />

   <path
   d="M 10179000,1766130 L 9802980,2242040 C 9837770,2253480 9871700,2265640 9905630,2278730 L 10278820,1807030 C 10246140,1792760 10212930,1779220 10179000,1766130 z "
   style="fill:#007d7a"
   id="_122255456" />

   <path
   d="M 9443570,1547280 L 9224000,2090460 C 9258780,2096580 9293370,2103350 9327310,2110850 L 9546220,1569710 C 9511560,1561680 9477500,1554710 9443570,1547280 z "
   style="fill:#007d7a"
   id="_111525640" />

   <path
   d="M 8568240,1449500 L 8514450,2025230 C 8549040,2025230 8583890,2025750 8617820,2026410 L 8672070,1452260 C 8637480,1451540 8602830,1450160 8568240,1449500 z "
   style="fill:#007d7a"
   id="_81748496" />

   <path
   d="M 7715140,1514730 L 7824560,2080200 C 7858690,2074810 7892620,2069220 7927210,2064550 L 7817790,1498360 C 7783200,1503220 7749270,1508620 7715140,1514730 z "
   style="fill:#007d7a"
   id="_48970056" />

   <path
   d="M 6888140,1736210 L 7147040,2255580 C 7179590,2243940 7212340,2233160 7245550,2222180 L 6985930,1701620 C 6953440,1713260 6920690,1724700 6888140,1736210 z "
   style="fill:#007d7a"
   id="_47284000" />

   <path
   d="M 6103100,2116240 L 6489180,2557290 C 6519620,2539730 6550270,2522630 6581570,2505600 L 6193450,2062450 C 6163010,2080200 6133020,2098480 6103100,2116240 z "
   style="fill:#007d7a"
   id="_48122368" />

   <path
   d="M 5390130,2648430 L 5877480,2986830 C 5904570,2963690 5932450,2941260 5960470,2918110 L 5469630,2577610 C 5443200,2600760 5416040,2624630 5390130,2648430 z "
   style="fill:#007d7a"
   id="_82943656" />

   <path
   d="M 4783230,3316420 L 5343310,3534550 C 5366260,3506010 5389410,3478190 5412550,3451030 L 4848470,3230800 C 4826770,3259340 4805000,3287880 4783230,3316420 z "
   style="fill:#007d7a"
   id="_111743952" />

   <path
   d="M 4315020,4094620 L 4917710,4178860 C 4934810,4145650 4952500,4113630 4970780,4081800 L 4362500,3996840 C 4346190,4029390 4329820,4062140 4315020,4094620 z "
   style="fill:#007d7a"
   id="_81670368" />

   <path
   d="M 4007790,4948250 L 4622120,4889270 C 4633760,4853760 4645270,4817720 4656780,4782410 L 4036270,4841590 C 4026010,4876900 4016670,4912220 4007790,4948250 z "
   style="fill:#007d7a"
   id="_82778632" />

   <path
   d="M 3874500,5842000 L 4469160,5635510 C 4473370,5597370 4478040,5559290 4482780,5521220 L 3881270,5730470 C 3878640,5767230 3876600,5804640 3874500,5842000 L 3874500,5842000 z "
   style="fill:#007d7a"
   id="_49035160" />

   <path
   d="M 3920790,6745210 L 4457720,6392540 C 4454890,6353210 4452330,6313690 4450220,6273710 L 3904420,6631770 C 3909810,6669850 3914680,6707260 3920790,6745210 z "
   style="fill:#007d7a"
   id="_82868520" />

   <path
   d="M 4149770,7628890 L 4585430,7149040 C 4574640,7108860 4565040,7068160 4555510,7027910 L 4110440,7518080 C 4123270,7555500 4136160,7592200 4149770,7628890 z "
   style="fill:#007d7a"
   id="_82947392" />

   <path
   d="M 4559650,8472920 L 4868130,7886410 C 4849190,7848330 4829530,7810390 4811770,7771590 L 4497700,8369080 C 4518090,8403670 4538610,8438990 4559650,8472920 z "
   style="fill:#007d7a"
   id="_82847744" />

   <path
   d="M 5084940,9176350 L 5250190,8497450 C 5222900,8461410 5195740,8424720 5170030,8388020 L 5002150,9081920 C 5029240,9113880 5057120,9145050 5084940,9176350 z "
   style="fill:#007d7a"
   id="_47020472" />

   <path
   d="M 10102100,3077840 C 10116370,3086720 10130640,3096320 10144180,3105860 C 10157270,3100270 10169440,3094220 10182330,3089480 C 10197250,3084090 10212250,3079230 10227240,3074560 C 10195210,3053510 10165430,3029640 10136750,3004460 C 10127350,3028260 10114990,3052790 10102100,3077840 z "
   style="fill:#007d7a"
   id="_48970168" />

  </g>

  <path
   d="M 16101400,13274400 L 16350540,13274400 L 16350540,13252110 L 16270400,13252110 L 16270400,12631210 L 16312840,12631210 C 16362210,12631760 16397600,12647650 16419030,12679000 C 16439720,12711020 16452100,12751700 16455820,12800720 L 16497760,12800720 L 16491050,12608730 L 15977720,12608730 L 15967090,12800720 L 15992050,12800720 C 15996980,12775430 16001770,12752240 16006040,12731010 C 16009580,12720910 16012560,12711340 16015060,12702330 C 16017510,12692940 16020710,12684830 16024420,12677910 C 16032900,12662690 16044240,12651190 16058410,12643400 C 16071870,12635280 16089520,12631210 16111500,12631210 L 16176950,12631210 L 16176950,13252110 L 16101400,13252110 L 16101400,13274400 z M 15331760,13274400 L 15585170,13274400 L 15585170,13252110 L 15502190,13252110 L 15502190,12946520 C 15504500,12946520 15506810,12946520 15508880,12946520 C 15550830,12946520 15581650,12952930 15601610,12965460 C 15612610,12973630 15620920,12985620 15626570,13001570 C 15632600,13016790 15636310,13037480 15637540,13063490 L 15658770,13063490 L 15658770,12818240 L 15636500,12818240 C 15634740,12843030 15630640,12861960 15624810,12875420 C 15618420,12889350 15609780,12899640 15598800,12906170 C 15587840,12912920 15574570,12916990 15559160,12918390 C 15543230,12920340 15524100,12921580 15502190,12922300 L 15502190,12631210 L 15624810,12631210 C 15626760,12631210 15628520,12631210 15630290,12631210 C 15686050,12631210 15723910,12641620 15743710,12662340 C 15763880,12684300 15780010,12725150 15792180,12785500 L 15825970,12785500 L 15817690,12608730 L 15331760,12608730 L 15331760,12631210 L 15408780,12631210 L 15408780,13252110 L 15331760,13252110 L 15331760,13274400 z M 14537680,13274400 L 14725630,13274400 L 14725630,13252110 L 14642790,13252110 L 14711630,13032200 L 14895810,13032200 L 14962360,13252110 L 14881500,13252110 L 14881500,13274400 L 15127290,13274400 L 15127290,13252110 L 15059850,13252110 L 14860990,12600030 L 14823290,12600030 L 14613980,13252110 L 14537680,13252110 L 14537680,13274400 z M 14885940,13004920 L 14719970,13004920 L 14804900,12734170 L 14806860,12734170 L 14885940,13004920 z M 14169220,12917320 L 13890660,12917320 L 13890660,12631210 L 13966230,12631210 L 13966230,12608730 L 13723290,12608730 L 13723290,12631210 L 13797440,12631210 L 13797440,13252110 L 13723290,13252110 L 13723290,13274400 L 13966230,13274400 L 13966230,13252110 L 13890660,13252110 L 13890660,12945450 L 14169220,12945450 L 14169220,13252110 L 14093640,13252110 L 14093640,13274400 L 14359050,13274400 L 14359050,13252110 L 14262440,13252110 L 14262440,12631210 L 14359050,12631210 L 14359050,12608730 L 14093640,12608730 L 14093640,12631210 L 14169220,12631210 L 14169220,12917320 z M 13491230,12786390 L 13491230,12617040 L 13476920,12617040 L 13443810,12646240 C 13421520,12629260 13399770,12615990 13378340,12606800 C 13355680,12598100 13330230,12593700 13302100,12593700 C 13231310,12594930 13167430,12627670 13110260,12691540 C 13050840,12755420 13020590,12837550 13019300,12937710 C 13019300,13036040 13043900,13118530 13092920,13184890 C 13140350,13252840 13208840,13287670 13298390,13289620 C 13299070,13289620 13299980,13289620 13300660,13289620 C 13354470,13289620 13404340,13270870 13450190,13233720 L 13477090,13274400 L 13502910,13274400 L 13502910,13093580 L 13479400,13093580 C 13467170,13139050 13446480,13178150 13417620,13210710 C 13388080,13244510 13349490,13261680 13301740,13262400 C 13228500,13261680 13180880,13233720 13158920,13178510 C 13147270,13151780 13139660,13120660 13135770,13084740 C 13131510,13049320 13129200,13010040 13129200,12966690 C 13129200,12963150 13129030,12959070 13129030,12955180 C 13129030,12925460 13131330,12886020 13135770,12838050 C 13138390,12812040 13142650,12786220 13148490,12760900 C 13153610,12736480 13160370,12715240 13168830,12697020 C 13178930,12677230 13195200,12658980 13217840,12642350 C 13239810,12625550 13266180,12616710 13296950,12615990 C 13347730,12616710 13386680,12632780 13413720,12664270 C 13441360,12696310 13459750,12736850 13468940,12786390 L 13491230,12786390 z M 12399800,13277430 L 12441370,13234080 C 12461900,13253700 12484740,13267880 12509870,13276520 C 12535690,13285180 12562240,13289620 12589330,13289620 C 12725770,13287000 12795670,13213200 12798840,13067930 C 12798840,13034270 12794020,13005280 12784650,12981360 C 12774950,12957860 12761130,12938920 12743240,12924420 C 12707150,12895020 12664880,12874510 12616550,12862460 C 12594260,12855390 12572340,12848320 12551100,12841570 C 12528450,12835770 12508470,12828340 12491290,12819640 C 12473950,12811190 12460130,12800340 12449900,12786900 C 12438750,12774360 12433270,12757900 12433270,12737750 C 12433270,12718630 12437840,12701480 12447040,12686250 C 12454460,12670840 12464750,12658290 12477660,12648190 C 12505250,12626770 12536230,12615990 12570560,12615990 C 12614290,12616710 12649850,12630660 12677600,12657940 C 12704510,12685880 12723640,12720910 12734590,12763570 L 12754080,12763570 L 12754080,12608730 L 12740270,12608730 L 12703970,12637600 C 12693010,12629070 12675310,12619870 12650870,12609770 C 12625790,12599720 12601190,12594380 12577460,12593700 C 12541000,12594380 12510910,12600940 12487030,12613680 C 12461900,12626950 12442280,12644120 12428100,12664810 C 12402110,12700190 12388660,12737010 12388660,12775260 C 12388660,12776290 12388660,12777200 12388660,12778240 C 12388660,12806920 12394680,12834500 12407040,12861060 C 12419270,12889000 12439080,12912200 12466690,12930770 C 12479620,12937520 12510420,12949160 12559050,12965840 C 12608080,12983680 12643820,12996940 12666470,13005640 C 12702750,13019590 12726800,13035170 12738480,13052530 C 12748910,13069160 12754080,13091260 12754080,13118530 C 12754080,13119940 12754080,13121150 12754080,13122610 C 12753340,13167000 12736900,13202070 12704870,13227330 C 12672310,13253870 12634440,13267160 12591280,13267160 C 12544880,13266610 12505600,13250710 12473050,13219910 C 12441010,13190010 12418050,13151960 12404590,13106120 L 12386210,13106120 L 12386210,13277430 L 12399800,13277430 z M 11714650,13274400 L 12211520,13274400 L 12222120,13088460 L 12202830,13088460 C 12197520,13123110 12184250,13158340 12163190,13194090 C 12152590,13209990 12139330,13223440 12123550,13234080 C 12107290,13246080 12088900,13252110 12068010,13252110 L 11886090,13252110 L 11886090,12631210 L 11984120,12631210 L 11984120,12608730 L 11714650,12608730 L 11714650,12631210 L 11792870,12631210 L 11792870,13252110 L 11714650,13252110 L 11714650,13274400 z M 11043990,13274400 L 11540680,13274400 L 11551460,13088460 L 11531980,13088460 C 11526690,13123110 11513600,13158340 11492350,13194090 C 11481750,13209990 11468670,13223440 11452710,13234080 C 11436630,13246080 11418060,13252110 11397360,13252110 L 11215440,13252110 L 11215440,12631210 L 11313470,12631210 L 11313470,12608730 L 11043990,12608730 L 11043990,12631210 L 11122040,12631210 L 11122040,13252110 L 11043990,13252110 L 11043990,13274400 z M 10331160,13274400 L 10850160,13274400 L 10863430,13088270 L 10837610,13088270 C 10825920,13159570 10805220,13205230 10775500,13225380 C 10747700,13243270 10703300,13252300 10643870,13252300 C 10640110,13252300 10635890,13252110 10632000,13252110 L 10508820,13252110 L 10508820,12943490 C 10514130,12943490 10519420,12943180 10524590,12943180 C 10564590,12943180 10594500,12950060 10614650,12963520 C 10636400,12978750 10648450,13012530 10651110,13064350 L 10672310,13064350 L 10672310,12812400 L 10651110,12812400 C 10648450,12838400 10644370,12858420 10638700,12872370 C 10632180,12887040 10623300,12897700 10612340,12904220 C 10594120,12914510 10563870,12919440 10523000,12919440 C 10518570,12919440 10513450,12919270 10508820,12919270 L 10508820,12631210 L 10634630,12631210 C 10636400,12631210 10638020,12631210 10639780,12631210 C 10681690,12631210 10716210,12639540 10743300,12655980 C 10757430,12665540 10769470,12679490 10779220,12698110 C 10787880,12716860 10794440,12741460 10798510,12771360 L 10819720,12771360 L 10819720,12608730 L 10331160,12608730 L 10331160,12631210 L 10415570,12631210 L 10415570,13252110 L 10331160,13252110 L 10331160,13274400 z M 9726340,13277430 L 9767920,13234080 C 9788440,13253700 9811270,13267880 9836600,13276520 C 9862410,13285180 9888780,13289620 9916040,13289620 C 10052490,13287000 10122210,13213200 10125370,13067930 C 10125370,13034270 10120560,13005280 10111200,12981360 C 10101500,12957860 10087690,12938920 10069780,12924420 C 10033690,12895020 9991420,12874510 9943090,12862460 C 9920790,12855390 9899050,12848320 9877630,12841570 C 9854990,12835770 9835190,12828340 9817830,12819640 C 9800490,12811190 9786670,12800340 9776430,12786900 C 9765480,12774360 9759950,12757900 9759950,12737750 C 9759950,12718630 9764380,12701480 9773570,12686250 C 9781200,12670840 9791300,12658290 9804210,12648190 C 9831790,12626770 9862780,12615990 9897120,12615990 C 9940830,12616710 9976560,12630660 10004160,12657940 C 10031240,12685880 10050170,12720910 10061130,12763570 L 10080620,12763570 L 10080620,12608730 L 10066800,12608730 L 10030690,12637600 C 10019550,12629070 10001840,12619870 9977430,12609770 C 9952330,12599720 9927920,12594380 9904000,12593700 C 9867530,12594380 9837450,12600940 9813590,12613680 C 9788440,12626950 9768830,12644120 9754830,12664810 C 9728650,12700190 9715190,12737010 9715190,12775260 C 9715190,12776290 9715190,12777200 9715190,12778240 C 9715190,12806920 9721390,12834500 9733580,12861060 C 9745810,12889000 9765790,12912200 9793420,12930770 C 9806150,12937520 9836960,12949160 9885600,12965840 C 9934610,12983680 9970360,12996940 9993010,13005640 C 10029480,13019590 10053350,13035170 10065040,13052530 C 10075450,13069160 10080620,13091260 10080620,13118530 C 10080620,13119940 10080620,13121150 10080620,13122610 C 10079880,13167000 10063640,13202070 10031410,13227330 C 9998850,13253870 9961170,13267160 9917990,13267160 C 9871610,13266610 9832140,13250710 9799770,13219910 C 9767550,13190010 9744780,13151960 9731130,13106120 L 9712750,13106120 L 9712750,13277430 L 9726340,13277430 z M 8989500,13274400 L 9508670,13274400 L 9521760,13088270 L 9496110,13088270 C 9484440,13159570 9463720,13205230 9434020,13225380 C 9406060,13243270 9361800,13252300 9302380,13252300 C 9298660,13252300 9294400,13252110 9290510,13252110 L 9167350,13252110 L 9167350,12943490 C 9172630,12943490 9177810,12943180 9182930,12943180 C 9222920,12943180 9253000,12950060 9273150,12963520 C 9294950,12978750 9306950,13012530 9309450,13064350 L 9330860,13064350 L 9330860,12812400 L 9309450,12812400 C 9306950,12838400 9302870,12858420 9297210,12872370 C 9290690,12887040 9281810,12897700 9270840,12904220 C 9252640,12914510 9222370,12919440 9181520,12919440 C 9177080,12919440 9171960,12919270 9167350,12919270 L 9167350,12631210 L 9293130,12631210 C 9294950,12631210 9296540,12631210 9298300,12631210 C 9340250,12631210 9374710,12639540 9401810,12655980 C 9415940,12665540 9427990,12679490 9437730,12698110 C 9446380,12716860 9452950,12741460 9457030,12771360 L 9478220,12771360 L 9478220,12608730 L 8989500,12608730 L 8989500,12631210 L 9073940,12631210 L 9073940,13252110 L 8989500,13252110 L 8989500,13274400 z M 8715100,12616160 L 8681130,12653120 C 8639350,12614220 8584680,12594380 8517090,12593700 C 8446470,12594930 8382420,12627300 8325250,12690500 C 8265830,12754550 8235560,12836810 8234290,12937710 C 8234290,13036040 8258890,13118530 8307910,13184890 C 8355340,13252840 8423820,13287670 8513380,13289620 C 8562890,13288900 8603620,13282020 8634920,13268560 C 8666400,13255280 8691180,13237940 8709420,13216550 C 8718810,13205230 8726920,13193370 8733480,13180990 C 8739700,13168950 8744990,13156410 8749060,13143120 C 8757170,13116400 8761610,13089490 8762160,13062270 L 8840880,13062270 L 8840880,13039080 L 8559360,13039080 L 8559360,13062270 L 8653300,13062270 C 8654020,13076210 8654210,13089670 8654210,13102770 C 8654210,13115860 8653850,13128280 8653300,13140280 C 8650850,13164690 8645190,13186660 8636680,13206280 C 8628560,13225380 8614750,13240060 8595280,13250160 C 8576700,13261490 8550530,13267160 8516910,13267160 C 8443610,13266610 8396050,13237440 8373910,13179910 C 8354290,13128940 8344000,13062270 8344000,12981060 C 8344000,12976430 8344190,12971310 8344190,12966500 C 8344190,12962970 8344000,12958900 8344000,12954990 C 8344000,12925290 8346310,12885280 8350760,12836810 C 8353380,12810820 8357650,12785130 8363480,12759860 C 8368600,12735440 8375350,12714190 8383820,12695980 C 8393920,12676130 8410190,12657940 8432840,12641480 C 8454950,12625180 8481340,12616710 8512110,12615990 C 8566790,12616710 8610670,12632420 8643250,12663410 C 8677030,12694040 8698600,12734890 8708350,12786390 L 8730620,12786390 L 8730620,12616160 L 8715100,12616160 z M 7769900,13091980 L 8006270,13091980 L 8006270,13025810 L 7769900,13025810 L 7769900,13091980 z M 7244350,13274400 L 7244350,13252110 L 7164710,13252110 L 7164710,12631210 L 7244350,12631210 L 7244350,12608730 L 6998190,12608730 L 6998190,12631210 L 7071320,12631210 L 7071320,13252110 L 6998190,13252110 L 6998190,13274400 L 7244350,13274400 z M 7362710,12631210 L 7449600,12631210 L 7183110,12909520 C 7177640,12914870 7174810,12919440 7174810,12923510 C 7174810,12924610 7175000,12925460 7175330,12926510 L 7431380,13252110 L 7353710,13252110 L 7353710,13274400 L 7618920,13274400 L 7618920,13252110 L 7553470,13252110 L 7253360,12878950 L 7481270,12631210 L 7554550,12631210 L 7554550,12608730 L 7362710,12608730 L 7362710,12631210 z M 6757520,12786390 L 6757520,12617040 L 6743020,12617040 L 6710140,12646240 C 6687810,12629260 6666070,12615990 6644630,12606800 C 6621980,12598100 6596520,12593700 6568220,12593700 C 6497600,12594930 6433720,12627670 6376560,12691540 C 6317130,12755420 6286860,12837550 6285590,12937710 C 6285590,13036040 6310060,13118530 6359080,13184890 C 6406640,13252840 6475120,13287670 6564680,13289620 C 6565360,13289620 6566270,13289620 6566950,13289620 C 6620770,13289620 6670640,13270870 6716490,13233720 L 6743210,13274400 L 6769200,13274400 L 6769200,13093580 L 6745700,13093580 C 6733290,13139050 6712770,13178150 6683910,13210710 C 6654370,13244510 6615650,13261680 6568040,13262400 C 6494790,13261680 6447180,13233720 6425250,13178510 C 6413570,13151780 6405780,13120660 6402070,13084740 C 6397610,13049320 6395490,13010040 6395490,12966690 C 6395490,12963150 6395320,12959070 6395320,12955180 C 6395320,12925460 6397610,12886020 6402070,12838050 C 6404510,12812040 6408760,12786220 6414790,12760900 C 6419730,12736480 6426650,12715240 6435130,12697020 C 6445060,12677230 6461490,12658980 6483960,12642350 C 6506110,12625550 6532480,12616710 6563240,12615990 C 6614020,12616710 6652970,12632780 6680050,12664270 C 6707650,12696310 6726040,12736850 6735040,12786390 L 6757520,12786390 z M 5565020,12631210 L 5565020,13252110 L 5490850,13252110 L 5490850,13274400 L 5668510,13274400 L 5668510,13252110 L 5594190,13252110 L 5594190,12651550 L 5595960,12651550 L 5957980,13289620 L 5982940,13289620 L 5982940,12631210 L 6076570,12631210 L 6076570,12608730 L 5878520,12608730 L 5878520,12631210 L 5953760,12631210 L 5953760,13090580 L 5952000,13090580 L 5678400,12608730 L 5490850,12608730 L 5490850,12631210 L 5565020,12631210 z M 4705400,13274400 L 4893470,13274400 L 4893470,13252110 L 4810480,13252110 L 4879340,13032200 L 5063530,13032200 L 5130080,13252110 L 5049380,13252110 L 5049380,13274400 L 5295000,13274400 L 5295000,13252110 L 5227550,13252110 L 5028690,12600030 L 4991000,12600030 L 4781680,13252110 L 4705400,13252110 L 4705400,13274400 z M 5053600,13004920 L 4887810,13004920 L 4972570,12734170 L 4974520,12734170 L 5053600,13004920 z M 4048010,13274400 L 4544710,13274400 L 4555480,13088460 L 4536020,13088460 C 4530900,13123110 4517630,13158340 4496380,13194090 C 4485960,13209990 4472690,13223440 4456750,13234080 C 4440660,13246080 4422080,13252110 4401380,13252110 L 4219480,13252110 L 4219480,12631210 L 4317490,12631210 L 4317490,12608730 L 4048010,12608730 L 4048010,12631210 L 4126060,12631210 L 4126060,13252110 L 4048010,13252110 L 4048010,13274400 z M 3541920,12951830 L 3541920,12631210 L 3568780,12631210 C 3601910,12631210 3630570,12632070 3655180,12634020 C 3679410,12636690 3699380,12643070 3715150,12653120 C 3730560,12663220 3742060,12678440 3749660,12698970 C 3757450,12719860 3761310,12747440 3761310,12781960 C 3761310,12784950 3761500,12787990 3761500,12790980 C 3761500,12841260 3749850,12880350 3727340,12907930 C 3713930,12921930 3695170,12932700 3671250,12940140 C 3665600,12942080 3659080,12943490 3651790,12944040 C 3644890,12945990 3637470,12947570 3629660,12949020 C 3613580,12950970 3595340,12951830 3574810,12951830 L 3541920,12951830 z M 3373280,12608730 L 3373280,12631210 L 3448480,12631210 L 3448480,13252110 L 3366040,13252110 L 3366040,13274400 L 3627730,13274400 L 3627730,13252110 L 3541920,13252110 L 3541920,12974120 L 3588100,12974120 C 3639050,12974120 3682220,12967960 3717820,12955180 C 3753020,12943850 3781330,12929010 3802750,12910600 C 3824680,12891140 3840450,12870610 3849820,12848860 C 3859010,12827440 3863410,12806560 3863410,12786220 C 3863410,12763570 3859890,12741460 3852620,12720030 C 3845200,12698970 3832290,12680230 3814090,12663780 C 3779020,12628350 3717460,12610150 3629300,12608730 L 3373280,12608730 z M 2921420,13091980 L 3157790,13091980 L 3157790,13025810 L 2921420,13025810 L 2921420,13091980 z M 2328130,13274400 L 2328130,13252110 L 2241600,13252110 L 2398380,12983490 L 2554790,13252110 L 2474980,13252110 L 2474980,13274400 L 2727830,13274400 L 2727830,13252110 L 2661830,13252110 L 2453560,12894850 L 2612090,12631210 L 2691920,12631210 L 2691920,12608730 L 2500630,12608730 L 2500630,12631210 L 2579700,12631210 L 2443130,12865680 L 2307060,12631210 L 2378170,12631210 L 2378170,12608730 L 2129390,12608730 L 2129390,12631210 L 2196800,12631210 L 2379940,12959620 L 2210440,13252110 L 2129390,13252110 L 2129390,13274400 L 2328130,13274400 z M 1361280,13274400 L 1549180,13274400 L 1549180,13252110 L 1466360,13252110 L 1535060,13032200 L 1719410,13032200 L 1785960,13252110 L 1705100,13252110 L 1705100,13274400 L 1950880,13274400 L 1950880,13252110 L 1883440,13252110 L 1684570,12600030 L 1646890,12600030 L 1437570,13252110 L 1361280,13252110 L 1361280,13274400 z M 1709500,13004920 L 1543510,13004920 L 1628450,12734170 L 1630400,12734170 L 1709500,13004920 z M 502270,12631210 L 573610,12631210 L 573610,13252110 L 502270,13252110 L 502270,13274400 L 675340,13274400 L 675340,13252110 L 602790,13252110 L 602790,12643760 L 604550,12643760 L 785070,13274400 L 809980,13274400 L 997560,12643760 L 999500,12643760 L 999500,13252110 L 925000,13252110 L 925000,13274400 L 1188310,13274400 L 1188310,13252110 L 1092730,13252110 L 1092730,12631210 L 1188310,12631210 L 1188310,12608730 L 990500,12608730 L 843590,13098690 L 841690,13098690 L 701710,12608730 L 502270,12608730 L 502270,12631210 z M 500010,12255380 L 16500010,12255380 L 16500010,12293980 L 500010,12293980 L 500010,12255380 L 500010,12255380 z "
   style="fill:#007d7a"
   id="path53" />

 </g>
  </g>
</svg>
