<svg xmlns="http://www.w3.org/2000/svg" xmlns:xlink="http://www.w3.org/1999/xlink" version="1.1" id="Layer_1" x="0px" y="0px" width="100px" height="100px" viewBox="0 0 100 100" enable-background="new 0 0 100 100" xml:space="preserve">
<path d="M84.752,34.279c-5.906-1.726-11.985-0.726-17.953,1.51c4.187-5.347,7.188-11.191,7.188-17.709  c0-7.596-6.158-13.753-13.753-13.753c-4.017,0-7.62,1.732-10.134,4.479c-2.515-2.747-6.118-4.479-10.134-4.479  c-7.596,0-13.753,6.158-13.753,13.753c0,6.519,3,12.363,7.188,17.709c-5.967-2.235-12.047-3.235-17.953-1.51  c-7.291,2.13-11.474,9.769-9.344,17.06c1.127,3.854,3.801,6.827,7.142,8.471c-1.93,3.183-2.582,7.127-1.456,10.982  c2.131,7.291,9.769,11.475,17.06,9.344c8.517-2.491,14.285-9.942,18.982-18.154c-1.217,14.175,1.63,34.929,2.185,33.636  c0.878-2.05,3.498-5.67,5.911-6.394c1.88-0.563-4.293-16.942-4.261-28.488c4.825,8.695,10.738,16.785,19.684,19.4  c7.291,2.131,14.928-2.053,17.059-9.344c1.128-3.855,0.475-7.8-1.455-10.982c3.341-1.644,6.016-4.616,7.142-8.471  C96.227,44.048,92.042,36.409,84.752,34.279z"/>
</svg>