<svg xmlns="http://www.w3.org/2000/svg" width="14" height="14" viewBox="0 0 511.976 511.98">
  <path id="pencil-alt-solid" d="M497.9,142.1l-46.1,46.1a12.011,12.011,0,0,1-17,0l-111-111a12.011,12.011,0,0,1,0-17l46.1-46.1a48.1,48.1,0,0,1,67.9,0l60.1,60.1A47.922,47.922,0,0,1,497.9,142.1ZM284.2,99.8,21.6,362.4.4,483.9a24.03,24.03,0,0,0,27.8,27.8l121.5-21.3L412.3,227.8a12.011,12.011,0,0,0,0-17l-111-111a12.132,12.132,0,0,0-17.1,0ZM124.1,339.9a13.942,13.942,0,0,1,0-19.8l154-154a14,14,0,0,1,19.8,19.8l-154,154a13.943,13.943,0,0,1-19.8,0ZM88,424h48v36.3L71.5,471.6,40.4,440.5,51.7,376H88Z" transform="translate(-0.024 -0.075)" fill="#f1f1f1"/>
</svg>
