<svg xmlns="http://www.w3.org/2000/svg" width="18" height="18" viewBox="0 0 581.973 581.98">
  <g id="pencil-alt-solid" transform="translate(34.973 34.925)">
    <path d="M 24.04741859436035 529.5546875 C 24.04684829711914 529.5546875 24.0464916229248 529.5546875 24.04592323303223 529.5546875 C 11.74508953094482 529.5538330078125 0.1359227746725082 524.1228637695312 -7.804743766784668 514.6541748046875 C -15.68007755279541 505.263427734375 -18.97057723999023 492.943359375 -16.83266067504883 480.8527526855469 L 4.360506057739258 359.3919372558594 L 5.311839580535889 353.9394226074219 L 9.225672721862793 350.0256652832031 L 271.82568359375 87.42568206787109 C 277.4040832519531 81.84717559814453 284.8218383789062 78.77500915527344 292.7124938964844 78.77500915527344 C 297.3363342285156 78.77500915527344 301.8123168945312 79.83274078369141 305.858642578125 81.83287048339844 C 300.3849792480469 70.79093170166016 302.2408752441406 57.0104866027832 311.4256591796875 47.82567977905273 L 357.5256652832031 1.72567892074585 C 369.8750915527344 -10.62382125854492 386.3134155273438 -17.42498779296875 403.8125 -17.42498779296875 C 421.2939147949219 -17.42498779296875 437.7471618652344 -10.63557147979736 450.1413269042969 1.692678928375244 L 510.2743530273438 61.82567977905273 C 522.6370849609375 74.12251281738281 529.4766845703125 90.54151153564453 529.4999389648438 108.0249252319336 C 529.5233154296875 125.5571823120117 522.6956176757812 142.0531768798828 510.2743530273438 154.4743499755859 L 464.1743469238281 200.5743408203125 C 458.5959167480469 206.1528472900391 451.1825866699219 209.2250061035156 443.3000183105469 209.2250061035156 C 438.7029418945312 209.2250061035156 434.2659912109375 208.1803741455078 430.259033203125 206.2028350830078 C 435.7111511230469 217.2388153076172 433.8493041992188 230.9993743896484 424.6743469238281 240.1743469238281 L 162.0743408203125 502.7743530273438 L 158.1660003662109 506.6827697753906 L 152.7218322753906 507.6371765136719 L 31.22183990478516 528.9371948242188 C 28.74686050415039 529.3599243164062 26.37711906433105 529.5546875 24.04741859436035 529.5546875 Z M 59.20744323730469 434.5587768554688 L 77.44123840332031 452.7925720214844 L 118.5000076293945 445.5993347167969 L 118.5000076293945 441.5 L 88.00000762939453 441.5 L 70.50000762939453 441.5 L 70.50000762939453 424 L 70.50000762939453 393.5 L 66.40068817138672 393.5 L 59.20744323730469 434.5587768554688 Z" stroke="none"/>
    <path d="M 403.8125 0.07501220703125 C 391.5250244140625 0.07501220703125 379.25 4.75 369.9000244140625 14.10000610351562 L 323.7999877929688 60.20001220703125 C 319.1000061035156 64.9000244140625 319.1000061035156 72.5 323.7999877929688 77.20001220703125 L 434.7999877929688 188.2000122070312 C 439.5 192.9000244140625 447.1000061035156 192.8999938964844 451.8000183105469 188.2000122070312 L 497.8999938964844 142.1000061035156 C 516.7000122070312 123.3000183105469 516.7000122070312 92.9000244140625 497.8999938964844 74.20001220703125 L 437.7999877929688 14.10000610351562 C 428.4000244140625 4.75 416.1000061035156 0.07501220703125 403.8125 0.07501220703125 M 292.7125244140625 96.2750244140625 C 289.625 96.2750244140625 286.5499877929688 97.45001220703125 284.2000122070312 99.80001831054688 L 21.60000610351562 362.4000244140625 L 0.4000244140625 483.9000244140625 C -2.5 500.3000183105469 11.79974365234375 514.5 28.20001220703125 511.7000122070312 L 149.7000122070312 490.4000244140625 L 412.2999877929688 227.8000183105469 C 417 223.1000061035156 417 215.5 412.2999877929688 210.8000183105469 L 301.2999877929688 99.80001831054688 C 298.9000244140625 97.45001220703125 295.7999877929688 96.2750244140625 292.7125244140625 96.2750244140625 M 134 344.0250244140625 C 130.4250183105469 344.0250244140625 126.8500061035156 342.6500244140625 124.1000061035156 339.9000244140625 C 118.6000061035156 334.4000244140625 118.6000061035156 325.6000061035156 124.1000061035156 320.1000061035156 L 278.1000061035156 166.1000061035156 C 283.6000366210938 160.5999755859375 292.4000244140625 160.6000366210938 297.9000244140625 166.1000061035156 C 303.4000244140625 171.6000061035156 303.4000244140625 180.4000244140625 297.9000244140625 185.9000244140625 L 143.8999938964844 339.9000244140625 C 141.1499938964844 342.6500244140625 137.5750122070312 344.0250244140625 134 344.0250244140625 M 71.5 471.6000061035156 L 40.39999389648438 440.5 L 51.70001220703125 376 L 88 376 L 88 424 L 136 424 L 136 460.3000183105469 L 71.5 471.6000061035156 M 403.8125 -34.92498779296875 C 425.9508056640625 -34.92498779296875 446.7868957519531 -26.326904296875 462.4826965332031 -10.714599609375 L 522.648681640625 49.45132446289062 C 538.298828125 65.01791381835938 546.9703979492188 85.83489990234375 546.9998779296875 108.0016174316406 C 547.0294799804688 130.2170104980469 538.3815307617188 151.1159973144531 522.648681640625 166.8487243652344 L 476.5487060546875 212.9486999511719 C 469.3361206054688 220.161376953125 460.1961059570312 224.7431030273438 450.29248046875 226.2116088867188 C 448.8709716796875 235.8564758300781 444.4564208984375 245.1410522460938 437.0487060546875 252.5487060546875 L 166.6320190429688 522.9653930664062 L 34.24359130859375 546.17431640625 C 30.77191162109375 546.767333984375 27.39291381835938 547.0546264648438 24.047119140625 547.0546264648438 C 6.55889892578125 547.0546264648438 -9.9375 539.344482421875 -21.21209716796875 525.9014282226562 C -32.421875 512.5355224609375 -37.106689453125 495.0053100585938 -34.0653076171875 477.8056030273438 L -10.976318359375 345.4788208007812 L 259.4512939453125 75.05130004882812 C 266.6790771484375 67.82345581054688 275.8446960449219 63.23773193359375 285.77783203125 61.77926635742188 C 287.23486328125 51.84814453125 291.8212890625 42.68124389648438 299.0513000488281 35.45132446289062 L 345.1513061523438 -10.648681640625 C 360.8059997558594 -26.303466796875 381.6390075683594 -34.92498779296875 403.8125 -34.92498779296875 Z" stroke="none" fill="#f1f1f1"/>
  </g>
</svg>
