<svg xmlns="http://www.w3.org/2000/svg" viewBox="0 0 512 512" style="max-width:100%" height="100%"><circle cx="81.16" cy="398.87" r="10" style="" fill="currentColor"></circle><path d="M461.2 92.95h-58.84a54.74 54.74 0 0 0-35 12.6V75.5a71.3 71.3 0 0 0-71.2-71.22h-66.72a10 10 0 0 0-10 10v27.46a71.3 71.3 0 0 0 71.21 71.22h56.72v101.37a123.45 123.45 0 0 0-80.61 23.17 10 10 0 1 0 11.7 16.22 104.17 104.17 0 0 1 78.05-18.23 104.51 104.51 0 0 1 74.23 52.43 10 10 0 1 0 17.5-9.7 124.52 124.52 0 0 0-80.87-60.95v-32.34h48.84c30.32 0 54.99-24.67 54.99-54.99v-26.98a10 10 0 0 0-10-10zm-113.83 0h-56.72a51.28 51.28 0 0 1-51.21-51.22V24.27h56.71a51.28 51.28 0 0 1 51.22 51.22v17.46zm103.83 36.98c0 19.3-15.7 35-35 35h-48.83v-16.98c0-19.3 15.7-35 35-35h48.83v16.98zM508.66 328.81a39.24 39.24 0 0 0-51.68-20.02l-.15.07-65.33 30.13a10 10 0 0 0 8.37 18.16l65.26-30.1a19.21 19.21 0 0 1 25.23 9.84 19.21 19.21 0 0 1-9.8 25.3l-133.7 59.04a77.5 77.5 0 0 1-65.98-1.5l-48.94-24.31a97.46 97.46 0 0 0-82.96-1.88l-.96.42-36.58-82.84 50.78-22.42a101.05 101.05 0 0 1 76.02-2.43l98.42 36.14a17.84 17.84 0 0 1 10.67 22.4 17.77 17.77 0 0 1-22.47 11.06l-76.1-25.74a10 10 0 1 0-6.42 18.94l76.11 25.74a37.51 37.51 0 0 0 12.04 2c15.7 0 30.41-9.89 35.76-25.53 6.59-19.25-3.6-40.63-22.7-47.64l-98.42-36.15a120.96 120.96 0 0 0-90.98 2.9l-51.11 22.58A25.14 25.14 0 0 0 91 283.19a25.16 25.16 0 0 0-19.36.43L6 312.4A10 10 0 0 0 0 321.55v176.18a10 10 0 0 0 14.5 8.93l127.47-64.4a25.16 25.16 0 0 0 13.12-13.9c2.01-5.18 2.26-10.74.78-16l1.19-.52a77.51 77.51 0 0 1 65.98 1.5l48.94 24.3a97.45 97.45 0 0 0 82.95 1.89l133.71-59.04a39.24 39.24 0 0 0 20.02-51.68zm-372.22 92.33a5.3 5.3 0 0 1-2.82 2.95l-.47.22L20 481.47V437.7l29.58-14.53a10 10 0 1 0-8.82-17.95L20 415.42v-87.33l59.69-26.16a5.3 5.3 0 0 1 7.03 2.73l47.04 106.53.01.03 2.58 5.83c.58 1.3.6 2.76.1 4.09z" style="" fill="currentColor"></path></svg>