<?xml version="1.0" encoding="UTF-8" standalone="no"?>
<svg
   viewBox="0 0 21 21"
   version="1.1"
   id="svg1"
   sodipodi:docname="ruler-pointed-border.svg"
   width="21"
   height="21"
   inkscape:version="1.3 (1:1.3+202307231459+0e150ed6c4)"
   xmlns:inkscape="http://www.inkscape.org/namespaces/inkscape"
   xmlns:sodipodi="http://sodipodi.sourceforge.net/DTD/sodipodi-0.dtd"
   xmlns="http://www.w3.org/2000/svg"
   xmlns:svg="http://www.w3.org/2000/svg">
  <defs
     id="defs1" />
  <sodipodi:namedview
     id="namedview1"
     pagecolor="#ffffff"
     bordercolor="#000000"
     borderopacity="0.25"
     inkscape:showpageshadow="2"
     inkscape:pageopacity="0.0"
     inkscape:pagecheckerboard="0"
     inkscape:deskcolor="#d1d1d1"
     inkscape:zoom="22.943488"
     inkscape:cx="14.666471"
     inkscape:cy="11.441155"
     inkscape:window-width="1503"
     inkscape:window-height="942"
     inkscape:window-x="235"
     inkscape:window-y="1472"
     inkscape:window-maximized="1"
     inkscape:current-layer="svg1" />
  <!--! Font Awesome Pro 6.4.2 by @fontawesome - https://fontawesome.com License - https://fontawesome.com/license (Commercial License) Copyright 2023 Fonticons, Inc. -->
  <path
     d="m 7.2684799,11.923903 c -0.7984812,1e-6 -1.4475141,-0.649032 -1.4496486,-1.449649 l 0.00214,-3.9347595 c -3e-7,-0.7984808 0.6490323,-1.4475134 1.4496481,-1.4496481 h 1.0068018 l 5e-7,2.0495765 c 0,0.2647367 0.2177674,0.482504 0.4825043,0.4825042 0.2647369,2e-7 0.4825049,-0.2177673 0.4825039,-0.4825042 V 5.0898466 l 1.7677601,-2e-7 v 2.0495762 c 1e-6,0.2647374 0.217768,0.482505 0.482505,0.4825049 0.264737,-1e-7 0.482504,-0.2177676 0.482504,-0.4825042 V 5.0898461 h 1.76776 v 2.0495773 c 0,0.2647366 0.217767,0.4825036 0.482504,0.4825035 0.264737,4e-7 0.482505,-0.2177672 0.482504,-0.4825045 l 10e-7,-2.0495757 1.767759,-6e-7 1e-6,2.0495772 c -1e-6,0.2647366 0.217768,0.482505 0.482504,0.4825049 0.264737,-4e-7 0.482505,-0.2177679 0.482505,-0.482505 l -10e-7,-2.0495773 1.05772,7e-7 c 0.798481,5e-7 1.447513,0.649032 1.449648,1.449648 v 3.9326244 c 0,0.798481 -0.649033,1.447513 -1.449649,1.449648 z"
     id="path1"
     style="stroke:#f1f1f1;stroke-width:0.603863;stroke-linecap:round;stroke-linejoin:round;stroke-dasharray:none;stroke-opacity:1"
     sodipodi:nodetypes="cccccssccccssccssccccsscscscc" />
  <g
     id="g1"
     transform="matrix(0.05856247,0,0,0.05856247,-16.253628,-10.000872)">
    <path
       id="Path_9"
       data-name="Path 9"
       d="m 335.13445,449.43565 a 12.673321,12.673321 0 0 1 -3.73878,-9.04029 l 0.10999,-61.59599 a 12.77662,12.77662 0 0 1 21.79778,-9.04001 l 61.4985,61.4985 a 12.77662,12.77662 0 0 1 -9.0429,21.79764 l -61.58939,0.12374 a 12.674522,12.674522 0 0 1 -9.04125,-3.73741 z"
       style="stroke-width:0.400383" />
    <path
       id="Path_10-6"
       data-name="Path 10"
       d="m 349.06281,374.00603 c -4.25437,-4.25437 -11.53602,-1.22779 -11.54427,4.80613 l -0.12374,61.59103 a 6.7588643,6.7588643 0 0 0 6.76427,6.76414 l 61.59213,-0.12375 c 6.03227,-0.009 9.05968,-7.29072 4.80613,-11.54427 l -61.4996,-61.4996 m 8.49335,-8.49335 61.4985,61.49836 a 18.782364,18.782364 0 0 1 -13.28023,32.05019 l -61.58718,0.12374 a 18.770353,18.770353 0 0 1 -18.79334,-18.79388 l 0.12375,-61.5964 a 18.782364,18.782364 0 0 1 32.05005,-13.27569 z"
       fill="#f1f1f1"
       style="stroke-width:0.400383" />
  </g>
</svg>
