<?xml version="1.0" encoding="UTF-8" standalone="no"?>
<svg
   xmlns:dc="http://purl.org/dc/elements/1.1/"
   xmlns:cc="http://creativecommons.org/ns#"
   xmlns:rdf="http://www.w3.org/1999/02/22-rdf-syntax-ns#"
   xmlns:svg="http://www.w3.org/2000/svg"
   xmlns="http://www.w3.org/2000/svg"
   xmlns:sodipodi="http://sodipodi.sourceforge.net/DTD/sodipodi-0.dtd"
   xmlns:inkscape="http://www.inkscape.org/namespaces/inkscape"
   version="1.1"
   id="Layer_1"
   x="0px"
   y="0px"
   width="100px"
   height="100px"
   viewBox="0 0 100 100"
   enable-background="new 0 0 100 100"
   xml:space="preserve"
   inkscape:version="0.91 r13725"
   sodipodi:docname="skeleton.svg"><metadata
     id="metadata9"><rdf:RDF><cc:Work
         rdf:about=""><dc:format>image/svg+xml</dc:format><dc:type
           rdf:resource="http://purl.org/dc/dcmitype/StillImage" /></cc:Work></rdf:RDF></metadata><defs
     id="defs7" /><sodipodi:namedview
     pagecolor="#ffffff"
     bordercolor="#666666"
     borderopacity="1"
     objecttolerance="10"
     gridtolerance="10"
     guidetolerance="10"
     inkscape:pageopacity="0"
     inkscape:pageshadow="2"
     inkscape:window-width="1165"
     inkscape:window-height="757"
     id="namedview5"
     showgrid="false"
     inkscape:zoom="2.36"
     inkscape:cx="50"
     inkscape:cy="50"
     inkscape:window-x="0"
     inkscape:window-y="0"
     inkscape:window-maximized="0"
     inkscape:current-layer="Layer_1" /><path
     d="M95.267,21.241c2.133,0,3.862-1.729,3.862-3.862s-1.729-3.862-3.862-3.862c-1.828,0-3.353,1.275-3.752,2.982l-19.04,3.862  c-0.917-1.805-2.638-3.127-4.693-3.498l-0.3-8.391c1.576-0.673,2.683-2.235,2.683-4.059C70.164,1.976,68.188,0,65.75,0  c-2.437,0-4.414,1.976-4.414,4.414c0,2.086,1.451,3.822,3.396,4.283l0.295,8.255c-1.637,0.404-3.031,1.415-3.929,2.786  l-15.608-9.439c0.073-0.296,0.123-0.602,0.123-0.92c0-2.134-1.729-3.862-3.862-3.862c-2.132,0-3.862,1.728-3.862,3.862  s1.729,3.862,3.862,3.862c0.805,0,1.552-0.248,2.17-0.669l16.183,9.789c-0.048,0.319-0.08,0.644-0.08,0.976  c0,0.963,0.212,1.875,0.583,2.699L36.021,50.564c-1.135-0.928-2.584-1.486-4.165-1.486c-1.343,0-2.59,0.404-3.631,1.094  L16.558,38.505c0.616-0.875,0.985-1.937,0.985-3.088c0-2.971-2.408-5.379-5.379-5.379c-2.971,0-5.379,2.408-5.379,5.379  c0,2.971,2.409,5.379,5.379,5.379c0.813,0,1.577-0.194,2.268-0.518l11.865,11.866c-0.646,1.019-1.025,2.223-1.025,3.518  c0,0.497,0.06,0.979,0.164,1.444l-16.813,5.65c-0.692-1.042-1.873-1.729-3.217-1.729c-2.133,0-3.862,1.729-3.862,3.862  c0,2.133,1.729,3.86,3.862,3.86c1.934,0,3.521-1.425,3.803-3.28l17.398-5.846c0.998,1.32,2.479,2.249,4.183,2.527l-0.003,9.885  c-1.973,0.439-3.45,2.195-3.45,4.301c0,2.438,1.976,4.413,4.414,4.413s4.414-1.976,4.414-4.413c0-1.798-1.078-3.338-2.62-4.025  l0.004-10.294c1.898-0.505,3.455-1.832,4.271-3.58l22.252,4.481C60.039,63.152,60,63.383,60,63.625c0,2.83,2.295,5.125,5.125,5.125  c0.374,0,0.736-0.045,1.087-0.121l3.639,8.99c-1.05,0.836-1.737,2.107-1.737,3.555c0,0.74,0.193,1.43,0.508,2.047l-7.385,7.743  c-0.033-0.013-0.062-0.034-0.097-0.046c-2.006-0.723-4.219,0.32-4.94,2.326c-0.721,2.006,0.32,4.218,2.326,4.94  c2.008,0.722,4.219-0.321,4.941-2.327c0.372-1.035,0.268-2.121-0.189-3.035l7.281-7.637c0.633,0.333,1.342,0.538,2.105,0.538  c1.195,0,2.273-0.47,3.086-1.224l13.693,9.205c-0.138,0.396-0.228,0.815-0.228,1.261c0,2.133,1.729,3.86,3.86,3.86  c2.133,0,3.862-1.729,3.862-3.86c0-2.134-1.729-3.862-3.862-3.862c-0.668,0-1.289,0.186-1.838,0.486l-14.119-9.491  c0.062-0.299,0.097-0.608,0.097-0.926c0-2.515-2.038-4.552-4.552-4.552c-0.08,0-0.153,0.019-0.231,0.022l-3.754-9.337  c0.966-0.932,1.571-2.234,1.571-3.682c0-2.83-2.295-5.125-5.125-5.125c-1.594,0-3.001,0.743-3.94,1.886l-22.749-4.652  c0-0.024,0.003-0.047,0.003-0.071c0-1.056-0.254-2.05-0.696-2.934l24.501-24.472c1.162,1.031,2.688,1.663,4.363,1.663  c1.354,0,2.61-0.41,3.656-1.11l12.703,12.703c-0.246,0.55-0.391,1.156-0.391,1.797c0,2.439,1.977,4.414,4.414,4.414  s4.413-1.975,4.413-4.414c0-2.438-1.976-4.414-4.413-4.414c-0.787,0-1.516,0.223-2.154,0.584L72.183,26.826  c0.635-1.013,1.008-2.207,1.008-3.49c0-0.103-0.011-0.202-0.016-0.304L91.9,19.235C92.558,20.426,93.811,21.241,95.267,21.241z"
     id="path3"
     style="fill:#108ee9;fill-opacity:1" /></svg>