<?xml version="1.0" encoding="UTF-8" standalone="no"?>
<svg
   xmlns:osb="http://www.openswatchbook.org/uri/2009/osb"
   xmlns:dc="http://purl.org/dc/elements/1.1/"
   xmlns:cc="http://creativecommons.org/ns#"
   xmlns:rdf="http://www.w3.org/1999/02/22-rdf-syntax-ns#"
   xmlns:svg="http://www.w3.org/2000/svg"
   xmlns="http://www.w3.org/2000/svg"
   xmlns:sodipodi="http://sodipodi.sourceforge.net/DTD/sodipodi-0.dtd"
   xmlns:inkscape="http://www.inkscape.org/namespaces/inkscape"
   version="1.1"
   id="mdi-table-merge-cells"
   width="24"
   height="24"
   viewBox="0 0 24 24"
   sodipodi:docname="soma-clicking-icon.svg"
   inkscape:version="0.92.5 (2060ec1f9f, 2020-04-08)">
  <metadata
     id="metadata9">
    <rdf:RDF>
      <cc:Work
         rdf:about="">
        <dc:format>image/svg+xml</dc:format>
        <dc:type
           rdf:resource="http://purl.org/dc/dcmitype/StillImage" />
      </cc:Work>
    </rdf:RDF>
  </metadata>
  <defs
     id="defs7">
    <linearGradient
       id="linearGradient4579"
       osb:paint="solid">
      <stop
         style="stop-color:#006466;stop-opacity:1;"
         offset="0"
         id="stop4577" />
    </linearGradient>
  </defs>
  <sodipodi:namedview
     pagecolor="#ffffff"
     bordercolor="#666666"
     borderopacity="1"
     objecttolerance="10"
     gridtolerance="10"
     guidetolerance="10"
     inkscape:pageopacity="0"
     inkscape:pageshadow="2"
     inkscape:window-width="1920"
     inkscape:window-height="1029"
     id="namedview5"
     showgrid="false"
     inkscape:zoom="19.666667"
     inkscape:cx="-5.8182026"
     inkscape:cy="8.5211047"
     inkscape:window-x="0"
     inkscape:window-y="27"
     inkscape:window-maximized="1"
     inkscape:current-layer="mdi-table-merge-cells" />
  <path
     style="fill:none;stroke:#dcdcdc;stroke-width:2;stroke-linecap:butt;stroke-linejoin:miter;stroke-opacity:1;stroke-miterlimit:4;stroke-dasharray:none"
     d="M 8.0338983,13.220339 C 4.779661,11.745763 5.2881356,11.745763 4.779661,11.745763 c -0.5084746,0 -1.4237288,0.05085 -1.6271186,0.101695 -0.2033899,0.05085 -0.4576271,0.406779 -1.0677966,0.610169 -0.6101695,0.20339 -0.7118644,0.20339 -0.9152543,0.254237 -0.2033898,0.05085 -0.30508472,0.152543 -0.30508472,0.152543 l -0.55932203,0.355932 -0.20338983,-0.05085"
     id="path4565"
     inkscape:connector-curvature="0" />
  <path
     style="fill:none;stroke:#dcdcdc;stroke-width:2;stroke-linecap:butt;stroke-linejoin:miter;stroke-opacity:1;stroke-miterlimit:4;stroke-dasharray:none"
     d="m 0,2.7966102 c 0,0 3.1525424,-0.6101695 3.6101695,-0.5593221 0.4576271,0.050848 0.2542373,0.050848 1.6779661,0.3050848 1.4237288,0.2542373 1.8305085,0.2542373 2.4915254,0.8644068 0.661017,0.6101694 1.9830509,0.1016949 2.288136,0 0.305084,-0.101695 1.271186,-0.050848 1.271186,-0.050848 0,0 -0.152542,1.7288136 0.101695,2.6440678 0.254237,0.9152542 0,1.4237288 0.762712,1.6271186 0.762712,0.2033899 1.220339,1.2711865 1.220339,1.2711865 l -0.05085,0.3050847 0.305085,0.7627119"
     id="path4567"
     inkscape:connector-curvature="0" />
  <path
     style="fill:none;stroke:#dcdcdc;stroke-width:2;stroke-linecap:butt;stroke-linejoin:miter;stroke-opacity:1;stroke-miterlimit:4;stroke-dasharray:none"
     d="m 11.338983,3.3559317 c 0,0 1.271186,-0.2033893 1.525424,-0.4067792 0.254237,-0.2033898 0.915254,-0.7118644 0.915254,-0.7118644 0,0 1.169492,-0.8135593 1.830508,-0.8644068 0.661017,-0.050847 1.474577,-0.3050847 1.474577,-0.3050847 L 17.59322,0.25423728"
     id="path4569"
     inkscape:connector-curvature="0" />
  <path
     style="fill:none;stroke:#dcdcdc;stroke-width:2;stroke-linecap:butt;stroke-linejoin:miter;stroke-opacity:1;stroke-miterlimit:4;stroke-dasharray:none"
     d="m 20.542373,10.118644 c 0.152542,-0.2033898 1.118644,-1.8813559 1.118644,-1.8813559 0,0 0.20339,-0.050847 0.762712,-0.2033898"
     id="path4571"
     inkscape:connector-curvature="0" />
  <path
     style="fill:none;stroke:#dcdcdc;stroke-width:2;stroke-linecap:butt;stroke-linejoin:miter;stroke-opacity:1;stroke-miterlimit:4;stroke-dasharray:none"
     d="m 13.372881,21.355932 c 0,0 -5.2372878,-1.271186 -5.5423725,-1.372881 -0.3050848,-0.101695 -0.7118644,-0.20339 -0.8644068,-1.016949 -0.1525424,-0.81356 -0.1016949,-2.593221 0,-2.898305 0.1016949,-0.305085 1.0677966,-2.847458 1.0677966,-2.847458 0,0 2.2372877,-1.271186 2.5932207,-1.728814 0.355932,-0.457627 1.728815,-0.508474 2.38983,-1.016949 0.661015,-0.5084748 2.694915,-0.406779 2.694915,-0.406779 0,0 3.508475,0.101695 3.762712,0.152542 0.254238,0.05085 1.067797,-0.101695 1.067797,-0.101695 0,0 0,0.559322 0.152542,0.966102 0.152543,0.406779 1.016949,1.576271 1.118644,1.881356 0.101695,0.305084 0.305085,1.525423 0.355933,2.288135 0.05085,0.762712 -1.474577,3.355932 -1.627119,3.966102 -0.152542,0.610169 -1.080509,1.372882 -1.080509,1.372882 0,0 -1.665254,1.474576 -2.885593,1.322031 -1.220339,-0.152542 -2.834746,-0.457626 -3.343221,-0.597456"
     id="path4573"
     inkscape:connector-curvature="0"
     sodipodi:nodetypes="cssscssccccscsccc" />
  <rect
     style="fill:#e6e6e6;stroke:#66001d;stroke-width:1.3004173;stroke-opacity:1"
     id="rect4575-5"
     width="1.3775485"
     height="1.3267013"
     x="17.412922"
     y="4.7773271" />
  <path
     style="fill:none;stroke:#dcdcdc;stroke-width:2;stroke-linecap:butt;stroke-linejoin:miter;stroke-opacity:1;stroke-miterlimit:4;stroke-dasharray:none"
     d="m 12.661017,21.610169 c -0.355932,0.81356 -0.457627,1.271187 -0.457627,1.271187 l -0.05085,0.20339"
     id="path4606"
     inkscape:connector-curvature="0" />
  <rect
     style="fill:none;stroke:#005266;stroke-width:1.3;stroke-miterlimit:4;stroke-dasharray:none;stroke-opacity:1"
     id="rect4575-5-3"
     width="1.3775485"
     height="1.3267013"
     x="14.260379"
     y="15.150208" />
  <rect
     style="fill:#e6e6e6;stroke:#00660e;stroke-width:1.29999995;stroke-miterlimit:4;stroke-dasharray:none;stroke-opacity:1"
     id="rect4575-5-3-6"
     width="1.3775485"
     height="1.3267013"
     x="3.6841068"
     y="6.5569882" />
</svg>
