<svg xmlns="http://www.w3.org/2000/svg" viewBox="0 0 512 512" style="max-width:100%" height="100%"><path d="M506.13 221.96l-87.2-98.66a10 10 0 0 0-7.49-3.38H100.56a10 10 0 0 0-7.5 3.38l-87.2 98.66a10 10 0 0 0 .96 14.19l.06.07 241.64 272.42a10 10 0 0 0 14.96 0l241.64-272.42.06-.07a10 10 0 0 0 .95-14.19zm-112.42-82.04l-44.44 71.64-71.22-71.64h115.66zm-65.66 78.67h-144.1L256 146.1l72.05 72.49zm-94.1-78.67l-71.22 71.64-44.44-71.64h115.66zM99 146.77l44.55 71.81h-108L99 146.79zm-63.3 91.81H153.9l81.63 225.27L35.71 238.58zm241.15 224.85l57.04-154.37a10 10 0 0 0-18.76-6.94L256.09 461.9 175.16 238.6h301.13L276.85 463.43zm91.6-244.84L413 146.77l63.46 71.81h-108zM256 0a10 10 0 0 0-10 10v51.51a10 10 0 0 0 20 0V10a10 10 0 0 0-10-10zM347.06 39.52a10 10 0 0 0-14.14 0l-36.43 36.43a10 10 0 0 0 14.15 14.14l36.42-36.42a10 10 0 0 0 0-14.15zM213.56 75.95l-36.43-36.43A10 10 0 0 0 163 53.67l36.43 36.42a9.97 9.97 0 0 0 14.14 0 10 10 0 0 0 0-14.14z" style="" fill="currentColor"></path><circle cx="337.43" cy="268.36" r="10" style="" fill="currentColor"></circle></svg>