<svg xmlns="http://www.w3.org/2000/svg" width="23" height="22" viewBox="0 0 772.888 738.887">
  <g id="Group_1" data-name="Group 1" transform="translate(-1207.113 -1579)">
    <g id="eraser-solid" transform="translate(1438.001 1577)">
      <path d="M 500.0000305175781 495 L 144.0000305175781 495 C 127.1718597412109 494.9996643066406 111.3511123657227 488.4465942382812 99.45169067382812 476.5479125976562 L 3.451443672180176 380.547607421875 C -21.11222267150879 355.9840087890625 -21.11222267150879 316.0160217285156 3.451443672180176 291.4524230957031 L 259.4514465332031 35.45242691040039 C 271.3514404296875 23.55300903320312 287.1722717285156 16.99992561340332 303.9997863769531 16.99992561340332 C 320.8276062011719 16.99992561340332 336.6483459472656 23.55309295654297 348.547607421875 35.45242691040039 L 508.547607421875 195.4524230957031 C 533.1112670898438 220.0160064697266 533.1112670898438 259.9840087890625 508.547607421875 284.547607421875 L 392.0960693359375 401 L 500.0000305175781 401 C 514.8878784179688 401 527 413.1121826171875 527 428 L 527 468 C 527 482.8878479003906 514.8878784179688 495 500.0000305175781 495 Z M 156.8411865234375 401 L 259.159912109375 401 L 311.4737854003906 348.6869201660156 L 195.3140258789062 232.5271759033203 L 91.84119415283203 336 L 156.8411865234375 401 Z" stroke="none"/>
      <path d="M 500.0000305175781 480 C 506.6270141601562 480 512 474.6270141601562 512 468 L 512 428 C 512 421.3730163574219 506.6270141601562 416 500.0000305175781 416 L 355.8830261230469 416 L 497.9410400390625 273.9410095214844 C 516.68603515625 255.1960144042969 516.68603515625 224.8040161132812 497.9410400390625 206.0590057373047 L 337.9410400390625 46.05900955200195 C 319.1959838867188 27.31400680541992 288.8050231933594 27.31300735473633 270.0580139160156 46.05900955200195 L 14.05802726745605 302.0590209960938 C -4.686973094940186 320.8040161132812 -4.686973094940186 351.1960144042969 14.05802726745605 369.9410095214844 L 110.0580291748047 465.9410095214844 C 119.0602264404297 474.9427185058594 131.2694244384766 479.9998168945312 144.0000305175781 480 L 500.0000305175781 480 M 195.3140258789062 211.3140106201172 L 332.68701171875 348.68701171875 L 265.3730163574219 416 L 150.6280212402344 416 L 70.62802886962891 336 L 195.3140258789062 211.3140106201172 M 500.0000305175781 510 L 144.0000305175781 510 C 123.1653289794922 509.9996948242188 103.5778274536133 501.8864135742188 88.84542846679688 487.1548156738281 L -7.155172824859619 391.1542053222656 C -37.5672721862793 360.7420959472656 -37.5672721862793 311.2579040527344 -7.155172824859619 280.8457946777344 L 248.8448333740234 24.84580993652344 C 263.5782165527344 10.11320972442627 283.1657409667969 1.999909400939941 303.9998168945312 1.999909400939941 C 324.8343200683594 1.999909400939941 344.4218139648438 10.1134090423584 359.1542358398438 24.84580993652344 L 519.1542358398438 184.8458099365234 C 549.5663452148438 215.2579040527344 549.5663452148438 264.7420959472656 519.1542358398438 295.1542053222656 L 428.3090515136719 386 L 500.0000305175781 386 C 523.158935546875 386 542 404.8410949707031 542 428 L 542 468 C 542 491.1589050292969 523.158935546875 510 500.0000305175781 510 Z M 163.0544281005859 386 L 252.9467620849609 386 L 290.2604675292969 348.6868591308594 L 195.3140258789062 253.7404022216797 L 113.0544281005859 336 L 163.0544281005859 386 Z" stroke="none" fill="#f1f1f1"/>
    </g>
    <g id="caret-down-solid" transform="translate(1478.294 1853.249) rotate(45)">
      <path d="M 136.7952575683594 349.8134460449219 C 128.2613677978516 349.8134460449219 120.2463150024414 346.4881591796875 114.2266082763672 340.4501037597656 L 5.653461933135986 231.4624176025391 C -3.495588302612305 222.2855682373047 -6.199388027191162 208.6188659667969 -1.230638265609741 196.6490173339844 C 3.724161863327026 184.7127075195312 15.27006149291992 177.0000152587891 28.18401145935059 177.0000152587891 L 245.4064636230469 177.0000152587891 C 258.3203735351562 177.0000152587891 269.8662719726562 184.7127075195312 274.8210754394531 196.6490173339844 C 279.7897644042969 208.6188659667969 277.0859985351562 222.2855682373047 267.932861328125 231.4665679931641 L 159.3680114746094 340.4459533691406 C 153.3442077636719 346.4880981445312 145.3291625976562 349.8134460449219 136.7952575683594 349.8134460449219 Z" stroke="none"/>
      <path d="M 28.18402099609375 192 C 13.15658569335938 192 5.642822265625 210.206298828125 16.28021240234375 220.8760375976562 L 124.8492736816406 329.859619140625 C 131.434326171875 336.4646606445312 142.1561584472656 336.4646606445312 148.7412109375 329.859619140625 L 257.3101501464844 220.8760375976562 C 267.9476013183594 210.206298828125 260.4337768554688 192 245.4064025878906 192 L 28.18402099609375 192 M 28.18402099609375 162 L 245.4064025878906 162 C 264.4039001464844 162 281.3877868652344 173.3432312011719 288.6748962402344 190.8982849121094 C 295.9759521484375 208.4868469238281 292.0038452148438 228.56787109375 278.5555114746094 242.0570373535156 L 169.9948425292969 351.0323486328125 C 161.1317138671875 359.9222412109375 149.3441467285156 364.8134155273438 136.7952117919922 364.8134155273438 C 124.2461547851562 364.8134155273438 112.4585876464844 359.9221801757812 103.6038970947266 351.0405883789062 L -4.973358154296875 242.0487976074219 C -18.41348266601562 228.5677490234375 -22.38552856445312 208.4867248535156 -15.08447265625 190.8982238769531 C -7.79736328125 173.3432312011719 9.18658447265625 162 28.18402099609375 162 Z" stroke="none" fill="#f1f1f1"/>
    </g>
  </g>
</svg>
