<svg xmlns="http://www.w3.org/2000/svg" xmlns:xlink="http://www.w3.org/1999/xlink" version="1.1" x="0px" y="0px" viewBox="0 0 100 100" enable-background="new 0 0 100 100" xml:space="preserve" style="max-width:100%" height="100%"><g style="" fill="currentColor"><g style="" fill="currentColor"><path d="M52.135,49.287c-0.225-0.671-0.752-1.198-1.426-1.423L26.847,39.91c-0.811-0.267-1.699-0.062-2.305,0.542l-7.954,7.956    c-0.552,0.552-0.776,1.351-0.598,2.107c0.178,0.759,0.739,1.372,1.477,1.618l22.798,7.596l7.598,22.803    c0.249,0.737,0.859,1.299,1.619,1.477c0.173,0.042,0.344,0.062,0.518,0.062c0.588,0,1.164-0.234,1.589-0.659l7.959-7.954    c0.601-0.604,0.811-1.494,0.542-2.305L52.135,49.287z M50.982,77.654l-6.802-20.415c-0.225-0.669-0.752-1.196-1.426-1.421    l-20.41-6.802l4.397-4.399l21.477,7.16l7.163,21.479L50.982,77.654z" style="" fill="currentColor"></path><path d="M68.043,33.377c-0.225-0.672-0.752-1.199-1.421-1.424l-23.867-7.954c-0.806-0.261-1.699-0.056-2.3,0.545l-7.959,7.954    c-0.552,0.552-0.776,1.348-0.598,2.106c0.178,0.76,0.739,1.372,1.477,1.619l22.803,7.598l7.598,22.798    c0.244,0.742,0.859,1.299,1.616,1.479c0.171,0.039,0.347,0.059,0.518,0.059c0.591,0,1.165-0.229,1.592-0.659l7.954-7.954    c0.601-0.605,0.811-1.494,0.542-2.305L68.043,33.377z M66.891,61.741l-6.802-20.41c-0.225-0.669-0.752-1.196-1.421-1.421    l-20.415-6.805l4.399-4.396l21.479,7.158l7.158,21.477L66.891,61.741z" style="" fill="currentColor"></path><path d="M83.956,17.469c-0.225-0.674-0.752-1.201-1.426-1.426L58.668,8.089c-0.806-0.264-1.701-0.059-2.305,0.544l-7.954,7.957    c-0.552,0.549-0.781,1.348-0.601,2.104c0.181,0.762,0.737,1.372,1.479,1.621l22.798,7.598l7.598,22.798    c0.249,0.739,0.859,1.299,1.621,1.479c0.171,0.039,0.342,0.059,0.516,0.059c0.588,0,1.164-0.232,1.589-0.659l7.954-7.954    c0.605-0.604,0.815-1.494,0.547-2.305L83.956,17.469z M82.804,45.833l-6.807-20.41c-0.225-0.672-0.752-1.199-1.421-1.424    l-20.412-6.804l4.399-4.397l21.477,7.161l7.158,21.477L82.804,45.833z" style="" fill="currentColor"></path><path d="M35.68,64.319c-0.879-0.879-2.305-0.879-3.184,0L8.634,88.182c-0.879,0.879-0.879,2.305,0,3.184    c0.439,0.439,1.016,0.659,1.592,0.659s1.152-0.22,1.592-0.659L35.68,67.498C36.559,66.619,36.559,65.195,35.68,64.319z" style="" fill="currentColor"></path><path d="M15.792,71.478l7.954-7.954c0.879-0.879,0.879-2.305,0-3.184s-2.3-0.879-3.179,0l-7.954,7.954    c-0.879,0.879-0.879,2.305,0,3.184c0.439,0.439,1.014,0.659,1.59,0.659S15.353,71.917,15.792,71.478z" style="" fill="currentColor"></path><path d="M36.476,76.248l-7.954,7.959c-0.879,0.876-0.879,2.302,0,3.179c0.439,0.439,1.014,0.659,1.59,0.659    s1.149-0.22,1.589-0.659l7.959-7.954c0.879-0.879,0.879-2.305,0-3.184S37.354,75.369,36.476,76.248z" style="" fill="currentColor"></path></g></g></svg>