<?xml version="1.0" encoding="UTF-8" standalone="no"?>
<!DOCTYPE svg PUBLIC "-//W3C//DTD SVG 1.1//EN" "http://www.w3.org/Graphics/SVG/1.1/DTD/svg11.dtd">
<svg width="100%" height="100%" viewBox="0 0 14 14" version="1.1" xmlns="http://www.w3.org/2000/svg" xmlns:xlink="http://www.w3.org/1999/xlink" xml:space="preserve" xmlns:serif="http://www.serif.com/" style="fill-rule:evenodd;clip-rule:evenodd;stroke-linejoin:round;stroke-miterlimit:2;">
    <path d="M3.733,-0L3.733,3.733L0,3.733L0,0L3.733,-0ZM0,5.133L3.733,5.133L3.733,8.867L0,8.867L0,5.133ZM0,10.267L3.733,10.267L3.733,14L0,14L0,10.267ZM5.133,14L5.133,10.267L8.867,10.267L8.867,14L5.133,14ZM10.267,14L10.267,10.267L14,10.267L14,14L10.267,14ZM14,8.867L10.267,8.867L10.267,5.133L14,5.133L14,8.867ZM14,3.733L10.267,3.733L10.267,0L14,-0L14,3.733ZM8.867,-0L8.867,3.733L5.133,3.733L5.133,0L8.867,-0ZM8.867,5.133L8.867,8.867L5.133,8.867L5.133,5.133L8.867,5.133Z" style="fill:rgb(140,140,140);"/>
</svg>
