<?xml version="1.0" encoding="UTF-8" standalone="no"?>
<!DOCTYPE svg PUBLIC "-//W3C//DTD SVG 1.1//EN" "http://www.w3.org/Graphics/SVG/1.1/DTD/svg11.dtd">
<svg width="100%" height="100%" viewBox="0 0 1920 395" version="1.1" xmlns="http://www.w3.org/2000/svg" xmlns:xlink="http://www.w3.org/1999/xlink" xml:space="preserve" xmlns:serif="http://www.serif.com/" style="fill-rule:evenodd;clip-rule:evenodd;stroke-linejoin:round;stroke-miterlimit:2;">
    <g transform="matrix(15.3333,0,0,1.45597,-2447.47,16.7978)">
        <g id="Logo">
            <path d="M196.053,189.664C195.929,189.664 195.83,189.308 195.755,188.596C195.681,187.884 195.616,186.795 195.561,185.329L192.547,94.07C192.497,92.59 192.507,91.344 192.576,90.33C192.646,89.317 192.756,88.81 192.906,88.81C193.023,88.81 193.115,89.107 193.184,89.699C193.252,90.292 193.309,91.275 193.355,92.647L196.28,182.616L195.85,182.616L198.8,93.115C198.854,91.669 198.916,90.59 198.984,89.878C199.052,89.166 199.145,88.81 199.263,88.81C199.38,88.81 199.472,89.166 199.538,89.878C199.604,90.59 199.661,91.679 199.709,93.146L202.641,182.616L202.246,182.616L205.191,92.647C205.23,91.368 205.285,90.409 205.357,89.77C205.429,89.13 205.525,88.81 205.647,88.81C205.787,88.81 205.89,89.299 205.955,90.276C206.02,91.252 206.024,92.517 205.967,94.07L202.947,185.359C202.899,186.805 202.838,187.884 202.765,188.596C202.691,189.308 202.589,189.664 202.458,189.664C202.328,189.664 202.226,189.308 202.152,188.596C202.078,187.884 202.014,186.795 201.96,185.329L199.114,98.642L199.39,98.642L196.528,185.359C196.48,186.805 196.422,187.884 196.352,188.596C196.283,189.308 196.183,189.664 196.053,189.664Z" style="fill:rgb(86,96,255);fill-rule:nonzero;"/>
            <path d="M208.185,188.757C208.035,188.757 207.92,188.335 207.84,187.491C207.76,186.646 207.72,185.437 207.72,183.862L207.72,94.612C207.72,93.037 207.76,91.828 207.84,90.983C207.92,90.139 208.035,89.717 208.185,89.717L213.224,89.717C213.344,89.717 213.436,90.037 213.501,90.676C213.567,91.316 213.599,92.218 213.599,93.383C213.599,94.641 213.567,95.596 213.501,96.246C213.436,96.896 213.344,97.222 213.224,97.222L208.527,97.222L208.527,134.766L212.952,134.766C213.073,134.766 213.166,135.086 213.23,135.726C213.294,136.366 213.326,137.279 213.326,138.464C213.326,139.723 213.294,140.672 213.23,141.311C213.166,141.951 213.073,142.271 212.952,142.271L208.527,142.271L208.527,181.253L213.224,181.253C213.344,181.253 213.436,181.573 213.501,182.213C213.567,182.853 213.599,183.766 213.599,184.951C213.599,186.21 213.567,187.159 213.501,187.798C213.436,188.438 213.344,188.757 213.224,188.757L208.185,188.757Z" style="fill:rgb(86,96,255);fill-rule:nonzero;"/>
            <path d="M215.788,188.757C215.639,188.757 215.524,188.335 215.444,187.491C215.363,186.646 215.323,185.437 215.323,183.862L215.323,94.612C215.323,93.037 215.363,91.828 215.444,90.983C215.524,90.139 215.639,89.717 215.788,89.717L218.918,89.717C219.562,89.717 220.108,90.729 220.557,92.754C221.006,94.778 221.349,97.71 221.587,101.55C221.824,105.39 221.943,110.088 221.943,115.643C221.943,121.853 221.769,127.019 221.419,131.14C221.069,135.26 220.596,137.987 220,139.318L220,137.321C220.665,138.061 221.191,140.557 221.58,144.808C221.969,149.059 222.163,154.7 222.163,161.732C222.163,170.536 221.896,177.241 221.362,181.847C220.828,186.454 220.069,188.757 219.085,188.757L215.788,188.757ZM216.131,181.413L219.026,181.413C219.795,181.413 220.372,179.811 220.756,176.607C221.14,173.403 221.332,168.488 221.332,161.864C221.332,155.145 221.14,150.208 220.756,147.05C220.372,143.893 219.795,142.315 219.026,142.315L216.131,142.315L216.131,181.413ZM216.131,134.972L218.82,134.972C219.571,134.972 220.141,133.345 220.529,130.089C220.918,126.834 221.112,122.143 221.112,116.016C221.112,109.817 220.918,105.108 220.529,101.889C220.141,98.671 219.571,97.061 218.82,97.061L216.131,97.061L216.131,134.972Z" style="fill:rgb(86,96,255);fill-rule:nonzero;"/>
            <path d="M224.619,189.664C224.487,189.664 224.386,189.26 224.314,188.451C224.243,187.643 224.207,186.545 224.207,185.16L224.207,93.284C224.207,91.803 224.243,90.687 224.314,89.936C224.386,89.186 224.487,88.81 224.619,88.81C224.751,88.81 224.852,89.186 224.923,89.936C224.995,90.687 225.03,91.803 225.03,93.284L225.03,135.282L225.057,135.282L229.626,91.464C229.727,90.544 229.821,89.871 229.909,89.447C229.996,89.022 230.088,88.81 230.183,88.81C230.311,88.81 230.405,89.115 230.464,89.726C230.524,90.336 230.548,91.09 230.536,91.988C230.524,92.885 230.473,93.77 230.384,94.64L225.532,140.872L225.556,135.541L230.612,182.991C230.723,183.998 230.783,185.026 230.792,186.075C230.801,187.124 230.772,187.985 230.705,188.656C230.637,189.328 230.541,189.664 230.415,189.664C230.312,189.664 230.221,189.431 230.144,188.964C230.066,188.497 229.981,187.807 229.887,186.894L225.057,141.66L225.03,141.66L225.03,185.16C225.03,186.545 224.997,187.643 224.93,188.451C224.863,189.26 224.759,189.664 224.619,189.664Z" style="fill:rgb(86,96,255);fill-rule:nonzero;"/>
            <path d="M232.467,189.664C232.346,189.664 232.251,189.276 232.182,188.499C232.112,187.723 232.078,186.652 232.078,185.287L232.078,93.358C232.078,91.899 232.111,90.777 232.176,89.99C232.242,89.204 232.328,88.81 232.434,88.81C232.542,88.81 232.624,89.01 232.678,89.408C232.732,89.807 232.793,90.51 232.86,91.517L238.987,178.452L238.681,178.452L238.681,93.154C238.681,91.738 238.716,90.66 238.785,89.92C238.855,89.18 238.95,88.81 239.07,88.81C239.191,88.81 239.284,89.18 239.349,89.92C239.414,90.66 239.446,91.738 239.446,93.154L239.446,185.243C239.446,186.638 239.416,187.723 239.357,188.499C239.298,189.276 239.216,189.664 239.112,189.664C239.018,189.664 238.938,189.441 238.872,188.996C238.807,188.55 238.741,187.86 238.674,186.927L232.55,99.99L232.842,99.99L232.842,185.287C232.842,186.652 232.81,187.723 232.745,188.499C232.68,189.276 232.587,189.664 232.467,189.664Z" style="fill:rgb(86,96,255);fill-rule:nonzero;"/>
            <path d="M245.677,189.945C244.818,189.945 244.074,187.874 243.445,183.732C242.816,179.59 242.33,173.72 241.988,166.123C241.645,158.526 241.474,149.541 241.474,139.167C241.474,131.322 241.57,124.285 241.763,118.057C241.956,111.829 242.235,106.527 242.6,102.15C242.964,97.773 243.406,94.408 243.924,92.057C244.442,89.705 245.026,88.529 245.677,88.529C246.545,88.529 247.295,90.577 247.926,94.672C248.557,98.767 249.042,104.59 249.382,112.14C249.721,119.691 249.89,128.653 249.89,139.026C249.89,146.871 249.792,153.931 249.596,160.206C249.4,166.481 249.119,171.831 248.754,176.254C248.389,180.678 247.948,184.066 247.43,186.417C246.912,188.769 246.327,189.945 245.677,189.945ZM245.677,181.968C246.385,181.968 246.988,180.292 247.485,176.94C247.983,173.589 248.362,168.72 248.625,162.334C248.887,155.949 249.018,148.227 249.018,139.167C249.018,125.618 248.729,115.12 248.15,107.675C247.572,100.229 246.747,96.506 245.677,96.506C244.978,96.506 244.379,98.177 243.88,101.517C243.382,104.858 243.002,109.716 242.739,116.091C242.477,122.467 242.346,130.158 242.346,139.167C242.346,152.623 242.637,163.12 243.22,170.659C243.803,178.198 244.622,181.968 245.677,181.968Z" style="fill:rgb(86,96,255);fill-rule:nonzero;"/>
            <path d="M254.803,189.945C254.371,189.945 253.956,189.551 253.558,188.762C253.159,187.973 252.789,186.82 252.445,185.302C252.102,183.785 251.792,181.909 251.517,179.674C251.432,178.984 251.374,178.203 251.343,177.333C251.311,176.463 251.307,175.617 251.329,174.794C251.351,173.97 251.39,173.28 251.446,172.724C251.501,172.167 251.569,171.857 251.65,171.793C251.731,171.729 251.814,172.042 251.901,172.731C252.313,175.961 252.749,178.318 253.208,179.804C253.668,181.289 254.2,182.032 254.803,182.032C255.65,182.032 256.283,180.303 256.703,176.846C257.122,173.389 257.332,168.827 257.332,163.161C257.332,158.51 257.179,154.87 256.874,152.238C256.568,149.607 256.064,147.538 255.362,146.031L254.008,143.127C253.17,141.325 252.545,138.327 252.135,134.13C251.725,129.934 251.52,124.292 251.52,117.203C251.52,112.904 251.601,109.007 251.761,105.514C251.922,102.02 252.149,99.005 252.443,96.47C252.737,93.935 253.086,91.977 253.49,90.598C253.895,89.219 254.341,88.529 254.829,88.529C255.403,88.529 255.934,89.394 256.421,91.124C256.908,92.854 257.35,95.51 257.746,99.092C257.827,99.761 257.88,100.537 257.904,101.422C257.929,102.307 257.93,103.15 257.907,103.952C257.884,104.754 257.845,105.399 257.792,105.888C257.739,106.377 257.671,106.642 257.59,106.685C257.508,106.727 257.422,106.367 257.331,105.605C256.961,102.41 256.573,100.084 256.166,98.628C255.76,97.171 255.313,96.442 254.826,96.442C254.327,96.442 253.894,97.286 253.525,98.973C253.156,100.661 252.87,103.056 252.666,106.16C252.463,109.264 252.361,112.891 252.361,117.043C252.361,122.004 252.502,125.924 252.784,128.804C253.066,131.684 253.526,133.794 254.166,135.135L255.517,138.041C256.418,140.008 257.086,142.936 257.52,146.825C257.955,150.715 258.172,156.028 258.172,162.764C258.172,166.826 258.094,170.521 257.938,173.848C257.782,177.174 257.558,180.041 257.268,182.447C256.978,184.852 256.625,186.704 256.209,188C255.793,189.297 255.325,189.945 254.803,189.945Z" style="fill:rgb(86,96,255);fill-rule:nonzero;"/>
            <path d="M262.807,189.945C262.375,189.945 261.959,189.551 261.561,188.762C261.163,187.973 260.792,186.82 260.449,185.302C260.106,183.785 259.796,181.909 259.52,179.674C259.436,178.984 259.378,178.203 259.346,177.333C259.315,176.463 259.31,175.617 259.333,174.794C259.355,173.97 259.394,173.28 259.449,172.724C259.505,172.167 259.573,171.857 259.654,171.793C259.734,171.729 259.818,172.042 259.905,172.731C260.317,175.961 260.752,178.318 261.212,179.804C261.672,181.289 262.203,182.032 262.807,182.032C263.654,182.032 264.287,180.303 264.706,176.846C265.126,173.389 265.336,168.827 265.336,163.161C265.336,158.51 265.183,154.87 264.877,152.238C264.572,149.607 264.068,147.538 263.365,146.031L262.011,143.127C261.173,141.325 260.549,138.327 260.139,134.13C259.729,129.934 259.524,124.292 259.524,117.203C259.524,112.904 259.604,109.007 259.765,105.514C259.926,102.02 260.153,99.005 260.447,96.47C260.741,93.935 261.09,91.977 261.494,90.598C261.899,89.219 262.345,88.529 262.832,88.529C263.407,88.529 263.938,89.394 264.425,91.124C264.912,92.854 265.354,95.51 265.75,99.092C265.83,99.761 265.883,100.537 265.908,101.422C265.933,102.307 265.934,103.15 265.911,103.952C265.887,104.754 265.849,105.399 265.796,105.888C265.743,106.377 265.675,106.642 265.594,106.685C265.512,106.727 265.426,106.367 265.335,105.605C264.965,102.41 264.577,100.084 264.17,98.628C263.764,97.171 263.317,96.442 262.829,96.442C262.331,96.442 261.898,97.286 261.529,98.973C261.16,100.661 260.874,103.056 260.67,106.16C260.466,109.264 260.364,112.891 260.364,117.043C260.364,122.004 260.505,125.924 260.787,128.804C261.069,131.684 261.53,133.794 262.169,135.135L263.52,138.041C264.421,140.008 265.089,142.936 265.524,146.825C265.959,150.715 266.176,156.028 266.176,162.764C266.176,166.826 266.098,170.521 265.942,173.848C265.785,177.174 265.562,180.041 265.272,182.447C264.982,184.852 264.628,186.704 264.213,188C263.797,189.297 263.328,189.945 262.807,189.945Z" style="fill:rgb(86,96,255);fill-rule:nonzero;"/>
            <path d="M271.702,189.945C270.843,189.945 270.099,187.874 269.47,183.732C268.841,179.59 268.356,173.72 268.013,166.123C267.671,158.526 267.499,149.541 267.499,139.167C267.499,131.322 267.596,124.285 267.788,118.057C267.981,111.829 268.26,106.527 268.625,102.15C268.99,97.773 269.431,94.408 269.949,92.057C270.468,89.705 271.052,88.529 271.702,88.529C272.57,88.529 273.32,90.577 273.951,94.672C274.583,98.767 275.068,104.59 275.407,112.14C275.746,119.691 275.916,128.653 275.916,139.026C275.916,146.871 275.818,153.931 275.621,160.206C275.425,166.481 275.145,171.831 274.78,176.254C274.415,180.678 273.973,184.066 273.455,186.417C272.937,188.769 272.353,189.945 271.702,189.945ZM271.702,181.968C272.411,181.968 273.013,180.292 273.511,176.94C274.008,173.589 274.388,168.72 274.65,162.334C274.913,155.949 275.044,148.227 275.044,139.167C275.044,125.618 274.754,115.12 274.176,107.675C273.597,100.229 272.773,96.506 271.702,96.506C271.003,96.506 270.404,98.177 269.906,101.517C269.408,104.858 269.027,109.716 268.765,116.091C268.502,122.467 268.371,130.158 268.371,139.167C268.371,152.623 268.663,163.12 269.246,170.659C269.829,178.198 270.648,181.968 271.702,181.968Z" style="fill:rgb(86,96,255);fill-rule:nonzero;"/>
            <path d="M280.829,189.945C280.396,189.945 279.981,189.551 279.583,188.762C279.185,187.973 278.814,186.82 278.471,185.302C278.127,183.785 277.818,181.909 277.542,179.674C277.457,178.984 277.399,178.203 277.368,177.333C277.337,176.463 277.332,175.617 277.354,174.794C277.376,173.97 277.415,173.28 277.471,172.724C277.527,172.167 277.595,171.857 277.675,171.793C277.756,171.729 277.84,172.042 277.926,172.731C278.338,175.961 278.774,178.318 279.234,179.804C279.693,181.289 280.225,182.032 280.829,182.032C281.675,182.032 282.309,180.303 282.728,176.846C283.148,173.389 283.357,168.827 283.357,163.161C283.357,158.51 283.205,154.87 282.899,152.238C282.593,149.607 282.089,147.538 281.387,146.031L280.033,143.127C279.195,141.325 278.571,138.327 278.161,134.13C277.751,129.934 277.546,124.292 277.546,117.203C277.546,112.904 277.626,109.007 277.787,105.514C277.948,102.02 278.175,99.005 278.469,96.47C278.762,93.935 279.111,91.977 279.516,90.598C279.92,89.219 280.366,88.529 280.854,88.529C281.429,88.529 281.96,89.394 282.447,91.124C282.934,92.854 283.375,95.51 283.772,99.092C283.852,99.761 283.905,100.537 283.93,101.422C283.955,102.307 283.955,103.15 283.932,103.952C283.909,104.754 283.871,105.399 283.818,105.888C283.764,106.377 283.697,106.642 283.615,106.685C283.534,106.727 283.448,106.367 283.357,105.605C282.987,102.41 282.598,100.084 282.192,98.628C281.785,97.171 281.338,96.442 280.851,96.442C280.353,96.442 279.919,97.286 279.55,98.973C279.182,100.661 278.895,103.056 278.692,106.16C278.488,109.264 278.386,112.891 278.386,117.043C278.386,122.004 278.527,125.924 278.809,128.804C279.091,131.684 279.552,133.794 280.191,135.135L281.542,138.041C282.443,140.008 283.111,142.936 283.546,146.825C283.98,150.715 284.198,156.028 284.198,162.764C284.198,166.826 284.12,170.521 283.963,173.848C283.807,177.174 283.584,180.041 283.294,182.447C283.003,184.852 282.65,186.704 282.234,188C281.818,189.297 281.35,189.945 280.829,189.945Z" style="fill:rgb(86,96,255);fill-rule:nonzero;"/>
            <g transform="matrix(0.380963,0,0,4.01205,102.762,-475.643)">
                <path d="M215.466,137.379C216.917,141.12 217.713,145.187 217.713,149.438C217.713,167.872 202.747,182.838 184.313,182.838C176.172,182.838 168.707,179.919 162.909,175.071C164.262,171.824 166.133,169.148 168.552,166.592C172.18,162.76 177.556,159.825 180.718,159.537C181.746,159.443 181.682,162.333 181.934,163.215C182.957,166.794 185.694,172.855 190.222,171.24C191.344,170.84 192.429,170.251 193.386,169.541C194.041,169.055 194.592,168.481 195.034,167.795C199.613,160.681 186.658,160.822 185.876,156.213C185.383,153.312 193.323,151.055 201.458,146.905C208.422,143.353 212.276,140.779 215.466,137.379Z" style="fill:rgb(86,96,255);"/>
            </g>
            <g transform="matrix(0.380963,0,0,4.01205,102.762,-475.643)">
                <path d="M208.223,126.137C204.174,137.2 193.516,141.504 192.071,141.086C191.018,140.783 192.187,136.977 193.186,134.37C194.284,131.505 194.289,129.083 193.763,127.638C193.336,126.467 191.352,124.61 188.545,124.864C186.334,125.063 185.758,126.947 185.185,128.903C184.27,132.028 188.159,139.499 186.333,142.683C184.877,145.221 175.327,150.366 174.042,148.516C170.762,143.794 172.51,137.691 168.343,138.751C164.918,139.622 163.136,147.447 168.344,149.741C169.329,150.175 172.297,151.134 171.854,152.476C171.489,153.582 161.16,155.996 154.544,164.568L154.554,164.608C152.226,160.055 150.913,154.899 150.913,149.438C150.913,131.004 165.879,116.038 184.313,116.038C187.251,116.038 190.101,116.419 192.817,117.133C198.761,118.695 204.06,121.857 208.225,126.129C208.225,126.131 208.224,126.134 208.223,126.137Z" style="fill:rgb(86,96,255);"/>
            </g>
        </g>
    </g>
</svg>
