<?xml version="1.0" encoding="UTF-8" standalone="no"?>
<svg
  width="2329.657"
  height="414.16122"
  viewBox="0 0 2329.6569 414.16122"
  version="1.1"
  xml:space="preserve"
  style="clip-rule:evenodd;fill-rule:evenodd;stroke-linejoin:round;stroke-miterlimit:2"
  id="svg855"
  sodipodi:docname="logo-screenshot.svg"
  inkscape:version="1.1.1 (c3084ef, 2021-09-22)"
  xmlns:inkscape="http://www.inkscape.org/namespaces/inkscape"
  xmlns:sodipodi="http://sodipodi.sourceforge.net/DTD/sodipodi-0.dtd"
  xmlns="http://www.w3.org/2000/svg"
  xmlns:svg="http://www.w3.org/2000/svg"><defs
   id="defs859">
        
    
            
            
            
            
            
            
            
            
            
            
            
            
        </defs><sodipodi:namedview
   id="namedview857"
   pagecolor="#ffffff"
   bordercolor="#666666"
   borderopacity="1.0"
   inkscape:pageshadow="2"
   inkscape:pageopacity="0.0"
   inkscape:pagecheckerboard="0"
   showgrid="false"
   fit-margin-top="0"
   fit-margin-left="0"
   fit-margin-right="0"
   fit-margin-bottom="0"
   inkscape:zoom="0.30392905"
   inkscape:cx="1628.6696"
   inkscape:cy="110.22309"
   inkscape:window-width="1920"
   inkscape:window-height="1027"
   inkscape:window-x="0"
   inkscape:window-y="25"
   inkscape:window-maximized="1"
   inkscape:current-layer="svg855" />
    <rect
   style="opacity:0.9;fill:#000000;fill-opacity:0.3;stroke-width:0;stroke-miterlimit:2;paint-order:stroke markers fill"
   id="rect1688"
   width="2329.657"
   height="414.16122"
   x="0"
   y="0" /><g
   id="g1628"
   style="fill:#ffffff"
   transform="matrix(1.1917264,0,0,1.1917264,-58.600804,-48.317956)"><path
     d="m 549.16946,292.94289 c -1.90132,0 -3.41932,-0.51832 -4.56932,-1.55497 -1.13466,-1.03665 -2.13133,-2.6222 -2.97466,-4.75666 L 495.41092,153.7609 c -0.76667,-2.15484 -0.61334,-3.96898 0.44466,-5.44533 1.07333,-1.4749 2.75999,-2.21307 5.05999,-2.21307 1.794,0 3.20466,0.43242 4.26266,1.29435 1.04266,0.86339 1.91666,2.29461 2.62199,4.2922 l 44.8499,130.99217 h -6.59331 l 45.23323,-130.31077 c 0.828,-2.10534 1.77866,-3.67633 2.82133,-4.71298 1.04266,-1.03665 2.46866,-1.55497 4.27799,-1.55497 1.79399,0 3.20466,0.51832 4.21666,1.55497 1.01199,1.03665 1.88599,2.6222 2.62199,4.75811 l 44.95724,130.26564 h -6.05666 l 45.15657,-130.99217 c 0.598,-1.86218 1.44133,-3.25846 2.54533,-4.18882 1.104,-0.93182 2.57599,-1.39773 4.44666,-1.39773 2.14666,0 3.72599,0.71197 4.72265,2.13445 0.99667,1.42102 1.058,3.26283 0.184,5.52395 l -46.30656,132.91404 c -0.736,2.10534 -1.67133,3.67633 -2.79067,4.71298 -1.13466,1.03665 -2.69866,1.55497 -4.70732,1.55497 -1.99333,0 -3.55732,-0.51832 -4.69199,-1.55497 -1.13466,-1.03665 -2.11599,-2.6222 -2.94399,-4.75666 L 596.1047,160.41759 h 4.23199 l -43.88391,126.25735 c -0.736,2.10534 -1.62533,3.67633 -2.69866,4.71298 -1.058,1.03665 -2.59133,1.55497 -4.58466,1.55497 z"
     style="fill:#ffffff;fill-rule:nonzero;stroke-width:4.72492"
     id="path824" /><path
     d="m 735.19306,291.62233 c -2.29999,0 -4.06332,-0.61442 -5.28999,-1.84326 -1.22666,-1.23029 -1.83999,-2.99056 -1.83999,-5.28371 V 154.55003 c 0,-2.29315 0.61333,-4.05342 1.83999,-5.28371 1.22667,-1.22884 2.99,-1.84326 5.28999,-1.84326 h 77.2645 c 1.84,0 3.25066,0.46591 4.24732,1.39628 1.012,0.93182 1.50267,2.2451 1.50267,3.94131 0,1.83161 -0.49067,3.22206 -1.50267,4.16844 -0.99666,0.94638 -2.40732,1.42103 -4.24732,1.42103 h -72.02051 v 54.66293 h 67.84985 c 1.85533,0 3.28133,0.46591 4.26266,1.39773 0.98133,0.93183 1.472,2.26113 1.472,3.98645 0,1.83307 -0.49067,3.21478 -1.472,4.14515 -0.98133,0.93182 -2.40733,1.39773 -4.26266,1.39773 h -67.84985 v 56.75662 h 72.02051 c 1.84,0 3.25066,0.46591 4.24732,1.39773 1.012,0.93182 1.50267,2.26112 1.50267,3.98645 0,1.83306 -0.49067,3.21478 -1.50267,4.14514 -0.99666,0.93182 -2.40732,1.39628 -4.24732,1.39628 z"
     style="fill:#ffffff;fill-rule:nonzero;stroke-width:4.72492"
     id="path826" /><path
     d="m 851.77214,291.62233 c -2.28466,0 -4.04799,-0.61442 -5.27465,-1.84326 -1.242,-1.23029 -1.85533,-2.99056 -1.85533,-5.28371 V 154.55003 c 0,-2.29315 0.61333,-4.05342 1.85533,-5.28371 1.22666,-1.22884 2.98999,-1.84326 5.27465,-1.84326 h 47.99323 c 9.87464,0 18.24663,1.47344 25.13128,4.42178 6.88465,2.94688 12.14397,7.21579 15.7933,12.80671 3.63399,5.59093 5.45865,12.43108 5.45865,20.51899 0,9.04157 -2.66799,16.56311 -8.03465,22.56317 -5.36665,5.99859 -12.6193,9.96902 -21.75795,11.90692 v -2.90757 c 10.19664,1.07741 18.26196,4.71152 24.22661,10.90084 5.96466,6.18933 8.93932,14.40246 8.93932,24.64084 0,12.81836 -4.09399,22.58064 -12.28198,29.28684 -8.18798,6.70765 -19.82595,10.06075 -34.91392,10.06075 z m 5.25932,-10.69264 h 44.38991 c 11.7913,0 20.63862,-2.33247 26.5266,-6.9974 5.88799,-4.66492 8.83199,-11.82102 8.83199,-21.46536 0,-9.78266 -2.944,-16.97079 -8.83199,-21.56874 -5.88798,-4.5965 -14.7353,-6.89402 -26.5266,-6.89402 h -44.38991 z m 0,-67.61671 h 41.23125 c 11.5153,0 20.25529,-2.36886 26.20461,-7.1095 5.96465,-4.73918 8.93931,-11.56914 8.93931,-20.48986 0,-9.02556 -2.97466,-15.88173 -8.93931,-20.56849 -5.94932,-4.68531 -14.68931,-7.02943 -26.20461,-7.02943 h -41.23125 z"
     style="fill:#ffffff;fill-rule:nonzero;stroke-width:4.72492"
     id="path828" /><path
     d="m 987.18051,292.94289 c -2.02399,0 -3.57266,-0.58821 -4.67665,-1.76609 -1.08867,-1.17642 -1.64067,-2.77508 -1.64067,-4.79159 v -133.7687 c 0,-2.1563 0.552,-3.78116 1.64067,-4.87459 1.10399,-1.09198 2.65266,-1.63942 4.67665,-1.63942 2.024,0 3.57266,0.54744 4.66133,1.63942 1.10399,1.09343 1.64066,2.71829 1.64066,4.87459 v 61.14782 h 0.414 l 70.0578,-63.79769 c 1.5487,-1.33949 2.99,-2.31936 4.3394,-2.93669 1.334,-0.61879 2.7446,-0.92745 4.2013,-0.92745 1.9627,0 3.404,0.44407 4.3087,1.33366 0.9199,0.88815 1.2879,1.98595 1.1039,3.29341 -0.184,1.306 -0.9659,2.59454 -2.3306,3.86123 l -74.3972,67.31241 0.368,-7.76178 77.5252,69.08578 c 1.702,1.46616 2.622,2.9629 2.76,4.49021 0.138,1.52731 -0.3067,2.7809 -1.334,3.75786 -1.0427,0.97841 -2.5147,1.46761 -4.4467,1.46761 -1.5793,0 -2.9746,-0.33924 -4.1553,-1.01917 -1.196,-0.67994 -2.4993,-1.68456 -3.9407,-3.01386 l -74.0598,-65.85935 h -0.414 v 63.3347 c 0,2.01651 -0.506,3.61517 -1.53333,4.79159 -1.02733,1.17788 -2.622,1.76609 -4.76866,1.76609 z"
     style="fill:#ffffff;fill-rule:nonzero;stroke-width:4.72492"
     id="path830" /><path
     d="m 1107.5163,292.94289 c -1.8554,0 -3.312,-0.56491 -4.37,-1.6962 -1.0734,-1.12983 -1.5947,-2.68918 -1.5947,-4.67658 V 152.72425 c 0,-2.12426 0.506,-3.75786 1.5027,-4.90371 1.012,-1.14439 2.3306,-1.71804 3.956,-1.71804 1.6559,0 2.9133,0.29119 3.7413,0.87067 0.828,0.58093 1.7633,1.60447 2.7906,3.07064 l 93.9472,126.57475 h -4.692 V 152.42723 c 0,-2.06165 0.5366,-3.63119 1.5946,-4.70861 1.0734,-1.07742 2.53,-1.61612 4.37,-1.61612 1.8554,0 3.2814,0.5387 4.278,1.61612 0.9967,1.07742 1.4874,2.64696 1.4874,4.70861 v 134.07882 c 0,2.03108 -0.46,3.61081 -1.3647,4.74064 -0.9047,1.13129 -2.162,1.6962 -3.7567,1.6962 -1.4413,0 -2.668,-0.32468 -3.68,-0.97258 -0.9966,-0.64937 -2.0086,-1.65399 -3.036,-3.01241 l -93.9011,-126.57766 h 4.4773 v 124.18987 c 0,1.9874 -0.4906,3.54675 -1.4873,4.67658 -0.9967,1.13129 -2.4227,1.6962 -4.2626,1.6962 z"
     style="fill:#ffffff;fill-rule:nonzero;stroke-width:4.72492"
     id="path832" /><path
     d="m 1310.0691,293.35202 c -13.1713,0 -24.5792,-3.01531 -34.2239,-9.04594 -9.6446,-6.03063 -17.0966,-14.57717 -22.3406,-25.63818 -5.2593,-11.061 -7.8813,-24.14289 -7.8813,-39.24712 0,-11.42209 1.472,-21.66775 4.4313,-30.73553 2.9593,-9.06778 7.2373,-16.78733 12.834,-23.16011 5.5813,-6.37279 12.3586,-11.27212 20.3013,-14.69511 7.9426,-3.42444 16.8973,-5.13666 26.8792,-5.13666 13.3093,0 24.8093,2.98182 34.4846,8.94402 9.6753,5.9622 17.112,14.44031 22.3253,25.43289 5.198,10.99403 7.7893,24.04243 7.7893,39.14521 0,11.42208 -1.5026,21.70123 -4.508,30.83744 -3.0053,9.13621 -7.3139,16.92565 -12.9106,23.36541 -5.5966,6.44121 -12.3586,11.37403 -20.3013,14.79702 -7.9426,3.42444 -16.9126,5.13666 -26.8793,5.13666 z m 0,-11.61427 c 10.856,0 20.102,-2.44021 27.7227,-7.32062 7.6359,-4.87895 13.4473,-11.96807 17.4799,-21.2659 4.0173,-9.29636 6.026,-20.53936 6.026,-33.73045 0,-19.72694 -4.4313,-35.01171 -13.3093,-45.85141 -8.8627,-10.84115 -21.5126,-16.26173 -37.9193,-16.26173 -10.7179,0 -19.9026,2.43293 -27.5539,7.29587 -7.636,4.86439 -13.4626,11.93749 -17.4953,21.2193 -4.0173,9.28327 -6.026,20.48113 -6.026,33.59797 0,19.59153 4.462,34.87485 13.4013,45.8514 8.9393,10.97656 21.4973,16.46557 37.6739,16.46557 z"
     style="fill:#ffffff;fill-rule:nonzero;stroke-width:4.72492"
     id="path834" /><path
     d="m 1450.0008,293.35202 c -6.6239,0 -12.9873,-0.57365 -19.0899,-1.72241 -6.118,-1.14876 -11.7913,-2.82749 -17.066,-5.03766 -5.2593,-2.2087 -10.0126,-4.9401 -14.2293,-8.1942 -1.3033,-1.00462 -2.1926,-2.14173 -2.668,-3.40842 -0.4906,-1.2667 -0.552,-2.49845 -0.2146,-3.69671 0.3373,-1.19972 0.9353,-2.20434 1.794,-3.01386 0.8433,-0.81097 1.8859,-1.26232 3.1279,-1.35551 1.242,-0.0932 2.5147,0.36254 3.8487,1.3657 6.3173,4.70279 13.0026,8.13451 20.0406,10.29808 7.0533,2.16212 15.2107,3.2439 24.4566,3.2439 12.9873,0 22.6933,-2.51737 29.1333,-7.55066 6.4247,-5.03329 9.6447,-11.67542 9.6447,-19.92495 0,-6.77172 -2.346,-12.07145 -7.0227,-15.90356 -4.692,-3.83066 -12.42,-6.84306 -23.1839,-9.0372 l -20.7613,-4.22814 c -12.8493,-2.62366 -22.4327,-6.98866 -28.7193,-13.09936 -6.2867,-6.10925 -9.43,-14.32384 -9.43,-24.64521 0,-6.25921 1.242,-11.93313 3.6953,-17.01883 2.4687,-5.08716 5.9494,-9.47691 10.4574,-13.16779 4.5079,-3.69089 9.8593,-6.54168 16.0539,-8.54946 6.21,-2.00778 13.0487,-3.0124 20.5313,-3.0124 8.8013,0 16.9433,1.25941 24.4106,3.77824 7.4673,2.51883 14.2447,6.38588 20.3166,11.60117 1.242,0.97404 2.0547,2.10388 2.4227,3.39241 0.3833,1.28853 0.3987,2.51592 0.046,3.6836 -0.3527,1.16769 -0.9507,2.10679 -1.7633,2.81876 -0.8127,0.71197 -1.8554,1.0978 -3.0974,1.16041 -1.2573,0.0611 -2.5759,-0.463 -3.9713,-1.57245 -5.6733,-4.65182 -11.6226,-8.03841 -17.8633,-10.1583 -6.2253,-2.12135 -13.0793,-3.18275 -20.5466,-3.18275 -7.6513,0 -14.2906,1.22884 -19.9486,3.68506 -5.658,2.45768 -10.0433,5.94472 -13.1713,10.46406 -3.1127,4.51933 -4.6767,9.80013 -4.6767,15.84532 0,7.22306 2.162,12.93047 6.486,17.12366 4.324,4.19319 11.3773,7.26529 21.1906,9.21775 l 20.7153,4.23104 c 13.8153,2.8639 24.058,7.12698 30.7126,12.78925 6.67,5.66372 9.9973,13.39929 9.9973,23.2067 0,5.91415 -1.196,11.29396 -3.588,16.13797 -2.392,4.84256 -5.8266,9.01682 -10.2733,12.51989 -4.4466,3.50161 -9.8593,6.19806 -16.2379,8.085 -6.3787,1.88839 -13.5547,2.83186 -21.5587,2.83186 z"
     style="fill:#ffffff;fill-rule:nonzero;stroke-width:4.72492"
     id="path836" /><path
     d="m 1572.7286,293.35202 c -6.624,0 -13.0027,-0.57365 -19.1053,-1.72241 -6.1027,-1.14876 -11.7913,-2.82749 -17.0506,-5.03766 -5.2594,-2.2087 -10.0127,-4.9401 -14.2447,-8.1942 -1.288,-1.00462 -2.1773,-2.14173 -2.668,-3.40842 -0.4753,-1.2667 -0.552,-2.49845 -0.1993,-3.69671 0.3373,-1.19972 0.9353,-2.20434 1.7787,-3.01386 0.8586,-0.81097 1.9013,-1.26232 3.1433,-1.35551 1.2266,-0.0932 2.5146,0.36254 3.8486,1.3657 6.3174,4.70279 12.9873,8.13451 20.0407,10.29808 7.0533,2.16212 15.1953,3.2439 24.4566,3.2439 12.9873,0 22.6933,-2.51737 29.1179,-7.55066 6.44,-5.03329 9.66,-11.67542 9.66,-19.92495 0,-6.77172 -2.346,-12.07145 -7.038,-15.90356 -4.6767,-3.83066 -12.4046,-6.84306 -23.1839,-9.0372 l -20.7613,-4.22814 c -12.8493,-2.62366 -22.4173,-6.98866 -28.704,-13.09936 -6.2866,-6.10925 -9.43,-14.32384 -9.43,-24.64521 0,-6.25921 1.2267,-11.93313 3.6954,-17.01883 2.4686,-5.08716 5.9493,-9.47691 10.4573,-13.16779 4.508,-3.69089 9.8593,-6.54168 16.054,-8.54946 6.2099,-2.00778 13.0486,-3.0124 20.5159,-3.0124 8.8167,0 16.9586,1.25941 24.426,3.77824 7.4673,2.51883 14.2446,6.38588 20.3166,11.60117 1.2266,0.97404 2.0393,2.10388 2.4226,3.39241 0.3834,1.28853 0.3987,2.51592 0.046,3.6836 -0.368,1.16769 -0.9506,2.10679 -1.7633,2.81876 -0.8127,0.71197 -1.8553,1.0978 -3.0973,1.16041 -1.2574,0.0611 -2.576,-0.463 -3.9713,-1.57245 -5.6734,-4.65182 -11.6227,-8.03841 -17.8633,-10.1583 -6.2254,-2.12135 -13.0793,-3.18275 -20.562,-3.18275 -7.636,0 -14.2753,1.22884 -19.9333,3.68506 -5.658,2.45768 -10.0433,5.94472 -13.1713,10.46406 -3.128,4.51933 -4.692,9.80013 -4.692,15.84532 0,7.22306 2.162,12.93047 6.486,17.12366 4.324,4.19319 11.3926,7.26529 21.1906,9.21775 l 20.7153,4.23104 c 13.8153,2.8639 24.058,7.12698 30.7279,12.78925 6.67,5.66372 9.9974,13.39929 9.9974,23.2067 0,5.91415 -1.196,11.29396 -3.588,16.13797 -2.4074,4.84256 -5.8267,9.01682 -10.2733,12.51989 -4.4467,3.50161 -9.8747,6.19806 -16.238,8.085 -6.3787,1.88839 -13.57,2.83186 -21.5586,2.83186 z"
     style="fill:#ffffff;fill-rule:nonzero;stroke-width:4.72492"
     id="path838" /><path
     d="m 1709.1183,293.35202 c -13.1713,0 -24.5793,-3.01531 -34.2239,-9.04594 -9.6447,-6.03063 -17.0813,-14.57717 -22.3407,-25.63818 -5.244,-11.061 -7.8813,-24.14289 -7.8813,-39.24712 0,-11.42209 1.4873,-21.66775 4.4313,-30.73553 2.9594,-9.06778 7.2374,-16.78733 12.834,-23.16011 5.5967,-6.37279 12.3587,-11.27212 20.3013,-14.69511 7.958,-3.42444 16.9126,-5.13666 26.8793,-5.13666 13.3093,0 24.8093,2.98182 34.4846,8.94402 9.6906,5.9622 17.1273,14.44031 22.3253,25.43289 5.1979,10.99403 7.8046,24.04243 7.8046,39.14521 0,11.42208 -1.5027,21.70123 -4.5233,30.83744 -3.0053,9.13621 -7.2987,16.92565 -12.8953,23.36541 -5.5967,6.44121 -12.374,11.37403 -20.3166,14.79702 -7.9427,3.42444 -16.8973,5.13666 -26.8793,5.13666 z m 0,-11.61427 c 10.8713,0 20.1019,-2.44021 27.7379,-7.32062 7.6207,-4.87895 13.4473,-11.96807 17.4646,-21.2659 4.0327,-9.29636 6.0414,-20.53936 6.0414,-33.73045 0,-19.72694 -4.4467,-35.01171 -13.3093,-45.85141 -8.878,-10.84115 -21.5127,-16.26173 -37.9346,-16.26173 -10.718,0 -19.9026,2.43293 -27.5386,7.29587 -7.636,4.86439 -13.478,11.93749 -17.4953,21.2193 -4.0327,9.28327 -6.0413,20.48113 -6.0413,33.59797 0,19.59153 4.4773,34.87485 13.4166,45.8514 8.9393,10.97656 21.4973,16.46557 37.6586,16.46557 z"
     style="fill:#ffffff;fill-rule:nonzero;stroke-width:4.72492"
     id="path840" /><path
     d="m 1849.0653,293.35202 c -6.6393,0 -13.0026,-0.57365 -19.1053,-1.72241 -6.1026,-1.14876 -11.7913,-2.82749 -17.0506,-5.03766 -5.2747,-2.2087 -10.0127,-4.9401 -14.2447,-8.1942 -1.3033,-1.00462 -2.1926,-2.14173 -2.6679,-3.40842 -0.4754,-1.2667 -0.552,-2.49845 -0.2147,-3.69671 0.3373,-1.19972 0.9353,-2.20434 1.794,-3.01386 0.8586,-0.81097 1.9013,-1.26232 3.128,-1.35551 1.242,-0.0932 2.53,0.36254 3.8486,1.3657 6.3174,4.70279 13.0027,8.13451 20.056,10.29808 7.038,2.16212 15.1953,3.2439 24.4566,3.2439 12.972,0 22.6933,-2.51737 29.1179,-7.55066 6.44,-5.03329 9.6447,-11.67542 9.6447,-19.92495 0,-6.77172 -2.3307,-12.07145 -7.0227,-15.90356 -4.692,-3.83066 -12.4199,-6.84306 -23.1839,-9.0372 l -20.7613,-4.22814 c -12.8493,-2.62366 -22.4173,-6.98866 -28.7039,-13.09936 -6.2867,-6.10925 -9.43,-14.32384 -9.43,-24.64521 0,-6.25921 1.2266,-11.93313 3.6953,-17.01883 2.4687,-5.08716 5.9493,-9.47691 10.4573,-13.16779 4.4927,-3.69089 9.844,-6.54168 16.054,-8.54946 6.1946,-2.00778 13.0333,-3.0124 20.5159,-3.0124 8.8167,0 16.9587,1.25941 24.426,3.77824 7.4673,2.51883 14.2293,6.38588 20.3166,11.60117 1.2267,0.97404 2.0393,2.10388 2.4227,3.39241 0.3833,1.28853 0.3833,2.51592 0.031,3.6836 -0.3526,1.16769 -0.9353,2.10679 -1.748,2.81876 -0.828,0.71197 -1.8553,1.0978 -3.1126,1.16041 -1.242,0.0611 -2.5607,-0.463 -3.956,-1.57245 -5.6733,-4.65182 -11.638,-8.03841 -17.8633,-10.1583 -6.2407,-2.12135 -13.0946,-3.18275 -20.562,-3.18275 -7.6359,0 -14.2906,1.22884 -19.9486,3.68506 -5.6426,2.45768 -10.0433,5.94472 -13.156,10.46406 -3.1279,4.51933 -4.6919,9.80013 -4.6919,15.84532 0,7.22306 2.1619,12.93047 6.4859,17.12366 4.324,4.19319 11.3927,7.26529 21.1907,9.21775 l 20.7152,4.23104 c 13.8154,2.8639 24.058,7.12698 30.728,12.78925 6.6546,5.66372 9.9973,13.39929 9.9973,23.2067 0,5.91415 -1.196,11.29396 -3.6033,16.13797 -2.392,4.84256 -5.8114,9.01682 -10.258,12.51989 -4.462,3.50161 -9.8747,6.19806 -16.2533,8.085 -6.3787,1.88839 -13.5546,2.83186 -21.5433,2.83186 z"
     style="fill:#ffffff;fill-rule:nonzero;stroke-width:4.72492"
     id="path842" /></g><g
   id="g1876"
   transform="translate(32.902416,-1.8701551)"><g
     transform="matrix(4.7915024,0,0,4.7914926,-643.09429,-507.08163)"
     id="g846"
     style="fill:#ffffff">
                <path
   d="m 215.466,137.379 c 1.451,3.741 2.247,7.808 2.247,12.059 0,18.434 -14.966,33.4 -33.4,33.4 -8.141,0 -15.606,-2.919 -21.404,-7.767 1.353,-3.247 3.224,-5.923 5.643,-8.479 3.628,-3.832 9.004,-6.767 12.166,-7.055 1.028,-0.094 0.964,2.796 1.216,3.678 1.023,3.579 3.76,9.64 8.288,8.025 1.122,-0.4 2.207,-0.989 3.164,-1.699 0.655,-0.486 1.206,-1.06 1.648,-1.746 4.579,-7.114 -8.376,-6.973 -9.158,-11.582 -0.493,-2.901 7.447,-5.158 15.582,-9.308 6.964,-3.552 10.818,-6.126 14.008,-9.526 z"
   style="fill:#ffffff"
   id="path844" />
            </g><g
     transform="matrix(0.734399,0,0,0.7343998,-36.095321,48.656263)"
     id="g850"
     style="fill:#ffffff">
                <path
   d="M 181.733,317.03 C 166.614,287.376 158.087,253.81 158.087,218.268 158.087,97.998 255.73,0.354 376,0.354 c 19.17,0 37.765,2.481 55.482,7.139 38.783,10.196 73.356,30.824 100.531,58.698 -0.003,0.013 -0.007,0.029 -0.016,0.053 -26.414,72.178 -95.95,100.255 -105.383,97.533 -6.865,-1.981 0.758,-26.814 7.277,-43.818 7.167,-18.694 7.196,-34.494 3.761,-43.924 -2.783,-7.642 -15.725,-19.755 -34.04,-18.102 -14.428,1.302 -18.182,13.593 -21.919,26.353 -5.971,20.388 19.398,69.137 7.486,89.909 -9.496,16.559 -71.804,50.124 -80.19,38.053 -21.401,-30.805 -9.998,-70.621 -37.183,-63.707 -22.348,5.684 -33.974,56.733 0.003,71.702 6.433,2.834 25.794,9.087 22.905,17.842 -2.38,7.215 -69.715,22.957 -112.883,78.823 0,0 -0.054,0.064 -0.098,0.122 z"
   style="fill:#ffffff"
   id="path848" />
            </g></g>
</svg>