<?xml version="1.0" encoding="UTF-8" standalone="no"?>
<svg
   width="2704.9324"
   height="2495.4172"
   viewBox="0 0 2704.9324 2495.4172"
   version="1.1"
   xml:space="preserve"
   style="clip-rule:evenodd;fill-rule:evenodd;stroke-linecap:round;stroke-linejoin:round;stroke-miterlimit:1.5"
   id="svg18"
   sodipodi:docname="Metadata Image.svg"
   inkscape:version="1.3.2 (1:1.3.2+202311252150+091e20ef0f)"
   xmlns:inkscape="http://www.inkscape.org/namespaces/inkscape"
   xmlns:sodipodi="http://sodipodi.sourceforge.net/DTD/sodipodi-0.dtd"
   xmlns="http://www.w3.org/2000/svg"
   xmlns:svg="http://www.w3.org/2000/svg"><defs
   id="defs18" /><sodipodi:namedview
   id="namedview18"
   pagecolor="#ffffff"
   bordercolor="#000000"
   borderopacity="0"
   inkscape:showpageshadow="2"
   inkscape:pageopacity="0.0"
   inkscape:pagecheckerboard="0"
   inkscape:deskcolor="#d1d1d1"
   inkscape:clip-to-page="false"
   inkscape:zoom="0.25310384"
   inkscape:cx="1353.1996"
   inkscape:cy="1246.524"
   inkscape:window-width="1803"
   inkscape:window-height="1142"
   inkscape:window-x="0"
   inkscape:window-y="1112"
   inkscape:window-maximized="1"
   inkscape:current-layer="svg18" />
    <g
   transform="matrix(19.2856,0,0,19.2856,-15059.137,-33626.835)"
   id="g1">
        <path
   d="m 909.767,1784.18 c 0,0 1.604,-1.07 2.187,0.42 1.655,4.22 3.743,15.95 4.797,29.42 0.929,11.88 0.285,18.43 0.285,18.43 -4.157,19.75 -7.462,28.96 -7.673,-0.2 z"
   style="fill:#aabaff;fill-opacity:0.3"
   id="path1" />
    </g>
    <g
   transform="matrix(17.4727,0,0,7.71745,-13479.537,-13645.735)"
   id="g2">
        <path
   d="m 909.767,1784.18 c 0,0 1.604,-1.07 2.187,0.42 1.655,4.22 3.743,15.95 4.797,29.42 0.929,11.88 0.285,18.43 0.285,18.43 l -7.673,-0.2 z"
   style="fill:#ddfdfa;stroke:#5660ff;stroke-width:1.75px"
   id="path2" />
    </g>
    <g
   transform="matrix(26.4421,3.83888,-3.24887,23.8854,-12204.337,-15932.735)"
   id="g3">
        <path
   d="m 618.462,569.428 c -5.054,2.88 -3.899,15.893 1.509,15.804 8.793,-0.145 5.875,-20.012 -1.509,-15.804 z"
   style="fill:none;stroke:#5660ff;stroke-width:0.92px"
   id="path3" />
    </g>
    <g
   transform="matrix(22.3615,-1.85191,1.79252,23.1023,-12674.837,-11957.535)"
   id="g4">
        <path
   d="m 610.684,603.624 c 2.051,7.039 -2.515,16.052 -4.218,29.051"
   style="fill:none;stroke:#5660ff;stroke-width:1.04px"
   id="path4" />
    </g>
    <g
   transform="matrix(22.3615,-1.85191,1.79252,23.1023,-12674.837,-11957.535)"
   id="g5">
        <path
   d="m 610.346,630.997 c -2.182,16.656 -5.975,36.585 -3.438,38.028 1.543,0.878 3.926,1.271 3.926,1.271 0,0 7.88,-27.676 8.177,-27.518 3.417,1.821 -2.923,28.386 0.94,26.341 1.036,-0.548 3.099,1.221 3.099,1.221 3.042,1.218 11.204,-33.304 9.263,-35.126"
   style="fill:none;stroke:#5660ff;stroke-width:1.04px"
   id="path5" />
    </g>
    <g
   transform="matrix(22.3615,-1.85191,1.79252,23.1023,-12674.837,-11957.535)"
   id="g6">
        <path
   d="m 632.917,635.9 c 1.902,-11.213 1.945,-13.523 -0.695,-32.286"
   style="fill:none;stroke:#5660ff;stroke-width:1.04px"
   id="path6" />
    </g>
    <g
   transform="matrix(22.3615,-1.85191,1.79252,23.1023,-12674.837,-11957.535)"
   id="g7">
        <path
   d="m 629.832,592.904 c -7.253,-5.028 -9.362,-2.404 -12.599,-3.592 -6.944,-2.55 -8.924,-6.509 -12.754,-12.252 -0.554,-0.83 -3.725,2.837 -3.725,2.837 0,0 4.645,22.013 9.93,23.727"
   style="fill:none;stroke:#5660ff;stroke-width:1.04px"
   id="path7" />
    </g>
    <g
   transform="matrix(31.0321,-16.2154,10.6245,20.5925,-22790.737,-1579.9353)"
   id="g8">
        <path
   d="m 599.481,564.144 c -3.151,-3.13 1.775,-13.654 2.992,-8.509 0.321,1.358 -0.782,7.124 -0.782,7.124 0,0 -1.705,0.977 -2.21,1.385 z"
   style="fill:none;stroke:#5660ff;stroke-width:0.8px"
   id="path8" />
    </g>
    <g
   transform="matrix(22.3615,-1.85191,1.42412,18.3543,-12456.337,-9142.4353)"
   id="g9">
        <path
   d="m 629.832,592.904 c 5.933,2.794 12.521,28.388 4.147,42.516"
   style="fill:none;stroke:#5660ff;stroke-width:1.15px"
   id="path9" />
    </g>
    <g
   transform="matrix(22.3615,-1.85191,1.79252,23.1023,-12754.337,-12097.135)"
   id="g10">
        <path
   d="m 622.818,581.107 c 0.415,0.788 1.634,2.351 2.045,3.18 0.629,1.269 0.889,2.704 1.125,4.087 0.266,1.554 0.16,3.137 0.198,4.704 0.022,0.886 0.166,2.008 0.826,2.671 0.042,0.042 0.479,-0.086 0.521,-0.095 0.564,-0.127 1.11,-0.304 1.696,-0.258 0.787,0.061 1.556,0.295 2.305,0.531 0.519,0.163 0.998,0.401 1.553,0.33 2.196,-0.279 3.262,-3.113 3.38,-5.07 0.099,-1.638 -0.366,-3.226 -0.74,-4.803 -0.194,-0.823 -0.374,-1.647 -0.508,-2.482 -0.095,-0.588 -0.182,-1.177 -0.285,-1.763 -0.408,-2.303 -2.593,-9.197 -9.205,-5.89"
   style="fill:none;stroke:#5660ff;stroke-width:1.04px"
   id="path10" />
    </g>
    <g
   transform="matrix(-10.7766,-32.716,47.5477,-14.8291,-18601.037,28389.165)"
   id="g11">
        <path
   d="m 607.321,565.064 c 0,0 3.72,-2.899 5.56,-3.551"
   style="fill:none;stroke:#5660ff;stroke-width:0.56px"
   id="path11" />
    </g>
    <g
   transform="matrix(22.3615,-1.85191,1.79252,23.1023,-12737.337,-12020.435)"
   id="g12">
        <path
   d="m 609.031,635.601 c 0,0 7.302,-6.848 26.45,3.225"
   style="fill:none;stroke:#5660ff;stroke-width:1.04px"
   id="path12" />
    </g>
    <g
   transform="matrix(20.9418,0,0,15.3182,-5869.5273,-14677.535)"
   id="g13">
        <path
   d="m 380.136,1113 c -0.048,0.32 -3.037,0.18 -4.071,1.63 -0.482,0.68 -0.465,2.78 -0.287,3.07 0.287,0.46 0.733,0.79 1.191,1.07 0.41,0.24 0.845,0.46 1.285,0.65 1.274,0.55 2.637,0.82 4.017,0.89 0.145,0 0.941,0.15 1.073,0.04 1.319,-1.08 2.229,-4.65 1.126,-6.18"
   style="fill:none;stroke:#5660ff;stroke-width:1.29px"
   id="path13" />
    </g>
    <g
   transform="matrix(14.0686,0,0,15.3182,-2950.3573,-14679.535)"
   id="g14">
        <path
   d="m 378.373,1111.9 c -1.167,1.66 -5.725,2.6 -6.806,4 -0.921,1.2 1.529,2.99 1.611,3.12 0.286,0.46 7.713,1.22 9.093,1.29 0.145,0 0.941,0.15 1.073,0.04 1.319,-1.08 2.229,-4.65 1.126,-6.18"
   style="fill:none;stroke:#5660ff;stroke-width:1.61px"
   id="path14" />
    </g>
    <g
   transform="matrix(14.7285,0,0,14.7285,-13448.937,-10385.925)"
   id="g15">
        <path
   d="m 1050.77,809.363 c 1.5,0.219 3.03,0.356 4.54,0.505"
   style="fill:none;stroke:#5660ff;stroke-width:1.6px"
   id="path15" />
    </g>
    <g
   transform="matrix(19.2856,0,0,19.2856,-20226.737,-214621.54)"
   id="g16">
        <path
   d="m 1053.3,11131.9 c 5.34,-2.3 35.15,-1.3 37.83,-1.8 9.38,-1.9 17.2,4.8 25.41,-0.9"
   style="fill:none;stroke:#5660ff;stroke-width:1.22px;stroke-miterlimit:3"
   id="path16" />
    </g>
    <g
   transform="matrix(19.2856,0,0,19.2856,-20226.737,-214621.54)"
   id="g17">
        <path
   d="m 1049.41,11151.8 c 9.25,-2.7 50.98,-3.7 68.85,-3"
   style="fill:none;stroke:#5660ff;stroke-width:1.22px;stroke-miterlimit:3"
   id="path17" />
    </g>
    <g
   transform="matrix(19.2856,0,0,19.2856,-20264.537,-214702.54)"
   id="g18">
        <path
   d="m 1053.58,11172.2 c 16,0 15.46,0.3 26.79,-0.2 10.94,-0.5 16.5,1.9 37.63,-1.4"
   style="fill:none;stroke:#5660ff;stroke-width:1.22px;stroke-miterlimit:3"
   id="path18" />
    </g>
</svg>
