<?xml version="1.0" encoding="UTF-8" standalone="no"?>
<svg width="112px" height="53px" viewBox="0 0 112 53" version="1.1" xmlns="http://www.w3.org/2000/svg" xmlns:xlink="http://www.w3.org/1999/xlink">
    <!-- Generator: Sketch 3.8.3 (29802) - http://www.bohemiancoding.com/sketch -->
    <title>Group</title>
    <desc>Created with Sketch.</desc>
    <defs>
        <polygon id="path-1" points="8.076 12.81 8.076 0.002 0.5215 0.002 0.5215 12.81 8.076 12.81"></polygon>
    </defs>
    <g id="Page-1" stroke="none" stroke-width="1" fill="none" fill-rule="evenodd">
        <g id="Group">
            <path d="M46.2441,50.2904 C46.2441,51.5374 45.2261,52.5584 43.9781,52.5584 L3.2361,52.5584 C1.9901,52.5584 0.9691,51.5374 0.9691,50.2904 L0.9691,2.6764 C0.9691,1.4294 1.9901,0.4094 3.2361,0.4094 L43.9471,0.4284 C45.1951,0.4284 46.2151,1.4494 46.2151,2.6964 L46.2441,50.2904 Z" id="Fill-1" fill="#82358C"></path>
            <g id="Group-21" transform="translate(51.000000, 9.890000)">
                <path d="M0.0508,4.0537 L1.0958,4.0537 L1.0958,5.6147 C1.4318,5.0287 1.8538,4.5767 2.3578,4.2597 C2.8638,3.9437 3.4768,3.7847 4.1968,3.7847 C4.8338,3.7847 5.3968,3.9407 5.8828,4.2507 C6.3688,4.5627 6.6968,5.0107 6.8648,5.5967 C7.1308,5.0107 7.5298,4.5627 8.0648,4.2507 C8.5998,3.9407 9.1858,3.7847 9.8218,3.7847 C11.8788,3.7847 12.9058,4.8667 12.9058,7.0317 L12.9058,13.3097 L11.7698,13.3097 L11.7698,7.0847 C11.7698,6.2957 11.6018,5.7067 11.2658,5.3187 C10.9298,4.9297 10.3638,4.7357 9.5708,4.7357 C8.6558,4.7357 8.0078,5.0467 7.6228,5.6677 C7.2378,6.2897 7.0468,7.0917 7.0468,8.0727 L7.0468,13.3097 L5.9098,13.3097 L5.9098,7.0317 C5.9098,6.3497 5.7538,5.7967 5.4418,5.3717 C5.1288,4.9487 4.6368,4.7357 3.9628,4.7357 C3.0138,4.7357 2.3128,5.0437 1.8618,5.6587 C1.4118,6.2757 1.1858,7.1037 1.1858,8.1437 L1.1858,13.3097 L0.0508,13.3097 L0.0508,4.0537 L0.0508,4.0537 Z" id="Fill-3" fill="#919792"></path>
                <path d="M14.0234,4.0537 L15.0704,4.0537 L15.0704,5.8117 C15.3454,5.1777 15.7814,4.6817 16.3774,4.3237 C16.9724,3.9637 17.6544,3.7847 18.4234,3.7847 C19.7814,3.7847 20.8184,4.2477 21.5354,5.1727 C22.2504,6.0977 22.6074,7.2647 22.6074,8.6727 C22.6074,10.0697 22.2464,11.2337 21.5254,12.1637 C20.8044,13.0947 19.7694,13.5607 18.4234,13.5607 C17.6894,13.5607 17.0294,13.3857 16.4394,13.0357 C15.8514,12.6867 15.4354,12.1917 15.1954,11.5517 L15.1604,16.7177 L14.0234,16.7177 L14.0234,4.0537 Z M18.4234,4.7357 C17.2694,4.7357 16.4374,5.1027 15.9254,5.8357 C15.4164,6.5707 15.1604,7.5157 15.1604,8.6727 C15.1604,9.7707 15.4234,10.7007 15.9534,11.4647 C16.4824,12.2287 17.3064,12.6107 18.4234,12.6107 C19.4214,12.6107 20.1794,12.2197 20.6954,11.4377 C21.2124,10.6567 21.4704,9.7347 21.4704,8.6727 C21.4704,7.5987 21.2144,6.6747 20.7054,5.8997 C20.1934,5.1227 19.4334,4.7357 18.4234,4.7357 L18.4234,4.7357 Z" id="Fill-5" fill="#919792"></path>
                <polygon id="Fill-7" fill="#919792" points="23.51 13.31 24.645 13.31 24.645 4.054 23.51 4.054"></polygon>
                <path d="M26.2852,0.502 L27.4222,0.502 L27.4222,5.812 C27.6742,5.166 28.0992,4.667 28.7012,4.315 C29.3032,3.962 29.9632,3.785 30.6852,3.785 C32.0432,3.785 33.0802,4.248 33.7952,5.173 C34.5102,6.098 34.8692,7.265 34.8692,8.673 C34.8692,10.069 34.5082,11.233 33.7872,12.164 C33.0642,13.095 32.0312,13.561 30.6852,13.561 C29.9282,13.561 29.2522,13.38 28.6562,13.019 C28.0602,12.657 27.6312,12.168 27.3672,11.552 L27.3322,13.31 L26.2852,13.31 L26.2852,0.502 Z M30.6852,4.735 C29.5662,4.735 28.7442,5.117 28.2152,5.881 C27.6852,6.645 27.4222,7.575 27.4222,8.673 C27.4222,9.771 27.6852,10.701 28.2152,11.465 C28.7442,12.229 29.5662,12.61 30.6852,12.61 C31.6832,12.61 32.4392,12.22 32.9572,11.438 C33.4742,10.656 33.7322,9.734 33.7322,8.673 C33.7322,7.599 33.4762,6.675 32.9672,5.899 C32.4552,5.123 31.6952,4.735 30.6852,4.735 L30.6852,4.735 Z" id="Fill-9" fill="#82358C"></path>
                <path d="M35.7344,4.0537 L36.7794,4.0537 L36.7794,6.2247 C37.0804,5.4777 37.5374,4.9057 38.1504,4.5067 C38.7634,4.1097 39.4904,3.9097 40.3324,3.9097 L40.3324,5.0397 C39.3104,5.0397 38.4784,5.3487 37.8344,5.9657 C37.1914,6.5827 36.8694,7.3837 36.8694,8.3657 L36.8694,13.3097 L35.7344,13.3097 L35.7344,4.0537 Z" id="Fill-10" fill="#82358C"></path>
                <path d="M40.4043,6.8877 C40.4043,5.8477 40.7503,5.0707 41.4413,4.5567 C42.1313,4.0417 43.0433,3.7847 44.1723,3.7847 C45.1703,3.7847 45.9903,3.9997 46.6333,4.4307 C47.2773,4.8617 47.5973,5.6387 47.5973,6.7627 L47.5973,11.6777 C47.5973,12.1317 47.8203,12.3597 48.2653,12.3597 C48.3843,12.3597 48.5063,12.3347 48.6273,12.2867 L48.6273,13.2387 C48.3983,13.2857 48.1503,13.3097 47.8863,13.3097 C47.3453,13.3097 46.9883,13.1817 46.8143,12.9237 C46.6383,12.6667 46.5523,12.2577 46.5523,11.6957 C46.0953,12.3467 45.6233,12.8207 45.1363,13.1167 C44.6503,13.4117 43.9803,13.5607 43.1273,13.5607 C42.2133,13.5607 41.4653,13.3337 40.8813,12.8807 C40.2993,12.4267 40.0083,11.7527 40.0083,10.8577 C40.0083,10.0457 40.2283,9.4467 40.6743,9.0587 C41.1193,8.6707 41.6293,8.4167 42.2073,8.2977 C42.7833,8.1787 43.4983,8.0687 44.3533,7.9667 C45.2053,7.8657 45.7713,7.7607 46.0473,7.6537 C46.3243,7.5457 46.4633,7.2057 46.4633,6.6327 C46.4633,5.9167 46.2483,5.4217 45.8223,5.1477 C45.3943,4.8727 44.7973,4.7357 44.0273,4.7357 C43.2833,4.7357 42.6813,4.9117 42.2243,5.2647 C41.7673,5.6167 41.5393,6.1587 41.5393,6.8877 L40.4043,6.8877 Z M46.4633,8.2507 C46.4023,8.3467 46.3003,8.4237 46.1563,8.4837 C46.0113,8.5427 45.6213,8.6287 44.9843,8.7417 C44.3453,8.8557 43.5473,8.9957 42.5863,9.1617 C41.6233,9.4597 41.1423,10.0017 41.1423,10.7877 C41.1423,11.3357 41.3473,11.7767 41.7563,12.1107 C42.1643,12.4437 42.6523,12.6107 43.2173,12.6107 C44.1173,12.6107 44.8843,12.3447 45.5153,11.8157 C46.1463,11.2847 46.4633,10.5847 46.4633,9.7157 L46.4633,8.2507 Z" id="Fill-11" fill="#82358C"></path>
                <polygon id="Fill-12" fill="#82358C" points="49.311 13.31 50.448 13.31 50.448 4.054 49.311 4.054"></polygon>
                <path d="M52.1602,4.0537 L53.2972,4.0537 L53.2972,5.6507 C53.5252,5.1007 53.9182,4.6527 54.4762,4.3047 C55.0372,3.9577 55.6462,3.7847 56.3062,3.7847 C57.5582,3.7847 58.4372,4.0837 58.9492,4.6817 C59.4612,5.2807 59.7152,6.1707 59.7152,7.3547 L59.7152,13.3097 L58.5802,13.3097 L58.5802,7.5337 C58.5802,6.6607 58.4022,5.9767 58.0472,5.4797 C57.6932,4.9847 57.0822,4.7357 56.2172,4.7357 C55.3282,4.7357 54.6192,5.0337 54.0902,5.6327 C53.5602,6.2307 53.2972,6.9907 53.2972,7.9097 L53.2972,13.3097 L52.1602,13.3097 L52.1602,4.0537 Z" id="Fill-13" fill="#82358C"></path>
                <path d="M0.0508,18.5537 L1.0958,18.5537 L1.0958,20.7247 C1.3968,19.9777 1.8538,19.4057 2.4668,19.0067 C3.0798,18.6097 3.8068,18.4097 4.6488,18.4097 L4.6488,19.5397 C3.6268,19.5397 2.7928,19.8487 2.1508,20.4657 C1.5078,21.0827 1.1858,21.8837 1.1858,22.8657 L1.1858,27.8097 L0.0508,27.8097 L0.0508,18.5537 Z" id="Fill-14" fill="#919792"></path>
                <path d="M5.4961,23.4863 C5.4961,24.4383 5.7561,25.2803 6.2751,26.0123 C6.7951,26.7443 7.5621,27.1103 8.5801,27.1103 C9.3891,27.1103 10.0331,26.9053 10.5121,26.4963 C10.9881,26.0873 11.3241,25.5073 11.5171,24.7593 L12.6171,24.7593 C12.3651,25.8423 11.9141,26.6633 11.2661,27.2223 C10.6171,27.7813 9.7151,28.0603 8.5601,28.0603 C7.1541,28.0603 6.1011,27.6043 5.4041,26.6913 C4.7071,25.7783 4.3591,24.6053 4.3591,23.1733 C4.3591,21.8363 4.7131,20.6873 5.4241,19.7263 C6.1331,18.7653 7.1781,18.2853 8.5601,18.2853 C9.9551,18.2853 10.9861,18.7843 11.6521,19.7823 C12.3201,20.7813 12.6541,22.0153 12.6541,23.4863 L5.4961,23.4863 Z M11.5171,22.5363 C11.5171,21.6273 11.2501,20.8493 10.7151,20.2043 C10.1801,19.5583 9.4631,19.2353 8.5601,19.2353 C7.6841,19.2353 6.9761,19.5523 6.4411,20.1863 C5.9061,20.8203 5.5921,21.6033 5.4961,22.5363 L11.5171,22.5363 Z" id="Fill-15" fill="#919792"></path>
                <path d="M19.1816,21.2627 C19.1816,20.5927 18.9526,20.0877 18.4956,19.7467 C18.0386,19.4067 17.4566,19.2357 16.7456,19.2357 C16.1466,19.2357 15.6286,19.3647 15.1956,19.6197 C14.7636,19.8767 14.5466,20.2807 14.5466,20.8287 C14.5466,21.2707 14.7326,21.6047 15.1056,21.8307 C15.4786,22.0587 15.9356,22.2427 16.4766,22.3857 L17.9906,22.7267 C18.7366,22.8337 19.3656,23.0997 19.8746,23.5227 C20.3866,23.9467 20.6426,24.5337 20.6426,25.2857 C20.6426,26.2047 20.2656,26.8977 19.5156,27.3627 C18.7636,27.8277 17.8946,28.0607 16.9106,28.0607 C15.7556,28.0607 14.8296,27.7897 14.1326,27.2487 C13.4356,26.7077 13.0856,25.8967 13.0856,24.8147 L14.2226,24.8147 C14.2226,25.5377 14.4806,26.1017 14.9976,26.5047 C15.5136,26.9087 16.1696,27.1107 16.9626,27.1107 C17.5876,27.1107 18.1676,26.9637 18.7026,26.6717 C19.2386,26.3787 19.5056,25.9407 19.5056,25.3557 C19.5056,24.8787 19.3266,24.5177 18.9646,24.2727 C18.6036,24.0287 18.1056,23.8277 17.4686,23.6727 L16.0076,23.3507 C15.1426,23.1237 14.4926,22.8377 14.0606,22.4917 C13.6266,22.1457 13.4116,21.6087 13.4116,20.8807 C13.4116,20.0097 13.7596,19.3597 14.4566,18.9297 C15.1546,18.4997 15.9706,18.2847 16.9106,18.2847 C17.8946,18.2847 18.7086,18.5417 19.3516,19.0567 C19.9956,19.5707 20.3166,20.3057 20.3166,21.2627 L19.1816,21.2627 Z" id="Fill-16" fill="#919792"></path>
                <path d="M22.3008,23.4863 C22.3008,24.4383 22.5608,25.2803 23.0798,26.0123 C23.5998,26.7443 24.3688,27.1103 25.3848,27.1103 C26.1958,27.1103 26.8378,26.9053 27.3168,26.4963 C27.7948,26.0873 28.1288,25.5073 28.3218,24.7593 L29.4238,24.7593 C29.1698,25.8423 28.7208,26.6633 28.0708,27.2223 C27.4218,27.7813 26.5198,28.0603 25.3648,28.0603 C23.9588,28.0603 22.9078,27.6043 22.2108,26.6913 C21.5138,25.7783 21.1638,24.6053 21.1638,23.1733 C21.1638,21.8363 21.5198,20.6873 22.2288,19.7263 C22.9378,18.7653 23.9848,18.2853 25.3648,18.2853 C26.7598,18.2853 27.7908,18.7843 28.4588,19.7823 C29.1248,20.7813 29.4588,22.0153 29.4588,23.4863 L22.3008,23.4863 Z M28.3218,22.5363 C28.3218,21.6273 28.0548,20.8493 27.5218,20.2043 C26.9868,19.5583 26.2678,19.2353 25.3648,19.2353 C24.4888,19.2353 23.7808,19.5523 23.2478,20.1863 C22.7128,20.8203 22.3968,21.6033 22.3008,22.5363 L28.3218,22.5363 Z" id="Fill-17" fill="#919792"></path>
                <path d="M30.4141,21.3877 C30.4141,20.3477 30.7601,19.5707 31.4511,19.0567 C32.1431,18.5417 33.0531,18.2847 34.1841,18.2847 C35.1801,18.2847 36.0021,18.4997 36.6441,18.9307 C37.2871,19.3617 37.6091,20.1387 37.6091,21.2627 L37.6091,26.1777 C37.6091,26.6317 37.8321,26.8597 38.2751,26.8597 C38.3961,26.8597 38.5161,26.8347 38.6371,26.7867 L38.6371,27.7387 C38.4081,27.7857 38.1621,27.8097 37.8981,27.8097 C37.3571,27.8097 36.9981,27.6817 36.8241,27.4237 C36.6501,27.1667 36.5621,26.7577 36.5621,26.1957 C36.1051,26.8467 35.6351,27.3207 35.1481,27.6167 C34.6601,27.9117 33.9901,28.0607 33.1371,28.0607 C32.2231,28.0607 31.4751,27.8337 30.8931,27.3807 C30.3091,26.9267 30.0181,26.2527 30.0181,25.3577 C30.0181,24.5457 30.2401,23.9467 30.6851,23.5587 C31.1291,23.1707 31.6411,22.9167 32.2171,22.7977 C32.7951,22.6787 33.5101,22.5687 34.3631,22.4667 C35.2171,22.3657 35.7811,22.2607 36.0591,22.1537 C36.3341,22.0457 36.4731,21.7057 36.4731,21.1327 C36.4731,20.4167 36.2601,19.9217 35.8321,19.6477 C35.4061,19.3727 34.8091,19.2357 34.0391,19.2357 C33.2931,19.2357 32.6911,19.4117 32.2361,19.7647 C31.7791,20.1167 31.5511,20.6587 31.5511,21.3877 L30.4141,21.3877 Z M36.4731,22.7507 C36.4121,22.8467 36.3101,22.9237 36.1661,22.9837 C36.0211,23.0427 35.6311,23.1287 34.9941,23.2417 C34.3571,23.3557 33.5591,23.4957 32.5961,23.6617 C31.6351,23.9597 31.1541,24.5017 31.1541,25.2877 C31.1541,25.8357 31.3571,26.2767 31.7681,26.6107 C32.1761,26.9437 32.6621,27.1107 33.2271,27.1107 C34.1291,27.1107 34.8941,26.8447 35.5251,26.3157 C36.1581,25.7847 36.4731,25.0847 36.4731,24.2157 L36.4731,22.7507 Z" id="Fill-18" fill="#919792"></path>
                <path d="M39.3047,18.5537 L40.3497,18.5537 L40.3497,20.7247 C40.6507,19.9777 41.1077,19.4057 41.7207,19.0067 C42.3337,18.6097 43.0607,18.4097 43.9027,18.4097 L43.9027,19.5397 C42.8807,19.5397 42.0467,19.8487 41.4047,20.4657 C40.7617,21.0827 40.4397,21.8837 40.4397,22.8657 L40.4397,27.8097 L39.3047,27.8097 L39.3047,18.5537 Z" id="Fill-19" fill="#919792"></path>
                <path d="M50.6465,21.46 C50.4905,20.742 50.1955,20.192 49.7615,19.81 C49.3305,19.427 48.7465,19.235 48.0135,19.235 C46.9785,19.235 46.1755,19.62 45.6055,20.39 C45.0355,21.159 44.7505,22.087 44.7505,23.173 C44.7505,24.234 45.0355,25.156 45.6055,25.938 C46.1755,26.72 46.9785,27.11 48.0135,27.11 C48.7225,27.11 49.3325,26.863 49.8435,26.371 C50.3535,25.878 50.6465,25.251 50.7165,24.491 L51.8535,24.491 C51.6975,25.598 51.2795,26.47 50.5995,27.106 C49.9215,27.742 49.0585,28.061 48.0135,28.061 C46.6425,28.061 45.5665,27.593 44.7855,26.655 C44.0035,25.718 43.6135,24.558 43.6135,23.173 C43.6135,21.776 44.0015,20.612 44.7755,19.682 C45.5505,18.75 46.6305,18.285 48.0135,18.285 C49.0355,18.285 49.8885,18.557 50.5745,19.101 C51.2575,19.646 51.6625,20.432 51.7815,21.46 L50.6465,21.46 Z" id="Fill-20" fill="#919792"></path>
            </g>
            <g id="Group-28" transform="translate(0.000000, 8.890000)">
                <g id="Group-24" transform="translate(103.000000, 16.000000)">
                    <mask id="mask-2" fill="white">
                        <use xlink:href="#path-1"></use>
                    </mask>
                    <g id="Clip-23"></g>
                    <path d="M0.5215,0.002 L1.6565,0.002 L1.6565,5.15 C1.8845,4.601 2.2795,4.152 2.8375,3.805 C3.3965,3.458 4.0055,3.285 4.6675,3.285 C5.9175,3.285 6.7985,3.584 7.3085,4.182 C7.8205,4.78 8.0765,5.671 8.0765,6.855 L8.0765,12.81 L6.9395,12.81 L6.9395,7.034 C6.9395,6.161 6.7615,5.477 6.4085,4.98 C6.0525,4.484 5.4435,4.235 4.5785,4.235 C3.6875,4.235 2.9785,4.534 2.4495,5.133 C1.9215,5.731 1.6565,6.49 1.6565,7.41 L1.6565,12.81 L0.5215,12.81 L0.5215,0.002 Z" id="Fill-22" fill="#919792" mask="url(#mask-2)"></path>
                </g>
                <g id="Group-27" fill="#FFFFFF">
                    <path d="M46.2285,15.5654 C45.8845,15.3554 45.4865,15.2274 45.0525,15.2274 C43.9745,15.2274 43.0765,15.9824 42.8475,16.9904 C38.9785,17.3064 35.3575,18.5004 32.1795,20.3634 C31.3515,19.0074 30.4415,17.7084 29.4725,16.4574 C33.4335,14.0684 37.9925,12.5674 42.8745,12.2294 C43.1365,13.1914 44.0075,13.9044 45.0525,13.9044 C45.4845,13.9044 45.8845,13.7764 46.2285,13.5664 L46.2245,9.7054 C45.8825,9.4964 45.4845,9.3694 45.0525,9.3694 C43.9415,9.3694 43.0195,10.1714 42.8285,11.2274 C37.7305,11.5684 32.9725,13.1444 28.8455,15.6524 C27.8615,14.4404 26.8025,13.2894 25.6935,12.1904 C30.6915,8.9764 36.5405,6.9754 42.8325,6.6104 C43.0465,7.6414 43.9585,8.4164 45.0525,8.4164 C45.4825,8.4164 45.8825,8.2894 46.2245,8.0804 L46.2225,4.2144 C45.8785,4.0074 45.4825,3.8804 45.0525,3.8804 C43.9885,3.8804 43.1015,4.6174 42.8575,5.6074 C36.2775,5.9744 30.1625,8.0804 24.9605,11.4724 C18.5195,5.3984 10.2035,1.2914 0.9685,0.1144 C0.9685,0.1144 0.9475,0.6154 0.9685,0.6184 C10.0295,1.7874 18.1935,5.8144 24.5335,11.7614 C14.7615,18.3324 8.3265,29.4844 8.3245,42.1484 C8.3245,42.6594 8.3355,43.1624 8.3575,43.6684 C8.3595,43.7054 9.3575,43.6684 9.3575,43.6684 C9.3575,43.6684 9.3265,42.6114 9.3265,42.1484 C9.3265,32.3124 13.3125,23.4164 19.7535,16.9714 C21.4315,15.2934 23.2835,13.7904 25.2655,12.4734 C26.3765,13.5664 27.4335,14.7144 28.4195,15.9234 C19.7165,21.4104 13.9315,31.0984 13.9315,42.1484 C13.9315,42.6554 13.9435,43.1674 13.9685,43.6684 L14.9605,43.6684 C14.9605,43.6684 14.9685,43.7314 14.9645,43.6684 C14.9435,43.1984 14.9315,42.6234 14.9295,42.1484 C14.9495,31.4164 20.5825,22.0254 29.0485,16.7264 C30.0155,17.9704 30.9195,19.2654 31.7465,20.6154 C24.5095,25.0524 19.6795,33.0354 19.6795,42.1484 C19.6795,42.6114 19.6815,43.1774 19.7075,43.6684 C19.7075,43.6684 20.7075,43.6834 20.7075,43.6684 C20.6835,43.2124 20.6815,42.6194 20.6815,42.1484 C20.6975,33.4044 25.3225,25.7544 32.2555,21.4914 C35.8785,27.7444 37.9605,35.0004 37.9605,42.7474 C37.9605,43.0624 37.9575,43.3524 37.9515,43.6684 L38.4535,43.6684 C38.4585,43.3594 38.4605,43.0554 38.4605,42.7474 C38.4605,34.9084 36.3535,27.5644 32.6875,21.2384 C35.7165,19.4614 39.1625,18.3164 42.8455,17.9974 C43.0745,19.0064 43.9745,19.7624 45.0525,19.7624 C45.4865,19.7624 45.8865,19.6344 46.2325,19.4234 L46.2285,15.5654 Z" id="Fill-25"></path>
                </g>
            </g>
        </g>
    </g>
</svg>