<?xml version="1.0" encoding="UTF-8" standalone="no"?>
<svg
   xmlns:dc="http://purl.org/dc/elements/1.1/"
   xmlns:cc="http://creativecommons.org/ns#"
   xmlns:rdf="http://www.w3.org/1999/02/22-rdf-syntax-ns#"
   xmlns:svg="http://www.w3.org/2000/svg"
   xmlns="http://www.w3.org/2000/svg"
   xmlns:sodipodi="http://sodipodi.sourceforge.net/DTD/sodipodi-0.dtd"
   xmlns:inkscape="http://www.inkscape.org/namespaces/inkscape"
   width="24"
   height="24"
   viewBox="0 0 24 24"
   version="1.1"
   id="svg4"
   sodipodi:docname="bounding-box.svg"
   inkscape:version="0.92.5 (2060ec1f9f, 2020-04-08)">
  <metadata
     id="metadata10">
    <rdf:RDF>
      <cc:Work
         rdf:about="">
        <dc:format>image/svg+xml</dc:format>
        <dc:type
           rdf:resource="http://purl.org/dc/dcmitype/StillImage" />
        <dc:title></dc:title>
      </cc:Work>
    </rdf:RDF>
  </metadata>
  <defs
     id="defs8" />
  <sodipodi:namedview
     pagecolor="#ffffff"
     bordercolor="#666666"
     borderopacity="1"
     objecttolerance="10"
     gridtolerance="10"
     guidetolerance="10"
     inkscape:pageopacity="0"
     inkscape:pageshadow="2"
     inkscape:window-width="1920"
     inkscape:window-height="1029"
     id="namedview6"
     showgrid="false"
     inkscape:zoom="9.8333333"
     inkscape:cx="12.20339"
     inkscape:cy="12"
     inkscape:window-x="0"
     inkscape:window-y="27"
     inkscape:window-maximized="1"
     inkscape:current-layer="svg4" />
  <path
     d="M 14.306633,3.0508474 4.559322,8.2881357 V 18.877058 L 14.306633,24 24.053945,18.877058 V 8.3448727 Z M 21.315837,8.8520169 14.311064,12.533831 7.3355334,8.7856781 14.302203,5.0418899 Z M 6.3315605,10.234661 13.420513,14.043042 v 7.51289 L 6.3315605,17.830474 Z m 8.8611935,11.321271 v -7.506779 l 7.088953,-3.72633 v 7.506778 z m 5.917503,-4.639364 c 0.0062,0.289797 -0.226847,0.528093 -0.521037,0.534205 -0.294193,0.006 -0.535217,-0.223458 -0.541419,-0.513257 -0.0053,-0.288923 0.226846,-0.528092 0.521037,-0.534201 0.293306,-0.006 0.536102,0.223458 0.541419,0.513253 z m -2.401384,-1.463823 c -0.29419,0.0052 -0.527241,0.244408 -0.521037,0.533331 0.0053,0.289797 0.247227,0.519366 0.541419,0.513255 0.294191,-0.006 0.526354,-0.244407 0.521037,-0.534204 -0.0062,-0.288924 -0.247226,-0.518492 -0.541419,-0.512382 z m -1.889206,-0.955803 c -0.294191,0.006 -0.52724,0.245277 -0.521038,0.534201 0.0053,0.289799 0.247226,0.518492 0.54142,0.513256 0.294191,-0.006 0.526353,-0.244407 0.521037,-0.534204 -0.0062,-0.288922 -0.247226,-0.518492 -0.541419,-0.513253 z m -8.774352,1.9055 c 0.2941916,0.006 0.5263548,0.245277 0.5210382,0.534201 -0.00621,0.289799 -0.2472274,0.519365 -0.5414191,0.513256 -0.2941913,-0.0052 -0.5272408,-0.244407 -0.5210378,-0.534204 0.00442,-0.288922 0.2472271,-0.518492 0.5414187,-0.513253 z M 9.3629744,15.966 c -0.00531,0.289797 0.2268465,0.528093 0.5210381,0.534203 0.2941915,0.006 0.5361015,-0.22433 0.5414185,-0.513253 0.0062,-0.289797 -0.226846,-0.528093 -0.5210379,-0.533331 -0.2941915,-0.0069 -0.535216,0.222584 -0.5414187,0.512381 z m 1.8892066,-0.954932 c -0.0053,0.289797 0.226846,0.528093 0.521037,0.534205 0.294193,0.0052 0.536103,-0.223458 0.541419,-0.513257 0.0062,-0.289797 -0.226846,-0.528092 -0.521037,-0.534201 -0.294193,-0.006 -0.535216,0.223458 -0.541419,0.513253 z m 3.054452,-5.0181948 c -0.293304,0 -0.531672,0.2348038 -0.531672,0.5237278 0,0.288925 0.238368,0.52373 0.531672,0.52373 0.293304,0 0.531673,-0.234805 0.531673,-0.52373 0,-0.288924 -0.238369,-0.5237278 -0.531673,-0.5237278 z m 0,-1.9421613 c -0.293304,0 -0.531672,0.234805 -0.531672,0.5237288 0,0.2889236 0.238368,0.5237288 0.531672,0.5237288 0.293304,0 0.531673,-0.2348052 0.531673,-0.5237288 0,-0.2889238 -0.238369,-0.5237288 -0.531673,-0.5237288 z m 0,-1.772822 c -0.293304,0 -0.531672,0.2348051 -0.531672,0.5237286 0,0.2889239 0.238368,0.5237289 0.531672,0.5237289 0.293304,0 0.531673,-0.234805 0.531673,-0.5237289 0,-0.2889235 -0.238369,-0.5237286 -0.531673,-0.5237286 z"
     id="path2"
     style="fill:#f1f1f1;fill-opacity:1;stroke-width:0.8794753"
     inkscape:connector-curvature="0" />
  <g
     id="g827"
     transform="matrix(1.1988701,0,0,1.1988701,-6.3259408,22.671533)">
    <path
       id="path4"
       d="M 5.7298729,-15.559318 H 11.354873"
       style="stroke:#f1f1f1;stroke-width:1.40625"
       inkscape:connector-curvature="0" />
    <path
       id="path6"
       d="m 8.5423729,-12.746818 -0.039338,-5.625008"
       style="stroke:#f1f1f1;stroke-width:1.40625"
       inkscape:connector-curvature="0" />
  </g>
</svg>
