<svg xmlns="http://www.w3.org/2000/svg" viewBox="0 0 512 512" style="max-width:100%" height="100%"><path d="M500.1 429.8H299.14a10 10 0 0 0-10 10c0 9.18-7.48 16.66-16.66 16.66h-33.24a16.68 16.68 0 0 1-16.66-16.66 10 10 0 0 0-10-10H56.47V172.83A20.86 20.86 0 0 1 77.31 152h124.72l.09.87-20.78 19.61-.2.2a95.54 95.54 0 0 0-28.17 68v44.65a10 10 0 0 0 16.7 7.43l43.76-39.48a9.99 9.99 0 0 0 5.79 4.55 129.22 129.22 0 0 0 36.17 5.29h.45c12.4 0 24.71-1.78 36.61-5.3a9.98 9.98 0 0 0 5.9-4.75l43.98 39.7a10 10 0 0 0 16.7-7.43v-44.66c0-25.68-10-49.83-28.16-67.99l-19.22-19.22.19-1.47h122.85a20.86 20.86 0 0 1 20.84 20.83v183.35a10 10 0 0 0 20 0V172.84A40.88 40.88 0 0 0 434.69 132H314.15A166.13 166.13 0 0 0 271.54 7.54l-1.76-1.94A17.08 17.08 0 0 0 257.14 0H257a17.08 17.08 0 0 0-12.69 5.8l-3.31 3.76A166.83 166.83 0 0 0 200.02 132H77.32a40.88 40.88 0 0 0-40.84 40.83V429.8H11.9a10 10 0 0 0-10 10v15.59A56.68 56.68 0 0 0 58.52 512h394.96a56.68 56.68 0 0 0 56.61-56.61v-15.6a10 10 0 0 0-10-10zM303.7 216.46l4.78-37.87 8.25 8.24a75.66 75.66 0 0 1 22.3 53.86v22.16l-36.97-33.36 1.65-13.03zM256.03 22.77l1.15-1.3a146.17 146.17 0 0 1 36.33 116.1l-2.3 18.24v.02l-9.63 76.34-1.03 8.12a109.17 109.17 0 0 1-24.7 2.83h-.38c-8.14-.03-16.25-.97-24.17-2.8l-7.88-76.04-.89-8.55-2.2-21.21a146.75 146.75 0 0 1 35.7-111.75zm-45.98 206.62l-37.07 33.45v-22.16c0-20.3 7.89-39.38 22.2-53.75l9.54-9 5.33 51.46zM453.48 492H58.52a36.66 36.66 0 0 1-36.61-36.61v-5.6h182.07a36.73 36.73 0 0 0 35.27 26.67h33.23a36.73 36.73 0 0 0 35.28-26.66H490.1v5.59A36.65 36.65 0 0 1 453.48 492z" style="" fill="currentColor"></path><path d="M424.85 174.32h-50.34a10 10 0 0 0 0 20h40.34v193.74H100.51V194.32h31.71a10 10 0 0 0 0-20H90.51a10 10 0 0 0-10 10v213.74a10 10 0 0 0 10 10h334.34a10 10 0 0 0 10-10V184.32a10 10 0 0 0-10-10z" style="" fill="currentColor"></path><circle cx="256" cy="105.57" r="10" style="" fill="currentColor"></circle><circle cx="465.53" cy="399.77" r="10" style="" fill="currentColor"></circle><path d="M230 277.65a10 10 0 0 0-10 10v40.7a10 10 0 0 0 20 0v-40.7a10 10 0 0 0-10-10zM280.8 275.33a10 10 0 0 0-10 10v60.03a10 10 0 0 0 20 0v-60.03a10 10 0 0 0-10-10z" style="" fill="currentColor"></path></svg>