<?xml version="1.0" standalone="no"?>
<!DOCTYPE svg PUBLIC "-//W3C//DTD SVG 1.1//EN" "http://www.w3.org/Graphics/SVG/1.1/DTD/svg11.dtd">
<svg width="233px" height="89px" version="1.1" xmlns="http://www.w3.org/2000/svg" xmlns:xlink="http://www.w3.org/1999/xlink" xml:space="preserve" style="fill-rule:evenodd;clip-rule:evenodd;stroke-linejoin:round;stroke-miterlimit:1.41421;">
    <g>
        <path d="M98.25,45.503C98.25,49.727 100.459,51.836 104.872,51.836C106.034,51.836 107.116,51.719 108.123,51.486L108.123,49.746C107.117,49.976 106.109,50.096 105.102,50.096C101.965,50.096 100.399,48.565 100.399,45.503C100.399,42.755 101.965,41.379 105.102,41.379C106.109,41.379 107.116,41.499 108.123,41.728L108.123,39.988C107.117,39.753 106.034,39.638 104.872,39.638C100.459,39.638 98.25,41.593 98.25,45.503Z" style="fill:rgb(51,61,77);fill-rule:nonzero;"/>
        <path d="M130.754,44.285C127.455,44.285 125.807,45.535 125.807,48.037C125.807,50.57 127.336,51.835 130.397,51.836C131.832,51.836 133.078,51.55 134.139,50.977L134.995,51.836L136.09,51.836L136.09,43.54C136.09,40.939 134.278,39.638 130.652,39.638C129.398,39.638 128.111,39.832 126.795,40.217L126.795,41.962C128.111,41.573 129.395,41.379 130.652,41.379C132.84,41.379 133.939,42.041 133.939,43.365L133.939,44.515C133.029,44.361 131.973,44.285 130.754,44.285ZM133.939,49.139C133.062,49.776 131.879,50.096 130.392,50.096C128.767,50.096 127.954,49.397 127.954,48.001C127.954,46.684 128.886,46.025 130.753,46.025C132.023,46.025 133.085,46.105 133.939,46.26Z" style="fill:rgb(51,61,77);fill-rule:nonzero;"/>
        <path d="M138.514,35.224L138.514,51.335C139.981,51.668 141.585,51.835 143.334,51.835C147.387,51.835 149.413,49.721 149.413,45.494C149.413,41.588 147.482,39.637 143.628,39.637C142.572,39.637 141.585,39.831 140.661,40.22L140.661,35.224ZM143.613,41.497C146.068,41.497 147.294,42.802 147.294,45.411C147.294,48.5 145.943,50.047 143.231,50.047C142.223,50.047 141.368,49.936 140.662,49.709L140.66,42.123C141.51,41.703 142.496,41.497 143.613,41.497Z" style="fill:rgb(51,61,77);fill-rule:nonzero;"/>
        <rect x="151.255" y="35.224" width="2.147" height="16.611" style="fill:rgb(51,61,77);"/>
        <rect x="121.807" y="35.224" width="2.149" height="16.611" style="fill:rgb(51,61,77);"/>
        <path d="M161.096,39.638C157.199,39.638 155.251,41.624 155.251,45.597C155.251,49.756 157.309,51.834 161.421,51.834C162.96,51.834 164.27,51.717 165.348,51.483L165.348,49.744C164.27,49.973 163.196,50.093 162.118,50.093C158.972,50.093 157.403,48.845 157.403,46.351L165.614,46.351C166.336,41.873 164.829,39.637 161.096,39.638ZM157.402,44.563C157.541,42.425 158.654,41.355 160.749,41.355C162.791,41.355 163.757,42.425 163.65,44.563Z" style="fill:rgb(51,61,77);fill-rule:nonzero;"/>
        <path d="M96.982,48.35C96.982,45.951 95.626,44.749 92.918,44.749L90.943,44.749C89.742,44.749 89.143,44.205 89.143,43.122C89.143,41.961 90.159,41.378 92.185,41.378C93.64,41.378 95.048,41.611 96.404,42.076L96.404,40.216C95.048,39.831 93.64,39.637 92.185,39.637C88.802,39.637 87.109,40.799 87.109,43.122C87.109,45.523 88.385,46.725 90.943,46.725L92.918,46.725C94.195,46.725 94.833,47.268 94.833,48.35C94.833,49.511 93.862,50.094 91.919,50.094C90.456,50.094 89.044,49.862 87.688,49.397L87.688,51.256C89.044,51.641 90.456,51.835 91.919,51.835C95.293,51.835 96.982,50.673 96.982,48.35Z" style="fill:rgb(51,61,77);fill-rule:nonzero;"/>
        <path d="M114.049,44.285C110.75,44.285 109.1,45.535 109.1,48.037C109.1,50.57 110.631,51.835 113.688,51.836C115.124,51.836 116.37,51.55 117.432,50.977L118.288,51.836L119.382,51.836L119.382,43.54C119.382,40.939 117.57,39.638 113.945,39.638C112.688,39.638 111.403,39.832 110.087,40.217L110.087,41.962C111.403,41.573 112.688,41.379 113.945,41.379C116.134,41.379 117.235,42.041 117.235,43.365L117.235,44.515C116.325,44.361 115.266,44.285 114.049,44.285ZM117.232,49.139C116.356,49.776 115.173,50.096 113.687,50.096C112.062,50.096 111.249,49.397 111.249,48.001C111.249,46.684 112.181,46.025 114.049,46.025C115.318,46.025 116.381,46.105 117.233,46.26L117.233,49.139Z" style="fill:rgb(51,61,77);fill-rule:nonzero;"/>
        <path d="M228.016,44.399L226.04,44.399C225.072,44.399 224.589,44.014 224.589,43.237C224.589,42.385 225.418,41.961 227.083,41.961C228.673,41.961 230.146,42.231 231.5,42.774L231.5,40.22C230.145,39.756 228.701,39.523 227.166,39.523C223.55,39.523 221.741,40.799 221.741,43.357C221.741,45.832 222.978,47.073 225.457,47.073L227.666,47.073C228.555,47.073 229.002,47.458 229.002,48.234C229.002,49.086 228.34,49.509 227.016,49.509C225.245,49.509 223.677,49.24 222.323,48.697L222.323,51.25C223.68,51.715 225.206,51.95 226.901,51.949C230.354,51.949 232.08,50.672 232.08,48.114C232.079,45.641 230.725,44.399 228.016,44.399Z" style="fill:rgb(51,61,77);fill-rule:nonzero;"/>
        <path d="M205.857,51.835L205.857,44.178C205.857,41.152 204.449,39.637 201.636,39.637C200.146,39.637 198.658,40.157 197.175,41.196L196.794,39.637L194.411,39.637L194.411,51.835L197.494,51.836L197.494,43.667C198.598,42.64 199.69,42.124 200.768,42.124C202.108,42.124 202.78,42.798 202.78,44.146L202.78,51.835Z" style="fill:rgb(51,61,77);fill-rule:nonzero;"/>
        <path d="M219.725,51.102L219.725,35.224L216.649,35.224L216.649,40.22C215.789,39.831 214.834,39.637 213.778,39.637C209.846,39.637 207.878,41.588 207.878,45.494C207.878,49.721 209.923,51.835 214.024,51.835C215.957,51.835 217.857,51.589 219.725,51.102ZM210.917,45.412C210.917,43.266 211.876,42.191 213.788,42.191C214.902,42.191 215.851,42.401 216.646,42.822L216.646,48.778C215.851,49.085 214.902,49.235 213.788,49.235C211.876,49.234 210.917,47.957 210.917,45.412Z" style="fill:rgb(51,61,77);fill-rule:nonzero;"/>
        <rect x="188.732" y="39.637" width="3.08" height="12.198" style="fill:rgb(51,61,77);"/>
        <path d="M186.135,51.836L186.135,44.273C186.135,41.184 184.85,39.637 182.278,39.637C180.915,39.637 179.455,40.197 177.901,41.311C177.256,40.197 176.166,39.637 174.63,39.637C173.254,39.637 171.861,40.149 170.463,41.172L170.104,39.637L167.719,39.637L167.719,51.835L170.8,51.836L170.8,43.703C171.754,42.651 172.715,42.124 173.692,42.124C174.824,42.124 175.389,42.814 175.389,44.19L175.389,51.836L178.465,51.836L178.465,43.703C179.464,42.651 180.42,42.124 181.336,42.124C182.484,42.124 183.053,42.802 183.053,44.155L183.053,51.836Z" style="fill:rgb(51,61,77);fill-rule:nonzero;"/>
        <rect x="188.732" y="35.224" width="3.08" height="2.438" style="fill:rgb(51,61,77);"/>
        <path d="M12.26,73.018L36.565,58.985L44.887,63.791C44.887,63.789 44.888,63.788 44.889,63.786L44.888,63.791L53.208,68.595L53.208,81.116L57.903,81.116L57.903,68.593L66.224,63.789C66.223,63.788 66.222,63.786 66.221,63.785L66.222,63.785L66.224,63.789L74.546,58.984L80.704,62.54L83.052,58.475L76.892,54.918L76.892,35.704L103.455,20.367L101.107,16.303L74.543,31.638L66.223,26.834L57.902,22.029L57.902,7.662L53.207,7.662L53.207,22.031L44.886,26.836L36.565,31.64L25.649,25.337L23.301,29.402L34.217,35.705L34.217,45.312L34.222,45.312L34.222,45.314L34.218,45.314L34.217,54.919L9.912,68.953ZM38.913,45.305L38.913,36.54C38.913,36.332 39.004,36.07 39.141,35.834C39.276,35.597 39.458,35.388 39.638,35.283C42.196,33.807 44.67,32.38 47.228,30.901L47.232,30.895L47.24,30.895C49.798,29.418 52.271,27.989 54.83,26.512C55.01,26.408 55.283,26.356 55.555,26.357C55.827,26.356 56.099,26.408 56.28,26.512C58.838,27.989 61.312,29.417 63.87,30.895L63.878,30.895L63.882,30.901C66.441,32.379 68.915,33.806 71.472,35.284C71.499,35.3 71.505,35.304 71.518,35.311C71.496,35.298 71.472,35.284 71.472,35.284C71.653,35.389 71.834,35.599 71.971,35.834C72.107,36.07 72.199,36.332 72.199,36.541L72.199,45.305L72.202,45.313L72.199,45.321C72.198,48.274 72.199,51.132 72.199,54.085C72.199,54.294 72.107,54.556 71.971,54.791C71.835,55.028 71.654,55.237 71.473,55.342C68.916,56.82 66.442,58.246 63.883,59.724L63.879,59.732L63.871,59.732C61.313,61.211 58.839,62.636 56.281,64.116C56.1,64.218 55.828,64.271 55.556,64.269C55.284,64.271 55.011,64.219 54.831,64.116C52.272,62.637 49.8,61.21 47.241,59.732L47.232,59.732L47.229,59.724C44.671,58.246 42.197,56.82 39.639,55.342C39.458,55.238 39.277,55.027 39.141,54.791C39.004,54.556 38.913,54.294 38.913,54.085L38.913,45.32L38.91,45.31Z" style="fill:rgb(51,61,77);fill-rule:nonzero;"/>
        <path d="M106.02,13.827C107.317,13.827 108.368,14.8782 108.368,16.175C108.368,17.4718 107.317,18.523 106.02,18.523C104.723,18.523 103.672,17.4718 103.672,16.175C103.672,14.8782 104.723,13.827 106.02,13.827Z" style="fill:rgb(51,61,77);"/>
        <path d="M85.616,60.32C86.9122,60.32 87.963,61.3708 87.963,62.667C87.963,63.9632 86.9122,65.014 85.616,65.014C84.3198,65.014 83.269,63.9632 83.269,62.667C83.269,61.3708 84.3198,60.32 85.616,60.32Z" style="fill:rgb(51,61,77);"/>
        <path d="M20.738,22.861C22.0348,22.861 23.086,23.9122 23.086,25.209C23.086,26.5058 22.0348,27.557 20.738,27.557C19.4412,27.557 18.39,26.5058 18.39,25.209C18.39,23.9122 19.4412,22.861 20.738,22.861Z" style="fill:rgb(51,61,77);"/>
        <path d="M55.554,0.997C56.8508,0.997 57.902,2.04824 57.902,3.345C57.902,4.64176 56.8508,5.693 55.554,5.693C54.2572,5.693 53.206,4.64176 53.206,3.345C53.206,2.04824 54.2572,0.997 55.554,0.997Z" style="fill:rgb(51,61,77);"/>
        <path d="M7.347,70.797C8.64321,70.797 9.694,71.8478 9.694,73.144C9.694,74.4402 8.64321,75.491 7.347,75.491C6.05079,75.491 5,74.4402 5,73.144C5,71.8478 6.05079,70.797 7.347,70.797Z" style="fill:rgb(51,61,77);"/>
        <path d="M55.554,83.085C56.8502,83.085 57.901,84.1358 57.901,85.432C57.901,86.7282 56.8502,87.779 55.554,87.779C54.2578,87.779 53.207,86.7282 53.207,85.432C53.207,84.1358 54.2578,83.085 55.554,83.085Z" style="fill:rgb(51,61,77);"/>
        <path d="M46.404,56.893L50.1,59.028L51.859,60.043L53.393,60.929L55.555,62.177C60.421,59.363 65.291,56.556 70.16,53.744C70.16,48.744 70.157,43.742 70.159,38.742L66.464,40.875L57.168,46.244L57.168,56.979L55.555,57.911L55.555,45.312C60.422,42.5 65.292,39.691 70.161,36.88L66.465,34.745C61.599,37.561 56.728,40.367 51.859,43.178C51.859,47.378 51.861,51.578 51.861,55.776L50.1,54.76L50.1,42.162C54.967,39.349 59.837,36.54 64.705,33.729L61.009,31.594C56.144,34.41 51.272,37.216 46.404,40.027C46.404,45.65 46.409,51.271 46.404,56.893ZM60.861,48.374C62.728,47.295 64.595,46.216 66.463,45.139L66.463,51.61L60.859,54.846C60.859,52.688 60.859,50.531 60.861,48.374Z" style="fill:rgb(51,61,77);fill-rule:nonzero;"/>
        <path d="M44.645,39.013L44.645,39.013C49.513,36.2 54.382,33.391 59.251,30.58L55.555,28.446C50.689,31.26 45.818,34.067 40.95,36.879C40.95,42.5 40.955,48.122 40.95,53.744L44.646,55.878C44.646,50.256 44.644,44.634 44.645,39.013ZM44.645,39.724Z" style="fill:rgb(51,61,77);fill-rule:nonzero;"/>
    </g>
</svg>
