<?xml version="1.0" encoding="UTF-8" standalone="no"?>
<svg
   xmlns:dc="http://purl.org/dc/elements/1.1/"
   xmlns:cc="http://creativecommons.org/ns#"
   xmlns:rdf="http://www.w3.org/1999/02/22-rdf-syntax-ns#"
   xmlns:svg="http://www.w3.org/2000/svg"
   xmlns="http://www.w3.org/2000/svg"
   xmlns:sodipodi="http://sodipodi.sourceforge.net/DTD/sodipodi-0.dtd"
   xmlns:inkscape="http://www.inkscape.org/namespaces/inkscape"
   version="1.1"
   id="Layer_1"
   x="0px"
   y="0px"
   width="25px"
   height="25px"
   viewBox="0 0 100 100"
   enable-background="new 0 0 100 100"
   xml:space="preserve"
   inkscape:version="0.91 r13725"
   sodipodi:docname="volume.svg"><metadata
     id="metadata4600"><rdf:RDF><cc:Work
         rdf:about=""><dc:format>image/svg+xml</dc:format><dc:type
           rdf:resource="http://purl.org/dc/dcmitype/StillImage" /></cc:Work></rdf:RDF></metadata><defs
     id="defs4598" /><sodipodi:namedview
     pagecolor="#ffffff"
     bordercolor="#666666"
     borderopacity="1"
     objecttolerance="10"
     gridtolerance="10"
     guidetolerance="10"
     inkscape:pageopacity="0"
     inkscape:pageshadow="2"
     inkscape:window-width="1232"
     inkscape:window-height="689"
     id="namedview4596"
     showgrid="false"
     inkscape:zoom="9.44"
     inkscape:cx="-1.5889831"
     inkscape:cy="12.5"
     inkscape:window-x="0"
     inkscape:window-y="0"
     inkscape:window-maximized="0"
     inkscape:current-layer="Layer_1" /><g
     fill="none"
     stroke="black"
     stroke-width="6"
     id="g4592"
     style="stroke:#0f8ee9;stroke-opacity:1"><path
       stroke-dasharray="7,7"
       d="M95.117,37.243c2.227-2.095,2.832-5.516,1.271-8.3c-1.836-3.279-6.002-4.453-9.283-2.614l-0.163,0.091  c-1.284-0.542-2.649-0.881-4.047-1.003c0.821-3.01,0.606-6.318-0.869-9.335c-3.226-6.601-11.224-9.345-17.824-6.12  c-2.026,0.991-3.738,2.455-5.015,4.255c-4.301-3.429-10.335-4.204-15.451-1.705c-6.98,3.412-10.005,11.715-6.971,18.777  c-2.304,1.488-3.838,3.863-4.32,6.483c-0.128,0.163-0.27,0.312-0.389,0.481c-4.301-3.43-10.336-4.205-15.452-1.705  C9.626,39.96,6.6,48.263,9.634,55.326c-3.019,1.948-4.727,5.417-4.463,8.971c-2.339,1.965-3.139,5.347-1.737,8.213  c0.386,0.791,0.909,1.466,1.521,2.024C3.606,79.46,5.152,84.941,9.347,88.379c5.684,4.656,14.099,3.817,18.753-1.864  c1.43-1.746,2.375-3.79,2.786-5.959c3.196,0.794,6.56,0.455,9.522-0.885c3.139,0.743,6.55,0.373,9.578-1.325  c1.968-1.102,3.594-2.659,4.767-4.53c4.486,3.184,10.556,3.616,15.522,0.835c3.018-1.695,5.192-4.313,6.38-7.302  c2.91,0.305,5.919-0.251,8.606-1.759c6.412-3.594,9.036-11.356,6.399-18.01c1.629-1.814,2.706-4.034,3.164-6.395  C95.184,39.921,95.293,38.579,95.117,37.243z"
       id="path4594"
       style="stroke:#0f8ee9;stroke-opacity:1" /></g></svg>