<svg xmlns="http://www.w3.org/2000/svg" viewBox="0 0 512 512" style="max-width:100%" height="100%"><path d="M42.667 273.067a8.533 8.533 0 0 0 8.533-8.533v-25.6c0-4.713-3.82-8.533-8.533-8.533s-8.533 3.82-8.533 8.533v25.6a8.533 8.533 0 0 0 8.533 8.533zM173.087 436.947l-23.163-10.9a8.533 8.533 0 0 0-11.355 4.088 8.533 8.533 0 0 0 4.088 11.355l23.163 10.9a8.535 8.535 0 0 0 7.267-15.443zM477.867 213.333a8.533 8.533 0 0 0-17.066 0v25.6c0 4.713 3.82 8.533 8.533 8.533s8.533-3.82 8.533-8.533v-25.6zM469.333 264.533a8.533 8.533 0 0 0-8.533 8.533v25.6c0 4.713 3.82 8.533 8.533 8.533s8.533-3.82 8.533-8.533v-25.6a8.533 8.533 0 0 0-8.533-8.533zM477.867 342.189v-17.922c0-4.713-3.82-8.533-8.533-8.533s-8.533 3.82-8.533 8.533v17.922a42.53 42.53 0 0 0-19.824 9.943 8.63 8.63 0 0 0-1.043-.832l-51.2-34.133a8.534 8.534 0 1 0-9.467 14.201l51.2 34.133c.105.07.215.127.322.192a42.495 42.495 0 0 0-4.122 18.308c0 3.796.502 7.474 1.433 10.977l-27.417 12.902a8.535 8.535 0 0 0 7.267 15.443l27.766-13.066c7.81 9.985 19.96 16.411 33.618 16.411C492.896 426.667 512 407.563 512 384c0-20.64-14.659-37.858-34.133-41.811zm-8.534 67.411c-14.137 0-25.6-11.463-25.6-25.6 0-14.137 11.463-25.6 25.6-25.6 14.137 0 25.6 11.463 25.6 25.6 0 14.137-11.462 25.6-25.6 25.6zM362.076 426.047l-23.163 10.9a8.535 8.535 0 0 0 7.267 15.443l23.163-10.9a8.535 8.535 0 0 0-7.267-15.443zM308.029 451.481l-11.244 5.292c-5.363-17.432-21.593-30.106-40.784-30.106s-35.421 12.673-40.784 30.106l-11.244-5.292a8.533 8.533 0 0 0-11.355 4.088 8.533 8.533 0 0 0 4.088 11.355l17.006 8.003C216.451 495.844 234.334 512 256 512c21.666 0 39.549-16.156 42.29-37.074l17.005-8.003a8.535 8.535 0 0 0 4.088-11.355 8.532 8.532 0 0 0-11.354-4.087zM256 494.933c-14.137 0-25.6-11.463-25.6-25.6 0-14.137 11.463-25.6 25.6-25.6 14.137 0 25.6 11.463 25.6 25.6 0 14.138-11.463 25.6-25.6 25.6zM337.264 62.768l23.672 9.747a8.534 8.534 0 0 0 6.499-15.782l-23.672-9.747a8.534 8.534 0 0 0-6.499 15.782zM151.064 72.516l23.672-9.747a8.534 8.534 0 0 0-6.498-15.782l-23.672 9.747a8.534 8.534 0 0 0 6.498 15.782zM206.298 49.772l7.237-2.98c2.076 21.627 20.294 38.541 42.464 38.541 22.171 0 40.388-16.914 42.464-38.541l7.237 2.98a8.534 8.534 0 0 0 6.498-15.782l-16.426-6.763C289.585 11.298 274.116 0 256 0s-33.585 11.298-39.774 27.228L199.8 33.991a8.534 8.534 0 0 0 6.498 15.781zM256 17.067c14.137 0 25.6 11.463 25.6 25.6 0 14.137-11.463 25.6-25.6 25.6-14.137 0-25.6-11.463-25.6-25.6 0-14.138 11.463-25.6 25.6-25.6zM349.71 203.239c-.032-.18-.059-.359-.103-.537-.038-.153-.091-.299-.137-.448a8.288 8.288 0 0 0-1.751-3.111c-.046-.052-.091-.104-.138-.154a8.443 8.443 0 0 0-.567-.55c-.112-.099-.229-.191-.345-.284-.16-.127-.316-.256-.488-.374a8.532 8.532 0 0 0-.995-.593c-.013-.006-.023-.015-.035-.021L259.818 154.5a8.534 8.534 0 0 0-7.632 0l-85.333 42.667c-.013.006-.023.015-.035.021a8.532 8.532 0 0 0-.995.593c-.173.118-.328.247-.489.374-.116.093-.233.184-.345.283-.2.176-.388.359-.567.55-.047.05-.092.102-.138.153a8.296 8.296 0 0 0-1.751 3.111c-.046.149-.099.295-.137.448-.044.177-.071.357-.103.537-.036.196-.073.391-.096.593-.019.177-.025.354-.034.533-.007.146-.027.287-.027.436v93.867a8.532 8.532 0 0 0 4.717 7.632l85.333 42.667c.038.019.077.03.115.048.219.106.445.195.672.283.12.046.24.1.36.141.215.072.436.124.656.178.136.034.271.077.408.104.194.038.392.055.588.079.161.02.322.05.482.06.177.011.356.002.535.002.179 0 .358.01.535-.002.16-.01.321-.041.482-.06.197-.024.395-.041.588-.079.136-.027.271-.07.408-.104.221-.054.441-.107.656-.178.121-.04.24-.094.36-.141.228-.087.453-.177.672-.283.038-.018.077-.029.115-.048l85.333-42.667a8.532 8.532 0 0 0 4.717-7.632V204.8c0-.148-.02-.29-.027-.436-.009-.178-.014-.355-.034-.533-.024-.201-.061-.396-.097-.592zM256 171.674l64.521 32.26-10.801 4.32L256 229.743l-64.521-25.808L256 171.674zm-76.8 45.73l68.267 27.307v82.815L179.2 293.393v-75.989zm153.6 75.989l-68.267 34.133v-82.815l68.267-27.307v75.989zM132.733 172.1l-51.2-34.133c-.105-.07-.215-.127-.322-.192a42.495 42.495 0 0 0 4.122-18.308 42.497 42.497 0 0 0-4.076-18.207l30.354-12.499a8.534 8.534 0 0 0-6.498-15.782L73.551 85.976a8.502 8.502 0 0 0-2.528 1.621C63.484 80.885 53.554 76.8 42.667 76.8 19.104 76.8 0 95.904 0 119.467c0 20.64 14.659 37.858 34.133 41.811v26.455c0 4.713 3.82 8.533 8.533 8.533s8.533-3.82 8.533-8.533v-26.455a42.53 42.53 0 0 0 19.824-9.943c.323.297.666.58 1.043.832l51.2 34.133a8.534 8.534 0 0 0 9.467-14.2zm-90.066-27.033c-14.137 0-25.6-11.463-25.6-25.6s11.463-25.6 25.6-25.6c14.137 0 25.6 11.463 25.6 25.6s-11.463 25.6-25.6 25.6zM388.733 186.3l51.2-34.133a8.514 8.514 0 0 0 1.043-.832 42.53 42.53 0 0 0 19.824 9.943v26.455c0 4.713 3.82 8.533 8.533 8.533s8.533-3.82 8.533-8.533v-26.455C497.341 157.324 512 140.107 512 119.467c0-23.563-19.104-42.667-42.667-42.667-10.887 0-20.817 4.085-28.356 10.797a8.502 8.502 0 0 0-2.528-1.621L406.887 72.98a8.534 8.534 0 0 0-6.498 15.782l30.354 12.499a42.483 42.483 0 0 0-4.076 18.207 42.498 42.498 0 0 0 4.122 18.308c-.107.065-.217.122-.322.192l-51.2 34.133a8.534 8.534 0 0 0 9.466 14.199zm80.6-92.433c14.137 0 25.6 11.463 25.6 25.6s-11.463 25.6-25.6 25.6c-14.137 0-25.6-11.463-25.6-25.6s11.463-25.6 25.6-25.6zM123.267 317.167l-51.2 34.133a8.514 8.514 0 0 0-1.043.832 42.53 42.53 0 0 0-19.824-9.943v-43.522c0-4.713-3.82-8.533-8.533-8.533s-8.533 3.82-8.533 8.533v43.522C14.659 346.142 0 363.36 0 384c0 23.563 19.104 42.667 42.667 42.667 13.658 0 25.809-6.426 33.618-16.411l27.766 13.066a8.533 8.533 0 0 0 11.355-4.088 8.533 8.533 0 0 0-4.088-11.355l-27.417-12.902A42.721 42.721 0 0 0 85.334 384a42.498 42.498 0 0 0-4.122-18.308c.107-.065.217-.122.322-.192l51.2-34.133a8.534 8.534 0 0 0-9.467-14.2zm-80.6 92.433c-14.137 0-25.6-11.463-25.6-25.6 0-14.137 11.463-25.6 25.6-25.6 14.137 0 25.6 11.463 25.6 25.6 0 14.137-11.463 25.6-25.6 25.6z" style="" fill="currentColor"></path></svg>
