<?xml version="1.0" encoding="UTF-8" standalone="no"?>
<!DOCTYPE svg PUBLIC "-//W3C//DTD SVG 1.1//EN" "http://www.w3.org/Graphics/SVG/1.1/DTD/svg11.dtd">
<svg width="100%" height="100%" viewBox="0 0 3900 1200" version="1.1" xmlns="http://www.w3.org/2000/svg" xmlns:xlink="http://www.w3.org/1999/xlink" xml:space="preserve" xmlns:serif="http://www.serif.com/" style="fill-rule:evenodd;clip-rule:evenodd;stroke-linecap:round;stroke-linejoin:round;stroke-miterlimit:1.5;">
    <g id="Layer1" transform="matrix(0.807602,0,0,0.807602,1353.38,-2.03366)">
        <g opacity="0.15">
            <g transform="matrix(0.444671,0.810615,-0.810615,0.444671,-839.545,-436.071)">
                <path d="M418.148,211.852C417.849,210.964 422.261,279.862 422.32,283.643C422.47,293.154 426.649,318.101 418.802,325.516C414.148,329.912 405.879,326.164 402.151,332.268C390.137,351.935 450.779,417.831 462.128,438.212C475.611,462.425 453.751,469.952 455.302,493.547C455.916,502.891 471.893,508.551 467.841,518.958C462.245,533.326 443.33,534.346 444.309,552.308C445.036,565.656 475.927,584.465 481.498,602.489C487.266,621.151 491.278,649.55 488.282,668.818C486.45,680.598 476.882,700.881 484.264,713.762" style="fill:none;stroke:rgb(0,84,174);stroke-width:2.14px;"/>
            </g>
            <g transform="matrix(0.444671,0.810615,-0.810615,0.444671,-839.545,-436.071)">
                <path d="M439.678,172.583C439.747,172.529 438.136,300.836 437.714,307.558C436.8,322.086 433.199,351.308 442.708,364.439C453.808,379.767 455.005,403.242 468.172,416.14C478.787,426.539 508.631,425.072 512.562,442.934C516.452,460.606 498.644,470.344 497.278,486.142C496.594,494.049 501.575,501.639 500.757,509.398C499.165,524.486 492.043,538.638 491.244,553.844C490.152,574.611 499.023,595.286 502.319,615.562C504.223,627.273 502.961,639.516 505.497,651.04" style="fill:none;stroke:rgb(0,84,174);stroke-width:2.14px;"/>
            </g>
            <g transform="matrix(0.444671,0.810615,-0.810615,0.444671,-839.545,-436.071)">
                <path d="M505.497,651.04C513.251,662.868 528.522,673.643 529.578,690.536C529.941,696.342 522.996,722.423 524.541,724.998C531.599,736.762 572.894,788.808 580.641,796.554C591.194,807.108 604.631,810.959 613.156,824.032C614.093,825.469 632.96,915.96 638,929.82C647.487,955.908 678.306,961.97 684.483,979.852C694.403,1008.57 672.262,1037.71 676.24,1067.32C679.391,1090.78 696.584,1106.38 702.344,1128.46C713.941,1172.92 714.784,1214.95 719.028,1260.42" style="fill:none;stroke:rgb(0,84,174);stroke-width:2.14px;"/>
            </g>
            <g transform="matrix(0.444671,0.810615,-0.810615,0.444671,-839.545,-436.071)">
                <path d="M484.264,713.762C485.234,714.308 490.234,728.427 492.712,731.066C509.964,749.43 533.157,763.441 549.271,783.273C558.721,794.904 560.103,811.346 569.879,823.001C584.454,840.379 599.754,856.397 605.371,879.33C611.672,905.06 603.11,932.069 608.462,957.183C614.253,984.358 641.202,1007.86 651.854,1034.01C661.978,1058.86 656.89,1096.77 664.676,1125.48C673.493,1158 696.141,1185.15 702.458,1218.68C708.867,1252.7 714.691,1290.6 716.311,1325.15C718.546,1372.83 707.733,1409.58 729.821,1454.99" style="fill:none;stroke:rgb(0,84,174);stroke-width:2.14px;"/>
            </g>
            <g transform="matrix(0.444671,0.810615,-0.810615,0.444671,-839.545,-436.071)">
                <path d="M719.028,1260.42C727.088,1281.99 724.333,1305.95 729.02,1328.13C737.504,1368.29 773.627,1414.49 758.329,1456.02" style="fill:none;stroke:rgb(0,84,174);stroke-width:2.14px;"/>
            </g>
            <g transform="matrix(0.444671,0.810615,-0.810615,0.444671,-839.545,-436.071)">
                <path d="M1898.74,1018.26C1862.3,1007.94 1818.67,987.233 1780.78,985.974C1752.57,985.037 1625.98,1016.67 1605.94,1007.84C1596.82,1003.82 1612.01,951.714 1580.6,961.929C1566.91,966.381 1603.27,1005.6 1596.69,1009.13C1561.54,1027.98 1508.5,1000.62 1472.22,1013.68C1412.79,1035.08 1412.82,1117.88 1337.67,1116.68C1337.05,1116.67 1336.43,1116.58 1335.81,1116.47C1303.14,1110.78 1327.87,1086.76 1309.76,1075C1304.78,1071.76 1296.75,1070.28 1295.12,1077.39C1286.01,1117.07 1247.42,1064.29 1210.43,1060.03C1185.85,1057.2 1038.35,1071.26 1031.81,1062.6C1014.2,1039.27 1097.88,1020.03 1081.43,996.218C1080.42,994.753 1078.78,991.059 1076.86,990.66C1025.54,980.004 1018.31,1111.18 970.247,1111.39C965.314,1111.41 983.869,1076.95 972.025,1074.49C959.282,1071.84 971.176,1122.76 953.861,1116.56C944.168,1113.09 901.303,1048.94 887.498,1061.48C885.45,1063.34 888.479,1066.24 889.701,1067.29C899.122,1075.38 947.252,1099.51 932.109,1121.18C926.822,1128.74 901.077,1118.29 894.011,1118.73C862.076,1120.75 874.177,1080.98 854.706,1087.7C852.473,1088.47 867.979,1117.02 859.721,1125.31C845.458,1139.62 763.064,1166.49 740.768,1169.85C732.888,1171.03 734.543,1101.59 704.977,1096C697.868,1094.66 692.098,1099.91 695.089,1107.43C697.941,1114.6 705.473,1137.38 709.292,1140.4C715.407,1145.23 727.227,1152.16 725.285,1164.01C724.644,1167.92 717.316,1167.13 710.506,1170.62" style="fill:none;stroke:rgb(0,84,174);stroke-width:2.14px;"/>
            </g>
            <g transform="matrix(0.444671,0.810615,-0.810615,0.444671,-839.545,-436.071)">
                <path d="M688.241,1179.24C666.428,1190.44 655.169,1203.58 633.021,1213.69C574.796,1240.25 545.007,1254.45 397.634,1293.53" style="fill:none;stroke:rgb(0,84,174);stroke-width:2.14px;"/>
            </g>
            <g transform="matrix(0.444671,0.810615,-0.810615,0.444671,-839.545,-436.071)">
                <path d="M1868.37,1042.82C1858.88,1043.85 1837.79,1033.16 1827.36,1031.79C1781.49,1025.76 1712.34,1021.59 1667.66,1038.24C1660.44,1040.94 1691.33,1087.13 1651.75,1087.75C1617.1,1088.29 1642.48,1047.45 1633.29,1045.77C1610.04,1041.53 1495.83,1059.96 1462.15,1065.46C1414.61,1073.22 1422.82,1146.67 1312.56,1148.24C1287.62,1148.6 1225.92,1099.29 1222.69,1099.35C1215.99,1099.47 1219.9,1147.44 1176.82,1121.35C1158.5,1110.25 1216.28,1099.16 1200.25,1088.46C1188.93,1080.91 1052.23,1097.41 1030.76,1102.39C1014.05,1106.26 980.113,1137.27 978.537,1155.73C977.011,1173.6 999.402,1204.3 967.632,1209.45C949.038,1212.47 976.711,1172.38 966.019,1163.07C960.811,1158.54 875.623,1155.54 862.474,1158.33C831.492,1164.91 869.726,1222.7 831.582,1222.38C806.075,1222.18 848.546,1175.05 831.293,1171.73C812.544,1168.12 787.962,1201.29 764.753,1200.17C740.994,1199.03 737.094,1200.24 714.378,1205.47" style="fill:none;stroke:rgb(0,84,174);stroke-width:2.14px;"/>
            </g>
            <g transform="matrix(0.444671,0.810615,-0.810615,0.444671,-839.545,-436.071)">
                <path d="M698.303,1208.83C648.378,1220.33 606.355,1248.79 556.246,1265.67C523.249,1276.78 472.671,1286.65 439.321,1295.63C380.283,1311.52 327.826,1325.41 272.857,1351.5" style="fill:none;stroke:rgb(0,84,174);stroke-width:2.14px;"/>
            </g>
        </g>
    </g>
    <g id="Layer9">
        <g transform="matrix(0.807602,0,0,0.807602,1997.63,189.181)">
            <path d="M1944.49,-246.322C1944.47,-246.345 1941.27,-201.699 1904.27,-170.785C1897.95,-165.505 1887.11,-190.21 1876.88,-182.4C1853.49,-164.543 1896.38,-163.13 1892.03,-149.902C1890.4,-144.963 1886.61,-140.943 1883.82,-136.429C1880.45,-131.003 1830.15,-156.8 1822.55,-130.271C1816.49,-109.105 1828.3,-98.804 1848.41,-122.363C1856.26,-131.56 1870.15,-114.698 1864.56,-106.631C1838.05,-68.417 1809.63,-33.043 1783.78,-19.069C1764.67,-8.736 1749.55,-45.667 1738.82,-29.563C1718.96,0.243 1763.57,-6.103 1751.19,5.787C1743.86,12.833 1734.11,19.373 1723.86,29.371C1710.71,42.187 1655.6,102.858 1635.79,97.454C1634.45,97.09 1635.5,90.373 1635.62,89.579C1637.3,78.133 1641.41,23.174 1620.12,27.338C1602.09,30.867 1623.79,78.37 1627.75,87.97C1636.53,109.297 1624.65,126.258 1614.03,144.283C1611.13,149.201 1597.16,169.966 1590.4,168.925C1585.56,168.18 1564.48,135.39 1554.5,154.36C1549.52,163.816 1583.75,164.124 1579.48,179.257C1577.62,185.854 1548.78,212.149 1545.52,210.927C1544.61,210.585 1545.32,208.451 1545.43,207.963C1547.2,200.496 1549.97,181.187 1535.19,189.334C1521.98,196.614 1542.13,204.613 1539.51,211.605C1534.58,224.739 1499.47,241.215 1486.24,239.211C1482.02,238.571 1496.91,189.999 1456.43,206.693C1428.99,218.016 1465.54,238.135 1464.56,240.735C1462.26,246.88 1449.95,246.684 1444.83,247.34C1438.06,248.209 1434.58,240.75 1428.15,242.767C1415.64,246.692 1399.3,267.045 1384.37,261.821C1371.8,257.421 1322.86,223.22 1315.61,214.23C1309.07,206.118 1305.81,194.135 1301.05,184.93C1297.54,178.163 1283.69,152.014 1272.85,155.63C1271.19,156.183 1280.99,164.541 1281.65,165.538C1287.27,173.96 1291.1,183.762 1295.79,192.721C1299.57,199.93 1300.74,209.252 1305.62,215.754C1321.04,236.312 1351.63,240.069 1371.58,254.538C1379.9,260.571 1394.42,275.437 1384.88,286.886C1381.77,290.612 1376.71,293.314 1372.77,296.032C1366.13,300.613 1360.12,304.63 1352.28,306.702C1351.08,307.017 1342.08,309.252 1342.62,306.786C1346.09,291.196 1368.6,304.584 1371.58,289.681C1374.62,274.512 1355.09,268.574 1343.47,270.289C1323.01,273.307 1335.33,297.784 1326.62,307.464C1319.94,314.884 1296.94,331.648 1288.17,333.292C1284.54,333.973 1286.18,323.653 1278.43,329.227C1271.6,334.148 1269.1,342.53 1268.78,350.482C1268.75,351.27 1268.69,351.551 1267.93,351.752C1242.79,358.456 1234.34,307.525 1216.79,321.352C1212.43,324.787 1208.68,330.131 1208.15,335.747C1206.7,351.249 1244.08,333.697 1242.53,357.002C1242.52,357.235 1242.46,357.472 1242.36,357.68C1240.62,361.151 1235.62,360.895 1232.45,361.152C1216.55,362.442 1226.46,345.998 1211.2,342.183C1209.79,341.832 1208.39,341.743 1207.13,342.607C1203.15,345.346 1196.49,368.072 1199.09,371.906C1200.78,374.403 1214.67,376.064 1212.13,382.237C1210.03,387.329 1197.76,389.705 1193.33,393.161C1171.86,409.907 1149.9,430.177 1124.15,439.99C1118.22,442.247 1125.58,423.912 1120.25,417.888C1115.64,412.678 1108.91,409.236 1104.25,403.747C1083.92,379.831 1071.48,368.942 1043.61,395.448C1036.99,401.751 1027.76,431.725 1037.69,435.417C1072.3,448.296 1062.77,400.032 1079.6,397.226C1091.58,395.23 1106.91,435.971 1099.25,443.631C1090.09,452.795 1088.62,424.578 1087.82,424.578C1076.14,424.578 1091.75,443.102 1089.6,448.119C1086.85,454.52 1079.61,456.671 1074.95,461.668C1068.19,468.902 1061.57,477.078 1054.71,483.94C1054.62,484.03 1052.71,481.678 1052.59,481.569C1048,477.262 1041.84,476.337 1035.91,475.048C1029.6,473.678 1021.15,474.106 1015.42,471.237C1006.86,466.959 993.203,444.476 980.78,453.793C977.977,455.896 980.89,460.542 978.663,462.769C976.634,464.798 953.598,445.274 953.598,468.358C953.598,479.311 967.265,464.859 972.905,465.564C978.722,466.291 978.481,476.971 982.474,479.367C983.809,480.168 998.476,473.904 1005.42,475.641C1019.72,479.216 1029.69,496.66 1045.97,490.916C1046.45,490.748 1056.74,490.907 1056.74,490.037" style="fill:none;stroke:rgb(109,137,191);stroke-width:1.61px;"/>
        </g>
        <g transform="matrix(0.807602,0,0,0.807602,1997.63,189.181)">
            <path d="M1046.75,507.682C1049.62,505.751 1042.6,511.287 1040.76,513.337C1035.98,518.646 1029.98,522.898 1023.9,526.577C1018.41,529.898 1015.62,520.251 1009.29,524.12C1005.15,526.653 1006.69,533.082 1004.04,536.609C1000.4,541.459 992.612,543.397 988.479,548.484C987.167,550.099 985.337,554.012 982.815,554.012C977.842,554.012 976.594,545.95 976.877,542.478C978.149,526.896 987.055,514.509 979.607,498.936C975.667,490.699 966.888,485.28 958.928,492.658C954.752,496.528 952.048,502.303 955.584,507.536C959.493,513.322 968.432,509.245 973.601,515.794C976.394,519.331 968.333,530.403 968.687,535.244C969.086,540.694 977.495,553.645 974.557,558.721C970.97,564.915 959.134,566.251 953.468,570.391C949.088,573.592 937.326,585.952 932.175,585.952C928.683,585.952 926.113,572.25 918.389,578.172C911.4,583.53 931.417,585.157 926.784,592.572C919.119,604.835 904.698,612.217 894.98,623.078C879.232,640.68 869.46,669.068 848.367,681.498C842.884,684.729 836.226,685.419 830.555,688.254C824.597,691.234 821.883,699.205 821,705.384C820.908,706.029 820.868,707.841 819.908,707.841C786.701,707.841 774.62,662.647 750.501,663.412C741.476,663.699 733.609,673.242 743.744,678.563C755.678,684.828 804.657,702.209 807.829,715.69C809.376,722.264 795.418,727.745 791.518,730.977C774.925,744.726 763.058,767.431 744.017,777.317C720.373,789.594 707.376,748.254 695.698,732.683C691.222,726.715 678.438,715.965 672.836,726.609C658.162,754.49 685.365,778.731 708.665,785.234C713.415,786.559 735.144,786.728 736.442,793.219C738.548,803.751 721.309,814.108 715.9,821.746" style="fill:none;stroke:rgb(109,137,191);stroke-width:1.61px;"/>
        </g>
        <g transform="matrix(0.807602,0,0,0.807602,1997.63,189.181)">
            <path d="M2012.51,-239.686C2001.68,-225.746 1942.14,-165.898 1904.35,-89.382C1897.95,-76.43 1947.49,-50.942 1917.37,-46.08C1909.32,-44.78 1894.35,-83.153 1886.4,-65.696C1864.02,-16.539 1827.17,5.186 1806.77,31.254C1786.13,57.622 1826.84,71.905 1828.45,87.824C1830.08,103.993 1802.79,102.341 1799.98,87.824C1798.94,82.458 1795.62,42.022 1786.84,47.729C1774.16,55.967 1764.83,69.245 1754.41,84.147C1741.36,102.835 1725.95,104.862 1715.4,113.159C1707.98,119.003 1702.76,126.981 1695.66,133.093C1687.21,140.365 1665.18,126.953 1658.72,142.824C1658.07,144.419 1659.59,145.221 1660.7,145.847C1674.65,153.692 1729.47,119.719 1716.91,154.255C1706.95,181.645 1671.78,151.427 1655.79,162.569C1628.61,181.51 1592.07,219.984 1579.45,250.619C1578.94,251.862 1579.28,252.526 1580.21,253.453C1593.92,267.16 1602.65,280.278 1592.21,299.368C1590.37,302.735 1587.81,307.035 1583.71,307.871C1554.7,313.778 1584.97,259.523 1571.52,253.359C1567.18,251.373 1522.73,281.85 1511.9,285.669C1486.9,294.495 1454.17,279.666 1431.51,296.345C1416.15,307.645 1411.11,345.456 1420.74,361.815C1425.28,369.533 1438.46,372.971 1444.83,379.671C1452.86,388.117 1456.25,406.424 1443.22,412.265C1402.5,430.518 1405.49,333.441 1384.08,336.685C1374.36,338.158 1364.95,352.627 1357.82,358.509C1355.89,360.094 1341.8,365.589 1341.66,366.917C1339.95,384.037 1364.32,396.755 1344.59,413.02C1338.66,417.912 1329.81,419.745 1322.48,417.461C1294.92,408.866 1337.49,365.222 1312.47,372.302C1304.61,374.527 1266.03,394.413 1260.98,401.4C1257.62,406.059 1263.84,413.723 1259.94,418.783C1250.36,431.244 1217.57,450.224 1203.54,464.887C1192.92,475.985 1197.83,499.976 1181.15,504.944C1169.15,508.518 1163.05,484.632 1169.72,477.074C1181.78,463.404 1202.45,461.358 1212.8,446.748C1213.75,445.409 1215.55,442.976 1213.37,441.835C1189.33,429.292 1176.04,453.032 1158.38,462.808C1149.88,467.514 1137.55,469.931 1130.04,475.562C1129.62,475.874 1144.34,483.325 1145.63,484.254C1154.06,490.347 1157.06,497.944 1148.27,505.227C1143.14,509.479 1138.46,509.036 1132.4,510.046C1114.15,513.087 1117.04,500.982 1113.32,488.883C1111.76,483.833 1105.62,487.353 1105,491.056C1104.14,496.248 1101.57,501.453 1099.9,506.455C1098.99,509.203 1093.99,515.59 1093.26,517.791" style="fill:none;stroke:rgb(109,137,191);stroke-width:1.61px;"/>
        </g>
        <g transform="matrix(0.807602,0,0,0.807602,1997.63,189.181)">
            <path d="M1081.77,536.415C1069.03,544.401 1046.92,565.923 1039.72,570.981C1025.99,580.64 1012.92,592.693 995.981,597.151C988.143,599.214 977.713,595.773 970.757,600.079C956.332,609.009 928.962,649.205 912.809,664.205" style="fill:none;stroke:rgb(109,137,191);stroke-width:1.61px;"/>
        </g>
        <g transform="matrix(0.807602,0,0,0.807602,1997.63,189.181)">
            <path d="M551.062,995.354C547.997,997.39 551.333,992.067 551.958,990.661C556.343,980.795 561.14,971.465 568.869,963.736C576.143,956.462 637.001,917.046 644.259,918.861C647.672,919.714 659.306,931.413 661.359,930.387C665.065,928.534 653.243,911.748 652.857,908.657C651.858,900.667 661.45,890.083 667.311,885.795C682.217,874.888 701.311,863.68 719.744,860.192C727.466,858.731 730.563,871.354 738.545,864.632C743.714,860.279 736.996,850.417 741.568,844.32C755.003,826.407 770.803,810.236 783.515,791.698C792.911,777.996 799.392,760.005 811.479,748.335C839.053,721.711 823.976,771.722 829.146,774.976C831.916,776.721 835.349,775.071 837.554,773.181C859.2,754.628 838.237,750.242 838.782,731.707C838.996,724.418 892.806,699.755 901.418,694.39C914.493,686.245 912.052,682.724 911.433,670.96C911.315,668.715 915.003,664.347 912.755,664.347" style="fill:none;stroke:rgb(109,137,191);stroke-width:1.61px;"/>
        </g>
        <g transform="matrix(0.807602,0,0,0.807602,1997.63,189.181)">
            <path d="M718.032,820.843C716.375,820.407 715.466,822.175 714.832,823.725C712.467,829.505 654.895,867.771 644.07,873.419C632.634,879.386 581.539,873.107 578.789,886.173C576.053,899.167 632.147,873.721 630.088,888.818C629.633,892.158 624.194,895.403 621.68,897.037C616.559,900.366 605.891,908.844 599.101,907.335C594.864,906.393 590.679,897.55 585.78,900.816C581.818,903.457 588.324,913.73 585.874,918.105C581.427,926.047 561.031,931.008 552.619,932.843C543.881,934.749 520.532,918.872 514.924,928.686C509.856,937.556 554.636,926.938 548.746,945.786C545.477,956.246 509.968,969.725 502.926,963.925C498.732,960.471 505.4,947.498 501.887,942.479C498.1,937.07 489.491,941.274 486.487,945.125C477.797,956.266 499.622,972.486 499.336,985.087C498.827,1007.49 475.797,1036.54 466.742,1056.32" style="fill:none;stroke:rgb(109,137,191);stroke-width:1.61px;"/>
        </g>
        <g transform="matrix(0.807602,0,0,0.807602,1997.63,189.181)">
            <path d="M467.395,1056.31C468.546,1053.53 452.297,1075.98 449.046,1079.91C436.509,1095.07 420.48,1125.52 399.07,1129.08C392.961,1130.1 396.067,1116.43 393.161,1112.56C387.855,1105.48 378.669,1109.15 379.34,1117.87C379.96,1125.93 396.934,1131.77 392.56,1141C387.913,1150.81 378.224,1159.33 371.728,1167.94C340.912,1208.79 338.222,1206.37 293.008,1227.33C282.8,1232.07 265.898,1248.51 254.349,1248.07C240.819,1247.55 256.725,1217.29 247.338,1216.22C243.054,1215.73 239.353,1218.72 236.221,1221.22C219.149,1234.88 253.25,1252.01 238.124,1266.19C223.572,1279.84 217.758,1248.69 202.57,1255.38C198.967,1256.96 196.537,1260.82 196.26,1264.69C194.787,1285.32 224.454,1269.04 223.001,1285.02C220.88,1308.36 190.065,1314.89 182.139,1335.2C178.557,1344.38 175.209,1355.09 175.028,1365.04C174.784,1378.44 186.202,1399.71 175.228,1412.12C162.812,1426.15 129.11,1405.71 132.062,1445.87C134.355,1477.05 159.137,1414.66 167.116,1435.75C169.426,1441.86 168.225,1450.76 165.313,1456.58C158.024,1471.16 84.679,1526.53 77.178,1522.08C65.252,1515.02 80.953,1505.27 79.782,1498.25C78.491,1490.5 65.318,1494.54 63.558,1500.35C60.853,1509.28 82.214,1517.13 73.673,1527.09C59.558,1543.56 35.038,1529.57 18.088,1535.5C-0.621,1542.05 -10.102,1563.72 -18.368,1579.97" style="fill:none;stroke:rgb(109,137,191);stroke-width:1.61px;"/>
        </g>
        <g transform="matrix(0.807602,0,0,0.807602,1997.63,189.181)">
            <path d="M552.717,985.767C544.364,1001.37 576.797,1010.69 557.612,1027.03C535.273,1046.06 533.518,995.896 516.249,1007C503.746,1015.03 470.758,1071.63 469.678,1087.82C469.634,1088.47 476.35,1088.65 476.989,1088.82C481.227,1089.99 486.138,1093.47 487.806,1097.63C490.527,1104.44 481.572,1116.08 474.585,1116.56C469.099,1116.94 473.296,1093.72 463.669,1102.54C450.515,1114.6 444.437,1132.69 431.319,1145.81C425.879,1151.25 415.893,1152.52 412.19,1159.23C403.676,1174.66 412.861,1191.92 394.163,1204C377.913,1214.49 395.974,1176.13 393.261,1174.25C388.898,1171.23 366.599,1196.92 364.417,1200.19C362.547,1203 363.297,1207.73 363.516,1210.91C364.82,1229.82 389.501,1203.8 391.759,1222.43C392.132,1225.51 392.912,1230.2 390.958,1232.94C371.006,1260.87 356.566,1222.75 348.893,1225.43C334.947,1230.31 347.551,1257.98 336.875,1266.19C315.02,1283 281.006,1277.06 258.956,1295.44C231.173,1318.59 275.477,1337.69 249.742,1354.13C238.588,1361.25 236.344,1317.8 220.898,1337.4C216.967,1342.39 212.438,1378.76 218.594,1379.57C227.54,1380.73 224.631,1349.26 236.121,1366.25C237.485,1368.26 238.846,1370.58 239.727,1372.86C240.119,1373.87 240.53,1374.89 240.728,1375.96C245.07,1399.41 213.885,1392.91 211.383,1397.49C199.09,1420.03 203.702,1453.46 190.051,1476.21C181.977,1489.67 166.383,1492.1 159.304,1506.06C154.69,1515.15 152.889,1526.54 160.506,1534.7C167.026,1541.69 176.623,1533.03 174.828,1532C173.077,1531 175.527,1544.8 175.629,1546.12C175.967,1550.52 175.612,1555.15 172.123,1558.34C168.137,1561.98 163.336,1562.65 158.302,1563.75C134.007,1569.03 159.305,1523.07 140.275,1525.79C116.666,1529.16 108.72,1551.47 89.597,1561.24C81.915,1565.17 71.346,1560.78 62.957,1562.25C26.539,1568.6 -11.683,1585 -37.297,1611.32" style="fill:none;stroke:rgb(109,137,191);stroke-width:1.61px;"/>
        </g>
    </g>
    <g id="Layer10" opacity="0.15">
        <g transform="matrix(0.133538,0.696934,-0.696934,0.133538,1478.57,-130.809)">
            <path d="M52.269,633.767C181.725,644.39 253.753,613.096 256.116,609.163C265.525,593.503 234.764,513.8 265.626,517.152C268.143,517.425 269.919,520.405 270.181,522.687C272.263,540.8 257.021,610.525 276.952,622.637C283.365,626.534 301.816,620.128 309.856,620.961C339.605,624.043 370.178,629.775 399.351,618.999C420.813,611.071 481.355,574.16 495.397,587.867" style="fill:none;stroke:rgb(0,9,85);stroke-width:2.25px;"/>
        </g>
        <g transform="matrix(0.133538,0.696934,-0.696934,0.133538,1478.57,-130.809)">
            <path d="M495.397,587.867C505.976,592.942 521.594,591.379 533.378,594.329C552.285,599.062 569.595,608.298 587.008,616.836C588.093,617.368 591.441,619.924 592.866,619.442C603.716,615.776 591.838,576.066 607.844,583.306C630.483,593.548 599.113,614.672 599.123,626.071C599.123,626.773 600.209,627.371 600.654,627.678C613.171,636.335 647.705,655.732 663.295,654.345C684.637,652.448 642.89,576.687 703.12,601.901C732.882,614.36 659.254,634.906 681.195,657.944C683.497,660.361 687.464,662.212 690.353,663.779C707.781,673.232 696.489,647.683 707.682,647.344C717.17,647.057 713.171,663.696 717.287,667.633C722.064,672.204 747.929,678.305 754.143,676.412C763.378,673.599 756.879,654.301 769.674,655.403C784.984,656.721 758.064,680.709 781.437,685.001C790.121,686.596 837.287,585.579 866.06,598.004C873.458,601.199 878.88,615.042 870.233,620.092C841.309,636.984 838.969,625.708 816.98,650.689C809.297,659.418 804.143,667.519 799.998,678.763C787.28,713.266 822.076,738.605 852.541,738.038C869.298,737.726 924.113,727.716 913.533,700.848C910.152,692.26 874.785,646.786 887.525,638.277C934.177,607.119 910.497,704.405 928.227,718.653C940.576,728.577 973.116,704.928 985.412,703.161C995.82,701.665 1016.55,708.503 1025.48,702.019C1033.88,695.916 1016.67,677.693 1013.93,672.051C1007.69,659.223 1008.07,647.541 1003.88,634.499C998.704,618.359 973.038,574.447 1002.72,565.287C1012.45,562.285 1031.48,569.644 1030.84,581.446C1030.07,595.457 1018.31,605.242 1016.4,618.992C1014.41,633.31 1026.62,693.024 1041.96,700.159C1047.75,702.847 1057.27,699.566 1063.51,699.718C1093.85,700.458 1100.06,710.213 1118.78,682.645C1123.19,676.152 1131.01,669.868 1133.6,662.455C1139.18,646.491 1084.76,660.601 1102.1,633.348C1122.73,600.913 1152.29,643.916 1153.3,664.627C1154.3,685.286 1125.98,693.198 1116.85,709.209" style="fill:none;stroke:rgb(0,9,85);stroke-width:2.25px;"/>
        </g>
        <g transform="matrix(0.133538,0.696934,-0.696934,0.133538,1478.57,-130.809)">
            <path d="M54.325,663.169C58.259,667.107 131.807,677.685 180.255,665.758C214.287,657.379 253.845,649.952 288.946,654.244C327.916,659.008 301.882,696.57 326.796,699.15C341.382,700.661 304.486,666.718 330.063,658.123C343.952,653.456 376.572,651.271 390.106,657.216C393.402,658.664 418.229,676.849 419.864,673.987C424.367,666.105 407.201,657.391 406.66,652.592C404.352,632.155 450.754,631.114 462.692,629.512C468.537,628.727 474.176,626.221 480.064,625.69C493.309,624.495 497.649,625.76 503.91,626.613" style="fill:none;stroke:rgb(0,9,85);stroke-width:2.25px;"/>
        </g>
        <g transform="matrix(0.133538,0.696934,-0.696934,0.133538,1478.57,-130.809)">
            <path d="M504.899,626.919C500.128,625.608 514.092,628.846 515.439,629.251C525.095,632.159 535.099,636.044 543.683,641.361C550.446,645.55 560.933,650.693 566.456,656.375C574.099,664.237 559.52,684.539 594.261,685.579C600.07,685.753 620.959,672.679 610.469,667.681C602.856,664.054 592.41,675.363 583.119,673.336C578.314,672.288 583.094,663.708 585.408,662.31C598.393,654.467 655.067,690.839 666.173,694.338C671.198,695.92 690.99,697.652 692.355,704.206C693.865,711.451 687.245,713.71 684.955,719.208C682.685,724.658 693.136,736.235 698.436,732.195C703.383,728.423 692.833,701.692 708.461,710.339C719.856,716.643 698.828,758.469 721.962,752.59C728.788,750.856 708.118,716.462 726.612,721.239C747.337,726.592 763.722,744.441 782.864,753.768C794.467,759.422 809.21,758.891 820.056,765.689C823.251,767.691 825.775,773.014 827.787,776.165C829.599,779.002 831.023,782.116 832.736,785.022C833.617,786.516 833.184,785.894 834.373,788.008C846.59,809.742 817.096,793.016 813.313,799.854C809.914,805.997 829.572,812.604 833.182,812.161C856.898,809.252 830.15,784.868 840.441,780.629C850.04,776.675 863.876,784.929 874.605,781.843C891.821,776.892 906.918,761.56 925.19,755.803C942.752,750.269 960.663,750.377 978.795,750.716C1024.53,751.572 1020.8,759.692 1062.7,777.147" style="fill:none;stroke:rgb(0,9,85);stroke-width:2.25px;"/>
        </g>
        <g transform="matrix(0.133538,0.696934,-0.696934,0.133538,1478.57,-130.809)">
            <path d="M1174.81,792.292C1174.5,792.92 1204.6,790.403 1208.15,790.09C1232.53,787.943 1255.61,775.16 1280.5,780.372C1298.79,784.202 1279.3,812.563 1296.81,815.614C1314.95,818.777 1290.8,791.635 1304.5,786.912C1322.67,780.65 1364.47,772.771 1380.65,786.608C1389.89,794.516 1385.04,806.77 1395.69,813.262C1405.9,819.48 1418.07,808.321 1425.89,818.468C1437.63,833.683 1395.68,847.918 1409.46,860.691C1433.04,882.56 1430.25,833.924 1442.15,831.692C1457.36,828.841 1490.69,862.012 1495.99,849.278C1504.81,828.11 1441.12,822.749 1435.7,793.529C1432.9,778.427 1487.07,763.232 1493.27,770.628C1499.14,777.629 1468.71,820.695 1493.6,820.177C1504,819.96 1486.29,781.386 1508.56,767.665C1523.75,758.308 1592.15,753.844 1604.06,765.976C1614.07,776.175 1630.36,824.747 1651.51,816.034C1676.38,805.79 1613.31,768.403 1608.58,760.372C1608.05,759.469 1606.28,757.048 1607.22,755.89C1620.62,739.343 1659.25,762.771 1672.35,767.93C1696.08,777.27 1716.68,759.036 1741.6,768.436C1763.15,776.566 1775.59,799.69 1800.5,799.304C1836.97,798.74 1763.08,779.416 1766.59,772.048C1777.3,749.563 1823.9,765.833 1841.09,765.184" style="fill:none;stroke:rgb(0,9,85);stroke-width:2.25px;"/>
        </g>
        <g transform="matrix(0.133538,0.696934,-0.696934,0.133538,1478.57,-130.809)">
            <path d="M1116.85,709.209C1117.95,711.189 1125.42,716.817 1128.29,718.01C1134.99,720.802 1142.12,723.296 1149.46,723.602C1172.35,724.556 1192.49,712.983 1214.68,716.33C1240.53,720.227 1262.07,716.22 1287.61,716.296C1305.53,716.349 1322.95,722.885 1340.83,722.914C1356.25,722.939 1418.02,715.3 1428.4,706.52C1439.68,696.988 1398.74,691.344 1415.62,679.424C1437.88,663.696 1441.82,699.966 1455.39,704.512C1468.33,708.851 1516.57,697.133 1531.37,693.542C1540.22,691.393 1523.87,673.196 1527.12,667.239C1531.61,659.004 1569.05,632.312 1578.52,641.19C1591.4,653.279 1540.87,679.769 1548.41,687.741C1552.89,692.471 1574.38,685.926 1579.63,684.964C1588.04,683.423 1622.73,687.435 1626.49,679.486C1634.95,661.612 1580.63,637 1609.75,634.503C1639.07,631.99 1631.21,677.069 1658.84,680.635C1676.06,682.858 1700.38,661.914 1709.56,661.449C1717.89,661.027 1721.63,663.84 1726.92,668.448C1729.46,670.661 1751.26,672.439 1767.57,673.17C1793.38,674.327 1820.81,667.857 1846.7,666.273" style="fill:none;stroke:rgb(0,9,85);stroke-width:2.25px;"/>
        </g>
        <g transform="matrix(0.133538,0.696934,-0.696934,0.133538,1478.57,-130.809)">
            <path d="M1879.1,525.38C1843.36,574.601 1779.67,561.442 1731.91,583.146C1703.52,596.046 1698.1,647.352 1681.13,671.419" style="fill:none;stroke:rgb(0,9,85);stroke-width:2.25px;"/>
        </g>
        <g transform="matrix(0.133538,0.696934,-0.696934,0.133538,1478.57,-130.809)">
            <path d="M1841.08,602.296C1841.1,602.143 1841.12,600.596 1840.94,600.72C1831.16,607.889 1824.81,623.609 1816.09,632.495C1799.68,649.207 1774.28,656.862 1759.13,672.939" style="fill:none;stroke:rgb(0,9,85);stroke-width:2.25px;"/>
        </g>
        <g transform="matrix(0.133538,0.696934,-0.696934,0.133538,1478.57,-130.809)">
            <path d="M1615.87,792.831C1613.94,793.513 1605.49,820.113 1595.96,825.235C1579.37,834.153 1560.98,826.375 1544.02,831.655C1541.41,832.469 1501.35,851.081 1497.63,844.174" style="fill:none;stroke:rgb(0,9,85);stroke-width:2.25px;"/>
        </g>
        <g transform="matrix(0.133538,0.696934,-0.696934,0.133538,1478.57,-130.809)">
            <path d="M1567.3,758.247C1561.93,763.422 1551.8,762.858 1546.83,770.978C1541.82,779.157 1543.49,786.673 1542.42,795.441C1539.25,821.433 1507.13,831.132 1486.41,831.742" style="fill:none;stroke:rgb(0,9,85);stroke-width:2.25px;"/>
        </g>
        <g transform="matrix(0.133538,0.696934,-0.696934,0.133538,1478.57,-130.809)">
            <path d="M1425.25,829.447C1426.15,829.793 1423.09,828.833 1422.63,828.789C1417.14,828.266 1411.02,829.372 1405.55,829.948C1394.17,831.144 1384.86,836.544 1373.89,830.463C1357.91,821.597 1326.21,838.189 1308.12,838.722C1292.86,839.171 1276.93,832.451 1261.77,834.421C1260.62,834.57 1259.74,834.68 1258.62,835.05C1257.17,835.534 1255.7,836.247 1254.45,837.141C1182.99,888.462 1168.91,852.418 1104.25,824.03C1092.24,818.76 1077.98,822.946 1065.53,819.564C1026.05,808.837 992.777,777.196 952.111,769.585C927.516,764.981 916.85,784.322 895.781,792.893C881.551,798.682 862.843,799.092 850.005,805.99" style="fill:none;stroke:rgb(0,9,85);stroke-width:2.25px;"/>
        </g>
        <g transform="matrix(0.133538,0.696934,-0.696934,0.133538,1478.57,-130.809)">
            <path d="M1403.31,815.818C1397.1,817.435 1386.16,813.006 1379.84,811.68C1353.03,806.054 1331.05,822.527 1305.47,821.981C1290.61,821.663 1276.13,814.559 1261.23,818.214C1239.16,823.627 1210.46,845.3 1186.76,841.281C1160.74,836.869 1194.6,753.011 1127.86,728.566C1101.27,718.828 1083.78,770.345 1058.78,778.849C1029.03,788.971 970.028,754.556 937.605,752.77" style="fill:none;stroke:rgb(0,9,85);stroke-width:2.25px;"/>
        </g>
        <g transform="matrix(0.133538,0.696934,-0.696934,0.133538,1478.57,-130.809)">
            <path d="M834.528,788.285C823.202,784.652 777.096,789.09 764.995,796.104C753.937,802.514 747.984,810.987 734.9,814.671C692.831,826.514 625.295,826.098 581.365,822.778C541.155,819.739 541.394,728.66 468.055,750.361C411.499,767.095 473.976,850.293 423.876,854.723C389.641,857.75 437.468,757.252 387.531,742.224C352.44,731.664 291.175,781.034 254.916,789.858C219.497,798.478 181.203,782.464 145.243,785.412C93.833,789.626 43.659,805.984 -7.527,813.065" style="fill:none;stroke:rgb(0,9,85);stroke-width:2.25px;"/>
        </g>
        <g transform="matrix(0.133538,0.696934,-0.696934,0.133538,1478.57,-130.809)">
            <path d="M-50.106,877.632C-52.612,874.061 -41.058,871.338 -39.37,870.566C2.017,851.649 44.587,842.596 89.433,836.635C147.955,828.857 196.371,820.82 248.994,853.706C274.981,869.947 296.247,909.121 326.396,916.045C371.404,926.381 365.607,848.529 405.771,863.813C436.679,875.574 362.892,902.496 370.66,912.854C376.146,920.17 389.922,920.5 398.008,920.668C441.407,921.573 433.051,905.511 441.255,880.826C442.165,878.088 444.506,876.73 447.155,876.059C491.128,864.919 483.049,913.782 514.303,910.7C535.022,908.657 562.953,861.47 588.494,851.196C642.875,829.322 648.746,851.723 691.005,843.207C722.826,836.795 752.567,820.075 784.421,812.646C801.953,808.557 840.044,827.246 849.909,805.972" style="fill:none;stroke:rgb(0,9,85);stroke-width:2.25px;"/>
        </g>
    </g>
    <g id="Layer2" transform="matrix(0.807602,0,0,0.807602,1353.38,-2.03366)">
        <g transform="matrix(1,0,0,1,797.727,236.768)">
            <path d="M1944.94,239.232C1925.36,247.241 1900.79,249.902 1880.09,250.308C1860.9,250.684 1828.62,240.415 1811.33,252.387C1797.91,261.677 1802.16,287.644 1789.65,299.781C1771.26,317.619 1741.48,309.56 1723.79,326.9C1708.87,341.522 1703.23,379.577 1681.48,401.368C1664.97,417.904 1633.85,406.812 1624.94,417.496C1622.44,420.492 1625.83,429.746 1622.62,433.987" style="fill:none;stroke:rgb(0,9,85);stroke-width:1.61px;"/>
        </g>
        <g transform="matrix(1,0,0,1,797.727,236.768)">
            <path d="M1560.21,509.776C1496.22,533.559 1475.41,534.661 1470.48,502.613C1469.11,493.716 1471.15,484.219 1467.84,475.079C1463.86,464.077 1452.15,459.359 1448.67,448.649C1446.52,442.031 1447.79,434.739 1445.77,428.099C1441.9,415.349 1422.88,414.091 1414.69,406.163C1412.7,404.237 1407.62,389.057 1403.43,390.328C1400.02,391.362 1397.46,400.514 1396.57,403.363C1389.02,427.418 1386.24,438.079 1402.71,460.411C1408.38,468.089 1430.54,456.023 1439.47,461.166C1452.66,468.757 1463.44,540.488 1461.68,548.514C1460.66,553.191 1451.78,560.892 1447.73,563.291C1426.63,575.797 1332.31,553.699 1306.62,549.559C1292.64,547.305 1272.92,558.231 1263.99,555.482C1241.58,548.575 1229.1,518.527 1200.69,514.75C1178.3,511.775 1152.76,518.837 1130.92,518.903C1123.04,518.927 1115.56,513.042 1108.44,512.524C1100.55,511.95 1099.59,519.5 1089.49,517.321C1079.24,515.107 1072.63,496.343 1061.99,492.6C1050.25,488.468 1037.82,494.114 1025.79,492.56C1013.73,491.003 992.406,478.957 983.942,480.01C975.736,481.031 959.747,490.077 952.458,494.598C934.204,505.918 916.415,509.88 900.92,526.761C879.616,549.971 866.761,579.221 841.278,597.667" style="fill:none;stroke:rgb(0,9,85);stroke-width:1.61px;"/>
        </g>
        <g transform="matrix(1,0,0,1,797.727,236.768)">
            <path d="M1948.91,246.876C1939.26,250.683 1922.01,253.554 1918.37,254.694C1879.92,266.714 1858.65,249.948 1828.93,254.803C1820.36,256.203 1807.43,291.977 1802.36,300.21C1793.55,314.535 1773.53,316.802 1760.95,326.718C1754.92,331.465 1753.77,342.037 1747.49,346.039C1739.38,351.21 1726.61,352.105 1720.34,359.921C1713.39,368.571 1710.05,382.245 1704.02,392.015C1693.46,409.101 1675.69,423.518 1666.44,440.828C1664.49,444.474 1675.26,454.366 1668.69,458.106C1654.15,466.384 1661.19,426.684 1624.77,461.241" style="fill:none;stroke:rgb(0,9,85);stroke-width:1.61px;"/>
        </g>
        <g transform="matrix(1,0,0,1,797.727,236.768)">
            <path d="M1558.95,519.057C1547.74,526.03 1522.32,532.366 1509.46,536.266C1503.71,538.01 1478.92,542.877 1475.39,538.302C1474.75,537.477 1470.53,517.755 1465.53,520.434C1453.5,526.882 1484.4,546.088 1470.62,559.137C1437.51,590.485 1380.11,571.688 1341.54,566.657C1331.35,565.328 1320.52,573.595 1311.73,572.228C1308.16,571.673 1311.76,563.085 1306.87,562.952C1300.25,562.772 1294.14,566.812 1287.79,567.992C1273.12,570.721 1252.93,562.302 1240.11,555.448C1231.04,550.602 1199.43,524.931 1193.45,524.768C1168.18,524.079 1147.27,560.022 1144.38,560.335C1116.44,563.35 1088.72,541.773 1067.99,524.725C1059.3,517.576 1052.03,507.232 1040.85,503.638C1030.14,500.196 1017.59,507.181 1006.56,505.875C1000.3,505.134 995.259,499.737 988.625,499.002C987.253,498.85 983.323,504.407 981.905,503.649" style="fill:none;stroke:rgb(0,9,85);stroke-width:1.61px;"/>
        </g>
        <g transform="matrix(1,0,0,1,797.727,236.768)">
            <path d="M217.841,942.773C217.932,942.494 217.545,942.399 217.378,942.61C214.774,945.902 213.129,950.306 210.736,953.806C205.279,961.788 198.32,968.03 191.144,974.465C170.392,993.074 151.127,1012.93 131.611,1032.81C121.685,1042.92 110.564,1048.09 101.701,1056.45C90.179,1067.32 84.256,1082.28 72.007,1093.06C52.612,1110.13 30.243,1123.9 9.209,1138.82C-13.894,1155.2 -56.107,1185.07 -125.686,1262.64" style="fill:none;stroke:rgb(0,9,85);stroke-width:1.61px;"/>
        </g>
        <g transform="matrix(1,0,0,1,797.727,236.768)">
            <path d="M207.951,979.801C206.572,979.127 197.924,990.514 196.216,992.4C183.456,1006.48 166.823,1017.99 152.454,1030.44C141.265,1040.13 127.73,1048.97 117.472,1059.59C113.004,1064.21 114.442,1073.07 108.694,1077.64C100.157,1084.43 89.059,1087.15 80.435,1093.91C59.882,1110.03 40.644,1128.14 19.586,1143.96C-5.894,1163.09 -58.985,1194.39 -125.686,1275.68" style="fill:none;stroke:rgb(0,9,85);stroke-width:1.61px;"/>
        </g>
        <g transform="matrix(1,0,0,1,797.727,236.768)">
            <path d="M964.688,512.664C964.202,514.389 917.143,544.726 914.301,545.084C909.542,545.684 904.807,538.401 900.967,540.149C895.442,542.663 897.42,547.957 895.378,551.776C889.646,562.498 878.031,568.299 871.221,578.219" style="fill:none;stroke:rgb(0,9,85);stroke-width:1.61px;"/>
        </g>
        <g transform="matrix(1,0,0,1,797.727,236.768)">
            <path d="M871.357,578.46C859.005,600.983 850.145,614.167 833.85,616.494" style="fill:none;stroke:rgb(0,9,85);stroke-width:1.61px;"/>
        </g>
        <g transform="matrix(1,0,0,1,797.727,236.768)">
            <path d="M841.005,598.125C843.305,595.423 835.796,602.95 833.036,605.18C828.398,608.928 821.19,611.201 815.38,612.236C802.149,614.595 786.695,616.898 774.444,622.612C765.657,626.71 760.221,632.37 750.468,634.85C745.682,636.068 715.633,626.743 706.817,625.505C692.947,623.558 679.345,627.863 665.569,627.676C626.805,627.15 625.59,625.854 593.398,647.662C574.852,660.225 553.548,669.782 533.698,680.056C529.117,682.427 521.542,675 517.837,678.676C513.443,683.035 517.77,689.461 514.308,693.284C505.139,703.41 490.859,708.013 483.024,719.78C466.589,744.467 472.132,763.848 440.809,783.13C420.439,795.671 396.242,806.288 372.601,810.35C362.669,812.056 346.815,804.456 338.029,809.408C325.331,816.563 320.954,833.718 311.801,843.826C299.556,857.347 280.785,865.293 267.577,878.125C247.837,897.303 234.487,923.083 217.127,944.381" style="fill:none;stroke:rgb(0,9,85);stroke-width:1.61px;"/>
        </g>
        <g transform="matrix(1,0,0,1,797.727,236.768)">
            <path d="M833.268,616.512C801.235,620.982 785.155,642.503 751.844,646.338C730.069,648.846 711.445,635.005 690.588,634.577C679.882,634.358 670.409,638.607 660.147,640.749C651.545,642.546 642.638,639.899 634.14,641.359C626.509,642.67 624.916,648.238 618.827,650.085C614.582,651.373 610.351,647.894 605.917,649.239C588.354,654.566 551.767,678.251 537.339,690.04C534.178,692.623 536.648,699.073 533.315,701.669C530.044,704.216 524.761,703.191 520.991,704.999C505.95,712.212 496.985,729.726 491.768,745.02C488.401,754.893 509.524,766.863 497.785,773.604C485.668,780.563 480.009,760.71 469.462,767.024C456.34,774.881 448.831,793.235 434.948,801.711C412.963,815.136 388.17,819.251 363.905,825.641C357.146,827.421 351.104,838.164 344.524,841.588C338.306,844.824 329.571,843.543 322.623,847.21C316.019,850.697 312.008,859.144 306.55,864.195C267.699,900.146 235.179,940.162 205.306,983.682" style="fill:none;stroke:rgb(0,9,85);stroke-width:1.61px;"/>
        </g>
        <g transform="matrix(1,0,0,1,797.727,236.768)">
            <path d="M1944.49,239.292C1952.1,239.118 1965.68,225.641 1972.71,222.349C1985.28,216.463 1999.99,214.87 2012.11,208.052C2032.87,196.377 2046.92,177.851 2064.68,162.912C2081.68,148.614 2104.47,142.951 2121.63,129.148C2169.09,90.96 2171.55,79.855 2379.11,9.793" style="fill:none;stroke:rgb(0,9,85);stroke-width:1.61px;"/>
        </g>
        <g transform="matrix(1,0,0,1,797.727,236.768)">
            <path d="M1948.43,247.091C1966.57,221.261 2006.9,223.862 2030.98,209.384C2036.09,206.312 2035.91,199.387 2038.33,194.802C2043.68,184.67 2058.53,176 2067.29,168.961C2084.02,155.51 2102.71,149.322 2121.05,138.692C2132.26,132.201 2141.96,121.876 2152.28,114.016C2184.33,89.626 2334.92,26.969 2374.78,26.424" style="fill:none;stroke:rgb(0,9,85);stroke-width:1.61px;"/>
        </g>
    </g>
    <g id="Layer7" transform="matrix(0.807602,0,0,0.807602,1353.38,-2.03366)">
        <g transform="matrix(1.11727,-0.0494585,0.0457042,1.03246,625.333,308.168)">
            <path d="M1557.32,384.805C1555.22,383.655 1530.39,394.121 1526.23,394.838C1517.52,396.338 1508.89,397.037 1500.34,399.462C1449.14,413.985 1552.38,415.633 1565.12,399.964C1575.9,386.704 1559.22,388.94 1557.32,384.805Z" style="fill:none;stroke:rgb(38,38,38);stroke-width:1.49px;"/>
        </g>
        <g transform="matrix(1,0,0,1,797.727,236.768)">
            <path d="M1574.94,338.627C1574.29,344.755 1573.38,356.82 1580.24,370.171C1598.2,405.117 1624.11,339.011 1596.51,325.665C1583.31,319.287 1575.8,330.565 1574.94,338.627Z" style="fill:none;stroke:rgb(38,38,38);stroke-width:1.61px;"/>
        </g>
        <g transform="matrix(1,0,0,1,797.727,236.768)">
            <path d="M1561.93,521.038C1546.66,569.156 1550.71,553.57 1538.87,608.14C1538.5,609.858 1532.89,630.307 1535.97,630.975C1537.87,631.386 1540.32,624.064 1540.8,623.204C1550.25,606.618 1557.33,573.707 1572.52,558.242C1574.9,555.818 1576.44,602.913 1577,608.061C1577.05,608.526 1578.31,621.02 1578.64,620.857C1606.47,607.028 1652.1,332.135 1583.01,399.034C1574.29,408.044 1558.85,414.515 1547.76,420.453C1542.23,423.416 1498.03,443.898 1506.82,454.569C1520.97,471.748 1575.12,418.184 1571.7,436.493" style="fill:white;stroke:rgb(38,38,38);stroke-width:1.61px;"/>
        </g>
        <g transform="matrix(1,0,0,1,797.727,236.768)">
            <path d="M1571.86,434.798C1571.69,434.886 1570.36,459.487 1568.35,473.435C1567.61,478.575 1557.42,517.67 1559.14,519.422C1563.36,523.701 1581,522.656 1586.63,523.342C1590.83,523.853 1622.71,525.943 1625.31,523.803C1629.38,520.456 1627.58,507.084 1627.51,502.716C1627.17,483.237 1624.84,464.174 1623.38,444.802C1622.31,430.721 1622.83,400.567 1609.51,392.137" style="fill:none;stroke:rgb(38,38,38);stroke-width:1.61px;"/>
        </g>
        <g transform="matrix(1.04643,0,0,1.07242,725.526,214.654)">
            <path d="M1574.9,336.461C1572.78,337.087 1576.34,341.354 1577.74,341.567C1581.01,342.065 1584.31,339.846 1587.44,341.414C1591.58,343.482 1599.1,353.371 1601.55,353.371C1604.37,353.371 1602.76,341.689 1603.59,340.34C1604.59,338.727 1610.4,342.058 1612.54,340.596C1620.73,334.99 1618.17,320.504 1613.92,313.716C1609.6,306.826 1601.67,305.568 1598.43,314.023C1596.97,317.845 1598.24,321.26 1600.07,324.652C1600.36,325.191 1603.69,329.614 1603.08,330.12C1602.68,330.451 1590.95,324.198 1590.05,323.834C1578.81,319.294 1573.95,329.145 1573.95,339.165" style="fill:none;stroke:rgb(38,38,38);stroke-width:1.52px;"/>
        </g>
        <g transform="matrix(1,0,0,1,739.229,288.337)">
            <path d="M1338.92,852.521C1299.25,856.273 1272.81,866.922 1247.95,882.602C1247.66,882.787 1244.58,884.948 1244.68,886.089C1244.84,887.832 1249.34,888.417 1249.59,888.459C1276.63,893.161 1306.07,891.019 1333.37,891.332C1406.61,892.174 1480.71,894.083 1553.64,885.847C1560.89,885.029 1611.56,879.313 1614.09,872.681C1614.81,870.773 1610.92,869.324 1610.11,869.019C1583.92,859.153 1551.53,860.358 1524.09,859.017C1498.26,857.755 1472.72,854.74 1446.97,852.442C1411.76,849.3 1374.22,850.075 1338.92,852.521" style="fill:rgb(0,9,85);fill-opacity:0.1;"/>
        </g>
    </g>
    <g id="Layer8" transform="matrix(0.807602,0,0,0.807602,1353.38,-2.03366)">
        <g transform="matrix(1.11875,0,0,1.11875,615.729,193.843)">
            <path d="M1358.17,612.362C1357.12,619.005 1361.88,627.692 1364.81,633.144C1367.26,637.701 1370.05,641.718 1373.52,645.561C1400.23,675.093 1382.81,585.782 1358.34,611.679" style="fill:none;stroke:rgb(26,26,26);stroke-width:1.44px;"/>
        </g>
        <g transform="matrix(1.11875,0,0,1.11875,615.729,193.843)">
            <path d="M1363.45,602.561C1355.23,596.309 1343.32,644.228 1343.77,656.494C1343.8,657.23 1344.96,655.612 1345.47,655.084C1349.01,651.453 1351.92,647.286 1355.52,643.675C1364.31,634.859 1374.08,614.897 1363.69,603.899" style="fill:none;stroke:rgb(26,26,26);stroke-width:1.44px;"/>
        </g>
        <g transform="matrix(1.11875,0,0,1.11875,615.729,193.843)">
            <path d="M1380.06,661.389C1374.56,659.076 1363.03,698.688 1360.61,704.488C1356.32,714.747 1336.33,755.361 1337.06,755.747C1344.27,759.564 1361.48,724.402 1363.88,720.33C1366.02,716.702 1367.47,713.466 1368.55,709.421C1369.06,707.506 1370.09,701.649 1369.84,703.615C1365.96,733.713 1344.43,842.304 1351.91,863.752C1352.94,866.704 1357.25,860.29 1360.28,859.51C1364.7,858.369 1365.32,839.784 1365.75,836.434C1366.75,828.689 1375.03,765.21 1377.39,763.77C1382.82,760.473 1387.26,786.364 1387.67,788.549C1390.41,803.303 1388.36,813.448 1387.58,828.385C1387.24,834.965 1386.83,842.7 1386.49,849.28C1386.39,851.253 1386.23,857.534 1388.19,857.787C1388.9,857.879 1396.35,824.78 1398.07,813.996C1398.61,810.568 1398.56,811.013 1399.02,807.494C1403.12,775.658 1416.59,679.033 1380.06,661.389Z" style="fill:none;stroke:rgb(26,26,26);stroke-width:1.44px;"/>
        </g>
        <g transform="matrix(1.11875,0,0,1.11875,615.729,193.843)">
            <path d="M1391.42,670.997C1398.71,676.377 1416.63,685.542 1419.77,694.523C1421.48,699.434 1411.63,741.99 1405.44,744.147C1404.51,744.471 1405.68,739.666 1405.73,739.406C1406.54,735.278 1407.13,731.226 1407.43,727.03C1408.33,714.763 1411.25,703.561 1401.52,694.526" style="fill:none;stroke:rgb(26,26,26);stroke-width:1.44px;"/>
        </g>
        <g transform="matrix(0.825303,0,0,0.825303,759.44,303.948)">
            <path d="M1880.05,635.64C1866.87,648.798 1858.77,663.506 1857.37,674.364C1854.95,693 1860.37,702.173 1864.31,700.629C1884.64,692.644 1896.24,679.837 1900.58,661.988" style="fill:none;stroke:rgb(26,26,26);stroke-width:1.95px;"/>
        </g>
        <g transform="matrix(0.825303,0,0,0.825303,759.44,303.948)">
            <path d="M1880.13,629.454C1879.38,629.441 1877.69,631.386 1877.17,631.844C1873.43,635.168 1871.25,639.008 1869.18,643.558C1869.16,643.613 1866.16,651.057 1866.21,651.064C1866.95,651.189 1868.91,648.082 1869.22,647.732C1871.62,644.947 1874.3,642.357 1876.95,639.804C1877.16,639.598 1880.96,635.295 1880.96,636.795C1880.96,644.134 1871.22,651.756 1873.55,659.348C1874.01,660.828 1877.4,659.22 1878.6,659.477C1881.22,660.04 1881.94,662.128 1882.84,664.492C1884.91,669.962 1886.8,675.504 1888.53,681.092C1888.75,681.805 1890.07,686.15 1891.25,685.557C1893.19,684.589 1894.44,679.614 1895.68,677.824C1903.26,666.936 1905.09,651.732 1898.34,639.998C1895.31,634.737 1887.58,626.222 1880.31,629.126" style="fill:none;stroke:rgb(26,26,26);stroke-width:1.95px;"/>
        </g>
        <g transform="matrix(0.825303,0,0,0.825303,759.44,303.948)">
            <path d="M1864.3,701.774C1865.46,707.721 1867.76,716.219 1854.63,737.637" style="fill:none;stroke:rgb(26,26,26);stroke-width:1.95px;"/>
        </g>
        <g transform="matrix(0.825303,0,0,0.825303,759.44,303.948)">
            <path d="M1873.28,738.381C1873.66,740.842 1872.88,742.825 1872,745.944C1870.49,751.292 1869.36,756.228 1866.75,761.034C1863.25,767.49 1824.38,766.673 1820.96,765.84C1817.34,764.959 1798.06,679.389 1804.14,663.209C1804.45,662.374 1813.68,683.176 1814.18,686.04C1817.06,702.514 1819.27,718.557 1826.13,734.055C1838.25,761.454 1855.73,726.583 1873.28,738.381Z" style="fill:none;stroke:rgb(26,26,26);stroke-width:1.95px;"/>
        </g>
        <g transform="matrix(0.825303,0,0,0.825303,759.44,303.948)">
            <path d="M1877.02,696.299C1876.31,693.319 1878.74,703.96 1879.17,705.444C1881.14,712.063 1883.69,718.493 1885.6,725.131C1891.03,743.941 1891.81,763.327 1895.12,782.415C1905.98,845.119 1900.04,912.939 1885.01,974.325C1882.24,985.64 1879.15,1030.29 1859.98,1029.42C1858.51,1029.36 1858.52,1027.51 1858.61,1026.46C1859.86,1012.85 1864.87,998.532 1867.35,985.032C1867.63,983.49 1867.92,981.947 1868.15,980.396C1870.74,963.392 1878.7,869.325 1868.03,858.269C1858.78,848.691 1854.01,899.593 1853.45,904.204C1851.42,920.946 1853.38,1014.13 1841.36,1025.17C1836.19,1029.91 1818.28,1029.87 1812.18,1027.69C1791.79,1020.43 1829.81,1009.72 1830.03,1009.18C1836.22,993.821 1834.63,970.257 1836.76,953.781C1839.68,931.069 1837.33,907.602 1838.34,884.738C1839.86,850.224 1847.39,800.813 1853.6,766.831" style="fill:none;stroke:rgb(26,26,26);stroke-width:1.95px;"/>
        </g>
        <g transform="matrix(0.825303,0,0,0.825303,759.44,303.948)">
            <path d="M1845.53,767.133C1842.74,785.553 1838.57,805.428 1832.63,823.128C1829.5,832.469 1821.97,842.02 1820.85,851.861C1820.03,859.144 1824.69,857.153 1829.94,855.44C1835.07,853.769 1840.8,847.471 1843.23,842.435" style="fill:none;stroke:rgb(26,26,26);stroke-width:1.95px;"/>
        </g>
        <g transform="matrix(0.825303,0,0,0.825303,759.44,303.948)">
            <path d="M1801.29,666.67C1800.93,667.358 1799.29,658.854 1799.25,657.942C1799.11,653.556 1800.11,633.69 1807.19,633.925C1820.59,634.371 1806.48,661.851 1804.58,666.976" style="fill:none;stroke:rgb(26,26,26);stroke-width:1.95px;"/>
        </g>
    </g>
    <g id="Frau">
    </g>
    <g id="Layer4" transform="matrix(1,0,0,1,1268.39,-172.763)">
        <g transform="matrix(1,0,0,1,-1378.97,559.249)">
            <path d="M3197.81,379.188C3192.37,390.069 3188.61,398.132 3188.26,410.761C3188.03,419.322 3188.49,427.21 3191.24,435.376C3193.94,443.386 3196.81,453.842 3202.61,460.243C3208.56,466.799 3215.86,464.155 3218.11,456.116C3218.87,453.383 3219.26,450.536 3219.47,447.712C3220.86,429.42 3216.05,412.024 3210.21,394.92C3208.59,390.182 3207.56,374.913 3200.96,373.311" style="fill:rgb(149,3,56);fill-opacity:0.08;"/>
        </g>
        <g transform="matrix(0.846392,0,0,0.339315,-1199.11,626.948)">
            <path d="M3197.81,379.188C3192.37,390.069 3189.21,398.325 3188.26,410.761C3187.16,425.248 3197.73,442.172 3204.44,436.561C3211.23,430.883 3194.32,423.723 3196.9,410.309C3198.32,402.934 3202.14,381.247 3197.81,379.188" style="fill:rgb(149,3,56);fill-opacity:0.08;"/>
        </g>
        <g transform="matrix(1,0,0,1,-1056.16,272.104)">
            <path d="M3062.05,352.542C3056.84,361.392 3057.28,369.67 3057.44,374.142C3057.54,376.771 3057.73,379.401 3058.18,381.996C3059.15,387.723 3064.36,395.057 3066.98,385.581C3069.13,377.782 3069.07,368.33 3068.32,360.331C3068.01,357.001 3067.27,348.118 3062.05,352.542Z" style="fill:rgb(0,84,174);fill-opacity:0.1;"/>
        </g>
        <g transform="matrix(0.504802,-0.863235,0.612521,0.35819,109.545,3202.02)">
            <path d="M3062.05,352.542C3058.09,362.2 3058.05,368.721 3058.22,373.193C3058.31,375.821 3060.4,383.114 3064.33,385.158C3067.12,386.609 3069.37,384.799 3070.02,380.052C3071.15,371.836 3069.07,368.33 3068.32,360.331C3068.01,357.001 3067.27,348.118 3062.05,352.542Z" style="fill:rgb(149,3,56);fill-opacity:0.1;"/>
        </g>
        <g transform="matrix(0.540891,-0.841093,0.841093,0.540891,-90.1958,3072.14)">
            <path d="M3059.24,353.388C3047.85,363.053 3053.66,371.517 3058.18,381.996C3060.47,387.331 3064.36,395.057 3066.98,385.581C3069.13,377.782 3058.68,373.602 3070.11,348.951C3071.52,345.917 3064.45,348.963 3059.24,353.388Z" style="fill:rgb(0,84,174);fill-opacity:0.1;"/>
        </g>
        <g transform="matrix(2.30542,0,0,2.00875,-5035.87,2.03284)">
            <path d="M3062.05,352.542C3056.84,361.392 3057.28,369.67 3057.44,374.142C3057.54,376.771 3057.73,379.401 3058.18,381.996C3059.15,387.723 3064.36,395.057 3066.98,385.581C3069.13,377.782 3069.07,368.33 3068.32,360.331C3068.01,357.001 3067.27,348.118 3062.05,352.542Z" style="fill:rgb(0,84,174);fill-opacity:0.1;"/>
        </g>
        <g transform="matrix(0.982115,0.188283,-0.188283,0.982115,-974.926,-66.8257)">
            <path d="M3045.57,443.41C3045.57,450.88 3045.45,458.289 3046.08,465.748C3046.48,470.516 3046.86,475.333 3047.76,480.037C3048.52,483.989 3049.47,488.323 3052.11,491.501C3055.83,495.981 3058.99,493.26 3059.19,488.118C3059.78,472.088 3055.15,456.155 3055.93,439.884C3056.08,436.755 3056.79,432.216 3055.38,429.264C3052.93,424.16 3046.18,428.242 3044.07,431.291" style="fill:rgb(0,9,85);fill-opacity:0.1;"/>
        </g>
    </g>
</svg>
