<svg xmlns="http://www.w3.org/2000/svg" xmlns:xlink="http://www.w3.org/1999/xlink" width="653px" height="449px" version="1.1"><defs/><g transform="translate(0.5,0.5)"><rect x="1" y="191" width="110" height="50" fill="#ffffff" stroke="#000000" pointer-events="none"/><g fill="#000000" font-family="Helvetica" font-weight="bold" text-anchor="middle" font-size="18px"><text x="56" y="223">User</text></g><rect x="271" y="191" width="110" height="50" fill="#ffffff" stroke="#000000" pointer-events="none"/><g fill="#000000" font-family="Helvetica" font-weight="bold" text-anchor="middle" font-size="18px"><text x="326" y="223">Team</text></g><rect x="411" y="86" width="110" height="50" fill="#ffffff" stroke="#000000" pointer-events="none"/><g fill="#000000" font-family="Helvetica" font-weight="bold" text-anchor="middle" font-size="18px"><text x="466" y="118">Task-Type</text></g><rect x="541" y="191" width="110" height="50" fill="#ffffff" stroke="#000000" pointer-events="none"/><g fill="#000000" font-family="Helvetica" font-weight="bold" text-anchor="middle" font-size="18px"><text x="596" y="223">Task</text></g><rect x="271" y="1" width="110" height="50" fill="#ffffff" stroke="#000000" pointer-events="none"/><g fill="#000000" font-family="Helvetica" font-weight="bold" text-anchor="middle" font-size="18px"><text x="326" y="33">Project</text></g><rect x="131" y="86" width="110" height="50" fill="#ffffff" stroke="#000000" pointer-events="none"/><g fill="#000000" font-family="Helvetica" font-weight="bold" text-anchor="middle" font-size="18px"><text x="186" y="118">Dataset</text></g><rect x="271" y="307" width="110" height="50" fill="#ffffff" stroke="#000000" pointer-events="none"/><g fill="#000000" font-family="Helvetica" font-weight="bold" text-anchor="middle" font-size="18px"><text x="326" y="339">Tracing</text></g><rect x="201" y="397" width="110" height="50" fill="#ffffff" stroke="#000000" pointer-events="none"/><g fill="#000000" font-family="Helvetica" font-weight="bold" text-anchor="middle" font-size="18px"><text x="256" y="418">Volume</text><text x="256" y="440">Tracing</text></g><rect x="341" y="397" width="110" height="50" fill="#ffffff" stroke="#000000" pointer-events="none"/><g fill="#000000" font-family="Helvetica" font-weight="bold" text-anchor="middle" font-size="18px"><text x="396" y="418">Skeleton</text><text x="396" y="440">Tracing</text></g><path d="M 256 397 L 256 387 Q 256 377 266 377 L 289 377 Q 299 377 299 371 L 299 365" fill="none" stroke="#000000" stroke-miterlimit="10" pointer-events="none"/><path d="M 299 358 L 302 365 L 295 365 Z" fill="none" stroke="#000000" stroke-miterlimit="10" pointer-events="none"/><rect x="256" y="397" width="0" height="0" fill="#ffffff" stroke="#000000" pointer-events="none"/><path d="M 396 397 L 396 387 Q 396 377 386 377 L 364 377 Q 354 377 354 371 L 354 365" fill="none" stroke="#000000" stroke-miterlimit="10" pointer-events="none"/><path d="M 354 358 L 357 365 L 350 365 Z" fill="none" stroke="#000000" stroke-miterlimit="10" pointer-events="none"/><rect x="396" y="397" width="0" height="0" fill="#ffffff" stroke="#000000" pointer-events="none"/><path d="M 326 241 L 326 307" fill="none" stroke="#000000" stroke-miterlimit="10" pointer-events="none"/><rect x="313" y="260" width="0" height="0" fill="#ffffff" stroke="#000000" pointer-events="none"/><g fill="#000000" font-family="Helvetica" font-size="12px"><rect fill="#ffffff" stroke="none" x="315" y="245" width="9" height="15" stroke-width="0"/><text x="315" y="255">1</text></g><rect x="313" y="307" width="0" height="0" fill="#ffffff" stroke="#000000" pointer-events="none"/><g fill="#000000" font-family="Helvetica" font-size="12px"><rect fill="#ffffff" stroke="none" x="314" y="291" width="9" height="15" stroke-width="0"/><text x="315" y="302">n</text></g><path d="M 111 216 L 271 216" fill="none" stroke="#000000" stroke-miterlimit="10" pointer-events="none"/><rect x="114" y="215" width="0" height="0" fill="#ffffff" stroke="#000000" pointer-events="none"/><g fill="#000000" font-family="Helvetica" font-size="12px"><rect fill="#ffffff" stroke="none" x="116" y="199" width="9" height="15" stroke-width="0"/><text x="116" y="210">n</text></g><rect x="258" y="215" width="0" height="0" fill="#ffffff" stroke="#000000" pointer-events="none"/><g fill="#000000" font-family="Helvetica" font-size="12px"><rect fill="#ffffff" stroke="none" x="259" y="199" width="9" height="15" stroke-width="0"/><text x="260" y="210">n</text></g><path d="M 381 216 L 541 216" fill="none" stroke="#000000" stroke-miterlimit="10" pointer-events="none"/><rect x="383" y="215" width="0" height="0" fill="#ffffff" stroke="#000000" pointer-events="none"/><g fill="#000000" font-family="Helvetica" font-size="12px"><rect fill="#ffffff" stroke="none" x="385" y="200" width="9" height="15" stroke-width="0"/><text x="385" y="210">1</text></g><path d="M 56 241 L 56 322 Q 56 332 66 332 L 271 332" fill="none" stroke="#000000" stroke-miterlimit="10" pointer-events="none"/><rect x="43" y="260" width="0" height="0" fill="#ffffff" stroke="#000000" pointer-events="none"/><g fill="#000000" font-family="Helvetica" font-size="12px"><rect fill="#ffffff" stroke="none" x="45" y="245" width="9" height="15" stroke-width="0"/><text x="45" y="255">1</text></g><path d="M 596 241 L 596 322 Q 596 332 586 332 L 381 332" fill="none" stroke="#000000" stroke-miterlimit="10" pointer-events="none"/><rect x="571" y="260" width="0" height="0" fill="#ffffff" stroke="#000000" pointer-events="none"/><g fill="#000000" font-family="Helvetica" font-size="12px"><rect fill="#ffffff" stroke="none" x="573" y="245" width="22" height="15" stroke-width="0"/><text x="573" y="255">0..1</text></g><path d="M 56 191 L 56 36 Q 56 26 66 26 L 271 26" fill="none" stroke="#000000" stroke-miterlimit="10" pointer-events="none"/><g fill="#000000" font-family="Helvetica" font-size="11px"><rect fill="#ffffff" stroke="none" x="23" y="99" width="28" height="14" stroke-width="0"/><text x="23" y="108">owns</text></g><rect x="43" y="190" width="0" height="0" fill="#ffffff" stroke="#000000" pointer-events="none"/><g fill="#000000" font-family="Helvetica" font-size="12px"><rect fill="#ffffff" stroke="none" x="45" y="175" width="9" height="15" stroke-width="0"/><text x="45" y="185">1</text></g><path d="M 596 191 L 596 36 Q 596 26 586 26 L 381 26" fill="none" stroke="#000000" stroke-miterlimit="10" pointer-events="none"/><rect x="599" y="190" width="0" height="0" fill="#ffffff" stroke="#000000" pointer-events="none"/><g fill="#000000" font-family="Helvetica" font-size="12px"><rect fill="#ffffff" stroke="none" x="601" y="175" width="9" height="15" stroke-width="0"/><text x="601" y="185">n</text></g><path d="M 326 191 L 326 51" fill="none" stroke="#000000" stroke-miterlimit="10" pointer-events="none"/><rect x="328" y="190" width="0" height="0" fill="#ffffff" stroke="#000000" pointer-events="none"/><g fill="#000000" font-family="Helvetica" font-size="12px"><rect fill="#ffffff" stroke="none" x="330" y="175" width="9" height="15" stroke-width="0"/><text x="330" y="185">1</text></g><path d="M 521 111 L 559 111 Q 569 111 569 121 L 569 191" fill="none" stroke="#000000" stroke-miterlimit="10" pointer-events="none"/><rect x="523" y="110" width="0" height="0" fill="#ffffff" stroke="#000000" pointer-events="none"/><g fill="#000000" font-family="Helvetica" font-size="12px"><rect fill="#ffffff" stroke="none" x="525" y="95" width="9" height="15" stroke-width="0"/><text x="525" y="105">1</text></g><path d="M 411 111 L 364 111 Q 354 111 354 121 L 354 191" fill="none" stroke="#000000" stroke-miterlimit="10" pointer-events="none"/><rect x="398" y="110" width="0" height="0" fill="#ffffff" stroke="#000000" pointer-events="none"/><g fill="#000000" font-family="Helvetica" font-size="12px"><rect fill="#ffffff" stroke="none" x="400" y="95" width="9" height="15" stroke-width="0"/><text x="400" y="105">n</text></g><path d="M 299 191 L 299 109 Q 299 99 289 99 L 241 99" fill="none" stroke="#000000" stroke-miterlimit="10" pointer-events="none"/><g fill="#000000" font-family="Helvetica" font-size="11px"><rect fill="#ffffff" stroke="none" x="258" y="81" width="45" height="14" stroke-width="0"/><text x="258" y="90">can view</text></g><rect x="301" y="190" width="0" height="0" fill="#ffffff" stroke="#000000" pointer-events="none"/><g fill="#000000" font-family="Helvetica" font-size="12px"><rect fill="#ffffff" stroke="none" x="302" y="175" width="9" height="15" stroke-width="0"/><text x="303" y="185">n</text></g><rect x="384" y="332" width="0" height="0" fill="#ffffff" stroke="#000000" pointer-events="none"/><g fill="#000000" font-family="Helvetica" font-size="12px"><rect fill="#ffffff" stroke="none" x="385" y="316" width="9" height="15" stroke-width="0"/><text x="386" y="327">n</text></g><path d="M 241 122 L 273 122 Q 283 122 282 132 L 282 191" fill="none" stroke="#000000" stroke-miterlimit="10" pointer-events="none"/><g fill="#000000" font-family="Helvetica" font-size="11px"><rect fill="#ffffff" stroke="none" x="253" y="136" width="28" height="14" stroke-width="0"/><text x="253" y="146">owns</text></g><rect x="243" y="140" width="0" height="0" fill="#ffffff" stroke="#000000" pointer-events="none"/><g fill="#000000" font-family="Helvetica" font-size="12px"><rect fill="#ffffff" stroke="none" x="245" y="125" width="9" height="15" stroke-width="0"/><text x="245" y="135">n</text></g><rect x="258" y="25" width="0" height="0" fill="#ffffff" stroke="#000000" pointer-events="none"/><g fill="#000000" font-family="Helvetica" font-size="12px"><rect fill="#ffffff" stroke="none" x="260" y="10" width="9" height="15" stroke-width="0"/><text x="260" y="20">n</text></g><rect x="383" y="25" width="0" height="0" fill="#ffffff" stroke="#000000" pointer-events="none"/><g fill="#000000" font-family="Helvetica" font-size="12px"><rect fill="#ffffff" stroke="none" x="385" y="10" width="9" height="15" stroke-width="0"/><text x="385" y="20">1</text></g><rect x="329" y="69" width="0" height="0" fill="#ffffff" stroke="#000000" pointer-events="none"/><g fill="#000000" font-family="Helvetica" font-size="12px"><rect fill="#ffffff" stroke="none" x="331" y="54" width="9" height="15" stroke-width="0"/><text x="331" y="64">n</text></g><rect x="271" y="190" width="0" height="0" fill="#ffffff" stroke="#000000" pointer-events="none"/><g fill="#000000" font-family="Helvetica" font-size="12px"><rect fill="#ffffff" stroke="none" x="272" y="175" width="9" height="15" stroke-width="0"/><text x="273" y="185">1</text></g><rect x="243" y="98" width="0" height="0" fill="#ffffff" stroke="#000000" pointer-events="none"/><g fill="#000000" font-family="Helvetica" font-size="12px"><rect fill="#ffffff" stroke="none" x="245" y="83" width="9" height="15" stroke-width="0"/><text x="245" y="93">n</text></g><rect x="357" y="190" width="0" height="0" fill="#ffffff" stroke="#000000" pointer-events="none"/><g fill="#000000" font-family="Helvetica" font-size="12px"><rect fill="#ffffff" stroke="none" x="359" y="175" width="9" height="15" stroke-width="0"/><text x="359" y="185">1</text></g><rect x="572" y="190" width="0" height="0" fill="#ffffff" stroke="#000000" pointer-events="none"/><g fill="#000000" font-family="Helvetica" font-size="12px"><rect fill="#ffffff" stroke="none" x="574" y="175" width="9" height="15" stroke-width="0"/><text x="574" y="185">n</text></g><rect x="259" y="331" width="0" height="0" fill="#ffffff" stroke="#000000" pointer-events="none"/><g fill="#000000" font-family="Helvetica" font-size="12px"><rect fill="#ffffff" stroke="none" x="261" y="316" width="9" height="15" stroke-width="0"/><text x="261" y="326">n</text></g><rect x="137" y="243" width="110" height="50" fill="#ffffff" stroke="#000000" pointer-events="none"/><g fill="#000000" font-family="Helvetica" text-anchor="middle" font-size="10px"><text x="192" y="265">Role</text><text x="192" y="277">{admin, reviewer, user}</text></g><path d="M 192 243 L 192 215" fill="none" stroke="#000000" stroke-miterlimit="10" stroke-dasharray="3 3" pointer-events="none"/><rect x="528" y="215" width="0" height="0" fill="#ffffff" stroke="#000000" pointer-events="none"/><g fill="#000000" font-family="Helvetica" font-size="12px"><rect fill="#ffffff" stroke="none" x="530" y="200" width="9" height="15" stroke-width="0"/><text x="530" y="210">n</text></g><rect x="162" y="215" width="0" height="0" fill="#ffffff" stroke="#000000" pointer-events="none"/><g fill="#000000" font-family="Helvetica" font-size="10px"><rect fill="#ffffff" stroke="none" x="164" y="202" width="61" height="13" stroke-width="0"/><text x="164" y="210">is member of</text></g><rect x="543" y="161" width="0" height="0" fill="#ffffff" stroke="#000000" pointer-events="none"/><g fill="#000000" font-family="Helvetica" font-size="10px"><rect fill="#ffffff" stroke="none" x="544" y="147" width="21" height="13" stroke-width="0"/><text x="545" y="156">is of</text></g><rect x="140" y="330" width="0" height="0" fill="#ffffff" stroke="#000000" pointer-events="none"/><g fill="#000000" font-family="Helvetica" font-size="10px"><rect fill="#ffffff" stroke="none" x="142" y="317" width="30" height="13" stroke-width="0"/><text x="142" y="325">traces</text></g></g></svg>