<?xml version="1.0" encoding="UTF-8" standalone="no"?>
<svg
   width="773.68652"
   height="586.73346"
   viewBox="0 0 773.68652 586.73346"
   version="1.1"
   xml:space="preserve"
   style="clip-rule:evenodd;fill-rule:evenodd;stroke-linecap:round;stroke-linejoin:round;stroke-miterlimit:1.5"
   id="svg55"
   sodipodi:docname="license-expired.svg"
   inkscape:version="1.4 (1:1.4+202410161351+e7c3feb100)"
   xmlns:inkscape="http://www.inkscape.org/namespaces/inkscape"
   xmlns:sodipodi="http://sodipodi.sourceforge.net/DTD/sodipodi-0.dtd"
   xmlns="http://www.w3.org/2000/svg"
   xmlns:svg="http://www.w3.org/2000/svg"><defs
   id="defs55" /><sodipodi:namedview
   id="namedview55"
   pagecolor="#ffffff"
   bordercolor="#000000"
   borderopacity="0.25"
   inkscape:showpageshadow="2"
   inkscape:pageopacity="0.0"
   inkscape:pagecheckerboard="0"
   inkscape:deskcolor="#d1d1d1"
   inkscape:zoom="0.40649875"
   inkscape:cx="-148.83195"
   inkscape:cy="369.00482"
   inkscape:window-width="1920"
   inkscape:window-height="1052"
   inkscape:window-x="0"
   inkscape:window-y="0"
   inkscape:window-maximized="1"
   inkscape:current-layer="svg55" />
    <g
   transform="matrix(2.71123,0,0,2.71123,-2204.4084,-31861.959)"
   id="g1">
        <path
   d="m 816.877,11924 c 94.309,17.7 171.545,-2.9 159.257,19.1 -5.749,10.2 -50.501,17.5 -38.892,20.5 21.347,5.3 48.313,10.5 110.598,-11.2 36.97,-12.8 61.65,-46.2 29.86,-46.1 -165.314,0.5 -288.133,12.5 -260.823,17.7 z"
   style="fill:#b6fcf4;fill-opacity:0.44"
   id="path1" />
    </g>
    <g
   transform="matrix(2.71123,0,0,2.71123,-2974.6784,-17530.759)"
   id="g14">
        <path
   d="m 1163.62,6552.68 c 0.34,0.26 1.81,0.03 2.17,0.04 2.54,0.01 5.09,0.02 7.63,0.02 8.17,0 12.08,-1.19 20.16,0.58"
   style="fill:none;stroke:#5660ff;stroke-width:2px"
   id="path2" />
        <path
   d="m 1173.33,6498.96 c -9.46,0.36 -15.73,20.79 -16.97,21.45 -1.6,0.85 -17.02,-5.69 -18.72,-6.87"
   style="fill:none;stroke:#5660ff;stroke-width:2px"
   id="path3" />
        <path
   d="m 1137.64,6513.54 c 0,1.07 -4.34,3.74 -4.34,3.96 0.04,1.56 22.1,14.94 25.9,13.54 4.32,-1.6 6.33,-6.82 8.8,-10.55"
   style="fill:none;stroke:#5660ff;stroke-width:2px"
   id="path4" />
        <path
   d="m 1173.33,6498.96 c 15.09,1.26 25.45,21.89 26.65,18.66 1.68,-4.52 11.14,-10.23 13.05,-12.09"
   style="fill:none;stroke:#5660ff;stroke-width:2px"
   id="path5" />
        <path
   d="m 1191.96,6526.84 c 0.21,-0.03 7.07,5.97 9.07,4.3 6.97,-5.79 11.5,-13.09 13.58,-17.07 0.57,-1.09 2.65,-3.83 2.2,-5.18 -0.61,-1.78 -2.29,-2.29 -3.78,-3.44"
   style="fill:none;stroke:#5660ff;stroke-width:2px"
   id="path6" />
        <g
   transform="matrix(-1.69962,0.335519,0.32176,1.62992,1757.37,6134.06)"
   id="g7">
            <path
   d="m 360.512,135.92 c 0.394,5.991 2.931,8.282 5.56,9.464 0.947,0.426 2.061,0.724 2.973,0.006 3.604,-2.836 0.385,-10.877 -3.645,-11.667 -1.855,-0.364 -3.783,0.816 -4.888,2.197 -0.414,0.518 -0.821,1.121 -1.111,1.718 -0.018,0.037 -0.362,1.288 -0.481,0.829 -0.797,-3.086 1.926,-10.108 5.975,-8.978 1.85,0.516 7.107,2.164 5.35,9.799"
   style="fill:none;stroke:#5660ff;stroke-width:1.18px"
   id="path7" />
        </g>
        <g
   transform="matrix(-1.5964,-0.0623961,-0.0578469,1.48001,1772.58,6301.97)"
   id="g8">
            <path
   d="m 359.883,160.883 c -5.707,16.141 -2.321,59.305 -1.763,63.354 0.323,2.339 -3.027,1.782 -3.706,1.66 -1.666,-0.299 -3.79,1.323 -4.593,2.93 -0.824,1.648 1.149,3.088 2.653,2.993 2.981,-0.187 7.55,-2.657 9.96,-4.274"
   style="fill:none;stroke:#5660ff;stroke-width:1.3px"
   id="path8" />
        </g>
        <g
   transform="matrix(-1.5964,-0.0623961,-0.0578469,1.48001,1772.58,6301.97)"
   id="g9">
            <path
   d="m 363.811,197.237 c 0.337,5.049 3.369,31.024 2.225,32.322 -0.399,0.452 -0.947,0.523 -1.441,0.643 -1.07,0.259 -6.389,2.039 -3.112,3.414 1.472,0.618 3.384,0.566 4.937,0.436 0.82,-0.068 1.63,-0.201 2.432,-0.384 0.581,-0.133 0.581,-0.149 1.116,-0.296 1.499,-0.412 1.868,-0.135 2.158,-1.64 0.072,-0.378 0.165,-0.766 0.258,-1.139 0.182,-0.72 0.381,-1.436 0.555,-2.158 0.234,-0.97 1.08,-2.029 0.643,-2.926 -1.982,-4.072 1.609,-33.394 1.999,-55.979"
   style="fill:none;stroke:#5660ff;stroke-width:1.3px"
   id="path9" />
        </g>
        <path
   d="m 1137.62,6514.08 c -0.41,-2.61 -3.63,-2.18 -5.66,-2.57 -0.87,-0.17 -1.85,-0.34 -2.48,-1.02 -0.45,-0.49 -1.22,-2 -2.08,-1.99 -0.24,0 -0.74,0.92 -0.9,1.1 -0.69,0.72 -2.59,1.75 -1.71,2.89 0.55,0.71 1.49,1.16 2.28,1.54 1.39,0.67 2.83,1.19 4.26,1.78 0.84,0.35 2.12,0.88 3.08,0.72"
   style="fill:none;stroke:#5660ff;stroke-width:2px"
   id="path10" />
        <path
   d="m 1213.03,6505.53 c -0.11,-0.07 0.3,-0.34 0.32,-0.35 0.43,-0.24 0.91,-0.27 1.38,-0.33 1.14,-0.14 2.25,-0.4 3.33,-0.75 1.69,-0.55 3.27,-1.3 4.4,-2.7 0.28,-0.35 1.21,-1.96 1.51,-1.94 0.53,0.03 0.93,0.89 1.12,1.26 0.64,1.22 1.44,2.86 0.81,4.22 -0.76,1.66 -2.83,2.07 -4.41,2.52 -1.74,0.49 -3.13,0.79 -4.95,0.92"
   style="fill:none;stroke:#5660ff;stroke-width:2px"
   id="path11" />
        <path
   d="m 1165.1,6618.31 c 3.03,0 6.68,0.67 9.5,-0.6"
   style="fill:none;stroke:#5660ff;stroke-width:2px"
   id="path12" />
        <path
   d="m 1181.28,6613.17 c 1.4,0 3,0.2 4.35,-0.26 0.92,-0.32 1.65,-1.05 2.51,-1.48"
   style="fill:none;stroke:#5660ff;stroke-width:2px"
   id="path13" />
        <path
   d="m 1180.83,6616.12 c 0,-1.83 -2.13,-30.28 -2.23,-32.3"
   style="fill:none;stroke:#5660ff;stroke-width:2px"
   id="path14" />
    </g>
    <g
   transform="matrix(2.71123,0,0,2.71123,-2212.2984,-31843.659)"
   id="g15">
        <path
   d="m 1074.59,11820.8 c 9,3.1 22.4,11.9 22.56,30.7 0.12,14 -4.74,22.8 -16.24,30.8 -7.81,5.5 -34.77,8.7 -45.18,-7.3 -5.97,-9.2 -9.43,-33.9 -0.62,-42.9 18.03,-18.3 37.18,-12.1 39.48,-11.3 z"
   style="fill:none;stroke:#656fff;stroke-width:2px;stroke-miterlimit:3"
   id="path15" />
    </g>
    <g
   transform="matrix(2.96761,0,0,2.96761,-2484.9484,-34882.559)"
   id="g16">
        <path
   d="m 1074.59,11820.8 c 9,3.1 22.4,11.9 22.56,30.7 0.12,14 -4.74,22.8 -16.24,30.8 -7.81,5.5 -34.77,8.7 -45.18,-7.3 -5.97,-9.2 -9.43,-33.9 -0.62,-42.9 18.03,-18.3 37.18,-12.1 39.48,-11.3 z"
   style="fill:none;stroke:#656fff;stroke-width:1.83px;stroke-miterlimit:3"
   id="path16" />
    </g>
    <g
   transform="matrix(2.71123,0,0,2.71123,-2212.2984,-31843.659)"
   id="g17">
        <path
   d="m 1055.58,11814.9 c -1.75,-10.6 -14.28,-11.1 -19.26,-6.3 -2.9,2.8 -7.68,5.2 -6.14,14.2 1.16,6.9 4.13,2.7 10.48,-0.1 8,-3.5 7.94,-3.5 14.92,-7.8 z"
   style="fill:none;stroke:#656fff;stroke-width:2px;stroke-miterlimit:3"
   id="path17" />
    </g>
    <g
   transform="matrix(2.71123,0,0,2.71123,-2212.2984,-31843.659)"
   id="g18">
        <path
   d="m 1077.37,11808.8 c 6.68,-2 25,3.6 14.86,14.8 -0.93,1.1 -1.1,1.4 -2.19,0.6 -10.26,-7.7 -9.92,-8.6 -15.61,-9.8 -1.4,-0.3 0.45,-4.8 2.94,-5.6 z"
   style="fill:none;stroke:#656fff;stroke-width:2px;stroke-miterlimit:3"
   id="path18" />
    </g>
    <g
   transform="matrix(2.71123,0,0,2.71123,-2214.6884,-31852.259)"
   id="g19">
        <path
   d="m 1065.38,11819.1 c 0,-0.4 0,-5.4 0.38,-5.6 0.27,-0.2 0.41,-0.3 3.8,-1.1 -0.65,-3.4 -0.23,-3.7 -1.22,-4.1 -0.64,-0.2 -0.65,-0.2 -8.5,0.2 -0.43,1.2 -1.71,4.1 0.75,4.4 2.2,0.3 1.56,1.4 1.16,5.7"
   style="fill:none;stroke:#656fff;stroke-width:2px;stroke-miterlimit:3"
   id="path19" />
    </g>
    <g
   transform="matrix(2.71123,0,0,2.71123,-2212.2984,-31843.659)"
   id="g20">
        <path
   d="m 1038.11,11806.8 c -0.07,-5.5 5.66,-9.6 23.65,-9.9 12.71,-0.3 29.24,1.5 27.6,13.4"
   style="fill:none;stroke:#656fff;stroke-width:2px;stroke-miterlimit:3"
   id="path20" />
    </g>
    <g
   transform="matrix(2.71123,0,0,2.71123,-2219.1084,-31834.759)"
   id="g21">
        <path
   d="m 1037.85,11897.1 c 2.76,-0.5 1.92,-5.1 -0.81,-6.3 -3.26,-1.4 3.3,-10.2 6.43,-8.5 2.49,1.4 -2.75,9.8 -4.93,10.3 -2.76,0.6 -3.66,0.1 -3.99,2.8 -0.26,2.3 3.01,1.7 3.3,1.7 z"
   style="fill:none;stroke:#656fff;stroke-width:2px;stroke-miterlimit:3"
   id="path21" />
    </g>
    <g
   transform="matrix(-1.95641,0,0,2.71123,2764.2916,-31834.759)"
   id="g22">
        <path
   d="m 1037.85,11897.1 c 2.76,-0.5 1.92,-5.1 -0.81,-6.3 -3.26,-1.4 3.3,-10.2 6.43,-8.5 2.49,1.4 -2.75,9.8 -4.93,10.3 -2.76,0.6 -3.66,0.1 -3.99,2.8 -0.26,2.3 3.01,1.7 3.3,1.7 z"
   style="fill:none;stroke:#656fff;stroke-width:2.29px;stroke-miterlimit:3"
   id="path22" />
    </g>
    <g
   transform="matrix(2.71123,0,0,2.71123,-2212.2984,-31843.659)"
   id="g23">
        <path
   d="m 1064.05,11820.7 v 1.2"
   style="fill:none;stroke:#656fff;stroke-width:2px;stroke-miterlimit:3"
   id="path23" />
    </g>
    <g
   transform="matrix(2.71123,0,0,2.71123,-2212.2984,-31843.659)"
   id="g24">
        <path
   d="m 1062.19,11886.6 v -2.7"
   style="fill:none;stroke:#656fff;stroke-width:2px;stroke-miterlimit:3"
   id="path24" />
    </g>
    <g
   transform="matrix(2.71123,0,0,2.71123,-2212.2984,-31843.659)"
   id="g25">
        <path
   d="m 1044.48,11882.3 c 0.39,-1.2 0.33,-1.1 1.02,-2.2"
   style="fill:none;stroke:#656fff;stroke-width:2px;stroke-miterlimit:3"
   id="path25" />
    </g>
    <g
   transform="matrix(2.71123,0,0,2.71123,-2212.2984,-31843.659)"
   id="g26">
        <path
   d="m 1033.74,11868.4 h 1"
   style="fill:none;stroke:#656fff;stroke-width:2px;stroke-miterlimit:3"
   id="path26" />
    </g>
    <g
   transform="matrix(2.71123,0,0,2.71123,-2212.2984,-31843.659)"
   id="g27">
        <path
   d="m 1030.88,11852.3 h 2.83"
   style="fill:none;stroke:#656fff;stroke-width:2px;stroke-miterlimit:3"
   id="path27" />
    </g>
    <g
   transform="matrix(2.71123,0,0,2.71123,-2212.2984,-31843.659)"
   id="g28">
        <path
   d="m 1034.4,11834.7 c 0.47,0.3 0.93,0.5 1.4,0.8"
   style="fill:none;stroke:#656fff;stroke-width:2px;stroke-miterlimit:3"
   id="path28" />
    </g>
    <g
   transform="matrix(2.71123,0,0,2.71123,-2212.2984,-31843.659)"
   id="g29">
        <path
   d="m 1047.58,11824.5 0.9,1.5"
   style="fill:none;stroke:#656fff;stroke-width:2px;stroke-miterlimit:3"
   id="path29" />
    </g>
    <g
   transform="matrix(2.71123,0,0,2.71123,-2212.2984,-31843.659)"
   id="g30">
        <path
   d="m 1079.95,11824 c -0.52,0.4 -1.03,0.8 -1.54,1.2"
   style="fill:none;stroke:#656fff;stroke-width:2px;stroke-miterlimit:3"
   id="path30" />
    </g>
    <g
   transform="matrix(2.71123,0,0,2.71123,-2212.2984,-31843.659)"
   id="g31">
        <path
   d="m 1092.65,11836.9 c -1.66,0.1 -1.61,0 -3.29,0.4"
   style="fill:none;stroke:#656fff;stroke-width:2px;stroke-miterlimit:3"
   id="path31" />
    </g>
    <g
   transform="matrix(2.71123,0,0,2.71123,-2212.2984,-31843.659)"
   id="g32">
        <path
   d="m 1096.29,11854.5 h -1.84"
   style="fill:none;stroke:#656fff;stroke-width:2px;stroke-miterlimit:3"
   id="path32" />
    </g>
    <g
   transform="matrix(2.71123,0,0,2.71123,-2212.2984,-31843.659)"
   id="g33">
        <path
   d="m 1091.39,11871.5 c -1.31,-0.6 -1.29,-0.6 -2.35,-1.6"
   style="fill:none;stroke:#656fff;stroke-width:2px;stroke-miterlimit:3"
   id="path33" />
    </g>
    <g
   transform="matrix(2.71123,0,0,2.71123,-2212.2984,-31843.659)"
   id="g34">
        <path
   d="m 1079.25,11883 c -0.31,-0.6 -0.62,-1.3 -0.93,-2"
   style="fill:none;stroke:#656fff;stroke-width:2px;stroke-miterlimit:3"
   id="path34" />
    </g>
    <g
   transform="matrix(3.36035,0,0,3.36035,-2818.1684,-39529.259)"
   id="g52">
        <g
   transform="matrix(12,0,0,12,1018.51,11847.5)"
   id="g35">
            <path
   d="M 0.232,0.01 C 0.177,0.01 0.135,-0.006 0.107,-0.038 0.079,-0.069 0.065,-0.116 0.065,-0.177 V -0.65 c 0,-0.021 0.005,-0.036 0.016,-0.047 0.011,-0.011 0.026,-0.016 0.046,-0.016 0.02,0 0.036,0.005 0.047,0.016 0.011,0.011 0.016,0.026 0.016,0.047 v 0.467 c 0,0.031 0.007,0.053 0.02,0.068 0.013,0.015 0.031,0.022 0.055,0.022 0.005,0 0.01,0 0.015,-0.001 0.005,0 0.009,0 0.014,-0.001 0.009,-0.001 0.016,0.001 0.019,0.007 0.003,0.007 0.005,0.02 0.005,0.039 0,0.017 -0.003,0.03 -0.01,0.039 C 0.301,-0.001 0.29,0.005 0.275,0.007 0.268,0.008 0.261,0.008 0.254,0.009 0.247,0.01 0.239,0.01 0.232,0.01 Z"
   style="fill:#5660ff;fill-rule:nonzero"
   id="path35" />
        </g>
        <g
   transform="matrix(12,0,0,12,1022.33,11847.5)"
   id="g36">
            <path
   d="M 0.127,0.007 C 0.107,0.007 0.092,0.001 0.081,-0.011 0.07,-0.023 0.065,-0.04 0.065,-0.061 v -0.367 c 0,-0.022 0.005,-0.039 0.016,-0.051 0.011,-0.011 0.026,-0.017 0.046,-0.017 0.02,0 0.036,0.006 0.047,0.017 0.011,0.012 0.016,0.029 0.016,0.051 v 0.367 c 0,0.021 -0.005,0.038 -0.016,0.05 C 0.163,0.001 0.148,0.007 0.127,0.007 Z m 0,-0.596 c -0.023,0 -0.041,-0.006 -0.054,-0.018 -0.014,-0.011 -0.02,-0.027 -0.02,-0.048 0,-0.021 0.006,-0.038 0.02,-0.049 0.013,-0.011 0.031,-0.017 0.054,-0.017 0.024,0 0.042,0.006 0.055,0.017 0.013,0.011 0.019,0.028 0.019,0.049 0,0.021 -0.006,0.037 -0.019,0.048 -0.013,0.012 -0.031,0.018 -0.055,0.018 z"
   style="fill:#5660ff;fill-rule:nonzero"
   id="path36" />
        </g>
        <g
   transform="matrix(12,0,0,12,1025.39,11847.5)"
   id="g37">
            <path
   d="M 0.291,0.01 C 0.24,0.01 0.195,-0.001 0.157,-0.022 0.119,-0.043 0.09,-0.072 0.069,-0.111 0.048,-0.15 0.038,-0.195 0.038,-0.247 c 0,-0.039 0.006,-0.074 0.018,-0.106 0.011,-0.031 0.028,-0.057 0.05,-0.079 0.022,-0.021 0.049,-0.038 0.08,-0.05 0.031,-0.011 0.066,-0.017 0.105,-0.017 0.022,0 0.046,0.003 0.072,0.009 0.025,0.006 0.049,0.016 0.072,0.03 0.011,0.007 0.018,0.015 0.021,0.024 0.003,0.009 0.004,0.019 0.002,0.028 -0.002,0.01 -0.006,0.018 -0.012,0.025 -0.007,0.007 -0.015,0.012 -0.024,0.013 -0.009,0.002 -0.02,0 -0.031,-0.006 C 0.376,-0.385 0.361,-0.391 0.346,-0.396 0.331,-0.4 0.316,-0.402 0.302,-0.402 c -0.022,0 -0.041,0.003 -0.058,0.01 -0.017,0.007 -0.031,0.017 -0.042,0.03 -0.012,0.013 -0.021,0.03 -0.027,0.049 -0.006,0.019 -0.009,0.042 -0.009,0.067 0,0.049 0.012,0.088 0.036,0.116 0.023,0.029 0.057,0.043 0.1,0.043 0.014,0 0.029,-0.002 0.044,-0.006 0.015,-0.004 0.03,-0.01 0.045,-0.019 0.011,-0.006 0.022,-0.008 0.031,-0.006 0.009,0.002 0.016,0.006 0.022,0.013 0.006,0.008 0.01,0.016 0.011,0.025 0.001,0.01 0,0.02 -0.003,0.029 C 0.448,-0.042 0.441,-0.034 0.431,-0.028 0.409,-0.015 0.386,-0.005 0.361,0.001 0.336,0.007 0.313,0.01 0.291,0.01 Z"
   style="fill:#5660ff;fill-rule:nonzero"
   id="path37" />
        </g>
        <g
   transform="matrix(12,0,0,12,1030.94,11847.5)"
   id="g38">
            <path
   d="M 0.306,0.01 C 0.251,0.01 0.203,0 0.163,-0.021 0.123,-0.042 0.092,-0.071 0.071,-0.109 0.049,-0.147 0.038,-0.192 0.038,-0.244 c 0,-0.051 0.011,-0.095 0.032,-0.133 0.021,-0.038 0.05,-0.068 0.087,-0.09 0.037,-0.021 0.079,-0.032 0.126,-0.032 0.035,0 0.066,0.006 0.094,0.017 0.027,0.011 0.051,0.028 0.071,0.049 0.019,0.021 0.034,0.047 0.045,0.077 0.01,0.031 0.015,0.065 0.015,0.103 0,0.012 -0.004,0.021 -0.012,0.027 -0.009,0.007 -0.021,0.01 -0.036,0.01 H 0.139 V -0.288 H 0.42 L 0.404,-0.273 C 0.404,-0.304 0.4,-0.329 0.391,-0.35 0.382,-0.371 0.369,-0.387 0.352,-0.398 0.335,-0.409 0.313,-0.414 0.288,-0.414 c -0.028,0 -0.052,0.006 -0.071,0.019 -0.02,0.013 -0.035,0.032 -0.045,0.055 -0.011,0.024 -0.016,0.052 -0.016,0.085 v 0.007 c 0,0.055 0.013,0.095 0.039,0.122 0.025,0.028 0.063,0.041 0.113,0.041 0.017,0 0.037,-0.002 0.059,-0.007 0.021,-0.004 0.042,-0.011 0.061,-0.022 0.014,-0.008 0.026,-0.012 0.037,-0.011 0.011,0.001 0.019,0.005 0.026,0.012 0.006,0.007 0.01,0.015 0.011,0.024 0.001,0.01 -0.001,0.02 -0.005,0.03 -0.005,0.01 -0.014,0.019 -0.026,0.026 -0.023,0.015 -0.05,0.025 -0.08,0.032 C 0.36,0.007 0.332,0.01 0.306,0.01 Z"
   style="fill:#5660ff;fill-rule:nonzero"
   id="path38" />
        </g>
        <g
   transform="matrix(12,0,0,12,1037.44,11847.5)"
   id="g39">
            <path
   d="M 0.127,0.008 C 0.107,0.008 0.092,0.003 0.081,-0.009 0.07,-0.02 0.065,-0.035 0.065,-0.056 v -0.378 c 0,-0.021 0.005,-0.036 0.016,-0.047 0.011,-0.011 0.026,-0.016 0.045,-0.016 0.019,0 0.034,0.005 0.045,0.016 0.011,0.011 0.016,0.026 0.016,0.047 v 0.068 L 0.176,-0.391 c 0.015,-0.035 0.038,-0.062 0.069,-0.081 0.031,-0.018 0.066,-0.027 0.105,-0.027 0.039,0 0.072,0.007 0.097,0.022 0.025,0.015 0.044,0.037 0.057,0.066 0.013,0.03 0.019,0.068 0.019,0.113 v 0.242 c 0,0.021 -0.005,0.036 -0.016,0.047 C 0.496,0.003 0.481,0.008 0.461,0.008 0.441,0.008 0.426,0.003 0.415,-0.009 0.404,-0.02 0.398,-0.035 0.398,-0.056 V -0.292 C 0.398,-0.33 0.391,-0.358 0.377,-0.375 0.362,-0.392 0.34,-0.401 0.31,-0.401 0.273,-0.401 0.244,-0.39 0.223,-0.367 0.201,-0.343 0.19,-0.313 0.19,-0.275 v 0.219 c 0,0.043 -0.021,0.064 -0.063,0.064 z"
   style="fill:#5660ff;fill-rule:nonzero"
   id="path39" />
        </g>
        <g
   transform="matrix(12,0,0,12,1044.46,11847.5)"
   id="g40">
            <path
   d="M 0.244,0.01 C 0.215,0.01 0.185,0.007 0.153,0.001 0.121,-0.005 0.092,-0.015 0.067,-0.03 0.056,-0.037 0.049,-0.045 0.045,-0.054 0.04,-0.063 0.039,-0.072 0.04,-0.081 0.041,-0.09 0.044,-0.097 0.05,-0.104 c 0.005,-0.007 0.013,-0.011 0.022,-0.013 0.009,-0.002 0.018,0 0.029,0.005 0.027,0.013 0.052,0.021 0.075,0.026 0.023,0.005 0.046,0.008 0.069,0.008 0.032,0 0.056,-0.006 0.072,-0.017 C 0.332,-0.106 0.34,-0.12 0.34,-0.138 0.34,-0.153 0.335,-0.165 0.325,-0.174 0.314,-0.182 0.299,-0.188 0.278,-0.192 l -0.1,-0.019 C 0.137,-0.219 0.105,-0.234 0.084,-0.257 0.062,-0.279 0.051,-0.308 0.051,-0.343 c 0,-0.032 0.009,-0.06 0.027,-0.083 0.017,-0.023 0.042,-0.041 0.073,-0.054 0.031,-0.013 0.067,-0.019 0.108,-0.019 0.029,0 0.057,0.003 0.083,0.009 0.025,0.007 0.05,0.017 0.074,0.03 0.01,0.005 0.017,0.012 0.021,0.021 0.003,0.009 0.004,0.017 0.002,0.026 -0.002,0.009 -0.006,0.017 -0.012,0.024 -0.006,0.007 -0.014,0.012 -0.022,0.013 -0.009,0.002 -0.02,0 -0.031,-0.005 C 0.353,-0.392 0.334,-0.399 0.315,-0.404 0.296,-0.409 0.277,-0.411 0.26,-0.411 c -0.033,0 -0.057,0.006 -0.072,0.017 -0.016,0.011 -0.024,0.026 -0.024,0.045 0,0.014 0.005,0.026 0.014,0.035 0.009,0.009 0.024,0.016 0.043,0.019 l 0.1,0.019 c 0.043,0.008 0.076,0.023 0.099,0.044 0.022,0.021 0.033,0.05 0.033,0.086 0,0.049 -0.019,0.087 -0.057,0.114 C 0.358,-0.004 0.307,0.01 0.244,0.01 Z"
   style="fill:#5660ff;fill-rule:nonzero"
   id="path40" />
        </g>
        <g
   transform="matrix(12,0,0,12,1050.32,11847.5)"
   id="g41">
            <path
   d="M 0.306,0.01 C 0.251,0.01 0.203,0 0.163,-0.021 0.123,-0.042 0.092,-0.071 0.071,-0.109 0.049,-0.147 0.038,-0.192 0.038,-0.244 c 0,-0.051 0.011,-0.095 0.032,-0.133 0.021,-0.038 0.05,-0.068 0.087,-0.09 0.037,-0.021 0.079,-0.032 0.126,-0.032 0.035,0 0.066,0.006 0.094,0.017 0.027,0.011 0.051,0.028 0.071,0.049 0.019,0.021 0.034,0.047 0.045,0.077 0.01,0.031 0.015,0.065 0.015,0.103 0,0.012 -0.004,0.021 -0.012,0.027 -0.009,0.007 -0.021,0.01 -0.036,0.01 H 0.139 V -0.288 H 0.42 L 0.404,-0.273 C 0.404,-0.304 0.4,-0.329 0.391,-0.35 0.382,-0.371 0.369,-0.387 0.352,-0.398 0.335,-0.409 0.313,-0.414 0.288,-0.414 c -0.028,0 -0.052,0.006 -0.071,0.019 -0.02,0.013 -0.035,0.032 -0.045,0.055 -0.011,0.024 -0.016,0.052 -0.016,0.085 v 0.007 c 0,0.055 0.013,0.095 0.039,0.122 0.025,0.028 0.063,0.041 0.113,0.041 0.017,0 0.037,-0.002 0.059,-0.007 0.021,-0.004 0.042,-0.011 0.061,-0.022 0.014,-0.008 0.026,-0.012 0.037,-0.011 0.011,0.001 0.019,0.005 0.026,0.012 0.006,0.007 0.01,0.015 0.011,0.024 0.001,0.01 -0.001,0.02 -0.005,0.03 -0.005,0.01 -0.014,0.019 -0.026,0.026 -0.023,0.015 -0.05,0.025 -0.08,0.032 C 0.36,0.007 0.332,0.01 0.306,0.01 Z"
   style="fill:#5660ff;fill-rule:nonzero"
   id="path41" />
        </g>
        <g
   transform="matrix(12,0,0,12,1056.82,11847.5)"
   id="g42">
        </g>
        <g
   transform="matrix(12,0,0,12,1015.37,11859.5)"
   id="g43">
            <path
   d="M 0.306,0.01 C 0.251,0.01 0.203,0 0.163,-0.021 0.123,-0.042 0.092,-0.071 0.071,-0.109 0.049,-0.147 0.038,-0.192 0.038,-0.244 c 0,-0.051 0.011,-0.095 0.032,-0.133 0.021,-0.038 0.05,-0.068 0.087,-0.09 0.037,-0.021 0.079,-0.032 0.126,-0.032 0.035,0 0.066,0.006 0.094,0.017 0.027,0.011 0.051,0.028 0.071,0.049 0.019,0.021 0.034,0.047 0.045,0.077 0.01,0.031 0.015,0.065 0.015,0.103 0,0.012 -0.004,0.021 -0.012,0.027 -0.009,0.007 -0.021,0.01 -0.036,0.01 H 0.139 V -0.288 H 0.42 L 0.404,-0.273 C 0.404,-0.304 0.4,-0.329 0.391,-0.35 0.382,-0.371 0.369,-0.387 0.352,-0.398 0.335,-0.409 0.313,-0.414 0.288,-0.414 c -0.028,0 -0.052,0.006 -0.071,0.019 -0.02,0.013 -0.035,0.032 -0.045,0.055 -0.011,0.024 -0.016,0.052 -0.016,0.085 v 0.007 c 0,0.055 0.013,0.095 0.039,0.122 0.025,0.028 0.063,0.041 0.113,0.041 0.017,0 0.037,-0.002 0.059,-0.007 0.021,-0.004 0.042,-0.011 0.061,-0.022 0.014,-0.008 0.026,-0.012 0.037,-0.011 0.011,0.001 0.019,0.005 0.026,0.012 0.006,0.007 0.01,0.015 0.011,0.024 0.001,0.01 -0.001,0.02 -0.005,0.03 -0.005,0.01 -0.014,0.019 -0.026,0.026 -0.023,0.015 -0.05,0.025 -0.08,0.032 C 0.36,0.007 0.332,0.01 0.306,0.01 Z"
   style="fill:#5660ff;fill-rule:nonzero"
   id="path42" />
        </g>
        <g
   transform="matrix(12,0,0,12,1021.82,11859.5)"
   id="g44">
            <path
   d="M 0.099,0.005 C 0.084,0.005 0.072,0.001 0.063,-0.008 0.053,-0.016 0.048,-0.027 0.048,-0.04 0.047,-0.053 0.053,-0.067 0.064,-0.082 l 0.162,-0.2 v 0.059 L 0.074,-0.41 C 0.062,-0.425 0.056,-0.439 0.057,-0.452 c 0.001,-0.013 0.006,-0.024 0.016,-0.033 0.009,-0.008 0.021,-0.012 0.036,-0.012 0.015,0 0.028,0.003 0.039,0.008 0.01,0.005 0.019,0.014 0.028,0.025 l 0.12,0.154 H 0.252 l 0.121,-0.154 c 0.009,-0.011 0.019,-0.02 0.029,-0.025 0.01,-0.005 0.022,-0.008 0.037,-0.008 0.015,0 0.028,0.004 0.037,0.013 0.009,0.009 0.014,0.02 0.015,0.033 0,0.013 -0.006,0.027 -0.018,0.042 L 0.322,-0.224 V -0.28 l 0.162,0.198 c 0.012,0.014 0.018,0.028 0.017,0.041 C 0.5,-0.028 0.495,-0.017 0.486,-0.008 0.476,0.001 0.463,0.005 0.448,0.005 0.433,0.005 0.421,0.002 0.411,-0.003 0.401,-0.008 0.391,-0.017 0.382,-0.028 L 0.252,-0.192 H 0.294 L 0.165,-0.028 C 0.156,-0.017 0.147,-0.009 0.137,-0.004 0.127,0.002 0.114,0.005 0.099,0.005 Z"
   style="fill:#5660ff;fill-rule:nonzero"
   id="path43" />
        </g>
        <g
   transform="matrix(12,0,0,12,1028.37,11859.5)"
   id="g45">
            <path
   d="M 0.127,0.188 C 0.107,0.188 0.092,0.183 0.081,0.172 0.07,0.161 0.065,0.146 0.065,0.125 v -0.559 c 0,-0.021 0.005,-0.036 0.016,-0.047 0.011,-0.011 0.026,-0.016 0.045,-0.016 0.02,0 0.035,0.005 0.046,0.016 0.011,0.011 0.016,0.026 0.016,0.047 v 0.078 l -0.011,-0.03 c 0.01,-0.034 0.031,-0.061 0.062,-0.082 0.031,-0.021 0.067,-0.031 0.108,-0.031 0.043,0 0.08,0.01 0.113,0.031 0.032,0.021 0.057,0.05 0.075,0.087 0.018,0.038 0.027,0.083 0.027,0.136 0,0.052 -0.009,0.097 -0.027,0.135 C 0.517,-0.071 0.492,-0.042 0.46,-0.021 0.428,0 0.39,0.01 0.347,0.01 0.306,0.01 0.271,0 0.24,-0.021 0.209,-0.041 0.189,-0.067 0.178,-0.1 H 0.19 V 0.125 C 0.19,0.146 0.185,0.161 0.174,0.172 0.163,0.183 0.147,0.188 0.127,0.188 Z m 0.185,-0.273 c 0.025,0 0.046,-0.006 0.065,-0.018 0.019,-0.012 0.033,-0.03 0.044,-0.054 0.01,-0.023 0.015,-0.053 0.015,-0.088 0,-0.053 -0.011,-0.093 -0.034,-0.12 -0.023,-0.026 -0.053,-0.039 -0.09,-0.039 -0.025,0 -0.046,0.006 -0.065,0.017 -0.019,0.012 -0.033,0.03 -0.043,0.053 -0.011,0.024 -0.016,0.054 -0.016,0.089 0,0.053 0.011,0.092 0.034,0.119 0.023,0.028 0.053,0.041 0.09,0.041 z"
   style="fill:#5660ff;fill-rule:nonzero"
   id="path44" />
        </g>
        <g
   transform="matrix(12,0,0,12,1035.57,11859.5)"
   id="g46">
            <path
   d="M 0.127,0.007 C 0.107,0.007 0.092,0.001 0.081,-0.011 0.07,-0.023 0.065,-0.04 0.065,-0.061 v -0.367 c 0,-0.022 0.005,-0.039 0.016,-0.051 0.011,-0.011 0.026,-0.017 0.046,-0.017 0.02,0 0.036,0.006 0.047,0.017 0.011,0.012 0.016,0.029 0.016,0.051 v 0.367 c 0,0.021 -0.005,0.038 -0.016,0.05 C 0.163,0.001 0.148,0.007 0.127,0.007 Z m 0,-0.596 c -0.023,0 -0.041,-0.006 -0.054,-0.018 -0.014,-0.011 -0.02,-0.027 -0.02,-0.048 0,-0.021 0.006,-0.038 0.02,-0.049 0.013,-0.011 0.031,-0.017 0.054,-0.017 0.024,0 0.042,0.006 0.055,0.017 0.013,0.011 0.019,0.028 0.019,0.049 0,0.021 -0.006,0.037 -0.019,0.048 -0.013,0.012 -0.031,0.018 -0.055,0.018 z"
   style="fill:#5660ff;fill-rule:nonzero"
   id="path45" />
        </g>
        <g
   transform="matrix(12,0,0,12,1038.63,11859.5)"
   id="g47">
            <path
   d="M 0.129,0.008 C 0.108,0.008 0.093,0.003 0.082,-0.009 0.071,-0.02 0.065,-0.035 0.065,-0.056 v -0.378 c 0,-0.021 0.005,-0.036 0.016,-0.047 0.011,-0.011 0.026,-0.016 0.045,-0.016 0.019,0 0.034,0.005 0.045,0.016 0.011,0.011 0.016,0.026 0.016,0.047 v 0.063 h -0.01 c 0.009,-0.04 0.028,-0.07 0.055,-0.091 0.027,-0.021 0.064,-0.033 0.109,-0.037 0.014,-0.001 0.025,0.002 0.034,0.01 0.008,0.009 0.013,0.022 0.014,0.039 0.001,0.017 -0.002,0.03 -0.011,0.04 -0.009,0.011 -0.023,0.017 -0.041,0.019 l -0.022,0.002 c -0.041,0.004 -0.071,0.016 -0.092,0.037 -0.021,0.021 -0.031,0.051 -0.031,0.089 v 0.207 c 0,0.021 -0.005,0.036 -0.016,0.047 C 0.165,0.003 0.15,0.008 0.129,0.008 Z"
   style="fill:#5660ff;fill-rule:nonzero"
   id="path46" />
        </g>
        <g
   transform="matrix(12,0,0,12,1043.27,11859.5)"
   id="g48">
            <path
   d="M 0.306,0.01 C 0.251,0.01 0.203,0 0.163,-0.021 0.123,-0.042 0.092,-0.071 0.071,-0.109 0.049,-0.147 0.038,-0.192 0.038,-0.244 c 0,-0.051 0.011,-0.095 0.032,-0.133 0.021,-0.038 0.05,-0.068 0.087,-0.09 0.037,-0.021 0.079,-0.032 0.126,-0.032 0.035,0 0.066,0.006 0.094,0.017 0.027,0.011 0.051,0.028 0.071,0.049 0.019,0.021 0.034,0.047 0.045,0.077 0.01,0.031 0.015,0.065 0.015,0.103 0,0.012 -0.004,0.021 -0.012,0.027 -0.009,0.007 -0.021,0.01 -0.036,0.01 H 0.139 V -0.288 H 0.42 L 0.404,-0.273 C 0.404,-0.304 0.4,-0.329 0.391,-0.35 0.382,-0.371 0.369,-0.387 0.352,-0.398 0.335,-0.409 0.313,-0.414 0.288,-0.414 c -0.028,0 -0.052,0.006 -0.071,0.019 -0.02,0.013 -0.035,0.032 -0.045,0.055 -0.011,0.024 -0.016,0.052 -0.016,0.085 v 0.007 c 0,0.055 0.013,0.095 0.039,0.122 0.025,0.028 0.063,0.041 0.113,0.041 0.017,0 0.037,-0.002 0.059,-0.007 0.021,-0.004 0.042,-0.011 0.061,-0.022 0.014,-0.008 0.026,-0.012 0.037,-0.011 0.011,0.001 0.019,0.005 0.026,0.012 0.006,0.007 0.01,0.015 0.011,0.024 0.001,0.01 -0.001,0.02 -0.005,0.03 -0.005,0.01 -0.014,0.019 -0.026,0.026 -0.023,0.015 -0.05,0.025 -0.08,0.032 C 0.36,0.007 0.332,0.01 0.306,0.01 Z"
   style="fill:#5660ff;fill-rule:nonzero"
   id="path47" />
        </g>
        <g
   transform="matrix(12,0,0,12,1049.78,11859.5)"
   id="g49">
            <path
   d="M 0.253,0.01 C 0.21,0.01 0.173,0 0.141,-0.021 0.108,-0.042 0.083,-0.071 0.065,-0.11 0.047,-0.148 0.038,-0.193 0.038,-0.245 c 0,-0.053 0.009,-0.098 0.027,-0.136 0.018,-0.037 0.043,-0.066 0.076,-0.087 0.032,-0.021 0.069,-0.031 0.112,-0.031 0.041,0 0.076,0.01 0.107,0.03 0.03,0.02 0.05,0.046 0.061,0.079 H 0.41 v -0.26 c 0,-0.021 0.005,-0.036 0.016,-0.047 0.011,-0.011 0.026,-0.016 0.046,-0.016 0.02,0 0.035,0.005 0.047,0.016 0.011,0.011 0.016,0.026 0.016,0.047 v 0.594 c 0,0.021 -0.005,0.036 -0.016,0.047 C 0.508,0.003 0.493,0.008 0.473,0.008 0.453,0.008 0.438,0.003 0.427,-0.009 0.416,-0.02 0.411,-0.035 0.411,-0.056 v -0.078 l 0.011,0.03 C 0.412,-0.069 0.392,-0.042 0.361,-0.021 0.33,0 0.294,0.01 0.253,0.01 Z m 0.035,-0.095 c 0.025,0 0.046,-0.006 0.065,-0.018 0.019,-0.012 0.033,-0.03 0.044,-0.054 0.01,-0.023 0.015,-0.053 0.015,-0.088 0,-0.053 -0.011,-0.093 -0.034,-0.12 -0.023,-0.026 -0.053,-0.039 -0.09,-0.039 -0.025,0 -0.046,0.006 -0.065,0.017 -0.019,0.012 -0.033,0.03 -0.043,0.053 -0.011,0.024 -0.016,0.054 -0.016,0.089 0,0.053 0.011,0.092 0.034,0.119 0.023,0.028 0.053,0.041 0.09,0.041 z"
   style="fill:#5660ff;fill-rule:nonzero"
   id="path48" />
        </g>
        <g
   transform="matrix(12,0,0,12,1056.98,11859.5)"
   id="g50">
            <path
   d="M 0.125,-0.203 C 0.112,-0.203 0.102,-0.207 0.096,-0.215 0.089,-0.223 0.084,-0.234 0.083,-0.249 l -0.03,-0.382 c -0.002,-0.025 0.003,-0.045 0.016,-0.06 0.013,-0.014 0.031,-0.022 0.056,-0.022 0.024,0 0.042,0.008 0.055,0.022 0.012,0.015 0.017,0.035 0.015,0.06 l -0.03,0.382 c -0.001,0.015 -0.004,0.026 -0.011,0.034 -0.007,0.008 -0.017,0.012 -0.029,0.012 z m 0,0.208 C 0.102,0.005 0.084,-0.002 0.071,-0.016 0.057,-0.03 0.05,-0.048 0.05,-0.07 c 0,-0.021 0.007,-0.039 0.021,-0.053 0.013,-0.013 0.031,-0.02 0.054,-0.02 0.023,0 0.042,0.007 0.055,0.02 0.013,0.014 0.019,0.032 0.019,0.053 0,0.022 -0.006,0.04 -0.019,0.054 -0.013,0.014 -0.032,0.021 -0.055,0.021 z"
   style="fill:#5660ff;fill-rule:nonzero"
   id="path49" />
        </g>
        <g
   transform="matrix(12,0,0,12,1059.95,11859.5)"
   id="g51">
        </g>
    </g>
    <g
   transform="matrix(2.71123,0,0,2.71123,-2212.2984,-31843.659)"
   id="g53">
        <path
   d="m 1017.44,11846.1 c -3.47,9.7 -3.08,19.1 0.91,24.8"
   style="fill:none;stroke:#656fff;stroke-width:2px;stroke-miterlimit:3"
   id="path52" />
    </g>
    <g
   transform="matrix(2.71123,0,0,2.53351,-2234.1684,-29733.959)"
   id="g54">
        <path
   d="m 1017.44,11846.1 c -3.47,9.7 -3.08,19.1 0.91,24.8"
   style="fill:none;stroke:#656fff;stroke-width:2.07px;stroke-miterlimit:3"
   id="path53" />
    </g>
    <g
   transform="matrix(2.70007,0,0,1.99235,-2247.2584,-23323.259)"
   id="g55">
        <path
   d="m 1017.44,11846.1 c -3.47,9.7 -3.08,19.1 0.91,24.8"
   style="fill:none;stroke:#656fff;stroke-width:2.29px;stroke-miterlimit:3"
   id="path54" />
    </g>
</svg>
