<?xml version="1.0" encoding="UTF-8" standalone="no"?>
<!DOCTYPE svg PUBLIC "-//W3C//DTD SVG 1.1//EN" "http://www.w3.org/Graphics/SVG/1.1/DTD/svg11.dtd">
<svg width="100%" height="100%" viewBox="0 0 500 400" version="1.1" xmlns="http://www.w3.org/2000/svg" xmlns:xlink="http://www.w3.org/1999/xlink" xml:space="preserve" xmlns:serif="http://www.serif.com/" style="fill-rule:evenodd;clip-rule:evenodd;stroke-linecap:round;stroke-linejoin:round;stroke-miterlimit:1.5;">
    <g transform="matrix(1.41805,0,0,1.41805,-282.196,-4253.92)">
        <g transform="matrix(0.716228,0,0,0.716228,-689.813,-1557.72)">
            <path d="M1356.61,6438.51L1365.55,6438.51C1365.55,6438.51 1369.3,6436.83 1371.91,6433.53C1374.53,6430.24 1371.93,6421.73 1371.93,6421.73C1371.93,6421.73 1379.64,6412.65 1382.08,6412.87C1384.51,6413.1 1389.38,6417.31 1389.38,6417.31C1389.38,6417.31 1401.77,6414.6 1402,6413.78C1402.22,6412.95 1404.12,6405.3 1404.12,6405.3L1419.13,6405.31C1419.13,6405.31 1421.63,6411.93 1422.98,6413.72C1424.33,6415.51 1433.81,6418.13 1433.81,6418.13L1441.79,6411.66C1441.79,6411.66 1451.35,6419.27 1454.75,6420.76C1458.15,6422.26 1451.88,6429.2 1451.15,6430.79C1450.44,6432.38 1455.76,6440.54 1457.47,6440.8C1459.17,6441.05 1468.01,6440.06 1468.01,6440.06C1468.01,6440.06 1473.93,6452.73 1473.93,6454.22C1473.93,6455.7 1464.57,6460.4 1464.23,6460.37C1463.89,6460.34 1463.68,6471.27 1464.34,6471.76C1465,6472.25 1472.36,6477.98 1472.36,6477.98C1472.36,6477.98 1469.82,6490.68 1469.12,6493.65C1468.42,6496.62 1458.71,6492.91 1456.81,6492.88C1454.9,6492.85 1448.66,6498.71 1450.64,6501.66C1452.61,6504.61 1454.69,6510.68 1454.69,6510.68L1441.69,6520.92C1441.69,6520.92 1436.21,6515.91 1434.31,6514.6C1432.4,6513.28 1425.6,6517.33 1424.02,6517.33C1422.44,6517.33 1421.34,6526.01 1421.45,6527.15C1421.55,6528.3 1407.34,6526.37 1405.23,6527.57C1403.12,6528.78 1401.52,6517.21 1401.52,6517.21L1390.76,6513.54L1382.08,6520.58L1369.82,6510.09C1369.82,6510.09 1371.74,6505.73 1372.48,6502.82C1373.22,6499.91 1368.02,6494.24 1367.08,6493.41C1366.14,6492.58 1356.21,6491.84 1356.02,6491.84C1355.84,6491.84 1352.63,6479.14 1352.06,6478.11C1351.49,6477.09 1359.66,6472.67 1360.34,6472C1361.02,6471.33 1361.42,6461.55 1360.79,6461.21C1360.17,6460.87 1351.88,6455.47 1351.88,6455.47C1351.88,6455.47 1356.82,6439.19 1356.61,6438.51Z" style="fill:none;stroke:rgb(86,96,255);stroke-width:1.97px;"/>
        </g>
        <g transform="matrix(0.716228,0,0,0.716228,-689.813,-1557.72)">
            <path d="M1331.64,6483.68L1345.62,6485.78L1344.73,6494.56C1344.73,6494.56 1350.94,6498.86 1351.88,6498.64C1352.81,6498.41 1360.66,6495.76 1360.66,6495.76C1360.66,6495.76 1367.49,6504.77 1367.95,6504.25C1368.41,6503.73 1363.56,6514.02 1363.25,6513.62C1362.93,6513.22 1364.25,6520.49 1364.44,6520.9C1364.64,6521.31 1373.52,6525.35 1373.52,6525.35L1371.35,6537.15C1371.35,6537.15 1363.31,6538.72 1362.85,6538.26C1362.39,6537.8 1357.43,6545.63 1357.43,6545.63C1357.43,6545.63 1360.14,6552.85 1361.22,6552.89C1362.3,6552.92 1353.28,6560.28 1351.88,6561.03C1350.48,6561.79 1344.52,6556.72 1344.1,6556.42C1343.68,6556.12 1335.56,6557.29 1335.56,6557.29C1335.56,6557.29 1331.65,6564.43 1331.7,6564.56C1331.75,6564.68 1322.06,6563.73 1319.85,6564.75C1317.64,6565.77 1319.13,6557.32 1319.51,6556.25C1319.88,6555.18 1314.53,6551.12 1312.23,6551.09C1309.93,6551.06 1302.31,6555.28 1302.29,6554.36C1302.26,6553.45 1295.68,6543.62 1295.68,6543.62C1295.68,6543.62 1300.41,6537.44 1300.95,6537.23C1301.5,6537.01 1300.72,6530.09 1299.85,6528.75C1298.98,6527.41 1293.33,6525.42 1292.19,6525.33C1291.04,6525.24 1291.17,6512.12 1292.18,6512.1C1293.19,6512.07 1300.4,6512.48 1300.92,6512.24C1301.44,6512 1305.13,6505.99 1305.53,6504.12C1305.92,6502.26 1303.77,6495.93 1302.35,6495.91C1300.93,6495.88 1311.57,6487.57 1312.62,6487.85C1313.67,6488.13 1320.67,6494.28 1320.94,6494.32C1321.22,6494.37 1329.66,6492.14 1329.66,6492.14L1331.64,6483.68Z" style="fill:none;stroke:rgb(86,96,255);stroke-width:1.97px;"/>
        </g>
    </g>
    <g transform="matrix(0.947502,-0.319749,0.319749,0.947502,-568.952,-201.877)">
        <path d="M587.291,498.953C579.771,498.428 568.424,516.711 567.311,523.847C566.365,529.918 573.871,561.15 592.819,561.884C599.944,562.16 579.869,549.486 577.599,530.157C574.755,505.938 600.456,499.872 587.291,498.953Z" style="fill:rgb(89,248,229);fill-opacity:0.16;"/>
    </g>
    <g transform="matrix(1.01,0,0,1.01,-1753.79,-8685.7)">
        <circle cx="1828.42" cy="8761.59" r="15.74" style="fill:none;stroke:rgb(86,96,255);stroke-width:1.98px;stroke-miterlimit:3;"/>
    </g>
    <g transform="matrix(1.01,0,0,1.01,-1672.07,-8744.38)">
        <circle cx="1828.42" cy="8761.59" r="15.74" style="fill:none;stroke:rgb(86,96,255);stroke-width:1.98px;stroke-miterlimit:3;"/>
    </g>
    <g transform="matrix(1.19859,-1.15531,1.15297,1.19616,-1667.72,876.039)">
        <g transform="matrix(0.851664,-0.524088,0.524088,0.851664,-57.3729,641.306)">
            <g transform="matrix(12,0,0,12,1104.22,422.006)">
                <path d="M0.078,0.007C0.064,0.007 0.054,0.004 0.046,-0.002C0.038,-0.008 0.033,-0.016 0.032,-0.026C0.031,-0.036 0.033,-0.047 0.038,-0.06L0.309,-0.668C0.316,-0.684 0.324,-0.695 0.334,-0.702C0.345,-0.709 0.356,-0.712 0.369,-0.712C0.381,-0.712 0.392,-0.709 0.403,-0.702C0.413,-0.695 0.421,-0.684 0.428,-0.668L0.699,-0.06C0.705,-0.047 0.707,-0.036 0.706,-0.025C0.705,-0.015 0.7,-0.007 0.693,-0.001C0.685,0.005 0.675,0.007 0.662,0.007C0.647,0.007 0.635,0.004 0.627,-0.004C0.618,-0.011 0.611,-0.023 0.604,-0.038L0.535,-0.2L0.581,-0.172L0.155,-0.172L0.201,-0.2L0.132,-0.038C0.125,-0.022 0.118,-0.01 0.11,-0.003C0.102,0.004 0.091,0.007 0.078,0.007ZM0.367,-0.59L0.216,-0.232L0.191,-0.256L0.545,-0.256L0.521,-0.232L0.369,-0.59L0.367,-0.59Z" style="fill:rgb(86,96,255);fill-rule:nonzero;"/>
            </g>
        </g>
        <g transform="matrix(0.970791,-0.239925,0.239925,0.970791,-67.75,278.991)">
            <g transform="matrix(12,0,0,12,1111.97,417.751)">
                <path d="M0.134,0.007C0.117,0.007 0.105,0.003 0.096,-0.007C0.087,-0.016 0.083,-0.029 0.083,-0.046L0.083,-0.659C0.083,-0.676 0.087,-0.69 0.096,-0.699C0.105,-0.708 0.117,-0.712 0.134,-0.712C0.151,-0.712 0.163,-0.708 0.172,-0.699C0.181,-0.69 0.186,-0.676 0.186,-0.659L0.186,-0.046C0.186,-0.029 0.181,-0.016 0.173,-0.007C0.164,0.003 0.151,0.007 0.134,0.007Z" style="fill:rgb(86,96,255);fill-rule:nonzero;"/>
            </g>
        </g>
        <g transform="matrix(0.988352,0.152188,-0.152188,0.988352,76.4194,-165.336)">
            <g transform="matrix(12,0,0,12,1118.28,416.546)">
                <path d="M0.227,0.009C0.193,0.009 0.163,0.003 0.136,-0.011C0.109,-0.024 0.088,-0.042 0.072,-0.065C0.057,-0.088 0.049,-0.114 0.049,-0.142C0.049,-0.178 0.058,-0.207 0.077,-0.227C0.095,-0.248 0.125,-0.263 0.168,-0.272C0.21,-0.281 0.267,-0.286 0.339,-0.286L0.387,-0.286L0.387,-0.224L0.34,-0.224C0.292,-0.224 0.254,-0.222 0.226,-0.217C0.198,-0.213 0.178,-0.205 0.166,-0.194C0.155,-0.183 0.149,-0.167 0.149,-0.148C0.149,-0.123 0.158,-0.102 0.175,-0.086C0.192,-0.071 0.216,-0.063 0.247,-0.063C0.271,-0.063 0.293,-0.069 0.312,-0.08C0.33,-0.092 0.345,-0.108 0.356,-0.128C0.367,-0.148 0.373,-0.171 0.373,-0.197L0.373,-0.312C0.373,-0.35 0.365,-0.377 0.349,-0.394C0.333,-0.41 0.307,-0.419 0.27,-0.419C0.249,-0.419 0.227,-0.416 0.204,-0.411C0.181,-0.405 0.157,-0.396 0.132,-0.384C0.121,-0.379 0.111,-0.377 0.103,-0.379C0.095,-0.381 0.089,-0.386 0.084,-0.392C0.08,-0.399 0.077,-0.407 0.077,-0.415C0.077,-0.424 0.079,-0.432 0.083,-0.44C0.087,-0.448 0.094,-0.454 0.105,-0.458C0.135,-0.472 0.164,-0.482 0.192,-0.488C0.221,-0.494 0.248,-0.497 0.273,-0.497C0.317,-0.497 0.354,-0.49 0.383,-0.476C0.412,-0.462 0.434,-0.44 0.448,-0.412C0.462,-0.383 0.469,-0.346 0.469,-0.302L0.469,-0.044C0.469,-0.028 0.465,-0.015 0.457,-0.006C0.449,0.003 0.438,0.007 0.422,0.007C0.407,0.007 0.395,0.003 0.387,-0.006C0.379,-0.015 0.374,-0.028 0.374,-0.044L0.374,-0.109L0.383,-0.109C0.378,-0.085 0.368,-0.064 0.354,-0.046C0.34,-0.028 0.322,-0.015 0.3,-0.005C0.279,0.005 0.255,0.009 0.227,0.009Z" style="fill:rgb(86,96,255);fill-rule:nonzero;"/>
            </g>
        </g>
        <g transform="matrix(0.879829,0.475291,-0.475291,0.879829,333.608,-484.386)">
            <g transform="matrix(12,0,0,12,1124.7,417.535)">
                <path d="M0.257,0.009C0.214,0.009 0.177,-0.001 0.145,-0.021C0.112,-0.042 0.087,-0.071 0.069,-0.11C0.051,-0.148 0.042,-0.193 0.042,-0.244C0.042,-0.296 0.051,-0.341 0.069,-0.379C0.087,-0.416 0.112,-0.446 0.144,-0.466C0.177,-0.487 0.214,-0.497 0.257,-0.497C0.3,-0.497 0.336,-0.486 0.367,-0.465C0.398,-0.444 0.419,-0.416 0.43,-0.381L0.419,-0.381L0.419,-0.661C0.419,-0.678 0.423,-0.691 0.432,-0.699C0.441,-0.708 0.453,-0.712 0.469,-0.712C0.485,-0.712 0.498,-0.708 0.507,-0.699C0.516,-0.691 0.52,-0.678 0.52,-0.661L0.52,-0.044C0.52,-0.028 0.516,-0.015 0.507,-0.006C0.498,0.003 0.486,0.007 0.47,0.007C0.454,0.007 0.441,0.003 0.433,-0.006C0.424,-0.015 0.42,-0.028 0.42,-0.044L0.42,-0.132L0.431,-0.11C0.42,-0.074 0.4,-0.045 0.369,-0.023C0.337,-0.001 0.3,0.009 0.257,0.009ZM0.283,-0.069C0.31,-0.069 0.335,-0.076 0.355,-0.089C0.376,-0.103 0.392,-0.122 0.404,-0.148C0.415,-0.174 0.421,-0.206 0.421,-0.244C0.421,-0.301 0.408,-0.345 0.383,-0.374C0.358,-0.403 0.324,-0.418 0.283,-0.418C0.255,-0.418 0.23,-0.412 0.21,-0.399C0.189,-0.385 0.173,-0.366 0.161,-0.34C0.15,-0.314 0.144,-0.282 0.144,-0.244C0.144,-0.187 0.157,-0.144 0.182,-0.114C0.207,-0.084 0.241,-0.069 0.283,-0.069Z" style="fill:rgb(86,96,255);fill-rule:nonzero;"/>
            </g>
        </g>
        <g transform="matrix(0.648538,0.761182,-0.761182,0.648538,717.955,-712.911)">
            <g transform="matrix(12,0,0,12,1130.97,421.003)">
                <path d="M0.257,0.009C0.214,0.009 0.177,-0.001 0.145,-0.021C0.112,-0.042 0.087,-0.071 0.069,-0.11C0.051,-0.148 0.042,-0.193 0.042,-0.244C0.042,-0.296 0.051,-0.341 0.069,-0.379C0.087,-0.416 0.112,-0.446 0.144,-0.466C0.177,-0.487 0.214,-0.497 0.257,-0.497C0.3,-0.497 0.336,-0.486 0.367,-0.465C0.398,-0.444 0.419,-0.416 0.43,-0.381L0.419,-0.381L0.419,-0.661C0.419,-0.678 0.423,-0.691 0.432,-0.699C0.441,-0.708 0.453,-0.712 0.469,-0.712C0.485,-0.712 0.498,-0.708 0.507,-0.699C0.516,-0.691 0.52,-0.678 0.52,-0.661L0.52,-0.044C0.52,-0.028 0.516,-0.015 0.507,-0.006C0.498,0.003 0.486,0.007 0.47,0.007C0.454,0.007 0.441,0.003 0.433,-0.006C0.424,-0.015 0.42,-0.028 0.42,-0.044L0.42,-0.132L0.431,-0.11C0.42,-0.074 0.4,-0.045 0.369,-0.023C0.337,-0.001 0.3,0.009 0.257,0.009ZM0.283,-0.069C0.31,-0.069 0.335,-0.076 0.355,-0.089C0.376,-0.103 0.392,-0.122 0.404,-0.148C0.415,-0.174 0.421,-0.206 0.421,-0.244C0.421,-0.301 0.408,-0.345 0.383,-0.374C0.358,-0.403 0.324,-0.418 0.283,-0.418C0.255,-0.418 0.23,-0.412 0.21,-0.399C0.189,-0.385 0.173,-0.366 0.161,-0.34C0.15,-0.314 0.144,-0.282 0.144,-0.244C0.144,-0.187 0.157,-0.144 0.182,-0.114C0.207,-0.084 0.241,-0.069 0.283,-0.069Z" style="fill:rgb(86,96,255);fill-rule:nonzero;"/>
            </g>
        </g>
        <g transform="matrix(0.356208,0.934407,-0.934407,0.356208,1129.56,-786.358)">
            <g transform="matrix(12,0,0,12,1135.44,426.548)">
                <path d="M0.105,-0.226C0.093,-0.226 0.083,-0.23 0.075,-0.238C0.067,-0.246 0.063,-0.256 0.063,-0.267C0.063,-0.279 0.067,-0.289 0.075,-0.297C0.083,-0.304 0.093,-0.308 0.105,-0.308L0.325,-0.308C0.336,-0.308 0.346,-0.304 0.354,-0.297C0.362,-0.289 0.366,-0.279 0.366,-0.267C0.366,-0.256 0.362,-0.246 0.354,-0.238C0.346,-0.23 0.336,-0.226 0.325,-0.226L0.105,-0.226Z" style="fill:rgb(86,96,255);fill-rule:nonzero;"/>
            </g>
        </g>
        <g transform="matrix(0.0229788,0.999736,-0.999736,0.0229788,1542.76,-715.517)">
            <g transform="matrix(12,0,0,12,1137.46,431.555)">
                <path d="M0.283,0.009C0.234,0.009 0.191,-0.001 0.156,-0.022C0.12,-0.042 0.092,-0.072 0.072,-0.11C0.052,-0.148 0.042,-0.193 0.042,-0.244C0.042,-0.283 0.048,-0.318 0.059,-0.349C0.07,-0.38 0.086,-0.406 0.108,-0.429C0.129,-0.451 0.154,-0.468 0.184,-0.479C0.213,-0.491 0.246,-0.497 0.283,-0.497C0.331,-0.497 0.374,-0.487 0.409,-0.466C0.445,-0.445 0.473,-0.416 0.493,-0.378C0.513,-0.34 0.523,-0.296 0.523,-0.244C0.523,-0.205 0.517,-0.17 0.506,-0.139C0.495,-0.108 0.479,-0.081 0.457,-0.059C0.436,-0.037 0.411,-0.02 0.382,-0.008C0.352,0.004 0.319,0.009 0.283,0.009ZM0.283,-0.069C0.31,-0.069 0.335,-0.076 0.355,-0.089C0.376,-0.103 0.392,-0.122 0.404,-0.148C0.415,-0.174 0.421,-0.206 0.421,-0.244C0.421,-0.301 0.408,-0.345 0.383,-0.374C0.358,-0.403 0.324,-0.418 0.283,-0.418C0.255,-0.418 0.23,-0.412 0.21,-0.399C0.189,-0.385 0.173,-0.366 0.161,-0.34C0.15,-0.314 0.144,-0.282 0.144,-0.244C0.144,-0.187 0.157,-0.144 0.182,-0.114C0.207,-0.084 0.241,-0.069 0.283,-0.069Z" style="fill:rgb(86,96,255);fill-rule:nonzero;"/>
            </g>
        </g>
        <g transform="matrix(-0.350288,0.936642,-0.936642,-0.350288,1946.75,-473.55)">
            <g transform="matrix(12,0,0,12,1137.62,438.417)">
                <path d="M0.121,0.007C0.105,0.007 0.092,0.003 0.084,-0.006C0.075,-0.015 0.071,-0.028 0.071,-0.044L0.071,-0.444C0.071,-0.461 0.075,-0.473 0.084,-0.482C0.092,-0.491 0.105,-0.495 0.12,-0.495C0.136,-0.495 0.148,-0.491 0.157,-0.482C0.165,-0.473 0.169,-0.461 0.169,-0.444L0.169,-0.366L0.158,-0.384C0.173,-0.421 0.196,-0.449 0.227,-0.468C0.258,-0.487 0.294,-0.497 0.335,-0.497C0.374,-0.497 0.406,-0.49 0.432,-0.476C0.457,-0.461 0.476,-0.44 0.489,-0.411C0.501,-0.382 0.508,-0.345 0.508,-0.301L0.508,-0.044C0.508,-0.028 0.503,-0.015 0.495,-0.006C0.486,0.003 0.474,0.007 0.458,0.007C0.441,0.007 0.429,0.003 0.42,-0.006C0.411,-0.015 0.407,-0.028 0.407,-0.044L0.407,-0.295C0.407,-0.337 0.399,-0.368 0.382,-0.387C0.366,-0.406 0.341,-0.416 0.306,-0.416C0.265,-0.416 0.233,-0.403 0.208,-0.378C0.184,-0.352 0.172,-0.318 0.172,-0.276L0.172,-0.044C0.172,-0.01 0.155,0.007 0.121,0.007Z" style="fill:rgb(86,96,255);fill-rule:nonzero;"/>
            </g>
        </g>
    </g>
    <g transform="matrix(1,0,0,1,-1226.81,-356.559)">
        <g transform="matrix(0.972265,0.233882,-0.233882,0.972265,165.556,-343.628)">
            <path d="M1534.11,492.58C1533.61,492.594 1533.75,494.761 1536.75,499.896C1546.57,516.72 1549.29,502.579 1549.28,501.568C1549.24,499.17 1541.25,488.49 1531.84,490.041C1525.45,491.095 1521.13,499.906 1526.88,498.092" style="fill:none;stroke:rgb(86,96,255);stroke-width:2px;"/>
        </g>
        <g transform="matrix(0.972265,0.233882,-0.233882,0.972265,160.249,-337.271)">
            <path d="M1538.67,485.224C1528.5,484.348 1524.21,504.887 1537.77,506.33C1548.75,507.497 1548.17,486.041 1538.67,485.224Z" style="fill:none;stroke:rgb(86,96,255);stroke-width:2px;"/>
        </g>
        <path d="M1523.91,525.191C1523.91,525.191 1515.12,526.141 1495.69,518.241L1489.81,524.093C1497.43,530.8 1521.92,535.963 1526.88,541.783" style="fill:none;stroke:rgb(86,96,255);stroke-width:2px;"/>
        <path d="M1541.61,536.408C1535.36,532.095 1508.59,515.785 1508.59,515.785L1511.74,509.366C1539.44,526.648 1547.15,513.679 1560.74,545.488C1568.88,564.545 1566.98,566.256 1566.17,566.686C1563.63,568.046 1532.97,571.237 1532.15,570.671C1530.12,569.287 1529.08,569.959 1526.88,541.497" style="fill:none;stroke:rgb(86,96,255);stroke-width:2px;"/>
        <path d="M1535.24,575.656C1535.24,612.361 1536.22,612.208 1533.88,648.928C1537.3,650.374 1544.85,650.13 1544.85,650.13C1544.85,650.13 1550.1,629.591 1550.76,601.834C1556.01,615.758 1557.04,616.931 1560.5,656.627C1564.48,657.194 1568.78,660.994 1570.11,649.585C1576.18,597.2 1567.73,573.107 1565.54,566.852" style="fill:none;stroke:rgb(86,96,255);stroke-width:2px;"/>
        <path d="M1533.88,648.928C1520.23,649.97 1524.35,657.327 1530.24,657.686C1538.37,658.181 1546.16,658.87 1544.85,650.13" style="fill:none;stroke:rgb(86,96,255);stroke-width:2px;"/>
        <path d="M1561.23,656.576C1549.33,657.431 1552.81,661.502 1553.07,661.685C1562.12,667.919 1567.44,662.746 1566.95,657.686" style="fill:none;stroke:rgb(86,96,255);stroke-width:2px;"/>
        <path d="M1511.74,509.366C1508.2,508.509 1503.04,499.149 1501.98,505.006C1501.89,505.497 1502.16,510.94 1508.59,515.785" style="fill:none;stroke:rgb(86,96,255);stroke-width:2px;"/>
        <path d="M1492.85,516.71C1488.56,516.043 1484.64,509.802 1483.28,516.376C1482.47,520.258 1487.55,522.871 1490,524.273" style="fill:none;stroke:rgb(86,96,255);stroke-width:2px;"/>
        <path d="M1495.72,518.003C1495.71,517.674 1495.63,514.305 1494.55,514.064C1493.67,513.87 1493.56,515.905 1492.85,516.71" style="fill:none;stroke:rgb(86,96,255);stroke-width:2px;"/>
    </g>
    <g id="neuron" transform="matrix(0.603503,0,0,0.603503,-465.716,-79.7249)">
        <clipPath id="_clip1">
            <rect x="856.521" y="529.296" width="658.832" height="194.89"/>
        </clipPath>
        <g clip-path="url(#_clip1)">
            <g transform="matrix(0.693886,-0.179633,-0.179633,-0.693886,-155.693,1842.4)">
                <path d="M1870.55,1304.43C1864.68,1297.63 1858.16,1276.44 1844.72,1288.2C1835.45,1296.31 1859.61,1303.5 1856.03,1311.11C1851.34,1321.08 1836.11,1332.24 1826.96,1338.34C1826.77,1338.47 1825.76,1339.35 1825.49,1339.17C1823.59,1337.91 1828.17,1313.76 1815.64,1324.36C1807.85,1330.95 1829.32,1347.1 1800.65,1366.22C1798.39,1367.72 1796.88,1363.41 1796.33,1362.08C1792.42,1352.71 1762.25,1324.95 1752.26,1334.94C1739.27,1347.92 1805.38,1350.98 1788.69,1382.96C1786.03,1388.06 1763.12,1407.1 1757.32,1405.31C1751.39,1403.49 1761.94,1380.32 1746.28,1390.5C1738.89,1395.31 1752.8,1402.83 1750.24,1408.99C1746.26,1418.54 1698.73,1437.71 1691.08,1435.03C1675.73,1429.66 1708.79,1391.05 1686.58,1392.16C1673.74,1392.8 1691.79,1428.57 1678.2,1436.87C1673.95,1439.47 1651.44,1436.8 1646.56,1435.67C1646.01,1435.55 1645.1,1435.27 1644.72,1434.75C1641.88,1430.89 1656.12,1414.7 1641.68,1414.7C1625.1,1414.7 1641.87,1433.83 1638.92,1438.62C1638.78,1438.84 1607.77,1440.67 1603.5,1439.81L1601.41,1441.16C1602.25,1436.95 1601.8,1433.18 1603.97,1429.21C1609.26,1419.55 1632.46,1403.83 1642.16,1397.61C1645.32,1395.58 1662.74,1384 1662.46,1380.85C1661.39,1368.69 1644.17,1381.06 1640.59,1383.94C1635.96,1387.67 1631.97,1392.22 1627.22,1395.79C1622.72,1399.16 1615.83,1400.56 1612.13,1404.83C1604.29,1413.88 1599.22,1425.5 1588.83,1431.82C1573.56,1441.1 1553.02,1437.23 1536.57,1434.13C1530.68,1433.02 1522.38,1433.46 1517.6,1429.21C1512.36,1424.56 1516.7,1412.75 1505.46,1409.44C1496.51,1406.81 1482.2,1409.87 1473.12,1411.16C1472.35,1411.27 1447.94,1420.17 1446.19,1441.14C1442.52,1485.17 1390.48,1500.51 1360.68,1510.09C1347.76,1514.25 1329.9,1514.27 1321.42,1501.98C1285,1449.2 1276.65,1459.18 1248.39,1462.95C1224.39,1466.15 1200.37,1483.65 1198.69,1487.91" style="fill:none;stroke:rgb(86,96,255);stroke-width:4.62px;"/>
            </g>
            <g transform="matrix(0.693886,-0.179633,-0.179633,-0.693886,-155.693,1842.4)">
                <path d="M1334.71,1527.95C1344.19,1533.22 1368.72,1520.55 1368.07,1521.25C1399.12,1513.48 1431.61,1502.94 1454.7,1479.85C1458.12,1476.43 1461.76,1469.56 1461.76,1464.63C1461.76,1461.22 1460.55,1453.55 1463.88,1451.29C1476.33,1442.86 1493.7,1455.14 1503.98,1456.78C1512.95,1458.22 1518,1450.28 1526.26,1449.8C1531.9,1449.47 1538.16,1451.64 1543.52,1453.13C1554.11,1456.08 1571.47,1458.14 1580.17,1465.92C1586.33,1471.44 1578.1,1474.93 1575.42,1478.2C1571.59,1482.89 1571.18,1490.19 1575.85,1494.29C1578.53,1496.64 1590.62,1500.25 1591.66,1494.17C1593.18,1485.37 1585.32,1474.51 1591.08,1465.73C1594.1,1461.12 1600.83,1459.5 1605.98,1460.16C1606.93,1460.28 1614.41,1463.86 1611.47,1464.43C1611.47,1468.18 1616.01,1480.94 1618.65,1483.35C1622.14,1486.54 1632.3,1481.48 1633.5,1477.54C1635.83,1469.93 1612.03,1474.16 1619.47,1462.46C1620.77,1460.42 1624.63,1460.75 1626.55,1460.91C1629.32,1461.14 1649.2,1463.23 1650.36,1463.79C1662.81,1469.71 1646.44,1479.88 1643.19,1485.81C1640.98,1489.84 1646.8,1490.95 1649.45,1490.43C1662.08,1487.95 1653.59,1466.59 1662.06,1460.59C1667.03,1457.07 1708.5,1456.37 1725.93,1449.18C1739.62,1443.53 1773.88,1429.26 1782.43,1420.71C1788.11,1415.03 1788.72,1409.73 1792.23,1403.02C1792.95,1401.65 1794.69,1398.4 1796.67,1398.76C1805.96,1400.45 1803.44,1418.7 1803.84,1424.75C1803.97,1426.67 1806.48,1432.67 1809.46,1429.69C1818.42,1420.73 1804.8,1407.53 1803.84,1397.94C1803.5,1394.59 1807.47,1390.52 1809.51,1388.19C1815.74,1381.08 1826.58,1369.82 1836.04,1367.24C1844.59,1364.91 1847.6,1379.45 1857.4,1370.96C1858.42,1370.08 1860.99,1368.5 1861.44,1367.15C1862.74,1363.25 1849.56,1363.82 1848.6,1363.7C1836.19,1362.19 1843.8,1351.23 1848.92,1346.11C1871.45,1323.58 1894.96,1341.08 1921.44,1334.72C1931.95,1332.2 1940.71,1325.67 1950.33,1321.12C1951.72,1320.46 1962.31,1314.05 1962.49,1314.66C1964.89,1312.02 1968.39,1310.62 1971.4,1308.82C1991.47,1296.77 1991.42,1312.57 1990.88,1328.15C1990.8,1330.63 1988.57,1341.74 1993.2,1340.99C2013.72,1337.66 1994.55,1318.22 1998.74,1306.5C2001.17,1299.69 2011.68,1297.8 2017.07,1294.72C2020.95,1292.5 2025.95,1288.47 2030.76,1289.43C2044.02,1292.08 2039.86,1312.08 2041.69,1321.05C2042.44,1324.77 2045.97,1331.4 2050.6,1328.05C2066.45,1316.57 2027.54,1292.88 2051.45,1277.6C2062.57,1270.5 2052.54,1297.9 2064.8,1292.5C2077.23,1287.03 2052.99,1271.51 2064.95,1269.19C2080.12,1266.26 2070.32,1301.92 2091.88,1288.02C2094.12,1286.58 2096.37,1284.71 2097.42,1282.18C2102.22,1270.66 2067.82,1274.27 2074.56,1264.16C2077.25,1260.12 2081.1,1258.32 2085.79,1257.81C2099.58,1256.31 2098.17,1262.72 2107.44,1270.7C2111.2,1273.94 2119.09,1276.1 2123,1271.86C2125.62,1269.02 2120.81,1263.2 2118.82,1261.34C2114.74,1257.52 2090.54,1256.31 2094.85,1248C2099.15,1239.7 2114.43,1234.2 2121.59,1229.37C2143.66,1214.47 2168.44,1204.13 2191.98,1192.36C2201.06,1187.82 2207.31,1178.97 2218.41,1178.46C2234.93,1177.71 2237.25,1211.85 2238.3,1221.81C2238.93,1227.82 2242.24,1235.12 2249.32,1234.7C2257.49,1234.22 2258.34,1224.99 2255.37,1218.64C2251.02,1209.36 2245.68,1199.72 2239.15,1191.81C2236.2,1188.23 2231.27,1183.65 2232.66,1178.56C2234.19,1172.94 2249.06,1181.41 2252.45,1176.9C2256.51,1171.48 2252.25,1163.04 2257.38,1157.42C2267.08,1146.8 2278.93,1145.35 2291.01,1138.64C2297.57,1135 2300.55,1129.43 2308.28,1127.61C2312.82,1126.54 2317.4,1126.74 2321.88,1125.25C2325.09,1124.17 2325.36,1122.9 2325.94,1123.4C2330.26,1121.96 2334.2,1114.71 2339.97,1117.18C2348.27,1120.74 2332.57,1143.08 2342.24,1142.27C2354.29,1141.27 2351.97,1125.1 2358.55,1119.21C2366.24,1112.33 2374.82,1115.85 2383.52,1111.99C2391.33,1108.52 2400.13,1101.52 2408.49,1100.04C2415.62,1098.78 2442.28,1095.48 2447.73,1096.16C2461.52,1097.88 2472.52,1102.98 2486.98,1102.13C2500.39,1101.34 2513.17,1091.88 2527.06,1092.69C2532.46,1093.01 2540.33,1093.42 2544.68,1097.05C2552.69,1103.73 2550.31,1115.67 2564.69,1110.19C2568.34,1108.81 2568.37,1104.67 2566.19,1101.95C2563.61,1098.74 2553.88,1095.38 2553.22,1092.1C2551.7,1084.46 2563.32,1070.65 2570.91,1070.11C2587.85,1068.9 2591.09,1088.8 2596.41,1099.44C2597.88,1102.37 2601.37,1115.65 2606.8,1110.67C2629.15,1090.19 2563.97,1073.97 2584.58,1054.82C2593.53,1046.51 2595.5,1076.23 2609.31,1073.64C2628.85,1069.97 2581.88,1054.88 2599.64,1043.95C2609.4,1037.94 2617.54,1070.63 2626.28,1074.71C2638.33,1080.34 2633.93,1065.52 2628.85,1059.84C2625.73,1056.36 2614.79,1051.54 2614.27,1047.12C2613.76,1042.77 2625.48,1041.66 2628.25,1041.38C2643.26,1039.88 2659.8,1038.76 2674.24,1044.67C2685.96,1049.46 2699.18,1057.22 2706.26,1068.08C2711.32,1075.84 2716.47,1095.26 2727.59,1097.11C2729.04,1097.36 2730.59,1096.99 2731.95,1096.52C2743.66,1092.48 2713.22,1069.4 2709.97,1065.51C2708.18,1063.38 2703.7,1058.21 2704.83,1055.06C2706.55,1050.24 2724.64,1062.46 2727.95,1063.12C2730.28,1063.59 2745.14,1060.9 2744.05,1062.43C2775.24,1069.12 2741.28,1115.42 2751.11,1119.63C2769.73,1127.61 2758.14,1069.06 2764.28,1063.54C2771.71,1056.86 2788.19,1066.81 2796.8,1067.67C2822.51,1070.24 2840.24,1046.87 2865.67,1054.82C2870.34,1056.28 2874.05,1064.17 2877.01,1067.83C2880.43,1072.05 2895.57,1085.04 2897.01,1072.11C2897.77,1065.21 2870.8,1055.61 2876.7,1048.87C2882.01,1042.79 2914.52,1050.29 2916.52,1058.31C2917.59,1062.59 2908.24,1065.58 2906.37,1068.46C2904.47,1071.38 2907.61,1080.01 2911.68,1076.95C2916.4,1073.41 2917.28,1058.66 2921.76,1057.99C2936.35,1055.8 2907.5,1095.77 2936.99,1087.58C2947.65,1084.62 2919.08,1062.31 2935.4,1059.34C2945.76,1057.45 2935.85,1100.02 2951.11,1088.77C2968.22,1076.17 2936.51,1058.3 2943.1,1043.47C2949.36,1029.38 2969.35,1052.54 2973.8,1041.41C2977.61,1031.89 2950.84,1035.64 2954.76,1029.11C2958.35,1023.13 2984.76,1030.62 2990.46,1029.99C2995.25,1029.45 3012.25,1014.34 3015.85,1019.99C3020.44,1027.21 3007.45,1038.12 3014.58,1044.74C3017.55,1047.51 3029.12,1046.24 3029.49,1041.01C3029.74,1037.63 3026.79,1033.39 3026.32,1029.91C3023.52,1009.2 3033.39,1004.6 3049.25,994.84C3054.28,991.746 3059.24,985.219 3065.19,984.368C3086.34,981.347 3059.77,1022.03 3078.76,1012.53C3095.05,1004.39 3079.37,987.867 3081.3,975.879C3084.41,956.563 3128.19,951.254 3120.38,933.834C3124.18,925.998 3093.42,939.079 3087.12,940.023C3081.23,940.907 3062.55,928.322 3061.58,929.615C3054.32,939.301 3084.68,945.198 3076.61,959.553C3066.06,978.297 3045.22,976.163 3030.04,987.773C3019.65,995.713 3012.98,1009.35 3001.6,1015.78C2995.71,1019.11 2987.87,1020.62 2981.21,1021.25C2968.35,1022.48 2955.21,1004.93 2945.27,1008.91C2939.99,1011.02 2954.1,1019.21 2949.13,1025.54C2942.34,1034.18 2915.65,1045.14 2905.89,1039.17C2904.21,1038.15 2926.46,989.668 2904.6,984.983C2902.83,984.605 2902.18,990.088 2902.02,990.992C2899.62,1004.71 2913.76,1022.75 2898.38,1031.66C2892.04,1035.33 2883.05,1033.84 2876.27,1032.73C2844.28,1027.53 2856.09,997.38 2838.93,1000.65C2826.61,1003 2853.03,1023.07 2850.41,1029.62C2848.44,1034.55 2800.24,1049.06 2794.18,1046.04C2779.43,1038.66 2818.17,1000.69 2813.5,983.159C2812.57,979.664 2811.78,970.105 2805.67,971.463C2793.29,974.213 2786.07,1046.56 2783.35,1048.08C2781.75,1048.96 2702.17,1043.98 2694.93,1042.5C2681.01,1039.65 2666.86,1033.72 2654.26,1027.15C2641.32,1020.4 2636.49,990.447 2620.25,997.216C2610.89,1001.11 2639.11,1023.84 2633.87,1029.51C2629.38,1034.38 2611.69,1017.69 2603.18,1020.07C2595.45,1022.24 2592.9,1037.06 2583.23,1041C2571.2,1045.9 2556.94,1051.96 2544.17,1054.19C2539.66,1054.98 2525.97,1051.97 2522.82,1053.98C2522.11,1054.43 2521.85,1055.34 2521.85,1056.12C2521.85,1073.78 2563.1,1057.32 2546.1,1076.94C2538.12,1086.15 2527.75,1074.05 2519.6,1074.37C2503.07,1075 2486.06,1084.7 2469.06,1086.06C2452.99,1087.35 2439.13,1076.08 2424.31,1076.08C2425.77,1075.88 2423.69,1075.27 2423.23,1075.09C2419.91,1073.82 2414.06,1070.88 2410.48,1071.36C2407.01,1071.83 2410.52,1079.86 2406.9,1078.83C2395.93,1075.69 2385.96,1056.73 2373.08,1059.7C2373.84,1059.75 2371.33,1063.82 2371.27,1063.9C2368.28,1068.28 2369.13,1070.48 2373.91,1073.15C2376.94,1074.85 2397.16,1079.35 2397.16,1083.5C2397.16,1090.58 2375.34,1090.47 2370.73,1091.12C2358.57,1092.8 2303.05,1106.95 2294.22,1113.35C2276.94,1125.86 2257.12,1136.35 2242.67,1152.46C2241.25,1154.05 2228.8,1165.53 2226.27,1162.49C2225.05,1161.02 2236.72,1145.91 2220.98,1143.13C2206.61,1140.59 2225.9,1158.43 2213.36,1164.98C2205.76,1168.94 2196.89,1168.89 2189.49,1173.37C2163.06,1189.39 2137,1210.96 2107.08,1220.65C2096.75,1223.99 2099.45,1203.48 2089.97,1209.68C2079.43,1216.58 2097.12,1223.08 2090.13,1231.69C2074.21,1251.28 2004.49,1294.42 1980.19,1299.1C1968.55,1301.33 1979.35,1273.54 1972.73,1266.36C1965.64,1258.68 1959.26,1273.32 1962.07,1279.35C1964.09,1283.67 1970.7,1288.37 1970.7,1293.65C1970.7,1302.1 1947.82,1296.86 1944.27,1298.01C1923,1304.89 1912.93,1324.32 1883.45,1312.31C1879.22,1310.59 1874.19,1310.28 1870.55,1304.43" style="fill:none;stroke:rgb(86,96,255);stroke-width:4.62px;"/>
            </g>
        </g>
    </g>
    <g transform="matrix(1,0,0,1,-248.692,-298.126)">
        <path d="M584.115,509.162C581.461,509.23 575.481,509.127 574.368,516.264C573.422,522.334 581.943,554.657 590.935,573.039C595.485,582.342 591.752,512.165 584.115,509.162Z" style="fill:rgb(86,96,255);fill-opacity:0.16;"/>
    </g>
</svg>
