<?xml version="1.0" encoding="UTF-8" standalone="no"?>
<!DOCTYPE svg PUBLIC "-//W3C//DTD SVG 1.1//EN" "http://www.w3.org/Graphics/SVG/1.1/DTD/svg11.dtd">
<svg width="100%" height="100%" viewBox="0 0 800 800" version="1.1" xmlns="http://www.w3.org/2000/svg" xmlns:xlink="http://www.w3.org/1999/xlink" xml:space="preserve" xmlns:serif="http://www.serif.com/" style="fill-rule:evenodd;clip-rule:evenodd;stroke-linecap:round;stroke-linejoin:round;stroke-miterlimit:1.5;">
    <g>
        <g transform="matrix(1.72843,-0.578237,0.578237,1.72843,-2416.15,-452.403)">
            <path d="M1136.3,989.754C1133.76,991.161 1130.89,991.736 1128.36,993.577C1119.8,999.821 1114.27,1022.15 1114.23,1022.78C1114.04,1025.74 1113.81,1028.37 1115.51,1029.51C1119.32,1032.07 1123.46,1030.32 1129.06,1026.85C1137.3,1021.75 1148.56,1017.04 1153.91,1008.53C1159.65,999.407 1153.95,987.599 1142.47,988.996" style="fill:rgb(128,133,255);fill-opacity:0.28;"/>
        </g>
        <g transform="matrix(-1.13095,-1.48484,-0.879224,0.669669,2563.05,1141.49)">
            <path d="M1111.97,1070.91C1107.07,1072.66 1105.06,1079.81 1102.98,1083.99C1097.1,1095.84 1091.28,1107.69 1086.03,1119.83C1083.2,1126.37 1080.57,1133.03 1078.89,1139.97C1078.54,1141.43 1076.98,1145.53 1077.61,1147.04C1078.03,1148.02 1078.75,1145.24 1079.29,1144.32C1079.8,1143.46 1081.59,1140.51 1082.05,1139.76C1085.54,1134.09 1089.18,1128.5 1093.2,1123.18C1104.65,1108 1120.47,1096.4 1130.55,1080.09C1133.94,1074.61 1139.63,1063.01 1129.38,1061.54C1127.73,1061.3 1126.64,1061.53 1125.1,1062.12" style="fill:rgb(182,252,244);fill-opacity:0.75;"/>
        </g>
        <g transform="matrix(-1.50279,-1.97305,-1.14575,0.872672,3603.49,1683.89)">
            <path d="M1111.97,1070.91C1107.07,1072.66 1105.06,1079.81 1102.98,1083.99C1097.1,1095.84 1091.28,1107.69 1086.03,1119.83C1083.2,1126.37 1080.57,1133.03 1078.89,1139.97C1078.54,1141.43 1076.98,1145.53 1077.61,1147.04C1078.03,1148.02 1078.75,1145.24 1079.29,1144.32C1079.8,1143.46 1081.59,1140.51 1082.05,1139.76C1085.54,1134.09 1089.18,1128.5 1093.2,1123.18C1104.65,1108 1120.47,1096.4 1130.55,1080.09C1133.94,1074.61 1139.63,1063.01 1129.38,1061.54C1127.73,1061.3 1126.64,1061.53 1125.1,1062.12" style="fill:rgb(182,252,244);fill-opacity:0.75;"/>
        </g>
    </g>
    <g>
        <g transform="matrix(7.30448,0,0,7.30448,-1803.28,-1501.43)">
            <path d="M260.377,306.045C260.26,306.63 260.324,304.851 260.293,304.255C260.23,303.056 260.199,301.859 260.105,300.661C259.808,296.883 259.514,293.112 259.142,289.34C259.129,289.204 258.666,286.028 259.071,286.028C262.422,286.028 265.796,286.422 269.172,286.286C272.55,286.15 275.948,285.69 279.296,285.229C280.166,285.109 283.171,284.815 283.447,285.228C283.747,285.679 283.86,289.926 283.876,290.866C283.95,295.167 282.862,301.518 284.275,305.759" style="fill:none;stroke:rgb(86,96,255);stroke-width:0.55px;"/>
        </g>
        <g transform="matrix(7.30448,0,0,7.30448,-1803.28,-1501.43)">
            <path d="M284.431,292.303C284.344,292.382 285.087,292.175 285.802,292.205C287.196,292.263 288.589,292.252 289.983,292.252C293.453,292.252 296.837,292.445 300.295,292.745C302.179,292.909 304.065,293.05 305.956,293.098C307.935,293.148 310.617,292.519 312.556,293.004C312.718,293.044 312.405,295.537 312.392,295.729C312.19,298.707 311.734,301.82 311.734,304.795" style="fill:none;stroke:rgb(86,96,255);stroke-width:0.55px;"/>
        </g>
        <g transform="matrix(7.30448,0,0,7.30448,-1803.28,-1501.43)">
            <path d="M304.633,292.625C304.522,290.048 304.994,282.66 305.627,279.075C305.707,278.621 305.912,275.315 306.261,275.082C306.598,274.857 319.842,275.41 323.599,275.591C324.307,275.625 323.081,282.096 323.056,283.256C322.906,290.157 322.93,298.33 321.792,305.161" style="fill:none;stroke:rgb(86,96,255);stroke-width:0.55px;"/>
        </g>
        <g transform="matrix(7.30448,0,0,7.30448,-1803.28,-1501.43)">
            <path d="M273.796,285.713C273.632,285.759 274.836,278.532 275.115,276.796C275.74,272.901 275.492,266.787 277.276,263.22C277.355,263.061 281.231,264.04 281.386,264.065C286.057,264.81 291.589,264.422 295.856,266.555C296.348,266.801 295.553,273.556 295.527,274.095C295.318,278.368 293.708,291.768 293.708,291.768C293.708,291.768 286.898,289.881 283.901,290.095" style="fill:none;stroke:rgb(86,96,255);stroke-width:0.55px;"/>
        </g>
        <g transform="matrix(7.30448,0,0,7.30448,-1803.28,-1501.43)">
            <path d="M297.402,274.019C297.398,274.022 296.736,263.497 298.181,261.763C298.704,261.135 301.228,261.754 301.869,261.763C305.635,261.819 309.405,261.833 313.167,262.069C314.835,262.173 321.301,261.525 322.234,263.924C322.697,265.115 321.843,275.591 321.843,275.591C321.843,275.591 312.589,275.094 311.926,275.04C308.236,274.741 299.473,274.029 297.402,274.019" style="fill:none;stroke:rgb(86,96,255);stroke-width:0.55px;"/>
        </g>
        <g transform="matrix(7.30448,0,0,7.30448,-1803.28,-1501.43)">
            <path d="M283.334,253.622C283.2,253.579 287.44,263.273 288.017,264.715" style="fill:none;stroke:rgb(86,96,255);stroke-width:0.55px;"/>
        </g>
        <g transform="matrix(7.30448,0,0,7.30448,-1803.28,-1501.43)">
            <path d="M290.218,264.981C291.436,264.44 292.662,263.918 293.882,263.384C298.89,261.193 304.016,259.468 308.765,256.755" style="fill:none;stroke:rgb(86,96,255);stroke-width:0.55px;"/>
        </g>
        <g transform="matrix(7.30448,0,0,7.30448,-1803.28,-1501.43)">
            <path d="M283.33,253.367C283.181,253.59 289.312,250.824 290.289,250.465C295.415,248.581 297.793,247.787 301.167,246.347" style="fill:none;stroke:rgb(86,96,255);stroke-width:0.55px;"/>
        </g>
        <g transform="matrix(7.30448,0,0,7.30448,-1803.28,-1501.43)">
            <path d="M304.856,245.801C304.895,246.495 305.776,248.364 305.838,248.539C306.817,251.295 308.318,254.259 308.765,256.755" style="fill:none;stroke:rgb(86,96,255);stroke-width:0.55px;"/>
        </g>
        <g transform="matrix(7.30448,0,0,7.30448,-1803.28,-1501.43)">
            <path d="M271.166,297.732C270.948,296.951 270.026,298.938 269.289,299.275C267.739,299.986 264.752,300.639 263.558,298.947C261.703,296.319 263.34,292.814 265.977,291.524C269.416,289.841 274.97,289.763 278.192,292.064C281.447,294.389 280.878,300.215 276.571,300.732C274.548,300.975 272.768,299.278 271.45,297.96" style="fill:none;stroke:rgb(86,96,255);stroke-width:0.55px;"/>
        </g>
        <g transform="matrix(7.30448,0,0,7.30448,-1803.28,-1501.43)">
            <path d="M265.255,298.463C264.746,299.105 265.259,296.767 265.625,296.034C266.234,294.816 268.607,292.814 269.806,294.413" style="fill:none;stroke:rgb(86,96,255);stroke-width:0.55px;"/>
        </g>
        <g transform="matrix(7.30448,0,0,7.30448,-1803.28,-1501.43)">
            <path d="M266.826,295.579C270.131,298.022 275.348,295.512 271.991,291.594" style="fill:none;stroke:rgb(86,96,255);stroke-width:0.55px;"/>
        </g>
        <g transform="matrix(7.30448,0,0,7.30448,-1803.28,-1501.43)">
            <path d="M273.247,295.133C273.676,294.603 275.371,295.525 275.537,295.987C276.247,297.957 274.444,299.769 272.531,299.769" style="fill:none;stroke:rgb(86,96,255);stroke-width:0.55px;"/>
        </g>
        <g transform="matrix(7.30448,0,0,7.30448,-1803.28,-1501.43)">
            <path d="M274.588,296.026C274.24,295.67 275.604,296.279 276.078,296.128C277.037,295.823 278.239,295.051 278.239,293.92" style="fill:none;stroke:rgb(86,96,255);stroke-width:0.55px;"/>
        </g>
        <g transform="matrix(7.30448,0,0,7.30448,-1803.28,-1501.43)">
            <path d="M284.933,274.504C284.135,272.763 286.383,268.961 288.104,270.854C288.611,271.411 288.816,275.246 287.611,275.246" style="fill:none;stroke:rgb(86,96,255);stroke-width:0.55px;"/>
        </g>
        <g transform="matrix(7.30448,0,0,7.30448,-1803.28,-1501.43)">
            <path d="M284.46,274.584C284.506,273.502 282.266,276.522 282.091,276.89C281.134,278.9 281.532,282.578 284.04,283.232C287.413,284.112 290.08,276.253 286.859,274.964" style="fill:none;stroke:rgb(86,96,255);stroke-width:0.55px;"/>
        </g>
        <g transform="matrix(7.30448,0,0,7.30448,-1803.28,-1501.43)">
            <path d="M284.123,277.807C282.237,277.246 282.448,272.287 280,271.911C277.933,271.592 277.295,277.808 278.098,278.84C279.264,280.34 282.997,278.417 284.581,278.417" style="fill:none;stroke:rgb(86,96,255);stroke-width:0.55px;"/>
        </g>
        <g transform="matrix(7.30448,0,0,7.30448,-1803.28,-1501.43)">
            <path d="M284.711,278.507C284.654,278.366 287.345,276.576 287.564,276.397C287.847,276.166 290.622,273.416 291.087,273.602C292.353,274.108 291.602,281.263 290.077,281.917C288.293,282.682 286.353,279.568 284.933,279.051" style="fill:none;stroke:rgb(86,96,255);stroke-width:0.55px;"/>
        </g>
        <g transform="matrix(7.30448,0,0,6.91264,-1771.49,-1385.16)">
            <path d="M286.38,295.524C286.256,295.298 286.399,296.039 286.404,296.296C286.416,296.948 286.424,297.598 286.41,298.249C286.379,299.809 286.292,301.346 286.11,302.893" style="fill:none;stroke:rgb(86,96,255);stroke-width:0.56px;"/>
        </g>
        <g transform="matrix(7.30448,0,0,6.91264,-1771.49,-1385.16)">
            <path d="M285.827,296.466C285.77,295.624 287.326,295.007 287.964,295.279C288.657,295.575 288.912,296.331 288.977,297.013C289.078,298.075 288.625,299.282 287.689,299.854C287.4,300.031 287.024,300.089 286.694,300.052C286.667,300.049 286.171,299.889 286.29,299.88C287.313,299.807 288.548,301.443 289.14,302.086C289.518,302.497 290.222,303.365 290.222,303.365C290.222,303.365 290.309,302.752 290.359,302.447C290.431,302.009 290.495,301.57 290.574,301.133C290.816,299.786 291.115,298.443 291.449,297.116C291.481,296.991 291.992,294.733 292.084,294.764C292.522,294.91 292.793,296.7 292.9,297.047C293.549,299.168 293.915,301.138 294.342,303.271" style="fill:none;stroke:rgb(86,96,255);stroke-width:0.56px;"/>
        </g>
        <g transform="matrix(7.30448,0,0,6.91264,-1771.49,-1385.16)">
            <path d="M290.334,300.506C290.184,300.508 290.616,300.404 290.762,300.369C291.011,300.31 291.26,300.247 291.509,300.189C292.251,300.016 293.833,300.065 294.419,299.563" style="fill:none;stroke:rgb(86,96,255);stroke-width:0.56px;"/>
        </g>
        <g transform="matrix(7.30448,0,0,6.91264,-1771.49,-1385.16)">
            <path d="M295.141,296.252C295.115,296.26 295.338,302.739 296.024,303.099C296.754,303.481 297.628,300.399 297.75,299.983C297.787,299.857 297.934,299.022 298.153,299.056C298.644,299.132 298.924,301.865 299.012,302.275C299.029,302.358 299.122,303.229 299.312,303.185C300.019,303.022 300.23,301.714 300.359,301.176C300.796,299.368 301.128,297.427 301.716,295.665" style="fill:none;stroke:rgb(86,96,255);stroke-width:0.56px;"/>
        </g>
        <g transform="matrix(7.30448,0,0,7.30448,-1803.28,-1501.43)">
            <path d="M304.963,291.741C304.895,291.843 305.272,291.449 305.321,291.408C305.65,291.135 305.988,290.872 306.325,290.609C307.058,290.038 308.32,289.491 308.84,288.687C309.075,288.324 308.338,287.72 308.128,287.493C307.205,286.498 307.122,284.185 308.986,284.223C310.163,284.247 310.192,285.33 310.248,286.232C310.257,286.376 310.219,287.251 310.471,287.287C310.872,287.345 311.821,286.52 312.145,286.335C313.055,285.813 314.507,285.445 314.772,284.283C315.027,283.165 313.591,281.075 315.09,280.429C317.45,279.41 315.019,283.901 316.789,283.639C318.386,283.403 318.062,281.452 318.815,280.472C319.798,279.19 321.985,277.795 323.425,276.995" style="fill:none;stroke:rgb(86,96,255);stroke-width:0.55px;"/>
        </g>
        <g transform="matrix(7.30448,0,0,7.30448,-1803.28,-1501.43)">
            <path d="M308.549,292.374C308.397,292.552 308.969,292.161 309.167,292.034C309.591,291.763 309.998,291.471 310.394,291.159C311.413,290.354 312.307,289.566 313.51,289.047C313.773,288.934 314.362,288.526 314.652,288.712C315.679,289.373 313.244,291.923 315.029,291.923C318.318,291.923 315.025,288.168 316.334,287.227C316.841,286.863 317.859,286.113 318.472,286.695C319.183,287.371 318.667,288.728 320.257,288.103C320.499,288.008 320.742,287.867 320.927,287.682C321.89,286.719 321.327,285.85 320.24,285.442C320.067,285.377 319.236,285.258 319.236,284.987C319.236,283.88 321.094,282.57 321.734,281.776C321.861,281.618 322.438,281.111 322.438,280.892" style="fill:none;stroke:rgb(86,96,255);stroke-width:0.55px;"/>
        </g>
        <g transform="matrix(6.04286,0,0,6.04286,-1043.11,-2506.03)">
            <path d="M211.059,478.95C210.856,477.585 210.615,473.626 210.418,472.26C209.932,468.886 208.592,464.755 209.624,461.381C211.675,454.678 219.674,456.697 223.629,460.256L225.067,461.695" style="fill:none;stroke:rgb(86,96,255);stroke-width:0.66px;"/>
        </g>
        <g transform="matrix(6.04286,0,0,6.04286,-1043.11,-2506.03)">
            <path d="M214.586,481.305C214.565,478.634 207.615,477.786 208.025,481.886C208.222,483.861 215.787,484.897 215.398,484.897" style="fill:none;stroke:rgb(86,96,255);stroke-width:0.66px;"/>
        </g>
        <g transform="matrix(6.04286,0,0,6.04286,-956.989,-3657.98)">
            <path d="M205.091,648.327C205.789,646.68 206.04,642.093 206.024,640.36C205.937,631.279 209.414,629.752 214.119,632.048C221.339,635.572 221.49,644.867 222.713,650.165C223.269,652.576 225.536,651.035 227.541,651.937C229.191,652.68 228.681,654.471 227.364,655.215C224.652,656.748 219.393,650.954 218.482,648.283C218.167,647.357 217.643,645.163 217.127,643.567" style="fill:none;stroke:rgb(86,96,255);stroke-width:0.66px;"/>
        </g>
        <g transform="matrix(6.04286,0,0,6.04286,-956.989,-3657.98)">
            <path d="M218.475,648.264C219.039,651.863 218.709,654.922 215.825,657.297C213.583,659.143 209.087,659.958 206.301,660.021C205.324,660.043 202.823,658.933 202.004,659.401C201.026,659.96 201.974,662.699 202.071,663.366C202.598,666.98 202.628,672.097 201.16,675.524" style="fill:none;stroke:rgb(86,96,255);stroke-width:0.66px;"/>
        </g>
        <g transform="matrix(6.04286,0,0,6.04286,-956.989,-3657.98)">
            <path d="M207.501,649.498C208.171,647.895 208.999,643.883 208.999,642.31" style="fill:none;stroke:rgb(86,96,255);stroke-width:0.66px;"/>
        </g>
        <g transform="matrix(6.04286,0,0,6.04286,-956.989,-3657.98)">
            <path d="M213.185,628.145C211.69,627.02 211.563,625.305 211.611,624.574C211.785,621.935 214.264,617.358 217.868,619.16C219.295,619.873 219.672,622.556 219.391,623.909C218.804,626.737 214.664,629.477 213.185,628.145" style="fill:none;stroke:rgb(86,96,255);stroke-width:0.66px;"/>
        </g>
        <g transform="matrix(6.23604,0,0,6.04286,-1640.66,-1142.22)">
            <path d="M356.629,266.984C356.54,263.464 353.653,263.197 353.13,265.311C352.39,268.302 355.259,267.327 356.629,266.984Z" style="fill:none;stroke:rgb(86,96,255);stroke-width:0.65px;"/>
        </g>
        <g transform="matrix(6.04286,0,0,6.04286,-1568.75,-1115.17)">
            <path d="M355.321,260.092C355.116,260.134 365.772,257.242 366.012,256.969C367.134,255.69 369.355,253.238 370.213,250.807" style="fill:none;stroke:rgb(86,96,255);stroke-width:0.66px;"/>
        </g>
        <g transform="matrix(6.04286,0,0,6.04286,-1568.75,-1115.17)">
            <path d="M374.59,245.248C383.345,256.374 365.465,263.865 356.775,262.563" style="fill:none;stroke:rgb(86,96,255);stroke-width:0.66px;"/>
        </g>
        <g transform="matrix(6.04286,0,0,6.04286,-1568.75,-1115.17)">
            <path d="M369.289,230.231C366.613,230.635 364.373,237.947 367.625,241.126C373.035,246.413 377.885,233.394 370.253,230.204" style="fill:none;stroke:rgb(86,96,255);stroke-width:0.66px;"/>
        </g>
        <g transform="matrix(6.04286,0,0,6.04286,-1568.75,-1115.17)">
            <path d="M374.202,245.121C369.818,243.881 366.853,246.594 366.27,247.741C364.952,250.332 364.383,255.57 364.144,257.2" style="fill:none;stroke:rgb(86,96,255);stroke-width:0.66px;"/>
        </g>
        <g transform="matrix(6.04286,0,0,6.04286,-1568.75,-1115.17)">
            <path d="M364.301,262.385C362.664,265.4 363.09,271.862 362.41,275.302C362.276,275.977 360.961,279.6 361.908,280.168C363.333,281.023 367.949,280.09 369.577,280.109C370.758,280.123 374.998,281.098 376.006,280.522C377.081,279.908 376.703,274.788 376.714,273.915C376.782,268.261 378.263,258.637 376.818,252.404" style="fill:none;stroke:rgb(86,96,255);stroke-width:0.66px;"/>
        </g>
        <g transform="matrix(6.04286,0,0,6.04286,-1568.75,-1115.17)">
            <path d="M373.918,280.971C373.817,280.264 373.814,292.465 373.912,297.982C373.939,299.468 374.457,300.861 373.322,302.071C372.606,302.834 368.975,301.124 367.305,302.484C366.1,303.466 366.591,304.934 368.22,305.02C369.348,305.08 371.051,305.411 373.498,304.699" style="fill:none;stroke:rgb(86,96,255);stroke-width:0.66px;"/>
        </g>
        <g transform="matrix(6.04286,0,0,6.04286,-1568.75,-1115.17)">
            <path d="M365.951,280.464C365.694,287.002 368.922,295.517 368.072,300.331C367.979,300.86 364.858,300.077 363.805,300.335C361.89,300.805 361.412,302.916 362.127,303.774C363.439,305.35 365.055,304.619 366.635,303.742" style="fill:none;stroke:rgb(86,96,255);stroke-width:0.66px;"/>
        </g>
        <g transform="matrix(6.04286,0,0,6.04286,-1568.75,-1115.17)">
            <path d="M367.331,246.502C364.18,249.472 360.401,251.476 359.929,251.62C357.926,252.229 353.779,251.401 351.585,251.087C349.586,250.802 349.056,249.031 347.085,250.107C346.063,250.664 346.024,252.177 347.434,252.966C348.589,253.613 351.212,253.51 351.212,253.51C351.212,253.51 359.845,257.231 363.926,256.097" style="fill:none;stroke:rgb(86,96,255);stroke-width:0.66px;"/>
        </g>
        <g transform="matrix(6.04275,-0.0356524,0.0329059,5.57723,-1577.89,-992.206)">
            <path d="M372.104,228.126C370.442,228.044 369.028,230.897 369.015,231.455C368.972,233.329 372.369,233.203 372.906,235.126C373.264,236.406 372.444,242.748 374.551,242.447C376.578,242.157 377.207,239.31 377.5,237.693C378.209,233.769 376.972,228.126 372.104,228.126" style="fill:none;stroke:rgb(86,96,255);stroke-width:0.69px;"/>
        </g>
        <g transform="matrix(6.04286,0,0,6.04286,-956.989,-3657.98)">
            <path d="M217.94,618.074C217.07,615.138 213.044,615.933 211.603,617.61C208.835,620.835 210.693,625.258 207.859,627.846" style="fill:none;stroke:rgb(86,96,255);stroke-width:0.66px;"/>
        </g>
        <g transform="matrix(9.12379,0,0,9.12379,-528.021,-502.308)">
            <path d="M118.546,100.732C118.546,100.732 118.1,99.86 118.802,99.129" style="fill:none;stroke:rgb(86,96,255);stroke-width:0.44px;"/>
        </g>
        <g transform="matrix(9.12341,0.0839794,-0.0839794,9.12341,-506.271,-511.079)">
            <path d="M105.813,102.729C105.813,102.729 103.17,102.796 102.631,102.631C102.092,102.467 102.169,107.161 102.169,107.161C102.169,107.161 104.195,107.591 105.263,107.311" style="fill:none;stroke:rgb(86,96,255);stroke-width:0.44px;"/>
        </g>
        <g transform="matrix(9.12341,0.0839794,-0.0839794,9.12341,-506.271,-511.079)">
            <path d="M102.193,104.947L104.577,105.016" style="fill:none;stroke:rgb(86,96,255);stroke-width:0.44px;"/>
        </g>
        <g transform="matrix(9.12341,0.0839794,-0.0839794,9.12341,-506.271,-511.079)">
            <path d="M107.328,107.266C107.328,107.266 108.016,104.154 107.997,102.959C107.979,101.764 109.308,104.219 109.749,104.947C110.005,105.369 111.009,102.704 111.529,102.627C111.529,102.627 111.728,106.534 111.788,107.518" style="fill:none;stroke:rgb(86,96,255);stroke-width:0.44px;"/>
        </g>
        <path d="M48.532,734.916C48.532,734.916 655.035,733.327 726.727,727.613" style="fill:none;stroke:rgb(86,96,255);stroke-width:4px;"/>
    </g>
</svg>
