<?xml version="1.0" encoding="UTF-8" standalone="no"?>
<!DOCTYPE svg PUBLIC "-//W3C//DTD SVG 1.1//EN" "http://www.w3.org/Graphics/SVG/1.1/DTD/svg11.dtd">
<svg width="100%" height="100%" viewBox="0 0 368 290" version="1.1" xmlns="http://www.w3.org/2000/svg" xmlns:xlink="http://www.w3.org/1999/xlink" xml:space="preserve" xmlns:serif="http://www.serif.com/" style="fill-rule:evenodd;clip-rule:evenodd;stroke-linecap:round;stroke-linejoin:round;stroke-miterlimit:1.5;">
    <g>
        <g transform="matrix(1,0,0,1,-1301.9,-897.438)">
            <path d="M1587.55,1163.17C1587.55,1163.17 1333.8,1160.82 1307.64,1163.17C1281.48,1165.53 1348.99,1189.73 1423.8,1187.13C1511.55,1184.09 1648.24,1160.33 1587.55,1163.17Z" style="fill:rgb(89,248,232);fill-opacity:0.68;"/>
        </g>
        <g transform="matrix(1,0,0,1,-1327.68,-915.173)">
            <path d="M1632.11,967.192C1632.11,967.192 1586.21,1073.14 1610.15,1077.43C1634.09,1081.73 1647.21,1089.01 1649.42,1081.73C1651.63,1074.44 1630.91,1084.56 1631.35,1058.95C1631.78,1033.34 1632.11,967.192 1632.11,967.192Z" style="fill:rgb(86,96,255);fill-opacity:0.59;"/>
        </g>
        <g transform="matrix(1,0,0,1,-1331.9,-919.227)">
            <path d="M1488.17,978.46C1488.17,978.46 1474.72,978.447 1474.67,992.315C1474.62,1006.18 1503.79,1108.1 1504.08,1120.21C1504.36,1132.33 1517.23,996.899 1488.17,978.46Z" style="fill:rgb(86,96,255);fill-opacity:0.12;"/>
        </g>
        <g transform="matrix(2.29698,0,0,2.29698,-160.074,-637.893)">
            <path d="M131.081,281.901C127.929,283.302 127.167,300.999 135.242,299.55C142.281,298.286 140.473,277.727 131.081,281.901Z" style="fill:none;stroke:white;stroke-width:0.65px;"/>
        </g>
        <g transform="matrix(2.39428,0,0,2.39428,-172.611,-665.267)">
            <path d="M134.28,280.348C133.833,275.681 127.716,280.278 126.99,282.768C125.538,287.747 135.287,287.399 137.565,284.987C141.795,280.509 132.049,276.555 128.203,279.44C121.65,284.355 123.952,296.151 131.636,289.564" style="fill:none;stroke:white;stroke-width:0.63px;"/>
        </g>
        <g transform="matrix(2.39428,0,0,2.75789,-170.336,-778.744)">
            <path d="M127.006,311.856C124.459,316.909 125.349,325.459 125.148,330.837C124.579,346.124 126.491,363.626 128.962,378.725" style="fill:none;stroke:white;stroke-width:0.58px;"/>
        </g>
        <g transform="matrix(2.01569,0,0,2.3218,-121.812,-613.302)">
            <path d="M129.237,378.602C128.769,378.023 129.689,376.089 130.523,375.517C133.786,373.281 136.019,378.304 135.781,378.602C135.268,379.247 136.353,372.685 139.567,373.924C142.8,375.171 141.968,378.574 141.898,378.31" style="fill:none;stroke:white;stroke-width:0.69px;"/>
        </g>
        <g transform="matrix(2.39428,0,0,2.75789,-170.336,-778.744)">
            <path d="M140.096,378.864C140.105,378.78 141.617,374.981 142.531,369.851C145.776,351.628 146.265,332.592 142.228,314.424" style="fill:none;stroke:white;stroke-width:0.58px;"/>
        </g>
        <g transform="matrix(2.39428,0,0,2.75789,-170.336,-778.744)">
            <path d="M124.831,337.518C126.1,338.103 130.069,338.653 131.826,338.425C136.116,337.87 140.22,336.313 144.089,334.439" style="fill:none;stroke:white;stroke-width:0.58px;"/>
        </g>
        <g transform="matrix(1.99834,0,0,1.99834,-119.985,-536.614)">
            <path d="M133.816,298.298C126.12,299.05 117.39,309.595 114.082,311.315C111.27,312.778 108.674,309.742 106.592,308.152C106.163,307.825 104.468,306.129 103.961,306.129C103.296,306.129 101.752,309.429 100.906,309.852C100.29,310.16 101.942,310.801 102.262,311.41C102.908,312.641 108.287,322.67 110.569,323.684C111.323,324.02 116.187,321.607 119.022,319.717C121.521,318.051 124.002,316.145 125.618,313.182" style="fill:none;stroke:white;stroke-width:0.75px;"/>
        </g>
        <g transform="matrix(2.39428,0,0,2.39428,-160.682,-654.902)">
            <path d="M102.828,305.372C103.153,305.603 102.264,304.806 101.958,304.551C101.418,304.1 100.792,303.736 100.137,303.478C98.219,302.725 95.667,303.268 94.491,305.097C93.302,306.947 98.696,306.488 99.469,306.432" style="fill:none;stroke:white;stroke-width:0.63px;"/>
        </g>
        <g transform="matrix(1.92938,0,0,1.92938,-121.066,-510.777)">
            <path d="M102.897,297.307C102.888,296.656 96.709,297.29 96.325,297.325C90.641,297.843 85.137,298.383 79.86,300.758C78.467,301.385 74.832,302.835 74.995,304.887C75.232,307.879 80.98,306.578 82.554,306.136C85.465,305.318 88.285,303.729 91.308,303.385C95.634,302.892 99.96,304.132 104.276,303.114C105.387,302.852 110.562,300.545 108.122,298.678C106.525,297.457 103.808,297.332 101.88,297.018" style="fill:none;stroke:white;stroke-width:0.78px;"/>
        </g>
        <g transform="matrix(2.39428,0,0,2.39428,-170.336,-665.351)">
            <path d="M132.717,302.738C143.1,301.506 147.298,309.009 154.203,309.844C154.56,309.887 157.599,306.648 157.743,306.502C161.203,302.98 160.805,303.117 164.142,299.502" style="fill:none;stroke:white;stroke-width:0.63px;"/>
        </g>
        <g transform="matrix(2.39428,0,0,2.39428,-170.336,-665.351)">
            <path d="M142.228,314.424C144.782,315.669 148.11,316.896 150.961,317.123C157.757,317.664 168.445,302.649 164.142,299.502" style="fill:none;stroke:white;stroke-width:0.63px;"/>
        </g>
        <g transform="matrix(1.72336,0,0,1.72336,-62.7138,-461.1)">
            <path d="M167.011,297.676C166.843,297.995 167.262,296.993 167.468,296.697C167.812,296.204 168.18,295.734 168.502,295.226C169.317,293.943 169.996,291.433 171.068,290.433C171.847,289.705 176.374,292.648 176.856,293.336C179.331,296.873 169.231,299.296 167.428,299.502" style="fill:none;stroke:white;stroke-width:0.87px;"/>
        </g>
        <g transform="matrix(2.39428,0,0,2.39428,-182.361,-657.751)">
            <path d="M174.276,291.061C174.575,291.653 175.988,280.113 176.677,277.207" style="fill:none;stroke:white;stroke-width:0.63px;"/>
        </g>
        <g transform="matrix(2.11659,-0.109787,0.109787,2.11659,-164.29,-563.657)">
            <path d="M172.144,300.403C171.8,303.065 170.855,304.238 170.969,305.786C171.009,306.341 171.307,309.585 171.338,309.277C171.404,308.612 172.731,305.858 172.699,305.329C172.616,303.981 172.328,302.434 173.355,300.037" style="fill:none;stroke:white;stroke-width:0.71px;"/>
        </g>
        <g transform="matrix(2.39428,0,0,2.39428,-182.361,-657.751)">
            <path d="M175.313,291.871C175.533,290.574 177.14,282.077 177.489,277.207C177.517,276.817 176.677,277.517 176.677,277.207" style="fill:none;stroke:white;stroke-width:0.63px;"/>
        </g>
        <g transform="matrix(2.39428,0,0,2.75789,-170.336,-778.744)">
            <path d="M129.069,378.725C130.192,378.941 139.936,378.763 139.851,378.763" style="fill:white;stroke:white;stroke-width:0.58px;"/>
        </g>
        <g transform="matrix(2.39428,0,0,2.39428,-216.977,-657.103)">
            <path d="M216.349,288.285C216.23,289.084 215.207,293.212 214.972,294.341C213.787,300.043 212.482,305.719 211.134,311.385C207.517,326.588 204.794,342.006 202.402,357.447C201.095,365.887 200.364,374.689 198.186,382.964" style="fill:none;stroke:white;stroke-width:0.63px;"/>
        </g>
        <g transform="matrix(2.39428,0,0,2.39428,-216.977,-657.103)">
            <path d="M216.349,288.285C217.06,288.482 234.707,290.311 238.755,289.805" style="fill:none;stroke:white;stroke-width:0.63px;"/>
        </g>
        <g transform="matrix(2.39428,0,0,2.39428,-216.977,-657.103)">
            <path d="M238.758,289.893C238.26,291.97 237.498,295.46 237.028,297.543C235.308,305.167 233.073,312.655 230.962,320.176C224.763,342.273 222.625,363.523 219.789,386.207" style="fill:none;stroke:white;stroke-width:0.63px;"/>
        </g>
        <g transform="matrix(2.39428,0,0,2.39428,-213.457,-655.574)">
            <path d="M237.288,289.255C237.374,289.198 239.02,289.748 238.931,290.12C238.433,292.197 237.498,295.46 237.028,297.543C235.308,305.167 233.073,312.655 230.962,320.176C224.898,341.793 222.72,362.598 219.973,384.729C219.912,385.221 218.381,385.075 218.319,385.568" style="fill:none;stroke:white;stroke-width:0.63px;"/>
        </g>
        <g transform="matrix(2.39428,0,0,2.39428,-216.977,-657.103)">
            <path d="M204.517,342.271C205.46,342.587 207.606,342.941 207.653,342.948C209.396,343.22 211.157,343.461 212.884,343.823C217.485,344.789 222.307,345.275 227.025,345.275" style="fill:none;stroke:white;stroke-width:0.63px;"/>
        </g>
        <g transform="matrix(2.39428,0,0,2.39428,-216.977,-657.103)">
            <path d="M207.646,343.105C207.629,343.309 201.761,385.624 200.253,383.613C199.593,382.732 202.272,384.026 202.562,382.964C203.505,379.505 207.297,350.306 208.389,344.48" style="fill:none;stroke:white;stroke-width:0.63px;"/>
        </g>
        <g transform="matrix(2.39428,0,0,2.39428,-216.977,-657.103)">
            <path d="M219.789,386.207C219.353,386.499 218.356,386.482 217.988,386.207C217.568,385.893 220.988,356.509 223.402,345.275" style="fill:none;stroke:white;stroke-width:0.63px;"/>
        </g>
        <g transform="matrix(2.39428,0,0,2.39428,-216.977,-657.103)">
            <path d="M229.929,331.183C233.995,348.188 236.833,365.801 242.369,382.407" style="fill:none;stroke:white;stroke-width:0.63px;"/>
        </g>
        <g transform="matrix(2.39428,0,0,2.39428,-216.977,-657.103)">
            <path d="M230.68,327.459C233.314,336.334 241.061,374.255 243.407,380.978C243.519,381.301 242.289,382.322 242.375,382.494" style="fill:none;stroke:white;stroke-width:0.63px;"/>
        </g>
        <g transform="matrix(3.01535,-0.90387,0.90387,3.01535,-556.383,-885.969)">
            <path d="M175.126,384L173.527,385.819L174.747,388.068" style="fill:none;stroke:white;stroke-width:0.48px;"/>
        </g>
        <g transform="matrix(3.14791,0,0,3.62597,-175.901,-1327.14)">
            <path d="M104.127,439.299C104.127,439.299 105.351,427.75 105.29,421.184" style="fill:none;stroke:white;stroke-width:0.44px;"/>
        </g>
    </g>
</svg>
