<?xml version="1.0" encoding="UTF-8" standalone="no"?>
<!DOCTYPE svg PUBLIC "-//W3C//DTD SVG 1.1//EN" "http://www.w3.org/Graphics/SVG/1.1/DTD/svg11.dtd">
<svg width="100%" height="100%" viewBox="0 0 462 373" version="1.1" xmlns="http://www.w3.org/2000/svg" xmlns:xlink="http://www.w3.org/1999/xlink" xml:space="preserve" xmlns:serif="http://www.serif.com/" style="fill-rule:evenodd;clip-rule:evenodd;stroke-linecap:round;stroke-linejoin:round;stroke-miterlimit:1.5;">
    <g transform="matrix(1,0,0,1,-166.436,-213.816)">
        <g>
            <g transform="matrix(1.11872,0,0,1.11872,-1716.33,-830.184)">
                <path d="M1737.24,1117.66C1737.24,1117.66 1670.12,1144.45 1686.66,1161.72C1695.52,1170.97 1708.04,1179.98 1759.51,1182.65C1814.2,1185.49 1739.49,1166.32 1734.52,1154.93C1729.54,1143.53 1754.65,1112.92 1773.54,1107.3C1792.42,1101.69 1737.24,1117.66 1737.24,1117.66Z" style="fill:rgb(122,249,235);fill-opacity:0.84;"/>
            </g>
            <g transform="matrix(1.07705,-0.302502,0.302502,1.07705,-1919.23,-162.995)">
                <path d="M2068.23,959.888C2068.23,959.888 2065.7,979.585 2028.16,997.1C1990.62,1014.62 1975.22,993.153 1974.74,1015.34C1974.27,1037.53 2025.21,1044.58 2054.49,1037.03C2083.76,1029.49 2083.02,944.465 2068.23,959.888Z" style="fill:rgb(86,96,255);fill-opacity:0.53;"/>
            </g>
            <g transform="matrix(3.15009,0,0,3.15009,-1093.55,-1585.54)">
                <path d="M462.229,580.327C461.208,581.105 460.13,581.8 459.016,582.437C457.414,583.352 455.712,584.182 454.394,585.501C453.088,586.806 452.516,589.699 451.573,591.385C448.848,596.261 450.171,601.374 450.481,606.748C450.772,611.792 450.707,616.844 451.022,621.888" style="fill:none;stroke:white;stroke-width:0.48px;"/>
            </g>
            <g transform="matrix(3.15009,0,0,3.15009,-1093.55,-1585.54)">
                <path d="M462.229,580.327C466.557,580.286 471.984,580.809 476.298,581.133C479.052,581.339 481.774,581.652 484.494,582.14C486.128,582.433 487.762,582.747 489.413,582.924C491.129,583.109 492.843,583.181 494.566,583.221C494.826,583.227 496.119,583.067 496.39,583.338C496.661,583.609 494.165,584.455 494.036,584.504C492.663,585.03 491.542,585.973 490.219,586.593C488.6,587.351 486.745,587.547 485.172,588.363C482.714,589.64 480.927,593.382 480.168,595.849C478.528,601.177 479.74,606.758 480.179,612.176C480.527,616.485 480.2,619.936 480.608,624.221" style="fill:none;stroke:white;stroke-width:0.48px;"/>
            </g>
            <g transform="matrix(3.15009,0,0,3.15009,-1093.55,-1585.54)">
                <path d="M468.425,612.556C468.184,612.262 467.793,609.668 469.917,609.207C471.43,608.879 473.105,609.764 472.176,612.687" style="fill:none;stroke:white;stroke-width:0.48px;"/>
            </g>
            <g transform="matrix(3.15009,0,0,3.15009,-1093.55,-1585.54)">
                <path d="M451.241,622.296C451.123,622.04 451.643,622.71 451.902,622.821C452.478,623.068 453.121,623.387 453.736,623.51C455.791,623.921 458.003,623.87 460.087,624.051C465.055,624.483 479.251,624.221 480.608,624.221" style="fill:none;stroke:white;stroke-width:0.48px;"/>
            </g>
            <g transform="matrix(3.15009,0,0,3.15009,-1093.55,-1585.54)">
                <path d="M480.608,624.221C480.601,624.225 484.27,623.37 485.88,622.766" style="fill:none;stroke:white;stroke-width:0.48px;"/>
            </g>
            <g transform="matrix(3.15009,0,0,3.15009,-1093.55,-1585.54)">
                <path d="M486.128,622.766C485.277,619.03 486.733,616.432 488.671,615.548C491.836,614.105 495.638,617.191 494.598,618.23C494.427,618.402 494.984,617.931 495.202,617.828C495.621,617.629 496.364,617.244 496.793,617.244" style="fill:none;stroke:white;stroke-width:0.48px;"/>
            </g>
            <g transform="matrix(3.15009,0,0,3.15009,-1093.55,-1585.54)">
                <path d="M495.274,583.195C495.048,583.777 495.342,584.819 495.393,585.405C495.551,587.215 495.588,589.033 495.732,590.844C496.176,596.39 496.395,601.948 496.888,607.49C497.121,610.11 498.048,613.906 496.941,616.396" style="fill:none;stroke:white;stroke-width:0.48px;"/>
            </g>
            <g transform="matrix(3.15009,0,0,3.15009,-1093.55,-1585.54)">
                <path d="M455.771,594.022C460.588,594.442 465.427,594.464 470.244,594.926C471.928,595.088 474.772,596.163 476.404,595.244C478.566,594.028 480.755,590.074 481.843,587.897" style="fill:none;stroke:white;stroke-width:0.48px;"/>
            </g>
            <g transform="matrix(3.15009,0,0,3.15009,-1093.55,-1585.54)">
                <path d="M456.058,586.438C457.347,587.068 476.827,588.157 481.767,587.998" style="fill:none;stroke:white;stroke-width:0.48px;"/>
            </g>
            <g transform="matrix(3.15009,0,0,3.15009,-1093.55,-1585.54)">
                <path d="M475.234,596.58C472.527,596.403 463.168,595.856 460.469,595.817C458.494,595.788 454.376,595.89 453.424,595.612C452.094,595.225 452.529,598.015 452.496,599.231C452.412,602.283 452.611,605.417 452.93,608.455C453.024,609.345 452.968,610.678 453.492,611.455C454.123,612.39 455.356,612.34 456.366,612.431C458.33,612.608 460.302,612.677 462.271,612.781C465.333,612.942 468.411,612.776 471.474,612.728C472.739,612.708 474.659,613 475.768,612.176C476.995,611.265 476.685,610.159 476.457,608.837C475.958,605.934 475.234,599.546 475.234,596.58Z" style="fill:none;stroke:white;stroke-width:0.48px;"/>
            </g>
            <g transform="matrix(3.15009,0,0,3.15009,-1093.55,-1585.54)">
                <path d="M452.953,621.198C452.953,620.546 452.485,617.757 453.196,617.372C453.813,617.037 460.851,617.332 460.789,617.872C460.765,618.083 461.096,621.669 460.769,621.674C459.319,621.698 453.353,621.799 452.953,621.198Z" style="fill:none;stroke:white;stroke-width:0.48px;"/>
            </g>
            <g transform="matrix(3.15009,0,0,3.15009,-1093.55,-1585.54)">
                <path d="M476.466,618.968C474.937,619.421 469.331,619.073 469.033,618.968C468.713,618.856 468.649,622.567 468.898,622.906C469.133,623.227 470.299,623.161 470.615,623.182C472.191,623.287 473.776,623.394 475.355,623.394C475.682,623.394 476.673,623.556 476.881,623.203C477.061,622.898 476.555,619.272 476.466,618.968Z" style="fill:none;stroke:white;stroke-width:0.48px;"/>
            </g>
            <g transform="matrix(3.15009,0,0,3.15009,-1093.55,-1585.54)">
                <path d="M463.361,619.695C464.86,619.633 466.385,619.916 467.891,619.916" style="fill:none;stroke:white;stroke-width:0.48px;"/>
            </g>
            <g transform="matrix(3.15009,0,0,3.15009,-1093.55,-1585.54)">
                <path d="M462.238,621.4C462.421,621.568 463.604,621.354 463.84,621.348C465.239,621.31 466.664,621.356 468.05,621.125" style="fill:none;stroke:white;stroke-width:0.48px;"/>
            </g>
            <g transform="matrix(3.15009,0,0,3.15009,-1093.55,-1585.54)">
                <path d="M462.843,622.5C462.883,622.442 464.194,622.695 464.328,622.705C465.792,622.809 467.356,622.553 468.802,622.842" style="fill:none;stroke:white;stroke-width:0.48px;"/>
            </g>
            <g transform="matrix(3.15009,0,0,3.15009,-1093.55,-1585.54)">
                <path d="M487.781,594.598C485.838,593.072 482.747,595.733 482.299,597.301C481.619,599.68 482.119,602.573 482.161,605.02C482.18,606.119 481.961,607.688 482.437,608.72C482.657,609.197 483.658,609.126 484.091,609.187C485.159,609.337 488.254,609.687 488.629,608.147C489.01,606.58 488.334,597.363 487.781,594.598Z" style="fill:none;stroke:white;stroke-width:0.48px;"/>
            </g>
            <g transform="matrix(3.15009,0,0,3.15009,-1093.55,-1585.54)">
                <path d="M463.494,624.221C463.981,627.42 470.151,627.561 470.664,624.3" style="fill:none;stroke:white;stroke-width:0.48px;"/>
            </g>
            <g transform="matrix(3.15009,0,0,3.15009,-1093.55,-1585.54)">
                <path d="M493.859,619C493.169,616.981 490.634,616.356 488.958,617.923C487.395,619.383 486.62,623.065 487.897,624.889C489.3,626.893 492.315,626.665 493.792,624.878C495.291,623.065 495.275,619.92 493.877,618.103" style="fill:none;stroke:white;stroke-width:0.48px;"/>
            </g>
            <g transform="matrix(3.15009,0,0,3.15009,-1093.55,-1585.54)">
                <path d="M473.105,579.671C473.257,579.94 473.155,580.799 472.937,580.581C472.711,580.355 472.801,579.372 472.778,579.076C472.753,578.751 472.409,578.021 472.725,578.1C478.36,579.509 484.166,579.59 489.891,580.507C492.17,580.872 494.39,581.476 496.655,581.896C497.39,582.032 498.139,582.102 498.881,582.182C499.231,582.22 500.283,582.288 499.931,582.288C499.415,582.288 498.047,581.855 498.521,581.652C499.495,581.235 501.048,581.287 502.083,581.133C505.852,580.571 509.622,580.173 513.407,579.754C523.142,578.678 533.012,578.197 542.701,576.754" style="fill:none;stroke:white;stroke-width:0.48px;"/>
            </g>
            <g transform="matrix(3.15009,0,0,3.15009,-1093.55,-1585.54)">
                <path d="M472.182,577.308C472.167,577.341 473.069,577.348 473.086,577.347C473.732,577.328 474.38,577.303 475.026,577.263C476.767,577.154 478.507,576.975 480.242,576.796C485.252,576.279 490.257,575.721 495.266,575.195C502.09,574.479 508.884,573.947 515.686,573.022C518.337,572.661 521.005,572.437 523.659,572.099C524.611,571.978 526.029,571.469 526.999,571.569C529.922,571.872 532.939,573.196 535.82,573.806C538.674,574.41 541.889,574.807 544.567,576.043" style="fill:none;stroke:white;stroke-width:0.48px;"/>
            </g>
            <g transform="matrix(3.15009,0,0,3.15009,-1093.55,-1585.54)">
                <path d="M499.399,582.59C499.049,582.09 499.334,585.404 499.337,585.935C499.353,588.513 499.345,591.087 499.295,593.665C499.146,601.31 499.036,608.937 499.348,616.576" style="fill:none;stroke:white;stroke-width:0.48px;"/>
            </g>
            <g transform="matrix(3.15009,0,0,3.15009,-1093.55,-1585.54)">
                <path d="M498.842,617.521C497.965,617.382 499.727,617.172 499.867,617.17C500.514,617.162 503.207,617.11 504.053,616.964C504.671,616.859 503.403,616.215 504.346,613.649C505.608,610.212 509.952,609.832 512.441,610.915C513.564,611.403 516.264,614.185 515.061,615.389C514.892,615.557 515.509,615.226 515.739,615.166C516.23,615.04 516.728,614.934 517.224,614.827C518.647,614.52 520.047,614.236 521.496,614.085C524.47,613.775 527.43,613.213 530.402,612.95C531.601,612.845 533.474,613.047 534.537,612.516C534.753,612.408 533.317,609.755 533.286,609.452C533.08,607.384 535.394,605.539 537.188,605.158C539.583,604.649 541.172,605.947 541.853,608.201C542.006,608.706 541.74,609.899 542.245,610.236C542.724,610.556 544.152,610.151 544.726,610.151" style="fill:none;stroke:white;stroke-width:0.48px;"/>
            </g>
            <g transform="matrix(3.15009,0,0,3.15009,-1093.55,-1585.54)">
                <path d="M544.255,574.857C544.249,574.855 544.188,576.259 544.186,576.361C544.165,577.287 544.151,578.213 544.133,579.139C544.077,581.858 544.069,584.584 544.058,587.303C544.037,592.817 544.06,598.358 544.366,603.864C544.473,605.793 544.286,607.845 544.663,609.727" style="fill:none;stroke:white;stroke-width:0.48px;"/>
            </g>
            <g transform="matrix(3.15009,0,0,3.15009,-1093.55,-1585.54)">
                <path d="M544.938,604.256C544.977,604.281 545.788,603.871 546.105,604.267C546.275,604.48 546.093,605.288 546.073,605.529C545.928,607.231 545.577,607.236 543.92,607.236" style="fill:none;stroke:white;stroke-width:0.48px;"/>
            </g>
            <g transform="matrix(3.15009,0,0,3.15009,-1093.55,-1585.54)">
                <path d="M512.877,614.403C507.668,608.769 503.594,618.732 505.718,621.092C510.368,626.258 517.567,619.476 512.877,614.403Z" style="fill:none;stroke:white;stroke-width:0.48px;"/>
            </g>
            <g transform="matrix(3.15009,0,0,3.15009,-1093.55,-1585.54)">
                <path d="M539.902,610.32C540.267,610.183 539.716,609.263 539.584,609.165C539.002,608.732 538.086,608.657 537.389,608.699C534.458,608.873 531.414,614.492 534.007,616.587C538.554,620.26 544.11,612.53 539.839,609.515" style="fill:none;stroke:white;stroke-width:0.48px;"/>
            </g>
            <g transform="matrix(3.15009,0,0,3.15009,-1093.55,-1585.54)">
                <path d="M515.924,590.663C515.864,590.63 516.238,589.42 516.259,589.339C516.396,588.814 516.786,585.553 517.414,585.373C517.925,585.228 518.468,588.872 518.549,588.872C518.647,588.872 518.889,588.118 518.909,588.067C519.051,587.709 519.828,584.774 520.16,584.748C520.473,584.724 520.884,585.726 520.977,585.914C521.359,586.69 522.747,588.7 522.747,589.54" style="fill:none;stroke:white;stroke-width:0.48px;"/>
            </g>
            <g transform="matrix(3.15009,0,0,3.15009,-1093.55,-1585.54)">
                <path d="M523.326,585.269C523.243,584.965 523.477,585.88 523.574,586.179C523.755,586.732 523.966,587.268 524.168,587.812C524.275,588.1 524.258,588.899 524.476,588.681C525.029,588.128 525.366,586.955 525.727,586.275C525.873,585.998 526.026,585.725 526.172,585.448C526.263,585.274 526.612,584.856 526.426,584.918C526.094,585.028 525.657,586.301 525.525,586.572C524.682,588.299 523.74,590.132 523.172,591.979" style="fill:none;stroke:white;stroke-width:0.48px;"/>
            </g>
            <g transform="matrix(3.15009,0,0,3.15009,-1093.55,-1585.54)">
                <path d="M510.736,599.051C510.288,600.229 510.915,602.404 510.915,603.737" style="fill:none;stroke:white;stroke-width:0.48px;"/>
            </g>
            <g transform="matrix(3.15009,0,0,3.15009,-1093.55,-1585.54)">
                <path d="M508.738,599.102C510.324,598.482 512.651,600.205 512.548,601.924C512.463,603.354 510.341,603.972 509.198,604.002" style="fill:none;stroke:white;stroke-width:0.48px;"/>
            </g>
            <g transform="matrix(3.15009,0,0,3.15009,-1093.55,-1585.54)">
                <path d="M513.051,603.814C512.956,603.916 513.149,603.551 513.209,603.425C513.402,603.025 513.588,602.622 513.778,602.221C514.11,601.518 514.657,599.669 515.379,599.284C515.664,599.132 515.85,599.893 515.898,600.015C516.305,601.055 516.666,602.088 516.927,603.175" style="fill:none;stroke:white;stroke-width:0.48px;"/>
            </g>
            <g transform="matrix(3.15009,0,0,3.15009,-1093.55,-1585.54)">
                <path d="M513.748,601.779C513.667,601.665 514.506,601.522 514.605,601.5C515.647,601.264 516.694,601.124 517.754,601.001" style="fill:none;stroke:white;stroke-width:0.48px;"/>
            </g>
            <g transform="matrix(3.15009,0,0,3.15009,-1093.55,-1585.54)">
                <path d="M520.315,598.583C520.315,598.583 520.477,599.805 520.489,599.931C520.583,600.894 520.91,602.125 520.638,603.08" style="fill:none;stroke:white;stroke-width:0.48px;"/>
            </g>
            <g transform="matrix(3.15009,0,0,3.15009,-1093.55,-1585.54)">
                <path d="M517.203,599.518C517.258,599.229 518.39,599.084 518.591,599.04C519.863,598.759 522.186,598.995 523.256,598.192" style="fill:none;stroke:white;stroke-width:0.48px;"/>
            </g>
            <g transform="matrix(3.15009,0,0,3.15009,-1093.55,-1585.54)">
                <path d="M522.329,603.282C522.247,603.281 522.945,601.516 523.012,601.351C523.353,600.516 523.827,597.987 524.56,597.45C524.839,597.246 525.362,598.249 525.419,598.361C526.031,599.569 526.514,600.839 526.988,602.104" style="fill:none;stroke:white;stroke-width:0.48px;"/>
            </g>
            <g transform="matrix(3.15009,0,0,3.15009,-1093.55,-1585.54)">
                <path d="M523.035,601.313C523.029,600.833 523.998,600.917 524.423,600.853C525.888,600.632 527.362,600.379 528.77,599.909" style="fill:none;stroke:white;stroke-width:0.48px;"/>
            </g>
            <g transform="matrix(3.15009,0,0,3.15009,-1093.55,-1585.54)">
                <path d="M470.883,602.989C471.043,602.514 470.587,601.687 470.058,602.153C469.152,602.95 468.41,606.008 470.189,606.305C471.588,606.538 472.241,604.62 471.864,603.552C471.34,602.067 470.539,603.142 469.635,602.313C468.99,601.722 469.893,600.022 470.553,599.793C471.399,599.5 471.864,600.954 471.864,601.556C471.864,601.942 471.099,601.411 470.713,601.425C470.176,601.444 468.576,601.632 468.412,602.313C468.131,603.476 471.088,603.062 471.587,602.634" style="fill:none;stroke:white;stroke-width:0.48px;"/>
            </g>
            <g transform="matrix(3.15009,0,0,3.15009,-1093.55,-1585.54)">
                <path d="M471.832,607.578C470.417,606.922 467.516,606.574 464.561,609.314C464.169,609.677 464.939,611.298 465.889,610.876" style="fill:none;stroke:white;stroke-width:0.48px;"/>
            </g>
            <g transform="matrix(3.15009,0,0,3.15009,-1093.55,-1585.54)">
                <path d="M472.963,612.76C474.175,609.808 472.127,608.257 470.067,608.347C467.341,608.467 467.179,611.904 467.785,612.85" style="fill:none;stroke:white;stroke-width:0.48px;"/>
            </g>
            <g transform="matrix(3.15009,0,0,3.15009,-1093.55,-1585.54)">
                <path d="M471.832,607.578C473.974,608.212 475.411,609.14 475.219,609.251C475.121,609.307 474.681,610.598 474.553,610.598C474.149,610.598 473.277,610.347 473.213,611.074C473.128,612.054 474.894,611.864 474.894,610.797" style="fill:none;stroke:white;stroke-width:0.48px;"/>
            </g>
            <g transform="matrix(3.15009,0,0,3.15009,-1093.55,-1585.54)">
                <path d="M466.169,610.712C465.859,610.606 465.808,611.671 466.325,611.78C467.621,612.052 468.067,609.88 466.169,610.712Z" style="fill:none;stroke:white;stroke-width:0.48px;"/>
            </g>
            <g transform="matrix(3.15009,0,0,3.15009,-1093.55,-1585.54)">
                <path d="M457.018,627.896C457.252,628.31 450.7,629.223 450.621,629.235C446.671,629.85 442.73,630.536 438.798,631.253C428.835,633.069 419.327,635.967 410.575,641.253C406.707,643.59 401.311,646.752 401.247,651.883C401.146,659.874 411.834,660.813 417.625,661.341C433.989,662.833 451.025,661.392 467.107,665.138C469.573,665.712 471.951,666.437 474.288,667.415C475.446,667.9 476.709,668.514 477.781,669.173C486.524,674.544 472.662,679.688 468.344,681.169C465.222,682.24 462.063,683.165 458.886,684.054C453.048,685.689 447.232,687.421 441.379,689" style="fill:none;stroke:white;stroke-width:0.48px;"/>
            </g>
            <g transform="matrix(3.15009,0,0,3.15009,-1093.55,-1585.54)">
                <path d="M529.64,681.096C526.905,673.091 516.671,667.584 509.322,665.159C490.451,658.934 470.036,657.447 450.512,654.313C446.511,653.67 442.515,653.012 438.559,652.122C436.205,651.592 433.933,651.044 431.639,650.3C430.738,650.007 429.839,649.702 428.971,649.323C423.106,646.766 427.632,643.648 431.596,641.926C438.604,638.882 446.347,637.553 453.831,636.264C461.29,634.979 468.846,633.62 476.414,633.184" style="fill:none;stroke:white;stroke-width:0.48px;"/>
            </g>
        </g>
    </g>
</svg>
