<?xml version="1.0" encoding="UTF-8" standalone="no"?>
<!DOCTYPE svg PUBLIC "-//W3C//DTD SVG 1.1//EN" "http://www.w3.org/Graphics/SVG/1.1/DTD/svg11.dtd">
<svg width="100%" height="100%" viewBox="0 0 1480 562" version="1.1" xmlns="http://www.w3.org/2000/svg" xmlns:xlink="http://www.w3.org/1999/xlink" xml:space="preserve" xmlns:serif="http://www.serif.com/" style="fill-rule:evenodd;clip-rule:evenodd;stroke-linecap:round;stroke-linejoin:round;stroke-miterlimit:1.5;">
    <g transform="matrix(1.1142,0,0,1.11435,26.9134,-2212.56)">
        <g id="datasets">
            <g transform="matrix(6.49543,0,0,1.81123,-1228.52,1853.63)">
                <path d="M192.852,308.143C193.539,308.561 227.765,307.852 228.438,307.769C231.395,307.407 234.345,307.38 237.32,307.426C250.332,307.63 263.019,307.059 275.96,305.665C287.025,304.472 298.115,305.195 309.221,305.195C333.655,305.195 358.094,306.912 382.484,308.366" style="fill:none;stroke:rgb(104,124,255);stroke-width:0.45px;"/>
            </g>
            <g transform="matrix(3.73106,0,0,3.73106,-627.263,1263.04)">
                <path d="M260.377,306.045C260.26,306.63 260.324,304.851 260.293,304.255C260.23,303.056 260.199,301.859 260.105,300.661C259.808,296.883 259.514,293.112 259.142,289.34C259.129,289.204 258.666,286.028 259.071,286.028C262.422,286.028 265.796,286.422 269.172,286.286C272.55,286.15 275.948,285.69 279.296,285.229C280.166,285.109 283.171,284.815 283.447,285.228C283.747,285.679 283.86,289.926 283.876,290.866C283.95,295.167 282.862,301.518 284.275,305.759" style="fill:none;stroke:rgb(104,124,255);stroke-width:0.58px;"/>
            </g>
            <g transform="matrix(3.73106,0,0,3.73106,-627.263,1263.04)">
                <path d="M284.431,292.303C284.344,292.382 285.087,292.175 285.802,292.205C287.196,292.263 288.589,292.252 289.983,292.252C293.453,292.252 296.837,292.445 300.295,292.745C302.179,292.909 304.065,293.05 305.956,293.098C307.935,293.148 310.617,292.519 312.556,293.004C312.718,293.044 312.405,295.537 312.392,295.729C312.19,298.707 311.734,301.82 311.734,304.795" style="fill:none;stroke:rgb(104,124,255);stroke-width:0.58px;"/>
            </g>
            <g transform="matrix(3.73106,0,0,3.73106,-627.263,1263.04)">
                <path d="M304.633,292.625C304.522,290.048 304.994,282.66 305.627,279.075C305.707,278.621 305.912,275.315 306.261,275.082C306.598,274.857 319.842,275.41 323.599,275.591C324.307,275.625 323.081,282.096 323.056,283.256C322.906,290.157 322.93,298.33 321.792,305.161" style="fill:none;stroke:rgb(104,124,255);stroke-width:0.58px;"/>
            </g>
            <g transform="matrix(3.73106,0,0,3.73106,-627.263,1263.04)">
                <path d="M273.796,285.713C273.632,285.759 274.836,278.532 275.115,276.796C275.74,272.901 275.492,266.787 277.276,263.22C277.355,263.061 281.231,264.04 281.386,264.065C286.057,264.81 291.589,264.422 295.856,266.555C296.348,266.801 295.553,273.556 295.527,274.095C295.318,278.368 293.708,291.768 293.708,291.768C293.708,291.768 286.898,289.881 283.901,290.095" style="fill:none;stroke:rgb(104,124,255);stroke-width:0.58px;"/>
            </g>
            <g transform="matrix(3.73106,0,0,3.73106,-627.263,1263.04)">
                <path d="M297.402,274.019C297.398,274.022 296.736,263.497 298.181,261.763C298.704,261.135 301.228,261.754 301.869,261.763C305.635,261.819 309.405,261.833 313.167,262.069C314.835,262.173 321.301,261.525 322.234,263.924C322.697,265.115 321.843,275.591 321.843,275.591C321.843,275.591 312.589,275.094 311.926,275.04C308.236,274.741 299.473,274.029 297.402,274.019" style="fill:none;stroke:rgb(104,124,255);stroke-width:0.58px;"/>
            </g>
            <g transform="matrix(3.73106,0,0,3.73106,-627.263,1263.04)">
                <path d="M283.334,253.622C283.2,253.579 287.44,263.273 288.017,264.715" style="fill:none;stroke:rgb(104,124,255);stroke-width:0.58px;"/>
            </g>
            <g transform="matrix(3.73106,0,0,3.73106,-627.263,1263.04)">
                <path d="M290.218,264.981C291.436,264.44 292.662,263.918 293.882,263.384C298.89,261.193 304.016,259.468 308.765,256.755" style="fill:none;stroke:rgb(104,124,255);stroke-width:0.58px;"/>
            </g>
            <g transform="matrix(3.73106,0,0,3.73106,-627.263,1263.04)">
                <path d="M283.33,253.367C283.181,253.59 289.312,250.824 290.289,250.465C295.415,248.581 297.793,247.787 301.167,246.347" style="fill:none;stroke:rgb(104,124,255);stroke-width:0.58px;"/>
            </g>
            <g transform="matrix(3.73106,0,0,3.73106,-627.263,1263.04)">
                <path d="M304.856,245.801C304.895,246.495 305.776,248.364 305.838,248.539C306.817,251.295 308.318,254.259 308.765,256.755" style="fill:none;stroke:rgb(104,124,255);stroke-width:0.58px;"/>
            </g>
            <g transform="matrix(3.73106,0,0,3.73106,-627.263,1263.04)">
                <path d="M271.166,297.732C270.948,296.951 270.026,298.938 269.289,299.275C267.739,299.986 264.752,300.639 263.558,298.947C261.703,296.319 263.34,292.814 265.977,291.524C269.416,289.841 274.97,289.763 278.192,292.064C281.447,294.389 280.878,300.215 276.571,300.732C274.548,300.975 272.768,299.278 271.45,297.96" style="fill:none;stroke:rgb(104,124,255);stroke-width:0.58px;"/>
            </g>
            <g transform="matrix(3.73106,0,0,3.73106,-627.263,1263.04)">
                <path d="M265.255,298.463C264.746,299.105 265.259,296.767 265.625,296.034C266.234,294.816 268.607,292.814 269.806,294.413" style="fill:none;stroke:rgb(104,124,255);stroke-width:0.58px;"/>
            </g>
            <g transform="matrix(3.73106,0,0,3.73106,-627.263,1263.04)">
                <path d="M266.826,295.579C270.131,298.022 275.803,294.073 271.439,290.459" style="fill:none;stroke:rgb(104,124,255);stroke-width:0.58px;"/>
            </g>
            <g transform="matrix(3.73106,0,0,3.73106,-627.263,1263.04)">
                <path d="M273.247,295.133C273.676,294.603 275.371,295.525 275.537,295.987C276.247,297.957 274.444,299.769 272.531,299.769" style="fill:none;stroke:rgb(104,124,255);stroke-width:0.58px;"/>
            </g>
            <g transform="matrix(3.73106,0,0,3.73106,-627.263,1263.04)">
                <path d="M275.663,296.336C277.317,296.147 278.239,295.051 278.239,293.92" style="fill:none;stroke:rgb(104,124,255);stroke-width:0.58px;"/>
            </g>
            <g transform="matrix(2.42428,0,0,2.42428,-255.889,1624.09)">
                <path d="M284.933,274.504C284.135,272.763 286.383,268.961 288.104,270.854C288.611,271.411 288.816,275.246 287.611,275.246" style="fill:none;stroke:rgb(104,124,255);stroke-width:0.89px;"/>
            </g>
            <g transform="matrix(2.42428,0,0,2.42428,-255.889,1624.09)">
                <path d="M284.46,274.584C284.506,273.502 282.266,276.522 282.091,276.89C281.134,278.9 281.532,282.578 284.04,283.232C287.413,284.112 290.08,276.253 286.859,274.964" style="fill:none;stroke:rgb(104,124,255);stroke-width:0.89px;"/>
            </g>
            <g transform="matrix(2.42428,0,0,2.42428,-255.889,1624.09)">
                <path d="M284.123,277.807C282.237,277.246 282.448,272.287 280,271.911C277.933,271.592 277.295,277.808 278.098,278.84C279.264,280.34 282.997,278.417 284.581,278.417" style="fill:none;stroke:rgb(104,124,255);stroke-width:0.89px;"/>
            </g>
            <g transform="matrix(2.42428,0,0,2.42428,-255.889,1624.09)">
                <path d="M284.711,278.507C284.654,278.366 287.345,276.576 287.564,276.397C287.847,276.166 290.622,273.416 291.087,273.602C292.353,274.108 291.602,281.263 290.077,281.917C288.293,282.682 286.353,279.568 284.933,279.051" style="fill:none;stroke:rgb(104,124,255);stroke-width:0.89px;"/>
            </g>
            <g transform="matrix(3.73106,0,0,3.53091,-611.024,1322.43)">
                <path d="M286.38,295.524C286.256,295.298 286.399,296.039 286.404,296.296C286.416,296.948 286.424,297.598 286.41,298.249C286.379,299.809 286.292,301.346 286.11,302.893" style="fill:none;stroke:rgb(104,124,255);stroke-width:0.59px;"/>
            </g>
            <g transform="matrix(3.73106,0,0,3.53091,-611.024,1322.43)">
                <path d="M285.827,296.466C285.77,295.624 287.326,295.007 287.964,295.279C288.657,295.575 288.912,296.331 288.977,297.013C289.078,298.075 288.625,299.282 287.689,299.854C287.4,300.031 287.024,300.089 286.694,300.052C286.667,300.049 286.171,299.889 286.29,299.88C287.313,299.807 288.548,301.443 289.14,302.086C289.518,302.497 290.222,303.365 290.222,303.365C290.222,303.365 290.309,302.752 290.359,302.447C290.431,302.009 290.495,301.57 290.574,301.133C290.816,299.786 291.115,298.443 291.449,297.116C291.481,296.991 291.992,294.733 292.084,294.764C292.522,294.91 292.793,296.7 292.9,297.047C293.549,299.168 293.915,301.138 294.342,303.271" style="fill:none;stroke:rgb(104,124,255);stroke-width:0.59px;"/>
            </g>
            <g transform="matrix(3.73106,0,0,3.53091,-611.024,1322.43)">
                <path d="M290.334,300.506C290.184,300.508 290.616,300.404 290.762,300.369C291.011,300.31 291.26,300.247 291.509,300.189C292.251,300.016 293.833,300.065 294.419,299.563" style="fill:none;stroke:rgb(104,124,255);stroke-width:0.59px;"/>
            </g>
            <g transform="matrix(3.73106,0,0,3.53091,-611.024,1322.43)">
                <path d="M295.141,296.252C295.115,296.26 295.338,302.739 296.024,303.099C296.754,303.481 297.628,300.399 297.75,299.983C297.787,299.857 297.934,299.022 298.153,299.056C298.644,299.132 298.924,301.865 299.012,302.275C299.029,302.358 299.122,303.229 299.312,303.185C300.019,303.022 300.23,301.714 300.359,301.176C300.796,299.368 301.128,297.427 301.716,295.665" style="fill:none;stroke:rgb(104,124,255);stroke-width:0.59px;"/>
            </g>
            <g transform="matrix(3.73106,0,0,3.73106,-627.263,1263.04)">
                <path d="M304.963,291.741C304.895,291.843 305.272,291.449 305.321,291.408C305.65,291.135 305.988,290.872 306.325,290.609C307.058,290.038 308.32,289.491 308.84,288.687C309.075,288.324 308.338,287.72 308.128,287.493C307.205,286.498 307.122,284.185 308.986,284.223C310.163,284.247 310.192,285.33 310.248,286.232C310.257,286.376 310.219,287.251 310.471,287.287C310.872,287.345 311.821,286.52 312.145,286.335C313.055,285.813 314.507,285.445 314.772,284.283C315.027,283.165 313.591,281.075 315.09,280.429C317.45,279.41 315.019,283.901 316.789,283.639C318.386,283.403 318.062,281.452 318.815,280.472C319.798,279.19 321.985,277.795 323.425,276.995" style="fill:none;stroke:rgb(104,124,255);stroke-width:0.58px;"/>
            </g>
            <g transform="matrix(3.73106,0,0,3.73106,-627.263,1263.04)">
                <path d="M308.549,292.374C308.397,292.552 308.969,292.161 309.167,292.034C309.591,291.763 309.998,291.471 310.394,291.159C311.413,290.354 312.307,289.566 313.51,289.047C313.773,288.934 314.362,288.526 314.652,288.712C315.679,289.373 313.244,291.923 315.029,291.923C318.318,291.923 315.025,288.168 316.334,287.227C316.841,286.863 317.859,286.113 318.472,286.695C319.183,287.371 318.667,288.728 320.257,288.103C320.499,288.008 320.742,287.867 320.927,287.682C321.89,286.719 321.327,285.85 320.24,285.442C320.067,285.377 319.236,285.258 319.236,284.987C319.236,283.88 321.094,282.57 321.734,281.776C321.861,281.618 322.438,281.111 322.438,280.892" style="fill:none;stroke:rgb(104,124,255);stroke-width:0.58px;"/>
            </g>
            <g transform="matrix(3.08663,0,0,3.33569,-507.465,1386.45)">
                <path d="M231.95,245.264C232.109,248.682 233.678,253.03 237.415,251.544C242.623,249.474 239.563,241.63 238.245,241.629" style="fill:none;stroke:rgb(104,124,255);stroke-width:0.67px;"/>
            </g>
            <g transform="matrix(3.08663,0,0,3.33569,-507.465,1386.45)">
                <path d="M239.058,254.574C245.948,250.727 248.473,244.898 251.599,238.467" style="fill:none;stroke:rgb(104,124,255);stroke-width:0.67px;"/>
            </g>
            <g transform="matrix(2.70165,0,0,2.79495,-414.512,1526.89)">
                <path d="M254.469,236.178C255.82,235.229 258.673,229.703 256.728,229.323C255.104,229.005 252.591,230.386 251.977,231.614C251.267,233.034 255.472,236.95 255.43,237.636C254.959,245.347 247.826,255.224 241.448,259.712" style="fill:none;stroke:rgb(104,124,255);stroke-width:0.78px;"/>
            </g>
            <g transform="matrix(3.08663,0,0,3.08663,-396.335,1439.1)">
                <path d="M439.126,245.869C437.231,244.685 435.446,246.41 434.925,248.178C434.108,250.948 434.114,256.024 438.274,255.747C442.189,255.486 441.719,247.49 439.126,245.869Z" style="fill:none;stroke:rgb(104,124,255);stroke-width:0.7px;"/>
            </g>
            <g transform="matrix(3.08663,0,0,3.08663,-396.335,1439.1)">
                <path d="M439.146,261.492C439.163,261.522 440.26,259.994 440.961,258.074C441.594,256.341 441.931,254.482 442.115,252.643C442.415,249.643 442.211,246.378 441.075,243.561C440.976,243.315 439.132,239.546 439.201,239.511C441.964,238.13 444.822,243.222 445.446,244.98C447.877,251.831 448.636,259.542 444.3,265.613" style="fill:none;stroke:rgb(104,124,255);stroke-width:0.7px;"/>
            </g>
            <g transform="matrix(4.66035,0,0,4.66035,179.959,1773.38)">
                <path d="M161.223,116.395C161.223,116.395 168.311,116.961 171.386,115.993" style="fill:none;stroke:rgb(104,124,255);stroke-width:0.46px;"/>
            </g>
            <g transform="matrix(3.08663,0,0,3.08663,-396.335,1439.1)">
                <path d="M438.917,239.797C438.203,240.63 434.667,237.873 435.171,236.635C436.726,232.819 439.993,236.435 439.088,239.152" style="fill:none;stroke:rgb(104,124,255);stroke-width:0.7px;"/>
            </g>
            <g transform="matrix(3.08663,0,0,3.08663,-396.335,1439.1)">
                <path d="M440.189,259.285C432.425,254.591 428.679,268.89 426.489,273.294C425.535,275.213 423.704,276.774 423.841,278.12C423.94,279.1 425.097,280.159 425.011,279.986" style="fill:none;stroke:rgb(104,124,255);stroke-width:0.7px;"/>
            </g>
            <g transform="matrix(3.08663,0,0,3.08663,-396.335,1439.1)">
                <path d="M423.833,277.975C422.019,275.378 419.58,280.704 422.736,280.967C423.484,281.03 424.131,280.679 424.877,280.253" style="fill:none;stroke:rgb(104,124,255);stroke-width:0.7px;"/>
            </g>
            <g transform="matrix(3.08663,0,0,3.08663,-396.335,1439.1)">
                <path d="M431.182,269.495C430.147,273.775 429.75,278.287 429.75,284.644C429.75,290.093 429.887,295.536 429.928,300.984C429.941,302.664 429.93,304.342 429.988,306.021C430.009,306.632 430.014,307.258 430.087,307.865C430.123,308.165 430.246,309.06 430.246,308.758C430.246,307.644 425.011,307.643 425.011,310.245C425.011,313.463 430.334,311.572 431.951,311.336C432.654,311.233 433.697,312.119 434.232,311.851" style="fill:none;stroke:rgb(104,124,255);stroke-width:0.7px;"/>
            </g>
            <g transform="matrix(3.08663,0,0,3.08663,-396.335,1439.1)">
                <path d="M444.3,265.613C445.375,267.658 445.232,274.098 445.376,277.049C445.823,286.172 444.707,294.632 442.481,303.463C441.815,306.106 441.493,310.309 439.923,312.664C439.552,313.22 438.578,312.606 437.92,312.724C435.431,313.168 433.438,312.495 433.617,309.63C433.872,305.542 438.551,305.307 439.269,309.253" style="fill:none;stroke:rgb(104,124,255);stroke-width:0.7px;"/>
            </g>
            <g transform="matrix(3.08663,0,0,3.08663,-396.335,1439.1)">
                <path d="M436.118,287.892C436.19,287.897 436.34,292.453 436.353,292.695C436.582,296.967 437.773,302.119 436.393,306.259" style="fill:none;stroke:rgb(104,124,255);stroke-width:0.7px;"/>
            </g>
            <g transform="matrix(3.08663,0,0,3.08663,-396.335,1439.1)">
                <path d="M424.877,280.02C425.141,281.326 429.082,278.447 430.128,275.773" style="fill:none;stroke:rgb(104,124,255);stroke-width:0.7px;"/>
            </g>
            <g transform="matrix(3.08663,0,0,3.33569,-507.465,1386.45)">
                <path d="M239.058,254.574C230.12,253.752 229.502,256.61 228.701,257.928C226.598,261.386 225.679,265.546 223.533,268.994C222.891,270.025 222.13,271.015 221.385,271.973C219.806,274.002 214.821,277.111 214.208,278.6C213.778,279.644 213.858,280.925 214.614,281.802C216.83,284.372 218.64,278.235 218.77,278.235C219.632,278.235 220.459,278.056 221.283,277.809C223.735,277.074 226,275.185 227.586,273.209C229.589,270.714 229.859,270.074 229.522,270.853" style="fill:none;stroke:rgb(104,124,255);stroke-width:0.67px;"/>
            </g>
            <g transform="matrix(4.66035,0,0,5.03639,24.1296,1724.76)">
                <path d="M30.828,117.108C30.828,117.108 31.211,116.355 29.382,115.743" style="fill:none;stroke:rgb(104,124,255);stroke-width:0.44px;"/>
            </g>
            <g transform="matrix(4.66035,0,0,5.03639,24.1296,1724.76)">
                <path d="M37.145,120.662C37.145,120.662 43.97,116.94 48.495,119.887" style="fill:none;stroke:rgb(104,124,255);stroke-width:0.44px;"/>
            </g>
            <g transform="matrix(3.08663,0,0,3.33569,-507.465,1386.45)">
                <path d="M230.718,266.53C228.105,272.559 228.286,288.313 228.35,298.098C228.368,300.77 228.525,307.109 228.802,307.441C229.348,308.096 228.76,302.121 232.835,303.142C236.553,304.074 234.666,307.662 234.983,307.175C236.953,304.147 238.601,304.427 239.888,305.614C240.409,306.095 241.266,307.236 241.266,307.236C241.266,307.236 241.309,306.18 241.367,305.655C241.496,304.492 241.622,303.327 241.793,302.169C242.24,299.134 243.195,296.184 243.779,293.171C245.282,285.405 247.495,268.203 241.448,259.712" style="fill:none;stroke:rgb(104,124,255);stroke-width:0.67px;"/>
            </g>
            <g transform="matrix(3.08663,0,0,3.08663,-238.975,749.9)">
                <path d="M211.059,478.95C210.856,477.585 210.615,473.626 210.418,472.26C209.932,468.886 208.592,464.755 209.624,461.381C211.675,454.678 219.674,456.697 223.629,460.256L225.067,461.695" style="fill:none;stroke:rgb(104,124,255);stroke-width:0.7px;"/>
            </g>
            <g transform="matrix(3.08663,0,0,3.08663,-238.975,749.9)">
                <path d="M214.586,481.305C214.565,478.634 207.615,477.786 208.025,481.886C208.222,483.861 215.787,484.897 215.398,484.897" style="fill:none;stroke:rgb(104,124,255);stroke-width:0.7px;"/>
            </g>
            <g transform="matrix(3.08663,0,0,3.08663,-194.983,161.499)">
                <path d="M205.091,648.327C205.789,646.68 206.04,642.093 206.024,640.36C205.937,631.279 209.414,629.752 214.119,632.048C221.339,635.572 221.49,644.867 222.713,650.165C223.269,652.576 225.536,651.035 227.541,651.937C229.191,652.68 228.681,654.471 227.364,655.215C224.652,656.748 219.393,650.954 218.482,648.283C218.167,647.357 217.643,645.163 217.127,643.567" style="fill:none;stroke:rgb(104,124,255);stroke-width:0.7px;"/>
            </g>
            <g transform="matrix(3.08663,0,0,3.08663,-194.983,161.499)">
                <path d="M218.475,648.264C219.039,651.863 218.709,654.922 215.825,657.297C213.583,659.143 209.087,659.958 206.301,660.021C205.324,660.043 202.823,658.933 202.004,659.401C201.026,659.96 201.974,662.699 202.071,663.366C202.598,666.98 202.628,672.097 201.16,675.524" style="fill:none;stroke:rgb(104,124,255);stroke-width:0.7px;"/>
            </g>
            <g transform="matrix(3.08663,0,0,3.08663,-194.983,161.499)">
                <path d="M207.501,649.498C208.171,647.895 208.999,643.883 208.999,642.31" style="fill:none;stroke:rgb(104,124,255);stroke-width:0.7px;"/>
            </g>
            <g transform="matrix(3.08663,0,0,3.08663,-194.983,161.499)">
                <path d="M213.185,628.145C211.69,627.02 211.563,625.305 211.611,624.574C211.785,621.935 214.264,617.358 217.868,619.16C219.295,619.873 219.672,622.556 219.391,623.909C218.804,626.737 214.664,629.477 213.185,628.145" style="fill:none;stroke:rgb(104,124,255);stroke-width:0.7px;"/>
            </g>
            <g transform="matrix(3.18531,0,0,3.08663,-544.196,1446.52)">
                <path d="M356.629,266.984C356.54,263.464 353.653,263.197 353.13,265.311C352.39,268.302 355.259,267.327 356.629,266.984Z" style="fill:none;stroke:rgb(104,124,255);stroke-width:0.69px;"/>
            </g>
            <g transform="matrix(3.08663,0,0,3.08663,-507.465,1460.34)">
                <path d="M355.321,260.092C355.116,260.134 365.772,257.242 366.012,256.969C367.134,255.69 369.355,253.238 370.213,250.807" style="fill:none;stroke:rgb(104,124,255);stroke-width:0.7px;"/>
            </g>
            <g transform="matrix(3.08663,0,0,3.08663,-507.465,1460.34)">
                <path d="M374.59,245.248C383.345,256.374 365.465,263.865 356.775,262.563" style="fill:none;stroke:rgb(104,124,255);stroke-width:0.7px;"/>
            </g>
            <g transform="matrix(3.08663,0,0,3.08663,-507.465,1460.34)">
                <path d="M369.289,230.231C366.613,230.635 364.373,237.947 367.625,241.126C373.035,246.413 377.885,233.394 370.253,230.204" style="fill:none;stroke:rgb(104,124,255);stroke-width:0.7px;"/>
            </g>
            <g transform="matrix(3.08663,0,0,3.08663,-507.465,1460.34)">
                <path d="M374.202,245.121C369.818,243.881 366.853,246.594 366.27,247.741C364.952,250.332 364.383,255.57 364.144,257.2" style="fill:none;stroke:rgb(104,124,255);stroke-width:0.7px;"/>
            </g>
            <g transform="matrix(3.08663,0,0,3.08663,-507.465,1460.34)">
                <path d="M364.301,262.385C362.664,265.4 363.09,271.862 362.41,275.302C362.276,275.977 360.961,279.6 361.908,280.168C363.333,281.023 367.949,280.09 369.577,280.109C370.758,280.123 374.998,281.098 376.006,280.522C377.081,279.908 376.703,274.788 376.714,273.915C376.782,268.261 378.263,258.637 376.818,252.404" style="fill:none;stroke:rgb(104,124,255);stroke-width:0.7px;"/>
            </g>
            <g transform="matrix(3.08663,0,0,3.08663,-507.465,1460.34)">
                <path d="M373.918,280.971C373.817,280.264 373.814,292.465 373.912,297.982C373.939,299.468 374.457,300.861 373.322,302.071C372.606,302.834 368.975,301.124 367.305,302.484C366.1,303.466 366.591,304.934 368.22,305.02C369.348,305.08 371.051,305.411 373.498,304.699" style="fill:none;stroke:rgb(104,124,255);stroke-width:0.7px;"/>
            </g>
            <g transform="matrix(3.08663,0,0,3.08663,-507.465,1460.34)">
                <path d="M365.951,280.464C365.694,287.002 368.922,295.517 368.072,300.331C367.979,300.86 364.858,300.077 363.805,300.335C361.89,300.805 361.412,302.916 362.127,303.774C363.439,305.35 365.055,304.619 366.635,303.742" style="fill:none;stroke:rgb(104,124,255);stroke-width:0.7px;"/>
            </g>
            <g transform="matrix(3.08663,0,0,3.08663,-507.465,1460.34)">
                <path d="M367.331,246.502C364.18,249.472 360.401,251.476 359.929,251.62C357.926,252.229 353.779,251.401 351.585,251.087C349.586,250.802 349.056,249.031 347.085,250.107C346.063,250.664 346.024,252.177 347.434,252.966C348.589,253.613 351.212,253.51 351.212,253.51C351.212,253.51 359.845,257.231 363.926,256.097" style="fill:none;stroke:rgb(104,124,255);stroke-width:0.7px;"/>
            </g>
            <g transform="matrix(3.08658,-0.0182109,0.016808,2.8488,-512.132,1523.15)">
                <path d="M372.104,228.126C370.442,228.044 369.028,230.897 369.015,231.455C368.972,233.329 372.369,233.203 372.906,235.126C373.264,236.406 372.444,242.748 374.551,242.447C376.578,242.157 377.207,239.31 377.5,237.693C378.209,233.769 376.972,228.126 372.104,228.126" style="fill:none;stroke:rgb(104,124,255);stroke-width:0.73px;"/>
            </g>
            <g transform="matrix(3.08663,0,0,3.08663,-194.983,161.499)">
                <path d="M217.94,618.074C217.07,615.138 213.044,615.933 211.603,617.61C208.835,620.835 210.693,625.258 207.859,627.846" style="fill:none;stroke:rgb(104,124,255);stroke-width:0.7px;"/>
            </g>
            <g transform="matrix(3.08663,0,0,3.33569,-194.983,-17.1883)">
                <path d="M133.708,727.522C133.649,727.511 134.387,725.252 134.425,725.138C134.951,723.56 135.312,721.885 135.53,720.237C136.149,715.547 135.983,711.062 135.983,706.353" style="fill:none;stroke:rgb(104,124,255);stroke-width:0.67px;"/>
            </g>
            <g transform="matrix(3.08663,0,0,3.33569,-194.983,-17.1883)">
                <path d="M136.96,659.299C134.508,659.445 131.423,658.668 130.344,660.58C128.089,664.576 130.226,667.695 132.03,665.121C134.422,661.706 137.9,662.983 139.27,661.613C140.884,660 138.996,659.177 136.96,659.299Z" style="fill:none;stroke:rgb(104,124,255);stroke-width:0.67px;"/>
            </g>
            <g transform="matrix(4.66035,0,0,4.66035,24.1296,1773.38)">
                <path d="M118.546,100.732C118.546,100.732 118.1,99.86 118.802,99.129" style="fill:none;stroke:rgb(104,124,255);stroke-width:0.46px;"/>
            </g>
            <g transform="matrix(4.66015,0.0428958,-0.0428958,4.66015,35.2396,1768.9)">
                <path d="M105.813,102.729C105.813,102.729 103.17,102.796 102.631,102.631C102.092,102.467 102.169,107.161 102.169,107.161C102.169,107.161 104.195,107.591 105.263,107.311" style="fill:none;stroke:rgb(104,124,255);stroke-width:0.46px;"/>
            </g>
            <g transform="matrix(4.66015,0.0428958,-0.0428958,4.66015,35.2396,1768.9)">
                <path d="M102.193,104.947L104.577,105.016" style="fill:none;stroke:rgb(104,124,255);stroke-width:0.46px;"/>
            </g>
            <g transform="matrix(4.66015,0.0428958,-0.0428958,4.66015,35.2396,1768.9)">
                <path d="M107.328,107.266C107.328,107.266 108.016,104.154 107.997,102.959C107.979,101.764 109.308,104.219 109.749,104.947C110.005,105.369 111.009,102.704 111.529,102.627C111.529,102.627 111.728,106.534 111.788,107.518" style="fill:none;stroke:rgb(104,124,255);stroke-width:0.46px;"/>
            </g>
            <g transform="matrix(0.868382,-0.178878,0.328741,1.23736,336.072,1831.1)">
                <path d="M219.306,346.39C219.069,342.551 210.827,364.892 210.576,365.676C206.045,379.864 201.29,394.978 200.695,409.97C200.581,412.847 199.466,422.094 203.591,423.332C208.892,424.922 212.957,412.76 214.251,409.654C220.703,394.17 227.997,376.785 229.146,359.835C229.437,355.543 230.357,344.886 223.865,345.305" style="fill:rgb(88,96,246);fill-opacity:0.15;"/>
            </g>
            <g transform="matrix(2.4976,-0.586045,0.661456,2.81821,-956.05,1293.76)">
                <path d="M366.42,419.637C365.152,417.465 362.5,414.876 360.488,416.864C358.808,418.524 360.896,423.81 361.248,425.98C362.738,435.159 354.897,448.691 362.482,443.211C370.799,437.2 368.101,422.52 366.42,419.637Z" style="fill:rgb(89,248,232);fill-opacity:0.16;"/>
            </g>
            <g transform="matrix(-2.25411,0.0141432,-0.207747,2.89614,1850.83,1026.19)">
                <path d="M366.42,419.637C365.152,417.465 362.5,414.876 360.488,416.864C358.808,418.524 360.896,423.81 361.248,425.98C362.738,435.159 354.897,448.691 362.482,443.211C370.799,437.2 368.101,422.52 366.42,419.637Z" style="fill:rgb(89,248,232);fill-opacity:0.16;"/>
            </g>
        </g>
    </g>
</svg>
