<?xml version="1.0" encoding="UTF-8" standalone="no"?>
<!DOCTYPE svg PUBLIC "-//W3C//DTD SVG 1.1//EN" "http://www.w3.org/Graphics/SVG/1.1/DTD/svg11.dtd">
<svg width="100%" height="100%" viewBox="0 0 1480 562" version="1.1" xmlns="http://www.w3.org/2000/svg" xmlns:xlink="http://www.w3.org/1999/xlink" xml:space="preserve" xmlns:serif="http://www.serif.com/" style="fill-rule:evenodd;clip-rule:evenodd;stroke-linecap:round;stroke-linejoin:round;stroke-miterlimit:1.5;">
    <g transform="matrix(1.02614,0,0,1.02614,24.8001,-131.02)">
        <g id="Tasks">
            <g transform="matrix(2.98894,0,0,2.98894,-1977.49,-70.851)">
                <path d="M786.002,112.061C785.694,112.511 778.074,112.93 776.949,112.878C775.051,112.792 773.834,112.771 773.834,112.771C773.834,112.771 773.821,116.726 773.748,119.237C773.71,120.546 773.481,121.617 773.481,122.897C773.481,123.692 786.51,123.398 786.362,122.337C786.142,120.755 786.277,111.65 786.002,112.061Z" style="fill:none;stroke:rgb(104,124,255);stroke-width:0.78px;"/>
            </g>
            <g transform="matrix(2.98894,0,0,2.98894,-1977.49,-70.851)">
                <path d="M787.297,127.684C787.259,127.262 774.496,127.869 773.986,127.997C773.959,128.003 773.964,137.15 773.964,139.799C773.964,139.996 777.679,140.152 778.809,140.022C781.222,139.743 788.257,140.001 787.806,139.416C787.166,138.586 787.381,129.04 787.297,127.684Z" style="fill:none;stroke:rgb(104,124,255);stroke-width:0.78px;"/>
            </g>
            <g transform="matrix(2.98894,0,0,2.98894,-1977.49,36.6489)">
                <path d="M787.297,127.684C787.259,127.262 774.496,127.869 773.986,127.997C773.959,128.003 773.964,137.15 773.964,139.799C773.964,139.996 777.679,140.152 778.809,140.022C781.222,139.743 788.257,140.001 787.806,139.416C787.166,138.586 787.381,129.04 787.297,127.684Z" style="fill:none;stroke:rgb(104,124,255);stroke-width:0.78px;"/>
            </g>
            <g transform="matrix(2.76588,0,0,2.98894,-1804.8,-70.851)">
                <path d="M774.721,158.774C774.71,158.174 774.006,147.627 774.267,147.635C775.032,147.659 788.78,147.354 788.78,147.354L788.925,158.245C788.925,158.245 786.795,158.37 783.654,158.427C782.089,158.456 780.524,158.477 778.96,158.557C778.624,158.574 774.897,158.422 774.721,158.774Z" style="fill:none;stroke:rgb(104,124,255);stroke-width:0.81px;"/>
            </g>
            <g transform="matrix(2.98894,0,0,2.98894,-1977.49,-70.851)">
                <path d="M777.712,116.753C778.06,115.389 778.124,121.872 779.004,120.773C780.909,118.391 782.667,115.775 784.562,113.354C785.192,112.549 785.811,111.735 786.444,110.932C786.453,110.92 787.401,109.595 787.287,109.937" style="fill:none;stroke:rgb(104,124,255);stroke-width:0.78px;"/>
            </g>
            <g transform="matrix(2.98894,0,0,2.98894,-1977.49,-70.851)">
                <path d="M778.102,134.712C778.224,134.53 778.713,137.979 779.263,137.556C781.862,135.557 783.741,131.201 785.514,128.494C785.93,127.859 786.668,126.12 787.525,125.834" style="fill:none;stroke:rgb(104,124,255);stroke-width:0.78px;"/>
            </g>
            <g transform="matrix(3.58886,0,0,3.59813,-2451.47,-154.107)">
                <path d="M745.285,128.602C744.164,129.642 744.012,132.599 743.966,132.949C743.439,136.991 746.785,141.079 750.822,138.01C755.739,134.273 752.098,122.285 745.285,128.602Z" style="fill:none;stroke:rgb(104,124,255);stroke-width:0.65px;"/>
            </g>
            <g transform="matrix(3.58886,0,0,3.59813,-2447.88,-154.107)">
                <path d="M748.501,141.426C750.721,141.44 754.877,140.871 755.559,140.671C759.24,139.588 764.089,138.169 766.719,135.134C767.482,134.254 767.062,126.345 769.768,129.64C771.336,131.549 769.539,134.272 766.976,134.426C766.901,134.43 769.07,134.45 769.12,134.55C769.936,136.184 766.491,139.475 765.659,140.195C761.166,144.085 756.794,146.451 751.402,148.762" style="fill:none;stroke:rgb(104,124,255);stroke-width:0.65px;"/>
            </g>
            <g transform="matrix(3.58886,0,0,3.59813,-2447.88,-154.107)">
                <path d="M748.501,141.426C745.365,140.57 741.995,142.027 740.419,144.131C737.947,147.432 734.513,157.103 732.605,162.513C731.18,166.554 735.201,163.571 735.942,162.364C736.459,161.52 736.981,160.68 737.456,159.812C737.513,159.707 741.186,152.239 741.153,152.255" style="fill:none;stroke:rgb(104,124,255);stroke-width:0.65px;"/>
            </g>
            <g transform="matrix(3.58886,0,0,3.59813,-2447.88,-154.107)">
                <path d="M737.997,158.665C737.319,159.004 737.643,164.906 737.607,165.565C737.27,171.866 735.705,191.571 737.607,192.194C739.098,192.682 740.751,189.72 741.85,189.385C742.74,189.114 744.696,180.484 744.809,176.811C744.816,176.615 745.009,172.443 744.788,172.443C744.632,172.443 744.387,176.329 744.377,176.487C744.193,179.513 744.539,188.396 745.417,191.336C745.805,192.633 746.908,190.713 748.501,189.404C751.316,187.089 751.234,180.278 751.817,176.984C753.652,166.614 752.527,156.583 751.06,146.316" style="fill:none;stroke:rgb(104,124,255);stroke-width:0.65px;"/>
            </g>
            <g transform="matrix(4.94037,0,0,5.88563,-2421.21,-2062.62)">
                <path d="M526.465,424.121C526.465,424.121 524.176,423.81 524.154,424.755C524.133,425.701 526.136,426.913 527.168,425.255" style="fill:none;stroke:rgb(104,124,255);stroke-width:0.43px;"/>
            </g>
            <g transform="matrix(2.86521,0,0,3.09501,-1895.44,-97.2531)">
                <path d="M840.903,128.581C840.837,128.29 838.462,131.294 838.182,134.16C837.908,136.972 838.463,141.75 842.21,141.549C845.966,141.347 849.1,134.708 847.453,131.549C846.47,129.662 844.297,128.568 842.17,128.593C840.046,128.619 838.647,128.573 839.963,126.63C842.06,123.535 846.237,123.183 849.397,125.941C851.662,127.918 849.673,138.521 849.164,140.507" style="fill:none;stroke:rgb(104,124,255);stroke-width:0.78px;"/>
            </g>
            <g transform="matrix(2.84339,-0.0958292,0.0963885,3.33715,-1899.54,-51.5822)">
                <path d="M843.202,145.091C840.223,146.861 838.199,151.7 837.959,151.994C835.64,154.849 832.879,157.359 829.72,159.262C828.334,160.097 826.452,160.142 825.307,161.286C825.235,161.359 823.233,160.878 823.08,160.861C821.698,160.71 820.348,161.006 819.376,162.076C816.309,165.449 825.535,166.901 826.137,163.29" style="fill:none;stroke:rgb(104,124,255);stroke-width:0.76px;"/>
            </g>
            <g transform="matrix(2.84339,-0.0958292,0.0963885,3.33715,-1899.54,-51.5822)">
                <path d="M826.803,159.27C826.567,159.466 823.121,158.855 822.676,158.837C820.714,158.754 815.899,159.21 815.732,158.877C815.499,158.41 815.506,155.834 815.68,155.486C816.151,154.544 819.684,155.202 820.356,155.243C822.461,155.374 825.363,154.644 827.291,155.8C828.229,156.363 828.251,159.345 827.19,159.08C827.049,159.044 827.311,154.945 827.311,154.484C827.311,153.677 827.689,152.003 827.413,151.266C827.349,151.095 826.067,151.468 825.834,151.468L822.17,151.468C821.27,151.468 816.921,150.375 816.4,150.982C815.533,151.994 815.863,155.897 815.863,153.955C815.863,153.449 815.833,152.015 815.833,151.509C815.833,151.081 814.897,148.401 814.922,148.351C815.075,148.046 817.069,148.29 817.352,148.29C819.723,148.29 827.815,147.442 827.747,147.866C827.567,148.993 828.73,150.855 825.874,151.671" style="fill:none;stroke:rgb(104,124,255);stroke-width:0.76px;"/>
            </g>
            <g transform="matrix(2.84339,-0.0958292,0.0963885,3.33715,-1899.54,-51.5822)">
                <path d="M844.968,155.167C844.56,156.844 842.626,158.011 841.32,158.877C836.372,162.159 830.933,161.634 825.479,162.971C825.179,163.044 825.365,161.186 825.065,161.272" style="fill:none;stroke:rgb(104,124,255);stroke-width:0.76px;"/>
            </g>
            <g transform="matrix(3.09087,0,0,3.33877,-1447.87,-1000.51)">
                <path d="M639.077,460.269C639.445,460.182 639.768,459.959 640,459.552C640.608,458.485 641.008,441.678 641.57,439.413C643.695,430.839 644.245,418.614 640.893,410.495C640.036,408.421 637.23,402.709 634.081,405.034" style="fill:none;stroke:rgb(104,124,255);stroke-width:0.73px;"/>
            </g>
            <g transform="matrix(3.09087,0,0,3.33877,-1447.87,-1000.51)">
                <path d="M628.452,424.123C626.766,431.104 626.825,460.468 626.959,460.564C628.056,461.344 630.977,459.929 631.338,457.518C631.629,455.583 632.103,445.572 632.46,445.34C634.919,443.745 635.277,451.136 635.558,456.386" style="fill:none;stroke:rgb(104,124,255);stroke-width:0.73px;"/>
            </g>
            <g transform="matrix(2.88471,-0.0972218,0.0588143,2.03626,-1350.51,-344.596)">
                <path d="M628.562,461.962C628.382,458.089 629.347,457.553 625.884,458.341C622.422,459.13 622.164,464.598 624.981,464.564C627.798,464.53 628.664,464.158 628.562,461.962Z" style="fill:none;stroke:rgb(104,124,255);stroke-width:0.94px;"/>
            </g>
            <g transform="matrix(2.88471,-0.0972218,0.0588143,2.03626,-1317.22,-347.289)">
                <path d="M629.681,462.509C629.091,461.322 629.347,457.553 625.884,458.341C622.422,459.13 622.169,464.394 624.981,464.564C628.147,464.755 630.362,463.878 629.681,462.509Z" style="fill:none;stroke:rgb(104,124,255);stroke-width:0.94px;"/>
            </g>
            <g transform="matrix(2.74231,0,0,2.74231,-1599.78,-17.5054)">
                <path d="M884.086,169.934C886.389,170.535 891.919,169.67 894.218,169.515C899.577,169.155 919.425,168.687 919.693,169.009C920.135,169.539 920.095,171.1 920.095,171.917C920.095,172.433 909.255,171.976 906.239,171.909C900.831,171.79 895.524,172.277 890.147,172.765C889.527,172.822 884.022,173.632 883.608,173.01C883.218,172.425 883.982,170.69 884.086,169.934Z" style="fill:none;stroke:rgb(104,124,255);stroke-width:0.85px;"/>
            </g>
            <g transform="matrix(2.74231,0,0,2.74231,-1599.78,-17.5054)">
                <path d="M887.496,138.031C886.176,140.761 886.216,148.206 890.828,148.269C895.136,148.327 897.4,141.382 895.336,138.362C892.172,133.733 890.204,138.117 886.617,138.117C885.53,138.117 887.23,134.066 887.438,133.766C889.782,130.397 894.516,130.994 897.24,133.33C897.931,133.922 899.59,134.916 899.547,136.003C899.505,137.054 897.866,138.212 897.205,138.903" style="fill:none;stroke:rgb(104,124,255);stroke-width:0.85px;"/>
            </g>
            <g transform="matrix(2.74231,0,0,2.74231,-1599.78,-17.5054)">
                <path d="M883.162,156.592C882.994,156.146 883.59,157.447 883.752,157.896C884.024,158.652 884.277,159.414 884.555,160.168C885.251,162.049 886.759,168.606 889.255,169.009C891.262,169.332 894.389,167.512 896.507,167.331C897.512,167.246 898.497,167.06 899.494,166.912C899.964,166.842 900.91,166.755 900.91,166.755C900.91,166.755 900.605,163.876 901.626,163.278C902.925,162.516 908.014,162.043 906.868,164.885C906.605,165.537 906.03,166.071 905.505,166.51C901.696,169.694 902.182,165.583 899.564,164.047C897.806,163.015 894.965,162.739 893.851,160.849C892.806,159.078 889.512,152.151 887.718,150.715" style="fill:none;stroke:rgb(104,124,255);stroke-width:0.85px;"/>
            </g>
            <g transform="matrix(2.74231,0,0,2.74231,-1599.78,-17.5054)">
                <path d="M887.718,150.715C882.692,144.743 877.575,152.42 877.531,152.48C875.941,154.66 874.917,157.17 873.879,159.643C871.796,164.608 869.847,169.718 868.673,174.984C868.154,177.31 867.358,180.504 868.341,182.83C869.974,186.695 879.312,184.429 882.284,183.686C882.758,183.567 885.824,182.359 886.215,182.62C886.412,182.751 885.515,186.685 885.464,186.953C884.841,190.221 884.024,193.462 883.21,196.685C882.997,197.529 881.977,199.923 882.371,200.809C882.407,200.89 886.25,199.447 886.442,199.394C889.003,198.691 891.529,198.376 893.262,201.176C893.881,202.177 891.254,203.339 890.798,203.517C887.995,204.615 880.723,204.744 882.371,200.809" style="fill:none;stroke:rgb(104,124,255);stroke-width:0.85px;"/>
            </g>
            <g transform="matrix(2.74231,0,0,2.74231,-1599.78,-17.5054)">
                <path d="M891.435,172.738C900.121,172.14 891.203,194.133 888.584,198.235" style="fill:none;stroke:rgb(104,124,255);stroke-width:0.85px;"/>
            </g>
            <g transform="matrix(2.98894,0,0,2.98894,-1812.95,-37.5714)">
                <path d="M927.993,127.423C928.082,127.412 912.729,126.969 912.729,126.969C912.729,126.969 910.723,142.423 912.624,142.548C914.106,142.646 926.644,143.072 926.736,142.269C927.116,138.944 927.338,134.714 927.609,131.37C927.716,130.052 927.889,128.741 927.993,127.423" style="fill:none;stroke:rgb(104,124,255);stroke-width:0.78px;"/>
            </g>
            <g transform="matrix(2.98894,0,0,2.98894,-1813.85,-33.8131)">
                <path d="M917.172,133.613C916.727,134.014 919.553,137.569 920.134,137.134C925.232,133.31 926.017,123.587 931.521,119.459" style="fill:none;stroke:rgb(104,124,255);stroke-width:0.78px;"/>
            </g>
            <g transform="matrix(2.84339,-0.0958292,0.0963885,3.33715,-1899.54,-51.5822)">
                <path d="M836.081,172.403C843.411,172.907 845.571,174.497 851.999,171.283" style="fill:none;stroke:rgb(104,124,255);stroke-width:0.76px;"/>
            </g>
            <g transform="matrix(3.58886,0,0,3.59813,-2447.88,-154.107)">
                <path d="M737.607,165.152C740.542,165.113 750.527,162.039 752.503,162.039" style="fill:none;stroke:rgb(104,124,255);stroke-width:0.65px;"/>
            </g>
            <g transform="matrix(3.58886,0,0,3.59813,-2447.88,-154.107)">
                <path d="M740.401,190.567C742.926,186.877 746.402,193.137 742.093,193.267C740.944,193.302 739.991,192.219 739.404,192.219" style="fill:none;stroke:rgb(104,124,255);stroke-width:0.65px;"/>
            </g>
            <g transform="matrix(3.58886,0,0,3.59813,-2423.07,-154.107)">
                <path d="M740.401,190.567C742.926,186.877 746.402,193.137 742.093,193.267C740.944,193.302 739.991,192.219 739.404,192.219" style="fill:none;stroke:rgb(104,124,255);stroke-width:0.65px;"/>
            </g>
            <g transform="matrix(2.74231,0,0,2.74231,-1033.36,-731.057)">
                <path d="M679.089,430.135L680.133,426.381" style="fill:none;stroke:rgb(104,124,255);stroke-width:0.85px;"/>
            </g>
            <g transform="matrix(2.74231,0,0,2.74231,-1033.09,-729.662)">
                <path d="M677.513,432.927C677.513,432.927 675.565,433.244 673.285,433.945" style="fill:none;stroke:rgb(104,124,255);stroke-width:0.85px;"/>
            </g>
            <g transform="matrix(3.58886,0,0,3.59813,-1712.18,-1090.34)">
                <path d="M544.962,387.691C544.962,387.691 545.13,389.286 542.504,390.896C539.878,392.505 541.135,390.508 541.135,390.508C541.135,390.508 539.91,392.957 537.923,394.333" style="fill:none;stroke:rgb(104,124,255);stroke-width:0.65px;"/>
            </g>
            <g transform="matrix(3.67953,0,0,3.44876,-1750.94,-1025.56)">
                <path d="M561.799,387.738C561.799,387.738 565.964,381.506 568.212,380.172" style="fill:none;stroke:rgb(104,124,255);stroke-width:0.66px;"/>
            </g>
            <g transform="matrix(1.01105,1.13385,-1.13385,1.01105,1242.74,29.032)">
                <path d="M154.265,253.131C154.472,253.373 154.676,253.618 154.877,253.866C155.284,254.368 155.687,254.873 156.086,255.38C147.52,260.505 144.72,268.581 138.405,275.266C135.651,278.182 132.607,279.152 132.496,279.528C132.063,281 139.097,282.564 137.773,284.084C135.474,286.723 131.973,281.809 129.07,281.746C126.245,281.685 123.199,281.876 120.467,282.596C119.046,282.97 104.419,289.097 104.213,289.396C103.861,289.906 108.952,303.441 106.989,305.022C106.019,305.803 105.036,304.168 104.561,303.628C102.182,300.914 105.742,290.73 102.461,290.715C101.115,290.709 93.802,297.546 93.885,298.599C93.995,299.998 100.474,301.248 98.486,302.752C95.714,304.848 95.163,298.432 89,300.324C87.695,300.725 85.961,301.251 85.154,302.464C83.197,305.408 87.308,307.38 88.089,310.036C88.141,310.211 88.508,311.246 88.16,311.334C83.85,312.426 83.332,304.219 83.013,304.444C77.896,308.036 74.48,310.965 72.573,311.947C71.391,312.556 68.909,313.283 68.153,314.396C66.691,316.546 66.704,319.565 65.553,321.896C63.87,325.304 59.966,326.761 59.739,331.032C59.565,334.303 65.497,332.677 65.056,335.045C64.997,335.361 60.558,334.764 59.586,335.441C58.547,336.164 54.215,341.209 54.204,339.476C51.275,337.059 58.61,332.253 57.463,328.535C56.751,326.228 52.498,324.665 54.684,321.777C57.232,318.41 56.082,328.005 59.585,325.602C60.572,324.925 60.881,323.324 61.505,322.329C63.472,319.191 64.825,317.502 62.501,314.057C62.109,313.477 61.211,312.981 60.956,312.357C60.561,311.392 62.512,310.147 63.286,310.377C65.141,310.929 63.786,314.019 65.242,314.901C66.38,315.591 68.08,311.398 68.886,310.881C69.846,310.266 87.09,299.038 87.502,297.485C87.96,295.763 82.304,296.43 81.833,295.132C80.949,292.702 84.794,293.682 85.774,294.133C86.624,294.524 87.982,295.604 88.944,295.452C94.176,294.627 95.278,288.898 100.087,287.09C101.698,286.484 105.514,286.805 106.249,284.958C106.856,283.433 99.629,274.017 103.652,273.798C105.775,273.682 103.803,284.931 109.953,283.372C109.894,283.742 118.378,281.567 118.26,280.556C118.183,279.896 116.929,279.368 116.423,279.145C115.5,278.739 108.039,277.309 109.771,275.556C109.972,275.353 110.216,275.15 110.495,275.066C112.641,274.415 115.27,277.424 116.856,278.361C119.078,279.673 122.118,279.891 124.628,279.712C127.725,279.492 129.909,278.507 132.452,276.916C132.922,276.622 136.93,274.403 137.793,272.133C139.78,266.902 127.989,268.294 130.166,262.673C130.696,261.306 132.49,263.366 133.009,263.759C134.897,265.187 137.227,268.449 140.142,266.739C141.158,266.142 149.381,257.151 154.265,253.131Z" style="fill:none;stroke:rgb(104,124,255);stroke-width:1.54px;"/>
            </g>
            <g transform="matrix(1.13942,0,0,0.591687,-275.576,-1137.85)">
                <path d="M340.985,2844.74C340.985,2844.74 603.73,2842.44 862.144,2844.74C1098.27,2846.84 1309.79,2832.65 1392.53,2844.74" style="fill:none;stroke:rgb(104,124,255);stroke-width:2.58px;"/>
            </g>
            <g transform="matrix(0.942904,-0.194255,0.356953,1.34373,-95.8872,-45.9181)">
                <path d="M219.306,346.39C219.069,342.551 210.827,364.892 210.576,365.676C206.045,379.864 201.29,394.978 200.695,409.97C200.581,412.847 199.466,422.094 203.591,423.332C208.892,424.922 212.957,412.76 214.251,409.654C220.703,394.17 227.997,376.785 229.146,359.835C229.437,355.543 230.357,344.886 223.865,345.305" style="fill:rgb(88,96,246);fill-opacity:0.15;"/>
            </g>
            <g transform="matrix(2.78511,-0.0530023,0.0598144,3.14306,-512.178,-928.08)">
                <path d="M366.42,419.637C365.152,417.465 362.5,414.876 360.488,416.864C358.808,418.524 360.896,423.81 361.248,425.98C362.738,435.159 354.897,448.691 362.482,443.211C370.799,437.2 368.101,422.52 366.42,419.637Z" style="fill:rgb(89,248,232);fill-opacity:0.16;"/>
            </g>
            <g transform="matrix(-2.33443,-0.735635,-1.1788,2.92455,2163.31,-561.381)">
                <path d="M366.42,419.637C365.152,417.465 362.5,414.876 360.488,416.864C358.808,418.524 360.896,423.81 361.248,425.98C362.738,435.159 354.897,448.691 362.482,443.211C370.799,437.2 368.101,422.52 366.42,419.637Z" style="fill:rgb(89,248,232);fill-opacity:0.16;"/>
            </g>
        </g>
    </g>
</svg>
