<?xml version="1.0" encoding="UTF-8" standalone="no"?>
<!DOCTYPE svg PUBLIC "-//W3C//DTD SVG 1.1//EN" "http://www.w3.org/Graphics/SVG/1.1/DTD/svg11.dtd">
<svg width="100%" height="100%" viewBox="0 0 1480 562" version="1.1" xmlns="http://www.w3.org/2000/svg" xmlns:xlink="http://www.w3.org/1999/xlink" xml:space="preserve" xmlns:serif="http://www.serif.com/" style="fill-rule:evenodd;clip-rule:evenodd;stroke-linecap:round;stroke-linejoin:round;stroke-miterlimit:1.5;">
    <g transform="matrix(1.29059,0,0,1.29059,44.8683,-2640.08)">
        <g id="Annotations">
            <g transform="matrix(3.12887,0.10177,-0.0800928,2.46242,-1323.86,714.462)">
                <path d="M520.568,656.364C520.82,659.361 522.211,666.094 525.247,668.604C525.755,669.024 526.964,669.7 528.118,668.667C530.781,666.283 529.344,658.555 528.744,654.02" style="fill:none;stroke:rgb(88,96,246);stroke-width:0.66px;"/>
            </g>
            <g transform="matrix(1.93613,0.0629745,-0.0629745,1.93613,-704.157,1087.01)">
                <path d="M528.489,649.418C526.364,647.679 524.563,639.173 528.489,640.404C532.116,641.542 531.15,649.084 528.489,649.418Z" style="fill:none;stroke:rgb(88,96,246);stroke-width:0.96px;"/>
            </g>
            <g transform="matrix(1.93613,0.0629745,-0.0629745,1.93613,-704.157,1087.01)">
                <path d="M536.606,646.561C540.77,652.095 536.501,668.276 533.884,669.149C532.36,669.657 530.969,667.268 529.989,664.431" style="fill:none;stroke:rgb(88,96,246);stroke-width:0.96px;"/>
            </g>
            <g transform="matrix(1.93613,0.0629745,-0.0629745,1.93613,-698.004,1073.7)">
                <path d="M528.124,656.955C526.382,655.748 529.686,655.48 530.687,655.331C536.355,654.488 534.652,645.165 529.712,650.308" style="fill:none;stroke:rgb(88,96,246);stroke-width:0.96px;"/>
            </g>
            <g transform="matrix(1.93613,0.0629745,-0.0629745,1.93613,-704.157,1087.01)">
                <path d="M525.511,639.722C521.973,639.266 518.55,640.029 515.906,641.383C509.913,644.45 502.891,650.476 496.307,655.858C490.572,660.545 482.495,662.005 475.17,663.392C467.886,664.771 465.7,667.278 457.851,663.644" style="fill:none;stroke:rgb(88,96,246);stroke-width:0.96px;"/>
            </g>
            <g transform="matrix(1.93613,0.0629745,-0.0629745,1.93613,-704.157,1087.01)">
                <path d="M458.405,669.772C479.922,675.518 504.95,672.961 519.092,664.439" style="fill:none;stroke:rgb(88,96,246);stroke-width:0.96px;"/>
            </g>
            <g transform="matrix(1.83541,0.0596986,-0.0661771,2.03459,-640.443,1034.41)">
                <path d="M466.044,657.454C466.154,657.269 464.585,654.919 464.46,654.618C463.232,651.683 460.575,644.947 459.831,641.854" style="fill:none;stroke:rgb(88,96,246);stroke-width:0.96px;"/>
            </g>
            <g transform="matrix(1.83541,0.0596986,-0.0661771,2.03459,-640.443,1034.41)">
                <path d="M463.762,633.96C465.526,634.948 466.607,638.36 467.692,640.013C470.231,643.885 476.798,655.527 479.33,655.712" style="fill:none;stroke:rgb(88,96,246);stroke-width:0.96px;"/>
            </g>
            <g transform="matrix(1.83541,0.0596986,-0.0661771,2.03459,-640.443,1034.41)">
                <path d="M463.762,633.96C462.297,633.3 453.356,637.209 455.565,640.339C457.793,643.496 461.967,641.049 464.432,639.066" style="fill:none;stroke:rgb(88,96,246);stroke-width:0.96px;"/>
            </g>
            <g transform="matrix(1.93613,0.0629745,-0.0629745,1.93613,-709.964,1086.74)">
                <path d="M460.852,663.691C462.458,669.176 460.318,677.743 457.688,673.588C451.338,663.556 460.665,661.487 460.852,663.691Z" style="fill:none;stroke:rgb(88,96,246);stroke-width:0.96px;"/>
            </g>
            <g transform="matrix(1.93613,0.0629745,-0.0629745,1.93613,-704.157,1087.01)">
                <path d="M527.254,628.991C526.75,630.557 525.495,638.354 530.915,639.816C532.66,640.286 534.326,638.455 535.322,637.091C537.789,633.715 538.482,627.148 534.808,624.215C531.569,621.63 528.169,626.154 527.254,628.991Z" style="fill:none;stroke:rgb(88,96,246);stroke-width:0.96px;"/>
            </g>
            <g transform="matrix(1.93613,0.0629745,-0.0629745,1.93613,-704.157,1087.01)">
                <path d="M528.697,627.746C528.534,627.912 530.039,627.811 530.041,627.81C530.886,627.599 531.652,627.161 532.373,626.686C534.314,625.41 537.925,622.234 534.565,620.433C532.748,619.459 529.576,618.402 528.07,620.096C522.646,626.2 520.254,633.763 527.422,631.821" style="fill:none;stroke:rgb(88,96,246);stroke-width:0.96px;"/>
            </g>
            <g transform="matrix(2.28333,0.320865,-0.280546,1.99641,-790.86,896.78)">
                <path d="M618.462,569.428C613.408,572.308 614.563,585.321 619.971,585.232C628.764,585.087 625.846,565.22 618.462,569.428Z" style="fill:none;stroke:rgb(88,96,246);stroke-width:0.86px;"/>
            </g>
            <g transform="matrix(1.93096,-0.154788,0.154788,1.93096,-831.488,1229.04)">
                <path d="M610.362,601.463C615.041,617.522 602.686,662.777 607.203,665.347C616.382,670.57 618.79,633.018 619.184,633.11C624.836,634.425 616.383,667.485 620.246,665.441C626.794,661.975 628.787,649.397 630.448,642.847C634.38,627.349 635.113,624.159 632.222,603.614" style="fill:none;stroke:rgb(88,96,246);stroke-width:0.96px;"/>
            </g>
            <g transform="matrix(1.93096,-0.154788,0.154788,1.93096,-831.488,1229.04)">
                <path d="M629.832,592.904C622.579,587.876 619.848,591.794 616.612,590.605C609.668,588.056 607.203,568.592 603.373,562.849C602.819,562.019 602.006,565.934 601.632,568.393C601.111,571.816 601.315,575.431 601.475,578.881C601.837,586.729 606.471,597.828 610.362,601.463" style="fill:none;stroke:rgb(88,96,246);stroke-width:0.96px;"/>
            </g>
            <g transform="matrix(3.01316,-0.241538,0.154788,1.93096,-1474.22,1279.32)">
                <path d="M599.678,563.372C596.528,560.242 601.256,550.49 602.473,555.635C602.959,557.691 601.168,562.17 599.678,563.372Z" style="fill:none;stroke:rgb(88,96,246);stroke-width:0.73px;"/>
            </g>
            <g transform="matrix(1.93096,-0.154788,0.122976,1.5341,-812.627,1464.34)">
                <path d="M629.832,592.904C635.765,595.698 642.353,621.292 633.979,635.42" style="fill:none;stroke:rgb(88,96,246);stroke-width:1.06px;"/>
            </g>
            <g transform="matrix(1.77886,5.02053e-16,-5.5718e-16,2.57553,-718.904,673.907)">
                <path d="M428.539,676.624C427.454,681.127 962.073,676.721 985.312,676.624" style="fill:none;stroke:rgb(88,96,246);stroke-width:0.84px;"/>
            </g>
            <g transform="matrix(1.92474,-0.218933,0.218933,1.92474,-849.362,1318.68)">
                <path d="M815.528,636.492C811.792,637.527 808.288,640.37 805.8,641.756C799.804,645.097 785.813,650.988 793.076,658.405C797.775,663.204 815.614,659.701 821.768,662.532" style="fill:none;stroke:rgb(88,96,246);stroke-width:0.96px;"/>
            </g>
            <g transform="matrix(1.87212,-0.497713,0.497713,1.87212,-982.22,1568.86)">
                <path d="M821.244,662.842C821.571,662.74 818.769,664.796 818.279,665.951C816.555,670.017 810.468,667.595 812.233,670.637C813.631,673.047 820.67,673.65 822.188,671.184C823.835,668.508 827.173,662.49 821.275,662.846" style="fill:none;stroke:rgb(88,96,246);stroke-width:0.96px;"/>
            </g>
            <g transform="matrix(1.92474,-0.218933,0.218933,1.92474,-849.362,1318.68)">
                <path d="M825.157,658.022C815.909,652.374 806.813,651.932 807.412,652.051" style="fill:none;stroke:rgb(88,96,246);stroke-width:0.96px;"/>
            </g>
            <g transform="matrix(1.92474,-0.218933,0.218933,1.92474,-849.362,1318.68)">
                <path d="M813.63,653.306C819.424,652.737 825.905,649.568 827.96,644.671C833.061,632.517 825.821,611.808 822.289,609.073" style="fill:none;stroke:rgb(88,96,246);stroke-width:0.96px;"/>
            </g>
            <g transform="matrix(1.92474,-0.218933,0.218933,1.92474,-849.362,1318.68)">
                <path d="M799.555,643.343C801.598,640.6 803.873,636.636 805.151,633.549C807.975,626.729 809.529,619.347 813.302,612.963C814.238,611.38 817.565,603.451 822.289,609.073" style="fill:none;stroke:rgb(88,96,246);stroke-width:0.96px;"/>
            </g>
            <g transform="matrix(1.92474,-0.218933,0.218933,1.92474,-849.362,1318.68)">
                <path d="M800.293,644.252C798,642.587 791.514,642.368 791.648,645.166C791.797,648.28 795.411,648.683 799.362,645.607" style="fill:none;stroke:rgb(88,96,246);stroke-width:0.96px;"/>
            </g>
            <g transform="matrix(1.92474,-0.218933,0.218933,1.92474,-849.362,1318.68)">
                <path d="M811.084,638.413C813.201,636.743 815.143,632.863 815.528,630.937" style="fill:none;stroke:rgb(88,96,246);stroke-width:0.96px;"/>
            </g>
            <g transform="matrix(1.92474,-0.218933,0.218933,1.92474,-843.194,1321.93)">
                <path d="M811.653,600.733C809.113,600.902 807.576,598.831 807.261,596.705C806.421,591.03 809.14,584.893 814.099,584.447C819.811,583.933 821.788,589.499 820.356,594.232C819.199,598.059 815.484,600.371 811.653,600.733Z" style="fill:none;stroke:rgb(88,96,246);stroke-width:0.96px;"/>
            </g>
            <g transform="matrix(1.92474,-0.218933,0.218933,1.92474,-849.362,1318.68)">
                <path d="M814.314,610.864C807.55,615.971 797.678,617.567 789.51,619.384C788.115,619.694 783.617,617.835 781.408,618.1C780.824,618.17 780.892,619.836 780.634,620.007C779.555,620.728 783.378,622.839 783.478,622.891C785.852,624.114 788.299,624.907 790.966,625.168C793.398,625.406 804.49,625.338 808.545,624.04" style="fill:none;stroke:rgb(88,96,246);stroke-width:0.96px;"/>
            </g>
            <g transform="matrix(1.10725,-0.921678,0.921678,1.10725,-642.692,2368.51)">
                <path d="M775.684,620.93C773.842,621.775 768.511,613.432 773.031,609.818C776.355,607.16 779.845,608.444 779.846,612.634C779.846,615.792 778.028,618.832 775.684,620.93Z" style="fill:none;stroke:rgb(88,96,246);stroke-width:1.29px;"/>
            </g>
            <g transform="matrix(1.92474,-0.218933,0.218933,1.92474,-852.3,1316.55)">
                <path d="M778.962,615.26C778.856,615.478 779.454,613.613 779.525,613.431C780.073,612.029 780.655,610.63 781.274,609.257C781.404,608.97 782.442,606.77 782.584,606.476C783.305,604.984 786.154,595.346 788.573,596.849C788.913,597.06 786.436,601.242 786.29,601.535C783.878,606.403 781.568,611.297 778.8,615.979" style="fill:none;stroke:rgb(88,96,246);stroke-width:0.96px;"/>
            </g>
            <g transform="matrix(1.93613,0.0629745,-0.0629745,1.93613,-704.157,1087.01)">
                <path d="M522.857,658.499C522.568,656.661 525.517,648.704 527.163,647.43" style="fill:none;stroke:rgb(88,96,246);stroke-width:0.96px;"/>
            </g>
            <g transform="matrix(1.93613,0.0629745,-0.0629745,1.93613,-704.157,1087.01)">
                <path d="M530.959,649.657C530.855,649.383 531.351,650.093 531.548,650.31C531.911,650.709 532.245,651.148 532.546,651.595C533.485,652.993 534.164,654.684 534.3,656.369" style="fill:none;stroke:rgb(88,96,246);stroke-width:0.96px;"/>
            </g>
            <g transform="matrix(1.93096,-0.154788,0.154788,1.93096,-838.359,1217.37)">
                <path d="M622.818,581.107C623.233,581.895 624.452,583.458 624.863,584.287C625.492,585.556 625.752,586.991 625.988,588.374C626.254,589.928 626.148,591.511 626.186,593.078C626.208,593.964 626.352,595.086 627.012,595.749C627.054,595.791 627.491,595.663 627.533,595.654C628.097,595.527 628.643,595.35 629.229,595.396C630.016,595.457 630.785,595.691 631.534,595.927C632.053,596.09 632.532,596.328 633.087,596.257C635.283,595.978 636.349,593.144 636.467,591.187C636.566,589.549 636.101,587.961 635.727,586.384C635.533,585.561 635.353,584.737 635.219,583.902C635.124,583.314 635.037,582.725 634.934,582.139C634.526,579.836 632.341,572.942 625.729,576.249" style="fill:none;stroke:rgb(88,96,246);stroke-width:0.96px;"/>
            </g>
            <g transform="matrix(0.576966,-2.21787,2.13853,0.556326,-1142.63,3243.87)">
                <path d="M607.321,565.064C607.321,565.064 611.041,562.165 612.881,561.513" style="fill:none;stroke:rgb(88,96,246);stroke-width:0.83px;"/>
            </g>
            <g transform="matrix(1.93096,-0.154788,0.154788,1.93096,-836.893,1211.42)">
                <path d="M612.456,635.851C612.456,635.851 616.333,628.753 635.481,638.826" style="fill:none;stroke:rgb(88,96,246);stroke-width:0.96px;"/>
            </g>
            <g transform="matrix(1.93096,-0.154788,0.154788,1.93096,-836.893,1209.49)">
                <path d="M608.246,670.145C608.246,670.145 599.098,669.671 602.743,674.386C606.388,679.101 609.025,674.451 609.025,674.451" style="fill:none;stroke:rgb(88,96,246);stroke-width:0.96px;"/>
            </g>
            <g transform="matrix(1.93096,-0.154788,0.154788,1.93096,-836.893,1209.49)">
                <path d="M621.463,668.582C621.463,668.582 618.03,667.616 618.01,668.951C617.99,670.287 616.844,675.404 621.421,674.161" style="fill:none;stroke:rgb(88,96,246);stroke-width:0.96px;"/>
            </g>
            <g transform="matrix(1.92474,-0.218933,0.218933,1.92474,-843.194,1321.93)">
                <path d="M808.887,586.782C809.264,587.465 809.576,588.173 809.841,588.907C809.86,588.957 810.003,589.508 810.061,589.515C811.032,589.617 812.1,589.17 813.001,588.864C813.701,588.627 814.266,588.392 814.964,588.72C815.995,589.205 816.783,590.133 817.322,591.117C817.543,591.519 817.722,591.942 817.88,592.372C817.901,592.429 817.989,592.73 818.095,592.706C819.055,592.497 820.131,591.587 820.865,590.987" style="fill:none;stroke:rgb(88,96,246);stroke-width:0.96px;"/>
            </g>
            <g transform="matrix(1.81014,0,0,1.81014,237.82,1646.57)">
                <path d="M154.265,253.131C154.472,253.373 154.676,253.618 154.877,253.866C155.284,254.368 155.687,254.873 156.086,255.38C147.52,260.505 144.72,268.581 138.405,275.266C135.651,278.182 132.607,279.152 132.496,279.528C132.063,281 139.097,282.564 137.773,284.084C135.474,286.723 131.973,281.809 129.07,281.746C126.245,281.685 123.199,281.876 120.467,282.596C119.046,282.97 104.419,289.097 104.213,289.396C103.861,289.906 108.952,303.441 106.989,305.022C106.019,305.803 105.036,304.168 104.561,303.628C102.182,300.914 105.742,290.73 102.461,290.715C101.115,290.709 93.802,297.546 93.885,298.599C93.995,299.998 100.474,301.248 98.486,302.752C95.714,304.848 95.163,298.432 89,300.324C87.695,300.725 85.961,301.251 85.154,302.464C83.197,305.408 87.308,307.38 88.089,310.036C88.141,310.211 88.508,311.246 88.16,311.334C83.85,312.426 83.332,304.219 83.013,304.444C77.896,308.036 74.48,310.965 72.573,311.947C71.391,312.556 68.909,313.283 68.153,314.396C66.691,316.546 66.704,319.565 65.553,321.896C63.87,325.304 59.966,326.761 59.739,331.032C59.565,334.303 65.497,332.677 65.056,335.045C64.997,335.361 60.558,334.764 59.586,335.441C58.547,336.164 54.215,341.209 54.204,339.476C51.275,337.059 58.61,332.253 57.463,328.535C56.751,326.228 52.498,324.665 54.684,321.777C57.232,318.41 56.082,328.005 59.585,325.602C60.572,324.925 60.881,323.324 61.505,322.329C63.472,319.191 64.825,317.502 62.501,314.057C62.109,313.477 61.211,312.981 60.956,312.357C60.561,311.392 62.512,310.147 63.286,310.377C65.141,310.929 63.786,314.019 65.242,314.901C66.38,315.591 68.08,311.398 68.886,310.881C69.846,310.266 87.09,299.038 87.502,297.485C87.96,295.763 82.304,296.43 81.833,295.132C80.949,292.702 84.794,293.682 85.774,294.133C86.624,294.524 87.982,295.604 88.944,295.452C94.176,294.627 95.278,288.898 100.087,287.09C101.698,286.484 105.514,286.805 106.249,284.958C106.856,283.433 99.629,274.017 103.652,273.798C105.775,273.682 103.803,284.931 109.953,283.372C109.894,283.742 118.378,281.567 118.26,280.556C118.183,279.896 116.929,279.368 116.423,279.145C115.5,278.739 108.039,277.309 109.771,275.556C109.972,275.353 110.216,275.15 110.495,275.066C112.641,274.415 115.27,277.424 116.856,278.361C119.078,279.673 122.118,279.891 124.628,279.712C127.725,279.492 129.909,278.507 132.452,276.916C132.922,276.622 136.93,274.403 137.793,272.133C139.78,266.902 127.989,268.294 130.166,262.673C130.696,261.306 132.49,263.366 133.009,263.759C134.897,265.187 137.227,268.449 140.142,266.739C141.158,266.142 149.381,257.151 154.265,253.131Z" style="fill:none;stroke:rgb(88,96,246);stroke-width:1.03px;"/>
            </g>
            <g transform="matrix(1.30904,-0.526018,-0.526018,-1.30904,12.1595,3045.53)">
                <g transform="matrix(-0.014096,0.189681,-0.190695,-0.0390486,881.801,131.615)">
                    <path d="M1217.51,1340.33C1215.07,1325.7 1199.74,1322.05 1187.34,1328.78C1167.33,1339.63 1160.01,1353 1152.8,1373.87C1151.51,1377.6 1144.94,1388.96 1147.16,1392.76C1148.31,1394.73 1168.11,1384.69 1170.31,1383.76C1185.47,1377.37 1224.84,1362.28 1217.51,1340.33Z" style="fill:none;stroke:rgb(88,96,246);stroke-width:7.33px;"/>
                </g>
                <g transform="matrix(-0.014096,0.189681,-0.190695,-0.0390486,881.801,131.615)">
                    <path d="M1171.58,1288.09C1156.64,1294.13 1142.27,1299.21 1126.16,1301.68C1117.5,1303 1111.53,1309.14 1106.5,1315.87C1086.36,1342.83 1129.15,1363.27 1137.56,1358.64C1152.78,1350.26 1154.73,1329.46 1160.97,1315.45C1163.01,1310.86 1174.24,1293.09 1171.58,1288.09Z" style="fill:none;stroke:rgb(88,96,246);stroke-width:7.33px;"/>
                </g>
                <g transform="matrix(-0.014096,0.189681,-0.190695,-0.0390486,881.801,131.615)">
                    <path d="M1131.84,1377.03C1129.3,1341.9 1066.28,1384.17 1065.52,1398.49C1064.98,1408.78 1101.04,1415.52 1110.02,1414.28C1125.76,1412.12 1130.49,1390.44 1131.84,1377.03Z" style="fill:none;stroke:rgb(88,96,246);stroke-width:7.33px;"/>
                </g>
                <g transform="matrix(-0.014096,0.189681,-0.190695,-0.0390486,881.801,131.615)">
                    <path d="M1087.65,1350.01C1087.78,1350.03 1087,1344.62 1087.27,1336.15C1087.61,1325.42 1090.98,1316.17 1079.56,1309.82C1066.75,1302.7 1050.18,1325.85 1037.81,1328.51C1029.01,1330.4 1018.6,1326.01 1010.55,1331.01C1004.57,1334.73 1000.99,1345.38 1001,1352.04C1001.02,1363.3 1007.62,1365.56 1015.81,1371.26C1022.07,1375.62 1028.46,1384.11 1035.7,1386.56C1065.89,1396.81 1075.81,1360.19 1089.02,1353.18L1087.65,1350.01Z" style="fill:none;stroke:rgb(88,96,246);stroke-width:7.33px;"/>
                </g>
                <g transform="matrix(-0.014096,0.189681,-0.190695,-0.0390486,881.801,131.615)">
                    <path d="M909.074,1264.45C900.621,1255.91 889.33,1272.14 885.064,1278.23C873.182,1295.19 860.456,1319.84 877.711,1337.61C905.013,1365.72 910.335,1351.58 943.913,1340.31C956.102,1336.22 978.092,1332.7 975.391,1315.54C969.879,1280.52 944.625,1301.59 929.01,1291.16C919.984,1285.12 909.074,1264.45 909.074,1264.45Z" style="fill:none;stroke:rgb(88,96,246);stroke-width:7.33px;"/>
                </g>
                <g transform="matrix(-0.014096,0.189681,-0.190695,-0.0390486,881.801,131.615)">
                    <path d="M858.122,1288.73C861.347,1278.14 897.408,1243.55 895.744,1238.51C893.632,1232.11 883.305,1229.25 878.627,1225.01C849.002,1198.13 797.143,1211.24 783.526,1250.56C774.531,1276.53 803.321,1278.78 822.332,1286.19C842.198,1293.93 846.1,1309.16 858.918,1290.27L858.122,1288.73Z" style="fill:none;stroke:rgb(88,96,246);stroke-width:7.33px;"/>
                </g>
                <g transform="matrix(-0.014096,0.189681,-0.190695,-0.0390486,881.801,131.615)">
                    <path d="M831.641,1196.39C833.42,1195.18 836.712,1180.12 836.964,1179.3C838.318,1174.89 817.215,1142.07 813.348,1139.93C791.563,1127.85 761.351,1169.88 763.846,1189.31C766.973,1213.65 790.725,1201.26 805.153,1199.21C812.912,1198.1 824.705,1201.12 831.641,1196.39Z" style="fill:none;stroke:rgb(88,96,246);stroke-width:7.33px;"/>
                </g>
                <g transform="matrix(-0.014096,0.189681,-0.190695,-0.0390486,881.801,131.615)">
                    <path d="M917.858,1162.57C917.858,1162.57 913.273,1152.93 913.066,1150.74C912.109,1140.59 906.355,1124.72 897.287,1118.9C872.776,1103.16 870.964,1111.69 849.476,1124.26C844.326,1127.28 832.499,1132.28 830.978,1138.82C827.704,1152.87 869.474,1178.56 882.067,1177.33C895.368,1176.04 905.935,1166.13 917.858,1162.57Z" style="fill:none;stroke:rgb(88,96,246);stroke-width:7.33px;"/>
                </g>
                <g transform="matrix(-0.014096,0.189681,-0.190695,-0.0390486,881.801,131.615)">
                    <path d="M924.953,1180.13C924.953,1180.13 886.608,1192.04 883.853,1199.27C878.615,1213.01 900.873,1218.45 908.885,1223.98C912.744,1226.65 918.995,1237.27 923.895,1237.2C954.943,1236.79 948.909,1175.05 924.953,1180.13Z" style="fill:none;stroke:rgb(88,96,246);stroke-width:7.33px;"/>
                </g>
                <g transform="matrix(-0.014096,0.189681,-0.190695,-0.0390486,881.801,131.615)">
                    <path d="M988.478,1237.06C973.012,1226.45 928.694,1241.72 939.521,1265.13C944.528,1275.95 994.157,1278.64 990.833,1238.58L988.478,1237.06Z" style="fill:none;stroke:rgb(88,96,246);stroke-width:7.33px;"/>
                </g>
                <g transform="matrix(-0.014096,0.189681,-0.190695,-0.0390486,881.801,131.615)">
                    <path d="M1117.16,1068.67C1106.25,1068.09 1106.82,1087.96 1109.35,1094.25C1116.33,1111.61 1134.49,1125.34 1143.94,1141.74C1147.4,1147.74 1149.49,1161.6 1155.32,1165.56C1160.75,1169.24 1187.94,1171.56 1193.7,1167.56C1205.2,1159.58 1197.07,1128.97 1196.09,1118.16C1195.46,1111.2 1197.8,1102.61 1192.88,1096.75C1189.21,1092.38 1182.87,1097.37 1178.04,1094.04C1174.26,1091.43 1176.39,1085.44 1173.63,1083.78C1170.69,1082.01 1166.8,1086.89 1163.47,1084.73C1158.89,1081.76 1160.89,1076.1 1157.45,1072.82C1155.24,1070.71 1151.41,1075.73 1147.77,1073.14C1145.11,1071.24 1145.47,1063.47 1141.37,1062.75C1140.69,1062.63 1139.53,1063.66 1138.97,1063.95C1127.89,1069.83 1124.54,1065.87 1119.11,1067.83C1118.99,1067.87 1117.24,1068.67 1117.19,1068.69L1117.16,1068.67Z" style="fill:none;stroke:rgb(88,96,246);stroke-width:7.33px;"/>
                </g>
                <g transform="matrix(-0.014096,0.189681,-0.190695,-0.0390486,881.801,131.615)">
                    <path d="M1343.49,1033.04C1344.79,1032.66 1340.81,1033.54 1339.45,1033.53C1335.57,1033.49 1332.1,1031.8 1328.34,1031.57C1321.28,1031.13 1323.04,1040.26 1317.05,1041.26C1306.98,1042.95 1277.19,1027.68 1271.54,1041.33C1271.28,1041.96 1271.07,1042.61 1270.94,1043.28C1269.04,1053.32 1278.35,1064.21 1279.38,1074.42C1279.87,1079.23 1274.65,1084.44 1276.14,1089.1C1277.69,1094 1285.3,1089.15 1285.1,1095.53C1284.79,1105.5 1279.07,1122.86 1284.28,1131.96C1285,1133.23 1285.99,1132.84 1287.04,1132.42C1297.83,1128.15 1310.54,1145.75 1321.13,1148.11C1323.13,1148.55 1325.17,1148.88 1327.19,1149.19C1349.33,1152.67 1334.94,1135.63 1338.41,1132.8C1345.82,1126.74 1356.59,1125.28 1362.35,1116.62C1365.76,1111.48 1366.34,1100.25 1365.5,1094.36C1364.04,1084.13 1355.08,1076.05 1352.15,1066.26C1348.7,1054.7 1351.19,1042.26 1347.66,1030.43L1343.49,1033.04Z" style="fill:none;stroke:rgb(88,96,246);stroke-width:7.33px;"/>
                </g>
                <g transform="matrix(-0.014096,0.189681,-0.190695,-0.0390486,881.801,131.615)">
                    <path d="M1202.49,1216.34C1208.19,1209.28 1223.79,1199.31 1220.55,1188.48C1215.86,1172.76 1152.36,1185.64 1143.13,1192.09C1128.9,1202.04 1141.47,1214.28 1152.51,1218.14C1176.42,1226.49 1180.78,1223.59 1202.49,1216.34Z" style="fill:none;stroke:rgb(88,96,246);stroke-width:7.33px;"/>
                </g>
                <g transform="matrix(-0.014096,0.189681,-0.190695,-0.0390486,881.801,131.615)">
                    <path d="M1250.29,1208.95C1234.71,1190.4 1220.09,1217.75 1211.5,1231.16C1204.96,1241.37 1181.01,1257.53 1193.61,1272.16C1213.32,1295.04 1281.26,1238.47 1250.29,1208.95Z" style="fill:none;stroke:rgb(88,96,246);stroke-width:7.33px;"/>
                </g>
                <g transform="matrix(-0.014096,0.189681,-0.190695,-0.0390486,881.801,131.615)">
                    <path d="M1148.9,1234.62C1145.26,1234.89 1141.82,1232.99 1137.89,1233.72C1105.43,1239.79 1142.37,1277.68 1152.8,1277.17C1180.63,1275.81 1169.93,1234.36 1147.81,1233.19L1148.9,1234.62Z" style="fill:none;stroke:rgb(88,96,246);stroke-width:7.33px;"/>
                </g>
                <g transform="matrix(-0.014096,0.189681,-0.190695,-0.0390486,881.801,131.615)">
                    <path d="M1108.62,1246.88C1085.93,1241.79 1069.63,1290.91 1081.54,1294.57C1088.37,1296.66 1105.73,1298.4 1111.35,1293.08C1116.37,1288.34 1115.83,1254.21 1109.88,1250.83L1108.62,1246.88Z" style="fill:none;stroke:rgb(88,96,246);stroke-width:7.33px;"/>
                </g>
                <g transform="matrix(-0.014096,0.189681,-0.190695,-0.0390486,881.801,131.615)">
                    <path d="M1068.3,1284.42C1056.9,1280.67 1069.7,1251.67 1055.62,1244.89C1028.3,1231.74 971.927,1281.93 997.594,1309.11C1005.29,1317.25 1066.09,1303.71 1066.47,1284.23L1068.3,1284.42Z" style="fill:none;stroke:rgb(88,96,246);stroke-width:7.33px;"/>
                </g>
                <g transform="matrix(-0.014096,0.189681,-0.190695,-0.0390486,881.801,131.615)">
                    <path d="M1313.09,1160.23C1310.28,1148.66 1283.74,1145.98 1275.94,1155.34C1268.82,1163.88 1260.14,1235.44 1263.09,1245.56C1265.94,1255.37 1278.42,1263.03 1287.64,1266.11C1300.82,1270.49 1310.52,1256.09 1314.81,1245.81C1323.09,1225.99 1340.39,1178.64 1315.91,1163.88L1313.09,1160.23Z" style="fill:none;stroke:rgb(88,96,246);stroke-width:7.33px;"/>
                </g>
                <g transform="matrix(-0.014096,0.189681,-0.190695,-0.0390486,881.801,131.615)">
                    <path d="M1271.17,1270.54C1270.88,1263.98 1265.22,1262.03 1259.41,1264.27C1252.4,1266.96 1247.41,1273.4 1240.84,1276.97C1229.5,1283.13 1193.85,1288.87 1205.12,1310.12C1208.75,1316.95 1223.06,1314.84 1229.03,1314.68C1251.06,1314.06 1305.65,1305.01 1272.17,1273.1L1271.17,1270.54Z" style="fill:none;stroke:rgb(88,96,246);stroke-width:7.33px;"/>
                </g>
                <g transform="matrix(-0.014096,0.189681,-0.190695,-0.0390486,881.801,131.615)">
                    <path d="M953.297,1090.6C953.297,1090.6 951.147,1088.21 950.979,1087.98C939.831,1072.62 923.969,1038.14 899.555,1044.01C853.634,1055.05 884.407,1124.5 922.436,1119.26C936.817,1117.28 945.969,1100.88 953.297,1090.6Z" style="fill:none;stroke:rgb(88,96,246);stroke-width:7.33px;"/>
                </g>
                <g transform="matrix(-0.014096,0.189681,-0.190695,-0.0390486,881.801,131.615)">
                    <path d="M858.398,1085.09C858.398,1085.09 856.526,1080.51 856.367,1079.73C853.422,1065.33 851.419,1046.92 835.623,1041.04C815.861,1033.68 782.898,1062.57 782.778,1081.73C782.505,1125.35 825.773,1126.78 854.777,1108.57C862.744,1103.56 866.606,1090.42 858.398,1085.09Z" style="fill:none;stroke:rgb(88,96,246);stroke-width:7.33px;"/>
                </g>
                <g transform="matrix(-0.014096,0.189681,-0.190695,-0.0390486,881.801,131.615)">
                    <path d="M983.262,1360.25C973.013,1339.95 924.483,1389.63 938.13,1401.71C943.385,1406.36 952.346,1407.31 958.916,1408.61C993.415,1415.42 991.152,1367.76 983.262,1360.25Z" style="fill:none;stroke:rgb(88,96,246);stroke-width:7.33px;"/>
                </g>
                <g transform="matrix(-0.014096,0.189681,-0.190695,-0.0390486,881.801,131.615)">
                    <path d="M1246.64,911.138C1247.32,910.248 1271.42,907.367 1280.85,894.029C1286.02,886.709 1287.73,876.626 1287.73,867.793C1287.73,861.996 1287.11,856.569 1285.9,850.889C1282.55,835.179 1267.48,820.42 1253.85,837.656C1246.52,846.919 1235.56,902.605 1245.51,911.316L1246.64,911.138Z" style="fill:none;stroke:rgb(88,96,246);stroke-width:7.33px;"/>
                </g>
                <g transform="matrix(-0.014096,0.189681,-0.190695,-0.0390486,881.801,131.615)">
                    <path d="M1257.29,937.322C1252.97,936.008 1250.16,926.963 1242.45,929.138C1213.85,937.206 1215.75,987.92 1217.13,1010.06C1217.57,1017.01 1215.53,1030.43 1220.04,1036.07C1238.82,1059.55 1258.53,1029.9 1260.81,1011.9C1262.06,1002.01 1262.03,991.875 1262.03,981.916C1262.03,967.671 1261.4,951.026 1257.29,937.322Z" style="fill:none;stroke:rgb(88,96,246);stroke-width:7.33px;"/>
                </g>
                <g transform="matrix(-0.014096,0.189681,-0.190695,-0.0390486,881.801,131.615)">
                    <path d="M1146.59,1003.67C1119.73,970.457 1074.73,1015.06 1096.74,1037.07C1107.44,1047.77 1127.89,1056.81 1141.79,1048C1152.92,1040.96 1159.53,1012.6 1148.37,1003.03L1146.59,1003.67Z" style="fill:none;stroke:rgb(88,96,246);stroke-width:7.33px;"/>
                </g>
                <g transform="matrix(-0.014096,0.189681,-0.190695,-0.0390486,881.801,131.615)">
                    <path d="M1214.76,1072.79C1219.42,1067.47 1206.84,1049.02 1204.59,1045.1C1190.67,1020.87 1174.81,1013.59 1158.39,1041.73C1149.66,1056.69 1200.53,1109.8 1214.76,1072.79Z" style="fill:none;stroke:rgb(88,96,246);stroke-width:7.33px;"/>
                </g>
                <g transform="matrix(-0.014096,0.189681,-0.190695,-0.0390486,881.801,131.615)">
                    <path d="M1256.14,1076.99C1248.62,1061.42 1216.4,1088.79 1210.63,1098.18C1204.29,1108.51 1211.14,1164.66 1219.66,1175.82C1229.09,1188.18 1248.23,1168.98 1253.24,1160.14C1262.92,1143.04 1266.39,1094.92 1256.14,1076.99Z" style="fill:none;stroke:rgb(88,96,246);stroke-width:7.33px;"/>
                </g>
                <g transform="matrix(-0.014096,0.189681,-0.190695,-0.0390486,881.801,131.615)">
                    <path d="M1321.77,933.345C1318.35,922.806 1288.26,943.686 1285.29,947.878C1278.01,958.145 1277.7,969.671 1277.41,981.839C1276.79,1007.85 1283.03,1016.79 1310.68,1018.17C1317.62,1018.52 1326.38,1020.8 1333.25,1019.7C1341.27,1018.43 1340.2,1002.23 1340.2,996.831C1340.2,977.075 1341.31,945.07 1321.77,933.345Z" style="fill:none;stroke:rgb(88,96,246);stroke-width:7.33px;"/>
                </g>
                <g transform="matrix(-0.014096,0.189681,-0.190695,-0.0390486,881.801,131.615)">
                    <path d="M1320.31,820.246C1317.53,818.254 1318.59,809.683 1314.43,806.448C1309.5,802.613 1291.36,794.46 1290.18,806.218C1289.09,817.148 1305.78,845.835 1304.33,867.181C1303.06,885.898 1290.41,902.396 1290.41,921.259C1290.41,921.783 1290.39,923.13 1291.1,923.401C1295.95,925.268 1307.5,909.898 1310.45,906.803C1320.87,895.891 1332.54,834.707 1322.54,822.205L1320.31,820.246Z" style="fill:none;stroke:rgb(88,96,246);stroke-width:7.33px;"/>
                </g>
                <g transform="matrix(-0.014096,0.189681,-0.190695,-0.0390486,881.801,131.615)">
                    <path d="M1059.68,1014.68C1056.37,1010.38 1038.44,1014.32 1034.7,1015.11C1029.46,1016.22 1023.08,1015.88 1018.11,1017.87C1000.06,1025.09 1001.2,1049.7 1013.13,1060.93C1018.66,1066.13 1025.9,1068.86 1032.87,1071.56C1039.63,1074.19 1047.35,1081.48 1054.59,1081.89C1081.78,1083.43 1075.16,1017.82 1062.39,1011.44L1059.68,1014.68Z" style="fill:none;stroke:rgb(88,96,246);stroke-width:7.33px;"/>
                </g>
                <g transform="matrix(-0.014096,0.189681,-0.190695,-0.0390486,881.801,131.615)">
                    <path d="M1013.19,1107.69C1011.73,1110.25 1013.96,1101.52 1012.68,1098.87C1010.82,1095.03 1004,1090.99 999.595,1091.83C995.054,1092.7 1009.67,1103.71 1002.96,1107.44C998.424,1109.96 985.644,1118 980.702,1118.22C976.74,1118.4 974.733,1104.2 968.693,1111.11C961.371,1119.48 976.741,1122.18 969.458,1131.15C963.288,1138.74 949.627,1132.79 949.265,1142.93C949.144,1146.32 957.706,1149.91 958.75,1155.47C960.443,1164.5 958.914,1183.25 965.022,1189.36C970.397,1194.73 973.158,1185.18 977.566,1189.59C980.93,1192.95 982.431,1204.79 986.974,1206.18C989.937,1207.1 997.256,1196.35 999.06,1198.15C1001.14,1200.24 1001.33,1206.5 1003.27,1209.32C1010.2,1219.41 1020.88,1209.15 1030.34,1210.93C1036.16,1212.02 1040,1220.82 1046.71,1218.81C1051.1,1217.49 1048.53,1209.37 1053.52,1206.57C1060.28,1202.76 1073.44,1210.85 1078.76,1204.2C1080.44,1202.1 1074.95,1199.09 1076.01,1196.62C1079.45,1188.6 1090.7,1190.16 1093.98,1182.4C1096.63,1176.15 1087.52,1172.17 1086.95,1166.18C1084.53,1140.76 1093.36,1137.18 1075.17,1118.99C1072.39,1116.21 1071.4,1111.6 1068.51,1109.19C1062.11,1103.86 1053.8,1113.69 1047.1,1110.34C1040.94,1107.26 1041.11,1096.34 1034.86,1094.43C1028.62,1092.53 1029.21,1103.15 1026.29,1105.68C1022.62,1108.85 1018.15,1104.3 1013.98,1107.28L1013.19,1107.69Z" style="fill:none;stroke:rgb(88,96,246);stroke-width:7.33px;"/>
                </g>
                <g transform="matrix(-0.014096,0.189681,-0.190695,-0.0390486,881.801,131.615)">
                    <path d="M951.51,1057.63C951.51,1057.63 967.006,1072.64 970.277,1073.74C980.746,1077.27 984.479,1066.33 986.598,1058.72C993.383,1034.34 973.055,1000.94 965.326,978.538C963.339,972.78 958.103,953.322 949.925,952.714C916.719,950.244 925.502,1017.04 933.308,1033.36C937.702,1042.55 947.418,1048.49 951.51,1057.63Z" style="fill:none;stroke:rgb(88,96,246);stroke-width:7.33px;"/>
                </g>
                <g transform="matrix(-0.014096,0.189681,-0.190695,-0.0390486,881.801,131.615)">
                    <path d="M901.016,1017.91C900.824,1017.88 901.855,1013.55 901.919,1013.28C903.135,1008.11 903.444,1002.53 902.968,997.246C901.924,985.653 895.18,970.75 884.141,965.241C874.76,960.56 865.756,975.587 859.983,980.572C842.182,995.947 836.1,1009.94 851.233,1030.54C853.932,1034.21 857.872,1040.56 862.847,1041.26C869.876,1042.26 877.839,1036.37 883.827,1033.76C893.245,1029.66 898.61,1028.23 900.658,1018.02L901.016,1017.91Z" style="fill:none;stroke:rgb(88,96,246);stroke-width:7.33px;"/>
                </g>
            </g>
            <g transform="matrix(0.892626,-0.183897,0.29603,1.11439,174.185,1949.29)">
                <path d="M219.306,346.39C219.069,342.551 210.827,364.892 210.576,365.676C206.045,379.864 201.29,394.978 200.695,409.97C200.581,412.847 199.466,422.094 203.591,423.332C208.892,424.922 212.957,412.76 214.251,409.654C220.703,394.17 227.997,376.785 229.146,359.835C229.437,355.543 230.357,344.886 223.865,345.305" style="fill:rgb(88,96,246);fill-opacity:0.15;"/>
            </g>
            <g transform="matrix(2.21483,0,0,2.49948,67.2232,1281.98)">
                <path d="M366.42,419.637C365.152,417.465 362.5,414.876 360.488,416.864C358.808,418.524 360.896,423.81 361.248,425.98C362.738,435.159 354.897,448.691 362.482,443.211C370.799,437.2 368.101,422.52 366.42,419.637Z" style="fill:rgb(89,248,232);fill-opacity:0.16;"/>
            </g>
            <g transform="matrix(-1.55231,-1.57981,1.91955,-1.6127,-19.3677,3648.39)">
                <path d="M366.42,419.637C365.152,417.465 362.5,414.876 360.488,416.864C358.808,418.524 360.896,423.81 361.248,425.98C362.738,435.159 354.897,448.691 362.482,443.211C370.799,437.2 368.101,422.52 366.42,419.637Z" style="fill:rgb(89,248,232);fill-opacity:0.16;"/>
            </g>
        </g>
    </g>
</svg>
