<?xml version="1.0" encoding="UTF-8" standalone="no"?>
<svg
   width="660"
   height="660"
   viewBox="0 0 660 660"
   version="1.1"
   xml:space="preserve"
   style="clip-rule:evenodd;fill-rule:evenodd;stroke-linecap:round;stroke-linejoin:round;stroke-miterlimit:1.5"
   id="svg32"
   sodipodi:docname="forbidden 403 white background.svg"
   xmlns:inkscape="http://www.inkscape.org/namespaces/inkscape"
   xmlns:sodipodi="http://sodipodi.sourceforge.net/DTD/sodipodi-0.dtd"
   xmlns="http://www.w3.org/2000/svg"
   xmlns:svg="http://www.w3.org/2000/svg"><defs
   id="defs32" /><sodipodi:namedview
   id="namedview32"
   pagecolor="#ffffff"
   bordercolor="#000000"
   borderopacity="0.25"
   inkscape:showpageshadow="2"
   inkscape:pageopacity="0.0"
   inkscape:pagecheckerboard="0"
   inkscape:deskcolor="#d1d1d1"
   showguides="true" />
    
    
    
    
    
    
    
    
    
    
    
    
    
    
    
    
    
    
    
    
    
    
    
    
    
    
    
    
    
    
    
    <g
   id="g33"
   transform="translate(14.994577,-68.899238)"><g
     transform="matrix(0.0533542,0.93859,-0.85761,0.0487509,799.952,-1186.41)"
     id="g1">
        <path
   d="m 1341.84,802.129 c -4.19,28.262 21.17,53.363 50.1,53.167 23.27,-0.157 49.43,-13.69 12.77,-23.757 -22.05,-6.058 -57.26,-67.178 -62.87,-29.41 z"
   style="fill:#00fce8;fill-opacity:0.15"
   id="path1" />
    </g><g
     transform="matrix(0.915293,0,0,1.15616,219.04,52.8333)"
     id="g2">
        <path
   d="m 219.306,346.39 c -0.237,-3.839 -8.479,18.502 -8.73,19.286 -4.531,14.188 -9.286,29.302 -9.881,44.294 -0.114,2.877 -1.229,12.124 2.896,13.362 5.301,1.59 9.366,-10.572 10.66,-13.678 6.452,-15.484 13.746,-32.869 14.895,-49.819 0.291,-4.292 1.211,-14.949 -5.281,-14.53"
   style="fill:#8085ff;fill-opacity:0.25"
   id="path2" />
    </g><g
     transform="matrix(2.22436,0,0,2.51024,-661.615,-581.991)"
     id="g3">
        <path
   d="m 366.42,419.637 c -1.268,-2.172 -3.92,-4.761 -5.932,-2.773 -1.68,1.66 -2.492,4.098 -2.719,6.281 -0.899,8.669 3.204,18.498 4.266,27.119 0.494,4.012 0.562,8.037 0.727,12.071 0.019,0.467 -0.176,2.984 0.656,3.023 2.45,0.117 3.151,-8.784 3.328,-10.149 1.014,-7.823 0.769,-16.12 0.61,-24.001 -0.064,-3.168 0.745,-8.688 -0.936,-11.571 z"
   style="fill:#00fce8;fill-opacity:0.15"
   id="path3" />
    </g><g
     transform="matrix(-0.132111,4.61627,-9.89164,-0.283086,4746.63,-886.996)"
     id="g4">
        <path
   d="m 371.203,419.175 c -1,-2.778 -10.794,-8.583 -12.806,-6.596 -1.681,1.66 -0.401,8.383 -0.628,10.566 -0.452,4.362 3.241,16.139 2.166,26.301 -1.055,9.963 0.895,24.175 1.24,24.404 4.893,3.244 6.506,-15.853 5.571,-18.641 -2.507,-7.48 8.547,-24.674 4.457,-36.034 z"
   style="fill:#8085ff;fill-opacity:0.25"
   id="path4" />
    </g><g
     transform="matrix(1.26097,0,0,1.51043,119.804,-35.0105)"
     id="g5">
        <path
   d="m 238.756,278.027 c -2.118,6.793 -4.524,14.199 -1.455,21.19 5.259,11.978 14.974,7.61 18.195,-2.163 4.466,-13.554 -11.143,-36.984 -16.74,-19.027 z"
   style="fill:none;stroke:#5660ff;stroke-width:1.8px"
   id="path5" />
    </g><g
     transform="matrix(1.19576,0,0,1.51043,138.581,-26.1595)"
     id="g6">
        <path
   d="m 232.293,309.281 c -0.496,0.503 -4.347,9.139 -7.376,12.881 -3.473,4.289 -7.335,8.239 -11.706,11.62 -2.403,1.859 -12.269,6.853 -14.946,5.527 -7.882,-3.905 -26.225,9.612 3.283,9.19 1.762,-0.025 2.766,0.161 4.538,-0.127 2.429,-0.394 4.911,-1.12 7.21,-1.993 4.524,-1.719 7.201,-7.418 6.998,-2.545 -0.067,1.611 -0.082,3.223 -0.127,4.835 -0.476,16.97 -1.967,53.457 -5.958,69.95 -3.437,14.209 -1.686,31.001 4.24,26.746 3.831,-2.751 17.942,-48.322 21.197,-47.768 9.886,1.685 6.872,27.596 6.5,34.552 -0.038,0.707 -0.606,10.497 -0.424,10.433 4.997,-1.764 8.614,-15.367 10.136,-19.509 5.621,-15.303 10.156,-50.824 10.156,-67.024 0,-4.883 0.949,-13.455 -1.357,-18.068"
   style="fill:none;stroke:#5660ff;stroke-width:1.84px"
   id="path6" />
    </g><g
     transform="matrix(1.19576,0,0,1.51043,138.581,-26.1595)"
     id="g7">
        <path
   d="m 263.458,338.727 c 6.627,4.138 20.617,0.625 28.522,-2.511 4.66,-1.848 5.452,-4.535 4.731,-4.535 -1.556,0 -12.824,0.354 -14.326,-0.062 -3.409,-0.943 -8.056,-3.643 -10.9,-5.81 -6.033,-4.597 -12.798,-23.577 -38.889,-16.974"
   style="fill:none;stroke:#5660ff;stroke-width:1.84px"
   id="path7" />
    </g><g
     transform="matrix(1.27881,0,0,1.51043,114.577,-26.1595)"
     id="g8">
        <path
   d="m 351.347,268.935 c -10.809,6.031 -13.281,31.991 -0.425,26.634 9.845,-4.102 17.022,-32.167 0.425,-26.634 z"
   style="fill:none;stroke:#5660ff;stroke-width:1.79px"
   id="path8" />
    </g><g
     transform="matrix(1.27881,0,0,1.66937,114.577,-74.6056)"
     id="g9">
        <path
   d="m 350.067,307.202 c 7.002,2.553 14.802,11.038 16.463,13.518 2.161,3.226 12.172,11.59 12.172,15.734 0,3.329 -16.053,13.422 -18.746,15.481 -1.197,0.915 -10.163,9.74 -10.942,8.567 -6.642,-10.009 1.197,1.493 -7.541,0.891 -1.181,-0.081 -1.806,-0.481 -1.722,-3.758 0.037,-1.446 4.115,-4.906 3.707,-5.488 -0.304,-0.434 -0.891,-1.315 -0.891,-1.315 0,0 3.387,-2.042 5.132,-2.969 2.443,-1.297 10.258,-2.872 11.579,-5.513 1.592,-3.185 -3.137,-16.029 -5.259,-19.213"
   style="fill:none;stroke:#5660ff;stroke-width:1.68px"
   id="path9" />
    </g><g
     transform="matrix(1.27881,0,0,1.66937,114.577,-74.6056)"
     id="g10">
        <path
   d="m 350.067,307.202 c -16.537,-5.224 -23.216,23.474 -24.168,28.319 -2.302,11.728 -4.313,23.495 -6.489,35.245 -0.289,1.562 -3.183,10.14 -1.95,11.578 0.014,0.016 14.267,0.5 17.77,0.806 4.57,0.398 9.16,0.531 13.742,0.721 2.023,0.084 14.222,1.689 16.158,-0.424 1.387,-1.513 0.166,-7.635 0.128,-9.416 -0.168,-7.707 -0.212,-15.406 -0.212,-23.114"
   style="fill:none;stroke:#5660ff;stroke-width:1.68px"
   id="path10" />
    </g><g
     transform="matrix(1.27881,0,0,1.66937,114.577,-74.6056)"
     id="g11">
        <path
   d="m 329.21,384.407 c -2.964,9.47 -0.479,22.91 -1.699,32.927 -0.679,5.579 -3.556,3.388 -7.04,7.973 -0.416,0.547 -0.628,1.095 -0.255,1.739 1.908,3.286 10.551,3.385 12.13,-0.212 0.205,-0.467 0.911,-5.514 -0.127,-5.514 -0.432,0 2.5,5.907 3.053,6.405 1.182,1.063 6.7,-0.482 8.101,-0.679 0.642,-0.09 4.15,-0.11 4.496,-0.975 1.167,-2.917 -0.397,-9.217 -0.297,-12.385 0.303,-9.584 1.824,-18.989 1.824,-28.585"
   style="fill:none;stroke:#5660ff;stroke-width:1.68px"
   id="path11" />
    </g><g
     transform="matrix(2.22436,0,0,2.51024,-656.637,-573.011)"
     id="g12">
        <path
   d="m 350.406,379.821 c -6.256,3.22 -1.496,23.122 4.818,19.99 2.847,-1.413 3.557,-5.285 3.623,-8.067 0.153,-6.429 -0.654,-13.545 -8.441,-11.923 z"
   style="fill:none;stroke:#5660ff;stroke-width:1.05px"
   id="path12" />
    </g><g
     transform="matrix(2.22436,0,0,2.51024,-656.637,-573.011)"
     id="g13">
        <path
   d="m 358.626,406.625 c -14.238,0.217 -16.92,4 -18.716,7.309 -3.218,5.929 -7.354,17.559 -10.638,23.446 -0.848,1.519 -0.016,3.283 0.879,3.32 4.841,0.197 4.245,-2.043 6.771,-6.533 0.698,-1.242 1.419,-2.471 2.089,-3.729 0.145,-0.273 3.688,-7.211 3.967,-6.745 1.828,3.047 1.105,9.081 0.979,12.431 -0.413,10.94 -2.88,21.555 -4.787,32.294 -0.473,2.659 -4.284,14.025 -0.159,15.525 1.656,0.602 2.996,-1.494 3.729,-2.645 2.438,-3.824 3.281,-8.326 4.867,-12.51 0.548,-1.446 3.398,-12.29 5.56,-11.115 4.052,2.202 1.829,17.772 1.951,21.509 0.031,0.952 -0.776,4.647 0.926,4.576 6.439,-0.269 7.462,-11.174 8.553,-15.79 2.697,-11.412 1.857,-22.655 1.481,-34.277 -0.236,-7.285 -0.726,-17.566 3.962,-25.341 3.622,-6.006 11.688,-21.864 14.33,-20.759 2.5,1.046 1.759,-5.042 2.354,-7.67 0.097,-0.43 0.916,-2.551 0.344,-2.909 -1.808,-1.13 -7.033,5.147 -7.802,6.004 -3.63,4.044 -10.544,13.629 -14.002,19.83 -1.561,2.8 -6.638,3.18 -6.638,3.779 z"
   style="fill:none;stroke:#5660ff;stroke-width:1.05px"
   id="path13" />
    </g><g
     transform="matrix(0.778176,0,0,0.778176,-944.362,-428.017)"
     id="g14">
        <path
   d="m 1351.6,1241.16 c 0,0 40.23,-10.13 65.49,1.76"
   style="fill:none;stroke:#5660ff;stroke-width:3.21px"
   id="path14" />
    </g><g
     transform="matrix(0.778176,0,0,0.778176,-944.362,-428.017)"
     id="g15">
        <path
   d="m 1729.42,1237.14 c 0,0 27.06,9.49 56.44,0"
   style="fill:none;stroke:#5660ff;stroke-width:3.21px"
   id="path15" />
    </g><g
     transform="matrix(0.778176,0,0,0.778176,-944.362,-428.017)"
     id="g16">
        <path
   d="m 1310.94,1233.21 c 0,0 -13.41,4.17 -3.11,13.78 10.29,9.6 13.25,-7.12 12.88,-12.46"
   style="fill:none;stroke:#5660ff;stroke-width:3.21px"
   id="path16" />
    </g><g
     transform="matrix(0.778176,0,0,0.778176,-944.362,-428.017)"
     id="g17">
        <path
   d="m 1905.69,1137.76 c 0,0 -31.08,25.76 -31.08,39.95 0,14.19 17.31,30.3 16.15,35.34 -1.15,5.04 -8.67,-8.98 -8.77,-0.54 -0.1,8.43 -0.68,14.94 7.1,12.64"
   style="fill:none;stroke:#5660ff;stroke-width:3.21px"
   id="path17" />
    </g><g
     transform="matrix(2.9884,0,0,2.9884,-945.114,-753.842)"
     id="g18">
        <path
   d="m 383.065,333.932 c 1.37,14.89 1.834,31.95 1.834,46.889"
   style="fill:none;stroke:#5660ff;stroke-width:0.84px"
   id="path18" />
    </g><g
     transform="matrix(2.9884,0,0,2.9884,-945.114,-753.842)"
     id="g19">
        <path
   d="m 385.481,334.205 c 0.787,11.814 2.057,23.649 2.696,35.469 0.126,2.346 1.28,9.739 -1.77,10.393"
   style="fill:none;stroke:#5660ff;stroke-width:0.84px"
   id="path19" />
    </g><g
     transform="matrix(2.22436,0,0,2.62722,-226.509,-1202.61)"
     id="g20">
        <path
   d="m 360.351,613.571 c 4.63,1.015 7.503,-20.552 -6.11,-11.693"
   style="fill:none;stroke:#5660ff;stroke-width:1.03px"
   id="path20" />
    </g><g
     transform="matrix(2.22436,0,0,2.62722,-226.509,-1202.61)"
     id="g21">
        <path
   d="m 301.073,602.048 c -0.189,-0.528 -6.609,-4.803 -7.511,0.771 -0.371,2.291 0.519,5.681 3.058,6.527 1.13,0.377 2.432,0.321 3.602,0.239 0.908,-0.063 2.791,0.197 3.55,-0.026 0.489,-0.144 0.362,-1.698 0.332,-2.008 -0.212,-2.214 -1.605,-3.884 -3.031,-5.503 z"
   style="fill:none;stroke:#5660ff;stroke-width:1.03px"
   id="path21" />
    </g><g
     transform="matrix(2.22436,0,0,2.51024,-226.509,-1120.22)"
     id="g22">
        <path
   d="m 158.83,597.497 c -1.543,-2.087 -5.205,2.948 -5.903,3.957 -2.626,3.798 -3.657,10.211 -4.1,14.857 -0.28,2.945 2.682,0.878 4.164,0.638 0.382,-0.062 1.61,0.66 1.703,0.517 1.778,-2.749 1.636,-8.023 2.249,-11.156"
   style="fill:none;stroke:#5660ff;stroke-width:1.05px"
   id="path22" />
    </g><g
     transform="matrix(0.778176,0,0,0.778176,-944.362,-428.017)"
     id="g23">
        <path
   d="m 1695.99,1174.81 c 0,0 6.45,16.27 -0.16,17.99"
   style="fill:none;stroke:#5660ff;stroke-width:3.21px"
   id="path23" />
    </g><g
     transform="matrix(0.778176,0,0,0.778176,-944.362,-428.017)"
     id="g24">
        <path
   d="m 1839.05,1159.36 c 0,0 -1.34,-13.33 6.33,-13.28 7.66,0.04 12.38,18.52 -6.33,13.28 z"
   style="fill:none;stroke:#5660ff;stroke-width:3.21px"
   id="path24" />
    </g><g
     transform="matrix(0.778176,0,0,0.778176,-944.362,-428.017)"
     id="g25">
        <path
   d="m 1340.47,1375.12 c 0,0 17.01,1.08 21.18,0 4.18,-1.08 11.43,-3.86 2.39,-9.86 -9.04,-6 -25.9,-7.75 -30.67,-5.76"
   style="fill:none;stroke:#5660ff;stroke-width:3.21px"
   id="path25" />
    </g><g
     transform="matrix(0.778176,0,0,0.778176,-944.362,-428.017)"
     id="g26">
        <path
   d="m 1386.67,1375.12 c 0,0 10.72,0.14 19.22,0 8.5,-0.14 10.74,-1.84 7.41,-10.07 -3.32,-8.22 -25.49,-13.31 -28.49,-6.33"
   style="fill:none;stroke:#5660ff;stroke-width:3.21px"
   id="path26" />
    </g><g
     transform="matrix(0.778176,0,0,0.778176,-944.362,-428.017)"
     id="g27">
        <path
   d="m 1717.56,1365.31 c 0,0 -21.72,-0.42 -20.51,9.81 1.2,10.23 18.62,12.05 28.03,7.68"
   style="fill:none;stroke:#5660ff;stroke-width:3.21px"
   id="path27" />
    </g><g
     transform="matrix(0.778176,0,0,0.778176,-944.362,-428.017)"
     id="g28">
        <path
   d="m 1770.04,1358.72 c 0,0 -29.77,4.87 -19.06,17.79 10.71,12.92 21.92,7.49 28.05,3.84 6.12,-3.65 -8.99,-21.63 -8.99,-21.63 z"
   style="fill:none;stroke:#5660ff;stroke-width:3.21px"
   id="path28" />
    </g><g
     transform="matrix(6.48416,0,0,6.48416,-3822.71,-69750.2)"
     id="g29">
        <ellipse
   cx="618.612"
   cy="10782.7"
   rx="11.88"
   ry="12.059"
   style="fill:none;stroke:#5660ff;stroke-width:0.39px;stroke-miterlimit:3"
   id="ellipse28" />
    </g><g
     transform="matrix(6.48416,0,0,6.48416,-3822.71,-69750.2)"
     id="g30">
        <path
   d="m 622.601,10774.7 c -3.441,-2 -8.37,-1 -10.576,2.4 -1.003,1.5 -1.551,3.8 -1.721,5.6 -0.343,3.7 3.116,7 3.409,6.8 0.512,-0.5 4.281,-6.2 5.635,-8.3 1.273,-2 2.436,-4.2 3.342,-6.4"
   style="fill:none;stroke:#5660ff;stroke-width:0.39px;stroke-miterlimit:3"
   id="path29" />
    </g><g
     transform="matrix(6.48416,0,0,6.48416,-3822.71,-69750.2)"
     id="g31">
        <path
   d="m 625.228,10776.2 c -0.98,1.7 -1.636,3.5 -2.514,5.2 -1.581,3.1 -3.967,6.9 -6.007,9.7"
   style="fill:none;stroke:#5660ff;stroke-width:0.39px;stroke-miterlimit:3"
   id="path30" />
    </g><g
     transform="matrix(6.48416,0,0,6.48416,-3822.71,-69750.2)"
     id="g32">
        <path
   d="m 625.353,10776.3 c 0.576,0.9 1.291,1.7 1.673,2.8 0.848,2.3 0.552,5.6 -0.351,7.9 -0.388,0.9 -1.216,1.8 -2.018,2.4 -2.073,1.7 -5.363,3 -7.95,1.7"
   style="fill:none;stroke:#5660ff;stroke-width:0.39px;stroke-miterlimit:3"
   id="path31" />
    </g></g>
</svg>
