<?xml version="1.0" encoding="UTF-8" standalone="no"?>
<!DOCTYPE svg PUBLIC "-//W3C//DTD SVG 1.1//EN" "http://www.w3.org/Graphics/SVG/1.1/DTD/svg11.dtd">
<svg width="100%" height="100%" viewBox="0 0 629 398" version="1.1" xmlns="http://www.w3.org/2000/svg" xmlns:xlink="http://www.w3.org/1999/xlink" xml:space="preserve" xmlns:serif="http://www.serif.com/" style="fill-rule:evenodd;clip-rule:evenodd;stroke-linecap:round;stroke-linejoin:round;stroke-miterlimit:1.5;">
    <g transform="matrix(-1.24077,0.239724,-0.32164,-1.66476,1725.94,748.074)">
        <path d="M1144.15,477.972C1144.15,477.972 1133.32,479.07 1134.28,499.276C1135.24,519.482 1154.96,534.162 1151.62,521.589C1148.2,508.698 1142.03,478.041 1144.15,477.972Z" style="fill:rgb(0,252,232);fill-opacity:0.3;"/>
    </g>
    <g transform="matrix(0.891213,0,-0.0649826,0.740075,-889.022,-180.246)">
        <path d="M1138.97,488.458C1138.42,508.981 1135.95,527.938 1141.07,553.065C1141.07,553.065 1177.5,560.818 1168.8,552.057C1154.73,537.89 1138.97,488.458 1138.97,488.458Z" style="fill:rgb(213,254,250);fill-opacity:0.3;"/>
    </g>
    <g transform="matrix(5.87549,0.587869,-0.587869,5.87549,-558.654,-2629.79)">
        <path d="M161.689,446.714C160.381,446.649 159.729,448.455 159.662,448.741C159.275,450.385 159.208,453.908 161.862,453.487C165.372,452.931 165.492,446.904 161.689,446.714Z" style="fill:none;stroke:white;stroke-width:0.41px;"/>
    </g>
    <g transform="matrix(5.87549,0.587869,-0.587869,5.87549,-556.004,-2623.57)">
        <path d="M157.815,455.889C161.795,452.568 165.082,456.942 165.57,457.69C167.247,460.262 168.485,463.405 169.537,466.28C169.812,467.031 170.325,470.158 171.169,470.519C172.013,470.881 175,468.6 175.346,470.383C175.771,472.568 172.203,473.562 170.699,472.559C170.581,472.48 169.89,470.601 169.648,470.322C168.173,468.619 165.039,466.276 164.21,464.204" style="fill:none;stroke:white;stroke-width:0.41px;"/>
    </g>
    <g transform="matrix(5.90483,0,0,5.90483,-4404.97,-658.905)">
        <path d="M775.309,152.502L774.164,153.071" style="fill:none;stroke:white;stroke-width:0.41px;"/>
    </g>
    <g transform="matrix(5.87549,0.587869,-0.587869,5.87549,-556.004,-2623.57)">
        <path d="M157.815,455.889C157.784,455.788 157.15,458.339 156.942,460.805C156.762,462.941 156.681,465.079 156.806,467.219C156.852,467.991 157.401,469.678 157.202,470.408C157.188,470.459 154.944,470.156 154.779,470.161C153.463,470.201 149.633,470.472 148.871,471.842C148.261,472.94 148.842,475.398 148.896,476.551C149.085,480.545 149.788,484.623 149.502,488.627C149.453,489.304 149.407,489.993 149.316,490.666C149.284,490.909 148.796,493.558 148.55,493.558C147.229,493.558 145.288,492.92 144.484,494.559C143.348,496.874 150.833,495.535 151.323,493.802" style="fill:none;stroke:white;stroke-width:0.41px;"/>
    </g>
    <g transform="matrix(5.87549,0.587869,-0.587869,5.87549,-556.004,-2623.57)">
        <path d="M148.859,492.833C149.19,493.459 151.238,493.873 151.319,493.805C151.715,493.476 151.989,493.016 152.233,492.569C153.028,491.115 153.865,489.643 154.347,488.058C155.344,484.781 155.671,480.149 154.796,474.987" style="fill:none;stroke:white;stroke-width:0.41px;"/>
    </g>
    <g transform="matrix(5.87549,0.587869,-0.587869,5.87549,-556.004,-2623.57)">
        <path d="M148.591,472.569C148.125,472.638 147.364,472.702 146.894,473.548C145.743,475.619 148.98,481.891 149.479,484.001" style="fill:none;stroke:white;stroke-width:0.41px;"/>
    </g>
    <g transform="matrix(5.87549,0.587869,-0.587869,5.87549,-556.004,-2623.57)">
        <path d="M152.864,491.362C153.126,492.015 153.349,492.945 153.173,493.62C152.758,495.208 151.163,496.349 152.765,498.119C154.028,499.515 155.797,497.366 156.139,496.203C156.811,493.918 155.108,490.545 154.165,488.501" style="fill:none;stroke:white;stroke-width:0.41px;"/>
    </g>
    <g transform="matrix(5.87549,0.587869,-0.587869,5.87549,-558.654,-2629.79)">
        <path d="M160.473,447.27C159.819,446.719 160.087,445.126 160.781,444.529C161.504,443.909 163.366,444.074 164.037,444.588C165.256,445.523 165.783,447.102 166.015,448.568C166.076,448.96 165.957,450.326 165.977,450.2" style="fill:none;stroke:white;stroke-width:0.41px;"/>
    </g>
    <g transform="matrix(5.87549,0.587869,-0.587869,5.87549,-556.004,-2623.57)">
        <path d="M157.329,470.179C157.731,470.201 158.13,470.268 158.526,470.338C159.814,470.564 160.71,471.09 161.86,471.626" style="fill:none;stroke:white;stroke-width:0.41px;"/>
    </g>
    <g transform="matrix(5.00702,0.287294,-0.287294,5.00702,-560.943,-2178.59)">
        <path d="M158.791,455.508C158.514,455.848 154.864,455.056 153.24,452.236C151.999,450.08 151.906,446.346 151.632,443.977" style="fill:none;stroke:white;stroke-width:0.48px;"/>
    </g>
    <g transform="matrix(5.00702,0.287294,-0.287294,5.00702,-560.943,-2178.59)">
        <path d="M147.864,446.32C147.815,445.981 149.489,452.534 149.73,453.937C149.966,455.315 154.922,459.495 157.529,461.14" style="fill:none;stroke:white;stroke-width:0.48px;"/>
    </g>
    <g transform="matrix(5.00702,0.287294,-0.287294,5.00702,-561.961,-2163.12)">
        <path d="M147.963,443.215C147.847,442.256 149.985,441.791 150.657,441.705" style="fill:none;stroke:white;stroke-width:0.48px;"/>
    </g>
    <g transform="matrix(5.00702,0.287294,-0.287294,5.00702,-561.961,-2163.12)">
        <path d="M148.275,442.361C148.13,442.483 147.42,440.984 147.332,440.815C146.789,439.784 146.234,437.501 147.433,436.672L147.529,436.575C148.046,436.58 148.28,436.676 149.009,437.349L149.641,437.98L149.641,440.017" style="fill:none;stroke:white;stroke-width:0.48px;"/>
    </g>
    <g transform="matrix(5.00702,0.287294,-0.287294,5.00702,-561.961,-2163.12)">
        <path d="M142.932,434.568C142.633,433.865 141.771,436.023 141.732,436.156C141.338,437.509 141.503,439.09 142.187,440.33" style="fill:none;stroke:white;stroke-width:0.48px;"/>
    </g>
    <g transform="matrix(5.00702,0.287294,-0.287294,5.00702,-561.961,-2163.12)">
        <path d="M139.641,434.628C139.419,435.462 139.14,436.21 139.064,437.116" style="fill:none;stroke:white;stroke-width:0.48px;"/>
    </g>
    <g transform="matrix(5.87549,0.587869,-0.587869,5.87549,-556.004,-2623.57)">
        <path d="M167.03,468.153C166.923,468.129 167.023,469.327 166.983,469.911C166.907,470.999 165.665,475.338 164.518,475.912" style="fill:none;stroke:white;stroke-width:0.41px;"/>
    </g>
    <g transform="matrix(5.00702,0.287294,-0.287294,5.00702,-560.943,-2178.59)">
        <path d="M149.552,443.487C149.562,443.524 149.782,443.095 149.827,443.029C149.967,442.821 150.583,441.98 150.941,442.233C151.646,442.73 150.607,444.334 150.289,444.779" style="fill:none;stroke:white;stroke-width:0.48px;"/>
    </g>
    <g transform="matrix(5.87549,0.587869,-0.587869,5.87549,-556.858,-2611.14)">
        <path d="M155.022,474.933C155.029,474.96 162.058,475.192 164.452,473.805" style="fill:none;stroke:white;stroke-width:0.41px;"/>
    </g>
    <g transform="matrix(5.87549,0.587869,-0.587869,5.87549,-556.858,-2611.14)">
        <path d="M157.126,468.083C157.028,468.053 158.153,467.719 158.318,467.701C159.134,467.612 159.932,467.714 160.748,467.8C162.512,467.984 165.158,469.647 166.119,470.905" style="fill:none;stroke:white;stroke-width:0.41px;"/>
    </g>
    <g transform="matrix(-5.90483,-1.80281e-15,1.80281e-15,-5.90483,1376.02,2562.21)">
        <path d="M163.347,427.623C163.126,427.005 164.621,433.102 164.66,432.872C165.028,430.712 165.794,429.415 165.794,429.415L167.587,432.72C167.587,432.72 168.006,428.542 168.209,426.944" style="fill:none;stroke:white;stroke-width:0.41px;"/>
    </g>
    <g transform="matrix(7.19369,0.43697,-0.358021,5.89396,-911.112,-2577.66)">
        <path d="M180.481,425.16C179.888,424.891 178.038,425.657 178.008,427.982C177.977,430.351 179.409,430.583 180.881,430.457" style="fill:none;stroke:white;stroke-width:0.36px;"/>
    </g>
    <g transform="matrix(5.89396,0.358021,-0.358021,5.89396,-600.215,-2559.56)">
        <path d="M185.212,424.651C182.423,422.571 181.065,428.534 183.362,429.425C186.016,430.455 186.897,425.908 185.212,424.651Z" style="fill:none;stroke:white;stroke-width:0.41px;"/>
    </g>
    <g transform="matrix(5.89396,0.358021,-0.358021,5.89396,-372.359,-2559.56)">
        <path d="M185.212,424.651C182.423,422.571 181.065,428.534 183.362,429.425C186.016,430.455 186.897,425.908 185.212,424.651Z" style="fill:none;stroke:white;stroke-width:0.41px;"/>
    </g>
    <g transform="matrix(5.89396,0.358021,-0.358021,5.89396,-426.248,-2641.93)">
        <path d="M204.751,436.012C205.087,437.916 205.035,439.937 205.331,441.863" style="fill:none;stroke:white;stroke-width:0.41px;"/>
    </g>
    <g transform="matrix(5.89396,0.358021,-0.358021,5.89396,-426.248,-2659.64)">
        <path d="M205.866,446.159C205.859,445.966 205.762,446.076 205.724,445.924" style="fill:none;stroke:white;stroke-width:0.41px;"/>
    </g>
    <g transform="matrix(5.89396,0.358021,-0.358021,5.89396,-969.298,-2578.43)">
        <path d="M220.222,430.297C220.229,430.321 220.117,429.554 220.098,429.381C220.011,428.606 219.917,427.831 219.827,427.057L219.694,425.892C219.704,425.968 219.726,425.837 219.722,425.768L219.722,425.245C219.722,424.999 220.574,426.383 220.726,426.63C221.391,427.714 222.184,428.796 222.652,429.986L222.853,430.188C222.853,430.188 222.802,430.344 222.844,430.326C223.058,430.234 222.861,428.686 222.853,428.515C222.791,427.221 222.624,425.917 222.624,424.622" style="fill:none;stroke:white;stroke-width:0.41px;"/>
    </g>
    <g transform="matrix(6.24586,0.67889,-0.873269,8.03417,-707.276,-3650.68)">
        <path d="M222.621,436.644C222.581,437.806 222.992,439.11 223.171,440.259" style="fill:none;stroke:white;stroke-width:0.33px;"/>
    </g>
    <g transform="matrix(6.24586,0.67889,-0.873269,8.03417,-531.109,-3650.68)">
        <path d="M222.621,436.644C222.581,437.806 222.992,439.11 223.171,440.259" style="fill:none;stroke:white;stroke-width:0.33px;"/>
    </g>
    <g transform="matrix(6.24586,0.67889,-0.873269,8.03417,-707.276,-3650.68)">
        <path d="M220.807,436.706C220.789,436.685 221.277,436.633 221.3,436.632C221.551,436.614 221.801,436.592 222.052,436.57C222.831,436.501 223.624,436.398 224.406,436.388" style="fill:none;stroke:white;stroke-width:0.33px;"/>
    </g>
    <g transform="matrix(6.24586,0.67889,-0.873269,8.03417,-531.109,-3650.68)">
        <path d="M220.807,436.706C220.789,436.685 221.277,436.633 221.3,436.632C221.551,436.614 221.801,436.592 222.052,436.57C222.831,436.501 223.624,436.398 224.406,436.388" style="fill:none;stroke:white;stroke-width:0.33px;"/>
    </g>
    <g transform="matrix(5.89396,0.358021,-0.358021,5.89396,-778.858,-2685.46)">
        <path d="M247.659,442.208C248.389,443.115 249.379,444.151 250.505,445.143" style="fill:none;stroke:white;stroke-width:0.41px;"/>
    </g>
    <g transform="matrix(5.89396,0.358021,-0.358021,5.89396,-778.858,-2685.46)">
        <path d="M252.033,441.547C252.008,441.373 251.71,442.127 251.697,442.161C251.516,442.646 251.345,443.134 251.182,443.625C250.673,445.166 250.234,446.708 249.789,448.267" style="fill:none;stroke:white;stroke-width:0.41px;"/>
    </g>
    <g transform="matrix(3.97869,0,0,3.86379,-2153.03,-1633.4)">
        <path d="M605.426,424.579C605.468,424.721 601.984,424.98 601.984,424.98C601.984,424.98 602.388,427.336 602.417,428.319C602.424,428.542 602.233,432.565 602.605,432.593C603.095,432.631 606.142,432.946 606.62,432.627" style="fill:none;stroke:white;stroke-width:0.61px;"/>
    </g>
    <g transform="matrix(4.99197,0.420177,-0.345512,4.10491,-2651.02,-1990.37)">
        <path d="M601.984,424.98C601.984,424.98 602.233,432.565 602.605,432.593" style="fill:none;stroke:white;stroke-width:0.52px;"/>
    </g>
    <g transform="matrix(3.97869,0,0,3.86379,-1974.35,-1633.4)">
        <path d="M605.426,424.579C605.468,424.721 601.984,424.98 601.984,424.98C601.984,424.98 602.388,427.336 602.417,428.319C602.424,428.542 602.233,432.565 602.605,432.593C603.095,432.631 606.142,432.946 606.62,432.627" style="fill:none;stroke:white;stroke-width:0.61px;"/>
    </g>
    <g transform="matrix(3.97869,0,0,3.86379,-1949.37,-1633.4)">
        <path d="M605.419,424.763C605.462,424.905 601.984,424.98 601.984,424.98C601.984,424.98 601.993,427.343 602.022,428.326C602.029,428.55 602.233,432.565 602.605,432.593C603.095,432.631 604.99,432.613 606.62,432.627" style="fill:none;stroke:white;stroke-width:0.61px;"/>
    </g>
    <g transform="matrix(3.97869,0,0,3.86379,-2153.03,-1633.4)">
        <path d="M602.412,428.561C602.473,428.595 604.819,428.718 605.108,428.586" style="fill:none;stroke:white;stroke-width:0.61px;"/>
    </g>
    <g transform="matrix(3.97869,0,0,3.86379,-1974.35,-1633.4)">
        <path d="M602.412,428.561C602.473,428.595 604.819,428.718 605.108,428.586" style="fill:none;stroke:white;stroke-width:0.61px;"/>
    </g>
    <g transform="matrix(3.97869,0,0,3.86379,-1949.37,-1633.4)">
        <path d="M602.412,428.561C602.473,428.595 604.819,428.718 605.108,428.586" style="fill:none;stroke:white;stroke-width:0.61px;"/>
    </g>
    <g transform="matrix(2.55287,0,0,2.97054,-1421.21,-1313.64)">
        <path d="M783.15,445.441C782.993,452.249 784.009,455.04 787.072,455.19C791.559,455.409 792.2,448.6 792.2,445.515" style="fill:none;stroke:white;stroke-width:0.87px;"/>
    </g>
</svg>
