<?xml version="1.0" encoding="UTF-8" standalone="no"?>
<!-- Generator: Adobe Illustrator 13.0.0, SVG Export Plug-In . SVG Version: 6.00 Build 14948)  -->

<svg
   xmlns:dc="http://purl.org/dc/elements/1.1/"
   xmlns:cc="http://creativecommons.org/ns#"
   xmlns:rdf="http://www.w3.org/1999/02/22-rdf-syntax-ns#"
   xmlns:svg="http://www.w3.org/2000/svg"
   xmlns="http://www.w3.org/2000/svg"
   xmlns:sodipodi="http://sodipodi.sourceforge.net/DTD/sodipodi-0.dtd"
   xmlns:inkscape="http://www.inkscape.org/namespaces/inkscape"
   version="1.1"
   id="Layer_1"
   x="0px"
   y="0px"
   width="192px"
   height="192px"
   viewBox="0 0 192 192"
   enable-background="new 0 0 192 192"
   xml:space="preserve"
   inkscape:version="0.48.3.1 r9886"
   sodipodi:docname="Walnut.svg"
   inkscape:export-filename="/home/norman/mac/scalableminds/shellgame/iOS/icon@2x.png"
   inkscape:export-xdpi="53.4375"
   inkscape:export-ydpi="53.4375"><metadata
   id="metadata88"><rdf:RDF><cc:Work
       rdf:about=""><dc:format>image/svg+xml</dc:format><dc:type
         rdf:resource="http://purl.org/dc/dcmitype/StillImage" /><dc:title></dc:title></cc:Work></rdf:RDF></metadata><sodipodi:namedview
   pagecolor="#ffffff"
   bordercolor="#666666"
   borderopacity="1"
   objecttolerance="10"
   gridtolerance="10"
   guidetolerance="10"
   inkscape:pageopacity="0"
   inkscape:pageshadow="2"
   inkscape:window-width="1615"
   inkscape:window-height="1026"
   id="namedview86"
   showgrid="false"
   inkscape:zoom="1.2291667"
   inkscape:cx="96"
   inkscape:cy="96"
   inkscape:window-x="65"
   inkscape:window-y="24"
   inkscape:window-maximized="1"
   inkscape:current-layer="Layer_1" />
<defs
   id="defs3">
<filter
   id="Gaussian_Blur">
<feGaussianBlur
   in="SourceGraphic"
   stdDeviation="8"
   id="feGaussianBlur6" />
</filter>
<filter
   id="Gaussian_Blur2">
<feGaussianBlur
   in="SourceGraphic"
   stdDeviation="0.5"
   id="feGaussianBlur9" />
</filter>
</defs>
<g
   id="XMLID_1_"
   opacity="0.5">
	<g
   id="g12">
		<g
   id="g14">
			<path
   d="M90.366,177.637c-3.099,0-6.216-0.183-9.261-0.547c-7.32-0.869-14.433-2.628-21.315-4.326     c-4.821-1.193-9.805-2.426-14.771-3.322c-1.296-0.231-2.745-0.338-4.689-0.338c-0.809,0-1.617,0.021-2.422,0.035l-1.128,0.021     c-0.339,0.006-0.814,0.053-1.348,0.103c-0.867,0.079-1.947,0.18-2.949,0.18c-1.273,0-2.209-0.157-2.956-0.501     c-2.362-0.6-2.753-3.314-2.887-4.798c-0.177-0.135-0.361-0.295-0.532-0.497c-2.641-2.307-3.667-7.155-4.497-11.077     c-0.161-0.754-0.307-1.441-0.448-2.006c-1.237-5.022-2.21-10.263-2.968-16.028c-2.766-21.114,1.091-44.295,11.463-68.901     c4.024-9.549,11.258-17.816,17.644-25.108c6.202-7.093,12.623-10.806,20.057-15.105l1.388-0.801     c10.359-6.026,23.294-7.291,32.324-7.291c0.871,0,1.732,0.011,2.578,0.032c10.857,0.282,19.221,1.047,27.963,8.367     c4.74,3.98,9.055,8.545,13.227,12.96c3.336,3.531,6.787,7.182,10.436,10.514c1.914,1.746,4.521,2.279,7.281,2.849     c3.352,0.688,7.154,1.469,9.59,4.784c2.393,3.243,2.508,6.153,2.615,8.968c0.043,1.052,0.084,2.138,0.24,3.304     c0.248,1.875,0.615,3.299,0.963,4.674c0.695,2.714,1.352,5.279,0.512,9.627l-0.428,2.252c-1.104,5.861-2.766,14.715-4.635,19.649     c-3.762,9.982-7.641,20.279-13.842,29.24c-5.047,7.307-11.168,14.71-19.262,23.292c-5.42,5.759-11.332,10.211-17.566,13.236     C111.898,175.371,101.395,177.637,90.366,177.637L90.366,177.637z"
   style="filter:url(#Gaussian_Blur)"
   id="path16" />
		</g>
	</g>
</g>
<g
   id="XMLID_2_">
	<g
   id="g19">
		<g
   id="g21">
			
				<radialGradient
   id="SVGID_1_"
   cx="347.167"
   cy="-156.834"
   r="134.9406"
   gradientTransform="matrix(1 0 0 -1 -210 -109)"
   gradientUnits="userSpaceOnUse">
				<stop
   offset="0.2183"
   style="stop-color:#EDD798"
   id="stop24" />
				<stop
   offset="0.224"
   style="stop-color:#ECD597"
   id="stop26" />
				<stop
   offset="0.3756"
   style="stop-color:#D5B073"
   id="stop28" />
				<stop
   offset="0.5162"
   style="stop-color:#C5955A"
   id="stop30" />
				<stop
   offset="0.6407"
   style="stop-color:#BB854A"
   id="stop32" />
				<stop
   offset="0.736"
   style="stop-color:#B77F45"
   id="stop34" />
				<stop
   offset="0.7943"
   style="stop-color:#AC763F"
   id="stop36" />
				<stop
   offset="0.8957"
   style="stop-color:#905F30"
   id="stop38" />
				<stop
   offset="1"
   style="stop-color:#6C411C"
   id="stop40" />
			</radialGradient>
			<path
   fill="url(#SVGID_1_)"
   d="M91.423,166.803c-2.757,0-5.53-0.162-8.239-0.486c-6.514-0.773-12.843-2.338-18.966-3.851     c-4.29-1.062-8.725-2.157-13.144-2.956c-1.153-0.205-2.442-0.299-4.172-0.299c-0.72,0-1.439,0.018-2.155,0.031l-1.004,0.019     c-0.303,0.005-0.724,0.046-1.199,0.091c-0.771,0.07-1.732,0.16-2.624,0.16c-1.133,0-1.966-0.14-2.63-0.445     c-2.102-0.533-2.45-2.95-2.568-4.27c-0.157-0.119-0.321-0.262-0.473-0.441c-2.351-2.053-3.263-6.366-4.001-9.855     c-0.143-0.672-0.272-1.284-0.398-1.786c-1.102-4.468-1.966-9.132-2.641-14.262c-2.46-18.786,0.971-39.414,10.2-61.307     c3.581-8.497,10.018-15.853,15.699-22.341c5.518-6.311,11.231-9.615,17.846-13.44l1.234-0.713     c9.217-5.362,20.728-6.487,28.762-6.487c0.774,0,1.541,0.01,2.294,0.029c9.66,0.251,17.102,0.931,24.881,7.445     c4.219,3.541,8.057,7.603,11.77,11.532c2.969,3.143,6.039,6.391,9.285,9.355c1.703,1.554,4.022,2.029,6.479,2.535     c2.983,0.612,6.366,1.307,8.534,4.257c2.127,2.885,2.229,5.474,2.326,7.98c0.039,0.936,0.076,1.902,0.215,2.939     c0.22,1.668,0.545,2.936,0.855,4.159c0.618,2.415,1.203,4.697,0.455,8.565l-0.38,2.004c-0.981,5.215-2.462,13.093-4.124,17.485     c-3.348,8.883-6.8,18.044-12.314,26.018c-4.492,6.501-9.938,13.088-17.141,20.727c-4.822,5.121-10.083,9.084-15.632,11.775     C110.582,164.787,101.236,166.803,91.423,166.803L91.423,166.803z"
   id="path42" />
		</g>
	</g>
</g>
<path
   fill="#F5D798"
   d="M51.281,152.813c0.84,0.574,5.566-9.273,6.25-10.5c1.676-3.004,3.955-5.306,3.844-7.53  c-0.11-2.222-1.812-3.931-2.094-6.095c-0.465-3.567,1.906-6.694,4.062-9.146c0.676-0.771,4.627-5.968,6.457-6.024  c1.018-0.033,1.536,0.983,2.242,0.982c3.032-0.004,2.488-2.225,2.962-2.646c2.808-2.494,8.269,0.91,8.09-5.148  c-0.158-4.561-2.444-10.023-3.552-14.455c-1.792,4.709,2.07,10.034,1.415,14.956c-0.239,2.052-2.44,2.149-4.066,2.326  c-1.964,0-3.193,1.661-4.495,2.858c-0.251,0.229-0.672,0.469-0.813-0.022c-1.381-2.957-4.049,0.253-5.208,1.465  c-0.508-3.335-2.783-6.117-3.231-9.405c-0.398-2.922,2.076-6.631,3.793-8.886c2.396-3.146,9.355-7.021,5.563-11.042  c0.458,3.625-3.101,6.385-5.625,8.604c-2.204,1.936-5.528,6.599-5.906,9.487c-0.58,4.423,3,8.747,2.99,13.367  c0,0.616-3.074,3.905-3.463,4.412c-1.449,1.886-2.903,3.928-3.505,6.269c-0.91,3.535,2.515,5.945,1.718,9.069  c-0.617,2.417-2.369,4.618-3.691,6.696C54.498,143.223,49.375,152.031,51.281,152.813 M141.68,114.219  c-1.797-1.472-1.246-2.814-0.387-4.604c1.061-2.208,2.213-4.592,2.041-6.989c-0.27-3.753-1.409-9.685,0.333-13.167  c2.129-2.165,3.483-3.882,4.625-6.792c1.283-3.274,2.831-7.717,5.677-10.135c-6.844-0.063-6.781,8.7-9.201,12.026  c-1.84,2.53-4.789,4.43-6.815,6.941c-2.029,2.513-4.283,4.944-7.772,4.748c-6.156-0.348-13.148-1.078-17.304,4.507  c-2.849,3.828-2.774,6.532-7.563,8.783c-4.104,1.93-8.639,1.855-12.479,4.047c0.151-3.868-1.079-7.503-2.75-10.916  c-1.153-2.352-2.668-4.322-2.546-6.973c0.145-3.145-0.378-5.561-0.756-8.569c-0.588-4.668,8.849-13.242,12.438-15.156  c-4.111-0.545-9.644,5.833-11.861,8.562c-1.859,2.287-3.272,5-2.989,8.036c0.342,3.672,0.394,8.817,1.879,12.2  c1.472,3.354,3.463,6.582,3.852,10.301c0.453,4.334-1.918,6.604-4.685,9.684c-2.718,3.025-6.412,4.693-9.814,6.787  c-3.433,2.111-5.535,5.005-7.706,8.32c-2.449,3.742-6.796,6.904-8.488,11.07c-1.629,4.014,5.034-2.816,5.504-3.451  c2.653-3.578,4.963-7.41,7.676-10.941c1.792-2.333,4.703-3.547,7.231-4.902c3.73-2,6.635-4.133,9.275-7.382  c-0.75,2.906,0.333,3.771,1.313,6.328c1.541,2.916,1.173,7.36,0.553,10.413c-1.029,5.063-10.432,8.875-12.198,9.434  c-1.059,0.608-4.519,1.688-4.854,2.295c-0.694,1.399,3.935,0.405,3.095-0.316c1.655-0.836,11.754-4.143,14.662-8.193  c2.476,5.047,3.487,6.225-2.188,8.821c-4.399,2.015-7.733,6.489-13.031,5.296c-2.012-0.451-4.099-1.829-5.26-2.107  c-1.161-0.277-2.222,0.721-1.601,1.012s2.558,1.033,4.074,1.951c5.478,2.424,9.235,0.066,14.427-3.528  c2.615-2.188,9.144-2.55,7.935-7.374c-0.465-1.855-2.203-7.924-2.335-13.778c-0.105-4.651-6.262-12.046-0.193-15.291  c5.027-2.688,11.765-1.491,16.337-5.896c-0.242,4.988,2.438,10.147,7.782,11.104c1.964,0.352,3.033,0.564,2.445,2.945  c-0.809,3.277-6.953,1.85-9.385,2.162c-8.775,1.126-4.27,4.383-3.584,10.033c0.559,4.594-5.719,6.398-8.134,9.317  c-2.637,3.188,0.065,8.884-3.99,11.257c-2.346,1.371-5.467,1.077-8.069,1.238c-3.798,0.234-7.375,1.069-11.23,1.069  c-6.269,0.002-10.596-0.921-15.387-5.064c-2.212-1.913-4.725-1.312-7.015,0.183c-0.417,0.271-2.328,2.515-1.767,3.256  c0.495,0.652,4.889-3.944,7.143-2.352c2.028,1.434,3.771,3.369,6.126,4.293c3.136,1.231,7.151,1.106,10.472,1.143  c2.881,0.031,5.86,0.148,8.663-0.646c3.409-0.967,7.125,0.47,10.415-1.047c2.417-1.112,4-3.45,4.658-5.973  c0.576-2.214-0.324-4.914,1.211-6.784c2.42-2.949,8.76-3.846,8.844-8.423c0.103-5.433-6.047-8.869,2.435-9.541  c4.175-0.331,10.632-1.582,12.554,2.97c2.758,6.527,11.235-2.587,14.914-3.652c-2.015,4.901-7.541,8.504-12.539,9.649  c-2.062,0.474-4.215,0.632-6.181,1.472c-2.541,1.088-2.877,3.454-4.672,5.247c-1.865,1.865-4.729,0.433-6.886,2.023  c-1.413,1.045-2.788,2.356-3.706,3.87c-0.584,0.964-0.656,3.505,1.053,2.144c1.353-1.075,2.22-2.71,3.336-4.003  c1.468-1.697,3.384-0.566,5.41-1.013c2.961-0.65,3.146-3.162,4.674-5.271c1.539-2.12,6.67-2.265,9.123-3.038  c4.701-1.482,9.08-4.798,11.822-8.914c1.272-1.912,1.743-3.82,1.868-6.08C142.402,119.908,144.504,116.527,141.68,114.219   M140.41,120.311c-0.707,3.586,0.014,3.82-3.516,5.283c-2.484,1.029-4.549,2.932-6.869,4.238c-2.012,1.134-3.9,1.395-4.646-1.08  c-0.82-2.716-2.178-2.331-4.609-2.783c1.465-1.763,2.588-6.939-0.86-7.322c-3.521-0.39-5.847-2.502-7.416-5.75  c-1.668-3.451-0.191-7.539,1.729-10.551c3.047-4.771,8.447-4.346,13.391-4.086c-0.106,3.719-2.612,7.33-4.645,10.303  c-0.902,1.321-3.408,3.104-3.779,4.633c-0.014,0.056,3.5-2.385,3.945-2.738c1.973-1.575,3.568-4.279,4.83-6.445  c0.568-0.975,0.992-1.979,1.328-3.054c0.941-3.004,0.553-2.188,3.533-3.05c3.066-0.889,5.033-3.452,7.059-5.735  c-0.197,5.427,1.555,11.493-0.65,16.615c-1.077,2.506-1.452,4.539,0.777,6.43C142.133,117.016,140.852,118.064,140.41,120.311   M154.583,104.083c-1.457-3.179-3.833-7.239-3.083-9.458c0.494-1.46,4.811-6.709,2.916-8.208c0.875,2.969-4.488,7.194-4.457,9.229  c0.064,4.235,3.473,7.584,4.076,11.704c0.418,2.859-0.582,5.144-1.787,7.611c-0.248,0.508-1.999,4.954-1.331,5.372  c1.028,0.644,2.063-3.925,2.317-4.522C154.918,111.869,156.458,108.173,154.583,104.083z M143.469,71.313  c-1.955,0.131-4.744,2.535-6.006,3.707c-1.656,1.541-3.488,1.503-5.008,3.376c-4.447,5.481-7.178,9.246-14.908,9.664  c-3.137,0.17-5.834-2.154-8.84-1.817c-3.01-0.058-5.021,2.965-6.568,5.114c-2.887,4.01,0.039,9.67-5.603,11.8  c7.353,1.188,4.808-4.416,7.526-9.241c0.942-1.673,2.377-3.391,3.903-4.559c1.72-1.315,4.897,1.343,6.793,1.51  c5.662,0.609,13.066-2.467,16.854-6.664c1.746-1.934,2.496-4.313,4.533-6.072C137.428,77.1,143.668,71.264,143.469,71.313z   M92.072,87.697c-2.185,1.806,1.229,3.616,1.209,5.834c2.022-1.009-0.917-3.103,0.156-4.281c1.004-0.931,2.427,1.723,3.594,1.625  c4.219,1.063,6.336-8.127,9.486-11.357c2.965-3.041,6.143-3.43,9.998-4.484c4.748-1.298,8.239-5.34,13.073-6.576  c-3.287-0.805-6.592,1.763-9.399,3.051c-3.078,1.411-6.033,2.549-9.344,3.297c-7.267,2.649-8.933,9.565-14.682,13.86  C95.706,87.044,93.23,86.704,92.072,87.697 M133.357,60.238c2.215-0.254,8.102,0.262,13.158,0.311  c-7.433-1.507-12.646-1.6-14.271-1.062c-1.436,0.474-14.666,5.732-12.447,6.779C120.223,66.467,132.348,60.432,133.357,60.238z   M129.207,142.212c-2.518,2.519-4.326,6.404-7.764,7.839c-1.301,0.946-3.338-0.086-4.892,0.749  c-1.721,0.925-3.309,2.156-4.987,3.159c-2.4,1.432-4.215,5.452-6.937,5.859c-2.205,0.33-6.541,0.728-8.084,2.539  c-1.617,1.896,5.588,0.428,6.095,0.314c1.768-0.395,4.172-0.673,5.508-2.048c1.139-1.171,1.592-2.88,3.006-3.81  c1.904-1.25,3.756-2.578,5.682-3.795c2.184-1.379,4.566-0.252,6.752-2.057c1.729-1.426,3.215-3.179,4.738-4.813  C128.775,145.668,132.359,140.102,129.207,142.212"
   id="path44" />
<linearGradient
   id="SVGID_2_"
   gradientUnits="userSpaceOnUse"
   x1="295.499"
   y1="-238.0703"
   x2="367.249"
   y2="-177.8203"
   gradientTransform="matrix(1 0 0 -1 -210 -109)">
	<stop
   offset="0"
   style="stop-color:#6E4822"
   id="stop47" />
	<stop
   offset="1"
   style="stop-color:#EDD798"
   id="stop49" />
</linearGradient>
<path
   fill="url(#SVGID_2_)"
   d="M51.391,152.923c0.84,0.574,7.416-10.317,8.1-11.544c1.676-3.004,3.162-4.652,3.051-6.879  c-0.11-2.223-1.759-3.711-2.042-5.875c-0.465-3.568,2.604-6.633,4.76-9.083c0.676-0.771,4.627-5.968,6.457-6.024  c1.018-0.033,0.596,1.045,1.301,1.045c3.032-0.004,3.429-2.287,3.902-2.707c2.808-2.496,8.269,0.908,8.09-5.149  c-0.158-4.562-4.247-10.056-5.354-14.486c-1,4.998,3.873,10.065,3.218,14.987c-0.239,2.052-2.44,2.148-4.066,2.326  c-1.964,0-3.193,1.662-4.495,2.857c-0.251,0.23-0.672,0.469-0.813-0.021c-1.381-2.957-4.88,0.615-6.039,1.826  c-0.508-3.334-1.952-6.479-2.4-9.768c-0.398-2.922,2.076-6.631,3.793-8.886c2.396-3.146,7.438-7.021,3.646-11.042  c1.477,3.692-1.184,6.385-3.708,8.604c-2.204,1.936-5.528,6.599-5.906,9.487c-0.58,4.423,3,8.747,2.99,13.367  c0,0.616-3.074,3.905-3.463,4.412c-1.449,1.886-2.903,3.928-3.505,6.269c-0.91,3.535,2.515,5.945,1.718,9.069  c-0.617,2.417-2.369,4.618-3.691,6.696C56.415,143.223,49.898,152.495,51.391,152.923 M143.598,114.219  c-1.798-1.472-1.246-2.814-0.387-4.604c1.061-2.208,1.094-4.551,0.922-6.947c-0.27-3.753-1.512-9.728,0.229-13.21  c2.131-2.165,4.457-4.032,5.598-6.942c1.283-3.274,1.579-7.563,4.426-9.981c-5.427,0-5.279,8.698-7.699,12.023  c-1.84,2.53-4.789,4.43-6.815,6.941c-2.029,2.513-4.284,4.944-7.774,4.748c-6.154-0.348-13.147-1.078-17.303,4.507  c-2.848,3.828-2.773,6.532-7.563,8.783c-4.104,1.93-9.272,1.912-13.112,4.104c0.151-3.869-1.205-7.578-2.875-10.99  c-1.153-2.351-1.91-4.305-1.787-6.955c0.145-3.145-1.137-5.483-1.515-8.492c-0.588-4.668,8.128-13.35,11.717-15.265  c-4.11-0.545-8.163,5.865-10.38,8.593c-1.859,2.287-3.272,5-2.989,8.036c0.342,3.672,0.394,8.817,1.879,12.2  c1.472,3.354,3.463,6.582,3.852,10.301c0.453,4.334-1.918,6.604-4.685,9.684c-2.718,3.025-6.412,4.693-9.814,6.787  c-3.433,2.111-5.535,5.005-7.706,8.32c-2.449,3.742-6.796,6.904-8.488,11.07c-1.629,4.014,5.034-2.816,5.504-3.451  c2.653-3.578,4.963-7.41,7.676-10.941c1.792-2.333,4.703-3.547,7.231-4.902c3.73-2,6.312-4.633,8.952-7.882  c-0.75,2.906,0.656,4.271,1.637,6.828c1.541,2.916,1.173,7.36,0.553,10.413c-1.029,5.063-10.432,8.875-12.198,9.434  c-1.059,0.608-4.519,1.688-4.854,2.295c-0.694,1.399,3.059-0.35,3.095-0.316c1.655-0.836,11.754-4.143,14.662-8.193  c2.476,5.047,3.487,6.225-2.188,8.821c-4.399,2.015-7.733,6.489-13.031,5.296c-2.012-0.451-5.146-1.665-6.307-1.943  c-1.161-0.277-1.175,0.558-0.554,0.848c0.621,0.291,2.558,1.033,4.074,1.951c5.478,2.424,9.235,0.066,14.427-3.528  c2.615-2.188,9.145-2.55,7.936-7.374c-0.465-1.855-1.368-3.811-2.518-5.336c-1.417-1.883-0.046-5.947-0.326-8.516  c-0.503-4.625-5.754-11.974,0.315-15.219c5.026-2.689,11.765-1.492,16.338-5.896c-0.242,4.99,2.438,10.148,7.782,11.104  c1.963,0.353,3.033,0.563,2.445,2.945c-0.809,3.276-6.953,1.85-9.385,2.162c-8.775,1.126-4.271,4.383-3.584,10.034  c0.559,4.593-5.72,6.397-8.135,9.316c-2.637,3.188,0.064,8.885-3.99,11.256c-2.345,1.372-5.467,1.078-8.069,1.239  c-3.798,0.235-7.375,1.069-11.23,1.069c-6.269,0.002-10.796-0.786-15.588-4.932c-2.212-1.912-4.524-1.445-6.814,0.049  c-0.417,0.271-4.175,2.612-3.614,3.354c0.495,0.652,6.736-4.043,8.991-2.449c2.028,1.434,3.771,3.369,6.126,4.293  c3.136,1.231,7.151,1.106,10.472,1.143c2.881,0.031,5.86,0.148,8.663-0.646c3.409-0.967,7.125,0.47,10.415-1.047  c2.417-1.112,4-3.451,4.658-5.974c0.578-2.213-0.322-4.913,1.211-6.783c2.422-2.949,8.761-3.846,8.846-8.423  c0.102-5.433-6.049-8.869,2.433-9.541c4.175-0.331,10.632-1.582,12.554,2.97c2.758,6.527,11.236-2.587,14.914-3.652  c-2.015,4.901-7.541,8.504-12.539,9.649c-2.062,0.474-4.215,0.632-6.18,1.472c-2.542,1.088-2.878,3.454-4.672,5.247  c-1.865,1.865-4.73,0.433-6.885,2.023c-1.415,1.045-2.789,2.356-3.707,3.87c-0.585,0.964-0.656,3.505,1.053,2.144  c1.352-1.075,2.219-2.71,3.335-4.003c1.468-1.698,3.384-0.566,5.411-1.014c2.96-0.649,3.145-3.161,4.673-5.271  c1.539-2.12,6.671-2.265,9.124-3.039c4.7-1.481,9.08-4.797,11.821-8.913c1.272-1.912,1.744-3.82,1.87-6.08  C144.32,119.908,146.421,116.527,143.598,114.219 M142.327,120.311c-0.706,3.586,0.015,3.82-3.515,5.283  c-2.484,1.029-4.551,2.932-6.871,4.238c-2.012,1.134-3.898,1.395-4.646-1.08c-0.819-2.716-2.177-2.331-4.608-2.783  c1.465-1.763,2.588-6.939-0.86-7.322c-3.521-0.39-5.847-2.502-7.417-5.75c-1.668-3.451-0.191-7.539,1.73-10.551  c3.047-4.771,8.447-4.346,13.392-4.086c-0.108,3.719-2.614,7.33-4.646,10.303c-0.902,1.321-3.408,3.104-3.779,4.633  c-0.015,0.056,3.5-2.385,3.945-2.738c1.973-1.575,3.568-4.279,4.83-6.445c0.568-0.975,0.991-1.979,1.327-3.054  c0.94-3.004,0.554-2.188,3.534-3.05c3.066-0.889,5.031-3.452,7.059-5.735c-0.197,5.427,1.555,11.493-0.65,16.615  c-1.077,2.506-1.452,4.539,0.777,6.43C144.051,117.016,142.77,118.064,142.327,120.311 M155.04,103.705  c-1.457-3.178-3.696-6.986-2.946-9.205c0.493-1.46,4.301-6.501,2.406-8c0.875,2.969-3.563,7.027-3.531,9.063  c0.063,4.234,3.473,7.585,4.076,11.703c0.418,2.86-0.583,5.145-1.787,7.611c-0.248,0.508-2.818,5.127-2.15,5.546  c1.029,0.642,2.883-4.099,3.138-4.694C155.928,111.785,156.916,107.796,155.04,103.705 M143.613,71.36  c-1.954,0.131-2.971,2.487-4.232,3.659c-1.656,1.541-3.488,1.503-5.009,3.376c-4.446,5.481-7.177,9.246-14.907,9.664  c-3.138,0.17-5.834-2.154-8.84-1.817c-3.01-0.058-5.021,2.965-6.568,5.114c-2.889,4.01,0.039,9.671-5.604,11.8  c7.354,1.189,4.809-4.416,7.527-9.241c0.941-1.673,2.377-3.391,3.903-4.559c1.72-1.315,4.898,1.343,6.793,1.51  c5.662,0.609,13.065-2.467,16.855-6.664c1.745-1.934,2.495-4.313,4.532-6.072C139.346,77.1,143.814,71.312,143.613,71.36   M93.989,87.697c-2.185,1.806-0.461,3.525-0.481,5.743c2.022-1.009,0.006-2.831,1.079-4.01c1.004-0.931,2.622,1.558,3.789,1.46  c4.542-1.51,6.91-8.143,10.062-11.373c2.965-3.041,6.143-3.43,9.998-4.484c4.746-1.298,8.238-5.34,13.073-6.576  c-3.286-0.805-6.593,1.763-9.401,3.051c-3.076,1.411-6.032,2.549-9.344,3.297c-7.265,2.649-8.932,9.565-14.681,13.86  C97.623,87.044,95.147,86.704,93.989,87.697 M135.275,60.238c2.215-0.254,8.102,0.262,13.156,0.311  c-7.432-1.507-12.644-1.6-14.271-1.062c-1.437,0.474-14.806,5.463-14.202,6.742C119.982,66.278,134.266,60.432,135.275,60.238z   M131.125,142.212c-2.518,2.519-4.327,6.404-7.766,7.839c-1.301,0.946-3.336-0.086-4.891,0.749c-1.72,0.925-3.308,2.156-4.988,3.159  c-2.398,1.432-4.213,5.452-6.936,5.859c-2.205,0.33-6.54,0.728-8.085,2.539c-1.614,1.896,5.59,0.428,6.095,0.314  c1.77-0.395,4.172-0.673,5.508-2.048c1.14-1.171,1.594-2.88,3.008-3.81c1.904-1.25,3.756-2.578,5.682-3.795  c2.184-1.379,4.566-0.252,6.752-2.057c1.729-1.426,3.214-3.179,4.737-4.813C130.691,145.668,134.275,140.102,131.125,142.212"
   id="path51" />
<path
   fill="#EDD798"
   d="M38.515,83.297c3.987,0.762,4.822-3.615,5.485-4.672c1.896-3.021,2.09-6.258,0.5-9.583  c-0.729-1.525-1.551-2.549-1-4.292c0.601-1.901,1.728-2.565,2.75-4.25c1.747-3.122,5.484-7.654,7.25-9.417  c0.929-0.997-2.94-0.955-3.379-0.397c-1.192,1.395-2.401,2.935-3.491,4.226c-0.442,0.773-4.961,6.718-5.53,9.969  c-0.627,3.582,2.924,6.171,1.88,9.927c-0.542,1.951-1.967,3.971-3.042,5.279C39.584,80.555,37.203,83.047,38.515,83.297z   M44.641,82.297c-1.609-2.297-7.439,3.331-7.976,3.968c-3.755,4.463-3.003,7.977-3.165,13.422  c-1.526-4.931-3.666-6.993-3.078-12.345c0.227-2.069,0.93-4.165,1.266-6.219c0.069-0.422,1.038-1.172,1.109-1.594  c0.201-1.179-3.308-1.291-3.517-0.104c-0.336,3.526-1.189,6.976-1.347,10.534c-0.184,2.75,1.238,5.605,2.33,8.043  c0.94,2.101,2.447,4.538,1.417,6.886c-0.65,1.482-4.456,12.008-2.262,11.709c4.066,0.215,1.778-1.967,2.52-2.691  c0.768-0.831,1.929-3.133,2.514-5.284c1.367-5.026,0.996-10.172,1.486-15.263c0.232-2.411,1.079-4.563,2.688-6.328  C39.328,86.264,45.25,83.167,44.641,82.297z M75.063,50.542c-1.438-0.583-3.434,1.614-3.875,2.211  c-0.97,1.312-2.089,2.19-3.402,3.112c-2.525,1.771-1.354,5.674-2.682,8.157c-0.949,1.774-3.172,3.423-4.543,4.839  c-3.225,3.331-6.45,6.661-9.672,9.994c-2.816,2.913-5.458,5.559-7.371,9.202c-0.326,0.621-1.301,2.258-0.155,2.338  c4.201,0.292,2.421-0.554,2.717-1.13c1.131-2.205,1.234-4.115,2.949-5.894c3.07-3.186,6.149-6.363,9.227-9.542  c2.263-2.338,4.454-5.233,7.038-7.221c1.775-1.365,2.373-3.938,2.521-6.042c0.258-3.474,2.021-3.395,4.141-5.885  C72.431,54.123,77.274,51.44,75.063,50.542z M121.982,36.672c-2.879-0.574-9.065-2.797-11.561-3.523  c-2.742-1.087-13.714-2.996-18.267-3.211c-2.931,0.021-8.385,1.008-10.685,2.526c-2.379,1.617-5.366,4.216-8.492,5.444  c-1.924,0.708-4.306,1.342-6.01,2.884c-2.161,1.956-5.364,3.73-4.528,6.985c-2.529,0.382-6.169,0.582-7.983,1.57  c-0.774,0.483-3.583,3.736-1.374,4.673c0.582,0.132,1.084-2.612,1.931-3.15c1.178-0.907,5.18-0.995,7.492-1.283  c-0.347,1.171-2.275,2.006-3.034,2.922c-0.986,1.184-1.136,2.046-0.845,3.487c0.592,2.931-0.152,4.989-1.765,7.38  c-1.587,2.353-3.45,4.141-5.619,5.998c-0.907,0.777-4.317,2.661-4.472,4.022c-0.205,1.798,2.997,0.95,3.541,0.509  c1.439-1.167,1.574-2.695,2.97-3.915c2.172-1.896,4.225-3.775,5.889-6.07c1.626-2.242,2.171-4.659,1.828-7.406  c-0.06-0.477-0.197-1.661-0.016-2.141c0.55-1.456,1.51-1.919,2.495-2.994c0.521-0.569,1.537-1.36,1.599-2.131  c0.951-0.141,1.208-0.22,2.16-0.356c1.121-0.161,2.323-0.43,3.463-0.329c2.828,0.249,5.436,1.043,8.338,1.116  c3.295,0.083,5.665-1.669,7.895-3.997c0.892-0.942,1.682-2.012,2.319-3.056c1.941-0.154,4.069-0.599,5.991-1.221  c3.394-1.099,6.838-3.533,9.948-4.234c1.613-0.463,3.221-0.848,4.32-0.729c0.799,0.111,2.063-1.456,0.604-1.279  c-3.857-1.07-12.783,4.542-19.739,5.568c-0.034-0.438,6.989-7.056,9.419-7.213c2.487-0.069,7.646-0.019,9.138,0.821  c2.278,0.506,7.717,1.397,9.428,1.976c0.301,0.087,1.966,0.885,3.119,1.105C121.964,37.627,123.215,37.005,121.982,36.672   M83.777,46.125c-3.263,2.48-7.101,2.035-10.955,1.036c-1.709-0.443-3.214-0.407-4.948-0.173c-1.163,0.158-4.09,0.896-2.703-1.458  c0.846-1.434,1.582-2.11,2.798-3.215c1.318-1.198,2.133-0.941,3.856-0.741c4.633,0.537,13.983,1.12,13.983,1.12l1.189,0.197  C86.999,42.892,84.959,45.199,83.777,46.125 M99.743,32.206c-2.685,0.064-9.456,5.596-12.352,8.783  c-4.709-0.038-10.335-0.795-14.8-1.308c1.99-0.756,4.614-1.864,6.178-2.817c1.621-1.134,4.013-3.315,6.139-4.245  c4.199-1.958,12.676-1.185,15.988-0.4C100.469,32.221,100.035,32.209,99.743,32.206"
   id="path53" />
<linearGradient
   id="SVGID_3_"
   gradientUnits="userSpaceOnUse"
   x1="247.0645"
   y1="-195.5532"
   x2="339.8154"
   y2="-139.0527"
   gradientTransform="matrix(1 0 0 -1 -210 -109)">
	<stop
   offset="0"
   style="stop-color:#6E4822"
   id="stop56" />
	<stop
   offset="1"
   style="stop-color:#EDD798"
   id="stop58" />
</linearGradient>
<path
   fill="url(#SVGID_3_)"
   d="M40.543,83.245c1.552,0.493,3.856-3.337,4.52-4.394c1.896-3.021,2.57-6.433,0.98-9.758  c-0.729-1.525-1.563-2.799-1.012-4.541c0.601-1.901,1.811-3.524,2.833-5.208c1.747-3.122,3.955-6.284,5.721-8.046  c0.929-0.997-1.026-1.168-1.465-0.611c-1.192,1.395-2.401,2.935-3.491,4.226c-0.442,0.773-4.961,6.718-5.53,9.969  c-0.627,3.582,2.924,6.171,1.88,9.927c-0.542,1.951-1.967,3.971-3.042,5.279c-0.354,0.468-3.674,3.718-1.423,3.21 M44.914,82.532  c-0.982-2.008-5.712,3.095-6.249,3.733c-3.755,4.463-2.99,9.428-3.151,14.874c-1.526-4.93-4.139-8.537-3.551-13.889  c0.227-2.069,0.532-4.13,0.868-6.185c0.069-0.422,0.14-0.843,0.211-1.265c0.201-1.179-1.552-1.561-1.761-0.374  c-0.336,3.526-1.189,6.976-1.347,10.534c-0.184,2.75,1.238,5.605,2.33,8.043c0.94,2.101,2.447,4.538,1.417,6.886  c-0.65,1.482-4.456,12.008-2.262,11.709c0.982,0.049,0.819-1.796,1.56-2.521c0.768-0.831,2.888-3.304,3.473-5.455  c1.367-5.026,0.415-10.185,0.906-15.275c0.232-2.411,1.463-4.588,3.071-6.354C41.131,86.226,45.434,83.458,44.914,82.532   M33.482,110.876c0.411-1.724,0.857-3.249,1.643-4.827C34.884,107.675,34.548,109.561,33.482,110.876 M75.472,50.605  c-1.077-0.519-1.843,1.551-2.285,2.148c-0.97,1.312-2.089,2.19-3.402,3.112c-2.525,1.771-1.354,5.674-2.682,8.157  c-0.949,1.774-3.172,3.423-4.543,4.839c-3.225,3.331-6.45,6.661-9.672,9.994c-2.816,2.913-5.458,5.559-7.371,9.202  c-0.326,0.621-1.191,1.842-0.155,2.338c0.853,0.406,1.222-0.484,1.518-1.061c1.131-2.205,2.433-4.185,4.147-5.963  c3.07-3.186,6.149-6.363,9.227-9.542c2.263-2.338,4.454-5.233,7.038-7.221c1.775-1.365,2.373-3.938,2.521-6.042  c0.258-3.474,2.021-3.395,4.141-5.885C74.431,54.123,76.997,51.336,75.472,50.605 M123.982,36.672  c-2.879-0.574-9.065-2.797-11.561-3.523c-2.742-1.087-13.714-2.996-18.267-3.211c-2.931,0.021-8.385,1.008-10.685,2.526  c-2.379,1.617-5.366,4.216-8.492,5.444c-1.924,0.708-4.306,1.342-6.01,2.884c-2.161,1.956-5.364,3.73-4.528,6.985  c-2.529,0.382-6.169,0.582-7.983,1.57c-0.774,0.483-4.772,3.678-3.291,4.71c0.582,0.132,3-2.649,3.848-3.188  c1.178-0.907,5.18-0.995,7.492-1.283c-0.347,1.171-2.275,2.006-3.034,2.922c-0.986,1.184-1.136,2.046-0.845,3.487  c0.592,2.931-0.152,4.989-1.765,7.38c-1.587,2.353-3.45,4.141-5.619,5.998c-0.907,0.777-4.317,2.661-4.472,4.022  c-0.205,1.798,1.708,0.607,2.251,0.167c1.439-1.167,2.864-2.353,4.26-3.572c2.172-1.896,3.768-3.82,5.433-6.114  c1.626-2.242,2.162-4.621,1.819-7.368c-0.06-0.477-0.485-1.478-0.303-1.958c0.55-1.456,2.264-2.096,3.248-3.17  c0.521-0.569,0.842-1.296,0.904-2.067c0.951-0.141,1.902-0.283,2.854-0.419c1.121-0.161,2.323-0.43,3.463-0.329  c2.828,0.249,5.436,1.043,8.338,1.116c3.295,0.083,5.665-1.669,7.895-3.997c0.892-0.942,1.682-2.012,2.319-3.056  c1.941-0.154,4.069-0.599,5.991-1.221c3.393-1.099,6.838-3.533,9.946-4.234c1.615-0.463,3.222-0.848,4.32-0.729  c0.799,0.111,2.064-1.456,0.605-1.279c-3.857-1.07-12.783,4.542-19.739,5.568c-0.034-0.438,6.989-7.056,9.419-7.213  c2.487-0.069,7.645-0.019,9.139,0.821c2.277,0.506,7.717,1.397,9.426,1.976c0.302,0.087,1.967,0.885,3.119,1.105  C123.964,37.627,125.215,37.005,123.982,36.672 M85.777,46.125c-3.263,2.48-7.101,2.035-10.955,1.036  c-1.709-0.443-3.214-0.407-4.948-0.173c-1.163,0.158-5.041,1.217-3.654-1.136c0.846-1.434,2.533-2.432,3.749-3.536  c1.318-1.198,2.133-0.941,3.856-0.741c4.633,0.537,13.983,1.12,13.983,1.12l1.189,0.197C88.999,42.892,86.959,45.199,85.777,46.125   M101.743,32.206c-2.685,0.064-9.456,5.596-12.352,8.783c-4.709-0.038-10.335-0.795-14.8-1.308c1.99-0.756,4.614-1.864,6.178-2.817  c1.621-1.134,4.013-3.315,6.139-4.245c4.199-1.958,12.676-1.185,15.988-0.4C102.469,32.221,102.035,32.209,101.743,32.206"
   id="path60" />
<path
   fill="#623C1B"
   d="M170.186,75.167c-0.787-4.668-0.785-9.668-2.237-14.195c-1.778-5.535-6.296-8.466-11.767-9.547  c-1.586-0.314-3.646-0.693-5.57-1.333c0.875-2.071,1.285-5.207,0.857-6.272c-0.656-1.641-2.626-0.328-2.626-0.328  s0.431-2.184,0-2.625c-0.431-0.441-4.922,0.328-7.216,0.656c-0.143,0.021-0.33,0.041-0.561,0.061  c-1.351-1.268-2.709-2.485-3.764-3.639c-3.595-3.934-7.209-7.948-11.453-11.201c-7.939-6.081-18.529-5.724-28.113-5.591  c-9.54,0.131-19.144,2.019-27.859,6.739c-7.494,4.059-13.375,10.634-19.312,16.752c-6.559,6.758-12.693,14.379-16.002,23.295  c-3.654,10.46-6.934,21.125-8.707,32.083c-3.04,18.781-0.953,41.387,8.349,58.188c2.615,4.724,11.028,2.617,15.512,2.847  c3.803,0.195,7.619,1.666,11.276,2.61c11.396,2.94,23.179,5.847,35.022,4.677c9.824-0.971,23.227-2.975,31.055-9.594  c5.313-4.494,10.068-9.792,14.637-15.021c13.225-15.121,22.525-32.582,27.505-52.146C170.613,86.067,171.137,80.794,170.186,75.167z   M30.428,127.503c-2.63-20.06,2.082-40.758,9.903-59.323c3.375-8.011,9.459-14.986,15.118-21.458  C61,40.375,66.916,37.16,73.733,33.198c8.715-5.065,20.124-6.333,29.526-6.09c9.082,0.235,16.08,0.835,23.281,6.875  c2.927,2.453,5.644,5.151,8.312,7.927c-5.459,0.233-12.189,0.424-16.275,0.924c-4.02,0.492-14.271,5.413-18.535,7.71  c-4.265,2.296-15.009,6.807-17.634,8.777C79.783,61.29,70.842,66.538,67.89,69.82c-2.953,3.28-8.366,7.381-10.335,10.662  c-1.968,3.28-11.892,17.961-13.533,20.586s-5.111,14.775-6.315,16.731c-1.313,2.134-2.789,9.927-2.789,13.206  c0,2.076-0.135,10.039-0.328,15.337c-0.366-1.548-1.343-3.979-1.599-5.021C31.872,136.773,31.037,132.146,30.428,127.503z   M165.166,82.614c-0.965,4.977-2.559,14.125-4.346,18.858c-3.27,8.666-6.608,17.525-11.899,25.185  c-4.957,7.173-10.71,13.823-16.683,20.166c-4.459,4.733-9.396,8.543-14.809,11.167c-10.132,4.91-22.397,6.423-33.629,5.085  c-10.764-1.28-20.884-4.763-31.48-6.688c-2.49-0.438-5.083-0.311-7.599-0.272c-0.129,0.002-0.291,0.012-0.456,0.024  c0.252-3.705,1.07-15.174,1.887-21.44c0.984-7.546,2.625-12.468,6.891-19.356c4.264-6.889,6.888-16.404,9.186-20.998  c2.296-4.593,11.482-14.435,13.779-16.075c2.296-1.641,2.952-3.938,6.89-5.578c3.937-1.641,7.218-3.937,9.515-5.905  c2.296-1.968,3.937,0,8.857-2.953c4.92-2.953,15.748-9.187,18.699-9.187c2.953,0,14.107,0,16.733,0c1.739,0,5.63-1.149,8.637-1.927  c0.615,0.592,1.229,1.186,1.86,1.763c4.359,3.98,11.292,2.018,14.52,6.397c2.424,3.295,1.61,5.942,2.133,9.842  C164.536,75.841,166.158,77.472,165.166,82.614z"
   id="path62" />
<radialGradient
   id="SVGID_4_"
   cx="319.5"
   cy="-163.4995"
   r="113.7368"
   gradientTransform="matrix(1 0 0 -1 -210 -109)"
   gradientUnits="userSpaceOnUse">
	<stop
   offset="0"
   style="stop-color:#B77F45"
   id="stop65" />
	<stop
   offset="1"
   style="stop-color:#623C1B"
   id="stop67" />
</radialGradient>
<path
   fill="url(#SVGID_4_)"
   d="M171.186,75.017c-0.801-4.742-0.799-9.822-2.274-14.422c-1.808-5.624-6.396-8.602-11.955-9.701  c-1.61-0.318-3.704-0.703-5.659-1.353c0.891-2.104,1.305-5.291,0.871-6.374c-0.667-1.667-2.667-0.333-2.667-0.333  s0.438-2.218,0-2.667s-5,0.333-7.333,0.667c-0.143,0.021-0.333,0.041-0.564,0.061c-1.375-1.288-2.756-2.525-3.826-3.697  c-3.652-3.996-7.324-8.075-11.639-11.38c-8.066-6.179-18.824-5.816-28.563-5.682c-9.692,0.134-19.45,2.052-28.305,6.848  c-7.614,4.124-13.589,10.805-19.622,17.021c-6.664,6.867-12.896,14.61-16.258,23.669c-3.714,10.628-7.045,21.463-8.847,32.598  c-3.088,19.08-0.968,42.047,8.482,59.117c2.658,4.801,11.205,2.66,15.76,2.895c3.864,0.197,7.74,1.691,11.457,2.65  c11.577,2.989,23.549,5.939,35.583,4.752c9.98-0.985,23.6-3.021,31.552-9.746c5.399-4.567,10.229-9.949,14.872-15.262  c13.436-15.363,22.887-33.104,27.943-52.983C171.621,86.091,172.15,80.734,171.186,75.017z M29.188,128.189  c-2.673-20.379,2.114-41.41,10.062-60.272c3.429-8.14,9.611-15.226,15.36-21.801c5.64-6.449,11.651-9.716,18.577-13.741  c8.854-5.146,20.446-6.434,30-6.188c9.227,0.238,16.336,0.849,23.653,6.985c2.974,2.492,5.732,5.234,8.445,8.054  c-5.548,0.238-12.386,0.431-16.537,0.939c-4.083,0.5-14.5,5.5-18.833,7.833s-15.25,6.917-17.917,8.917S70.25,66.25,67.25,69.583  s-8.5,7.5-10.5,10.833S44.667,98.667,43,101.334c-1.667,2.666-5.194,15.012-6.417,16.999c-1.333,2.167-2.833,10.084-2.833,13.417  c0,2.109-0.137,10.201-0.333,15.583c-0.373-1.572-1.365-4.044-1.625-5.101C30.655,137.609,29.808,132.91,29.188,128.189z   M166.083,82.583c-0.978,5.057-2.599,14.351-4.412,19.161c-3.321,8.805-6.716,17.807-12.092,25.587  c-5.036,7.288-10.882,14.047-16.95,20.489c-4.529,4.809-9.545,8.68-15.045,11.346c-10.293,4.988-22.756,6.525-34.167,5.167  c-10.937-1.301-21.218-4.839-31.984-6.796c-2.531-0.445-5.164-0.316-7.721-0.277c-0.131,0.002-0.295,0.014-0.463,0.025  c0.257-3.766,1.087-15.417,1.918-21.785c1-7.666,2.667-12.666,7-19.666s7-16.668,9.333-21.334c2.333-4.667,11.667-14.666,14-16.333  s3-4,7-5.667s7.334-4,9.667-6s4,0,9-3s16-9.333,19-9.333s14.333,0,17,0c1.767,0,5.722-1.168,8.776-1.958  c0.625,0.601,1.246,1.205,1.89,1.791c4.431,4.044,11.474,2.05,14.75,6.5c2.465,3.347,1.64,6.037,2.167,10  C165.443,75.702,167.093,77.359,166.083,82.583z"
   id="path69" />
<g
   id="g71">
	<path
   fill="#623C1B"
   d="M36.737,157.664l-0.341-0.816l-1-2.375l-0.021-0.049v-0.054c0.011-0.761,0.255-18.677,0.754-21.292   c0.137-0.714,0.3-1.699,0.484-2.809c0.505-3.027,1.132-6.795,1.774-8.724c0.472-1.418,2.333-5.644,4.134-9.729   c1.559-3.539,3.033-6.883,3.495-8.151c1.019-2.806,9.512-16.795,11.926-19.338c0.65-0.683,1.729-1.96,2.977-3.438   c3.445-4.081,8.165-9.668,10.829-11.229c3.502-2.056,11.779-6.786,16.441-9.38c1.476-0.817,3.178-1.826,4.979-2.892   c3.686-2.184,7.497-4.44,9.865-5.37c1.066-0.42,2.648-1.149,4.328-1.919c4.048-1.863,8.638-3.975,10.513-3.975   c1.549,0,5.449-0.132,8.583-0.238c2.161-0.072,4.029-0.137,4.542-0.137c0.231,0,0.617,0.017,1.104,0.04   c0.828,0.037,1.963,0.087,3.138,0.087c2.321,0,3.932-0.203,4.778-0.6c2.106-0.992,9.438-3.977,9.51-4.008l0.119-0.047l0.107,0.068   c0.176,0.107,0.264,0.29,0.24,0.497c-0.126,1.277-5.045,4.437-8.411,5.699c-2.64,0.988-5.763,1.07-9.003,1.07h-0.592l-0.559-0.002   c-1.188,0-2.162,0.013-3.043,0.07c-0.598,0.042-1.203,0.07-1.822,0.102c-3.192,0.162-6.811,0.342-10.976,2.008   c-3.069,1.228-8.905,4.169-13.595,6.533c-3.02,1.521-5.625,2.836-7.022,3.461c-3.615,1.621-17.079,9.728-19.812,12.086   l-0.366,0.316c-2.863,2.472-9.566,8.26-11.231,10.281c-1.747,2.122-5.811,8.987-7.478,11.841   c-1.954,3.353-13.997,26.796-14.721,30.054c-0.771,3.469-3.249,17.916-3.493,22.209c-0.249,4.336-0.996,9.227-1.004,9.273   L36.737,157.664L36.737,157.664z"
   id="path73" />
	<path
   fill="#BC9964"
   d="M149.625,41.5c1,0.625-4.125,4.25-8.125,5.75c-2.667,1-5.945,1.056-8.945,1.056c-0.188,0-0.373,0-0.559,0   s-0.371,0-0.555,0c-1.092,0-2.131,0.008-3.066,0.07c-3.75,0.25-7.875,0.125-12.875,2.125s-17,8.375-20.625,10   S77.75,70.25,75,72.625s-9.875,8.5-11.625,10.625s-5.75,8.875-7.5,11.875s-14,26.75-14.75,30.125s-3.25,17.875-3.5,22.25   s-1,9.25-1,9.25l-1-2.375c0,0,0.25-18.625,0.75-21.25s1.375-8.875,2.25-11.5S45.25,106.5,46.25,103.75S55.75,87,58.125,84.5   S68.25,72,71.875,69.875S83.813,63,88.313,60.5s11.313-6.875,14.813-8.25s12.125-5.875,14.75-5.875S129.75,46,131,46   c0.625,0,2.375,0.125,4.234,0.125c1.858,0,3.828-0.125,4.891-0.625C142.25,44.5,149.625,41.5,149.625,41.5 M149.674,40.94   l-0.236,0.097c-0.303,0.123-7.412,3.016-9.524,4.01c-0.813,0.383-2.388,0.578-4.679,0.578c-1.166,0-2.295-0.05-3.119-0.086   c-0.491-0.021-0.881-0.039-1.114-0.039c-0.519,0-2.39,0.063-4.554,0.137c-3.131,0.106-7.026,0.238-8.571,0.238   c-1.931,0-6.549,2.124-10.624,3.999c-1.672,0.769-3.251,1.496-4.309,1.911c-2.393,0.939-6.219,3.206-9.918,5.397   c-1.793,1.062-3.487,2.065-4.955,2.881c-4.586,2.547-12.877,7.288-16.448,9.381c-2.701,1.583-7.438,7.191-10.896,11.287   c-1.245,1.475-2.321,2.748-2.964,3.425c-2.425,2.552-10.958,16.604-11.982,19.423c-0.459,1.262-1.931,4.604-3.49,8.142   c-1.801,4.09-3.664,8.318-4.14,9.746c-0.647,1.941-1.275,5.713-1.779,8.742c-0.188,1.131-0.351,2.107-0.487,2.822   c-0.502,2.638-0.749,20.574-0.759,21.337l-0.001,0.104l0.041,0.096l1,2.375l0.687,1.63l0.269-1.747   c0.008-0.049,0.756-4.949,1.005-9.299c0.245-4.279,2.719-18.704,3.489-22.17c0.72-3.241,12.741-26.635,14.694-29.98   c1.658-2.843,5.704-9.685,7.454-11.809c1.653-2.007,8.354-7.792,11.215-10.261l0.351-0.303   c2.723-2.352,16.147-10.431,19.753-12.047c1.403-0.629,4.012-1.944,7.035-3.468c4.684-2.361,10.513-5.3,13.57-6.524   c4.127-1.651,7.724-1.831,10.896-1.989c0.62-0.031,1.229-0.061,1.828-0.101c0.958-0.064,2.022-0.069,3.034-0.069h0.554h0.077h0.48   c3.278,0,6.443-0.083,9.121-1.087c3.198-1.2,8.42-4.39,8.571-5.908c0.03-0.306-0.101-0.573-0.356-0.734L149.674,40.94   L149.674,40.94z"
   id="path75" />
</g>
<radialGradient
   id="SVGID_5_"
   cx="340.7217"
   cy="-150.2119"
   r="151.0815"
   gradientTransform="matrix(1 0 0 -1 -210 -109)"
   gradientUnits="userSpaceOnUse">
	<stop
   offset="0"
   style="stop-color:#A16D3A"
   id="stop78" />
	<stop
   offset="0.4873"
   style="stop-color:#EECE87"
   id="stop80" />
	<stop
   offset="1"
   style="stop-color:#6D451F"
   id="stop82" />
</radialGradient>
<path
   fill="url(#SVGID_5_)"
   d="M36.813,158.813c0.477,0.254,0.313-1.438,0.75-3.375c0.499-2.207,0.354-6.021,0.354-13.021  s0.75-16.5,4-23.75s15.333-29,17.083-31.75s10.543-12.36,14.25-14.667c3.75-2.333,13.313-9,19.563-11.75  c6.25-2.75,22.604-11.5,27.104-11.917C122.904,48.307,130.5,45,134.5,45.25s0.5-5,0.5-5l0,0c0,0-14.25,0-17.5,1.5S106.25,45,104,46  s-3,3.75-5.5,4.25s-8.25,2.75-11.5,5s-15.5,10.25-17.75,12s-8.25,7-10,8.75s-8,11.75-9.5,14s-5.75,9.5-7.5,11s-2.75,9.5-4.25,12.25  s-5,13.25-5,15s0.167,18.834,0.5,21s2.375,8.688,2.625,9S36.813,158.813,36.813,158.813z"
   id="path84" />
<g
   id="g3090"
   transform="matrix(0.85267857,0,0,0.85267857,162.9977,-31.950364)"><polygon
     id="polygon6"
     points="74.633,100.62 437.367,100.62 404.321,470.819 255.778,512 107.644,470.877 "
     style="fill:#e44d26"
     transform="matrix(0.23728814,0,0,0.23728814,14.12737,280.13559)" /><polygon
     id="polygon8"
     points="256,130.894 256,480.523 376.03,447.246 404.27,130.894 "
     style="fill:#f16529"
     transform="matrix(0.23728814,0,0,0.23728814,14.12737,280.13559)" /><polygon
     id="polygon10"
     points="195.91,268.217 191.76,221.716 256,221.716 256,176.305 255.843,176.305 142.132,176.305 143.219,188.488 154.38,313.627 256,313.627 256,268.217 "
     style="fill:#ebebeb"
     transform="matrix(0.23728814,0,0,0.23728814,14.12737,280.13559)" /><polygon
     id="polygon12"
     points="205.227,372.55 201.994,336.333 177.419,336.333 156.409,336.333 162.771,407.634 255.791,433.457 256,433.399 256,386.153 255.801,386.206 "
     style="fill:#ebebeb"
     transform="matrix(0.23728814,0,0,0.23728814,14.12737,280.13559)" /><path
     id="path14"
     d="m 39.845133,280.13559 h 5.475898 v 5.41017 h 5.009153 v -5.41017 h 5.476135 v 16.38333 h -5.475898 v -5.48611 h -5.009153 v 5.48611 H 39.84537 v -16.38333 z"
     inkscape:connector-curvature="0" /><path
     id="path16-9"
     d="m 63.007302,285.56854 h -4.820746 v -5.43295 h 15.120001 v 5.43295 h -4.822881 v 10.95038 h -5.476137 v -10.95038 z"
     inkscape:connector-curvature="0" /><path
     id="path18"
     d="m 75.706252,280.13559 h 5.709864 l 3.512339,5.75661 3.50878,-5.75661 h 5.712 v 16.38333 h -5.453356 v -8.12048 l -3.767424,5.82519 h -0.0942 l -3.770034,-5.82519 v 8.12048 h -5.357966 v -16.38333 z"
     inkscape:connector-curvature="0" /><path
     id="path20"
     d="m 96.874489,280.13559 h 5.477561 v 10.96794 h 7.70071 v 5.41539 H 96.874489 v -16.38333 z"
     inkscape:connector-curvature="0" /><polygon
     id="polygon22"
     points="255.843,268.217 255.843,313.627 311.761,313.627 306.49,372.521 255.843,386.191 255.843,433.435 348.937,407.634 349.62,399.962 360.291,280.411 361.399,268.217 349.162,268.217 "
     style="fill:#ffffff"
     transform="matrix(0.23728814,0,0,0.23728814,14.12737,280.13559)" /><polygon
     id="polygon24"
     points="255.843,204.509 255.843,221.605 255.843,221.716 365.385,221.716 365.385,221.716 365.531,221.716 366.442,211.509 368.511,188.488 369.597,176.305 255.843,176.305 "
     style="fill:#ffffff"
     transform="matrix(0.23728814,0,0,0.23728814,14.12737,280.13559)" /></g></svg>