<?xml version="1.0" encoding="UTF-8" standalone="no"?><!DOCTYPE svg PUBLIC "-//W3C//DTD SVG 1.1//EN" "http://www.w3.org/Graphics/SVG/1.1/DTD/svg11.dtd"><svg width="100%" height="100%" viewBox="0 0 50 50" version="1.1" xmlns="http://www.w3.org/2000/svg" xmlns:xlink="http://www.w3.org/1999/xlink" xml:space="preserve" xmlns:serif="http://www.serif.com/" style="fill-rule:evenodd;clip-rule:evenodd;stroke-linejoin:round;stroke-miterlimit:2;"><path d="M8.932,35.781c-1.392,-1.841 -2.4,-3.912 -3.001,-6.153c-0.6,-2.241 -0.762,-4.539 -0.477,-6.829c0.295,-2.375 1.058,-4.634 2.263,-6.722c1.206,-2.088 2.781,-3.878 4.687,-5.316c1.841,-1.392 3.912,-2.401 6.153,-3.001c2.241,-0.601 4.538,-0.763 6.829,-0.478c2.37,0.292 4.629,1.056 6.717,2.261c2.088,1.205 3.878,2.78 5.316,4.687c1.39,1.837 2.409,3.927 3.001,6.153c0.19,0.709 0.337,1.425 0.439,2.141l-3.653,0.513c-0.137,0.019 -0.258,0.1 -0.327,0.219c-0.103,0.178 -0.07,0.405 0.078,0.546l6.734,6.44c0.208,0.197 0.551,0.15 0.693,-0.096l4.699,-8.048c0.186,-0.324 -0.08,-0.723 -0.448,-0.665l-3.356,0.466c-0.926,-6.566 -4.755,-12.656 -10.941,-16.227c-10.676,-6.164 -24.292,-2.523 -30.47,8.144c-4.536,7.831 -3.784,17.267 1.15,24.176" style="fill-rule:nonzero;"/></svg>