<?xml version="1.0" encoding="UTF-8" standalone="no"?>
<!DOCTYPE svg PUBLIC "-//W3C//DTD SVG 1.1//EN" "http://www.w3.org/Graphics/SVG/1.1/DTD/svg11.dtd">
<svg width="100%" height="100%" viewBox="0 0 1025 1025" version="1.1" xmlns="http://www.w3.org/2000/svg" xmlns:xlink="http://www.w3.org/1999/xlink" xml:space="preserve" xmlns:serif="http://www.serif.com/" style="fill-rule:evenodd;clip-rule:evenodd;stroke-linecap:round;stroke-linejoin:round;stroke-miterlimit:1.4;">
    <g transform="matrix(1,0,0,1,-1283,-5060)">
        <g id="icon-quick-select" transform="matrix(1,0,0,1,1283.38,5060.19)">
            <rect x="0" y="0" width="1024" height="1024" style="fill:none;"/>
            <g transform="matrix(1.1729,0,0,1.1729,-1590.46,-6060.09)">
                <path d="M1867.73,5525.83C1862.14,5465.03 1766.3,5328.73 1664.53,5412.19C1601.27,5464.07 1587.99,5642.47 1664.53,5732.19C1739.81,5820.44 1955.02,5866.3 1984.53,5796.19C2033.36,5680.19 1880.81,5668.04 1867.73,5525.83Z" style="fill:none;stroke:rgb(241,241,241);stroke-width:61.39px;"/>
            </g>
            <g transform="matrix(1.00184,0,0,1.00184,-1315.89,-5070.46)">
                <path d="M2235.2,5160.12C2215.37,5160.12 2199.26,5144.02 2199.26,5124.19C2199.26,5104.36 2215.37,5088.26 2235.2,5088.26L2272.53,5088.26C2292.38,5088.26 2308.46,5104.35 2308.46,5124.19L2308.46,5161.52C2308.46,5181.36 2292.36,5197.46 2272.53,5197.46C2252.7,5197.46 2236.6,5181.36 2236.6,5161.52L2236.6,5160.12L2235.2,5160.12ZM2236.6,5310.86C2236.6,5291.03 2252.7,5274.92 2272.53,5274.92C2292.36,5274.92 2308.46,5291.03 2308.46,5310.86L2308.46,5385.53C2308.46,5405.36 2292.36,5421.46 2272.53,5421.46C2252.7,5421.46 2236.6,5405.36 2236.6,5385.53L2236.6,5310.86ZM2236.6,5534.86C2236.6,5515.03 2252.7,5498.92 2272.53,5498.92C2292.36,5498.92 2308.46,5515.03 2308.46,5534.86L2308.46,5609.53C2308.46,5629.36 2292.36,5645.46 2272.53,5645.46C2252.7,5645.46 2236.6,5629.36 2236.6,5609.53L2236.6,5534.86ZM2236.6,5758.86C2236.6,5739.03 2252.7,5722.93 2272.53,5722.93C2292.36,5722.93 2308.46,5739.03 2308.46,5758.86L2308.46,5833.53C2308.46,5853.36 2292.36,5869.46 2272.53,5869.46C2252.7,5869.46 2236.6,5853.36 2236.6,5833.53L2236.6,5758.86ZM2236.6,5982.86C2236.6,5963.03 2252.7,5946.92 2272.53,5946.92C2292.36,5946.92 2308.46,5963.03 2308.46,5982.86L2308.46,6020.19C2308.46,6040.04 2292.38,6056.12 2272.53,6056.12L2235.2,6056.12C2215.37,6056.12 2199.26,6040.02 2199.26,6020.19C2199.26,6000.36 2215.37,5984.26 2235.2,5984.26L2236.6,5984.26L2236.6,5982.86ZM2085.86,5984.26C2105.7,5984.26 2121.8,6000.36 2121.8,6020.19C2121.8,6040.02 2105.7,6056.12 2085.86,6056.12L2011.2,6056.12C1991.36,6056.12 1975.26,6040.02 1975.26,6020.19C1975.26,6000.36 1991.36,5984.26 2011.2,5984.26L2085.86,5984.26ZM1861.86,5984.26C1881.7,5984.26 1897.8,6000.36 1897.8,6020.19C1897.8,6040.02 1881.7,6056.12 1861.86,6056.12L1787.2,6056.12C1767.36,6056.12 1751.26,6040.02 1751.26,6020.19C1751.26,6000.36 1767.36,5984.26 1787.2,5984.26L1861.86,5984.26ZM1637.86,5984.26C1657.69,5984.26 1673.8,6000.36 1673.8,6020.19C1673.8,6040.02 1657.69,6056.12 1637.86,6056.12L1563.2,6056.12C1543.36,6056.12 1527.26,6040.02 1527.26,6020.19C1527.26,6000.36 1543.36,5984.26 1563.2,5984.26L1637.86,5984.26ZM1413.86,5984.26C1433.7,5984.26 1449.8,6000.36 1449.8,6020.19C1449.8,6040.02 1433.7,6056.12 1413.86,6056.12L1376.53,6056.12C1356.68,6056.12 1340.6,6040.04 1340.6,6020.19L1340.6,5982.86C1340.6,5963.03 1356.7,5946.92 1376.53,5946.92C1396.36,5946.92 1412.46,5963.03 1412.46,5982.86L1412.46,5984.26L1413.86,5984.26ZM1412.46,5833.52C1412.46,5853.36 1396.36,5869.46 1376.53,5869.46C1356.7,5869.46 1340.6,5853.36 1340.6,5833.52L1340.6,5758.86C1340.6,5739.02 1356.7,5722.92 1376.53,5722.92C1396.36,5722.92 1412.46,5739.02 1412.46,5758.86L1412.46,5833.52ZM1412.46,5609.52C1412.46,5629.36 1396.36,5645.46 1376.53,5645.46C1356.7,5645.46 1340.6,5629.36 1340.6,5609.52L1340.6,5534.86C1340.6,5515.02 1356.7,5498.92 1376.53,5498.92C1396.36,5498.92 1412.46,5515.02 1412.46,5534.86L1412.46,5609.52ZM1412.46,5385.52C1412.46,5405.36 1396.36,5421.46 1376.53,5421.46C1356.7,5421.46 1340.6,5405.36 1340.6,5385.52L1340.6,5310.86C1340.6,5291.02 1356.7,5274.92 1376.53,5274.92C1396.36,5274.92 1412.46,5291.02 1412.46,5310.86L1412.46,5385.52ZM1412.46,5161.52C1412.46,5181.36 1396.36,5197.46 1376.53,5197.46C1356.7,5197.46 1340.6,5181.36 1340.6,5161.52L1340.6,5124.19C1340.6,5104.35 1356.68,5088.26 1376.53,5088.26L1413.86,5088.26C1433.7,5088.26 1449.8,5104.36 1449.8,5124.19C1449.8,5144.02 1433.7,5160.12 1413.86,5160.12L1412.46,5160.12L1412.46,5161.52ZM1563.2,5160.12C1543.37,5160.12 1527.26,5144.02 1527.26,5124.19C1527.26,5104.36 1543.37,5088.26 1563.2,5088.26L1637.87,5088.26C1657.7,5088.26 1673.8,5104.36 1673.8,5124.19C1673.8,5144.02 1657.7,5160.12 1637.87,5160.12L1563.2,5160.12ZM1787.2,5160.12C1767.37,5160.12 1751.26,5144.02 1751.26,5124.19C1751.26,5104.36 1767.37,5088.26 1787.2,5088.26L1861.86,5088.26C1881.7,5088.26 1897.8,5104.36 1897.8,5124.19C1897.8,5144.02 1881.7,5160.12 1861.86,5160.12L1787.2,5160.12ZM2011.2,5160.12C1991.37,5160.12 1975.26,5144.02 1975.26,5124.19C1975.26,5104.36 1991.37,5088.26 2011.2,5088.26L2085.87,5088.26C2105.7,5088.26 2121.8,5104.36 2121.8,5124.19C2121.8,5144.02 2105.7,5160.12 2085.87,5160.12L2011.2,5160.12Z" style="fill:rgb(241,241,241);"/>
            </g>
        </g>
    </g>
</svg>
