<?xml version="1.0" encoding="UTF-8" standalone="no"?>
<!DOCTYPE svg PUBLIC "-//W3C//DTD SVG 1.1//EN" "http://www.w3.org/Graphics/SVG/1.1/DTD/svg11.dtd">
<svg width="100%" height="100%" viewBox="0 0 1024 1024" version="1.1" xmlns="http://www.w3.org/2000/svg" xmlns:xlink="http://www.w3.org/1999/xlink" xml:space="preserve" xmlns:serif="http://www.serif.com/" style="fill-rule:evenodd;clip-rule:evenodd;stroke-linecap:round;stroke-linejoin:round;stroke-miterlimit:1.4;">
    <g transform="matrix(1,0,0,1,-15309,0)">
        <g id="icon-orthographic" transform="matrix(1,0,0,1,116.031,1.13687e-13)">
            <rect x="15193" y="0" width="1024" height="1024" style="fill:none;"/>
            <g transform="matrix(1.00367,-0.237026,0.296567,0.987719,-190.782,3589.96)">
                <path d="M15356.5,319.324L15655,617.867" style="fill:none;stroke:currentColor;stroke-width:67.82px;"/>
            </g>
            <g transform="matrix(1.00367,-0.237026,0.296567,0.987719,-190.782,3949.3)">
                <path d="M15356.5,319.324L15655,617.867" style="fill:none;stroke:currentColor;stroke-width:67.82px;"/>
            </g>
            <g transform="matrix(1,0,0,1,-57.3237,20.9969)">
                <path d="M15762.3,820.328L15762.3,468.608" style="fill:none;stroke:currentColor;stroke-width:72px;"/>
            </g>
            <g transform="matrix(1,0,0,1,-57.3237,20.9969)">
                <path d="M15489.2,670.272L15489.2,310.74" style="fill:none;stroke:currentColor;stroke-width:72px;"/>
            </g>
            <g transform="matrix(-1.00367,-0.237026,-0.296567,0.987719,31600.7,3589.96)">
                <path d="M15356.5,319.324L15655,617.867" style="fill:none;stroke:currentColor;stroke-width:67.82px;"/>
            </g>
            <g transform="matrix(-1.00367,-0.237026,-0.296567,0.987719,31600.7,3949.3)">
                <path d="M15356.5,319.324L15655,617.867" style="fill:none;stroke:currentColor;stroke-width:67.82px;"/>
            </g>
            <g transform="matrix(-1,0,0,1,31467.3,20.9969)">
                <path d="M15489.2,670.272L15489.2,310.74" style="fill:none;stroke:currentColor;stroke-width:72px;"/>
            </g>
            <g transform="matrix(0.781964,0.365029,-0.0748577,0.859716,3346.85,-5589.3)">
                <path d="M15488.9,310.74L15803.6,-3.969" style="fill:none;stroke:currentColor;stroke-width:72px;"/>
            </g>
            <g transform="matrix(0.0775951,0.861296,-0.784702,0.363449,14748.7,-13278.4)">
                <path d="M15488.9,310.74L15803.6,-3.969" style="fill:none;stroke:currentColor;stroke-width:72px;"/>
            </g>
        </g>
    </g>
</svg>
