<?xml version="1.0" encoding="UTF-8" standalone="no"?>
<!DOCTYPE svg PUBLIC "-//W3C//DTD SVG 1.1//EN" "http://www.w3.org/Graphics/SVG/1.1/DTD/svg11.dtd">
<svg width="100%" height="100%" viewBox="0 0 1025 1025" version="1.1" xmlns="http://www.w3.org/2000/svg" xmlns:xlink="http://www.w3.org/1999/xlink" xml:space="preserve" xmlns:serif="http://www.serif.com/" style="fill-rule:evenodd;clip-rule:evenodd;stroke-linecap:round;stroke-linejoin:round;stroke-miterlimit:1.4;">
    <g transform="matrix(1,0,0,1,-14114,-1249)">
        <g id="icon-flip" transform="matrix(1,0,0,1,14114,1249.47)">
            <rect x="0" y="0" width="1024" height="1024" style="fill:none;"/>
            <g transform="matrix(1,0,0,0.918995,-14114,36.8352)">
                <path d="M14590,40.28C14590,18.66 14606.2,1.107 14626,1.107C14645.9,1.107 14662,18.66 14662,40.28L14662,79.705C14662,101.325 14645.9,118.878 14626,118.878C14606.2,118.878 14590,101.325 14590,79.705L14590,40.28ZM14590,237.403C14590,215.783 14606.2,198.23 14626,198.23C14645.9,198.23 14662,215.783 14662,237.403L14662,316.253C14662,337.873 14645.9,355.426 14626,355.426C14606.2,355.426 14590,337.873 14590,316.253L14590,237.403ZM14590,473.951C14590,452.33 14606.2,434.777 14626,434.777C14645.9,434.777 14662,452.33 14662,473.951L14662,552.8C14662,574.421 14645.9,591.974 14626,591.974C14606.2,591.974 14590,574.421 14590,552.8L14590,473.951ZM14590,710.499C14590,688.879 14606.2,671.326 14626,671.326C14645.9,671.326 14662,688.879 14662,710.499L14662,789.348C14662,810.969 14645.9,828.522 14626,828.522C14606.2,828.522 14590,810.969 14590,789.348L14590,710.499ZM14590,947.045C14590,925.425 14606.2,907.872 14626,907.872C14645.9,907.872 14662,925.425 14662,947.045L14662,986.47C14662,1008.09 14645.9,1025.64 14626,1025.64C14606.2,1025.64 14590,1008.09 14590,986.47L14590,947.045Z"/>
            </g>
            <g transform="matrix(1,0,0,1,-14114,-1249.47)">
                <path d="M14754,1465.71L14754,2043.97L15054,2043.97L14754,1465.71Z" style="fill:none;stroke:black;stroke-width:72px;"/>
            </g>
            <g transform="matrix(-1,0,0,1,15138,-1249.47)">
                <path d="M14754,1465.71L14754,2043.97L15054,2043.97L14754,1465.71Z" style="stroke:black;stroke-width:72px;"/>
            </g>
        </g>
    </g>
</svg>
