<?xml version="1.0" encoding="UTF-8" standalone="no"?>
<svg
   xmlns:osb="http://www.openswatchbook.org/uri/2009/osb"
   xmlns:dc="http://purl.org/dc/elements/1.1/"
   xmlns:cc="http://creativecommons.org/ns#"
   xmlns:rdf="http://www.w3.org/1999/02/22-rdf-syntax-ns#"
   xmlns:svg="http://www.w3.org/2000/svg"
   xmlns="http://www.w3.org/2000/svg"
   xmlns:sodipodi="http://sodipodi.sourceforge.net/DTD/sodipodi-0.dtd"
   xmlns:inkscape="http://www.inkscape.org/namespaces/inkscape"
   version="1.1"
   id="mdi-table-merge-cells"
   width="24"
   height="24"
   viewBox="0 0 24 24"
   sodipodi:docname="merger-mode-icon.svg"
   inkscape:version="0.92.5 (2060ec1f9f, 2020-04-08)">
  <metadata
     id="metadata9">
    <rdf:RDF>
      <cc:Work
         rdf:about="">
        <dc:format>image/svg+xml</dc:format>
        <dc:type
           rdf:resource="http://purl.org/dc/dcmitype/StillImage" />
        <dc:title />
      </cc:Work>
    </rdf:RDF>
  </metadata>
  <defs
     id="defs7">
    <linearGradient
       id="linearGradient4579"
       osb:paint="solid">
      <stop
         style="stop-color:#006466;stop-opacity:1;"
         offset="0"
         id="stop4577" />
    </linearGradient>
  </defs>
  <sodipodi:namedview
     pagecolor="#ffffff"
     bordercolor="#666666"
     borderopacity="1"
     objecttolerance="10"
     gridtolerance="10"
     guidetolerance="10"
     inkscape:pageopacity="0"
     inkscape:pageshadow="2"
     inkscape:window-width="1920"
     inkscape:window-height="1029"
     id="namedview5"
     showgrid="false"
     inkscape:zoom="22.627417"
     inkscape:cx="-0.16597819"
     inkscape:cy="10.051078"
     inkscape:window-x="0"
     inkscape:window-y="27"
     inkscape:window-maximized="1"
     inkscape:current-layer="mdi-table-merge-cells" />
  <path
     style="fill:#f1f1f1;fill-opacity:1;stroke:#f1f1f1;stroke-width:0.1;stroke-linecap:butt;stroke-linejoin:miter;stroke-miterlimit:4;stroke-dasharray:none;stroke-opacity:1"
     d="M 25.853516 -2.4277344 L -5.2597656 -2.3398438 L -4.7734375 26.474609 L 1.3691406 23.337891 L 3.4472656 22.894531 L 6.1425781 19.800781 C 6.1425781 19.800781 7.3807838 16.664138 8.0878906 15.957031 C 8.7949974 15.249925 10.38492 14.189298 11.224609 13.349609 C 12.064298 12.50992 13.390282 12.420495 14.318359 11.625 C 15.246437 10.829505 15.733379 10.123084 15.910156 9.7695312 C 16.086932 9.4159779 17.015357 6.7639397 17.236328 6.5429688 C 17.457299 6.3219979 18.339805 3.9793188 18.693359 3.3164062 C 19.046912 2.6534935 20.019723 2.3449753 20.505859 2.3007812 C 20.991995 2.2565872 22.494141 1.6386719 22.494141 1.6386719 L 25.853516 -2.4277344 z M 4.4082031 1.2578125 L 9.5039062 6.3554688 L 12.412109 3.4453125 L 12.392578 12.617188 L 3.2265625 12.636719 L 6.1347656 9.7265625 L 1.0410156 4.6289062 L 4.4082031 1.2578125 z "
     id="path832" />
  <g
     id="g4546"
     transform="matrix(0.65705547,0.65705547,-0.65705547,0.65705547,16.48357,-5.0206954)"
     style="fill:#f1f1f1;fill-opacity:1;stroke:#f1f1f1;stroke-opacity:1">
    <rect
       transform="matrix(-1,8.2628831e-5,2.2257603e-5,-1,0,0)"
       y="-19.10181"
       x="-25.031132"
       height="5.1302695"
       width="10.126259"
       id="rect834-6"
       style="fill:#f1f1f1;fill-opacity:1;stroke:#f1f1f1;stroke-width:0.19957511;stroke-miterlimit:4;stroke-dasharray:none;stroke-opacity:1" />
    <path
       inkscape:connector-curvature="0"
       id="rect844-7"
       d="m 17.27181,9.5398783 -6.964048,6.9954507 6.963436,6.994865 z"
       style="fill:#f1f1f1;fill-opacity:1;stroke:#f1f1f1;stroke-width:0.19863643;stroke-miterlimit:4;stroke-dasharray:none;stroke-opacity:1" />
  </g>
</svg>
