<?xml version="1.0" encoding="UTF-8" standalone="no"?>
<!DOCTYPE svg PUBLIC "-//W3C//DTD SVG 1.1//EN" "http://www.w3.org/Graphics/SVG/1.1/DTD/svg11.dtd">
<svg width="100%" height="100%" viewBox="0 0 1025 1025" version="1.1" xmlns="http://www.w3.org/2000/svg" xmlns:xlink="http://www.w3.org/1999/xlink" xml:space="preserve" xmlns:serif="http://www.serif.com/" style="fill-rule:evenodd;clip-rule:evenodd;stroke-linecap:round;stroke-linejoin:round;stroke-miterlimit:1.4;">
    <g transform="matrix(1,0,0,1,-1312,-3793)">
        <g id="Fill" transform="matrix(1,0,0,1,1312.53,3793.99)">
            <rect x="0" y="0" width="1024" height="1024" style="fill:none;"/>
            <g transform="matrix(0.657548,-0.657548,0.657548,0.657548,-3475.91,-1122.42)">
                <path d="M2048.53,4017.99L2048.53,4469.59C2048.53,4485.61 2042.17,4500.97 2030.84,4512.3C2019.51,4523.62 2004.15,4529.99 1988.13,4529.99C1902.47,4529.99 1746.59,4529.99 1660.93,4529.99C1644.91,4529.99 1629.55,4523.62 1618.22,4512.3C1606.89,4500.97 1600.53,4485.61 1600.53,4469.59L1600.53,4017.99L2048.53,4017.99Z" style="fill:none;stroke:rgb(241,241,241);stroke-width:77.43px;"/>
            </g>
            <g transform="matrix(0.78405,0,0,0.929913,-889.889,-3469.19)">
                <path d="M1548.14,4346.38L2138.07,4346.38" style="fill:none;stroke:rgb(241,241,241);stroke-width:83.71px;"/>
            </g>
            <g transform="matrix(0.261049,-0.261049,0.657548,0.657548,-2703.39,-2061.98)">
                <path d="M1548.14,4346.38L2138.07,4346.38" style="fill:none;stroke:rgb(241,241,241);stroke-width:101.77px;"/>
            </g>
            <g transform="matrix(0.929913,0,0,0.929913,-1180.55,-3469.76)">
                <path d="M1504.53,4625.99C1640.46,4625.99 1504.53,4433.99 1504.53,4433.99C1504.53,4433.99 1368.6,4625.99 1504.53,4625.99" style="fill:none;stroke:rgb(241,241,241);stroke-width:77.43px;"/>
            </g>
        </g>
    </g>
</svg>
