<?xml version="1.0" encoding="UTF-8" standalone="no"?>
<!DOCTYPE svg PUBLIC "-//W3C//DTD SVG 1.1//EN" "http://www.w3.org/Graphics/SVG/1.1/DTD/svg11.dtd">
<svg width="100%" height="100%" viewBox="0 0 1024 1024" version="1.1" xmlns="http://www.w3.org/2000/svg" xmlns:xlink="http://www.w3.org/1999/xlink" xml:space="preserve" xmlns:serif="http://www.serif.com/" style="fill-rule:evenodd;clip-rule:evenodd;stroke-linecap:round;stroke-linejoin:round;">
    <g transform="matrix(1,0,0,1,-5133,0)">
        <g id="icon-toolkit" transform="matrix(1,0,0,1,5133,0)">
            <rect x="0" y="0" width="1024" height="1024" style="fill:none;"/>
            <g transform="matrix(46.2927,0,0,46.2927,-45.6749,-43.0801)">
                <path d="M11.42,15.17L17.25,21C17.744,21.479 18.406,21.747 19.095,21.747C20.549,21.747 21.747,20.549 21.747,19.095C21.747,18.406 21.479,17.744 21,17.25L15.123,11.373M11.42,15.17L13.916,12.14C14.233,11.756 14.656,11.514 15.124,11.374M11.42,15.17L6.765,20.823C6.281,21.413 5.558,21.755 4.795,21.755C3.397,21.755 2.247,20.605 2.247,19.207C2.247,18.444 2.589,17.721 3.179,17.237L10.016,11.607M15.124,11.374C15.674,11.21 16.287,11.186 16.867,11.234C16.995,11.245 17.123,11.25 17.252,11.25C19.721,11.25 21.752,9.219 21.752,6.75C21.752,6.112 21.616,5.48 21.353,4.898L18.077,8.175C16.961,7.917 16.085,7.041 15.827,5.925L19.103,2.649C18.521,2.386 17.889,2.25 17.251,2.25C14.782,2.25 12.751,4.281 12.751,6.75C12.751,6.879 12.756,7.007 12.767,7.135C12.858,8.211 12.696,9.399 11.863,10.085L11.761,10.17M10.016,11.607L5.909,7.5L4.5,7.5L2.25,3.75L3.75,2.25L7.5,4.5L7.5,5.909L11.76,10.169M10.015,11.606L11.76,10.169" style="fill:none;fill-rule:nonzero;stroke:black;stroke-width:1.52px;"/>
            </g>
        </g>
    </g>
</svg>
