<?xml version="1.0" encoding="UTF-8" standalone="no"?>
<!DOCTYPE svg PUBLIC "-//W3C//DTD SVG 1.1//EN" "http://www.w3.org/Graphics/SVG/1.1/DTD/svg11.dtd">
<svg width="100%" height="100%" viewBox="0 0 1024 1025" version="1.1" xmlns="http://www.w3.org/2000/svg" xmlns:xlink="http://www.w3.org/1999/xlink" xml:space="preserve" xmlns:serif="http://www.serif.com/" style="fill-rule:evenodd;clip-rule:evenodd;stroke-linecap:round;stroke-linejoin:round;stroke-miterlimit:1.4;">
    <g transform="matrix(1,0,0,1,0,-5060)">
        <g id="Pipette" transform="matrix(1,0,0,1,-6.30607e-14,5060.19)">
            <rect x="0" y="0" width="1024" height="1024" style="fill:none;"/>
            <g transform="matrix(0.707107,0.707107,-0.353553,0.353553,1984.31,-1685.45)">
                <path d="M513.508,5828.19L513.508,5956.19" style="fill:none;stroke:rgb(241,241,241);stroke-width:91.07px;"/>
            </g>
            <g transform="matrix(0.606092,0.606092,-0.415945,0.415945,2589.61,-2206.71)">
                <path d="M416,5546.59L416,5317.74C416,5263.9 445.996,5220.19 482.943,5220.19L573.057,5220.19C610.004,5220.19 640,5263.9 640,5317.74L640,5546.59" style="fill:none;stroke:rgb(241,241,241);stroke-width:97.95px;"/>
            </g>
            <g transform="matrix(0.490885,0.490885,-0.707107,0.707107,4155.59,-3635.32)">
                <path d="M704,5444.19C704,5479.51 662.691,5508.19 611.81,5508.19L412.19,5508.19C361.309,5508.19 320,5479.51 320,5444.19C320,5408.87 361.309,5380.19 412.19,5380.19L611.81,5380.19C662.691,5380.19 704,5408.87 704,5444.19Z" style="fill:none;stroke:rgb(241,241,241);stroke-width:83.64px;"/>
            </g>
            <g transform="matrix(0.404061,0.404061,-0.268456,0.268456,1700.09,-1103.85)">
                <path d="M416,5764.19L416,5220.19L640,5220.19L640,5764.19" style="fill:none;stroke:rgb(241,241,241);stroke-width:148.42px;"/>
            </g>
            <g transform="matrix(0.707107,0.707107,-0.707107,0.707107,4133.48,-3834.62)">
                <path d="M448,5840.76L512,5956.19L576,5841.5" style="fill:none;stroke:rgb(241,241,241);stroke-width:72px;"/>
            </g>
        </g>
    </g>
</svg>
