<?xml version="1.0" encoding="UTF-8" standalone="no"?>
<!DOCTYPE svg PUBLIC "-//W3C//DTD SVG 1.1//EN" "http://www.w3.org/Graphics/SVG/1.1/DTD/svg11.dtd">
<svg width="100%" height="100%" viewBox="0 0 1024 1024" version="1.1" xmlns="http://www.w3.org/2000/svg" xmlns:xlink="http://www.w3.org/1999/xlink" xml:space="preserve" xmlns:serif="http://www.serif.com/" style="fill-rule:evenodd;clip-rule:evenodd;stroke-linecap:round;stroke-linejoin:round;">
    <g transform="matrix(1,0,0,1,-12835,-3812)">
        <g id="icon-MIP" transform="matrix(1,0,0,1,12835,3812)">
            <rect x="0" y="0" width="1024" height="1024" style="fill:none;"/>
            <g transform="matrix(53.9467,0,0,53.9467,-134.663,-135.361)">
                <path d="M11.4,4.4L20,7.6L20,19.6L11.4,16.4L11.4,4.4Z" style="fill:none;fill-rule:nonzero;stroke:black;stroke-width:1.33px;"/>
            </g>
            <g transform="matrix(-0.499128,-0.579201,0.579201,-0.499128,-1647.01,4366.25)">
                <path d="M1867.73,5525.83C1861.06,5424.93 1766.3,5328.73 1664.53,5412.19C1601.27,5464.07 1587.99,5642.47 1664.53,5732.19C1739.81,5820.44 1955.02,5866.3 1984.53,5796.19C2033.36,5680.19 1877.15,5668.32 1867.73,5525.83Z" style="fill:none;stroke:black;stroke-width:94.17px;stroke-miterlimit:1.4;"/>
            </g>
            <g transform="matrix(3.61201e-16,1.17977,-1.17977,3.61201e-16,590.124,-204.244)">
                <path d="M416.895,287.105L512,192L607.105,287.105" style="fill:none;stroke:black;stroke-width:61.03px;stroke-miterlimit:1.4;"/>
            </g>
            <g transform="matrix(3.61201e-16,1.17977,-1.17977,3.61201e-16,590.124,136.737)">
                <path d="M416.895,287.105L512,192L607.105,287.105" style="fill:none;stroke:black;stroke-width:61.03px;stroke-miterlimit:1.4;"/>
            </g>
            <g transform="matrix(0.861083,0,0,1,-11001.5,-3702.96)">
                <path d="M12893.2,4102.76L13198.6,4102.76" style="fill:none;stroke:black;stroke-width:77.16px;stroke-miterlimit:1.4;"/>
            </g>
            <g transform="matrix(0.861083,0,0,1,-11001.5,-3361.98)">
                <path d="M12893.2,4102.76L13198.6,4102.76" style="fill:none;stroke:black;stroke-width:77.16px;stroke-miterlimit:1.4;"/>
            </g>
        </g>
    </g>
</svg>
