<?xml version="1.0" encoding="UTF-8" standalone="no"?>
<!DOCTYPE svg PUBLIC "-//W3C//DTD SVG 1.1//EN" "http://www.w3.org/Graphics/SVG/1.1/DTD/svg11.dtd">
<svg width="100%" height="100%" viewBox="0 0 1024 1024" version="1.1" xmlns="http://www.w3.org/2000/svg" xmlns:xlink="http://www.w3.org/1999/xlink" xml:space="preserve" xmlns:serif="http://www.serif.com/" style="fill-rule:evenodd;clip-rule:evenodd;stroke-linecap:round;stroke-linejoin:round;stroke-miterlimit:1.5;">
    <rect id="Robot" x="0" y="0" width="1024" height="1024" style="fill:none;"/>
    <g id="Robot1" serif:id="Robot">
        <g transform="matrix(5.76344e-15,94.1241,-69.3641,4.24733e-15,29419.5,-18652.1)">
            <path d="M205.749,413.574L205.749,419.926C205.749,420.691 205.291,421.312 204.728,421.312L202.934,421.312C202.37,421.312 201.913,420.691 201.913,419.926L201.913,413.574C201.913,412.81 202.37,412.189 202.934,412.189L204.728,412.189C205.291,412.189 205.749,412.81 205.749,413.574Z" style="fill:none;stroke:rgb(241,241,241);stroke-width:0.87px;"/>
        </g>
        <g transform="matrix(5.76344e-15,94.1241,-84.1832,5.15473e-15,35595.4,-18290.3)">
            <path d="M203.831,421.312C202.772,421.312 201.913,420.351 201.913,419.167L201.913,414.333C201.913,413.15 202.772,412.189 203.831,412.189L203.831,421.312Z" style="fill:none;stroke:rgb(241,241,241);stroke-width:0.81px;"/>
        </g>
        <g transform="matrix(23.3009,0,0,9.79877,-4408.24,-3595.08)">
            <path d="M205.749,416.75C205.749,419.268 204.89,421.312 203.831,421.312C202.772,421.312 201.913,419.268 201.913,416.75C201.913,414.233 202.772,412.189 203.831,412.189C204.89,412.189 205.749,414.233 205.749,416.75Z" style="fill:rgb(241,241,241);"/>
        </g>
        <g transform="matrix(23.3009,0,0,9.79877,-4059.46,-3595.08)">
            <path d="M205.749,416.75C205.749,419.268 204.89,421.312 203.831,421.312C202.772,421.312 201.913,419.268 201.913,416.75C201.913,414.233 202.772,412.189 203.831,412.189C204.89,412.189 205.749,414.233 205.749,416.75Z" style="fill:rgb(241,241,241);"/>
        </g>
        <g transform="matrix(8.16373,0,0,8.16373,-1544.73,-2830.6)">
            <path d="M231.014,389.933L231.014,379.336" style="fill:none;stroke:rgb(241,241,241);stroke-width:8.82px;"/>
        </g>
        <g transform="matrix(8.16373,0,0,8.16373,-1195.95,-2830.6)">
            <path d="M231.014,389.933L231.014,379.336" style="fill:none;stroke:rgb(241,241,241);stroke-width:8.82px;"/>
        </g>
        <g transform="matrix(1.20273,0,0,1.20273,-7.39286,-13.9734)">
            <path d="M289.84,80.12C337.227,80.12 375.7,118.592 375.7,165.979C375.7,213.366 337.227,251.838 289.84,251.838C242.453,251.838 203.981,213.366 203.981,165.979C203.981,118.592 242.453,80.12 289.84,80.12ZM289.84,139.983C275.493,139.983 263.845,151.632 263.845,165.979C263.845,180.326 275.493,191.975 289.84,191.975C304.188,191.975 315.836,180.326 315.836,165.979C315.836,151.632 304.188,139.983 289.84,139.983Z" style="fill:rgb(241,241,241);"/>
        </g>
        <g transform="matrix(1.20273,0,0,1.20273,341.386,-13.9734)">
            <path d="M289.84,80.12C337.227,80.12 375.7,118.592 375.7,165.979C375.7,213.366 337.227,251.838 289.84,251.838C242.453,251.838 203.981,213.366 203.981,165.979C203.981,118.592 242.453,80.12 289.84,80.12ZM289.84,139.983C275.493,139.983 263.845,151.632 263.845,165.979C263.845,180.326 275.493,191.975 289.84,191.975C304.188,191.975 315.836,180.326 315.836,165.979C315.836,151.632 304.188,139.983 289.84,139.983Z" style="fill:rgb(241,241,241);"/>
        </g>
    </g>
</svg>
