<?xml version="1.0" encoding="UTF-8" standalone="no"?>
<!DOCTYPE svg PUBLIC "-//W3C//DTD SVG 1.1//EN" "http://www.w3.org/Graphics/SVG/1.1/DTD/svg11.dtd">
<svg width="100%" height="100%" viewBox="0 0 1024 1024" version="1.1" xmlns="http://www.w3.org/2000/svg" xmlns:xlink="http://www.w3.org/1999/xlink" xml:space="preserve" xmlns:serif="http://www.serif.com/" style="fill-rule:evenodd;clip-rule:evenodd;stroke-linecap:round;stroke-linejoin:round;stroke-miterlimit:1.4;">
    <g transform="matrix(1,0,0,1,-7700,-2527)">
        <g id="icon-building" transform="matrix(1,0,0,1,7700,2527)">
            <rect x="0" y="0" width="1024" height="1024" style="fill:none;"/>
            <g transform="matrix(1,0,0,1.12682,-7700.31,-2913.29)">
                <rect x="7892.31" y="2655.78" width="640" height="768" style="fill:none;stroke:black;stroke-width:67.59px;"/>
            </g>
            <g transform="matrix(1,0,0,1,-7700.31,-2479.08)">
                <path d="M7764.31,3423.78L8660.31,3423.78" style="fill:none;stroke:black;stroke-width:72px;"/>
            </g>
            <g transform="matrix(1,0,0,1,-7700.31,-2569.08)">
                <rect x="8020.31" y="2783.78" width="64" height="64" style="fill:none;stroke:black;stroke-width:72px;"/>
            </g>
            <g transform="matrix(1,0,0,1,-7700.31,-2377.08)">
                <rect x="8020.31" y="2783.78" width="64" height="64" style="fill:none;stroke:black;stroke-width:72px;"/>
            </g>
            <g transform="matrix(1,0,0,1,-7700.31,-2185.08)">
                <rect x="8020.31" y="2783.78" width="64" height="64" style="fill:none;stroke:black;stroke-width:72px;"/>
            </g>
            <g transform="matrix(1,0,0,1,-7380.31,-2569.08)">
                <rect x="8020.31" y="2783.78" width="64" height="64" style="fill:none;stroke:black;stroke-width:72px;"/>
            </g>
            <g transform="matrix(1,0,0,1,-7380.31,-2377.08)">
                <rect x="8020.31" y="2783.78" width="64" height="64" style="fill:none;stroke:black;stroke-width:72px;"/>
            </g>
            <g transform="matrix(1,0,0,1,-7380.31,-2185.08)">
                <rect x="8020.31" y="2783.78" width="64" height="64" style="fill:none;stroke:black;stroke-width:72px;"/>
            </g>
            <g transform="matrix(1,0,0,2.50321,-7540.31,-6183.9)">
                <rect x="8020.31" y="2783.78" width="64" height="64" style="fill:none;stroke:black;stroke-width:37.77px;"/>
            </g>
        </g>
    </g>
</svg>
