<?xml version="1.0" encoding="UTF-8" standalone="no"?>
<!DOCTYPE svg PUBLIC "-//W3C//DTD SVG 1.1//EN" "http://www.w3.org/Graphics/SVG/1.1/DTD/svg11.dtd">
<svg width="100%" height="100%" viewBox="0 0 1024 1024" version="1.1" xmlns="http://www.w3.org/2000/svg" xmlns:xlink="http://www.w3.org/1999/xlink" xml:space="preserve" xmlns:serif="http://www.serif.com/" style="fill-rule:evenodd;clip-rule:evenodd;stroke-linecap:round;stroke-linejoin:round;stroke-miterlimit:1.4;">
    <g transform="matrix(1,0,0,1,-3850,-5060)">
        <g id="icon-pen" transform="matrix(1,0,0,1,3850,5060)">
            <rect x="0" y="0" width="1024" height="1024" style="fill:none;"/>
            <g transform="matrix(0.861577,-0.861577,0.909391,0.909391,-8376.19,-742.2)">
                <path d="M4783.04,5489.55C4791.78,5489.55 4800.15,5492.84 4806.33,5498.69C4812.51,5504.55 4815.98,5512.48 4815.98,5520.76L4815.98,5634.5C4815.98,5642.78 4812.51,5650.72 4806.33,5656.57C4800.15,5662.43 4791.78,5665.72 4783.04,5665.72L4100.03,5665.72L4100.03,5489.55C4100.03,5489.55 4642.46,5489.55 4783.04,5489.55Z" style="fill:none;stroke:black;stroke-width:57.47px;"/>
            </g>
            <g transform="matrix(0.834404,-0.834404,0.834404,0.834404,-7868.68,-457.521)">
                <path d="M4647.3,5508.19L4647.3,5700.19" style="fill:none;stroke:black;stroke-width:61.02px;"/>
            </g>
            <g transform="matrix(0.834404,-0.834404,0.834404,0.834404,-7868.68,-457.521)">
                <path d="M4100.03,5508.19L3966.62,5601.66L4100.03,5700.19" style="fill:none;stroke:black;stroke-width:61.02px;"/>
            </g>
        </g>
    </g>
</svg>
