<?xml version="1.0" encoding="UTF-8" standalone="no"?>
<!DOCTYPE svg PUBLIC "-//W3C//DTD SVG 1.1//EN" "http://www.w3.org/Graphics/SVG/1.1/DTD/svg11.dtd">
<svg width="100%" height="100%" viewBox="0 0 1025 1025" version="1.1" xmlns="http://www.w3.org/2000/svg" xmlns:xlink="http://www.w3.org/1999/xlink" xml:space="preserve" xmlns:serif="http://www.serif.com/" style="fill-rule:evenodd;clip-rule:evenodd;stroke-linecap:round;stroke-linejoin:round;stroke-miterlimit:1.4;">
    <g transform="matrix(1,0,0,1,-2566,-2527)">
        <g id="icon-ruler" transform="matrix(1,0,0,1,2566.77,2527.78)">
            <rect x="0" y="0" width="1024" height="1024" style="fill:none;"/>
            <g transform="matrix(0.70841,-0.70841,0.633969,0.633969,-3610.41,792.943)">
                <rect x="2659.91" y="2847.78" width="896" height="363.84" style="fill:none;stroke:rgb(241,241,241);stroke-width:75.74px;"/>
            </g>
            <g transform="matrix(0.707107,-0.707107,0.707107,0.707107,-3814.06,580.028)">
                <path d="M2787.91,2847.78L2787.91,3039.78" style="fill:none;stroke:rgb(241,241,241);stroke-width:72px;"/>
            </g>
            <g transform="matrix(0.707107,-0.707107,0.707107,0.707107,-3814.06,580.028)">
                <path d="M3107.91,2847.78L3107.91,3039.78" style="fill:none;stroke:rgb(241,241,241);stroke-width:72px;"/>
            </g>
            <g transform="matrix(0.707107,-0.707107,0.707107,0.707107,-3814.06,580.028)">
                <path d="M3427.91,2847.78L3427.91,3039.78" style="fill:none;stroke:rgb(241,241,241);stroke-width:72px;"/>
            </g>
            <g transform="matrix(0.707107,-0.707107,0.707107,0.707107,-3814.06,580.028)">
                <path d="M3267.91,2847.78L3267.91,2975.78" style="fill:none;stroke:rgb(241,241,241);stroke-width:72px;"/>
            </g>
            <g transform="matrix(0.707107,-0.707107,0.707107,0.707107,-3814.06,580.028)">
                <path d="M2947.91,2847.78L2947.91,2975.78" style="fill:none;stroke:rgb(241,241,241);stroke-width:72px;"/>
            </g>
        </g>
    </g>
</svg>
