<?xml version="1.0" encoding="UTF-8" standalone="no"?>
<!DOCTYPE svg PUBLIC "-//W3C//DTD SVG 1.1//EN" "http://www.w3.org/Graphics/SVG/1.1/DTD/svg11.dtd">
<svg width="100%" height="100%" viewBox="0 0 1025 1025" version="1.1" xmlns="http://www.w3.org/2000/svg" xmlns:xlink="http://www.w3.org/1999/xlink" xml:space="preserve" xmlns:serif="http://www.serif.com/" style="fill-rule:evenodd;clip-rule:evenodd;stroke-linecap:round;stroke-linejoin:round;stroke-miterlimit:1.4;">
    <g transform="matrix(1,0,0,1,-1312,-1226)">
        <g id="Skeleton" transform="matrix(1,0,0,1,1312.53,1226.4)">
            <rect x="0" y="0" width="1024" height="1024" style="fill:none;"/>
            <g id="skeleton">
                <g transform="matrix(1.1381,0,0,1.1381,-160.004,-176.937)">
                    <path d="M362.829,298.342C421.789,298.342 469.658,346.211 469.658,405.171C469.658,464.132 421.789,512 362.829,512C303.868,512 256,464.132 256,405.171C256,346.211 303.868,298.342 362.829,298.342ZM362.829,361.606C338.784,361.606 319.263,381.127 319.263,405.171C319.263,429.216 338.784,448.737 362.829,448.737C386.873,448.737 406.394,429.216 406.394,405.171C406.394,381.127 386.873,361.606 362.829,361.606Z" style="fill:rgb(241,241,241);"/>
                </g>
                <g transform="matrix(1.1381,0,0,1.1381,360.147,-127.768)">
                    <path d="M362.829,298.342C421.789,298.342 469.658,346.211 469.658,405.171C469.658,464.132 421.789,512 362.829,512C303.868,512 256,464.132 256,405.171C256,346.211 303.868,298.342 362.829,298.342ZM362.829,361.606C338.784,361.606 319.263,381.127 319.263,405.171C319.263,429.216 338.784,448.737 362.829,448.737C386.873,448.737 406.394,429.216 406.394,405.171C406.394,381.127 386.873,361.606 362.829,361.606Z" style="fill:rgb(241,241,241);"/>
                </g>
                <g transform="matrix(1.1381,0,0,1.1381,137.552,310.081)">
                    <path d="M362.829,298.342C421.789,298.342 469.658,346.211 469.658,405.171C469.658,464.132 421.789,512 362.829,512C303.868,512 256,464.132 256,405.171C256,346.211 303.868,298.342 362.829,298.342ZM362.829,361.606C338.784,361.606 319.263,381.127 319.263,405.171C319.263,429.216 338.784,448.737 362.829,448.737C386.873,448.737 406.394,429.216 406.394,405.171C406.394,381.127 386.873,361.606 362.829,361.606Z" style="fill:rgb(241,241,241);"/>
                </g>
                <g transform="matrix(0.646649,0,0,0.646649,165.983,113.505)">
                    <path d="M278.14,277.532L782.628,325.22" style="fill:none;stroke:rgb(241,241,241);stroke-width:111.34px;"/>
                </g>
                <g transform="matrix(0.691871,-5.19415e-17,5.19415e-17,0.691871,114.999,156.496)">
                    <path d="M266.74,293.49L557.98,764.32" style="fill:none;stroke:rgb(241,241,241);stroke-width:104.07px;"/>
                </g>
            </g>
        </g>
    </g>
</svg>
