<svg
  width="19"
  height="15"
  viewBox="0 0 21 20"
  fill="none"
  xmlns="http://www.w3.org/2000/svg"
>
  <path
    d="M20.25 6.68182C20.25 8.18159 19.2933 9.6466 17.522 10.7738C15.7595 11.8954 13.2789 12.6136 10.5 12.6136C7.72111 12.6136 5.2405 11.8954 3.47804 10.7738C1.70668 9.6466 0.75 8.18159 0.75 6.68182C0.75 5.18205 1.70668 3.71703 3.47804 2.58981C5.2405 1.46824 7.72111 0.75 10.5 0.75C13.2789 0.75 15.7595 1.46824 17.522 2.58981C19.2933 3.71703 20.25 5.18205 20.25 6.68182Z"
    stroke="#f1f1f1"
    stroke-width="2"
  />
  <circle cx="3.81821" cy="11.4545" r="1.15909" stroke="#f1f1f1" stroke-width="2" />
  <path
    d="M2.86362 10.5C3.40937 10.8536 8.46717 14.0983 7.48519 19.0909"
    stroke="#f1f1f1"
    stroke-width="1.5"
    stroke-linecap="round"
    stroke-linejoin="round"
  />
</svg>
