<?xml version="1.0" encoding="UTF-8" standalone="no"?>
<!DOCTYPE svg PUBLIC "-//W3C//DTD SVG 1.1//EN" "http://www.w3.org/Graphics/SVG/1.1/DTD/svg11.dtd">
<svg width="100%" height="100%" viewBox="0 0 1024 1024" version="1.1" xmlns="http://www.w3.org/2000/svg" xmlns:xlink="http://www.w3.org/1999/xlink" xml:space="preserve" xmlns:serif="http://www.serif.com/" style="fill-rule:evenodd;clip-rule:evenodd;stroke-linecap:round;stroke-linejoin:round;stroke-miterlimit:1.4;">
    <g transform="matrix(1,0,0,1,-7700,-5060)">
        <g id="icon-merger-mode" transform="matrix(1,0,0,1,7700,5060)">
            <rect x="0" y="0" width="1024" height="1024" style="fill:none;"/>
            <g transform="matrix(1.14964,0,0,1.14964,-8915.6,-5870.61)">
                <path d="M7842.84,5915.53L7842.84,5188.19L8570.17,5188.19" style="fill:none;stroke:black;stroke-width:62.63px;"/>
            </g>
            <g transform="matrix(1.14964,0,0,1.14964,-8915.6,-5870.61)">
                <path d="M8564.95,5188.19C8415.87,5205.76 8284.12,5358.9 8268.9,5444.39C8241.62,5597.65 8101.66,5578.59 8052.31,5710.53C8024.06,5786.07 7966.99,5864.71 7842.84,5914.56" style="fill:none;stroke:black;stroke-width:62.63px;"/>
            </g>
            <g transform="matrix(0.959588,-0.190048,-0.190048,0.959588,-6382.21,-3337.22)">
                <g transform="matrix(1.08466,0.214818,0.214818,1.08466,7639.41,4990.76)">
                    <path d="M440.054,261.334L468.691,461.799L268.227,433.161L440.054,261.334Z"/>
                    <path d="M157.683,150.79C157.683,150.79 285.311,278.419 377.05,370.158" style="fill:none;stroke:black;stroke-width:72px;"/>
                </g>
            </g>
            <g transform="matrix(-0.959588,0.190048,0.190048,-0.959588,7416.87,4343.64)">
                <g transform="matrix(-1.08466,-0.214818,-0.214818,-1.08466,8977.87,6304.64)">
                    <path d="M594.612,745.082L565.974,544.618L766.439,573.256L594.612,745.082Z"/>
                    <path d="M876.982,855.626C876.982,855.626 749.354,727.998 657.615,636.259" style="fill:none;stroke:black;stroke-width:72px;"/>
                </g>
            </g>
        </g>
    </g>
</svg>
