<?xml version="1.0" encoding="UTF-8" standalone="no"?>
<!DOCTYPE svg PUBLIC "-//W3C//DTD SVG 1.1//EN" "http://www.w3.org/Graphics/SVG/1.1/DTD/svg11.dtd">
<svg width="100%" height="100%" viewBox="0 0 1024 1024" version="1.1" xmlns="http://www.w3.org/2000/svg" xmlns:xlink="http://www.w3.org/1999/xlink" xml:space="preserve" xmlns:serif="http://www.serif.com/" style="fill-rule:evenodd;clip-rule:evenodd;stroke-linecap:round;stroke-linejoin:round;stroke-miterlimit:1.5;">
    <rect id="icon-ai-analysis" x="0" y="0" width="1024" height="1024" style="fill:none;"/>
    <g id="icon-ai-analysis1" serif:id="icon-ai-analysis">
        <g transform="matrix(6.74077e-15,110.085,-81.1265,4.96757e-15,34321.5,-21897.9)">
            <path d="M205.749,413.574L205.749,419.926C205.749,420.691 205.291,421.312 204.728,421.312L202.934,421.312C202.37,421.312 201.913,420.691 201.913,419.926L201.913,413.574C201.913,412.81 202.37,412.189 202.934,412.189L204.728,412.189C205.291,412.189 205.749,412.81 205.749,413.574Z" style="fill:none;stroke:black;stroke-width:0.74px;"/>
        </g>
        <g transform="matrix(6.74077e-15,110.085,-98.4586,6.02885e-15,41544.6,-21474.7)">
            <path d="M203.831,421.312C202.772,421.312 201.913,420.351 201.913,419.167L201.913,414.333C201.913,413.15 202.772,412.189 203.831,412.189L203.831,421.312Z" style="fill:none;stroke:black;stroke-width:0.69px;"/>
        </g>
        <g transform="matrix(27.2522,0,0,11.4604,-5221.79,-4287.59)">
            <path d="M205.749,416.75C205.749,419.268 204.89,421.312 203.831,421.312C202.772,421.312 201.913,419.268 201.913,416.75C201.913,414.233 202.772,412.189 203.831,412.189C204.89,412.189 205.749,414.233 205.749,416.75Z"/>
        </g>
        <g transform="matrix(27.2522,0,0,11.4604,-4863.87,-4287.59)">
            <path d="M205.749,416.75C205.749,419.268 204.89,421.312 203.831,421.312C202.772,421.312 201.913,419.268 201.913,416.75C201.913,414.233 202.772,412.189 203.831,412.189C204.89,412.189 205.749,414.233 205.749,416.75Z"/>
        </g>
        <g transform="matrix(9.5481,0,0,9.5481,-1893.5,-3393.48)">
            <path d="M231.014,389.933L231.014,379.336" style="fill:none;stroke:black;stroke-width:7.54px;"/>
        </g>
        <g transform="matrix(9.5481,0,0,9.5481,-1485.58,-3393.48)">
            <path d="M231.014,389.933L231.014,379.336" style="fill:none;stroke:black;stroke-width:7.54px;"/>
        </g>
        <g transform="matrix(1.01633,0,0,1.01633,17.6725,-39.2545)">
            <circle cx="289.84" cy="165.979" r="85.859" style="fill:none;stroke:black;stroke-width:70.84px;stroke-miterlimit:1.4;"/>
        </g>
        <g transform="matrix(1.01633,0,0,1.01633,425.595,-39.2545)">
            <circle cx="289.84" cy="165.979" r="85.859" style="fill:none;stroke:black;stroke-width:70.84px;stroke-miterlimit:1.4;"/>
        </g>
    </g>
</svg>
