<?xml version="1.0" encoding="UTF-8" standalone="no"?>
<!DOCTYPE svg PUBLIC "-//W3C//DTD SVG 1.1//EN" "http://www.w3.org/Graphics/SVG/1.1/DTD/svg11.dtd">
<svg width="100%" height="100%" viewBox="0 0 1024 1024" version="1.1" xmlns="http://www.w3.org/2000/svg" xmlns:xlink="http://www.w3.org/1999/xlink" xml:space="preserve" xmlns:serif="http://www.serif.com/" style="fill-rule:evenodd;clip-rule:evenodd;stroke-linecap:round;stroke-linejoin:round;stroke-miterlimit:1.4;">
    <g transform="matrix(1,0,0,1,-10265,-5063)">
        <g id="icon-eraser-lasso" transform="matrix(1,0,0,1,10265,5063)">
            <rect x="0" y="0" width="1024" height="1024" style="fill:none;"/>
            <g transform="matrix(0.79508,0.79508,-0.857448,0.857448,1852.25,-3400.47)">
                <path d="M1680.31,3258.91L1458.82,3258.91L1458.82,2700.47L1772.61,2700.47L1772.61,3173.33L1680.31,3258.91Z" style="fill:none;stroke:black;stroke-width:61.57px;"/>
            </g>
            <g transform="matrix(1.04327,-0.0811435,-0.0811435,1.04327,-1348.91,-2293.08)">
                <path d="M1857.96,2729.3L2117.27,2988.62" style="fill:none;stroke:black;stroke-width:74.83px;"/>
            </g>
            <g transform="matrix(1,0,0,1,-10265,-5063)">
                <path d="M10659.5,5756.87C10679.4,5757.21 10695.2,5773.61 10694.9,5793.48C10694.5,5813.35 10678.1,5829.2 10658.3,5828.86C10646,5828.65 10634.2,5828.61 10622.6,5828.75C10602.7,5828.98 10586.4,5813.04 10586.2,5793.17C10586,5773.31 10601.9,5756.99 10621.8,5756.76C10634,5756.61 10646.6,5756.65 10659.5,5756.87ZM10469.5,5770.31C10489,5766.62 10507.8,5779.48 10511.5,5799.01C10515.2,5818.53 10502.3,5837.37 10482.8,5841.06C10457.9,5845.77 10436.4,5851.66 10418.4,5858.61C10399.9,5865.79 10379,5856.58 10371.9,5838.05C10364.7,5819.53 10373.9,5798.66 10392.4,5791.48C10413.9,5783.16 10439.6,5775.95 10469.5,5770.31ZM10315.3,5952.92C10303.6,5936.82 10307.2,5914.3 10323.3,5902.65C10339.4,5891.01 10362,5894.63 10373.6,5910.72C10382.5,5922.99 10397.7,5934.77 10418.6,5946.56C10435.9,5956.34 10442,5978.31 10432.2,5995.61C10422.4,6012.91 10400.5,6019.03 10383.2,6009.25C10351.1,5991.17 10328.9,5971.74 10315.3,5952.92ZM10534,6060.37C10514.4,6057.63 10500.6,6039.43 10503.4,6019.75C10506.1,6000.07 10524.3,5986.32 10544,5989.06C10564.3,5991.88 10588.3,5994.42 10614.9,5996.57C10634.7,5998.17 10649.5,6015.55 10647.9,6035.36C10646.3,6055.16 10628.9,6069.94 10609.1,6068.34C10581,6066.06 10555.5,6063.36 10534,6060.37ZM10757.9,6075.49C10738.1,6075.11 10722.2,6058.67 10722.6,6038.81C10723,6018.94 10739.4,6003.12 10759.3,6003.5C10783.2,6003.96 10807.5,6004.1 10831.7,6003.87C10851.5,6003.69 10867.8,6019.67 10868,6039.54C10868.2,6059.41 10852.2,6075.69 10832.3,6075.87C10807.4,6076.1 10782.5,6075.96 10757.9,6075.49ZM10981.8,6069.25C10962,6070.97 10944.5,6056.31 10942.8,6036.51C10941,6016.72 10955.7,5999.25 10975.5,5997.52C11000.6,5995.33 11024.2,5992.55 11045.8,5989.07C11065.4,5985.9 11083.9,5999.26 11087,6018.87C11090.2,6038.48 11076.9,6056.98 11057.2,6060.15C11034.1,6063.89 11008.7,6066.9 10981.8,6069.25ZM11209.9,5979.05C11201.1,5996.83 11179.4,6004.07 11161.7,5995.21C11143.9,5986.34 11136.6,5964.71 11145.5,5946.93C11153.3,5931.29 11155.6,5918.43 11150.5,5907.52C11142.2,5889.49 11150,5868.07 11168,5859.71C11186.1,5851.35 11207.5,5859.19 11215.8,5877.21C11228.8,5905.22 11230,5938.89 11209.9,5979.05ZM11069.5,5784.72C11088.7,5789.59 11100.4,5809.18 11095.5,5828.44C11090.7,5847.71 11071.1,5859.39 11051.8,5854.53C11030,5849.01 11006.8,5844.74 10983.5,5841.38C10963.8,5838.55 10950.1,5820.29 10953,5800.62C10955.8,5780.96 10974,5767.29 10993.7,5770.12C11019.5,5773.84 11045.3,5778.61 11069.5,5784.72ZM10843.5,5757.79C10863.4,5758.45 10879,5775.11 10878.3,5794.97C10877.7,5814.83 10861,5830.41 10841.1,5829.75C10827.1,5829.28 10814.9,5829.03 10805,5828.86C10785.2,5828.51 10769.3,5812.1 10769.7,5792.23C10770,5772.36 10786.4,5756.52 10806.3,5756.87C10816.5,5757.05 10829.1,5757.31 10843.5,5757.79Z"/>
            </g>
        </g>
    </g>
</svg>
