<?xml version="1.0" encoding="UTF-8" standalone="no"?>
<!DOCTYPE svg PUBLIC "-//W3C//DTD SVG 1.1//EN" "http://www.w3.org/Graphics/SVG/1.1/DTD/svg11.dtd">
<svg width="100%" height="100%" viewBox="0 0 1025 1025" version="1.1" xmlns="http://www.w3.org/2000/svg" xmlns:xlink="http://www.w3.org/1999/xlink" xml:space="preserve" xmlns:serif="http://www.serif.com/" style="fill-rule:evenodd;clip-rule:evenodd;stroke-linecap:round;stroke-linejoin:round;stroke-miterlimit:1.4;">
    <g transform="matrix(1,0,0,1,-3850,-3793)">
        <g id="icon-read-only" transform="matrix(1,0,0,1,3850.15,3793.99)">
            <rect x="0" y="0" width="1024" height="1024" style="fill:none;"/>
            <g transform="matrix(43.7617,0,0,43.7617,-13.1189,-13.1407)">
                <path d="M3.98,8.223C3.044,9.327 2.348,10.613 1.934,12C3.226,16.338 7.244,19.5 12,19.5C12.993,19.5 13.953,19.362 14.863,19.105M6.228,6.228C7.94,5.098 9.948,4.497 12,4.5C16.756,4.5 20.773,7.662 22.065,11.998C21.357,14.367 19.837,16.412 17.772,17.772M6.228,6.228L3,3M6.228,6.228L9.878,9.878M17.772,17.772L21,21M17.772,17.772L14.122,14.122M14.122,14.122C14.684,13.56 15.001,12.796 15.001,12C15.001,10.355 13.646,9 12,9C11.205,9 10.441,9.317 9.879,9.879M14.121,14.121L9.88,9.88" style="fill:none;fill-rule:nonzero;stroke:rgb(241,241,241);stroke-width:1.65px;"/>
            </g>
        </g>
    </g>
</svg>
