<?xml version="1.0" encoding="UTF-8" standalone="no"?>
<!DOCTYPE svg PUBLIC "-//W3C//DTD SVG 1.1//EN" "http://www.w3.org/Graphics/SVG/1.1/DTD/svg11.dtd">
<svg width="100%" height="100%" viewBox="0 0 1025 1024" version="1.1" xmlns="http://www.w3.org/2000/svg" xmlns:xlink="http://www.w3.org/1999/xlink" xml:space="preserve" xmlns:serif="http://www.serif.com/" style="fill-rule:evenodd;clip-rule:evenodd;stroke-linecap:round;stroke-linejoin:round;stroke-miterlimit:1.4;">
    <g transform="matrix(1,0,0,1,-5133,0)">
        <g id="icon-toolkit" transform="matrix(1,0,0,1,5133.54,0)">
            <rect x="0" y="0" width="1024" height="1024" style="fill:none;"/>
            <g transform="matrix(0.624345,-0.375655,-0.375655,0.624345,-2896.55,2275.13)">
                <path d="M6043.36,853.76L5298.46,108.864" style="fill:none;stroke:rgb(241,241,241);stroke-width:289.52px;"/>
            </g>
            <g transform="matrix(0.67675,0.67675,-0.875903,0.875903,-2449.98,-3872.77)">
                <path d="M5950.64,713.812L5950.64,895.106L5596.83,895.106C5532.03,895.106 5479.51,854.522 5479.51,804.459L5479.51,804.458C5479.51,754.395 5532.03,713.812 5596.83,713.812C5736.37,713.812 5950.64,713.812 5950.64,713.812Z" style="fill:none;stroke:rgb(241,241,241);stroke-width:65.05px;"/>
            </g>
            <g transform="matrix(1,0,0,1,-5162.68,0)">
                <path d="M5533.3,352.705L5402.11,351.026L5236.76,152.913L5333.51,56.16L5531.62,221.512L5533.3,352.705" style="fill:none;stroke:rgb(241,241,241);stroke-width:72px;"/>
            </g>
            <g transform="matrix(0.550782,-0.550782,0.751978,0.751978,-3312.37,3259.31)">
                <path d="M5843.38,640.426L5387.59,640.426C5338.37,640.426 5298.47,669.651 5298.47,705.702C5298.47,741.752 5338.37,770.977 5387.59,770.977L5728.22,770.977C5713.16,791.701 5702.78,814.52 5698.09,838.681L5387.59,838.681C5287.32,838.681 5206.03,779.144 5206.03,705.702C5206.03,632.26 5287.32,572.723 5387.59,572.723L5843.38,572.723L5843.38,640.426Z" style="fill:rgb(241,241,241);"/>
            </g>
            <g transform="matrix(1.0606,0,0,1.0606,-5567.19,-92.6421)">
                <path d="M5688.18,250.998C5731.55,170.926 5816.32,116.496 5913.71,116.496C5942.26,116.496 5969.72,121.18 5995.37,129.809C6006.51,133.554 6014.91,142.791 6017.6,154.227C6020.28,165.664 6016.86,177.676 6008.55,185.983L5898.29,296.243L5902.87,381.301L5991.24,388.418L6100.82,278.84C6109.15,270.515 6121.19,267.099 6132.65,269.812C6144.1,272.526 6153.33,280.983 6157.04,292.157C6165.45,317.519 6170.01,344.63 6170.01,372.798C6170.01,462.099 6124.24,540.793 6054.9,586.685L6005.54,537.326C6062.95,505.192 6101.85,443.886 6102.12,373.542L6028.15,447.512C6021.12,454.549 6011.35,458.143 6001.43,457.344L5867.84,446.586C5850.9,445.222 5837.58,431.543 5836.67,414.574L5829.69,284.768C5829.18,275.147 5832.77,265.759 5839.59,258.945L5914.15,184.382L5913.71,184.381C5809.72,184.381 5725.29,268.808 5725.29,372.798C5725.29,383.949 5726.26,394.875 5728.12,405.496L5699.81,377.183L5698.76,294.9C5698.56,279.478 5694.87,264.502 5688.18,250.998Z" style="fill:rgb(241,241,241);"/>
            </g>
        </g>
    </g>
</svg>
