<?xml version="1.0" encoding="UTF-8" standalone="no"?>
<!DOCTYPE svg PUBLIC "-//W3C//DTD SVG 1.1//EN" "http://www.w3.org/Graphics/SVG/1.1/DTD/svg11.dtd">
<svg width="100%" height="100%" viewBox="0 0 1024 1024" version="1.1" xmlns="http://www.w3.org/2000/svg" xmlns:xlink="http://www.w3.org/1999/xlink" xml:space="preserve" xmlns:serif="http://www.serif.com/" style="fill-rule:evenodd;clip-rule:evenodd;stroke-linecap:round;stroke-linejoin:round;stroke-miterlimit:1.4;">
    <g transform="matrix(1,0,0,1,-10267,0)">
        <g id="icon-interpolate" transform="matrix(1,0,0,1,10267,0)">
            <rect x="0" y="0" width="1024" height="1024" style="fill:none;"/>
            <g transform="matrix(1.43963,2.28705e-17,-1.98864e-17,1.48836,-15045,237.547)">
                <path d="M11013.3,173.56C11070.9,192.489 11106.8,219.222 11106.8,248.833C11106.8,306.162 10972.1,352.705 10806.2,352.705C10640.4,352.705 10505.7,306.162 10505.7,248.833C10505.7,219.222 10541.6,192.489 10599.2,173.56C10637,199.869 10715.6,217.969 10806.2,217.969C10896.9,217.969 10975.5,199.869 11013.3,173.56Z" style="fill:none;stroke:black;stroke-width:49.17px;"/>
            </g>
            <g transform="matrix(1.10643,4.32732e-17,-4.09797e-17,1.14388,-11444.3,158.511)">
                <path d="M11001.8,169.969C11066.1,189.025 11106.8,217.297 11106.8,248.833C11106.8,306.162 10972.1,352.705 10806.2,352.705C10640.4,352.705 10505.7,306.162 10505.7,248.833C10505.7,217.297 10546.4,189.025 10610.7,169.969C10651.2,192.623 10723.6,207.735 10806.2,207.735C10888.9,207.735 10961.3,192.623 11001.8,169.969Z" style="fill:none;stroke:black;stroke-width:63.98px;"/>
            </g>
            <g transform="matrix(0.845115,5.92739e-17,-5.75221e-17,0.873724,-8620.52,87.9674)">
                <ellipse cx="10806.2" cy="248.833" rx="300.563" ry="103.873" style="fill:none;stroke:black;stroke-width:83.77px;"/>
            </g>
        </g>
    </g>
</svg>
