<?xml version="1.0" encoding="UTF-8" standalone="no"?>
<!DOCTYPE svg PUBLIC "-//W3C//DTD SVG 1.1//EN" "http://www.w3.org/Graphics/SVG/1.1/DTD/svg11.dtd">
<svg width="100%" height="100%" viewBox="0 0 1025 1025" version="1.1" xmlns="http://www.w3.org/2000/svg" xmlns:xlink="http://www.w3.org/1999/xlink" xml:space="preserve" xmlns:serif="http://www.serif.com/" style="fill-rule:evenodd;clip-rule:evenodd;stroke-linecap:round;stroke-linejoin:round;stroke-miterlimit:1.4;">
    <g transform="matrix(1,0,0,1,-7700,-3793)">
        <g id="icon-single-node-tree" transform="matrix(1,0,0,1,7700.31,3793.99)">
            <rect x="0" y="0" width="1024" height="1024" style="fill:none;"/>
            <g transform="matrix(0.903466,0,0,0.903466,-2735.27,-3730.95)">
                <path d="M3363.91,4305.99L3363.91,4625.99" style="fill:none;stroke:rgb(241,241,241);stroke-width:79.69px;"/>
            </g>
            <g transform="matrix(5.53214e-17,-0.903466,0.903466,5.53214e-17,-3730.95,3343.1)">
                <path d="M3363.91,4305.99L3363.91,4625.99" style="fill:none;stroke:rgb(241,241,241);stroke-width:79.69px;"/>
            </g>
            <g transform="matrix(1.53047,0,0,1.36381,-1987.56,-1850.18)">
                <path d="M1575.8,1848.83L1575.8,1956.07C1575.8,1975.13 1562.01,1990.61 1545.02,1990.61L1449.46,1990.61C1432.47,1990.61 1418.67,1975.13 1418.67,1956.07L1418.67,1848.83C1418.67,1829.76 1432.47,1814.28 1449.46,1814.28L1545.02,1814.28C1562.01,1814.28 1575.8,1829.76 1575.8,1848.83Z" style="fill:none;stroke:rgb(241,241,241);stroke-width:49.67px;"/>
            </g>
            <g transform="matrix(1.53047,0,0,1.36381,-1547.08,-1850.18)">
                <path d="M1575.8,1848.83L1575.8,1956.07C1575.8,1975.13 1562.01,1990.61 1545.02,1990.61L1449.46,1990.61C1432.47,1990.61 1418.67,1975.13 1418.67,1956.07L1418.67,1848.83C1418.67,1829.76 1432.47,1814.28 1449.46,1814.28L1545.02,1814.28C1562.01,1814.28 1575.8,1829.76 1575.8,1848.83Z" style="fill:none;stroke:rgb(241,241,241);stroke-width:49.67px;"/>
            </g>
            <g transform="matrix(1.53047,0,0,1.36381,-1547.08,-2290.66)">
                <path d="M1575.8,1848.83L1575.8,1956.07C1575.8,1975.13 1562.01,1990.61 1545.02,1990.61L1449.46,1990.61C1432.47,1990.61 1418.67,1975.13 1418.67,1956.07L1418.67,1848.83C1418.67,1829.76 1432.47,1814.28 1449.46,1814.28L1545.02,1814.28C1562.01,1814.28 1575.8,1829.76 1575.8,1848.83Z" style="fill:none;stroke:rgb(241,241,241);stroke-width:49.67px;"/>
            </g>
        </g>
    </g>
</svg>
