<?xml version="1.0" encoding="UTF-8" standalone="no"?>
<!DOCTYPE svg PUBLIC "-//W3C//DTD SVG 1.1//EN" "http://www.w3.org/Graphics/SVG/1.1/DTD/svg11.dtd">
<svg width="100%" height="100%" viewBox="0 0 14 14" version="1.1" xmlns="http://www.w3.org/2000/svg" xmlns:xlink="http://www.w3.org/1999/xlink" xml:space="preserve" xmlns:serif="http://www.serif.com/" style="fill-rule:evenodd;clip-rule:evenodd;stroke-linejoin:round;stroke-miterlimit:2;">
    <g>
        <path d="M3.733,0.668C3.856,1.731 3.978,2.795 4.101,3.858C2.901,3.816 1.701,3.775 0.501,3.733C0.334,2.489 0.167,1.244 0,0C1.244,0.223 2.489,0.445 3.733,0.668ZM0.689,5.133C1.872,5.107 3.055,5.081 4.238,5.054C4.361,6.118 4.483,7.181 4.606,8.245C3.467,8.452 2.328,8.659 1.189,8.867C1.023,7.622 0.856,6.378 0.689,5.133ZM1.377,10.267C2.499,9.991 3.621,9.716 4.743,9.441C4.866,10.504 4.988,11.568 5.111,12.631C4.033,13.087 2.956,13.544 1.878,14C1.711,12.756 1.544,11.511 1.377,10.267ZM6.323,12.118C6.217,11.122 6.111,10.127 6.006,9.131C7.128,8.856 8.25,8.581 9.372,8.305C9.433,9.12 9.494,9.934 9.555,10.749C8.478,11.205 7.4,11.661 6.323,12.118ZM10.768,10.236C10.723,9.489 10.678,8.742 10.634,7.996C11.756,7.721 12.878,7.445 14,7.17C14,7.736 14,8.301 14,8.867C12.923,9.323 11.845,9.779 10.768,10.236ZM14,6.534C12.861,6.741 11.723,6.949 10.584,7.156C10.539,6.409 10.495,5.663 10.45,4.916C11.634,4.89 12.817,4.864 14,4.837C14,5.403 14,5.968 14,6.534ZM14,4.201C12.8,4.159 11.6,4.118 10.4,4.076C10.356,3.33 10.311,2.583 10.267,1.837C11.511,2.059 12.756,2.282 14,2.504C14,3.07 14,3.635 14,4.201ZM8.867,1.586C8.928,2.401 8.989,3.215 9.05,4.029C7.85,3.988 6.65,3.946 5.451,3.905C5.345,2.909 5.239,1.914 5.133,0.918C6.378,1.141 7.622,1.363 8.867,1.586ZM9.119,4.946C9.18,5.76 9.242,6.575 9.303,7.389C8.164,7.597 7.025,7.804 5.887,8.011C5.781,7.016 5.675,6.02 5.569,5.025C6.753,4.998 7.936,4.972 9.119,4.946Z" style="fill:rgb(140,140,140);"/>
    </g>
</svg>
