<?xml version="1.0" encoding="UTF-8" standalone="no"?>
<!DOCTYPE svg PUBLIC "-//W3C//DTD SVG 1.1//EN" "http://www.w3.org/Graphics/SVG/1.1/DTD/svg11.dtd">
<svg width="100%" height="100%" viewBox="0 0 606 723" version="1.1" xmlns="http://www.w3.org/2000/svg" xmlns:xlink="http://www.w3.org/1999/xlink" xml:space="preserve" xmlns:serif="http://www.serif.com/" style="fill-rule:evenodd;clip-rule:evenodd;stroke-linecap:round;stroke-linejoin:round;stroke-miterlimit:1.5;">
    <g transform="matrix(1,0,0,1,-1320.34,-585.281)">
        <g id="g26" transform="matrix(1,0,0,1,64.4173,-45.058)">
            <path id="path24" d="M1275.35,723.714C1271.16,751.976 1284.38,876.381 1298.23,878.642C1318.1,881.889 1363.55,861.406 1391.94,855.296C1420.33,849.186 1441.54,834.194 1404.88,824.127C1382.83,818.069 1357.29,834.831 1333.24,801.325C1323.75,788.104 1280.96,685.946 1275.35,723.714Z" style="fill:rgb(0,252,232);fill-opacity:0.3;"/>
        </g>
        <g id="g30" transform="matrix(0.875483,0,0,1.10587,1540.68,678.66)">
            <path id="path28" d="M219.306,346.39C219.069,342.551 210.827,364.892 210.576,365.676C206.045,379.864 201.29,394.978 200.695,409.97C200.581,412.847 199.466,422.094 203.591,423.332C208.892,424.922 212.957,412.76 214.251,409.654C220.703,394.17 227.997,376.785 229.146,359.835C229.437,355.543 230.357,344.886 223.865,345.305" style="fill:white;fill-opacity:0.15;"/>
        </g>
        <g id="g34" transform="matrix(2.12761,0,0,2.40106,698.328,71.4474)">
            <path id="path32" d="M366.42,419.637C365.152,417.465 362.5,414.876 360.488,416.864C358.808,418.524 357.996,420.962 357.769,423.145C356.87,431.814 360.973,441.643 362.035,450.264C362.529,454.276 362.597,458.301 362.762,462.335C362.781,462.802 362.586,465.319 363.418,465.358C365.868,465.475 366.569,456.574 366.746,455.209C367.76,447.386 367.515,439.089 367.356,431.208C367.292,428.04 368.101,422.52 366.42,419.637Z" style="fill:rgb(0,252,232);fill-opacity:0.3;"/>
        </g>
        <g id="g38" transform="matrix(-0.126365,4.41549,-9.46141,-0.270773,5871.34,-220.292)">
            <path id="path36" d="M371.203,419.175C370.203,416.397 360.409,410.592 358.397,412.579C356.716,414.239 357.996,420.962 357.769,423.145C357.317,427.507 361.01,439.284 359.935,449.446C358.88,459.409 360.83,473.621 361.175,473.85C366.068,477.094 367.681,457.997 366.746,455.209C364.239,447.729 375.293,430.535 371.203,419.175Z" style="fill:white;fill-opacity:0.1;"/>
        </g>
        <g id="g42" transform="matrix(1.20612,0,0,1.44473,1445.76,594.637)">
            <path id="path40" d="M238.756,278.027C236.638,284.82 234.232,292.226 237.301,299.217C242.56,311.195 252.275,306.827 255.496,297.054C259.962,283.5 244.353,260.07 238.756,278.027Z" style="fill:none;stroke:white;stroke-width:2.25px;"/>
        </g>
        <g id="g46" transform="matrix(1.14375,0,0,1.44473,1463.72,603.103)">
            <path id="path44" d="M232.293,309.281C231.797,309.784 227.946,318.42 224.917,322.162C221.444,326.451 217.582,330.401 213.211,333.782C210.808,335.641 200.942,340.635 198.265,339.309C190.383,335.404 172.04,348.921 201.548,348.499C203.31,348.474 204.314,348.66 206.086,348.372C208.515,347.978 210.997,347.252 213.296,346.379C217.82,344.66 220.497,338.961 220.294,343.834C220.227,345.445 220.212,347.057 220.167,348.669C219.691,365.639 218.2,402.126 214.209,418.619C210.772,432.828 212.523,449.62 218.449,445.365C222.28,442.614 236.391,397.043 239.646,397.597C249.532,399.282 246.518,425.193 246.146,432.149C246.108,432.856 245.54,442.646 245.722,442.582C250.719,440.818 254.336,427.215 255.858,423.073C261.479,407.77 266.014,372.249 266.014,356.049C266.014,351.166 266.963,342.594 264.657,337.981" style="fill:none;stroke:white;stroke-width:2.3px;"/>
        </g>
        <g id="g50" transform="matrix(1.14375,0,0,1.44473,1463.72,603.103)">
            <path id="path48" d="M263.458,338.727C270.085,342.865 284.075,339.352 291.98,336.216C296.64,334.368 297.432,331.681 296.711,331.681C295.155,331.681 283.887,332.035 282.385,331.619C278.976,330.676 274.329,327.976 271.485,325.809C265.452,321.212 258.687,302.232 232.596,308.835" style="fill:none;stroke:white;stroke-width:2.3px;"/>
        </g>
        <g id="g54" transform="matrix(1.22319,0,0,1.44473,1440.76,603.103)">
            <path id="path52" d="M351.347,268.935C340.538,274.966 338.066,300.926 350.922,295.569C360.767,291.467 367.944,263.402 351.347,268.935Z" style="fill:none;stroke:white;stroke-width:2.24px;"/>
        </g>
        <g id="g58" transform="matrix(1.22319,0,0,1.59676,1440.76,556.764)">
            <path id="path56" d="M350.067,307.202C357.069,309.755 364.869,318.24 366.53,320.72C368.691,323.946 378.702,332.31 378.702,336.454C378.702,339.783 362.649,349.876 359.956,351.935C358.759,352.85 349.793,361.675 349.014,360.502C342.372,350.493 350.211,361.995 341.473,361.393C340.292,361.312 339.667,360.912 339.751,357.635C339.788,356.189 343.866,352.729 343.458,352.147C343.154,351.713 342.567,350.832 342.567,350.832C342.567,350.832 345.954,348.79 347.699,347.863C350.142,346.566 357.957,344.991 359.278,342.35C360.87,339.165 356.141,326.321 354.019,323.137" style="fill:none;stroke:white;stroke-width:2.11px;"/>
        </g>
        <g id="g62" transform="matrix(1.22319,0,0,1.59676,1440.76,556.764)">
            <path id="path60" d="M350.067,307.202C333.53,301.978 326.851,330.676 325.899,335.521C323.597,347.249 321.586,359.016 319.41,370.766C319.121,372.328 316.227,380.906 317.46,382.344C317.474,382.36 331.727,382.844 335.23,383.15C339.8,383.548 344.39,383.681 348.972,383.871C350.995,383.955 363.194,385.56 365.13,383.447C366.517,381.934 365.296,375.812 365.258,374.031C365.09,366.324 365.046,358.625 365.046,350.917" style="fill:none;stroke:white;stroke-width:2.11px;"/>
        </g>
        <g id="g66" transform="matrix(1.22319,0,0,1.59676,1440.76,556.764)">
            <path id="path64" d="M329.21,384.407C326.246,393.877 328.731,407.317 327.511,417.334C326.832,422.913 323.955,420.722 320.471,425.307C320.055,425.854 319.843,426.402 320.216,427.046C322.124,430.332 330.767,430.431 332.346,426.834C332.551,426.367 333.257,421.32 332.219,421.32C331.787,421.32 334.719,427.227 335.272,427.725C336.454,428.788 341.972,427.243 343.373,427.046C344.015,426.956 347.523,426.936 347.869,426.071C349.036,423.154 347.472,416.854 347.572,413.686C347.875,404.102 349.396,394.697 349.396,385.101" style="fill:none;stroke:white;stroke-width:2.11px;"/>
        </g>
        <g id="g70" transform="matrix(2.12761,0,0,2.40106,703.09,80.0366)">
            <path id="path68" d="M350.406,379.821C344.15,383.041 348.91,402.943 355.224,399.811C358.071,398.398 358.781,394.526 358.847,391.744C359,385.315 358.193,378.199 350.406,379.821Z" style="fill:none;stroke:white;stroke-width:1.32px;"/>
        </g>
        <g id="g74" transform="matrix(2.12761,0,0,2.40106,703.09,80.0366)">
            <path id="path72" d="M358.626,406.625C344.388,406.842 341.706,410.625 339.91,413.934C336.692,419.863 332.556,431.493 329.272,437.38C328.424,438.899 329.256,440.663 330.151,440.7C334.992,440.897 334.396,438.657 336.922,434.167C337.62,432.925 338.341,431.696 339.011,430.438C339.156,430.165 342.699,423.227 342.978,423.693C344.806,426.74 344.083,432.774 343.957,436.124C343.544,447.064 341.077,457.679 339.17,468.418C338.697,471.077 334.886,482.443 339.011,483.943C340.667,484.545 342.007,482.449 342.74,481.298C345.178,477.474 346.021,472.972 347.607,468.788C348.155,467.342 351.005,456.498 353.167,457.673C357.219,459.875 354.996,475.445 355.118,479.182C355.149,480.134 354.342,483.829 356.044,483.758C362.483,483.489 363.506,472.584 364.597,467.968C367.294,456.556 366.454,445.313 366.078,433.691C365.842,426.406 365.352,416.125 370.04,408.35C373.662,402.344 381.728,386.486 384.37,387.591C386.87,388.637 386.129,382.549 386.724,379.921C386.821,379.491 387.64,377.37 387.068,377.012C385.26,375.882 380.035,382.159 379.266,383.016C375.636,387.06 368.722,396.645 365.264,402.846C363.703,405.646 358.626,406.026 358.626,406.625Z" style="fill:none;stroke:white;stroke-width:1.32px;"/>
        </g>
        <g id="g78" transform="matrix(0.744329,0,0,0.744329,427.879,218.724)">
            <path id="path76" d="M1351.6,1241.16C1351.6,1241.16 1391.83,1231.03 1417.09,1242.92" style="fill:none;stroke:white;stroke-width:4.03px;"/>
        </g>
        <g id="g82" transform="matrix(0.744329,0,0,0.744329,427.879,218.724)">
            <path id="path80" d="M1729.42,1237.14C1729.42,1237.14 1756.48,1246.63 1785.86,1237.14" style="fill:none;stroke:white;stroke-width:4.03px;"/>
        </g>
        <g id="g86" transform="matrix(0.744329,0,0,0.744329,427.879,218.724)">
            <path id="path84" d="M1310.94,1233.21C1310.94,1233.21 1297.53,1237.38 1307.83,1246.99C1318.12,1256.59 1321.08,1239.87 1320.71,1234.53" style="fill:none;stroke:white;stroke-width:4.03px;"/>
        </g>
        <g id="g90" transform="matrix(0.744329,0,0,0.744329,427.879,218.724)">
            <path id="path88" d="M1905.69,1137.76C1905.69,1137.76 1874.61,1163.52 1874.61,1177.71C1874.61,1191.9 1891.92,1208.01 1890.76,1213.05C1889.61,1218.09 1882.09,1204.07 1881.99,1212.51C1881.89,1220.94 1881.31,1227.45 1889.09,1225.15" style="fill:none;stroke:white;stroke-width:4.03px;"/>
        </g>
        <g id="g94" transform="matrix(2.85842,0,0,2.85842,427.16,-92.9294)">
            <path id="path92" d="M381.304,317.426C381.328,317.074 381.121,315.806 381.328,315.599C381.886,315.042 381.476,317.167 381.54,317.953C381.648,319.279 381.809,320.599 381.963,321.92C382.516,326.655 382.928,331.403 383.365,336.149C384.735,351.039 384.899,365.882 384.899,380.821" style="fill:none;stroke:white;stroke-width:1.05px;"/>
        </g>
        <g id="g98" transform="matrix(2.85842,0,0,2.85842,427.16,-92.9294)">
            <path id="path96" d="M383.945,314.148C383.979,313.227 384.256,316.145 384.264,316.247C384.371,317.507 384.479,318.768 384.582,320.029C384.965,324.749 385.166,329.481 385.481,334.205C386.268,346.019 386.535,357.853 387.174,369.673C387.3,372.019 389.457,379.413 386.407,380.067" style="fill:none;stroke:white;stroke-width:1.05px;"/>
        </g>
        <g id="g102" transform="matrix(2.85842,0,0,2.85842,403.191,-85.1806)">
            <path id="path100" d="M333.919,322.278C335.324,323.155 340.241,321.681 341.629,321.457C349.109,320.249 356.452,318.374 363.846,316.749C392.282,310.502 422.005,305.485 449.433,295.511" style="fill:none;stroke:white;stroke-width:1.05px;"/>
        </g>
        <g id="g106" transform="matrix(2.85842,0,0,2.85842,403.191,-85.1806)">
            <path id="path104" d="M332.965,324.071C334.325,320.776 330.421,312.024 329.781,309.132C327.276,297.824 327.18,286.164 324.755,274.881C324.073,271.705 323.353,268.543 322.481,265.413C322.233,264.524 321.007,261.949 321.502,260.996C322.04,259.962 327.218,259.741 328.061,259.594C335.311,258.332 342.556,257.085 349.776,255.653C379.361,249.788 408.502,241.837 438.272,236.875" style="fill:none;stroke:white;stroke-width:1.05px;"/>
        </g>
        <g id="g110" transform="matrix(2.85842,0,0,2.85842,403.191,-85.1806)">
            <path id="path108" d="M439.626,235.231C439.976,234.448 439.629,236.956 439.779,237.801C440.056,239.347 440.38,240.887 440.679,242.429C441.463,246.483 442.29,250.528 443.138,254.569C445.359,265.145 448.022,275.588 450.544,286.096C450.976,287.896 454.231,294.088 451.84,294.771" style="fill:none;stroke:white;stroke-width:1.05px;"/>
        </g>
        <g id="g114" transform="matrix(2.85842,0,0,2.85842,403.191,-85.1806)">
            <path id="path112" d="M357.716,267.474C359.711,270.938 359.938,276.619 360.566,280.489C360.795,281.897 360.835,284.508 362.259,285.381C364.656,286.85 370.978,281.352 372.442,282.816" style="fill:none;stroke:white;stroke-width:1.05px;"/>
        </g>
        <g id="g118" transform="matrix(2.85842,0,0,2.85842,403.191,-85.1806)">
            <path id="path116" d="M366.836,276.077C366.356,276.913 367.72,280.292 367.919,281.15C369.068,286.096 370.058,291.067 370.776,296.093" style="fill:none;stroke:white;stroke-width:1.05px;"/>
        </g>
        <g id="g122" transform="matrix(2.85842,0,0,2.85842,403.191,-85.1806)">
            <path id="path120" d="M381.481,273.429C380.584,275.491 380.437,277.826 380.456,280.118C380.469,281.801 380.568,283.509 380.852,285.17C381.602,289.554 385.781,293.621 388.999,288.423C391.287,284.726 391.143,279.999 388.946,276.363C387.882,274.603 383.938,268.798 381.481,273.429" style="fill:none;stroke:white;stroke-width:1.05px;"/>
        </g>
        <g id="g126" transform="matrix(2.85842,0,0,2.85842,403.191,-85.1806)">
            <path id="path124" d="M396.07,262.966C395.982,262.615 395.813,261.533 395.476,261.385C394.278,260.86 395.524,264.006 395.664,265.307C395.965,268.125 396.154,272.026 397.726,274.485C399.169,276.741 405.314,273.333 407.565,273.083" style="fill:none;stroke:white;stroke-width:1.05px;"/>
        </g>
        <g id="g130" transform="matrix(2.85842,0,0,2.85842,403.191,-85.1806)">
            <path id="path128" d="M402.572,264.572C402.156,263.786 402.819,266.334 402.963,267.211C403.326,269.419 403.628,271.635 403.942,273.85C404.829,280.11 405.51,286.522 406.64,292.734" style="fill:none;stroke:white;stroke-width:1.05px;"/>
        </g>
        <g id="g134" transform="matrix(2.12761,0,0,2.51295,1114.51,-522.174)">
            <path id="path132" d="M360.351,613.571C364.981,614.586 367.854,593.019 354.241,601.878" style="fill:none;stroke:white;stroke-width:1.29px;"/>
        </g>
        <g id="g138" transform="matrix(2.12761,0,0,2.51295,1114.51,-522.174)">
            <path id="path136" d="M301.073,602.048C300.884,601.52 294.464,597.245 293.562,602.819C293.191,605.11 294.081,608.5 296.62,609.346C297.75,609.723 299.052,609.667 300.222,609.585C301.13,609.522 303.013,609.782 303.772,609.559C304.261,609.415 304.134,607.861 304.104,607.551C303.892,605.337 302.499,603.667 301.073,602.048Z" style="fill:none;stroke:white;stroke-width:1.29px;"/>
        </g>
        <g id="g142" transform="matrix(2.12761,0,0,2.40106,1114.51,-443.373)">
            <path id="path140" d="M158.83,597.497C157.287,595.41 153.625,600.445 152.927,601.454C150.301,605.252 149.27,611.665 148.827,616.311C148.547,619.256 151.509,617.189 152.991,616.949C153.373,616.887 154.601,617.609 154.694,617.466C156.472,614.717 156.33,609.443 156.943,606.31" style="fill:none;stroke:white;stroke-width:1.32px;"/>
        </g>
        <g id="g146" transform="matrix(0.744329,0,0,0.744329,427.879,218.724)">
            <path id="path144" d="M1695.99,1174.81C1695.99,1174.81 1702.44,1191.08 1695.83,1192.8" style="fill:none;stroke:white;stroke-width:4.03px;"/>
        </g>
        <g id="g150" transform="matrix(0.744329,0,0,0.744329,427.879,218.724)">
            <path id="path148" d="M1839.05,1159.36C1839.05,1159.36 1837.71,1146.03 1845.38,1146.08C1853.04,1146.12 1857.76,1164.6 1839.05,1159.36Z" style="fill:none;stroke:white;stroke-width:4.03px;"/>
        </g>
        <g id="g154" transform="matrix(0.744329,0,0,0.744329,427.879,218.724)">
            <path id="path152" d="M1340.47,1375.12C1340.47,1375.12 1357.48,1376.2 1361.65,1375.12C1365.83,1374.04 1373.08,1371.26 1364.04,1365.26C1355,1359.26 1338.14,1357.51 1333.37,1359.5" style="fill:none;stroke:white;stroke-width:4.03px;"/>
        </g>
        <g id="g158" transform="matrix(0.744329,0,0,0.744329,427.879,218.724)">
            <path id="path156" d="M1386.67,1375.12C1386.67,1375.12 1397.39,1375.26 1405.89,1375.12C1414.39,1374.98 1416.63,1373.28 1413.3,1365.05C1409.98,1356.83 1387.81,1351.74 1384.81,1358.72" style="fill:none;stroke:white;stroke-width:4.03px;"/>
        </g>
        <g id="g162" transform="matrix(0.744329,0,0,0.744329,427.879,218.724)">
            <path id="path160" d="M1717.56,1365.31C1717.56,1365.31 1695.84,1364.89 1697.05,1375.12C1698.25,1385.35 1715.67,1387.17 1725.08,1382.8" style="fill:none;stroke:white;stroke-width:4.03px;"/>
        </g>
        <g id="g166" transform="matrix(0.744329,0,0,0.744329,427.879,218.724)">
            <path id="path164" d="M1770.04,1358.72C1770.04,1358.72 1740.27,1363.59 1750.98,1376.51C1761.69,1389.43 1772.9,1384 1779.03,1380.35C1785.15,1376.7 1770.04,1358.72 1770.04,1358.72Z" style="fill:none;stroke:white;stroke-width:4.03px;"/>
        </g>
    </g>
</svg>
