<?xml version="1.0" encoding="UTF-8" standalone="no"?>
<!DOCTYPE svg PUBLIC "-//W3C//DTD SVG 1.1//EN" "http://www.w3.org/Graphics/SVG/1.1/DTD/svg11.dtd">
<svg width="100%" height="100%" viewBox="0 0 800 800" version="1.1" xmlns="http://www.w3.org/2000/svg" xmlns:xlink="http://www.w3.org/1999/xlink" xml:space="preserve" xmlns:serif="http://www.serif.com/" style="fill-rule:evenodd;clip-rule:evenodd;stroke-linecap:round;stroke-linejoin:round;stroke-miterlimit:1.5;">
    <g>
        <g transform="matrix(2.71481,0,0,2.71481,-3263.91,-1086.58)">
            <g opacity="0.2">
                <g transform="matrix(0.671351,0,0,0.671351,652.193,-183.405)">
                    <path d="M918.341,1023.21C907.422,1040.19 909.097,1042.15 910.585,1067.29C910.899,1072.6 914.077,1101.61 920.058,1102.98C922.722,1103.58 923.419,1096.44 923.636,1095.19C924.918,1087.79 925.933,1079.11 930.257,1072.75C940.348,1057.91 958.27,1050.79 962.726,1032.03C964.229,1025.7 937.017,1009.67 918.341,1023.21Z" style="fill:rgb(86,96,255);"/>
                </g>
                <g transform="matrix(0.671351,0,0,0.671351,653.83,-185.77)">
                    <path d="M942.399,1079.56C940.935,1077.78 939.741,1078.36 937.846,1080.09C934.49,1083.16 931.71,1087.41 929.678,1091.45C925.81,1099.12 923.019,1107.41 919.448,1115.24C915.921,1122.97 911.419,1130.4 908.959,1138.58C907.383,1143.82 906.238,1153.64 912.808,1156.1C915.311,1157.03 921.314,1157.72 922.829,1154.84C926.299,1148.23 925.584,1138.95 927.825,1131.79C932.361,1117.31 939.759,1103.42 945.464,1089.37C946.537,1086.73 947.985,1074.83 941.336,1078.66" style="fill:rgb(86,96,255);"/>
                </g>
                <g transform="matrix(0.657811,-0.134156,0.134156,0.657811,508.484,-17.2561)">
                    <path d="M1111.97,1070.91C1107.07,1072.66 1105.06,1079.81 1102.98,1083.99C1097.1,1095.84 1091.28,1107.69 1086.03,1119.83C1083.2,1126.37 1080.57,1133.03 1078.89,1139.97C1078.54,1141.43 1076.98,1145.53 1077.61,1147.04C1078.03,1148.02 1078.75,1145.24 1079.29,1144.32C1079.8,1143.46 1081.59,1140.51 1082.05,1139.76C1085.54,1134.09 1089.18,1128.5 1093.2,1123.18C1104.65,1108 1120.47,1096.4 1130.55,1080.09C1133.94,1074.61 1139.63,1063.01 1129.38,1061.54C1127.73,1061.3 1126.64,1061.53 1125.1,1062.12" style="fill:rgb(86,96,255);"/>
                </g>
                <g transform="matrix(0.671351,0,0,0.671351,646.463,-185.77)">
                    <path d="M1158.7,1091.81C1156.22,1098.34 1153.15,1104.52 1150.07,1110.79C1147.24,1116.55 1144.32,1122.24 1141.16,1127.82C1138.72,1132.14 1136.4,1136.49 1134.14,1140.9C1134.06,1141.05 1131.24,1145.74 1132.13,1146.12C1133.09,1146.53 1135.05,1144.17 1135.43,1143.81C1138.33,1140.97 1140.99,1137.94 1143.38,1134.65C1147.66,1128.74 1151.33,1122.4 1155.61,1116.48C1159.71,1110.8 1164.56,1105.56 1166.58,1098.71C1168.01,1093.84 1173.01,1075.53 1161.65,1079.58" style="fill:rgb(86,96,255);"/>
                </g>
                <g transform="matrix(0.671351,0,0,0.671351,646.007,-398.097)">
                    <path d="M1030.55,1316.84C1029.59,1316.41 1029.11,1320.54 1029.06,1320.87C1028.22,1326.13 1028.07,1331.51 1028.28,1336.82C1028.69,1347.47 1030.02,1359.19 1035.57,1368.57C1037.05,1371.07 1040.54,1376.09 1043.91,1376.27C1046.55,1376.4 1048.46,1368.23 1048.93,1366.57C1051.3,1358.19 1047.25,1359 1043.71,1351.71C1040.93,1345.99 1039.71,1339.36 1037.91,1333.29C1036.65,1329.06 1035.62,1324.11 1033.33,1320.3C1032.53,1318.96 1030.5,1315.85 1029.8,1317.24" style="fill:rgb(86,96,255);"/>
                </g>
            </g>
        </g>
        <g transform="matrix(2.71481,0,0,2.71481,-3263.91,-1086.58)">
            <g transform="matrix(0.462147,0,0,0.462147,831.699,22.2424)">
                <path d="M943.461,1154.77C943.486,1155.74 944.167,1156.17 943.984,1155.15C941.797,1142.88 938.187,1130.9 936.135,1118.56C932.759,1098.25 925.751,1057.58 927.443,1037.07C927.825,1032.44 946.268,1031.75 948.326,1031.59C966.101,1030.25 984.007,1031.13 1001.81,1030.05C1008.26,1029.66 1019.47,1026.21 1025.7,1028.97C1030.62,1031.15 1038.74,1060.47 1040.57,1065.29C1054.52,1102.06 1059,1140.51 1063.17,1179.29C1064.28,1189.63 1065.5,1199.92 1067.16,1210.18C1067.37,1211.48 1069.37,1219.36 1068.09,1220.39C1068.05,1220.42 1040.44,1216.85 1039.42,1216.68C1026,1214.44 1011.55,1216 998.384,1212.62C988.18,1210 978.914,1203.42 969.148,1200.31" style="fill:none;stroke:white;stroke-width:2.39px;"/>
            </g>
            <g transform="matrix(0.462147,0,0,0.462147,831.699,22.2424)">
                <path d="M988.969,1123.74C989.422,1124.7 982.395,1124.94 982.106,1124.93C975.141,1124.8 966.152,1121.1 959.381,1122.54C957.954,1122.85 958.809,1125.41 958.365,1126.8C955.849,1134.68 953.059,1142.41 949.752,1150C939.769,1172.91 926.93,1195.7 922.773,1220.67C920.869,1232.11 938.404,1239.06 933.033,1243.25C927.994,1247.19 899.223,1244.66 890.189,1248.07" style="fill:none;stroke:white;stroke-width:2.39px;"/>
            </g>
            <g transform="matrix(0.462147,0,0,0.462147,831.699,22.2424)">
                <path d="M989.295,1123.11C988.391,1129.51 980.327,1134.61 978.066,1141.17C970.012,1164.54 964.154,1188.58 959.694,1212.87C958.913,1217.12 953.648,1242.26 955.945,1243.98C969.925,1254.44 1002.29,1240.31 1019.74,1244.94" style="fill:none;stroke:white;stroke-width:2.39px;"/>
            </g>
            <g transform="matrix(0.462147,0,0,0.462147,831.699,22.2424)">
                <path d="M1027.65,1034.03C1028.12,1032.02 1028.25,1038.12 1028.6,1040.16C1029.33,1044.42 1030.24,1048.62 1031.19,1052.84C1034.33,1066.66 1036.81,1080.53 1039.69,1094.4C1045.18,1120.83 1051.02,1147.19 1056.19,1173.68C1058.26,1184.3 1063.35,1198.95 1061.47,1210.08C1061.41,1210.44 1056.51,1207.77 1055.58,1207.52C1051.19,1206.3 1045.92,1206.51 1041.4,1206.37C1017.45,1205.63 993.654,1198.51 971.105,1191.31" style="fill:none;stroke:white;stroke-width:2.39px;"/>
            </g>
            <g transform="matrix(0.462147,0,0,0.462147,831.699,22.2424)">
                <path d="M1211.15,1015.82C1211.15,1015.82 1211.47,1018.61 1211.47,1019.36C1211.48,1021.28 1211.44,1023.2 1211.31,1025.12C1210.96,1030.54 1210.09,1035.91 1207.94,1040.93C1205.36,1046.97 1201.19,1050.92 1197.76,1055.62C1197.21,1056.38 1199.55,1056.19 1200.43,1056.51C1202.19,1057.16 1203.96,1057.77 1205.71,1058.44C1206.6,1058.78 1208.73,1058.37 1208.44,1059.27C1206.75,1064.55 1208.3,1070.66 1208.28,1076.06C1208.28,1076.5 1207.87,1081.11 1208.55,1081.23C1211.24,1081.68 1215.85,1080.04 1218.58,1079.72" style="fill:none;stroke:white;stroke-width:2.39px;"/>
            </g>
            <g transform="matrix(0.462147,0,0,0.462147,831.699,22.2424)">
                <path d="M1213.26,1010.73C1212.08,1010.1 1215.16,1006.88 1215.56,1006.45C1219.28,1002.41 1223.52,1000.15 1228.69,998.431C1242.19,993.951 1257.66,991.097 1269.58,1000.84C1284.85,1013.33 1287.26,1048.24 1281.61,1065.93C1279.43,1072.76 1275.38,1079.12 1271.55,1085.12" style="fill:none;stroke:white;stroke-width:2.39px;"/>
            </g>
            <g transform="matrix(0.462147,0,0,0.462147,831.699,22.2424)">
                <path d="M1227,1080.68C1227.15,1080.2 1228.11,1086.37 1228.14,1087.24C1228.29,1091.67 1228.12,1096.75 1224.2,1099.58C1215.43,1105.92 1203.04,1099.23 1196.69,1110.42C1191.74,1119.15 1190.38,1130.31 1188.28,1139.97C1184.12,1159.05 1180.12,1179.9 1167.52,1195.49C1158.26,1206.94 1143.14,1208.88 1129.46,1211.65C1124.99,1212.55 1120.52,1213.47 1116.05,1214.37C1115.15,1214.55 1108.63,1216.65 1109.31,1216.76" style="fill:none;stroke:white;stroke-width:2.39px;"/>
            </g>
            <g transform="matrix(0.462147,0,0,0.462147,831.699,22.2424)">
                <path d="M1110.14,1210.2C1101.95,1206 1090.26,1212.5 1083.8,1216.98C1081.85,1218.33 1078.53,1220.59 1078.15,1223.24C1077.74,1226.15 1085.34,1226.75 1086.97,1227.04C1094.56,1228.4 1102.96,1231.12 1110.49,1228.45" style="fill:none;stroke:white;stroke-width:2.39px;"/>
            </g>
            <g transform="matrix(0.462147,0,0,0.462147,831.699,22.2424)">
                <path d="M1289.8,1122.55C1291.05,1118.92 1284.33,1128.58 1284.25,1128.71C1281.37,1134.22 1278.74,1139.88 1276.25,1145.58C1267.47,1165.61 1260.38,1186.54 1249.57,1205.64C1237.98,1226.11 1216.44,1223.65 1196.09,1224.28C1190.27,1224.46 1182.89,1223.84 1177.5,1226.45C1172.09,1229.08 1171.29,1234.84 1168.18,1239.46C1167.11,1241.05 1164.31,1242.73 1163.74,1244.51" style="fill:none;stroke:white;stroke-width:2.39px;"/>
            </g>
            <g transform="matrix(0.462147,0,0,0.462147,831.699,22.2424)">
                <path d="M1166.4,1245.78C1164.75,1242.38 1175.38,1241.89 1176.46,1242.02C1182.24,1242.71 1186.26,1247 1191.61,1248.45C1197.08,1249.94 1202.84,1247.66 1208.29,1247.27" style="fill:none;stroke:white;stroke-width:2.39px;"/>
            </g>
            <g transform="matrix(0.462147,0,0,0.462147,831.699,22.2424)">
                <path d="M1173.02,1244.12C1169.3,1243.83 1165.38,1251.02 1167.24,1254.07C1171.81,1261.57 1193.25,1259.04 1196.38,1250.84" style="fill:none;stroke:white;stroke-width:2.39px;"/>
            </g>
            <g transform="matrix(0.462147,0,0,0.462147,831.699,22.2424)">
                <path d="M1206.26,1243.19C1207.66,1244.48 1214.91,1243.87 1216.72,1243.98C1225.57,1244.49 1234.29,1245.09 1243.16,1244.43C1253.17,1243.69 1268.63,1241.81 1275.77,1233.54C1279.66,1229.04 1282.12,1214.58 1284.6,1208.59C1293.13,1187.92 1302.55,1167.98 1309.24,1146.57C1314.84,1128.62 1319.4,1104.31 1298.61,1094.42C1295.17,1092.79 1291.64,1092.31 1287.91,1091.87" style="fill:none;stroke:white;stroke-width:2.39px;"/>
            </g>
            <g transform="matrix(0.462147,0,0,0.462147,831.699,22.2424)">
                <path d="M891.583,1279.16C901.671,1273.06 919.255,1277.81 929.749,1278.36C958.648,1279.88 987.751,1280.27 1016.69,1280.49C1099.85,1281.1 1183.34,1278.33 1266.52,1277.75C1292.61,1277.57 1318.87,1273.77 1344.93,1275.25" style="fill:none;stroke:white;stroke-width:2.39px;"/>
            </g>
            <g transform="matrix(0.462147,0,0,0.462147,831.699,22.2424)">
                <path d="M885.604,1240.31C884.743,1240.44 887.309,1239.96 888.164,1239.8C889.705,1239.5 891.229,1239.3 892.79,1239.13C897.533,1238.61 901.939,1238.9 906.68,1239.17" style="fill:none;stroke:white;stroke-width:2.39px;"/>
            </g>
            <g transform="matrix(0.462147,0,0,0.462147,831.699,22.2424)">
                <path d="M1282.42,1060.52C1299.91,1066.63 1325.65,1052.99 1340.26,1068.22C1348.76,1077.08 1340.36,1102.55 1338.65,1112.6C1331.46,1154.84 1316.45,1198.4 1300.14,1237.98" style="fill:none;stroke:white;stroke-width:2.39px;"/>
            </g>
            <g transform="matrix(0.462147,0,0,0.462147,831.699,22.2424)">
                <path d="M1279.37,1243.33C1279.21,1242.55 1280.97,1243.48 1281.77,1243.4C1286.33,1242.96 1290.84,1242.21 1295.41,1241.83C1315.7,1240.14 1335.59,1244.91 1355.85,1243.85" style="fill:none;stroke:white;stroke-width:2.39px;"/>
            </g>
            <g transform="matrix(0.462147,0,0,0.462147,831.699,22.2424)">
                <path d="M1222.56,1104.29C1222.61,1103.18 1222.43,1101.96 1222.12,1100.89C1221.35,1098.2 1222.9,1108.46 1223.03,1109.03C1224.68,1116.1 1226.47,1125.77 1235.47,1125.37C1250.24,1124.73 1260.7,1107.81 1269.85,1098.21C1270.59,1097.44 1280.25,1087.37 1278.7,1085.87C1278.59,1085.75 1277.06,1087.84 1276.94,1087.98C1275.5,1089.74 1274.03,1091.5 1272.53,1093.21C1268.6,1097.69 1264.3,1101.86 1260.07,1106.06C1255.89,1110.22 1238.78,1125.41 1231.8,1118.91C1227.88,1115.25 1226.11,1109.32 1222.5,1105.29" style="fill:none;stroke:white;stroke-width:2.39px;"/>
            </g>
            <g transform="matrix(0.462147,0,0,0.462147,831.699,22.2424)">
                <path d="M1223.15,1000.8C1223.76,998.622 1222.85,997.51 1221.3,999.235C1215.59,1005.59 1197.89,1028.36 1198.06,1036.45C1198.12,1039.47 1209.32,1031.97 1210.26,1031.8C1213.5,1031.22 1219.42,1039.77 1222.17,1039.24C1225.08,1038.68 1225.52,1033.27 1228.66,1033.09C1233.99,1032.79 1233.18,1041.23 1236.6,1042.96C1238.36,1043.85 1244.15,1040.96 1246.75,1041.74C1250.85,1042.96 1253.66,1054.51 1257.52,1051.36C1260.47,1048.95 1262.96,1047.61 1266.07,1045.74" style="fill:none;stroke:white;stroke-width:2.39px;"/>
            </g>
            <g transform="matrix(0.462147,0,0,0.462147,831.699,22.2424)">
                <path d="M1248.78,1051.26C1254.97,1040.96 1267.24,1059.64 1255.22,1070.14" style="fill:none;stroke:white;stroke-width:2.39px;"/>
            </g>
            <g transform="matrix(0.619861,0,0,0.619861,487.012,-329.359)">
                <path d="M1368.95,1332.74C1368.99,1332.12 1369.06,1330.26 1369,1330.87C1368.28,1338.06 1370.28,1346.68 1371.83,1353.6C1372.18,1355.16 1372.58,1356.71 1373,1358.26C1375.3,1366.64 1380.23,1384.47 1392.56,1378.43C1394.73,1377.37 1396.44,1375.85 1398.17,1374.21" style="fill:none;stroke:white;stroke-width:1.78px;"/>
            </g>
            <g transform="matrix(0.619861,0,0,0.619861,487.012,-329.359)">
                <path d="M1369.84,1319.75C1368.54,1318.78 1367.47,1322.69 1367.35,1323.21C1366.02,1328.89 1366.68,1335.12 1367.05,1340.87C1368,1355.73 1370.61,1371.44 1367.47,1386.19" style="fill:none;stroke:white;stroke-width:1.78px;"/>
            </g>
            <g transform="matrix(0.619861,0,0,0.619861,487.012,-329.359)">
                <path d="M1367.18,1315.22C1368.01,1314.09 1367.77,1316.82 1367.77,1317.08C1367.8,1319.62 1367.7,1322.15 1367.7,1324.69C1367.67,1330.85 1367.95,1342.22 1373.46,1346.5C1376.05,1348.51 1378.36,1341.95 1379.45,1340.45C1379.61,1340.22 1380.99,1338 1381.61,1338.49C1382.33,1339.06 1382.55,1341.31 1382.9,1342.11C1383.92,1344.39 1385.89,1347.51 1388.55,1348.13C1391.89,1348.91 1394.81,1345.5 1397.6,1344.15C1398.09,1343.92 1399.71,1342.91 1400.31,1343.11C1400.77,1343.27 1401.14,1344.96 1401.26,1345.3C1402.07,1347.57 1402.78,1349.88 1403.56,1352.16C1407.26,1363.01 1409.17,1372.5 1407.44,1384.03" style="fill:none;stroke:white;stroke-width:1.78px;"/>
            </g>
            <g transform="matrix(0.619861,0,0,0.619861,487.012,-329.359)">
                <path d="M1371.85,1319.02C1372.86,1315.75 1378.22,1313.37 1380.83,1312.01C1391.02,1306.67 1404.71,1304.4 1412.62,1314.73C1415.89,1319 1418.05,1324.18 1419.9,1329.18C1426.77,1347.76 1424.08,1365.15 1414.51,1382.05" style="fill:none;stroke:white;stroke-width:1.78px;"/>
            </g>
            <g transform="matrix(0.619861,0,0,0.619861,487.012,-329.359)">
                <path d="M1380.7,1351.19C1381.81,1353.47 1379.41,1359.8 1378.94,1362.12" style="fill:none;stroke:white;stroke-width:1.78px;"/>
            </g>
            <g transform="matrix(0.619861,0,0,0.619861,487.012,-329.359)">
                <path d="M1378.25,1363.75C1378.06,1363.64 1378.67,1363.76 1378.88,1363.78" style="fill:none;stroke:white;stroke-width:1.78px;"/>
            </g>
            <g transform="matrix(0.671351,0,0,0.671351,475.97,-394.172)">
                <path d="M1294.56,1370.59C1294.53,1385.65 1289.55,1385.25 1287,1387.18" style="fill:none;stroke:white;stroke-width:1.65px;"/>
            </g>
            <g transform="matrix(0.671351,0,0,0.671351,483.61,-394.91)">
                <path d="M1271.46,1387.08C1264.8,1387.32 1256.43,1390.95 1254.57,1397.41C1248.13,1419.8 1249.5,1415.57 1249.58,1415.62" style="fill:none;stroke:white;stroke-width:1.65px;"/>
            </g>
            <g transform="matrix(0.671351,0,0,0.671351,473.839,-392.478)">
                <path d="M1328.91,1387.73C1328.94,1387.87 1331.96,1386.77 1332.29,1386.83C1333.82,1387.07 1334.78,1388.39 1335.54,1389.6C1339.8,1396.35 1341.08,1405.38 1342.37,1413.09C1343.59,1420.42 1343.2,1421.77 1343.99,1429.15" style="fill:none;stroke:white;stroke-width:1.65px;"/>
            </g>
            <g transform="matrix(0.671351,0,0,0.671351,475.97,-394.172)">
                <path d="M1319.08,1449.83C1319.24,1448.59 1321.58,1422.61 1319.96,1421.8" style="fill:none;stroke:white;stroke-width:1.65px;"/>
            </g>
            <g transform="matrix(0.671351,0,0,0.671351,475.97,-394.172)">
                <path d="M1287.58,1386.44C1277.93,1381.24 1294.27,1403.4 1298.45,1403.86C1306.08,1404.71 1319.23,1393.65 1325.14,1389.23" style="fill:none;stroke:white;stroke-width:1.65px;"/>
            </g>
        </g>
    </g>
</svg>
