<?xml version="1.0" encoding="UTF-8" standalone="no"?>
<!DOCTYPE svg PUBLIC "-//W3C//DTD SVG 1.1//EN" "http://www.w3.org/Graphics/SVG/1.1/DTD/svg11.dtd">
<svg width="100%" height="100%" viewBox="0 0 414 327" version="1.1" xmlns="http://www.w3.org/2000/svg" xmlns:xlink="http://www.w3.org/1999/xlink" xml:space="preserve" xmlns:serif="http://www.serif.com/" style="fill-rule:evenodd;clip-rule:evenodd;stroke-linecap:round;stroke-linejoin:round;stroke-miterlimit:1.5;">
    <g transform="matrix(1.69276,0,0,1.69276,-544.027,-134.853)">
        <g transform="matrix(0.395687,-0.0781744,0.0804705,0.407309,63.4394,70.645)">
            <path d="M838.246,400.654C839.376,386.317 859.964,389.387 863.571,401.581C870.446,424.821 869.369,475.583 864.087,476.326C855.433,477.545 837.64,408.331 838.246,400.654Z" style="fill:rgb(95,116,255);fill-opacity:0.12;"/>
        </g>
        <g transform="matrix(1.40791,-4.50653,2.56149,0.800249,-2594.07,4967.71)">
            <path d="M1137.68,513.762C1138.15,516.48 1149.9,578.543 1146.73,570.914C1145.46,567.875 1139.4,543.365 1137.69,538.812C1135.62,533.291 1136.77,508.442 1137.68,513.762Z" style="fill:rgb(89,248,232);fill-opacity:0.2;"/>
        </g>
        <g transform="matrix(-5.42055,-0.119622,-0.0592076,2.68294,6577.24,-1066.66)">
            <path d="M1137.68,513.762C1138.15,516.48 1139.4,543.365 1137.69,538.812C1135.62,533.291 1136.77,508.442 1137.68,513.762Z" style="fill:rgb(89,248,232);fill-opacity:0.2;"/>
        </g>
        <g transform="matrix(-5.42055,-0.119622,-0.0592076,2.68294,6750.93,-1124.36)">
            <path d="M1137.68,513.762C1137.86,514.78 1137.81,524.613 1139.61,530.687C1140.64,534.163 1143.98,533.865 1144,536.414C1144.03,541.305 1138.39,540.683 1137.69,538.812C1135.62,533.291 1136.77,508.442 1137.68,513.762Z" style="fill:rgb(89,248,232);fill-opacity:0.2;"/>
        </g>
        <g transform="matrix(-0.700073,0,0,0.747098,986.795,47.0146)">
            <path d="M795.142,131.513C788.692,137.306 787.738,149.443 792.582,150.711C797.403,151.973 802.16,147.269 804.471,141.963" style="fill:none;stroke:rgb(95,116,255);stroke-width:1.96px;"/>
        </g>
        <g transform="matrix(-0.700073,0,0,0.747098,992.263,45.4513)">
            <path d="M806.422,158.878C799.154,155.601 792.331,162.165 790.342,167.177C788.129,172.754 783.663,180.601 783.69,200.639C783.694,203.809 783.09,208.296 783.308,208.281C784.364,208.212 789.322,207.81 791.089,207.613C796.722,206.988 806.127,205.764 811.792,205.517" style="fill:none;stroke:rgb(104,124,255);stroke-width:1.96px;"/>
        </g>
        <g transform="matrix(-0.700073,0,0,0.747098,992.263,45.4513)">
            <path d="M784.582,208.027C780.783,225.71 790.342,247.891 790.342,266.166" style="fill:none;stroke:rgb(104,124,255);stroke-width:1.96px;"/>
        </g>
        <g transform="matrix(-0.563145,0,0,0.693972,883.319,57.9862)">
            <path d="M801.42,241.028C799.419,250.177 798.047,269.496 798.047,269.496L799.733,269.108C787.471,271.203 782.717,265.008 777.807,268.445C774.094,271.044 777.932,274.825 780.793,276.03C786.517,278.44 792.91,276.743 796.155,276.185" style="fill:none;stroke:rgb(104,124,255);stroke-width:2.24px;"/>
        </g>
        <g transform="matrix(-0.542437,0,0,0.542437,1134.18,-612.33)">
            <path d="M1300.53,1578.95C1300.53,1578.95 1309.91,1579.98 1312.27,1578.95" style="fill:none;stroke:rgb(95,116,255);stroke-width:2.61px;"/>
        </g>
        <g transform="matrix(-0.700073,0,0,0.747098,992.263,45.4513)">
            <path d="M798.662,223.95C799.435,224.417 799.745,236.564 800.245,240.348C801.065,246.559 802.164,252.552 803.507,258.66C803.959,260.719 804.331,262.799 804.725,264.869C804.947,266.033 805.917,269.244 805.079,268.406C799.517,262.844 786.966,271.74 798.359,273.986C804.417,275.181 814.1,272.42 814.1,272.42C814.1,272.42 813.918,260.281 814.431,248.993C814.756,241.858 815.974,218.129 810.967,202.692" style="fill:none;stroke:rgb(104,124,255);stroke-width:1.96px;"/>
        </g>
        <g transform="matrix(-0.700073,0,0,0.747098,992.263,45.4513)">
            <path d="M806.422,158.878C808.02,160.158 818.825,164.193 822.998,169.77C826.404,174.322 814.591,193.506 809.523,196.04" style="fill:none;stroke:rgb(95,116,255);stroke-width:1.96px;"/>
        </g>
        <g transform="matrix(-0.700073,0,0,0.747098,992.263,45.4513)">
            <path d="M805.555,196.813C806.037,198.66 807.128,200.306 808.065,201.218C809.369,202.487 813.569,203.967 815.014,200.779C816.743,196.962 810.142,196.273 809.952,196.178C808.182,195.293 804.018,198.195 804.018,196.217C804.018,190.742 812.842,177.793 810.743,176.408" style="fill:none;stroke:rgb(95,116,255);stroke-width:1.96px;"/>
        </g>
        <g transform="matrix(-0.734326,0.351802,0.375433,0.783651,954.388,-243.694)">
            <path d="M811.076,175.81C810.219,175.245 808.937,174.771 807.403,174.687" style="fill:none;stroke:rgb(95,116,255);stroke-width:1.68px;"/>
        </g>
        <g transform="matrix(-0.700073,0,0,0.747098,992.263,45.4513)">
            <path d="M791.647,164.408C786.786,168.427 778.279,172.446 777.569,175.996C776.686,180.413 782.023,188.152 781.736,193.309C781.702,193.927 781.656,193.246 781.108,192.956C778.99,191.834 775.468,195.295 775.409,197.278C775.293,201.223 780.575,200.359 782.208,198.182" style="fill:none;stroke:rgb(104,124,255);stroke-width:1.96px;"/>
        </g>
        <g transform="matrix(-0.825764,0.329266,0.30624,0.768016,1043.66,-217.787)">
            <path d="M804.961,137.511C811.51,133.641 794.769,116.03 791.035,128.534C788.859,135.819 798.282,132.438 804.961,137.511Z" style="fill:none;stroke:rgb(95,116,255);stroke-width:1.65px;"/>
        </g>
        <g transform="matrix(1.5842,-0.357152,0.367734,1.63114,-860.762,199.519)">
            <path d="M745.285,128.602C744.164,129.642 744.012,132.599 743.966,132.949C743.439,136.991 746.785,141.079 750.822,138.01C755.739,134.273 752.098,122.285 745.285,128.602Z" style="fill:none;stroke:rgb(95,116,255);stroke-width:0.86px;"/>
        </g>
        <g transform="matrix(1.66777,0,0,1.67207,-869.092,-72.7887)">
            <path d="M748.501,141.426C750.721,141.44 754.877,140.871 755.559,140.671C759.24,139.588 764.089,138.169 766.719,135.134C767.482,134.254 767.062,126.345 769.768,129.64C771.336,131.549 769.539,134.272 766.976,134.426C766.901,134.43 769.07,134.45 769.12,134.55C769.936,136.184 766.491,139.475 765.659,140.195C761.166,144.085 756.794,146.451 751.402,148.762" style="fill:none;stroke:rgb(95,116,255);stroke-width:0.85px;"/>
        </g>
        <g transform="matrix(1.66777,0,0,1.67207,-869.092,-72.7887)">
            <path d="M748.501,141.426C745.365,140.57 741.995,142.027 740.419,144.131C737.947,147.432 734.513,157.103 732.605,162.513C731.18,166.554 735.201,163.571 735.942,162.364C736.459,161.52 736.981,160.68 737.456,159.812C737.513,159.707 741.186,152.239 741.153,152.255" style="fill:none;stroke:rgb(95,116,255);stroke-width:0.85px;"/>
        </g>
        <g transform="matrix(1.66777,0,0,1.67207,-869.092,-72.7887)">
            <path d="M737.997,158.665C737.319,159.004 737.643,164.906 737.607,165.565C737.27,171.866 735.705,191.571 737.607,192.194C739.098,192.682 740.751,189.72 741.85,189.385C742.74,189.114 744.696,180.484 744.809,176.811C744.816,176.615 745.009,172.443 744.788,172.443C744.632,172.443 744.387,176.329 744.377,176.487C744.193,179.513 744.539,188.396 745.417,191.336C745.805,192.633 746.908,190.713 748.501,189.404C751.316,187.089 751.234,180.278 751.817,176.984C753.652,166.614 752.527,156.583 751.06,146.316" style="fill:none;stroke:rgb(95,116,255);stroke-width:0.85px;"/>
        </g>
        <g transform="matrix(2.29582,0,0,2.73509,-856.695,-959.686)">
            <path d="M526.465,424.121C526.465,424.121 524.176,423.81 524.154,424.755C524.133,425.701 526.136,426.913 527.168,425.255" style="fill:none;stroke:rgb(95,116,255);stroke-width:0.56px;"/>
        </g>
        <g transform="matrix(1.66777,0,0,1.67207,-869.092,-72.7887)">
            <path d="M737.607,165.152C740.542,165.113 750.795,163.37 752.771,163.37" style="fill:none;stroke:rgb(95,116,255);stroke-width:0.85px;"/>
        </g>
        <g transform="matrix(1.66777,0,0,1.67207,-869.092,-72.7887)">
            <path d="M740.401,190.567C742.926,186.877 746.402,193.137 742.093,193.267C740.944,193.302 739.991,192.219 739.404,192.219" style="fill:none;stroke:rgb(95,116,255);stroke-width:0.85px;"/>
        </g>
        <g transform="matrix(1.66777,0,0,1.67207,-857.562,-72.7887)">
            <path d="M740.401,190.567C742.926,186.877 746.402,193.137 742.093,193.267C740.944,193.302 739.991,192.219 739.404,192.219" style="fill:none;stroke:rgb(95,116,255);stroke-width:0.85px;"/>
        </g>
        <g transform="matrix(1.5842,-0.357152,0.367734,1.63114,-630.108,-298.476)">
            <path d="M544.962,387.691C544.962,387.691 545.13,389.286 542.504,390.896C539.878,392.505 541.135,390.508 541.135,390.508C541.135,390.508 537.876,398.042 535.889,399.418" style="fill:none;stroke:rgb(95,116,255);stroke-width:0.86px;"/>
        </g>
        <g transform="matrix(1.70991,0,0,1.60266,-545.218,-477.759)">
            <path d="M561.799,387.738C561.799,387.738 565.964,381.506 568.212,380.172" style="fill:none;stroke:rgb(95,116,255);stroke-width:0.86px;"/>
        </g>
        <g transform="matrix(0.825492,0,0,0.825492,66.8387,-251.827)">
            <path d="M479.354,448.979C479.063,448.708 481.79,447.707 482.163,447.587C486.184,446.286 490.143,444.858 494.114,443.404C503.18,440.082 512.105,436.445 521.137,433.046C524.022,431.96 594.418,406.121 596.364,406.554C599.209,407.186 598.991,435.193 598.953,438.225C598.558,469.852 599.087,502.834 599.087,534.339C570.297,536.139 549.021,534.855 519.743,533.105C510.537,532.554 477.577,532.956 478.312,532.573L479.354,448.979Z" style="fill:none;stroke:rgb(86,96,255);stroke-width:1.72px;"/>
        </g>
        <g transform="matrix(0.874899,0,0,0.874899,40.5803,-275.316)">
            <path d="M479.354,448.979C479.063,448.708 481.79,447.707 482.163,447.587C486.184,446.286 490.143,444.858 494.114,443.404C503.18,440.082 512.105,436.445 521.137,433.046C524.022,431.96 594.418,406.121 596.364,406.554C599.209,407.186 598.991,435.193 598.953,438.225C598.558,469.852 599.087,502.834 599.087,534.339C570.297,536.139 549.021,534.855 519.743,533.105C510.537,532.554 477.577,532.956 478.312,532.573L479.354,448.979Z" style="fill:none;stroke:rgb(86,96,255);stroke-width:1.62px;"/>
        </g>
    </g>
    <g transform="matrix(0.0898376,-0.0331322,0.0331322,0.0898376,96.8518,92.6324)">
        <g>
            <g>
                <clipPath id="_clip1">
                    <path d="M1487.62,254.962C1485,249.781 1527.4,249.85 1533.11,250.081C1594.74,252.573 1656.15,253.023 1717.87,253.157C1858.77,253.463 1999.33,248.728 2140.17,247.796C2185.14,247.498 3279.48,249.186 3303.94,264.934C3339.71,287.959 3195.3,670.32 3179.47,711.646C3014.35,1142.69 2855.05,1596.94 2695.96,2028.32C2292.69,1907.58 2007.86,1782.56 1615.82,1610.76C1492.55,1556.73 1039.24,1395.79 1051.23,1394.27L1487.62,254.962Z"/>
                </clipPath>
                <g clip-path="url(#_clip1)">
                    <path d="M1883.45,1312.31C1856.66,1306.96 1836.11,1332.24 1826.96,1338.34C1826.77,1338.47 1825.76,1339.35 1825.49,1339.17C1823.59,1337.91 1828.17,1313.76 1815.64,1324.36C1807.85,1330.95 1829.32,1347.1 1800.65,1366.22C1798.39,1367.72 1796.88,1363.41 1796.33,1362.08C1792.42,1352.71 1762.25,1324.95 1752.26,1334.94C1739.27,1347.92 1805.38,1350.98 1788.69,1382.96C1786.03,1388.06 1763.12,1407.1 1757.32,1405.31C1751.39,1403.49 1761.94,1380.32 1746.28,1390.5C1738.89,1395.31 1752.8,1402.83 1750.24,1408.99C1746.26,1418.54 1698.73,1437.71 1691.08,1435.03C1675.73,1429.66 1708.79,1391.05 1686.58,1392.16C1673.74,1392.8 1691.79,1428.57 1678.2,1436.87C1673.95,1439.47 1651.44,1436.8 1646.56,1435.67C1646.01,1435.55 1645.1,1435.27 1644.72,1434.75C1641.88,1430.89 1656.12,1414.7 1641.68,1414.7C1625.1,1414.7 1641.87,1433.83 1638.92,1438.62C1638.78,1438.84 1607.77,1440.67 1603.5,1439.81L1601.41,1441.16C1602.25,1436.95 1601.8,1433.18 1603.97,1429.21C1609.26,1419.55 1632.46,1403.83 1642.16,1397.61C1645.32,1395.58 1662.74,1384 1662.46,1380.85C1661.39,1368.69 1644.17,1381.06 1640.59,1383.94C1635.96,1387.67 1631.97,1392.22 1627.22,1395.79C1622.72,1399.16 1615.83,1400.56 1612.13,1404.83C1604.29,1413.88 1599.22,1425.5 1588.83,1431.82C1573.56,1441.1 1553.02,1437.23 1536.57,1434.13C1530.68,1433.02 1522.38,1433.46 1517.6,1429.21C1512.36,1424.56 1522.79,1411.73 1511.55,1408.42C1502.6,1405.79 1488.29,1408.84 1479.21,1410.14C1474.01,1410.88 1469.05,1413.51 1467.41,1410.07C1475.38,1394.13 1469.75,1354.49 1466.27,1337.35C1463.07,1321.61 1456.33,1305.22 1462.16,1289.08C1464.06,1283.85 1468.96,1280.88 1472.39,1276.78C1480.98,1266.52 1491.17,1256.07 1495.69,1243.46C1497.8,1237.59 1501.07,1231.37 1501.72,1225.14C1501.93,1223.07 1502.34,1221 1502.96,1219.01C1503.12,1218.51 1503.94,1216.42 1503.83,1216.48C1506.73,1209.73 1518.17,1206.33 1518.17,1198.62C1518.17,1192.1 1503.32,1184.15 1508.97,1178.92C1519.04,1169.6 1542.63,1196.92 1548.32,1173.46C1549.36,1169.14 1544.65,1161.33 1539.55,1162.58C1533.43,1164.07 1515.78,1180.08 1514.6,1165.34C1513.25,1148.44 1551.08,1090.14 1557.63,1080.96C1563.38,1072.91 1581.49,1083.18 1582.36,1067.22C1582.59,1063 1578.39,1050.5 1572.13,1053.8C1565.73,1057.17 1560.62,1076.91 1557.09,1073.71C1553.66,1070.61 1558.48,1063.47 1560.17,1060.72C1566.25,1050.87 1567.43,1003.74 1570.08,979.468C1573.93,944.025 1633.39,760.9 1656.86,744.73C1677.08,730.795 1693.63,751.036 1702.39,729.697C1704.84,723.728 1699.35,715.287 1692.75,716.288C1682.23,717.88 1684.72,727.503 1672.19,724.045C1670.69,723.632 1668.48,723.279 1668.09,721.496C1665.2,708.526 1678.39,692.149 1683.38,680.99C1684.7,678.033 1805.06,569.909 1806.46,535.228C1807.62,506.405 1824.22,469.461 1824.02,463.853C1823.56,450.91 1848.7,438.999 1857.31,432.542C1860.31,430.289 1915.41,395.785 1918.88,393.218C1921.59,391.213 1931.06,381.449 1935.21,383.295C1940.64,385.707 1918.49,413.623 1932.56,416.64C1939.26,418.076 1944.05,403.871 1944.95,399.259C1946.09,393.486 1943.79,387.721 1944.83,382.124C1946.7,372.017 1967.14,344.736 1976.39,341.568C2000.08,333.444 1989.66,373.154 1999.81,371.03C2008.81,369.147 2013.72,352.994 2007.94,346.067C2004.87,342.372 1981.62,337.503 1985.57,333.555C1993.34,325.783 2021.37,307.057 2026.25,305.141C2037.02,300.91 2051.95,326.905 2060.27,301.011C2066.63,281.229 2030.22,302.736 2036.42,291.458C2039.32,286.178 2072.01,277.254 2080.12,271.241C2082.96,269.135 2092.81,262.764 2090.29,257.928C2083.87,245.618 2060.29,261.461 2053.86,266.742C2028.91,287.237 2002.56,306.668 1975.59,324.371C1968.99,328.698 1963.71,334.964 1956.79,338.794C1928.78,354.297 1956.51,323.158 1947.79,303.785C1947.28,302.645 1946.02,302.908 1945.2,303.538C1937.37,309.53 1934.35,322.032 1932.01,331.028C1930.39,337.249 1930.4,343.399 1928.13,349.58C1920.26,370.94 1901.04,381.042 1884.61,395.006C1877.53,401.023 1869.16,404.355 1861.13,408.874C1859,410.069 1859.86,406.961 1861.03,406.738C1855.39,402.976 1855.96,391.57 1852.05,386.178C1848.65,381.472 1837.49,379.128 1837,387.554C1836.45,396.879 1849.63,400.355 1853.43,406.811C1855.05,409.558 1832.47,433.471 1827.59,435.262C1816.51,439.323 1810.21,391.86 1800,407.173C1793.36,417.136 1822.75,436.424 1817.96,445.614C1811.55,457.897 1804.93,505.665 1794.36,508.308C1788.52,509.766 1785.06,476.112 1776.47,485.648C1765.7,497.624 1790.83,503.684 1787.69,515.185C1786.9,518.101 1785.25,524.344 1782.77,526.045C1781.22,527.11 1759.47,524.026 1768.15,532.705C1772.82,537.372 1784.73,523.579 1787.26,533.718C1790.64,547.228 1733.63,600.956 1729.78,603.652C1724.65,607.243 1718.39,622.169 1713.64,622.764C1709.12,623.328 1711.15,599.68 1703.36,603.579C1694.69,607.913 1714.45,622.29 1712.4,627.542C1708.92,636.491 1691.13,633.27 1684.32,641.514C1677.88,649.303 1674.27,676.071 1661.15,676.843C1654.34,677.243 1660.61,660.129 1660.5,656.5C1660.24,647.756 1653.04,637.544 1657.02,629.569C1662.17,619.283 1686.32,631.562 1680.12,613.787C1673.71,595.421 1659.77,618.923 1657.24,616.9C1652.69,613.261 1624.41,548.58 1627.34,539.8C1632.03,525.724 1588.85,493.414 1585.5,490.064C1581.5,486.065 1570.48,446.362 1569.64,443.515C1564.96,427.586 1559.15,417.359 1551.18,403.408C1548,397.831 1560.16,371.76 1561.61,364.315C1562.01,362.248 1563.05,350.161 1560.23,349.691C1546.14,347.342 1559.33,388.022 1547.2,387.264C1541.98,386.938 1521.47,342.186 1523.09,335.43C1524.89,327.92 1538.53,323.696 1533.74,315.304C1529.13,307.254 1524.06,322.308 1517.45,317.114C1506.7,308.668 1501.04,284.456 1495.29,272.446C1493.38,268.435 1487.18,258.852 1488.11,257.909C1487.39,256.983 1486.98,256.65 1486.71,258.244C1484.99,268.552 1493.55,273.599 1496.82,282.197C1500.62,292.169 1502.17,306.58 1505.1,313.545C1507.8,319.967 1520.63,331.849 1515.75,340.212C1510.74,348.806 1553.32,409.866 1547.17,420.483C1543.37,427.053 1532.1,411.685 1524.71,418.312C1522.23,420.533 1517.34,429.112 1521.86,431.543C1529.78,435.805 1538.37,428.861 1545.68,430.322C1555.05,432.196 1566.14,461.524 1567.66,469.745C1571.8,492.09 1563.65,490.096 1545,503.265C1541.94,505.421 1537.95,515.351 1541.27,518.668C1552.12,529.525 1562.09,501.682 1572.95,500.958C1590.16,499.811 1609.52,543.785 1616.65,558.328C1639.71,605.337 1642.49,630.64 1638.43,633.884C1633.25,638.031 1612.62,619.465 1613.53,638.634C1614.02,648.834 1631.74,645.128 1636.8,648.676C1640.85,651.506 1640.98,654.18 1641.47,654.342C1642.54,654.7 1641.89,663.604 1641.89,664.675C1641.89,675.791 1642.84,687.366 1640.61,698.304C1640.32,699.736 1638.98,709.986 1636.57,709.616C1627.79,708.264 1630.45,681.172 1616.28,686.931C1609.87,689.535 1609.08,698.105 1612.18,703.44C1618.54,714.408 1633.72,716.89 1627.83,732.606C1623.15,745.082 1605.76,717.336 1599.4,729.426C1590.63,746.095 1622.04,737.057 1623.55,748.748C1625.73,765.659 1568.34,910.354 1562.77,913.286C1562.28,913.548 1540.82,900.064 1540.52,910.351C1540.08,925.135 1568.55,906.907 1563.94,928.143C1562.46,934.95 1558.81,951.085 1551.95,953.579C1548.72,954.756 1523.38,945.88 1527.43,959.205C1531.25,971.731 1547.17,950.798 1552.26,954.191C1554.79,955.877 1553.36,963.749 1553.36,966.297C1553.36,977.98 1540.87,1029.46 1536.42,1031.54C1532.37,1033.43 1526.94,1013.75 1520.34,1011.3C1512.75,1008.48 1512.6,1020.54 1517.83,1023.65C1521.92,1026.08 1525,1031.21 1529.76,1033.07C1556.39,1043.47 1534.8,1093.21 1521.38,1108.03C1517.73,1112.06 1498.15,1138.6 1493.93,1156.09C1493.3,1158.67 1489.48,1171.85 1487.63,1173.91C1486.27,1175.42 1486.27,1175.42 1487.23,1173.86C1487.23,1160.51 1481.85,1147.25 1482.82,1134.12C1483.45,1125.63 1489.89,1118.53 1486.65,1109.81C1479.67,1091 1460.32,1079.49 1449.17,1063.28C1445.37,1057.75 1448.9,1047.55 1447.2,1041.23C1445.5,1034.93 1438.89,1030.44 1437.68,1024.12C1435.27,1011.42 1465.07,1020.87 1462.34,1010.42C1461.26,1006.26 1455.32,1005.2 1451.78,1006.25C1438.42,1010.19 1434.59,1014.11 1423.47,1000.91C1417.04,993.276 1409.02,984.988 1404.21,976.25C1402.6,973.32 1397.57,963.155 1398.2,963.281C1413.89,966.418 1426.56,966.695 1435.97,952.374C1438.54,948.475 1439.5,942.753 1437.19,938.507C1428.97,923.369 1416.14,944.968 1405.92,951.213C1402.62,953.232 1394.78,960.322 1394.2,954.056C1389.45,902.258 1341.91,824.077 1335.31,829.432C1330.82,833.075 1337.59,817.931 1336.3,811.852C1334.43,803.049 1317.18,776.092 1319.7,770.543C1324.77,759.393 1356.83,772.235 1355.15,753.776C1354.85,750.436 1352.92,748.151 1350.22,746.407C1338.08,738.576 1335.2,762.181 1326.03,755.632C1315.92,748.412 1321.65,723.883 1318.49,713.453C1317.12,708.967 1313.47,702.525 1316.34,697.962C1318.65,694.283 1326.27,701.793 1328.29,703.125C1335.15,707.636 1346.1,727.725 1356.6,717.224C1360.95,712.875 1354.04,707.707 1350.74,705.62C1345.35,702.202 1319.45,690.143 1317.38,686.01C1312.06,675.356 1285.53,650.716 1284.14,646.209C1280.64,634.843 1322.88,619.595 1318.89,610.818C1313.89,599.812 1296.03,598.198 1289.19,607.569C1284.99,613.307 1289.01,637.701 1282.46,638.028C1275.61,638.371 1279.15,610.377 1278.51,603.681C1277.9,597.24 1275.38,591.614 1270.79,587.03C1269.21,585.449 1267.86,583.708 1266.04,582.389C1265.37,581.907 1263.83,582.583 1263.64,581.78C1263.62,581.696 1264.95,598.795 1264.95,604.512C1264.95,610.651 1257.3,640.393 1278.12,656.914C1309.72,681.99 1320.16,737.63 1311.35,751.715C1311.08,752.14 1297.86,743.338 1295.14,742.562C1291.27,741.457 1285.73,746.77 1288.85,750.507C1293.72,756.351 1308.34,747.785 1310.52,758.706C1311.68,764.528 1306.41,768.195 1305.44,773.643C1303.01,787.207 1320.36,819.424 1317.51,826.27C1314.4,833.726 1300.48,841.951 1307.79,851.503C1312.21,857.28 1313.18,830.774 1322.66,831.227C1338.39,831.98 1386.27,935.702 1379,959.049C1375.47,970.361 1430.73,1028.25 1433.86,1037.18C1436.74,1045.42 1435.35,1053.85 1436.89,1062.17C1437.4,1064.91 1441.99,1068.44 1441.51,1070.99C1440.38,1077.01 1416.73,1083.62 1411.55,1084.66C1408.86,1085.19 1401.25,1086.05 1401.91,1090.38C1402.74,1095.71 1415.36,1092.22 1418.03,1091.08C1430.21,1085.86 1441.61,1069.51 1452.72,1085.88C1459.91,1096.48 1470.86,1121.11 1464.17,1133.94C1461.59,1138.89 1446.56,1123.32 1448.63,1138.09C1450.57,1151.91 1461.45,1132.38 1466.09,1138.73C1473.98,1149.52 1466.83,1173.72 1465.92,1185.45C1465.53,1190.38 1466.41,1197.88 1463.87,1202.33C1461.28,1206.87 1448.3,1188.36 1444.31,1200.98C1440.82,1212.03 1466.07,1203.48 1462.53,1214.59C1461.69,1217.22 1458.06,1218.81 1456.52,1221.13C1450.29,1230.46 1448.45,1246.36 1433.86,1243.79C1424.96,1242.22 1398.42,1215.52 1389.71,1235.85C1381.66,1254.62 1411.83,1242.99 1421.13,1247.17C1427.4,1250 1438.76,1259.91 1430.47,1266.74C1424.58,1271.59 1409,1267.67 1401.21,1269.77C1384.77,1274.23 1374.54,1295.76 1356.48,1295.41C1346.07,1295.21 1335.74,1295.58 1325.42,1297.22C1322.08,1297.75 1312.5,1299.08 1312.8,1299.68L1312.82,1299.26C1292.15,1271.71 1285.76,1239.23 1269.5,1209.96C1263.51,1199.16 1248.33,1193.77 1244.54,1182.79C1238.34,1164.8 1243.88,1144.31 1237.77,1126.64C1232.24,1110.67 1215.03,1103.09 1209.42,1086.25C1202.98,1066.94 1206.18,1045.75 1201.54,1026.16C1198.55,1013.53 1193.29,997.424 1186.34,986.391C1183.31,981.568 1178.12,978.815 1175.4,973.712C1169.05,961.815 1181.31,944.386 1184.85,933.078C1188.33,921.943 1183.93,913.157 1184.3,902.287C1184.65,891.6 1194.41,880.241 1194.75,869.761C1195.21,855.417 1190.17,849.24 1187.03,835.607C1186.43,833.045 1184.34,824.888 1184.31,822.262C1184.15,810.571 1190.69,800.46 1192.52,791.92C1192.59,791.591 1193.02,779.309 1188.09,764.983C1185.46,757.368 1190.64,750.146 1191.92,742.445C1195.07,723.585 1188.24,707.687 1181.55,690.592C1176.62,677.981 1170.31,665.136 1168.65,651.559C1166.97,637.749 1169.91,622.971 1164.24,609.75C1155.03,588.249 1129.06,583.752 1117.12,565.001C1111.13,555.579 1108.91,544.202 1103.24,534.543C1086,505.125 1069.13,475.166 1046.74,449.781C1041.81,444.201 1043.87,432.646 1047.23,426.835C1063.66,398.34 1061.21,380.781 1059.8,349.831C1059.46,342.371 1061.81,336.111 1064.78,329.417C1065.78,327.183 1069,321.194 1068.97,321.197C1067.96,328.274 1056.86,338.264 1054.87,348.015C1051.37,365.121 1058.5,385.598 1051.63,401.818C1044.12,419.57 1023.05,431.524 1027.53,453.011C1030.51,467.319 1052.42,471.771 1059.46,484.448C1077.51,516.932 1092.78,551.597 1113.14,582.735C1121.2,595.06 1137.25,593.526 1144.7,603.113C1154.8,616.093 1149.04,634.394 1153.9,648.964C1159.43,665.559 1174.12,677.983 1177.51,694.939C1182.63,720.557 1171.93,738.683 1169.8,762.037C1168.99,771.02 1180.91,770.421 1181.98,778.439C1183.37,788.83 1171.79,797.409 1171.29,807.391C1170.5,823.356 1180.93,838.794 1180.24,855.354C1179.62,870.272 1167.82,877.736 1164.83,890.891C1162.9,899.382 1169.31,905.735 1169.31,914.003C1169.31,937.702 1162.95,957.308 1169.31,981.474C1172.62,994.062 1184.31,1001.01 1188.07,1013.03C1195.89,1038.06 1191.13,1066.83 1199.38,1091.57C1204.31,1106.38 1219.61,1115.06 1223.85,1130.33C1229.61,1151.06 1225.07,1175.8 1236.4,1194.7C1243.92,1207.23 1256.62,1215.63 1263.62,1228.12C1268.96,1237.67 1267.96,1248.29 1271.57,1258.32C1278.02,1276.24 1288.31,1291.94 1296.42,1308.89C1297.03,1310.16 1296.54,1307.4 1296.31,1309.22C1295,1319.97 1291.29,1323.46 1286.5,1329.48C1274.28,1344.83 1269.09,1360.68 1262.21,1378.56C1260.17,1383.86 1257.03,1389.08 1256.81,1394.9C1256.72,1397.43 1254.77,1401.87 1255.51,1401.02C1250.72,1403.02 1234.92,1409.95 1232.31,1412.24C1224.54,1419.08 1212.57,1441.5 1209.15,1451.73C1205.39,1463.03 1205.82,1478.1 1198.69,1487.91C1191.88,1497.27 1179.99,1500.65 1171.13,1507.46C1159.76,1516.21 1150.45,1526.75 1139.69,1536.15C1129.98,1544.65 1115.69,1543.59 1103.76,1546.57C1089.01,1550.26 1075.11,1558.62 1062.42,1566.74C1058.31,1569.37 1053.91,1571.01 1049.16,1571.85C1046.62,1572.31 1042.22,1572.38 1042.23,1572.39C1039.65,1572.39 1039.67,1576.36 1036.14,1575.6C1033.08,1574.94 1032.38,1566.82 1033.16,1564.46C1034.41,1560.73 1055.16,1552.83 1042.72,1547.5C1031.46,1542.67 1026.38,1564.41 1025.18,1570.95C1024.75,1573.3 1025.73,1580.73 1021.8,1580.47C1003.21,1579.23 1019.1,1550.69 1003.49,1551.02C994.506,1551.2 998.449,1564.82 1001.41,1569.37C1001.78,1569.94 1006.17,1574.63 1005.11,1575.24C1002.05,1576.99 991.281,1571.27 987.881,1570.77C974.976,1568.88 960.602,1579.55 951.033,1565.63C949.015,1562.69 971.102,1548.35 958.881,1545.29C940.621,1540.73 948.277,1569.39 929.79,1564.41C918.315,1561.32 907.487,1552.99 896.415,1548.45C892.663,1546.91 885.999,1545.7 884.012,1541.73C880.228,1534.16 901.387,1509.32 883.426,1506.5C873.305,1504.91 881.828,1530.59 880.585,1537.08C879.463,1542.94 874.145,1547.94 868.362,1543.76C861.076,1538.48 864.763,1528.4 865.791,1521.2C867.867,1506.68 871.778,1487.21 882.659,1476.33C885.207,1473.78 889.235,1473.49 891.59,1470.78C894.331,1467.63 895.543,1459.77 890.146,1458.51C882.184,1456.66 876.663,1468.07 875.308,1474.3C872.096,1489.08 866.739,1503.05 864.168,1518.05C863.374,1522.68 864.587,1530.55 858.891,1532.57C850.355,1535.6 845.598,1507.48 846.804,1501.86C848.224,1495.23 861.97,1490.84 861.236,1483.5C860.875,1479.88 855.598,1479.41 853.208,1480.84C848.153,1483.87 844.476,1491.81 842.835,1497.17C841.088,1502.87 839.166,1508.71 839.317,1514.76C839.403,1518.2 840.949,1522.5 838.054,1525.26C830.24,1532.72 818.113,1517.68 811.489,1514.58C803.501,1510.83 794.402,1514.89 785.962,1513.63C779.278,1512.63 775.378,1508.13 769.365,1505.87C761.982,1503.1 752.837,1502.04 744.92,1502.04C742.566,1502.04 725.821,1501.44 725.362,1502.15C726.47,1504.37 738.29,1505.48 740.742,1506.89C750.802,1512.67 758.601,1520.81 769.562,1525.33C776.935,1528.38 790.842,1529.39 796.713,1534.98C803.289,1541.25 769.597,1547.87 786.475,1555.1C799.37,1560.63 803.867,1524.82 819.67,1540.62C831.854,1552.81 806.984,1562.56 801.223,1567.55C799.364,1569.16 792.491,1577.02 796.172,1579.09C802.265,1582.52 807.336,1575.89 810.83,1572.1C818.326,1563.98 825.387,1552.35 838.116,1552.8C852.469,1553.31 869.385,1560.17 881.955,1566.83C886.243,1569.1 890.482,1570.45 895.034,1571.97C897.214,1572.69 899.339,1573.51 901.393,1574.54C901.585,1574.63 902.263,1574.73 902.001,1574.93C931.446,1584 899.6,1609.62 919.183,1624.86C923.011,1627.83 927.346,1630.83 932.35,1631.21C939.581,1631.77 945.758,1624.52 941.907,1617.84C936.025,1607.64 923.718,1604.46 917.455,1594.81C915.419,1591.68 912.503,1585.15 916.337,1582.05C918.972,1579.92 924.197,1582.59 926.555,1583.98C935.198,1589.09 942.702,1595.12 952.633,1597.81C963.416,1600.73 974.774,1597.87 985.676,1600.66C988.054,1601.27 994.473,1601.09 995.996,1603.3C997.272,1605.16 992.478,1608.03 991.319,1608.69C984.063,1612.84 975.309,1616.67 969.358,1622.62C967.136,1624.84 964.441,1631.2 969.358,1632.28C982.51,1635.16 1000.32,1601.02 1012.62,1601.1C1032.03,1601.22 1122.09,1572.61 1129.91,1569.76C1161.81,1558.13 1201.45,1530.85 1234.26,1491.06C1257.41,1462.99 1265.29,1534.1 1344.69,1530.14C1355.89,1529.58 1363.7,1543.16 1365.08,1554.89C1365.85,1561.43 1363.2,1566.88 1365.12,1573.61C1368.32,1584.8 1376.74,1595.35 1381.74,1605.9C1385.5,1613.84 1386.64,1622.44 1387.91,1631.04C1388.77,1636.86 1392.11,1647.18 1390.01,1652.89C1388,1658.32 1379,1660.74 1381.4,1668.13C1385.09,1679.49 1391.28,1663.4 1395.32,1666.68C1399.22,1669.85 1399.04,1725.73 1403.22,1727.62C1407.93,1729.74 1410.92,1721.07 1411.61,1717.81C1416.12,1696.67 1407.2,1658.94 1405.98,1648.47C1405.58,1645.04 1406.98,1640.27 1407.91,1638.22C1408.92,1636 1412.44,1633.12 1414.58,1635.76C1416.34,1637.95 1418.09,1651.26 1423.55,1645.23C1426.75,1641.71 1425.56,1636.82 1422.38,1633.86C1417.26,1629.09 1410.16,1627.55 1404.43,1623.78C1402.83,1622.72 1399.58,1621.35 1399.12,1619.23C1398.48,1616.32 1401.25,1614.4 1403.27,1612.96C1408.17,1609.45 1417.11,1606.11 1414.12,1598.54C1411.13,1591 1405.04,1605.69 1402.04,1604.11C1397.96,1601.95 1396.8,1596.81 1394.44,1593.16C1389.54,1585.56 1384.45,1579.55 1382.83,1570.39C1382.47,1568.39 1382.31,1566.41 1382.58,1564.39C1384.31,1551.41 1396.59,1554.84 1405.57,1550.07C1410.22,1547.6 1418.16,1540.86 1414.58,1534.82C1412.54,1531.4 1407.5,1532.87 1404.89,1534.55C1400.03,1537.67 1394.3,1548.45 1388.08,1548.87C1385.79,1549.02 1383.98,1546.67 1382.55,1545.24C1377.76,1540.45 1376.67,1533.87 1373.17,1528.28C1372.36,1526.97 1368.72,1520.55 1368.07,1521.25C1399.12,1513.48 1431.61,1502.94 1454.7,1479.85C1458.12,1476.43 1461.76,1469.56 1461.76,1464.63C1461.76,1461.22 1460.55,1453.55 1463.88,1451.29C1476.33,1442.86 1493.7,1455.14 1503.98,1456.78C1512.95,1458.22 1518,1450.28 1526.26,1449.8C1531.9,1449.47 1538.16,1451.64 1543.52,1453.13C1554.11,1456.08 1571.47,1458.14 1580.17,1465.92C1586.33,1471.44 1578.1,1474.93 1575.42,1478.2C1571.59,1482.89 1571.18,1490.19 1575.85,1494.29C1578.53,1496.64 1590.62,1500.25 1591.66,1494.17C1593.18,1485.37 1585.32,1474.51 1591.08,1465.73C1594.1,1461.12 1600.83,1459.5 1605.98,1460.16C1606.93,1460.28 1614.41,1463.86 1611.47,1464.43C1611.47,1468.18 1616.01,1480.94 1618.65,1483.35C1622.14,1486.54 1632.3,1481.48 1633.5,1477.54C1635.83,1469.93 1612.03,1474.16 1619.47,1462.46C1620.77,1460.42 1624.63,1460.75 1626.55,1460.91C1629.32,1461.14 1649.2,1463.23 1650.36,1463.79C1662.81,1469.71 1646.44,1479.88 1643.19,1485.81C1640.98,1489.84 1646.8,1490.95 1649.45,1490.43C1662.08,1487.95 1653.59,1466.59 1662.06,1460.59C1667.03,1457.07 1680.62,1459.65 1686.7,1459.35C1706.47,1458.4 1710.98,1451.18 1731.99,1457.48C1735.52,1458.54 1739.73,1458.47 1743.05,1460.13C1755.38,1466.3 1751.05,1473.13 1747.16,1482.62C1745.65,1486.29 1742.75,1494.93 1747.71,1497.29C1765.92,1505.91 1753.39,1473.47 1762.47,1470.64C1772.31,1467.58 1792.62,1483.76 1801.77,1487.83C1805.36,1489.42 1812.52,1490.48 1813.75,1494.95C1817.97,1510.32 1791.79,1506.38 1785.09,1507.29C1778.25,1508.23 1776.01,1513.88 1780.75,1519.4C1786.25,1525.82 1800.38,1523.14 1806.39,1518.67C1812.12,1514.41 1814.5,1504.72 1822.61,1503.91C1842.65,1501.91 1849.83,1527.88 1861.14,1540.66C1863.12,1542.89 1874.79,1552.53 1875.64,1553.09C1884.43,1558.95 1892.71,1563.07 1900.44,1570.63C1912.45,1582.35 1921.76,1597.02 1934.27,1608.14C1943.02,1615.92 1957.75,1615.56 1964.46,1625.08C1971.72,1635.39 1957.57,1664.74 1969.89,1669.36C1976.45,1671.83 1991.45,1667.5 1990.26,1658.55C1989.08,1649.71 1968.06,1633.69 1986.13,1631.3C1996.27,1629.96 2004.62,1636.02 2013.42,1640.07C2031.48,1648.38 2051.03,1654.41 2067.52,1665.67C2074.01,1670.11 2086.45,1678.92 2083.07,1688.64C2081.84,1692.15 2076.64,1688.76 2074.8,1687.99C2069.4,1685.74 2060.35,1681.62 2056.02,1687.1C2051.73,1692.51 2054.93,1698.1 2061.1,1699.45C2073.65,1702.2 2080.76,1694.66 2094.52,1703.38C2100.26,1707.02 2106.38,1711.88 2111.61,1716.24C2113.41,1717.73 2114.77,1719.66 2115.94,1721.67C2116.51,1722.63 2117.38,1725.88 2117.23,1724.78C2119.37,1727.63 2112.25,1730.71 2110.4,1730.59C2108.05,1730.44 2087.43,1718.77 2088.65,1728.13C2091.48,1749.79 2115.6,1729.09 2124.69,1738.18C2133.96,1747.45 2119.23,1776.19 2138.41,1778.33C2142.46,1778.78 2147.36,1778.15 2150.67,1775.54C2160.27,1767.99 2137.83,1756.71 2133.1,1752.53C2131.96,1751.52 2125.59,1743.78 2130.57,1742.35C2147.37,1737.55 2157.9,1757.15 2170.53,1762.52C2179.01,1766.12 2191.16,1762.87 2200.3,1764.54C2226.81,1769.4 2240.73,1779.61 2259.17,1798.05C2262.58,1801.46 2272.12,1803.1 2273.71,1807.35C2274.04,1808.24 2273.38,1809.38 2272.76,1810C2266.49,1816.27 2251.8,1802.37 2248.55,1810.19C2243.93,1821.27 2260.3,1827.4 2268.08,1826C2272.46,1825.21 2279.14,1815.99 2280.73,1816.32C2289.3,1818.1 2289.92,1840.5 2294,1847.94C2308.54,1874.4 2329.41,1900.8 2348.76,1924.12C2359.42,1936.98 2377.43,1951.4 2394.53,1953.71C2402.83,1954.83 2419.84,1942.12 2425.13,1950.49C2433.97,1964.49 2399.93,1978.33 2418.93,1991.58C2433.59,2001.8 2429.71,1956.1 2436.26,1949.92C2441.32,1945.13 2458.91,1948.88 2464.71,1950.3C2479.7,1953.95 2475.65,1981.8 2479.69,1993.48C2481.93,1999.96 2497.86,2010.95 2499.42,2004.73C2501.46,1996.56 2484.29,1971.8 2480.77,1964.46C2479.21,1961.21 2474.44,1951.7 2479.25,1948.84C2487.52,1943.93 2522.95,1954.68 2531.22,1974.16C2531.68,1975.24 2535.83,1996.24 2538.1,2000.05C2549.03,2018.37 2555.89,1997.4 2548.6,1984.83C2542.31,1973.96 2533.91,1962.4 2525.1,1954C2500.06,1930.15 2467.83,1937.11 2464.39,1932.37C2457.16,1922.43 2440.05,1877.93 2433.78,1875.91C2424.54,1872.93 2428.33,1884.03 2430.01,1888.48C2432.78,1895.8 2455.32,1923.66 2453.1,1928.11C2452.96,1928.38 2452.87,1928.54 2452.6,1928.68C2444.87,1932.54 2432.02,1927.78 2424.05,1927.12C2386.79,1924.01 2381.45,1930.7 2353.81,1896.51C2350.51,1892.43 2341.99,1885.8 2341.31,1880.31C2340.41,1873.16 2365.97,1875.85 2352.17,1858.86C2346.06,1851.34 2339.84,1872.26 2332.36,1868.52C2327.95,1866.32 2326.57,1856.7 2324.76,1852.61C2318.21,1837.8 2299.62,1816.75 2303.67,1799.99C2306.81,1786.95 2343.81,1780.38 2354.59,1777.33C2358.45,1776.24 2371.79,1770.56 2367.23,1764.26C2363.07,1758.52 2350.49,1761.23 2344.79,1762.35C2328.75,1765.5 2317.73,1773.64 2308.21,1786.49C2302.63,1794.03 2296.95,1806.9 2285.34,1802.76C2259.49,1793.52 2285.65,1776.16 2282.57,1773.43C2278.68,1769.97 2272.06,1783.16 2266.38,1781.1C2262.09,1779.54 2256.7,1762.81 2249.9,1758.01C2233.85,1746.68 2209.9,1750.75 2196.07,1733.73C2186.28,1721.67 2203.48,1687.41 2183.21,1682.73C2180.96,1682.21 2180.67,1684.86 2180.02,1686.5C2174.3,1700.78 2195.45,1719.04 2188.04,1733.23C2179.62,1749.38 2144.47,1724.33 2135.77,1718.24C2135.74,1719.19 2127.81,1707.33 2123.66,1703.42C2113.46,1693.82 2101.98,1685.18 2092.68,1674.72C2077.62,1657.78 2059.67,1643.02 2039.64,1632.24C2030.82,1627.49 2021.62,1624.72 2013.16,1619.13C2008.4,1616 2002.45,1611.65 1999.71,1606.49C1998.36,1603.94 1999.29,1598.53 1995.75,1597.35C1994.86,1597.06 1994.29,1597.9 1993.8,1598.5C1987.1,1606.63 1992.77,1614.89 1981.09,1612.88C1957.86,1608.88 1943.77,1581.06 1928.53,1566.5C1918.77,1557.17 1905.5,1551.86 1895.66,1542.57C1878.91,1526.75 1895.55,1496.65 1880.74,1492.02C1862.45,1486.31 1887.41,1530.94 1875.36,1530.94C1866.64,1530.94 1852.33,1506 1843.3,1498.74C1826.8,1485.48 1806.74,1475.05 1787.57,1466.08C1775.78,1460.56 1756.6,1450.74 1745.67,1443.45C1756.27,1435.21 1773.88,1429.26 1782.43,1420.71C1788.11,1415.03 1788.72,1409.73 1792.23,1403.02C1792.95,1401.65 1794.69,1398.4 1796.67,1398.76C1805.96,1400.45 1803.44,1418.7 1803.84,1424.75C1803.97,1426.67 1806.48,1432.67 1809.46,1429.69C1818.42,1420.73 1804.8,1407.53 1803.84,1397.94C1803.5,1394.59 1807.47,1390.52 1809.51,1388.19C1815.74,1381.08 1826.58,1369.82 1836.04,1367.24C1844.59,1364.91 1847.6,1379.45 1857.4,1370.96C1858.42,1370.08 1860.99,1368.5 1861.44,1367.15C1862.74,1363.25 1849.56,1363.82 1848.6,1363.7C1836.19,1362.19 1843.8,1351.23 1848.92,1346.11C1871.45,1323.58 1894.96,1341.08 1921.44,1334.72C1931.95,1332.2 1940.71,1325.67 1950.33,1321.12C1951.72,1320.46 1962.31,1314.05 1962.49,1314.66C1964.89,1312.02 1968.39,1310.62 1971.4,1308.82C1991.47,1296.77 1991.42,1312.57 1990.88,1328.15C1990.8,1330.63 1988.57,1341.74 1993.2,1340.99C2013.72,1337.66 1994.55,1318.22 1998.74,1306.5C2001.17,1299.69 2011.68,1297.8 2017.07,1294.72C2020.95,1292.5 2025.95,1288.47 2030.76,1289.43C2044.02,1292.08 2039.86,1312.08 2041.69,1321.05C2042.44,1324.77 2045.97,1331.4 2050.6,1328.05C2066.45,1316.57 2027.54,1292.88 2051.45,1277.6C2062.57,1270.5 2052.54,1297.9 2064.8,1292.5C2077.23,1287.03 2052.99,1271.51 2064.95,1269.19C2080.12,1266.26 2070.32,1301.92 2091.88,1288.02C2094.12,1286.58 2096.37,1284.71 2097.42,1282.18C2102.22,1270.66 2067.82,1274.27 2074.56,1264.16C2077.25,1260.12 2081.1,1258.32 2085.79,1257.81C2099.58,1256.31 2098.17,1262.72 2107.44,1270.7C2111.2,1273.94 2119.09,1276.1 2123,1271.86C2125.62,1269.02 2120.81,1263.2 2118.82,1261.34C2114.74,1257.52 2090.54,1256.31 2094.85,1248C2099.15,1239.7 2114.43,1234.2 2121.59,1229.37C2143.66,1214.47 2168.44,1204.13 2191.98,1192.36C2201.06,1187.82 2207.31,1178.97 2218.41,1178.46C2234.93,1177.71 2237.25,1211.85 2238.3,1221.81C2238.93,1227.82 2242.24,1235.12 2249.32,1234.7C2257.49,1234.22 2258.34,1224.99 2255.37,1218.64C2251.02,1209.36 2245.68,1199.72 2239.15,1191.81C2236.2,1188.23 2231.27,1183.65 2232.66,1178.56C2234.19,1172.94 2249.06,1181.41 2252.45,1176.9C2256.51,1171.48 2252.25,1163.04 2257.38,1157.42C2267.08,1146.8 2278.93,1145.35 2291.01,1138.64C2297.57,1135 2300.55,1129.43 2308.28,1127.61C2312.82,1126.54 2317.4,1126.74 2321.88,1125.25C2325.09,1124.17 2325.36,1122.9 2325.94,1123.4C2330.26,1121.96 2334.2,1114.71 2339.97,1117.18C2348.27,1120.74 2332.57,1143.08 2342.24,1142.27C2354.29,1141.27 2351.97,1125.1 2358.55,1119.21C2366.24,1112.33 2405.85,1079.56 2458.65,1101.68C2471.47,1107.04 2563.32,1070.65 2570.91,1070.11C2587.85,1068.9 2591.09,1088.8 2596.41,1099.44C2597.88,1102.37 2601.37,1115.65 2606.8,1110.67C2629.15,1090.19 2572.9,1070.18 2593.52,1051.04C2602.47,1042.73 2625.48,1041.66 2628.25,1041.38C2643.26,1039.88 2655.3,1040.31 2669.75,1046.22C2681.46,1051.01 2694.68,1058.77 2701.76,1069.63C2706.82,1077.39 2711.97,1096.81 2723.09,1098.66C2724.54,1098.91 2726.09,1098.54 2727.45,1098.07C2739.16,1094.03 2708.72,1070.95 2705.47,1067.07C2703.68,1064.93 2699.21,1059.76 2700.33,1056.61C2702.05,1051.79 2745.14,1060.9 2744.05,1062.43C2775.24,1069.12 2741.28,1115.42 2751.11,1119.63C2769.73,1127.61 2758.14,1069.06 2764.28,1063.54C2771.71,1056.86 2788.19,1066.81 2796.8,1067.67C2822.51,1070.24 2840.24,1046.87 2865.67,1054.82C2870.34,1056.28 2874.05,1064.17 2877.01,1067.83C2880.43,1072.05 2895.57,1085.04 2897.01,1072.11C2897.77,1065.21 2870.8,1055.61 2876.7,1048.87C2882.01,1042.79 2984.76,1030.62 2990.46,1029.99C2995.25,1029.45 3012.25,1014.34 3015.85,1019.99C3020.44,1027.21 3007.45,1038.12 3014.58,1044.74C3017.55,1047.51 3029.12,1046.24 3029.49,1041.01C3029.74,1037.63 3026.79,1033.39 3026.32,1029.91C3023.52,1009.2 3033.39,1004.6 3049.25,994.84C3054.28,991.746 3059.24,985.219 3065.19,984.368C3086.34,981.347 3059.77,1022.03 3078.76,1012.53C3095.05,1004.39 3079.37,987.867 3081.3,975.879C3084.41,956.563 3128.19,951.254 3120.38,933.834C3124.18,925.998 3093.42,939.079 3087.12,940.023C3081.23,940.907 3062.55,928.322 3061.58,929.615C3054.32,939.301 3084.68,945.198 3076.61,959.553C3066.06,978.297 3045.22,976.163 3030.04,987.773C3019.65,995.713 3012.98,1009.35 3001.6,1015.78C2995.71,1019.11 2982.91,1016.86 2976.22,1016.96C2965.44,1017.14 2943.51,1022.73 2912.44,1027.51C2910.5,1027.81 2926.46,989.668 2904.6,984.983C2902.83,984.605 2902.18,990.088 2902.02,990.992C2899.62,1004.71 2913.76,1022.75 2898.38,1031.66C2892.04,1035.33 2883.05,1033.84 2876.27,1032.73C2844.28,1027.53 2856.09,997.38 2838.93,1000.65C2826.61,1003 2853.03,1023.07 2850.41,1029.62C2848.44,1034.55 2800.24,1049.06 2794.18,1046.04C2779.43,1038.66 2818.17,1000.69 2813.5,983.159C2812.57,979.664 2811.78,970.105 2805.67,971.463C2793.29,974.213 2786.07,1046.56 2783.35,1048.08C2781.75,1048.96 2702.17,1043.98 2694.93,1042.5C2681.01,1039.65 2666.86,1033.72 2654.26,1027.15C2641.32,1020.4 2636.49,990.447 2620.25,997.216C2610.89,1001.11 2639.11,1023.84 2633.87,1029.51C2632.54,1030.96 2616.66,1028.55 2597.74,1035.55C2553.05,1052.1 2521.89,1083.63 2469.06,1086.06C2452.96,1086.81 2439.13,1076.08 2424.31,1076.08C2425.77,1075.88 2423.69,1075.27 2423.23,1075.09C2419.91,1073.82 2414.06,1070.88 2410.48,1071.36C2407.01,1071.83 2410.52,1079.86 2406.9,1078.83C2395.93,1075.69 2385.96,1056.73 2373.08,1059.7C2373.84,1059.75 2371.33,1063.82 2371.27,1063.9C2368.28,1068.28 2369.13,1070.48 2373.91,1073.15C2376.94,1074.85 2397.16,1079.35 2397.16,1083.5C2397.16,1090.58 2375.34,1090.47 2370.73,1091.12C2358.57,1092.8 2303.05,1106.95 2294.22,1113.35C2276.94,1125.86 2257.12,1136.35 2242.67,1152.46C2241.25,1154.05 2228.8,1165.53 2226.27,1162.49C2225.05,1161.02 2236.72,1145.91 2220.98,1143.13C2206.61,1140.59 2225.9,1158.43 2213.36,1164.98C2205.76,1168.94 2196.89,1168.89 2189.49,1173.37C2163.06,1189.39 2137,1210.96 2107.08,1220.65C2096.75,1223.99 2099.45,1203.48 2089.97,1209.68C2079.43,1216.58 2097.12,1223.08 2090.13,1231.69C2074.21,1251.28 2004.49,1294.42 1980.19,1299.1C1968.55,1301.33 1979.35,1273.54 1972.73,1266.36C1965.64,1258.68 1959.26,1273.32 1962.07,1279.35C1964.09,1283.67 1970.7,1288.37 1970.7,1293.65C1970.7,1302.1 1947.82,1296.86 1944.27,1298.01C1923,1304.89 1912.93,1324.32 1883.45,1312.31" style="fill:none;stroke:rgb(86,96,255);stroke-width:16.71px;"/>
                </g>
            </g>
        </g>
    </g>
</svg>
