<?xml version="1.0" encoding="UTF-8" standalone="no"?>
<!DOCTYPE svg PUBLIC "-//W3C//DTD SVG 1.1//EN" "http://www.w3.org/Graphics/SVG/1.1/DTD/svg11.dtd">
<svg width="100%" height="100%" viewBox="0 0 373 414" version="1.1" xmlns="http://www.w3.org/2000/svg" xmlns:xlink="http://www.w3.org/1999/xlink" xml:space="preserve" xmlns:serif="http://www.serif.com/" style="fill-rule:evenodd;clip-rule:evenodd;stroke-linecap:round;stroke-linejoin:round;stroke-miterlimit:1.5;">
    <g transform="matrix(1,0,0,1,-1230.82,-1217.87)">
        <g id="Empty-lists" serif:id="Empty lists">
            <g transform="matrix(2.74604,-8.09951,4.68532,1.58851,-4287.39,9988.37)">
                <g opacity="0.59">
                    <path d="M1137.68,513.762C1138.15,516.48 1149.9,578.543 1146.73,570.914C1145.46,567.875 1139.4,543.365 1137.69,538.812C1135.62,533.291 1136.77,508.442 1137.68,513.762Z" style="fill:rgb(86,96,255);"/>
                </g>
            </g>
            <g transform="matrix(0.328467,0.570705,-0.570705,0.328467,1155.57,-385.437)">
                <path d="M2440.34,671.56L2475.3,641.942C2475.3,641.942 2493.4,670.336 2501.19,675.168" style="fill:none;stroke:white;stroke-width:2.28px;"/>
            </g>
            <g transform="matrix(1.41525,0,0,1.41525,469.619,1219.6)">
                <path d="M645.825,134.368C652.116,144.155 663.659,124.912 658.734,116.887C652.258,106.334 639.967,125.257 645.825,134.368Z" style="fill:none;stroke:white;stroke-width:1.06px;"/>
            </g>
            <g transform="matrix(1.41525,0,0,1.41525,469.619,1219.6)">
                <path d="M637.516,147.28C641.151,139.203 660.371,139.638 669.043,135.13C671.101,134.061 672.722,132.298 674.512,130.827C680.563,125.853 685.884,120.23 690.918,114.242C691.135,113.983 696.303,107.656 695.49,107.249C694.211,106.61 698.365,110.853 698.358,110.925C698.118,113.325 695.347,116.565 694.19,118.59C688.707,128.184 683.066,137.272 675.722,145.574C674.243,147.247 671.065,152.432 668.326,152.432" style="fill:none;stroke:white;stroke-width:1.06px;"/>
            </g>
            <g transform="matrix(1.41525,0,0,1.41525,469.619,1219.6)">
                <path d="M695.234,108.017C694.673,109.699 696.44,104.661 697.327,103.126C697.887,102.157 703.871,92.726 704.903,92.726C704.914,92.726 704.265,94.823 704.23,94.923C703.654,96.595 702.805,98.153 702.213,99.809C700.919,103.432 702.327,110.073 695.4,110.073" style="fill:none;stroke:white;stroke-width:1.06px;"/>
            </g>
            <g transform="matrix(1.41525,0,0,1.41525,469.619,1219.6)">
                <path d="M637.516,147.28C626.231,166.175 637.244,182.037 658.689,172.289" style="fill:none;stroke:white;stroke-width:1.06px;"/>
            </g>
            <g transform="matrix(1.41525,0,0,1.41525,469.619,1219.6)">
                <path d="M643.293,162.877C641.823,163.451 646.399,163.51 647.976,163.593C649.682,163.683 657.303,162.69 658.42,164.445C659.319,165.857 658.893,170.706 658.689,172.289" style="fill:none;stroke:white;stroke-width:1.06px;"/>
            </g>
            <g transform="matrix(1.41525,0,0,1.41525,470.409,1211.42)">
                <path d="M658.342,172.09C661.29,169.661 671.874,175.409 665.457,175.859C663.772,175.977 660.055,175.388 658.369,175.33" style="fill:none;stroke:white;stroke-width:1.06px;"/>
            </g>
            <g transform="matrix(1.41525,0,0,1.41525,469.619,1219.6)">
                <path d="M637.043,171.843C637.276,174.886 637.387,190.688 637.731,195.848C637.827,197.281 638.065,204.756 638.065,204.756C638.065,204.756 647.414,203.885 649.475,203.885C653.66,203.885 664.101,202.997 664.926,202.433C666.316,201.481 666.65,197.848 666.844,196.419C668.424,184.8 669.649,164.907 667.937,152.432" style="fill:none;stroke:white;stroke-width:1.06px;"/>
            </g>
            <g transform="matrix(1.41525,0,0,1.41525,466.266,1220.48)">
                <path d="M643.071,203.896C643.145,208.293 643.467,216.214 643.668,218.532C644.741,230.922 646.107,242.09 647.818,254.411" style="fill:none;stroke:white;stroke-width:1.06px;"/>
            </g>
            <g transform="matrix(1.41525,0,0,1.41525,466.266,1220.48)">
                <path d="M667.292,201.813C668.924,216.258 664.407,238.727 661.556,254.411" style="fill:none;stroke:white;stroke-width:1.06px;"/>
            </g>
            <g transform="matrix(1.41525,0,0,1.41525,466.266,1220.48)">
                <path d="M654.933,264.402C654.878,260.492 654.65,258.719 654.501,257.793C654.124,255.453 651.859,253.208 649.786,253.296C646.613,253.431 645.444,264.269 645.444,264.269C645.444,264.269 647.264,264.366 648.36,264.366C653.505,264.366 659.533,264.772 664.485,263.121" style="fill:none;stroke:white;stroke-width:1.06px;"/>
            </g>
            <g transform="matrix(1.41525,0,0,1.41525,466.266,1220.48)">
                <path d="M655.677,264.25C655.068,264.56 655.762,260.912 655.8,260.762C656.495,258.06 658.382,255.749 661.167,255.033C665.531,253.911 665.479,259.552 665.807,262.395" style="fill:none;stroke:white;stroke-width:1.06px;"/>
            </g>
            <g transform="matrix(1.41525,0,0,1.41525,466.266,1220.48)">
                <path d="M654.497,221.096C654.77,233.617 655.161,249.861 655.161,262.398" style="fill:none;stroke:white;stroke-width:1.06px;"/>
            </g>
            <g transform="matrix(0.777347,0,0,0.777347,876.884,1197.77)">
                <path d="M760.346,184.614C760.026,185.45 767.613,182.517 768.4,182.181C773.354,180.065 777.933,177.639 781.63,173.634C791.921,162.486 806.897,143.391 801.65,126.881C798.748,117.747 788.884,124.696 788.069,131.213C785.731,149.922 814.069,152.379 825.378,146.823C846.064,136.662 852.324,85.879 868.619,72.62C888.863,56.148 917.681,59.516 931.862,52.462" style="fill:none;stroke:white;stroke-width:1.93px;"/>
            </g>
            <g transform="matrix(0.891103,0.18956,-0.18956,0.891103,808.285,1055.79)">
                <path d="M816.573,136.512C815.417,134.796 812.324,136.075 811.652,137.549C810.089,140.971 812.507,144.613 816.071,144.996C817.517,145.152 819.042,144.317 820.336,143.764" style="fill:none;stroke:white;stroke-width:0.81px;"/>
            </g>
            <g transform="matrix(0.891103,0.18956,-0.18956,0.891103,808.285,1055.79)">
                <path d="M820.339,132.813C820.065,132.66 821.055,135.242 821.212,135.746C821.656,137.172 821.965,140.581 823.199,141.626C824.353,142.605 826.521,140.109 827.664,139.978" style="fill:none;stroke:white;stroke-width:0.81px;"/>
            </g>
            <g transform="matrix(0.891103,0.18956,-0.18956,0.891103,808.285,1055.79)">
                <path d="M825.983,129.255C825.976,129.252 826.5,129.945 826.6,130.079C827.049,130.675 827.492,131.277 827.937,131.877C829.241,133.632 830.574,135.381 831.814,137.182" style="fill:none;stroke:white;stroke-width:0.81px;"/>
            </g>
            <g transform="matrix(0.891103,0.18956,-0.18956,0.891103,808.285,1055.79)">
                <path d="M832.051,122.752C831.169,121.626 830.531,124.894 830.543,125.223C830.616,127.227 831.842,129.253 833.068,130.771C835.214,133.431 837.501,131.778 839.443,129.78" style="fill:none;stroke:white;stroke-width:0.81px;"/>
            </g>
            <g transform="matrix(0.891103,0.18956,-0.18956,0.891103,808.285,1055.79)">
                <path d="M832.589,117.067C833.13,117.637 834.596,118.05 835.289,118.459C837.725,119.9 840.141,121.331 842.438,122.982" style="fill:none;stroke:white;stroke-width:0.81px;"/>
            </g>
            <g transform="matrix(0.891103,0.18956,-0.18956,0.891103,808.285,1055.79)">
                <path d="M836.722,110.592C836.65,110.537 836.811,111.599 836.82,111.65C836.933,112.254 837.056,112.855 837.181,113.456C837.508,115.029 837.886,116.613 838.107,118.205C838.133,118.392 837.925,119.361 838.126,119.439C838.671,119.649 839.604,118.709 839.963,118.437C841.62,117.18 842.954,115.739 844.239,114.12" style="fill:none;stroke:white;stroke-width:0.81px;"/>
            </g>
            <g transform="matrix(0.939544,0.00793976,-0.00866108,1.0249,719.904,1182.04)">
                <path d="M846.034,85.564C845.663,85.513 846.763,85.743 847.12,85.86C847.753,86.067 848.372,86.288 848.982,86.558C850.713,87.327 852.576,88.157 853.905,89.542" style="fill:none;stroke:white;stroke-width:0.75px;"/>
            </g>
            <g transform="matrix(0.939544,0.00793976,-0.00866108,1.0249,719.904,1182.04)">
                <path d="M849.28,77.296C851.886,77.303 854.144,79.33 856.385,80.803C856.591,80.939 858.795,82.043 858.726,82.285" style="fill:none;stroke:white;stroke-width:0.75px;"/>
            </g>
            <g transform="matrix(0.939544,0.00793976,-0.00866108,1.0249,719.904,1182.04)">
                <path d="M849.316,87.621C849.419,87.649 850.523,85.73 850.591,85.627C851.78,83.799 852.999,81.989 854.175,80.153" style="fill:none;stroke:white;stroke-width:0.75px;"/>
            </g>
            <g transform="matrix(0.939544,0.00793976,-0.00866108,1.0249,719.904,1182.04)">
                <path d="M857.469,66.312C857.458,66.588 856.029,67.35 855.837,67.496C854.639,68.402 852.263,69.898 852.156,71.596C852.068,72.979 853.94,74.467 854.786,75.332C855.393,75.953 856.015,76.559 856.619,77.182C857.214,77.796 858.015,78.982 858.902,79.225C860.445,79.65 863.485,74.546 864.32,73.594" style="fill:none;stroke:white;stroke-width:0.75px;"/>
            </g>
            <g transform="matrix(0.939544,0.00793976,-0.00866108,1.0249,719.904,1182.04)">
                <path d="M854.101,77.416C854.147,76.967 855.148,76.283 855.429,76.018C856.935,74.599 858.555,73.293 860.026,71.839" style="fill:none;stroke:white;stroke-width:0.75px;"/>
            </g>
            <g transform="matrix(0.939544,0.00793976,-0.00866108,1.0249,719.904,1182.04)">
                <path d="M866.014,71.555C863.443,71.003 861.893,65.715 861.707,63.633C861.629,62.761 861.647,60.641 862.962,60.541C865.666,60.336 864.004,64.643 863.208,65.6C863.043,65.798 862.162,66.497 862.21,66.793C862.254,67.065 864.205,66.844 864.359,66.838C866.836,66.746 869.503,67.258 871.942,66.936" style="fill:none;stroke:white;stroke-width:0.75px;"/>
            </g>
            <g transform="matrix(0.939544,0.00793976,-0.00866108,1.0249,719.904,1182.04)">
                <path d="M872.003,53.322C870.84,52.959 866.955,55.271 866.669,56.399C866.543,56.896 869.475,59.697 869.802,60.099C870.432,60.873 872.357,64.638 873.334,64.876C873.714,64.969 874.359,64.127 874.578,63.925C875.85,62.758 877.315,61.811 878.56,60.616" style="fill:none;stroke:white;stroke-width:0.75px;"/>
            </g>
            <g transform="matrix(0.939544,0.00793976,-0.00866108,1.0249,719.904,1182.04)">
                <path d="M868.683,62.339C868.878,62.47 870.371,60.991 870.479,60.899C872.243,59.406 874.016,57.927 875.828,56.494" style="fill:none;stroke:white;stroke-width:0.75px;"/>
            </g>
            <g transform="matrix(0.939544,0.00793976,-0.00866108,1.0249,719.904,1182.04)">
                <path d="M878.619,48.162C878.586,47.969 878.812,48.502 878.911,48.67C879.194,49.149 879.488,49.622 879.778,50.096C880.741,51.671 881.709,53.242 882.682,54.81" style="fill:none;stroke:white;stroke-width:0.75px;"/>
            </g>
            <g transform="matrix(0.939544,0.00793976,-0.00866108,1.0249,719.904,1182.04)">
                <path d="M884.294,58.45C884.223,58.476 884.422,58.382 884.217,58.245" style="fill:none;stroke:white;stroke-width:0.75px;"/>
            </g>
            <g transform="matrix(1.41525,0,0,1.41525,469.619,1219.6)">
                <path d="M657.599,115.388C658.099,115.377 655.722,113.032 652.248,114.171C645.873,116.263 642.791,124.932 643.391,125.361C643.628,125.531 657.599,122.926 657.599,115.388Z" style="fill:none;stroke:white;stroke-width:1.06px;"/>
            </g>
            <g transform="matrix(1.29061,0,0,1.3773,268.849,1211.61)">
                <path d="M791.927,135.213C787.833,140.667 785.42,148.836 792.582,150.711C802.327,153.263 811.815,131.434 801.346,129.53" style="fill:none;stroke:white;stroke-width:1.12px;"/>
            </g>
            <g transform="matrix(1.29061,0,0,1.3773,261.622,1212.64)">
                <path d="M806.422,158.878C799.154,155.601 792.331,162.165 790.342,167.177C788.129,172.754 783.663,180.601 783.69,200.639C783.694,203.809 783.09,208.296 783.308,208.281C784.364,208.212 789.322,207.81 791.089,207.613C796.722,206.988 806.127,205.764 811.792,205.517" style="fill:none;stroke:white;stroke-width:1.12px;"/>
            </g>
            <g transform="matrix(1.29061,0,0,1.3773,261.622,1212.64)">
                <path d="M784.582,208.027C780.783,225.71 790.342,247.891 790.342,266.166" style="fill:none;stroke:white;stroke-width:1.12px;"/>
            </g>
            <g transform="matrix(1.03818,0,0,1.27936,462.464,1235.75)">
                <path d="M801.42,241.028C799.419,250.177 798.047,269.496 798.047,269.496L799.733,269.108C787.471,271.203 782.717,265.008 777.807,268.445C774.094,271.044 777.932,274.825 780.793,276.03C786.517,278.44 792.91,276.743 796.155,276.185" style="fill:none;stroke:white;stroke-width:1.29px;"/>
            </g>
            <path d="M1300.53,1578.95C1300.53,1578.95 1309.91,1579.98 1312.27,1578.95" style="fill:none;stroke:white;stroke-width:1.5px;"/>
            <g transform="matrix(1.29061,0,0,1.3773,261.622,1212.64)">
                <path d="M798.662,223.95C799.435,224.417 799.745,236.564 800.245,240.348C801.065,246.559 802.164,252.552 803.507,258.66C803.959,260.719 804.331,262.799 804.725,264.869C804.947,266.033 805.917,269.244 805.079,268.406C799.517,262.844 786.966,271.74 798.359,273.986C804.417,275.181 814.1,272.42 814.1,272.42C814.1,272.42 813.918,260.281 814.431,248.993C814.756,241.858 815.974,218.129 810.967,202.692" style="fill:none;stroke:white;stroke-width:1.12px;"/>
            </g>
            <g transform="matrix(1.29061,0,0,1.3773,261.622,1212.64)">
                <path d="M806.422,158.878C808.02,160.158 818.825,164.193 822.998,169.77C826.404,174.322 814.591,193.506 809.523,196.04" style="fill:none;stroke:white;stroke-width:1.12px;"/>
            </g>
            <g transform="matrix(1.29061,0,0,1.3773,261.622,1212.64)">
                <path d="M805.555,196.813C806.037,198.66 807.128,200.306 808.065,201.218C809.369,202.487 813.569,203.967 815.014,200.779C816.743,196.962 810.142,196.273 809.952,196.178C808.182,195.293 804.018,198.195 804.018,196.217C804.018,190.742 812.842,177.793 810.743,176.408" style="fill:none;stroke:white;stroke-width:1.12px;"/>
            </g>
            <g transform="matrix(1.35375,0.648558,-0.692122,1.44469,331.446,679.592)">
                <path d="M811.076,175.81C810.219,175.245 808.937,174.771 807.403,174.687" style="fill:none;stroke:white;stroke-width:0.97px;"/>
            </g>
            <g transform="matrix(1.29061,0,0,1.3773,261.622,1212.64)">
                <path d="M795.059,160.902C790.177,161.893 778.279,172.446 777.569,175.996C776.686,180.413 782.023,188.152 781.736,193.309C781.702,193.927 781.656,193.246 781.108,192.956C778.99,191.834 775.468,195.295 775.409,197.278C775.293,201.223 780.575,200.359 782.208,198.182" style="fill:none;stroke:white;stroke-width:1.12px;"/>
            </g>
            <g transform="matrix(1.29061,0,0,1.3773,268.849,1211.61)">
                <path d="M801.728,127.595C804.415,120.923 795.476,122.601 795.07,127.314C794.715,131.435 799.188,137.455 803.821,134.717C810.37,130.847 795.059,117.223 791.325,129.727C789.149,137.012 797.891,139.184 803.546,141.358" style="fill:none;stroke:white;stroke-width:1.12px;"/>
            </g>
            <g transform="matrix(1,0,0,1,1230.82,1217.87)">
                <path d="M143.299,249.194C143.299,249.194 140.983,286.305 146.53,287.578C152.077,288.851 162.113,291.302 166.224,285.961C170.334,280.621 156.229,283.433 155.204,274.846C154.178,266.258 144.593,238.912 143.299,249.194Z" style="fill:rgb(89,248,232);fill-opacity:0.16;"/>
            </g>
        </g>
    </g>
</svg>
