<?xml version="1.0" encoding="UTF-8" standalone="no"?>
<!DOCTYPE svg PUBLIC "-//W3C//DTD SVG 1.1//EN" "http://www.w3.org/Graphics/SVG/1.1/DTD/svg11.dtd">
<svg width="100%" height="100%" viewBox="0 0 200 200" version="1.1" xmlns="http://www.w3.org/2000/svg" xmlns:xlink="http://www.w3.org/1999/xlink" xml:space="preserve" xmlns:serif="http://www.serif.com/" style="fill-rule:evenodd;clip-rule:evenodd;stroke-linecap:round;stroke-linejoin:round;stroke-miterlimit:1.5;">
    <g transform="matrix(1,0,0,1,-1515.94,-724.372)">
        <g transform="matrix(1.12805,0,0,1.32411,975.319,346.764)">
            <path d="M519.407,332.772C515.548,336.744 518.157,346.5 524.767,342.881C530.245,339.881 522.876,326.709 518.073,331.05C515.518,333.358 516.752,337.239 519.858,335.322C520.929,334.661 524.928,330.505 520.873,330.257" style="fill:none;stroke:rgb(86,96,255);stroke-width:1.63px;"/>
        </g>
        <g transform="matrix(1.32411,0,0,1.32411,875.295,346.034)">
            <path d="M518.117,349.187C516.607,349.152 515.826,352.155 515.657,353.646C515.294,356.855 515.212,360.048 515.212,363.28C515.212,372.379 517.357,381.502 517.568,390.589C517.606,392.218 517.373,401.527 519.096,401.275C521.884,400.867 529.642,401.93 529.642,399.588C529.642,398.217 526.775,399.222 526.795,398.868C527.103,393.582 528.926,386.079 527.236,376.259" style="fill:none;stroke:rgb(86,96,255);stroke-width:1.51px;"/>
        </g>
        <g transform="matrix(1.32411,0,0,1.32411,875.295,346.034)">
            <path d="M517.608,357.298C517.737,359.422 519.591,372.016 523.994,374.847C524.534,375.194 526.84,373.488 526.73,372.585C526.73,372.585 524.838,370.545 524.007,363.956" style="fill:none;stroke:rgb(86,96,255);stroke-width:1.51px;"/>
        </g>
        <g transform="matrix(0.730984,0,0,0.730984,379.433,-236.901)">
            <path d="M1629.14,1476.44C1629.14,1476.76 1629.05,1477.31 1629.18,1477.58C1629.62,1478.45 1631.29,1478.96 1632.14,1479.01C1632.42,1479.02 1633.16,1479.21 1633.4,1479.02C1635.07,1477.67 1635.64,1474.68 1633.12,1473.96C1632.86,1473.89 1632.48,1473.67 1632.2,1473.67" style="fill:none;stroke:rgb(86,96,255);stroke-width:2.74px;"/>
        </g>
        <g transform="matrix(0.520153,0.513593,-0.513593,0.520153,1508.1,-761.1)">
            <path d="M1629.14,1476.44C1629.14,1476.76 1629.05,1477.31 1629.18,1477.58C1629.62,1478.45 1631.29,1478.96 1632.14,1479.01C1632.42,1479.02 1633.16,1479.21 1633.4,1479.02C1635.07,1477.67 1635.64,1474.68 1633.12,1473.96C1632.86,1473.89 1632.48,1473.67 1632.2,1473.67" style="fill:none;stroke:rgb(86,96,255);stroke-width:2.74px;"/>
        </g>
        <g transform="matrix(1.32411,0,0,1.32411,875.295,346.034)">
            <path d="M518.117,349.187C520.255,348.955 521.431,348.907 522.819,349.846C524.478,350.969 525.92,353.319 526.468,355.119C528.623,362.185 527.596,367.183 527.596,373.715" style="fill:none;stroke:rgb(86,96,255);stroke-width:1.51px;"/>
        </g>
        <g transform="matrix(1.02324,0,0,1.28221,1039.98,360.391)">
            <path d="M551.664,332.737C549.564,337.099 553.247,344.691 558.83,342.881C563.146,341.481 563.758,332.071 561.187,329.821C558.636,327.588 557.987,331.972 559.027,333.359C559.932,334.566 567.592,336.768 564.458,339.51C563.162,340.645 563.989,336.093 563.64,334.406C562.947,331.055 560.703,328.406 557.194,328.025C547.929,327.018 551.201,336.473 557.979,334.046" style="fill:none;stroke:rgb(86,96,255);stroke-width:1.72px;"/>
        </g>
        <g transform="matrix(1.32411,0,0,1.32411,870.921,346.034)">
            <path d="M556.598,347.538C569.712,350.304 580.98,346.152 582.161,346.742C582.873,347.098 580.359,351.499 580.067,351.846C577.329,355.097 568.737,356.117 564.734,356.689" style="fill:none;stroke:rgb(86,96,255);stroke-width:1.51px;"/>
        </g>
        <g transform="matrix(1.32411,0,0,1.32411,870.921,346.034)">
            <path d="M556.598,347.538C550.333,345.125 547.279,366.881 548.217,374.893C548.398,376.435 549.594,374.977 550.244,375.453C552.875,377.376 553.332,361.7 553.672,362.04C555.131,363.499 553.177,373.625 553.202,375.439C553.28,380.941 553.181,396.463 554.327,399.031C554.624,399.698 560.723,401.321 564.241,399.606C566.236,398.633 567.63,389.364 567.665,386.859C567.796,377.461 568.948,366.08 564.734,356.689" style="fill:none;stroke:rgb(86,96,255);stroke-width:1.51px;"/>
        </g>
        <g transform="matrix(1.32411,0,0,1.32411,870.921,346.034)">
            <path d="M554.468,399.144C553.606,398.204 555.188,394.855 556.474,394.757C557.384,394.687 560.355,399.209 559.419,399.677C559.143,399.816 560.402,395.97 562.406,395.906C565.02,395.822 565.11,398.023 564.241,399.606" style="fill:none;stroke:rgb(86,96,255);stroke-width:1.51px;"/>
        </g>
        <g transform="matrix(1.32411,0,0,1.32411,869.047,346.034)">
            <path d="M586.296,318.381C589.256,318.745 599.621,320.55 602.776,321.284C603.589,321.473 606.465,321.61 606.735,322.691C608.224,328.648 607.162,335.768 607.259,341.834C607.469,355.066 607.488,368.291 607.488,381.525C607.488,386.153 607.446,390.775 607.651,395.399C607.695,396.374 608.563,399.345 608.044,400.209C607.547,401.037 601.444,401.528 600.616,401.649C595.039,402.462 592.349,403.086 587.91,404.123" style="fill:none;stroke:rgb(86,96,255);stroke-width:1.51px;"/>
        </g>
        <g transform="matrix(1.32411,0,0,1.32411,869.047,346.034)">
            <path d="M586.296,318.381C585.748,322.464 587.165,331.401 587.429,336.271C588.088,348.397 588.501,360.516 588.738,372.658C588.912,381.568 585.811,395.73 587.91,404.123" style="fill:none;stroke:rgb(86,96,255);stroke-width:1.51px;"/>
        </g>
        <g transform="matrix(1.32411,0,0,1.32411,869.047,346.034)">
            <path d="M591.651,358.294C590.965,360.713 593.301,361.653 593.581,359.438C593.827,357.489 591.906,357.812 591.651,358.294" style="fill:none;stroke:rgb(86,96,255);stroke-width:1.51px;"/>
        </g>
        <g transform="matrix(1.32411,0,0,1.32411,869.047,346.034)">
            <path d="M586.171,324.652C586.967,324.436 577.159,324.846 577.154,324.884C576.394,331.724 579.234,339.938 579.178,347.068" style="fill:none;stroke:rgb(86,96,255);stroke-width:1.51px;"/>
        </g>
        <g transform="matrix(1.32411,0,0,1.32411,869.047,346.034)">
            <path d="M579.262,353.522C579.557,359.17 579.606,365.617 579.674,366.571C580.346,375.974 579.857,388.505 579.994,396.659C579.998,396.903 587.179,396.767 587.179,396.479" style="fill:none;stroke:rgb(86,96,255);stroke-width:1.51px;"/>
        </g>
        <g transform="matrix(0.730984,0,0,0.730984,379.433,-236.901)">
            <path d="M1630.06,1523.78C1630.06,1523.12 1630.12,1521.97 1630.06,1521.3C1629.61,1516.64 1625.17,1518.58 1625.1,1518.47C1624.85,1518.06 1624.68,1493.02 1624.68,1491.66" style="fill:none;stroke:rgb(86,96,255);stroke-width:2.74px;"/>
        </g>
        <g transform="matrix(0.730984,0,0,0.730984,375.06,-236.901)">
            <path d="M1691.8,1518.51C1691.8,1518.51 1694.53,1500.05 1693.95,1488.28" style="fill:none;stroke:rgb(86,96,255);stroke-width:2.74px;"/>
        </g>
    </g>
</svg>
