<?xml version="1.0" encoding="UTF-8" standalone="no"?>
<!DOCTYPE svg PUBLIC "-//W3C//DTD SVG 1.1//EN" "http://www.w3.org/Graphics/SVG/1.1/DTD/svg11.dtd">
<svg width="100%" height="100%" viewBox="0 0 1124 695" version="1.1" xmlns="http://www.w3.org/2000/svg" xmlns:xlink="http://www.w3.org/1999/xlink" xml:space="preserve" xmlns:serif="http://www.serif.com/" style="fill-rule:evenodd;clip-rule:evenodd;stroke-linecap:round;stroke-linejoin:round;stroke-miterlimit:1.5;">
    <g transform="matrix(5.32361,0,0,5.71356,-1269.04,-3209.53)">
        <path d="M302.02,661.893C303.267,662.15 308.156,662.462 315.474,662.837" style="fill:none;stroke:rgb(99,125,255);stroke-width:0.43px;"/>
    </g>
    <g transform="matrix(1.62065,0,0,1.62065,-872.041,-396.974)">
        <path d="M854.026,604.571C955.952,609.624 1105.35,616.956 1189.32,627.446" style="fill:none;stroke:rgb(99,125,255);stroke-width:1.48px;"/>
    </g>
    <g transform="matrix(1.62065,0,0,1.62065,-872.041,-396.974)">
        <path d="M801.556,601.916C814.547,602.603 829.376,603.347 845.552,604.15" style="fill:none;stroke:rgb(99,125,255);stroke-width:1.48px;"/>
    </g>
    <g transform="matrix(5.32361,0,0,5.71356,-1269.04,-3209.53)">
        <path d="M244.238,661.397C263.847,664.617 385.085,679.28 427.071,683.164" style="fill:none;stroke:rgb(99,125,255);stroke-width:0.43px;"/>
    </g>
    <g transform="matrix(5.32361,0,0,5.71356,-1269.04,-3209.53)">
        <path d="M303.026,619.152C311.612,613.825 325.289,605.773 333.383,600.832C350.489,590.388 366.742,578.871 384.266,569.108" style="fill:none;stroke:rgb(99,125,255);stroke-width:0.43px;"/>
    </g>
    <g transform="matrix(1.62065,0,0,1.62065,-872.041,-396.974)">
        <path d="M819.031,541.878C819.032,541.913 819.032,541.948 819.032,541.982C819.085,551.734 819.129,561.12 819.226,569.99" style="fill:none;stroke:rgb(99,125,255);stroke-width:1.48px;"/>
    </g>
    <g transform="matrix(1.62065,0,0,1.62065,-872.041,-396.974)">
        <path d="M818.575,448.552C818.568,457.623 817.79,469.525 818.183,482.661C818.722,500.648 818.891,518.414 818.994,535.226" style="fill:none;stroke:rgb(99,125,255);stroke-width:1.48px;"/>
    </g>
    <g transform="matrix(5.32361,0,0,5.71356,-1269.04,-3209.53)">
        <path d="M344.989,609.41C344.939,612.609 344.825,617.113 344.758,620.312C344.557,629.868 344.575,643.275 344.575,652.844" style="fill:none;stroke:rgb(99,125,255);stroke-width:0.43px;"/>
    </g>
    <g transform="matrix(1.62065,0,0,1.62065,-872.041,-396.974)">
        <path d="M860.769,568.507C870.581,567.79 879.728,566.918 885.556,566.136" style="fill:none;stroke:rgb(99,125,255);stroke-width:1.48px;"/>
    </g>
    <g transform="matrix(1.62065,0,0,1.62065,-872.041,-396.974)">
        <path d="M819.226,569.727C824.16,570.145 832.568,570.033 841.955,569.621" style="fill:none;stroke:rgb(99,125,255);stroke-width:1.48px;"/>
    </g>
    <g transform="matrix(5.32361,0,0,5.71356,-1269.04,-3209.53)">
        <path d="M323.338,619.12C324.661,618.517 329.541,616.212 330.889,615.664C334.774,614.085 341.6,611.923 344.977,609.325" style="fill:none;stroke:rgb(99,125,255);stroke-width:0.43px;"/>
    </g>
    <g transform="matrix(5.32361,0,0,5.71356,-1269.04,-3209.53)">
        <path d="M351.503,606.311C351.474,607.482 351.426,608.654 351.39,609.825C351.293,612.929 351.063,616.025 350.842,619.121C350.237,627.581 350.963,644.368 350.963,652.844" style="fill:none;stroke:rgb(99,125,255);stroke-width:0.43px;"/>
    </g>
    <g transform="matrix(5.32361,0,0,5.71356,-1269.04,-3209.53)">
        <path d="M351.052,606.311C353.635,604.548 358.923,602.655 361.749,601.388C367.053,599.008 375.312,594.525 379.523,593.335" style="fill:none;stroke:rgb(99,125,255);stroke-width:0.43px;"/>
    </g>
    <g transform="matrix(5.32361,0,0,5.71356,-1269.04,-3209.53)">
        <path d="M379.828,593.618C379.747,593.044 379.751,594.774 379.712,595.352C379.627,596.607 379.627,597.855 379.656,599.112C379.743,602.956 379.997,606.792 380.034,610.638C380.091,616.697 380.132,622.782 380.61,628.831C381.051,634.409 380.174,644.83 380.61,650.395" style="fill:none;stroke:rgb(99,125,255);stroke-width:0.43px;"/>
    </g>
    <g transform="matrix(2.8598,0,0,2.8598,-730.737,-1351.89)">
        <path d="M403.727,625.785C403.549,626.223 403.624,627.603 403.651,627.825C403.885,629.796 404.99,633.355 407.692,631.788C409.997,630.45 408.9,623.289 406.891,623.824" style="fill:none;stroke:rgb(99,125,255);stroke-width:0.84px;"/>
    </g>
    <g transform="matrix(5.32361,0,0,5.71356,-1269.04,-3209.53)">
        <path d="M303.196,619.196C303.136,618.506 302.746,622.749 302.726,623.281C302.597,626.664 302.639,630.055 302.607,633.44C302.52,642.922 301.91,652.406 301.91,661.882" style="fill:none;stroke:rgb(99,125,255);stroke-width:0.43px;"/>
    </g>
    <g transform="matrix(2.8598,0,0,2.8598,-730.737,-1351.89)">
        <path d="M405.924,634.206C407.877,633.121 409.807,635.19 410.143,635.64C410.827,636.559 412.095,638.023 413.341,638.122C414.28,638.196 414.967,637.215 415.452,636.562C416.769,634.793 417.703,633.231 418.618,631.218" style="fill:none;stroke:rgb(99,125,255);stroke-width:0.84px;"/>
    </g>
    <g transform="matrix(2.8598,0,0,2.8598,-730.737,-1351.89)">
        <path d="M418.64,631.296C418.935,631.607 420.243,631.778 420.487,632.363C420.572,632.567 420.137,633.138 420.053,633.292C419.65,634.04 419.315,634.822 418.958,635.593C417.858,637.968 416.091,641.138 413.207,641.572C411.856,641.776 410.123,641.262 408.858,640.824C406.713,640.081 402.732,636.527 405.924,634.206" style="fill:none;stroke:rgb(99,125,255);stroke-width:0.84px;"/>
    </g>
    <g transform="matrix(2.72987,0,0,2.7237,-676.611,-1264.6)">
        <path d="M418.932,630.921C418.632,630.833 418.636,626.896 419.045,626.241C419.183,626.021 419.663,626.06 419.88,626.06C421.209,626.06 421.438,626.626 421.542,627.935C421.597,628.628 421.513,629.323 421.487,630.015C421.455,630.87 421.138,631.625 420.682,631.978" style="fill:none;stroke:rgb(99,125,255);stroke-width:0.88px;"/>
    </g>
    <g transform="matrix(2.61069,0,0,2.61069,-628.035,-1194.55)">
        <path d="M414.841,628.584C414.636,628.2 414.722,627.859 414.357,627.486C412.383,625.469 411.984,629.134 412.474,630.511C413.423,633.175 414.912,630.42 414.869,628.881" style="fill:none;stroke:rgb(99,125,255);stroke-width:0.92px;"/>
    </g>
    <g transform="matrix(2.8598,0,0,2.8598,-225.969,-1307.49)">
        <path d="M414.841,628.584C414.636,628.2 414.722,627.859 414.357,627.486C412.383,625.469 411.984,629.134 412.474,630.511C413.423,633.175 414.912,630.42 414.869,628.881" style="fill:none;stroke:rgb(99,125,255);stroke-width:0.84px;"/>
    </g>
    <g transform="matrix(2.8598,0,0,2.8598,-730.737,-1351.89)">
        <path d="M406.299,634.035C404.209,633.975 402.996,635.97 402.635,637.933C402.376,639.338 400.937,648.767 400.381,652.058C400.318,652.434 399.493,655.321 399.917,655.627C400.89,656.33 403.122,656.18 404.242,656.249C405.612,656.335 410.651,656.498 410.651,656.498C410.651,656.498 410.779,654.001 411.144,652.665C412.046,649.355 412.109,645.837 411.742,642.447" style="fill:none;stroke:rgb(99,125,255);stroke-width:0.84px;"/>
    </g>
    <g transform="matrix(2.8598,0,0,2.8598,-730.737,-1351.89)">
        <path d="M410.174,635.712C410.442,635.892 410.942,635.409 411.072,635.262C411.96,634.252 411.909,633.134 412.372,631.977" style="fill:none;stroke:rgb(99,125,255);stroke-width:0.84px;"/>
    </g>
    <g transform="matrix(2.8598,0,0,2.8598,-730.737,-1351.89)">
        <path d="M412.495,631.905C413.42,631.951 414.404,631.767 414.518,632.024C414.699,632.433 414.122,636.845 413.38,638.106" style="fill:none;stroke:rgb(99,125,255);stroke-width:0.84px;"/>
    </g>
    <g transform="matrix(2.8598,0,0,2.8598,-730.737,-1351.89)">
        <path d="M407.084,623.102C407.096,622.349 405.773,622.5 405.368,622.68C404.254,623.177 403.783,624.608 403.73,625.737C403.714,626.061 403.647,626.881 404.068,627.021C405.713,627.57 406.93,624.252 407.007,623.185C407.056,622.51 406.924,621.648 406.093,621.601C403.735,621.469 401.761,624.034 401.609,626.309C401.368,629.908 405.02,628.629 405.885,626.086" style="fill:none;stroke:rgb(99,125,255);stroke-width:0.84px;"/>
    </g>
    <g transform="matrix(2.8598,0,0,2.8598,-730.737,-1351.89)">
        <path d="M403.521,656.227C403.559,657.263 403.42,659.404 403.407,660.441C403.365,663.703 402.713,666.79 402.067,669.973C401.691,671.829 401.475,673.706 401.185,675.575C401.162,675.723 400.62,680.482 400.523,680.514C400.483,680.528 401.158,677.548 400.962,677.435C400.293,677.052 399.719,677.629 399.4,677.341C398.854,676.846 398.143,680.055 398.885,680.263C399.829,680.527 400.597,680.738 401.453,680.664C403.315,680.502 405.72,680.227 407.511,680.916" style="fill:none;stroke:rgb(99,125,255);stroke-width:0.84px;"/>
    </g>
    <g transform="matrix(2.8598,0,0,2.8598,-730.737,-1351.89)">
        <path d="M408.015,656.793C407.91,657.314 407.818,657.838 407.724,658.361C407.43,659.991 407.099,661.614 406.81,663.245C405.931,668.211 405.616,673.348 403.927,678.135" style="fill:none;stroke:rgb(99,125,255);stroke-width:0.84px;"/>
    </g>
    <g transform="matrix(2.8598,0,0,2.8598,-730.737,-1351.89)">
        <path d="M400.893,678.499C401.366,677.798 402.516,677.792 402.821,677.78C403.837,677.737 406.479,677.959 406.479,680.514" style="fill:none;stroke:rgb(99,125,255);stroke-width:0.84px;"/>
    </g>
    <g transform="matrix(2.8598,0,0,2.8598,-730.737,-1351.89)">
        <path d="M404.25,677.164C404.347,677.552 405.68,677.696 406.479,678.042C407.216,678.361 408.779,680.014 407.125,680.664" style="fill:none;stroke:rgb(99,125,255);stroke-width:0.84px;"/>
    </g>
    <g transform="matrix(2.8598,0,0,2.8598,-730.737,-1351.89)">
        <path d="M401.104,656.061C401.174,655.92 400.925,656.889 400.909,656.99C400.825,657.519 400.749,658.05 400.681,658.581C400.477,660.175 400.38,661.777 400.279,663.379C399.96,668.453 399.306,673.496 398.664,678.537" style="fill:none;stroke:rgb(99,125,255);stroke-width:0.84px;"/>
    </g>
    <g transform="matrix(2.62243,0,0,2.62243,-628.517,-1203.3)">
        <path d="M431.039,627.164C431.038,627.162 431.008,627.996 431.011,628.091C431.037,628.953 431.164,629.815 431.339,630.658C431.682,632.312 434.268,637.841 436.73,635.379C440.966,631.143 434.795,623.263 430.637,626.917" style="fill:none;stroke:rgb(99,125,255);stroke-width:0.92px;"/>
    </g>
    <g transform="matrix(2.8598,0,0,2.8598,-730.737,-1351.89)">
        <path d="M433.351,625.976C431.844,624.351 429.963,627.71 429.528,628.647C428.323,631.24 426.562,637.892 429.613,640C431.376,641.217 431.936,635.656 431.867,634.823" style="fill:none;stroke:rgb(99,125,255);stroke-width:0.84px;"/>
    </g>
    <g transform="matrix(2.8598,0,0,2.8598,-730.737,-1351.89)">
        <path d="M432.437,638.16C430.959,643.007 429.912,647.934 428.929,652.907C428.233,656.425 427.558,659.949 426.904,663.475C426.623,664.986 425.984,667.121 426.447,668.651C426.981,670.414 434.073,671.57 435.29,670.235C436.998,668.359 436.877,664.883 437.258,662.533C438.41,655.424 440.592,636.444 432.437,638.16" style="fill:none;stroke:rgb(99,125,255);stroke-width:0.84px;"/>
    </g>
    <g transform="matrix(2.8598,0,0,2.8598,-730.737,-1351.89)">
        <path d="M432.028,646.758C432.265,649.765 431.74,652.881 431.795,655.902C431.812,656.807 431.476,659.897 431.476,659.897C431.476,659.897 435.666,660.078 437.53,660.078" style="fill:none;stroke:rgb(99,125,255);stroke-width:0.84px;"/>
    </g>
    <g transform="matrix(2.8598,0,0,2.8598,-730.737,-1351.89)">
        <path d="M433.697,660.078C433.371,661.723 432.945,662.531 433.735,664.145C434.719,666.156 436.707,662.995 436.901,661.977" style="fill:none;stroke:rgb(99,125,255);stroke-width:0.84px;"/>
    </g>
    <g transform="matrix(2.8598,0,0,2.8598,-730.737,-1351.89)">
        <path d="M429.774,670.436C429.837,671.544 429.805,673.746 429.799,674.855C429.786,677.256 429.715,681.345 429.535,683.74C429.508,684.098 431.386,684.284 432.123,684.297C434.221,684.332 438.548,685.489 439.425,682.856C440.201,680.529 436.3,680.814 435.061,680.988C434.956,681.003 433.562,681.33 433.535,681.259C433.356,680.781 434.99,673.088 434.99,670.463" style="fill:none;stroke:rgb(99,125,255);stroke-width:0.84px;"/>
    </g>
    <g transform="matrix(5.32361,0,0,5.71356,-1269.04,-3209.53)">
        <path d="M350.963,652.844C352.92,651.844 358.364,651.74 360.453,651.694C367.142,651.549 373.942,650.832 380.61,650.395" style="fill:none;stroke:rgb(99,125,255);stroke-width:0.43px;"/>
    </g>
    <g transform="matrix(5.32361,0,0,5.71356,-1269.04,-3209.53)">
        <path d="M323.617,619.492C326.191,620.043 329.284,621.74 330.436,622.844" style="fill:none;stroke:rgb(99,125,255);stroke-width:0.43px;"/>
    </g>
    <g transform="matrix(5.32361,0,0,5.71356,-1269.04,-3209.53)">
        <path d="M329.991,622.573C330.166,623.037 333.046,621.364 333.893,621.068C336.84,620.036 341.621,618.44 344.575,617.422" style="fill:none;stroke:rgb(99,125,255);stroke-width:0.43px;"/>
    </g>
    <g transform="matrix(5.32361,0,0,5.71356,-1269.04,-3209.53)">
        <path d="M351.503,606.314C354.137,606.151 359.684,610.509 359.833,610.406C361.309,609.388 364.129,608.665 365.787,608.004C371.238,605.832 374.036,605.605 379.523,603.515" style="fill:none;stroke:rgb(99,125,255);stroke-width:0.43px;"/>
    </g>
    <g transform="matrix(5.32361,0,0,5.71356,-1269.04,-3209.53)">
        <path d="M329.991,622.573C330.037,626.469 330.046,630.278 329.963,632.65C329.746,638.85 330.745,647.203 330.436,653.391" style="fill:none;stroke:rgb(99,125,255);stroke-width:0.43px;"/>
    </g>
    <g transform="matrix(5.32361,0,0,5.71356,-1269.04,-3209.53)">
        <path d="M359.826,610.408C359.405,610.301 359.236,614.801 359.201,615.071C358.909,617.361 358.637,619.655 358.388,621.949C357.449,630.617 359.017,644.195 358.74,651.739" style="fill:none;stroke:rgb(99,125,255);stroke-width:0.43px;"/>
    </g>
    <g transform="matrix(3.18585,0,0,3.18585,-1269.86,-1163.36)">
        <path d="M597.778,427.465C597.908,427.294 598.095,433.25 598.234,434.781" style="fill:none;stroke:rgb(99,125,255);stroke-width:0.75px;"/>
    </g>
    <g transform="matrix(3.18585,0,0,3.18585,-1269.86,-1163.36)">
        <path d="M595.798,428.561C595.762,428.525 596.944,427.97 597.079,427.887C597.973,427.338 598.759,426.703 599.759,426.37" style="fill:none;stroke:rgb(99,125,255);stroke-width:0.75px;"/>
    </g>
    <g transform="matrix(3.07195,0,0,3.07195,-1200.84,-1114.09)">
        <path d="M604.426,423.269C604.469,423.412 601.984,424.98 601.984,424.98C601.984,424.98 602.388,427.336 602.417,428.319C602.424,428.542 602.233,432.565 602.605,432.593C603.095,432.631 605.505,431.174 605.983,430.855" style="fill:none;stroke:rgb(99,125,255);stroke-width:0.78px;"/>
    </g>
    <g transform="matrix(0.656211,0,0,0.656211,-255.911,-407.402)">
        <g transform="matrix(3.6561,0,0,3.6561,-1026.94,-528.515)">
            <path d="M604.426,423.269C604.469,423.412 601.984,424.98 601.984,424.98C601.984,424.98 602.388,427.336 602.417,428.319C602.424,428.542 602.233,432.565 602.605,432.593C603.095,432.631 605.505,431.174 605.983,430.855" style="fill:none;stroke:rgb(99,125,255);stroke-width:1px;"/>
        </g>
        <g transform="matrix(3.6561,0,0,3.6561,-1026.94,-528.515)">
            <path d="M602.412,428.561C602.473,428.595 604.819,427.331 605.108,427.2" style="fill:none;stroke:rgb(99,125,255);stroke-width:1px;"/>
        </g>
        <g transform="matrix(-4.0131,-4.91463e-16,4.91463e-16,-4.0131,3629.41,2741.63)">
            <path d="M613.376,426.595C613.514,425.933 613.749,423.969 613.926,422.594C613.968,422.265 614.315,419.225 614.61,418.972C614.726,418.872 616.208,421.417 616.215,421.369C616.33,420.527 617.357,418.62 617.766,417.953C618.03,417.522 619.029,422.878 619.387,424.218" style="fill:none;stroke:rgb(99,125,255);stroke-width:0.91px;"/>
        </g>
        <g transform="matrix(3.17499,0.179429,-0.179429,3.17499,-902.424,-312.406)">
            <path d="M652.019,394.699C652.13,396.12 653.471,404.46 653.471,406.169" style="fill:none;stroke:rgb(99,125,255);stroke-width:1.15px;"/>
        </g>
        <g transform="matrix(3.17499,0.179429,-0.179429,3.17499,-902.424,-312.406)">
            <path d="M652.483,397.811C652.173,395.059 653.505,394.453 654.29,394.364C655.634,394.211 656.942,395.025 657.192,396.103C657.451,397.22 656.658,398.328 655.874,399.026C655.351,399.492 654.248,399.914 652.745,400.031" style="fill:none;stroke:rgb(99,125,255);stroke-width:1.15px;"/>
        </g>
        <g transform="matrix(3.28236,0.0491678,-0.0491678,3.28236,-1025.54,-274.094)">
            <path d="M662.879,392.202C661.535,391.605 659.549,393.469 659.205,395.845C658.789,398.71 660.324,402.982 662.528,402.054C665.894,400.638 664.843,393.076 662.879,392.202Z" style="fill:none;stroke:rgb(99,125,255);stroke-width:1.11px;"/>
        </g>
        <g transform="matrix(3.49472,0,0,3.49472,-1202.9,-309.6)">
            <path d="M687.279,387.743C687.351,387.685 687.059,385.589 687.054,385.5C686.955,383.753 686.25,381.067 686.452,379.501C686.603,378.329 689.185,375.902 689.951,377.74C690.546,379.168 689.629,381.212 688.349,381.932C688.122,382.06 686.867,382.34 686.77,382.535C686.67,382.734 687.203,382.644 687.418,382.705C687.814,382.817 688.213,382.937 688.599,383.08C689.834,383.535 690.928,384.36 692.189,384.739" style="fill:none;stroke:rgb(99,125,255);stroke-width:1.05px;"/>
        </g>
    </g>
    <g transform="matrix(2.58078,0,0,2.58078,-572.739,-534.323)">
        <path d="M605.426,424.579C605.468,424.721 601.984,424.98 601.984,424.98C601.984,424.98 602.388,427.336 602.417,428.319C602.424,428.542 602.233,432.565 602.605,432.593C603.095,432.631 606.142,432.946 606.62,432.627" style="fill:none;stroke:rgb(99,125,255);stroke-width:0.93px;"/>
    </g>
    <g transform="matrix(3.07195,0,0,3.07195,-1200.84,-1114.09)">
        <path d="M602.412,428.561C602.473,428.595 604.819,427.331 605.108,427.2" style="fill:none;stroke:rgb(99,125,255);stroke-width:0.78px;"/>
    </g>
    <g transform="matrix(2.58078,0,0,2.58078,-572.739,-534.323)">
        <path d="M602.412,428.561C602.473,428.595 604.819,428.718 605.108,428.586" style="fill:none;stroke:rgb(99,125,255);stroke-width:0.93px;"/>
    </g>
    <g transform="matrix(2.93611,0,0,2.93611,-1117.06,-1055.97)">
        <path d="M607.108,430C607.142,430.041 607.339,429.193 607.356,429.116C607.47,428.614 607.584,428.112 607.7,427.61C608.113,425.82 608.515,424.025 608.84,422.217C608.868,422.06 608.98,420.611 609.195,420.578C609.461,420.537 609.96,422.014 610.036,422.205C610.672,423.806 611.377,425.506 611.83,427.167" style="fill:none;stroke:rgb(99,125,255);stroke-width:0.82px;"/>
    </g>
    <g transform="matrix(2.29802,0,0,2.29802,-414.295,-466.728)">
        <path d="M607.108,430C607.142,430.041 607.339,429.193 607.356,429.116C607.47,428.614 607.584,428.112 607.7,427.61C608.113,425.82 608.515,424.025 608.84,422.217C608.868,422.06 608.98,420.611 609.195,420.578C609.461,420.537 609.96,422.014 610.036,422.205C610.672,423.806 612.534,428.036 612.988,429.697" style="fill:none;stroke:rgb(99,125,255);stroke-width:1.04px;"/>
    </g>
    <g transform="matrix(2.93611,0,0,2.93611,-1117.06,-1055.97)">
        <path d="M608.167,425.738C607.912,425.983 610.308,424.593 610.832,424.218" style="fill:none;stroke:rgb(99,125,255);stroke-width:0.82px;"/>
    </g>
    <g transform="matrix(2.29802,0,0,2.29802,-414.295,-466.728)">
        <path d="M608.167,425.738C607.912,425.983 610.485,425.663 611.01,425.289" style="fill:none;stroke:rgb(99,125,255);stroke-width:1.04px;"/>
    </g>
    <g transform="matrix(3.18585,0,0,3.18585,-1269.86,-1163.36)">
        <path d="M613.376,426.595C613.514,425.933 613.749,423.969 613.926,422.594C613.968,422.265 614.315,419.225 614.61,418.972C614.726,418.872 616.208,421.417 616.215,421.369C616.33,420.527 617.357,418.62 617.766,417.953C618.03,417.522 619.029,422.878 619.387,424.218" style="fill:none;stroke:rgb(99,125,255);stroke-width:0.75px;"/>
    </g>
    <g transform="matrix(2.25373,0.127366,-0.127366,2.25373,-440.749,-577.616)">
        <path d="M652.019,394.699C652.13,396.12 653.471,404.46 653.471,406.169" style="fill:none;stroke:rgb(99,125,255);stroke-width:1.06px;"/>
    </g>
    <g transform="matrix(2.25373,0.127366,-0.127366,2.25373,-440.749,-577.616)">
        <path d="M652.483,397.811C652.173,395.059 653.505,394.453 654.29,394.364C655.634,394.211 656.942,395.025 657.192,396.103C657.451,397.22 656.658,398.328 655.874,399.026C655.351,399.492 654.248,399.914 652.745,400.031" style="fill:none;stroke:rgb(99,125,255);stroke-width:1.06px;"/>
    </g>
    <g transform="matrix(2.60799,0.15369,-0.135096,2.29244,-759.704,-507.914)">
        <path d="M687.279,387.743C687.351,387.685 687.059,385.589 687.054,385.5C686.955,383.753 686.25,381.067 686.452,379.501C686.603,378.329 689.185,375.902 689.951,377.74C690.546,379.168 690.536,381.668 688.849,382.143C688.109,382.352 686.867,382.34 686.77,382.535C686.67,382.734 690.882,386.478 692.143,386.856" style="fill:none;stroke:rgb(99,125,255);stroke-width:0.98px;"/>
    </g>
    <g transform="matrix(2.8598,0,0,3.03065,-1242.64,-1020.33)">
        <path d="M733.037,459.097C732.209,458.843 732.569,473.054 732.763,484.972C733.019,500.726 732.381,519.696 733.255,535.429" style="fill:none;stroke:rgb(99,125,255);stroke-width:0.81px;"/>
    </g>
    <g transform="matrix(2.99602,0,0,2.99602,-1347.7,-990.062)">
        <path d="M735.016,453.67C734.595,454.073 738.274,453.402 738.441,453.366C741.012,452.825 743.546,452.215 746.085,451.534C754.434,449.292 764.421,447.577 772.786,445.486" style="fill:none;stroke:rgb(99,125,255);stroke-width:0.8px;"/>
    </g>
    <g transform="matrix(2.8598,0,0,2.79314,-1242.64,-893.209)">
        <path d="M772.776,443.278C772.738,442.059 772.92,451.412 772.952,452.606C773.159,460.357 773.161,468.148 772.907,475.897C772.18,498.084 772.859,516.212 772.859,538.384" style="fill:none;stroke:rgb(99,125,255);stroke-width:0.85px;"/>
    </g>
    <g transform="matrix(1.81449,0,0,1.81449,-443.776,-442.971)">
        <path d="M783.15,445.441C782.993,452.249 784.009,455.04 787.072,455.19C791.559,455.409 792.2,448.6 792.2,445.515" style="fill:none;stroke:rgb(99,125,255);stroke-width:1.32px;"/>
    </g>
    <g transform="matrix(1.90918,0,0,1.90918,-515.554,-484.327)">
        <path d="M788.838,480.377C789.117,478.543 785.994,478.426 784.79,478.985C781.698,480.419 780.937,485.644 783.153,488.801C783.954,489.943 786.017,490.653 786.884,489.15C787.727,487.689 787.557,485.123 786.538,485.123C785.654,485.123 789.456,485.744 790.75,485.096" style="fill:none;stroke:rgb(99,125,255);stroke-width:1.26px;"/>
    </g>
    <g transform="matrix(1.88011,0,0,1.88011,-491.577,-449.86)">
        <path d="M783.18,532.211C783.15,531.383 782.781,524.92 782.854,523.106C782.929,521.235 786.654,521.89 787.915,523.565C788.941,524.927 789.701,527.724 789.492,529.114C789.049,532.068 785.236,532.515 783.18,532.211" style="fill:none;stroke:rgb(99,125,255);stroke-width:1.28px;"/>
    </g>
    <g transform="matrix(1.44251,0.344651,-0.323466,1.55907,224.684,-490.574)">
        <g>
            <g transform="matrix(20,0,0,20,386.45,461.641)">
                <path d="M0.469,0.263C0.445,0.265 0.421,0.264 0.397,0.262C0.374,0.26 0.352,0.256 0.331,0.248C0.32,0.244 0.309,0.239 0.302,0.229C0.296,0.221 0.293,0.212 0.293,0.202C0.293,0.192 0.296,0.183 0.301,0.175C0.307,0.166 0.314,0.16 0.323,0.157C0.334,0.152 0.345,0.153 0.355,0.156C0.375,0.162 0.396,0.166 0.416,0.169C0.433,0.171 0.45,0.172 0.468,0.171C0.482,0.17 0.499,0.169 0.511,0.16C0.518,0.155 0.523,0.148 0.523,0.138C0.523,0.131 0.52,0.125 0.514,0.121C0.507,0.117 0.498,0.115 0.49,0.114L0.401,0.105C0.373,0.103 0.344,0.094 0.323,0.075C0.304,0.058 0.295,0.033 0.294,0.007C0.294,-0.018 0.301,-0.043 0.316,-0.063C0.333,-0.085 0.356,-0.101 0.38,-0.113C0.41,-0.126 0.443,-0.133 0.475,-0.136C0.497,-0.137 0.52,-0.137 0.542,-0.135C0.562,-0.133 0.582,-0.128 0.601,-0.121C0.611,-0.117 0.621,-0.112 0.626,-0.102C0.631,-0.094 0.633,-0.084 0.633,-0.075C0.632,-0.065 0.628,-0.056 0.623,-0.047C0.617,-0.039 0.609,-0.033 0.6,-0.029C0.589,-0.025 0.577,-0.026 0.566,-0.029C0.551,-0.034 0.534,-0.038 0.518,-0.041C0.506,-0.043 0.493,-0.043 0.48,-0.043C0.464,-0.042 0.446,-0.04 0.433,-0.031C0.425,-0.026 0.42,-0.018 0.42,-0.008C0.42,-0.002 0.423,0.003 0.428,0.007C0.434,0.013 0.443,0.015 0.45,0.015L0.54,0.024C0.569,0.026 0.599,0.034 0.621,0.053C0.641,0.07 0.65,0.096 0.65,0.122C0.651,0.162 0.634,0.198 0.602,0.222C0.564,0.25 0.516,0.261 0.469,0.263Z" style="fill:rgb(174,188,255);fill-rule:nonzero;"/>
            </g>
            <g transform="matrix(20,0,0,20,395.95,461.641)">
                <path d="M0.292,0.246C0.273,0.247 0.253,0.244 0.238,0.231C0.224,0.218 0.219,0.198 0.218,0.18C0.216,0.038 0.213,-0.104 0.211,-0.246C0.21,-0.265 0.215,-0.285 0.229,-0.3C0.243,-0.314 0.263,-0.321 0.283,-0.322C0.302,-0.323 0.322,-0.321 0.337,-0.308C0.352,-0.295 0.357,-0.275 0.357,-0.256L0.36,-0.084L0.348,-0.083C0.36,-0.108 0.379,-0.129 0.403,-0.144C0.429,-0.159 0.458,-0.168 0.487,-0.17C0.514,-0.171 0.543,-0.169 0.568,-0.157C0.591,-0.146 0.607,-0.127 0.617,-0.104C0.63,-0.075 0.634,-0.042 0.634,-0.01L0.637,0.157C0.637,0.176 0.632,0.197 0.618,0.211C0.604,0.225 0.583,0.231 0.563,0.232C0.544,0.233 0.523,0.23 0.508,0.217C0.493,0.204 0.488,0.184 0.488,0.165L0.486,0.005C0.485,-0.012 0.484,-0.032 0.472,-0.045C0.462,-0.056 0.448,-0.059 0.434,-0.058C0.414,-0.057 0.395,-0.049 0.381,-0.034C0.367,-0.019 0.362,0.001 0.362,0.021L0.364,0.172C0.365,0.217 0.337,0.244 0.292,0.246Z" style="fill:rgb(174,188,255);fill-rule:nonzero;"/>
            </g>
            <g transform="matrix(20,0,0,20,407.01,461.641)">
                <path d="M0.269,0.221C0.24,0.222 0.211,0.219 0.184,0.208C0.161,0.199 0.141,0.185 0.126,0.165C0.112,0.146 0.105,0.124 0.104,0.1C0.104,0.075 0.11,0.05 0.127,0.031C0.146,0.009 0.175,-0.002 0.203,-0.009C0.248,-0.021 0.296,-0.026 0.343,-0.028L0.39,-0.031L0.391,0.037L0.344,0.039C0.326,0.04 0.306,0.042 0.289,0.047C0.278,0.05 0.266,0.054 0.258,0.062C0.251,0.069 0.248,0.077 0.248,0.087C0.248,0.098 0.253,0.109 0.262,0.116C0.273,0.125 0.289,0.127 0.303,0.126C0.316,0.125 0.329,0.122 0.34,0.115C0.351,0.109 0.36,0.1 0.366,0.089C0.373,0.078 0.376,0.065 0.376,0.052L0.375,-0.041C0.375,-0.056 0.372,-0.073 0.359,-0.082C0.344,-0.092 0.322,-0.091 0.305,-0.09C0.29,-0.089 0.274,-0.086 0.259,-0.083C0.24,-0.078 0.22,-0.071 0.202,-0.064C0.19,-0.059 0.176,-0.056 0.163,-0.059C0.153,-0.062 0.144,-0.068 0.138,-0.076C0.132,-0.085 0.129,-0.095 0.129,-0.105C0.129,-0.117 0.133,-0.127 0.14,-0.137C0.147,-0.148 0.16,-0.156 0.172,-0.161C0.196,-0.171 0.222,-0.18 0.247,-0.186C0.268,-0.19 0.289,-0.194 0.31,-0.195C0.349,-0.198 0.39,-0.197 0.427,-0.184C0.455,-0.174 0.48,-0.155 0.496,-0.129C0.514,-0.1 0.519,-0.064 0.52,-0.03L0.521,0.134C0.521,0.153 0.517,0.174 0.504,0.189C0.49,0.203 0.471,0.209 0.451,0.21C0.432,0.211 0.412,0.208 0.398,0.194C0.384,0.18 0.379,0.16 0.379,0.141L0.379,0.121L0.384,0.131C0.382,0.148 0.375,0.163 0.365,0.176C0.354,0.19 0.341,0.2 0.325,0.207C0.308,0.216 0.288,0.22 0.269,0.221Z" style="fill:rgb(174,188,255);fill-rule:nonzero;"/>
            </g>
            <g transform="matrix(20,0,0,20,417.29,461.641)">
                <path d="M0.127,0.201C0.107,0.202 0.084,0.199 0.068,0.185C0.053,0.172 0.048,0.151 0.048,0.132L0.045,-0.137C0.045,-0.157 0.05,-0.177 0.064,-0.192C0.079,-0.207 0.1,-0.213 0.12,-0.215C0.14,-0.216 0.161,-0.213 0.176,-0.2C0.191,-0.186 0.196,-0.165 0.196,-0.146L0.196,-0.113L0.188,-0.112C0.193,-0.144 0.208,-0.172 0.232,-0.193C0.257,-0.215 0.29,-0.226 0.323,-0.229C0.336,-0.231 0.351,-0.229 0.361,-0.22C0.373,-0.208 0.374,-0.188 0.374,-0.173C0.375,-0.157 0.372,-0.139 0.362,-0.125C0.351,-0.11 0.33,-0.104 0.312,-0.101L0.292,-0.099C0.268,-0.095 0.242,-0.088 0.225,-0.071C0.209,-0.055 0.204,-0.032 0.204,-0.01L0.205,0.124C0.205,0.144 0.2,0.165 0.185,0.179C0.17,0.195 0.148,0.2 0.127,0.201Z" style="fill:rgb(174,188,255);fill-rule:nonzero;"/>
            </g>
            <g transform="matrix(20,0,0,20,423.73,461.641)">
                <path d="M0.244,0.182C0.197,0.184 0.149,0.18 0.106,0.163C0.07,0.148 0.038,0.125 0.017,0.093C-0.005,0.061 -0.015,0.022 -0.015,-0.017C-0.015,-0.056 -0.006,-0.095 0.014,-0.129C0.033,-0.162 0.062,-0.189 0.095,-0.208C0.131,-0.229 0.172,-0.24 0.213,-0.243C0.243,-0.245 0.274,-0.243 0.302,-0.234C0.328,-0.226 0.352,-0.213 0.372,-0.195C0.391,-0.177 0.406,-0.155 0.416,-0.13C0.427,-0.102 0.431,-0.072 0.431,-0.043C0.431,-0.033 0.428,-0.024 0.421,-0.018C0.413,-0.011 0.4,-0.009 0.39,-0.008L0.117,0.006L0.116,-0.063L0.313,-0.074L0.3,-0.063C0.3,-0.079 0.298,-0.097 0.29,-0.112C0.285,-0.124 0.275,-0.134 0.264,-0.14C0.25,-0.147 0.235,-0.148 0.221,-0.147C0.204,-0.146 0.187,-0.142 0.173,-0.132C0.159,-0.123 0.149,-0.11 0.142,-0.095C0.134,-0.077 0.132,-0.057 0.132,-0.037L0.132,-0.03C0.132,-0.001 0.137,0.033 0.16,0.053C0.184,0.073 0.218,0.075 0.247,0.073C0.262,0.073 0.278,0.07 0.293,0.067C0.309,0.063 0.325,0.058 0.341,0.052C0.354,0.046 0.368,0.043 0.382,0.046C0.392,0.049 0.402,0.055 0.408,0.063C0.415,0.072 0.418,0.081 0.419,0.092C0.42,0.104 0.417,0.114 0.411,0.124C0.404,0.136 0.393,0.144 0.381,0.149C0.36,0.16 0.337,0.167 0.315,0.172C0.291,0.178 0.268,0.181 0.244,0.182Z" style="fill:rgb(174,188,255);fill-rule:nonzero;"/>
            </g>
            <g transform="matrix(20,0,0,20,434.19,461.641)">
                <path d="M0.123,0.164C0.088,0.166 0.053,0.16 0.022,0.143C-0.008,0.127 -0.032,0.102 -0.047,0.072C-0.066,0.037 -0.072,-0.003 -0.072,-0.042C-0.072,-0.082 -0.066,-0.123 -0.048,-0.159C-0.032,-0.19 -0.009,-0.218 0.021,-0.237C0.051,-0.257 0.086,-0.267 0.122,-0.27C0.154,-0.272 0.185,-0.267 0.213,-0.253C0.237,-0.241 0.258,-0.223 0.268,-0.199L0.257,-0.198L0.257,-0.381C0.257,-0.402 0.263,-0.424 0.278,-0.44C0.294,-0.456 0.317,-0.462 0.339,-0.463C0.36,-0.465 0.383,-0.462 0.4,-0.448C0.417,-0.434 0.422,-0.412 0.422,-0.392C0.422,-0.237 0.421,-0.082 0.421,0.073C0.421,0.095 0.416,0.116 0.4,0.131C0.384,0.147 0.362,0.153 0.34,0.153C0.319,0.154 0.296,0.151 0.28,0.136C0.264,0.122 0.259,0.101 0.259,0.081L0.259,0.032L0.269,0.073C0.26,0.101 0.24,0.122 0.216,0.137C0.188,0.154 0.156,0.163 0.123,0.164ZM0.175,0.052C0.19,0.051 0.205,0.047 0.219,0.038C0.232,0.03 0.242,0.017 0.248,0.002C0.257,-0.017 0.259,-0.038 0.259,-0.059C0.259,-0.086 0.256,-0.119 0.236,-0.14C0.219,-0.156 0.197,-0.163 0.174,-0.161C0.159,-0.16 0.144,-0.156 0.131,-0.148C0.117,-0.139 0.107,-0.126 0.101,-0.112C0.092,-0.093 0.09,-0.071 0.09,-0.05C0.09,-0.023 0.093,0.009 0.114,0.029C0.13,0.046 0.152,0.053 0.175,0.052Z" style="fill:rgb(174,188,255);fill-rule:nonzero;"/>
            </g>
        </g>
    </g>
    <g transform="matrix(0.884672,0.880835,-0.864722,0.585511,554.407,-224.218)">
        <g>
            <g>
                <g transform="matrix(20,0,0,20,386.45,461.641)">
                    <path d="M0.368,-0.217C0.344,-0.211 0.318,-0.211 0.296,-0.225C0.273,-0.241 0.259,-0.268 0.251,-0.295C0.195,-0.481 0.134,-0.667 0.069,-0.851C0.06,-0.874 0.055,-0.902 0.067,-0.925C0.079,-0.946 0.103,-0.956 0.126,-0.96C0.152,-0.965 0.18,-0.962 0.203,-0.947C0.226,-0.933 0.241,-0.909 0.25,-0.883L0.27,-0.824L0.242,-0.873C0.241,-0.904 0.254,-0.933 0.277,-0.955C0.303,-0.979 0.337,-0.992 0.372,-0.995C0.415,-1 0.458,-0.993 0.498,-0.975C0.539,-0.957 0.575,-0.929 0.604,-0.894C0.637,-0.855 0.659,-0.808 0.674,-0.758C0.688,-0.712 0.697,-0.663 0.69,-0.615C0.684,-0.577 0.669,-0.541 0.642,-0.513C0.616,-0.485 0.58,-0.47 0.542,-0.463C0.506,-0.458 0.469,-0.461 0.435,-0.474C0.403,-0.487 0.374,-0.507 0.354,-0.536L0.366,-0.538L0.426,-0.339C0.434,-0.314 0.437,-0.285 0.425,-0.26C0.414,-0.237 0.392,-0.224 0.368,-0.217ZM0.443,-0.594C0.46,-0.597 0.475,-0.604 0.487,-0.616C0.499,-0.629 0.505,-0.646 0.506,-0.664C0.509,-0.689 0.503,-0.715 0.495,-0.74C0.484,-0.775 0.467,-0.812 0.437,-0.835C0.414,-0.851 0.387,-0.86 0.359,-0.856C0.342,-0.854 0.327,-0.848 0.315,-0.836C0.302,-0.824 0.296,-0.806 0.295,-0.789C0.293,-0.763 0.3,-0.736 0.308,-0.712C0.319,-0.676 0.336,-0.638 0.367,-0.615C0.389,-0.598 0.416,-0.59 0.443,-0.594Z" style="fill:rgb(174,188,255);fill-rule:nonzero;"/>
                </g>
                <g transform="matrix(20,0,0,20,397.81,461.641)">
                    <path d="M0.3,-0.506C0.275,-0.504 0.249,-0.509 0.228,-0.524C0.205,-0.541 0.192,-0.566 0.185,-0.592L0.083,-0.926C0.076,-0.946 0.072,-0.972 0.085,-0.992C0.098,-1.011 0.122,-1.017 0.143,-1.018C0.168,-1.019 0.194,-1.013 0.215,-0.998C0.236,-0.983 0.25,-0.959 0.257,-0.934L0.27,-0.895L0.26,-0.894C0.255,-0.928 0.259,-0.962 0.282,-0.988C0.306,-1.015 0.341,-1.024 0.375,-1.026C0.392,-1.027 0.408,-1.023 0.422,-1.012C0.438,-0.999 0.447,-0.978 0.453,-0.958C0.459,-0.941 0.463,-0.921 0.455,-0.903C0.447,-0.885 0.424,-0.88 0.407,-0.878L0.384,-0.875C0.36,-0.872 0.331,-0.865 0.317,-0.844C0.303,-0.823 0.308,-0.794 0.314,-0.771L0.362,-0.606C0.368,-0.583 0.371,-0.556 0.358,-0.535C0.346,-0.515 0.322,-0.508 0.3,-0.506Z" style="fill:rgb(174,188,255);fill-rule:nonzero;"/>
                </g>
                <g transform="matrix(20,0,0,20,404.25,461.641)">
                    <path d="M0.436,-0.526C0.387,-0.525 0.338,-0.534 0.293,-0.554C0.249,-0.574 0.21,-0.604 0.179,-0.641C0.145,-0.681 0.122,-0.727 0.108,-0.777C0.098,-0.811 0.092,-0.847 0.096,-0.882C0.099,-0.911 0.109,-0.939 0.127,-0.961C0.145,-0.984 0.17,-1 0.197,-1.011C0.23,-1.023 0.266,-1.027 0.301,-1.027C0.351,-1.027 0.401,-1.017 0.447,-0.997C0.49,-0.977 0.529,-0.949 0.559,-0.912C0.591,-0.874 0.613,-0.829 0.625,-0.781C0.633,-0.747 0.637,-0.711 0.633,-0.676C0.629,-0.648 0.619,-0.62 0.602,-0.596C0.585,-0.573 0.561,-0.556 0.535,-0.544C0.504,-0.531 0.469,-0.526 0.436,-0.526ZM0.402,-0.658C0.417,-0.658 0.432,-0.661 0.444,-0.671C0.456,-0.681 0.462,-0.696 0.464,-0.712C0.468,-0.735 0.463,-0.759 0.457,-0.782C0.448,-0.815 0.435,-0.851 0.408,-0.875C0.388,-0.892 0.363,-0.903 0.336,-0.903C0.321,-0.903 0.306,-0.9 0.294,-0.89C0.281,-0.881 0.275,-0.866 0.273,-0.851C0.269,-0.828 0.275,-0.803 0.281,-0.781C0.29,-0.747 0.304,-0.711 0.331,-0.687C0.351,-0.669 0.375,-0.657 0.402,-0.658Z" style="fill:rgb(174,188,255);fill-rule:nonzero;"/>
                </g>
                <g transform="matrix(20,0,0,20,415.01,461.641)">
                    <path d="M0.387,-0.525C0.341,-0.525 0.294,-0.536 0.253,-0.557C0.211,-0.578 0.175,-0.609 0.146,-0.646C0.115,-0.686 0.094,-0.732 0.082,-0.781C0.073,-0.814 0.068,-0.849 0.073,-0.883C0.077,-0.911 0.087,-0.937 0.105,-0.959C0.122,-0.981 0.146,-0.996 0.172,-1.005C0.204,-1.017 0.238,-1.021 0.271,-1.02C0.318,-1.019 0.365,-1.01 0.408,-0.99C0.449,-0.971 0.484,-0.942 0.512,-0.906C0.542,-0.868 0.56,-0.823 0.571,-0.775C0.578,-0.741 0.581,-0.706 0.576,-0.671C0.572,-0.643 0.563,-0.615 0.546,-0.591C0.53,-0.569 0.507,-0.552 0.482,-0.541C0.452,-0.528 0.419,-0.524 0.387,-0.525ZM0.358,-0.655C0.372,-0.655 0.387,-0.658 0.398,-0.668C0.41,-0.677 0.416,-0.693 0.418,-0.707C0.422,-0.73 0.418,-0.754 0.413,-0.777C0.405,-0.81 0.393,-0.845 0.368,-0.869C0.35,-0.886 0.327,-0.897 0.301,-0.898C0.287,-0.898 0.272,-0.895 0.261,-0.886C0.249,-0.877 0.243,-0.862 0.24,-0.848C0.236,-0.825 0.241,-0.801 0.246,-0.779C0.254,-0.746 0.266,-0.71 0.292,-0.685C0.31,-0.668 0.333,-0.656 0.358,-0.655Z" style="fill:rgb(174,188,255);fill-rule:nonzero;"/>
                </g>
                <g transform="matrix(20,0,0,20,425.67,461.641)">
                    <path d="M0.212,-0.523C0.19,-0.523 0.168,-0.531 0.152,-0.546C0.133,-0.564 0.124,-0.589 0.119,-0.613L0.061,-0.885L0.038,-0.885C0.021,-0.885 0.004,-0.89 -0.009,-0.901C-0.023,-0.913 -0.031,-0.929 -0.035,-0.947C-0.038,-0.961 -0.04,-0.979 -0.03,-0.992C-0.02,-1.004 -0.004,-1.007 0.011,-1.007L0.079,-1.007L0.043,-0.964L0.037,-0.99C0.026,-1.039 0.019,-1.099 0.052,-1.142C0.082,-1.183 0.135,-1.198 0.183,-1.204L0.209,-1.207C0.224,-1.209 0.24,-1.208 0.254,-1.201C0.266,-1.195 0.276,-1.186 0.282,-1.175C0.288,-1.164 0.292,-1.152 0.292,-1.14C0.293,-1.129 0.291,-1.118 0.286,-1.109C0.281,-1.1 0.272,-1.095 0.262,-1.094L0.25,-1.093C0.231,-1.091 0.206,-1.087 0.193,-1.071C0.181,-1.058 0.182,-1.038 0.186,-1.022L0.192,-0.991L0.17,-1.008L0.238,-1.009C0.255,-1.009 0.271,-1.005 0.284,-0.994C0.298,-0.982 0.305,-0.965 0.308,-0.948C0.311,-0.933 0.312,-0.916 0.303,-0.902C0.294,-0.889 0.278,-0.886 0.264,-0.886L0.215,-0.885L0.27,-0.613C0.279,-0.566 0.267,-0.522 0.212,-0.523Z" style="fill:rgb(174,188,255);fill-rule:nonzero;"/>
                </g>
                <g transform="matrix(20,0,0,20,431.59,461.641)">
                    <path d="M0.075,-0.73C0.058,-0.73 0.042,-0.738 0.029,-0.749C0.016,-0.762 0.007,-0.779 0.003,-0.797C-0,-0.813 0.001,-0.831 0.011,-0.845C0.02,-0.858 0.033,-0.864 0.049,-0.864L0.213,-0.869C0.23,-0.869 0.245,-0.862 0.257,-0.851C0.271,-0.839 0.279,-0.821 0.282,-0.803C0.285,-0.787 0.284,-0.769 0.275,-0.754C0.266,-0.741 0.253,-0.734 0.238,-0.734L0.075,-0.73Z" style="fill:rgb(174,188,255);fill-rule:nonzero;"/>
                </g>
                <g transform="matrix(20,0,0,20,386.45,481.641)">
                    <path d="M0.617,-0.234C0.595,-0.225 0.57,-0.222 0.549,-0.237C0.526,-0.254 0.515,-0.286 0.509,-0.313L0.411,-0.722C0.404,-0.751 0.4,-0.782 0.411,-0.81C0.421,-0.834 0.441,-0.851 0.465,-0.858C0.488,-0.866 0.513,-0.865 0.533,-0.85C0.556,-0.833 0.567,-0.804 0.573,-0.777L0.585,-0.729L0.576,-0.726C0.571,-0.769 0.575,-0.814 0.596,-0.853C0.615,-0.887 0.646,-0.91 0.683,-0.921C0.699,-0.925 0.715,-0.923 0.728,-0.913C0.745,-0.898 0.753,-0.871 0.758,-0.85C0.764,-0.827 0.767,-0.802 0.761,-0.78C0.754,-0.758 0.735,-0.745 0.715,-0.737L0.694,-0.729C0.667,-0.718 0.642,-0.701 0.63,-0.674C0.618,-0.644 0.621,-0.61 0.629,-0.579L0.674,-0.378C0.68,-0.348 0.682,-0.316 0.671,-0.287C0.661,-0.262 0.641,-0.244 0.617,-0.234Z" style="fill:rgb(174,188,255);fill-rule:nonzero;"/>
                </g>
                <g transform="matrix(20,0,0,20,392.89,481.641)">
                    <path d="M0.746,-0.366C0.697,-0.356 0.645,-0.356 0.598,-0.372C0.552,-0.389 0.513,-0.419 0.484,-0.457C0.449,-0.503 0.428,-0.558 0.415,-0.614C0.403,-0.668 0.398,-0.725 0.409,-0.78C0.418,-0.826 0.438,-0.87 0.47,-0.905C0.501,-0.937 0.542,-0.957 0.586,-0.964C0.619,-0.969 0.653,-0.967 0.684,-0.957C0.716,-0.947 0.744,-0.93 0.769,-0.908C0.796,-0.884 0.817,-0.854 0.834,-0.822C0.853,-0.785 0.866,-0.744 0.875,-0.703C0.877,-0.692 0.878,-0.678 0.871,-0.668C0.865,-0.658 0.853,-0.654 0.842,-0.653L0.562,-0.603L0.54,-0.703L0.744,-0.74L0.733,-0.723C0.728,-0.746 0.721,-0.77 0.709,-0.791C0.7,-0.806 0.688,-0.819 0.672,-0.827C0.657,-0.834 0.641,-0.836 0.625,-0.833C0.607,-0.83 0.59,-0.822 0.578,-0.808C0.565,-0.792 0.56,-0.772 0.558,-0.752C0.555,-0.724 0.559,-0.695 0.565,-0.668L0.567,-0.658C0.576,-0.618 0.589,-0.571 0.622,-0.543C0.649,-0.521 0.685,-0.518 0.718,-0.524C0.734,-0.527 0.749,-0.533 0.763,-0.539C0.78,-0.546 0.795,-0.555 0.809,-0.565C0.821,-0.574 0.835,-0.579 0.849,-0.576C0.862,-0.572 0.873,-0.564 0.881,-0.554C0.89,-0.542 0.896,-0.528 0.9,-0.514C0.903,-0.498 0.904,-0.483 0.9,-0.467C0.897,-0.452 0.888,-0.439 0.876,-0.429C0.858,-0.413 0.838,-0.399 0.816,-0.389C0.793,-0.378 0.77,-0.371 0.746,-0.366Z" style="fill:rgb(174,188,255);fill-rule:nonzero;"/>
                </g>
                <g transform="matrix(20,0,0,20,403.35,481.641)">
                    <path d="M0.603,-0.419C0.571,-0.416 0.539,-0.422 0.51,-0.436C0.48,-0.45 0.455,-0.471 0.436,-0.497C0.415,-0.525 0.402,-0.558 0.395,-0.592C0.388,-0.625 0.385,-0.662 0.4,-0.694C0.414,-0.723 0.442,-0.742 0.471,-0.753C0.517,-0.771 0.568,-0.776 0.617,-0.779L0.666,-0.781L0.685,-0.685L0.635,-0.683C0.617,-0.682 0.596,-0.679 0.579,-0.673C0.568,-0.668 0.556,-0.662 0.55,-0.651C0.544,-0.64 0.543,-0.627 0.546,-0.616C0.549,-0.599 0.556,-0.584 0.569,-0.572C0.581,-0.561 0.598,-0.557 0.615,-0.558C0.628,-0.559 0.641,-0.564 0.651,-0.574C0.662,-0.584 0.669,-0.597 0.672,-0.611C0.677,-0.628 0.676,-0.646 0.673,-0.664L0.647,-0.795C0.643,-0.816 0.637,-0.839 0.62,-0.852C0.603,-0.866 0.58,-0.867 0.56,-0.866C0.543,-0.865 0.527,-0.862 0.512,-0.857C0.492,-0.851 0.473,-0.841 0.455,-0.831C0.443,-0.823 0.428,-0.819 0.414,-0.824C0.401,-0.828 0.39,-0.837 0.382,-0.848C0.373,-0.86 0.367,-0.874 0.364,-0.889C0.361,-0.904 0.361,-0.919 0.366,-0.933C0.371,-0.948 0.381,-0.96 0.395,-0.967C0.418,-0.981 0.444,-0.993 0.47,-1C0.491,-1.005 0.514,-1.009 0.536,-1.01C0.58,-1.012 0.624,-1.007 0.664,-0.989C0.7,-0.972 0.73,-0.945 0.751,-0.911C0.778,-0.87 0.793,-0.821 0.802,-0.773L0.844,-0.542C0.849,-0.516 0.851,-0.487 0.839,-0.463C0.83,-0.444 0.812,-0.435 0.791,-0.434C0.768,-0.433 0.747,-0.441 0.732,-0.458C0.713,-0.479 0.704,-0.508 0.699,-0.535L0.694,-0.565L0.702,-0.55C0.703,-0.528 0.701,-0.505 0.693,-0.485C0.686,-0.467 0.674,-0.451 0.659,-0.439C0.643,-0.427 0.623,-0.421 0.603,-0.419Z" style="fill:rgb(174,188,255);fill-rule:nonzero;"/>
                </g>
                <g transform="matrix(20,0,0,20,413.63,481.641)">
                    <path d="M0.554,-0.437C0.517,-0.437 0.482,-0.451 0.453,-0.473C0.417,-0.499 0.39,-0.536 0.369,-0.575C0.343,-0.624 0.327,-0.677 0.317,-0.732C0.308,-0.782 0.302,-0.835 0.312,-0.886C0.318,-0.922 0.332,-0.959 0.359,-0.984C0.384,-1.008 0.417,-1.018 0.451,-1.018C0.483,-1.018 0.515,-1.007 0.542,-0.989C0.57,-0.97 0.592,-0.945 0.607,-0.914L0.597,-0.915L0.553,-1.147C0.548,-1.17 0.546,-1.197 0.559,-1.218C0.57,-1.236 0.59,-1.242 0.61,-1.241C0.634,-1.241 0.655,-1.233 0.672,-1.216C0.691,-1.197 0.7,-1.171 0.705,-1.145C0.743,-0.944 0.777,-0.742 0.81,-0.54C0.814,-0.516 0.816,-0.486 0.803,-0.463C0.793,-0.444 0.774,-0.437 0.754,-0.437C0.73,-0.438 0.71,-0.448 0.695,-0.465C0.676,-0.487 0.668,-0.516 0.663,-0.543L0.652,-0.61L0.671,-0.553C0.669,-0.522 0.658,-0.491 0.635,-0.469C0.613,-0.448 0.585,-0.437 0.554,-0.437ZM0.577,-0.589C0.592,-0.589 0.605,-0.594 0.616,-0.604C0.628,-0.616 0.633,-0.634 0.635,-0.651C0.639,-0.678 0.636,-0.706 0.631,-0.732C0.625,-0.769 0.615,-0.811 0.59,-0.84C0.574,-0.859 0.553,-0.873 0.527,-0.874C0.513,-0.874 0.499,-0.869 0.489,-0.859C0.476,-0.848 0.471,-0.831 0.468,-0.814C0.464,-0.788 0.468,-0.76 0.473,-0.733C0.48,-0.696 0.49,-0.654 0.514,-0.624C0.53,-0.605 0.552,-0.589 0.577,-0.589Z" style="fill:rgb(174,188,255);fill-rule:nonzero;"/>
                </g>
                <g transform="matrix(20,0,0,20,424.99,481.641)">
                    <path d="M0.372,-0.432C0.349,-0.433 0.328,-0.445 0.314,-0.463C0.295,-0.487 0.287,-0.518 0.282,-0.547L0.223,-0.905C0.218,-0.93 0.215,-0.96 0.228,-0.984C0.238,-1.003 0.257,-1.01 0.278,-1.01C0.301,-1.009 0.322,-0.999 0.337,-0.981C0.356,-0.959 0.365,-0.93 0.37,-0.902L0.427,-0.543C0.431,-0.516 0.434,-0.485 0.422,-0.46C0.412,-0.44 0.393,-0.432 0.372,-0.432ZM0.264,-1.086C0.24,-1.087 0.217,-1.095 0.199,-1.111C0.18,-1.129 0.169,-1.154 0.165,-1.18C0.161,-1.202 0.159,-1.228 0.174,-1.247C0.187,-1.264 0.21,-1.269 0.231,-1.269C0.255,-1.268 0.279,-1.261 0.297,-1.245C0.316,-1.227 0.326,-1.202 0.33,-1.177C0.334,-1.155 0.335,-1.129 0.321,-1.109C0.308,-1.091 0.286,-1.086 0.264,-1.086Z" style="fill:rgb(174,188,255);fill-rule:nonzero;"/>
                </g>
                <g transform="matrix(20,0,0,20,429.23,481.641)">
                    <path d="M0.331,-0.425C0.308,-0.426 0.288,-0.437 0.274,-0.455C0.256,-0.477 0.248,-0.506 0.244,-0.534L0.184,-0.909C0.18,-0.933 0.178,-0.961 0.19,-0.982C0.2,-1 0.219,-1.007 0.238,-1.007C0.26,-1.006 0.28,-0.997 0.294,-0.98C0.312,-0.96 0.32,-0.932 0.324,-0.906L0.332,-0.854L0.316,-0.9C0.323,-0.93 0.335,-0.959 0.358,-0.979C0.379,-0.997 0.406,-1.006 0.434,-1.006C0.462,-1.005 0.491,-0.997 0.513,-0.979C0.539,-0.959 0.557,-0.93 0.57,-0.9C0.588,-0.857 0.597,-0.81 0.604,-0.764L0.639,-0.519C0.643,-0.494 0.645,-0.464 0.633,-0.44C0.623,-0.422 0.606,-0.414 0.586,-0.415C0.564,-0.415 0.545,-0.427 0.532,-0.444C0.514,-0.467 0.506,-0.496 0.502,-0.524L0.468,-0.759C0.464,-0.783 0.459,-0.811 0.445,-0.832C0.435,-0.845 0.422,-0.854 0.405,-0.855C0.385,-0.855 0.369,-0.845 0.359,-0.827C0.347,-0.804 0.348,-0.775 0.352,-0.75L0.386,-0.529C0.392,-0.485 0.389,-0.423 0.331,-0.425Z" style="fill:rgb(174,188,255);fill-rule:nonzero;"/>
                </g>
                <g transform="matrix(20,0,0,20,440.29,481.641)">
                    <path d="M0.347,-0.179C0.321,-0.18 0.295,-0.185 0.27,-0.193C0.247,-0.2 0.225,-0.21 0.205,-0.223C0.19,-0.231 0.178,-0.244 0.17,-0.26C0.162,-0.275 0.157,-0.291 0.155,-0.308C0.153,-0.324 0.154,-0.339 0.158,-0.354C0.161,-0.365 0.166,-0.376 0.175,-0.383C0.185,-0.39 0.196,-0.387 0.205,-0.381C0.224,-0.369 0.246,-0.356 0.268,-0.35C0.282,-0.346 0.299,-0.342 0.314,-0.341C0.339,-0.34 0.364,-0.347 0.377,-0.37C0.394,-0.398 0.391,-0.436 0.387,-0.466L0.377,-0.542L0.383,-0.542C0.38,-0.512 0.37,-0.482 0.349,-0.46C0.331,-0.441 0.307,-0.43 0.28,-0.431C0.246,-0.432 0.215,-0.448 0.19,-0.47C0.158,-0.499 0.135,-0.536 0.118,-0.574C0.096,-0.622 0.083,-0.674 0.076,-0.726C0.07,-0.764 0.068,-0.802 0.071,-0.841C0.074,-0.871 0.08,-0.901 0.092,-0.928C0.102,-0.95 0.117,-0.97 0.137,-0.984C0.155,-0.998 0.178,-1.004 0.201,-1.004C0.23,-1.004 0.258,-0.993 0.281,-0.975C0.306,-0.954 0.324,-0.927 0.335,-0.897L0.335,-0.85L0.328,-0.9C0.324,-0.925 0.323,-0.953 0.334,-0.977C0.343,-0.994 0.359,-1.003 0.379,-1.003C0.399,-1.004 0.417,-0.994 0.43,-0.978C0.446,-0.956 0.453,-0.927 0.456,-0.901L0.509,-0.487C0.518,-0.411 0.524,-0.321 0.487,-0.251C0.458,-0.198 0.406,-0.175 0.347,-0.179ZM0.3,-0.587C0.314,-0.587 0.326,-0.592 0.335,-0.602C0.346,-0.615 0.351,-0.632 0.353,-0.648C0.357,-0.672 0.355,-0.697 0.352,-0.721C0.348,-0.755 0.339,-0.791 0.32,-0.819C0.307,-0.838 0.288,-0.854 0.264,-0.854C0.25,-0.854 0.238,-0.849 0.228,-0.839C0.217,-0.827 0.212,-0.81 0.21,-0.794C0.206,-0.771 0.208,-0.746 0.211,-0.723C0.216,-0.689 0.224,-0.653 0.244,-0.624C0.257,-0.604 0.276,-0.588 0.3,-0.587Z" style="fill:rgb(174,188,255);fill-rule:nonzero;"/>
                </g>
            </g>
        </g>
    </g>
    <g transform="matrix(1.08401,-0.993209,0.993209,1.08401,-236.093,380.667)">
        <g>
            <g transform="matrix(20,0,0,20,386.45,461.641)">
                <path d="M1.15,-0.162C1.122,-0.169 1.096,-0.181 1.073,-0.199C1.053,-0.214 1.035,-0.234 1.023,-0.257C1.012,-0.277 1.006,-0.3 1.007,-0.324C1.007,-0.344 1.012,-0.367 1.029,-0.381C1.047,-0.396 1.075,-0.396 1.097,-0.395C1.14,-0.392 1.182,-0.382 1.224,-0.372L1.266,-0.361L1.268,-0.298L1.225,-0.309C1.21,-0.313 1.191,-0.317 1.175,-0.317C1.166,-0.318 1.154,-0.317 1.146,-0.312C1.14,-0.308 1.137,-0.3 1.137,-0.293C1.137,-0.281 1.141,-0.27 1.149,-0.261C1.158,-0.25 1.172,-0.244 1.186,-0.24C1.197,-0.237 1.209,-0.236 1.22,-0.24C1.23,-0.243 1.238,-0.248 1.245,-0.256C1.252,-0.266 1.254,-0.277 1.254,-0.288L1.252,-0.374C1.252,-0.389 1.248,-0.405 1.237,-0.416C1.224,-0.429 1.205,-0.435 1.188,-0.439C1.174,-0.443 1.16,-0.445 1.147,-0.446C1.13,-0.448 1.113,-0.447 1.096,-0.446C1.084,-0.445 1.072,-0.447 1.061,-0.453C1.052,-0.459 1.044,-0.468 1.038,-0.478C1.033,-0.487 1.03,-0.497 1.03,-0.507C1.029,-0.517 1.032,-0.526 1.038,-0.533C1.044,-0.542 1.055,-0.545 1.066,-0.545C1.087,-0.547 1.109,-0.547 1.131,-0.545C1.15,-0.543 1.169,-0.539 1.187,-0.535C1.224,-0.525 1.26,-0.512 1.293,-0.491C1.319,-0.474 1.343,-0.451 1.358,-0.423C1.375,-0.394 1.383,-0.36 1.384,-0.326L1.385,-0.175C1.385,-0.158 1.381,-0.14 1.367,-0.129C1.353,-0.118 1.334,-0.119 1.318,-0.123C1.299,-0.127 1.282,-0.136 1.27,-0.151C1.258,-0.167 1.255,-0.186 1.255,-0.205L1.256,-0.224L1.26,-0.213C1.257,-0.199 1.251,-0.186 1.241,-0.176C1.23,-0.167 1.216,-0.161 1.202,-0.159C1.185,-0.156 1.167,-0.158 1.15,-0.162Z" style="fill:rgb(174,188,255);fill-rule:nonzero;"/>
            </g>
            <g transform="matrix(20,0,0,20,396.73,461.641)">
                <path d="M0.978,-0.085C0.958,-0.089 0.939,-0.098 0.926,-0.113C0.913,-0.128 0.908,-0.148 0.908,-0.167L0.901,-0.414C0.9,-0.43 0.901,-0.449 0.915,-0.46C0.928,-0.472 0.947,-0.471 0.963,-0.467C0.983,-0.464 1.002,-0.455 1.015,-0.44C1.029,-0.426 1.036,-0.407 1.038,-0.387L1.04,-0.352L1.029,-0.385C1.04,-0.405 1.057,-0.421 1.078,-0.429C1.103,-0.438 1.131,-0.439 1.157,-0.434C1.185,-0.43 1.212,-0.421 1.236,-0.405C1.258,-0.39 1.276,-0.369 1.288,-0.346C1.302,-0.317 1.309,-0.285 1.311,-0.253L1.317,-0.095C1.318,-0.077 1.313,-0.058 1.299,-0.047C1.283,-0.035 1.262,-0.035 1.244,-0.038C1.224,-0.041 1.204,-0.049 1.19,-0.064C1.177,-0.079 1.172,-0.098 1.172,-0.117L1.167,-0.269C1.166,-0.287 1.163,-0.306 1.151,-0.32C1.142,-0.331 1.128,-0.338 1.114,-0.34C1.096,-0.343 1.078,-0.342 1.064,-0.33C1.05,-0.318 1.047,-0.3 1.048,-0.282L1.051,-0.139C1.051,-0.094 1.019,-0.077 0.978,-0.085Z" style="fill:rgb(174,188,255);fill-rule:nonzero;"/>
            </g>
            <g transform="matrix(20,0,0,20,407.79,461.641)">
                <path d="M0.878,-0.011C0.858,-0.014 0.838,-0.021 0.823,-0.036C0.81,-0.05 0.804,-0.069 0.804,-0.089L0.789,-0.339C0.787,-0.356 0.789,-0.375 0.802,-0.388C0.815,-0.4 0.835,-0.401 0.852,-0.399C0.872,-0.396 0.892,-0.389 0.907,-0.375C0.921,-0.361 0.929,-0.342 0.931,-0.322L0.935,-0.287L0.923,-0.319C0.933,-0.341 0.95,-0.358 0.973,-0.368C0.998,-0.38 1.026,-0.382 1.054,-0.38C1.083,-0.378 1.112,-0.371 1.137,-0.356C1.16,-0.342 1.179,-0.322 1.192,-0.298C1.208,-0.27 1.215,-0.237 1.218,-0.205L1.23,-0.042C1.231,-0.024 1.227,-0.004 1.212,0.008C1.197,0.021 1.175,0.022 1.156,0.02C1.136,0.019 1.115,0.012 1.099,-0.003C1.085,-0.017 1.079,-0.036 1.078,-0.056L1.069,-0.211C1.067,-0.229 1.063,-0.248 1.051,-0.262C1.041,-0.273 1.026,-0.279 1.011,-0.28C0.993,-0.282 0.974,-0.279 0.96,-0.266C0.947,-0.253 0.943,-0.234 0.945,-0.216L0.952,-0.07C0.953,-0.024 0.921,-0.005 0.878,-0.011Z" style="fill:rgb(174,188,255);fill-rule:nonzero;"/>
            </g>
            <g transform="matrix(20,0,0,20,418.85,461.641)">
                <path d="M0.939,0.047C0.896,0.045 0.852,0.035 0.813,0.015C0.778,-0.002 0.749,-0.028 0.727,-0.06C0.705,-0.092 0.694,-0.13 0.69,-0.168C0.688,-0.196 0.689,-0.224 0.698,-0.25C0.706,-0.274 0.719,-0.295 0.737,-0.311C0.756,-0.329 0.78,-0.341 0.805,-0.348C0.835,-0.357 0.867,-0.36 0.898,-0.359C0.942,-0.358 0.986,-0.35 1.026,-0.332C1.062,-0.316 1.095,-0.292 1.12,-0.261C1.145,-0.229 1.159,-0.19 1.164,-0.15C1.167,-0.121 1.165,-0.092 1.156,-0.064C1.147,-0.039 1.132,-0.017 1.112,-0C1.09,0.018 1.065,0.03 1.038,0.038C1.006,0.047 0.972,0.049 0.939,0.047ZM0.933,-0.056C0.948,-0.056 0.962,-0.058 0.975,-0.065C0.987,-0.072 0.996,-0.083 1.001,-0.096C1.008,-0.114 1.008,-0.134 1.006,-0.153C1.003,-0.18 0.995,-0.21 0.974,-0.23C0.957,-0.245 0.936,-0.254 0.913,-0.255C0.899,-0.255 0.885,-0.253 0.873,-0.246C0.861,-0.239 0.853,-0.228 0.848,-0.215C0.842,-0.198 0.842,-0.178 0.844,-0.159C0.847,-0.132 0.853,-0.103 0.873,-0.083C0.889,-0.066 0.91,-0.057 0.933,-0.056Z" style="fill:rgb(174,188,255);fill-rule:nonzero;"/>
            </g>
            <g transform="matrix(20,0,0,20,429.51,461.641)">
                <path d="M0.895,0.059C0.856,0.059 0.817,0.055 0.781,0.04C0.752,0.028 0.727,0.009 0.71,-0.017C0.692,-0.045 0.684,-0.078 0.68,-0.111L0.664,-0.243L0.634,-0.242C0.618,-0.242 0.601,-0.246 0.588,-0.256C0.576,-0.266 0.569,-0.28 0.566,-0.295C0.564,-0.309 0.566,-0.324 0.576,-0.334C0.587,-0.345 0.603,-0.348 0.618,-0.348L0.647,-0.349L0.638,-0.399C0.635,-0.418 0.635,-0.439 0.648,-0.454C0.662,-0.469 0.683,-0.474 0.703,-0.475C0.724,-0.475 0.747,-0.471 0.765,-0.458C0.782,-0.445 0.792,-0.425 0.796,-0.404L0.805,-0.353L0.878,-0.356C0.895,-0.357 0.912,-0.354 0.926,-0.344C0.939,-0.335 0.946,-0.32 0.949,-0.305C0.951,-0.29 0.95,-0.275 0.939,-0.263C0.928,-0.252 0.911,-0.248 0.896,-0.248L0.822,-0.245L0.84,-0.116C0.842,-0.1 0.847,-0.083 0.86,-0.072C0.875,-0.061 0.895,-0.058 0.913,-0.059C0.921,-0.059 0.929,-0.06 0.937,-0.062C0.944,-0.063 0.951,-0.064 0.959,-0.065C0.968,-0.066 0.976,-0.063 0.983,-0.057C0.994,-0.049 0.996,-0.031 0.997,-0.018C0.998,-0.004 0.998,0.01 0.992,0.023C0.988,0.036 0.977,0.044 0.965,0.048C0.954,0.052 0.941,0.054 0.93,0.056C0.918,0.058 0.907,0.059 0.895,0.059Z" style="fill:rgb(174,188,255);fill-rule:nonzero;"/>
            </g>
            <g transform="matrix(20,0,0,20,435.91,461.641)">
                <path d="M0.79,0.056C0.758,0.056 0.725,0.052 0.695,0.04C0.67,0.03 0.646,0.015 0.628,-0.006C0.612,-0.025 0.602,-0.049 0.599,-0.074C0.596,-0.099 0.599,-0.125 0.616,-0.145C0.635,-0.168 0.666,-0.178 0.693,-0.185C0.742,-0.198 0.793,-0.202 0.843,-0.205L0.894,-0.209L0.905,-0.137L0.853,-0.134C0.835,-0.133 0.813,-0.131 0.794,-0.126C0.784,-0.123 0.77,-0.119 0.762,-0.11C0.755,-0.103 0.753,-0.094 0.754,-0.085C0.755,-0.072 0.762,-0.061 0.773,-0.054C0.786,-0.044 0.803,-0.042 0.818,-0.043C0.832,-0.044 0.846,-0.047 0.858,-0.054C0.87,-0.061 0.878,-0.07 0.884,-0.082C0.891,-0.094 0.892,-0.107 0.89,-0.121L0.876,-0.219C0.874,-0.235 0.867,-0.252 0.852,-0.261C0.835,-0.272 0.812,-0.271 0.792,-0.27C0.776,-0.268 0.759,-0.265 0.744,-0.262C0.724,-0.257 0.703,-0.25 0.685,-0.242C0.672,-0.237 0.657,-0.234 0.643,-0.238C0.632,-0.241 0.621,-0.247 0.614,-0.256C0.606,-0.265 0.601,-0.275 0.6,-0.286C0.598,-0.298 0.6,-0.309 0.606,-0.319C0.613,-0.331 0.625,-0.339 0.637,-0.344C0.662,-0.354 0.687,-0.363 0.713,-0.369C0.735,-0.374 0.758,-0.378 0.78,-0.38C0.823,-0.383 0.867,-0.383 0.908,-0.371C0.941,-0.361 0.971,-0.343 0.993,-0.316C1.017,-0.286 1.03,-0.248 1.036,-0.211L1.06,-0.036C1.062,-0.016 1.06,0.006 1.046,0.022C1.033,0.039 1.011,0.044 0.991,0.046C0.969,0.047 0.947,0.043 0.93,0.029C0.914,0.015 0.907,-0.006 0.904,-0.027L0.902,-0.049L0.909,-0.037C0.908,-0.02 0.902,-0.004 0.892,0.01C0.881,0.024 0.867,0.035 0.851,0.043C0.832,0.051 0.811,0.055 0.79,0.056Z" style="fill:rgb(174,188,255);fill-rule:nonzero;"/>
            </g>
            <g transform="matrix(20,0,0,20,446.19,461.641)">
                <path d="M0.847,0.019C0.807,0.023 0.764,0.022 0.726,0.01C0.695,-0.001 0.668,-0.019 0.649,-0.045C0.628,-0.074 0.618,-0.109 0.613,-0.144L0.59,-0.286L0.559,-0.283C0.542,-0.281 0.524,-0.283 0.509,-0.293C0.496,-0.302 0.488,-0.317 0.485,-0.333C0.483,-0.348 0.484,-0.365 0.494,-0.377C0.505,-0.39 0.522,-0.395 0.538,-0.397L0.569,-0.401L0.558,-0.455C0.553,-0.476 0.553,-0.499 0.566,-0.517C0.58,-0.535 0.602,-0.543 0.623,-0.546C0.645,-0.549 0.669,-0.548 0.689,-0.535C0.708,-0.522 0.719,-0.501 0.723,-0.479L0.735,-0.423L0.812,-0.435C0.829,-0.438 0.847,-0.437 0.862,-0.428C0.877,-0.418 0.884,-0.403 0.888,-0.386C0.891,-0.37 0.89,-0.353 0.879,-0.34C0.869,-0.326 0.851,-0.32 0.834,-0.317L0.757,-0.307L0.781,-0.167C0.783,-0.15 0.79,-0.132 0.804,-0.121C0.82,-0.11 0.841,-0.109 0.86,-0.112C0.868,-0.113 0.877,-0.115 0.885,-0.117C0.893,-0.12 0.9,-0.122 0.908,-0.123C0.917,-0.125 0.927,-0.123 0.934,-0.118C0.946,-0.109 0.949,-0.089 0.95,-0.076C0.952,-0.061 0.953,-0.045 0.948,-0.03C0.943,-0.016 0.932,-0.006 0.92,0C0.909,0.005 0.895,0.009 0.884,0.012C0.872,0.015 0.859,0.018 0.847,0.019Z" style="fill:rgb(174,188,255);fill-rule:nonzero;"/>
            </g>
            <g transform="matrix(20,0,0,20,452.59,461.641)">
                <path d="M0.672,0.001C0.649,0.004 0.624,0.001 0.606,-0.014C0.587,-0.029 0.578,-0.053 0.575,-0.076L0.528,-0.359C0.524,-0.382 0.524,-0.407 0.537,-0.428C0.55,-0.447 0.572,-0.457 0.595,-0.461C0.618,-0.465 0.642,-0.463 0.662,-0.449C0.682,-0.435 0.693,-0.411 0.697,-0.388L0.747,-0.098C0.75,-0.075 0.749,-0.05 0.734,-0.03C0.719,-0.01 0.696,-0.002 0.672,0.001ZM0.581,-0.525C0.556,-0.521 0.529,-0.52 0.507,-0.533C0.487,-0.544 0.475,-0.564 0.47,-0.586C0.465,-0.607 0.467,-0.63 0.48,-0.648C0.496,-0.668 0.521,-0.677 0.544,-0.682C0.568,-0.687 0.595,-0.688 0.618,-0.676C0.639,-0.665 0.651,-0.645 0.656,-0.622C0.661,-0.6 0.66,-0.577 0.646,-0.559C0.63,-0.539 0.605,-0.53 0.581,-0.525Z" style="fill:rgb(174,188,255);fill-rule:nonzero;"/>
            </g>
            <g transform="matrix(20,0,0,20,456.83,461.641)">
                <path d="M0.826,-0.05C0.778,-0.042 0.728,-0.042 0.681,-0.056C0.64,-0.068 0.604,-0.091 0.576,-0.124C0.547,-0.158 0.531,-0.201 0.523,-0.245C0.517,-0.278 0.517,-0.313 0.524,-0.346C0.53,-0.377 0.543,-0.406 0.562,-0.431C0.581,-0.457 0.606,-0.479 0.634,-0.496C0.666,-0.515 0.701,-0.528 0.737,-0.536C0.785,-0.548 0.834,-0.552 0.882,-0.541C0.924,-0.531 0.963,-0.51 0.993,-0.479C1.025,-0.444 1.044,-0.399 1.053,-0.353C1.06,-0.317 1.061,-0.28 1.053,-0.244C1.046,-0.211 1.032,-0.18 1.012,-0.153C0.991,-0.125 0.964,-0.103 0.934,-0.087C0.9,-0.068 0.863,-0.057 0.826,-0.05ZM0.807,-0.174C0.824,-0.177 0.84,-0.184 0.852,-0.195C0.865,-0.207 0.873,-0.224 0.878,-0.241C0.883,-0.264 0.881,-0.289 0.877,-0.312C0.871,-0.343 0.861,-0.379 0.834,-0.398C0.813,-0.413 0.788,-0.417 0.764,-0.412C0.747,-0.408 0.732,-0.401 0.72,-0.39C0.707,-0.378 0.699,-0.362 0.695,-0.345C0.69,-0.322 0.692,-0.298 0.696,-0.275C0.702,-0.245 0.712,-0.21 0.737,-0.19C0.757,-0.174 0.782,-0.169 0.807,-0.174Z" style="fill:rgb(174,188,255);fill-rule:nonzero;"/>
            </g>
            <g transform="matrix(20,0,0,20,467.59,461.641)">
                <path d="M0.664,-0.127C0.641,-0.122 0.615,-0.122 0.594,-0.135C0.574,-0.149 0.565,-0.172 0.561,-0.196L0.499,-0.519C0.494,-0.543 0.494,-0.569 0.506,-0.591C0.519,-0.613 0.541,-0.626 0.564,-0.633C0.586,-0.639 0.611,-0.641 0.632,-0.629C0.653,-0.616 0.664,-0.592 0.669,-0.569L0.679,-0.522L0.659,-0.56C0.668,-0.595 0.685,-0.627 0.71,-0.654C0.736,-0.681 0.768,-0.701 0.803,-0.713C0.835,-0.724 0.87,-0.731 0.904,-0.724C0.934,-0.716 0.959,-0.696 0.977,-0.671C1.001,-0.637 1.014,-0.594 1.023,-0.553L1.067,-0.334C1.071,-0.308 1.07,-0.28 1.056,-0.257C1.042,-0.234 1.019,-0.22 0.994,-0.213C0.971,-0.206 0.944,-0.205 0.923,-0.218C0.902,-0.231 0.892,-0.256 0.888,-0.279L0.848,-0.486C0.843,-0.507 0.837,-0.533 0.819,-0.547C0.804,-0.558 0.786,-0.557 0.769,-0.552C0.745,-0.544 0.724,-0.529 0.712,-0.507C0.699,-0.484 0.697,-0.457 0.702,-0.431L0.738,-0.239C0.748,-0.182 0.72,-0.14 0.664,-0.127Z" style="fill:rgb(174,188,255);fill-rule:nonzero;"/>
            </g>
            <g transform="matrix(20,0,0,20,478.65,461.641)">
                <path d="M0.779,-0.32C0.749,-0.309 0.718,-0.301 0.686,-0.295C0.657,-0.29 0.628,-0.288 0.598,-0.292C0.583,-0.293 0.568,-0.298 0.557,-0.309C0.548,-0.319 0.542,-0.33 0.54,-0.344C0.538,-0.357 0.539,-0.37 0.544,-0.383C0.549,-0.396 0.557,-0.407 0.568,-0.416C0.58,-0.425 0.594,-0.429 0.609,-0.428C0.635,-0.427 0.662,-0.428 0.689,-0.432C0.711,-0.435 0.733,-0.441 0.755,-0.449C0.773,-0.456 0.794,-0.465 0.806,-0.481C0.814,-0.492 0.819,-0.504 0.817,-0.518C0.815,-0.527 0.81,-0.535 0.801,-0.539C0.791,-0.542 0.779,-0.54 0.769,-0.538L0.653,-0.515C0.618,-0.509 0.579,-0.509 0.547,-0.528C0.517,-0.546 0.5,-0.578 0.493,-0.611C0.485,-0.647 0.488,-0.683 0.501,-0.717C0.515,-0.753 0.538,-0.784 0.566,-0.811C0.599,-0.842 0.637,-0.865 0.678,-0.884C0.704,-0.896 0.733,-0.906 0.761,-0.913C0.786,-0.92 0.812,-0.922 0.838,-0.922C0.852,-0.922 0.866,-0.917 0.875,-0.907C0.885,-0.897 0.89,-0.884 0.892,-0.871C0.894,-0.856 0.893,-0.841 0.888,-0.826C0.884,-0.812 0.876,-0.8 0.865,-0.79C0.854,-0.78 0.839,-0.775 0.823,-0.774C0.803,-0.774 0.781,-0.773 0.76,-0.769C0.744,-0.766 0.727,-0.761 0.712,-0.755C0.692,-0.746 0.67,-0.736 0.657,-0.719C0.649,-0.708 0.644,-0.695 0.647,-0.681C0.649,-0.673 0.653,-0.667 0.661,-0.663C0.67,-0.658 0.682,-0.659 0.692,-0.661L0.807,-0.687C0.842,-0.696 0.882,-0.699 0.916,-0.682C0.949,-0.666 0.965,-0.631 0.972,-0.597C0.984,-0.539 0.972,-0.48 0.937,-0.432C0.899,-0.378 0.841,-0.342 0.779,-0.32Z" style="fill:rgb(174,188,255);fill-rule:nonzero;"/>
            </g>
        </g>
    </g>
    <g transform="matrix(0.503904,0,0,0.886511,463.713,-83.1695)">
        <path d="M446.1,499.853C446.1,499.853 447.463,489.266 446.1,469.531C444.737,449.796 446.1,388.159 446.1,388.159" style="fill:none;stroke:rgb(150,167,255);stroke-width:3.33px;"/>
    </g>
    <g transform="matrix(1.63664e-06,0,0,0.409293,528.705,174.12)">
        <path d="M446.1,499.853C446.1,499.853 447.463,489.266 446.1,469.531C444.737,449.796 446.1,388.159 446.1,388.159" style="fill:none;stroke:rgb(150,167,255);stroke-width:8.29px;"/>
    </g>
    <g transform="matrix(0.296694,0,0,0.984734,578.536,-131.438)">
        <path d="M475.746,535.749C475.746,535.749 476.991,451.99 477.141,433.071C477.291,414.152 474.964,388.159 474.964,388.159" style="fill:none;stroke:rgb(150,167,255);stroke-width:3.3px;"/>
    </g>
    <g transform="matrix(-6.38332,2.09155,-1.18883,-3.62825,8621.21,-133.94)">
        <path d="M1137.68,513.762C1137,511.186 1132.33,535.059 1130.62,549.057C1130.88,548.421 1150.07,550.981 1146.24,544.339C1144.43,541.196 1139.4,543.365 1137.69,538.812C1135.62,533.291 1138.5,516.871 1137.68,513.762Z" style="fill:rgb(0,252,232);fill-opacity:0.2;"/>
    </g>
    <g transform="matrix(-4.34067,1.42226,-0.808407,-2.46722,5914.89,63.4818)">
        <path d="M1137.63,513.802C1136.95,511.227 1132.01,534.359 1130.3,548.357C1130.3,548.357 1146.89,550.586 1143.44,543.032C1141.94,539.732 1139.75,539.669 1138.04,535.117C1135.97,529.595 1138.45,516.911 1137.63,513.802Z" style="fill:rgb(0,252,232);fill-opacity:0.2;"/>
    </g>
    <g transform="matrix(2.53787,0.374466,-0.374466,2.53787,-816.764,-950.149)">
        <path d="M514.776,522.484C509.551,521.623 502.891,523.543 497.64,523.779C488.576,524.185 479.451,523.671 470.403,524.317" style="fill:none;stroke:rgb(99,125,255);stroke-width:0.94px;"/>
    </g>
    <g transform="matrix(2.56534,0,0,2.56534,-1021.19,-793.852)">
        <path d="M468.518,526.44C467.596,526.428 466.838,520.553 466.7,520.054C465.4,515.374 465.431,510.242 465.02,505.434C463.079,482.699 466.059,459.853 464.245,437.181" style="fill:none;stroke:rgb(99,125,255);stroke-width:0.94px;"/>
    </g>
    <g transform="matrix(2.56534,0,0,2.56534,-1021.19,-793.852)">
        <path d="M465.583,438.386C464.72,438.018 466.455,439.019 467.087,439.065C468.731,439.186 470.362,438.855 471.953,438.484C475.925,437.558 482.951,435.899 485.152,431.96C486.56,429.441 482.094,427.907 483.645,425.415C485.848,421.874 489.889,419.936 492.386,416.652C494.581,413.765 494.466,410.343 496.111,407.501C497.666,404.814 501.789,403.543 503.754,400.999C507.668,395.935 504.399,387.471 501.472,382.719C498.979,378.671 493.907,377.632 491.31,373.87C489.846,371.751 489.278,369.097 487.757,366.937C481.865,358.57 470.758,347.612 460.219,345.88C458.623,345.617 456.412,345.574 454.944,346.439C454.163,346.9 454.523,348.707 453.867,348.894C450.229,349.934 446.198,350.746 442.413,351.069C433.25,351.85 423.282,350.884 416.511,358.604C413.353,362.206 412.187,366.952 412.593,371.674C412.735,373.332 413.454,375.012 413.174,376.69C412.5,380.732 408.432,383.156 406.908,386.831L406.908,395.358C406.966,395.917 406.856,396.521 407.081,397.037C407.195,397.3 407.261,396.484 407.274,396.197C407.305,395.534 406.524,397.309 406.026,397.748C405.059,398.599 404.091,399.358 403.334,400.417L403.334,405.972C402.968,406.869 402.701,407.814 402.236,408.664C401.977,409.138 402.631,407.648 402.71,407.114C402.802,406.491 402.195,408.263 401.935,408.836C401.432,409.944 400.966,411.065 400.514,412.195C399.348,415.11 397.661,419.209 399.093,422.293C401.331,427.114 406.75,428.978 411.688,429.656C413.534,429.91 415.66,429.838 417.394,429.075C417.784,428.903 418.578,428.451 418.277,428.149C417.914,427.787 418.991,432.446 419.289,432.951C421.454,436.62 423.826,439.484 427.557,441.671C431.341,443.889 434.991,443.729 439.205,444.082C447.324,444.763 452.309,444.873 458.776,439.152" style="fill:none;stroke:rgb(99,125,255);stroke-width:0.94px;"/>
    </g>
    <g transform="matrix(2.56534,0,0,2.56534,-1021.19,-793.852)">
        <path d="M453.661,442.441C453.122,443.429 453.575,445.79 453.587,446.838C453.635,450.708 453.758,454.572 453.695,458.443C453.434,474.5 455.77,490.283 454.944,506.393C454.633,512.45 456.042,524.451 449.195,527.514" style="fill:none;stroke:rgb(99,125,255);stroke-width:0.94px;"/>
    </g>
    <g transform="matrix(2.56534,0,0,2.56534,-1021.19,-793.852)">
        <path d="M445.875,348.901C445.848,348.957 445.894,348.119 445.901,348.011C445.945,347.304 445.945,346.608 445.879,345.901C445.668,343.616 445.162,341.226 444.178,339.14C441.746,333.983 434.879,330.216 429.387,329.688C419.288,328.717 406.46,344.538 417.459,357.6" style="fill:none;stroke:rgb(99,125,255);stroke-width:0.94px;"/>
    </g>
    <g transform="matrix(2.56534,0,0,2.56534,-1021.19,-793.852)">
        <path d="M431.999,316.675C431.882,314.443 432.077,312.153 432.186,309.923" style="fill:none;stroke:rgb(99,125,255);stroke-width:0.94px;"/>
    </g>
    <g transform="matrix(2.56534,0,0,2.56534,-1021.19,-793.852)">
        <path d="M452.609,324.142C455.036,323.397 457.426,322.168 459.81,321.27" style="fill:none;stroke:rgb(99,125,255);stroke-width:0.94px;"/>
    </g>
    <g transform="matrix(2.56534,0,0,2.56534,-1021.19,-793.852)">
        <path d="M460.96,339.096C460.558,339.162 461.777,339.096 462.179,339.033C463.037,338.898 463.89,338.708 464.74,338.538" style="fill:none;stroke:rgb(99,125,255);stroke-width:0.94px;"/>
    </g>
    <g transform="matrix(2.56534,0,0,2.56534,-1021.19,-793.852)">
        <path d="M408.227,323.397C406.222,321.361 404.216,319.34 402.365,317.157" style="fill:none;stroke:rgb(99,125,255);stroke-width:0.94px;"/>
    </g>
    <g transform="matrix(2.56534,0,0,2.56534,-1021.19,-793.852)">
        <path d="M404.913,347.076C404.27,347.215 400.613,348.494 400.003,348.751" style="fill:none;stroke:rgb(99,125,255);stroke-width:0.94px;"/>
    </g>
    <g transform="matrix(-0.260513,0.39905,-0.39905,-0.260513,1663.42,421.953)">
        <path d="M1584.28,1661.12L1573.67,1662.31C1573.67,1662.31 1565.63,1645.38 1568.8,1636.81C1571.96,1628.23 1586.69,1622.96 1586.63,1639.48C1586.57,1656 1584.28,1661.12 1584.28,1661.12Z" style="fill:rgb(99,125,255);stroke:rgb(99,125,255);stroke-width:1.47px;"/>
    </g>
    <g transform="matrix(0.0189572,0.476181,-0.476181,0.0189572,1407.13,-166.687)">
        <path d="M1581.81,1661.18L1570.19,1660.73C1570.19,1660.73 1565.63,1645.38 1568.8,1636.81C1571.96,1628.23 1586.69,1622.96 1586.63,1639.48C1586.57,1656 1581.81,1661.18 1581.81,1661.18Z" style="fill:rgb(99,125,255);stroke:rgb(99,125,255);stroke-width:1.47px;"/>
    </g>
    <g transform="matrix(-0.128459,0.458918,-0.458918,-0.128459,1649.99,120.753)">
        <path d="M1585.14,1660.73L1573.05,1660.63C1573.05,1660.63 1565.63,1645.38 1568.8,1636.81C1571.96,1628.23 1586.69,1622.96 1586.63,1639.48C1586.57,1656 1585.14,1660.73 1585.14,1660.73Z" style="fill:rgb(99,125,255);stroke:rgb(99,125,255);stroke-width:1.47px;"/>
    </g>
    <g transform="matrix(0.0558353,0.473276,-0.473276,0.0558353,1425.67,-217.678)">
        <path d="M1580.54,1661.24L1570.19,1660.73C1570.19,1660.73 1565.63,1645.38 1568.8,1636.81C1571.96,1628.23 1586.69,1622.96 1586.63,1639.48C1586.57,1656 1580.54,1661.24 1580.54,1661.24Z" style="fill:rgb(99,125,255);stroke:rgb(99,125,255);stroke-width:1.47px;"/>
    </g>
    <g transform="matrix(-0.0822644,0.469404,-0.469404,-0.0822644,1673.89,37.4858)">
        <path d="M1582.42,1661.47L1571.78,1660.7C1571.78,1660.7 1565.63,1645.38 1568.8,1636.81C1571.96,1628.23 1586.69,1622.96 1586.63,1639.48C1586.57,1656 1582.42,1661.47 1582.42,1661.47Z" style="fill:rgb(99,125,255);stroke:rgb(99,125,255);stroke-width:1.47px;"/>
    </g>
    <g transform="matrix(0.00748068,0.476499,-0.476499,0.00748068,1579.65,-131.753)">
        <path d="M1585.14,1660.73L1571.18,1660.75C1571.18,1660.75 1565.63,1645.38 1568.8,1636.81C1571.96,1628.23 1586.69,1622.96 1586.63,1639.48C1586.57,1656 1585.14,1660.73 1585.14,1660.73Z" style="fill:rgb(99,125,255);stroke:rgb(99,125,255);stroke-width:1.47px;"/>
    </g>
    <g transform="matrix(-0.0883299,0.4683,-0.4683,-0.0883299,1753.62,55.5468)">
        <path d="M1585.14,1660.73L1572.33,1661.36C1572.33,1661.36 1565.63,1645.38 1568.8,1636.81C1571.96,1628.23 1586.69,1622.96 1586.63,1639.48C1586.57,1656 1585.14,1660.73 1585.14,1660.73Z" style="fill:rgb(99,125,255);stroke:rgb(99,125,255);stroke-width:1.47px;"/>
    </g>
    <g transform="matrix(0.176808,0.442545,-0.442545,0.176808,1313.83,-363.437)">
        <path d="M1582.36,1661.41L1570.19,1660.73C1570.19,1660.73 1565.63,1645.38 1568.8,1636.81C1571.96,1628.23 1586.69,1622.96 1586.63,1639.48C1586.57,1656 1582.36,1661.41 1582.36,1661.41Z" style="fill:rgb(99,125,255);stroke:rgb(99,125,255);stroke-width:1.47px;"/>
    </g>
    <g transform="matrix(-0.000244686,0.476558,-0.476558,-0.000244686,1668.55,-112.426)">
        <path d="M1585.14,1660.73L1572.48,1661.6C1572.48,1661.6 1565.63,1645.38 1568.8,1636.81C1571.96,1628.23 1586.69,1622.96 1586.63,1639.48C1586.57,1656 1585.14,1660.73 1585.14,1660.73Z" style="fill:rgb(99,125,255);stroke:rgb(99,125,255);stroke-width:1.47px;"/>
    </g>
    <g transform="matrix(-0.260513,0.39905,-0.39905,-0.260513,1664.45,422.293)">
        <path d="M1586.43,1670.32L1570.58,1669.44C1570.58,1669.44 1568.43,1683.58 1576.68,1682.92C1584.86,1682.27 1587.32,1676.06 1586.43,1670.32Z" style="fill:rgb(99,125,255);stroke:rgb(99,125,255);stroke-width:1.47px;"/>
    </g>
    <g transform="matrix(0.0189572,0.476181,-0.476181,0.0189572,1408.26,-167.368)">
        <path d="M1586.43,1670.32L1570.58,1669.44C1570.58,1669.44 1568.43,1683.58 1576.68,1682.92C1584.86,1682.27 1587.32,1676.06 1586.43,1670.32Z" style="fill:rgb(99,125,255);stroke:rgb(99,125,255);stroke-width:1.47px;"/>
    </g>
    <g transform="matrix(-0.128459,0.458918,-0.458918,-0.128459,1651.36,120.843)">
        <path d="M1586.43,1670.32L1570.58,1669.44C1570.58,1669.44 1568.43,1683.58 1576.68,1682.92C1584.86,1682.27 1587.32,1676.06 1586.43,1670.32Z" style="fill:rgb(99,125,255);stroke:rgb(99,125,255);stroke-width:1.47px;"/>
    </g>
    <g transform="matrix(0.0558353,0.473276,-0.473276,0.0558353,1426.74,-218.29)">
        <path d="M1586.43,1670.32L1570.58,1669.44C1570.58,1669.44 1568.43,1683.58 1576.68,1682.92C1584.86,1682.27 1587.32,1676.06 1586.43,1670.32Z" style="fill:rgb(99,125,255);stroke:rgb(99,125,255);stroke-width:1.47px;"/>
    </g>
    <g transform="matrix(-0.0822644,0.469404,-0.469404,-0.0822644,1675.18,36.6348)">
        <path d="M1586.43,1670.32L1570.58,1669.44C1570.58,1669.44 1568.43,1683.58 1576.68,1682.92C1584.86,1682.27 1587.32,1676.06 1586.43,1670.32Z" style="fill:rgb(99,125,255);stroke:rgb(99,125,255);stroke-width:1.47px;"/>
    </g>
    <g transform="matrix(0.00748068,0.476499,-0.476499,0.00748068,1580.8,-132.455)">
        <path d="M1586.43,1670.32L1570.58,1669.44C1570.58,1669.44 1568.43,1683.58 1576.68,1682.92C1584.86,1682.27 1587.32,1676.06 1586.43,1670.32Z" style="fill:rgb(99,125,255);stroke:rgb(99,125,255);stroke-width:1.47px;"/>
    </g>
    <g transform="matrix(-0.0883299,0.4683,-0.4683,-0.0883299,1754.92,55.6868)">
        <path d="M1585.84,1668.52L1572.14,1669.14C1572.14,1669.14 1568.43,1683.58 1576.68,1682.92C1584.86,1682.27 1586.73,1674.26 1585.84,1668.52Z" style="fill:rgb(99,125,255);stroke:rgb(99,125,255);stroke-width:1.47px;"/>
    </g>
    <g transform="matrix(0.176808,0.442545,-0.442545,0.176808,1315,-364.016)">
        <path d="M1584.05,1668.91L1570.58,1669.44C1570.58,1669.44 1568.43,1683.58 1576.68,1682.92C1584.86,1682.27 1584.94,1674.65 1584.05,1668.91Z" style="fill:rgb(99,125,255);stroke:rgb(99,125,255);stroke-width:1.47px;"/>
    </g>
    <g transform="matrix(-0.000244686,0.476558,-0.476558,-0.000244686,1669.85,-112.529)">
        <path d="M1585.04,1670.32L1572.37,1669.44C1572.37,1669.44 1568.43,1683.58 1576.68,1682.92C1584.86,1682.27 1585.93,1676.06 1585.04,1670.32Z" style="fill:rgb(99,125,255);stroke:rgb(99,125,255);stroke-width:1.47px;"/>
    </g>
    <g transform="matrix(2.53787,0.374466,-0.374466,2.53787,-752.343,-926.695)">
        <path d="M488.687,517.148C489.492,516.318 490.421,516.728 490.741,514.845C490.798,514.513 490.648,511.582 490.809,511.502C492.039,510.887 490.339,516.652 491.235,515.607C491.965,514.756 493.399,509.416 494.375,509.416C494.705,509.416 492.867,515.091 493.119,515.428C493.351,515.737 494.333,514.766 494.712,515.069C496.741,516.692 501.924,515.45 504.739,515.45" style="fill:none;stroke:rgb(99,125,255);stroke-width:0.94px;"/>
    </g>
    <g transform="matrix(1.66572,0,0,1.66572,-301.25,-265.998)">
        <path d="M842.528,512.26C842.425,512.52 840.495,511.968 840.27,511.93C838.14,511.575 824.135,511.796 825.39,516.502C827.353,523.866 851.964,515.373 840.773,511.93" style="fill:none;stroke:rgb(99,125,255);stroke-width:1.44px;"/>
    </g>
    <g transform="matrix(1.66572,0,0,1.66572,-301.25,-265.998)">
        <path d="M823.012,518.305C824.785,516.047 827.487,535.36 827.676,537.35C827.766,538.297 827.624,542.296 828.335,543.007C828.47,543.142 838.891,542.306 839.262,541.341C843.004,531.612 844.377,521.214 844.377,510.845" style="fill:none;stroke:rgb(99,125,255);stroke-width:1.44px;"/>
    </g>
    <g transform="matrix(1.66572,0,0,1.66572,-301.25,-265.998)">
        <path d="M839.107,513.778C840.087,515.072 838.844,510.51 839.107,508.908C839.565,506.118 840.239,503.354 840.928,500.615C842.998,492.394 845.747,484.335 848.911,476.474" style="fill:none;stroke:rgb(99,125,255);stroke-width:1.44px;"/>
    </g>
    <g transform="matrix(1.66572,0,0,1.66572,-301.25,-265.998)">
        <path d="M835.735,508.053C835.538,507.658 835.461,509.767 835.658,509.373C837.931,504.828 837.138,496.389 837.441,491.509C838.251,478.478 837.549,465.882 837.131,452.914" style="fill:none;stroke:rgb(99,125,255);stroke-width:1.44px;"/>
    </g>
    <g transform="matrix(1.66572,0,0,1.66572,-301.25,-265.998)">
        <path d="M833.048,509.943C833.48,510.069 827.986,493.095 827.986,489.416" style="fill:none;stroke:rgb(99,125,255);stroke-width:1.44px;"/>
    </g>
    <g transform="matrix(1.66572,0,0,1.66572,-301.25,-265.998)">
        <path d="M826.622,500.02C825.945,496.899 822.714,495.965 819.926,496.314" style="fill:none;stroke:rgb(99,125,255);stroke-width:1.44px;"/>
    </g>
    <g transform="matrix(1.66572,0,0,1.66572,-301.25,-265.998)">
        <path d="M841.889,504.906C841.804,505.047 843.355,504.473 843.477,504.389C844.337,503.792 846.588,501.752 845.656,500.524C844.344,498.794 842.581,502.23 842.126,503.008C842.069,503.106 841.076,504.554 841.066,504.534C840.85,504.103 841.365,502.859 841.4,502.398C841.529,500.665 841.199,497.37 839.526,496.282C838.674,495.729 838.861,497.451 838.901,497.837C839.009,498.884 839.552,499.936 840.368,500.597" style="fill:none;stroke:rgb(99,125,255);stroke-width:1.44px;"/>
    </g>
    <g transform="matrix(1.66572,0,0,1.66572,-301.25,-265.998)">
        <path d="M843.38,495.851C843.5,495.748 844.869,495.956 845.104,495.919C846.611,495.682 848.063,494.835 848.983,493.609C850.143,492.062 849.257,490.552 847.342,490.994C845.987,491.306 845.259,492.177 844.465,493.246" style="fill:none;stroke:rgb(99,125,255);stroke-width:1.44px;"/>
    </g>
    <g transform="matrix(1.66572,0,0,1.66572,-301.25,-265.998)">
        <path d="M842.182,492.2C842.136,490.51 841.204,488.884 841.182,487.159C841.171,486.329 842.385,482.553 843.797,483.919C845.536,485.602 843.575,489.634 842.576,491.154" style="fill:none;stroke:rgb(99,125,255);stroke-width:1.44px;"/>
    </g>
    <g transform="matrix(1.66572,0,0,1.66572,-301.25,-265.998)">
        <path d="M845.878,487.248C845.841,487.253 846.964,487.252 847.298,487.144C848.46,486.769 849.545,486.201 850.247,485.168C851.655,483.098 850.41,481.228 848.417,483.221" style="fill:none;stroke:rgb(99,125,255);stroke-width:1.44px;"/>
    </g>
    <g transform="matrix(1.66572,0,0,1.66572,-301.25,-265.998)">
        <path d="M848.735,478.852C848.739,478.85 848.742,478.847 848.745,478.845L848.749,478.841C850.283,477.778 852.41,477.996 853.719,476.306C855.593,473.887 854.283,471.241 851.642,473.662" style="fill:none;stroke:rgb(99,125,255);stroke-width:1.44px;"/>
    </g>
    <g transform="matrix(1.66572,0,0,1.66572,-301.25,-265.998)">
        <path d="M847.577,478.3C847.691,478.286 848.176,475.959 848.228,475.783C848.862,473.628 850.223,467.846 847.501,466.485C845.555,465.512 843.884,469.051 843.681,470.422C843.201,473.652 844.618,475.452 846.949,477.265" style="fill:none;stroke:rgb(99,125,255);stroke-width:1.44px;"/>
    </g>
    <g transform="matrix(1.66572,0,0,1.66572,-301.25,-265.998)">
        <path d="M838.579,492.373C837.99,492.178 837.151,489.347 836.533,488.815C835.52,487.944 833.354,487.454 833.453,489.468C833.55,491.448 837.257,493.794 839.104,492.563" style="fill:none;stroke:rgb(99,125,255);stroke-width:1.44px;"/>
    </g>
    <g transform="matrix(1.66572,0,0,1.66572,-301.25,-265.998)">
        <path d="M837.501,486.523C838.601,484.802 837.804,481.515 838.697,479.473C840.078,476.319 843.682,476.47 842.533,480.301C841.662,483.204 838.856,484.322 837.245,486.577" style="fill:none;stroke:rgb(99,125,255);stroke-width:1.44px;"/>
    </g>
    <g transform="matrix(1.66572,0,0,1.66572,-301.25,-265.998)">
        <path d="M837.971,472.569C837.755,472.441 837.759,470.631 837.724,470.35C837.484,468.429 835.686,463.396 832.944,465.265C829.548,467.58 833.979,471.877 836.126,472.907C836.665,473.165 837.754,473.822 838.407,473.604" style="fill:none;stroke:rgb(99,125,255);stroke-width:1.44px;"/>
    </g>
    <g transform="matrix(1.66572,0,0,1.66572,-301.25,-265.998)">
        <path d="M837.31,463.135C837.027,462.579 837.47,461.208 837.564,460.66C837.845,459.03 838.116,456.98 839.366,455.778C840.427,454.758 843.345,453.807 843.913,455.836C844.285,457.165 843.545,458.668 842.954,459.817C842.552,460.6 842.052,461.312 841.4,461.909C840.366,462.855 839.021,463.502 837.826,464.219" style="fill:none;stroke:rgb(99,125,255);stroke-width:1.44px;"/>
    </g>
    <g transform="matrix(1.66572,0,0,1.66572,-301.25,-265.998)">
        <path d="M836.515,452.902C836.35,453.086 836.638,452.401 836.576,452.161C836.443,451.64 836.132,451.186 835.792,450.781C834.963,449.794 833.272,448.473 832.233,449.938C830.203,452.8 832.254,454.326 834.862,454.572C835.549,454.637 836.822,455.454 837.361,454.848" style="fill:none;stroke:rgb(99,125,255);stroke-width:1.44px;"/>
    </g>
    <g transform="matrix(1.66572,0,0,1.66572,-301.25,-265.998)">
        <path d="M837.571,454.116C837.086,453.999 837.009,451.72 836.983,451.376C836.81,449.068 837.805,445.595 840.107,444.49C841.773,443.69 842.485,446.992 842.446,448.049C842.376,449.919 840.265,451.519 838.973,452.626" style="fill:none;stroke:rgb(99,125,255);stroke-width:1.44px;"/>
    </g>
    <g transform="matrix(1.66572,0,0,1.66572,-301.25,-265.998)">
        <path d="M828.382,486.296C828.55,485.735 828.503,485.105 828.484,484.529C828.392,481.754 826.185,488.294 828.92,487.493C829.353,487.366 829.783,487.131 830.126,486.839C832.404,484.9 830.449,479.161 827.86,483.439" style="fill:none;stroke:rgb(99,125,255);stroke-width:1.44px;"/>
    </g>
    <g transform="matrix(1.66572,0,0,1.66572,-301.25,-265.998)">
        <path d="M829.7,495.731C829.566,494.242 830.355,492.63 831.099,491.401C831.274,491.113 832.021,489.947 832.509,490.209C833.093,490.524 832.57,491.841 832.436,492.243C831.869,493.945 830.85,495.924 828.877,496.253C828.364,496.338 828.689,495.2 828.397,494.771C827.93,494.085 825.962,491.387 825.128,492.766C823.388,495.645 826.878,499.253 829.647,497.037" style="fill:none;stroke:rgb(99,125,255);stroke-width:1.44px;"/>
    </g>
    <g transform="matrix(1.66572,0,0,1.66572,-301.25,-265.998)">
        <path d="M832.784,504.094C832.521,502.785 832.999,499.132 834.978,499.362C836.361,499.523 836.268,502.434 835.821,503.285C835.215,504.438 834.154,504.879 833.293,505.74" style="fill:none;stroke:rgb(99,125,255);stroke-width:1.44px;"/>
    </g>
    <g transform="matrix(1.66572,0,0,1.66572,-301.25,-265.998)">
        <path d="M817.72,496.406C817.191,496.403 816.86,496.379 816.339,496.645C814.896,497.383 818.625,497.27 817.777,495.817" style="fill:none;stroke:rgb(99,125,255);stroke-width:1.44px;"/>
    </g>
    <g transform="matrix(1.66572,0,0,1.66572,-301.25,-265.998)">
        <path d="M819.659,495.005C819.343,495.09 818.886,493.762 818.809,493.58C818.312,492.414 817.683,490.958 818.736,489.904C821.393,487.247 822.679,492.688 820.901,494.466" style="fill:none;stroke:rgb(99,125,255);stroke-width:1.44px;"/>
    </g>
    <g transform="matrix(1.66572,0,0,1.66572,-301.25,-265.998)">
        <path d="M823.093,499.262C822.079,497.692 818.509,500.436 818.969,501.861C819.726,504.208 822.789,500.736 822.789,499.289" style="fill:none;stroke:rgb(99,125,255);stroke-width:1.44px;"/>
    </g>
    <g transform="matrix(1.66572,0,0,1.66572,-301.25,-265.998)">
        <path d="M825.991,498.969C826.43,499.56 826.369,501.094 826.479,501.774C826.896,504.326 827.219,506.849 827.395,509.43C827.47,510.543 827.525,511.66 827.627,512.771C827.681,513.356 827.729,515.116 827.729,514.529" style="fill:none;stroke:rgb(99,125,255);stroke-width:1.44px;"/>
    </g>
    <g transform="matrix(1.66572,0,0,1.66572,-301.25,-265.998)">
        <path d="M826.372,503.159C825.85,502.535 827.105,498.89 828.165,499.754C829.742,501.041 829.184,503.285 828.281,504.723C828.04,505.107 827.816,505.508 827.613,505.914C827.497,506.146 827.52,506.824 827.337,506.64C826.493,505.797 826.302,504.273 824.576,504.519C822.974,504.748 822.303,508.011 823.356,509.038C824.371,510.026 826.705,510.003 828.034,510.389" style="fill:none;stroke:rgb(99,125,255);stroke-width:1.44px;"/>
    </g>
    <g transform="matrix(1.66572,0,0,1.66572,-301.25,-265.998)">
        <path d="M832.802,508.506C833.437,508.353 832.898,509.81 832.959,510.461C833.148,512.473 833.266,514.459 833.104,516.476" style="fill:none;stroke:rgb(99,125,255);stroke-width:1.44px;"/>
    </g>
    <g transform="matrix(2.63852,-0.588406,0.408152,1.83023,-1449.09,43.0188)">
        <path d="M806.129,437.001C807.001,437.134 809.009,435.518 809.638,435.065C812.989,432.66 815.332,427.478 819.752,426.761C824.546,425.984 827.817,433.109 823.749,436.047C823.211,436.436 822.444,436.709 821.785,436.771C821.299,436.817 820.799,436.727 820.337,436.582C816.899,435.501 821.443,431.301 822.525,432.653" style="fill:none;stroke:rgb(99,125,255);stroke-width:1.03px;"/>
    </g>
    <g transform="matrix(-2.55612,0.497525,0.345112,1.77307,2870.86,-829.3)">
        <path d="M806.129,437.001C807.001,437.134 809.009,435.518 809.638,435.065C812.989,432.66 815.332,427.478 819.752,426.761C824.546,425.984 827.817,433.109 823.749,436.047C823.211,436.436 822.444,436.709 821.785,436.771C821.299,436.817 820.799,436.727 820.337,436.582C816.899,435.501 821.443,431.301 822.525,432.653" style="fill:none;stroke:rgb(99,125,255);stroke-width:1.07px;"/>
    </g>
    <g transform="matrix(-2.54723,-0.339597,0.107878,-1.41546,679.403,884.533)">
        <path d="M226.62,339.013C221.97,336.649 204.843,341.894 199.919,348.714C192.362,359.183 198.927,360.84 195.623,368.716C193.493,373.793 190.404,376.831 188.721,382.373C186.335,390.232 187.154,397.355 184.946,403.638C181.292,414.035 177.999,413.674 177.473,418.685C175.948,433.231 176.535,429.119 184.649,446.696C200.606,481.265 195.34,423.895 205.477,398.463C211.743,382.74 227.997,376.785 229.146,359.835C229.437,355.543 233.112,338.594 226.62,339.013" style="fill:rgb(86,96,255);fill-opacity:0.15;"/>
    </g>
</svg>
