<?xml version="1.0" encoding="UTF-8" standalone="no"?>
<!DOCTYPE svg PUBLIC "-//W3C//DTD SVG 1.1//EN" "http://www.w3.org/Graphics/SVG/1.1/DTD/svg11.dtd">
<svg width="100%" height="100%" viewBox="0 0 97 184" version="1.1" xmlns="http://www.w3.org/2000/svg" xmlns:xlink="http://www.w3.org/1999/xlink" xml:space="preserve" xmlns:serif="http://www.serif.com/" style="fill-rule:evenodd;clip-rule:evenodd;stroke-linecap:round;stroke-linejoin:round;stroke-miterlimit:1.5;">
    <g transform="matrix(1,0,0,1,-351.501,-308.478)">
        <g transform="matrix(1,0,0,1,-2500.79,-152.668)">
            <g transform="matrix(2.5663,0,0,2.66175,2295.98,-164.575)">
                <path d="M238.245,241.629C230.324,239.857 233.678,253.03 237.415,251.544C242.623,249.474 239.563,241.63 238.245,241.629" style="fill:none;stroke:white;stroke-width:0.96px;"/>
            </g>
        </g>
        <g transform="matrix(1,0,0,1,-2500.79,-152.668)">
            <path d="M2906.57,483.158C2904.27,487.236 2900.35,489.83 2895.75,490.496" style="fill:none;stroke:white;stroke-width:2.5px;"/>
        </g>
        <g transform="matrix(1,0,0,1,-2500.79,-152.668)">
            <g transform="matrix(2.2798,0,0,2.46375,2365.78,-114.642)">
                <path d="M239.058,254.574C245.948,250.727 248.473,244.898 251.599,238.467" style="fill:none;stroke:white;stroke-width:1.05px;"/>
            </g>
        </g>
        <g transform="matrix(1,0,0,1,-2500.79,-152.668)">
            <g transform="matrix(1.99545,0,0,2.06436,2434.44,-10.9153)">
                <path d="M254.469,236.178C255.82,235.229 258.673,229.703 256.728,229.323C255.104,229.005 252.591,230.386 251.977,231.614C251.267,233.034 255.472,236.95 255.43,237.636C254.959,245.347 247.826,255.224 241.448,259.712" style="fill:none;stroke:white;stroke-width:1.23px;"/>
            </g>
        </g>
        <g transform="matrix(1,0,0,1,-2500.79,-152.668)">
            <g transform="matrix(2.2798,0,0,2.46375,2365.78,-114.642)">
                <path d="M239.058,254.574C230.12,253.752 229.502,256.61 228.701,257.928C226.598,261.386 225.679,265.546 223.533,268.994C222.891,270.025 222.13,271.015 221.385,271.973C219.806,274.002 214.821,277.111 214.208,278.6C213.778,279.644 213.858,280.925 214.614,281.802C216.83,284.372 218.64,278.235 218.77,278.235C219.632,278.235 220.459,278.056 221.283,277.809C223.735,277.074 226,275.185 227.586,273.209C229.589,270.714 229.859,270.074 229.522,270.853" style="fill:none;stroke:white;stroke-width:1.05px;"/>
            </g>
        </g>
        <g transform="matrix(1,0,0,1,-2500.79,-152.668)">
            <g transform="matrix(3.44215,0,0,3.71989,2758.42,135.231)">
                <path d="M30.828,117.108C30.828,117.108 31.211,116.355 29.382,115.743" style="fill:none;stroke:white;stroke-width:0.7px;"/>
            </g>
        </g>
        <g transform="matrix(1,0,0,1,-2500.79,-152.668)">
            <g transform="matrix(3.44215,0,0,3.71989,2758.42,135.231)">
                <path d="M37.145,120.662C37.145,120.662 43.97,116.94 48.495,119.887" style="fill:none;stroke:white;stroke-width:0.7px;"/>
            </g>
        </g>
        <g transform="matrix(1,0,0,1,-2500.79,-152.668)">
            <g transform="matrix(2.2798,0,0,2.46375,2365.78,-114.642)">
                <path d="M230.718,266.53C228.105,272.559 228.286,288.313 228.35,298.098C228.368,300.77 228.525,307.109 228.802,307.441C229.348,308.096 228.76,302.121 232.835,303.142C236.553,304.074 234.666,307.662 234.983,307.175C236.953,304.147 238.601,304.427 239.888,305.614C240.409,306.095 241.266,307.236 241.266,307.236C241.266,307.236 241.309,306.18 241.367,305.655C241.496,304.492 241.622,303.327 241.793,302.169C242.24,299.134 243.195,296.184 243.779,293.171C245.282,285.405 247.495,268.203 241.448,259.712" style="fill:none;stroke:white;stroke-width:1.05px;"/>
            </g>
        </g>
        <g transform="matrix(1,0,0,1,-2500.79,-152.668)">
            <g transform="matrix(2.2798,0,0,2.46375,2596.58,-1151.38)">
                <path d="M133.708,727.522C133.649,727.511 134.387,725.252 134.425,725.138C134.951,723.56 135.312,721.885 135.53,720.237C136.149,715.547 135.983,711.062 135.983,706.353" style="fill:none;stroke:white;stroke-width:1.05px;"/>
            </g>
        </g>
        <g transform="matrix(1,0,0,1,-2500.79,-152.668)">
            <path d="M2887.41,642.818C2887.41,642.818 2909.13,641.978 2915.82,642.311" style="fill:none;stroke:white;stroke-width:2.5px;"/>
        </g>
    </g>
</svg>
